<?xml version="1.0" standalone="no"?>
<!DOCTYPE svg PUBLIC "-//W3C//DTD SVG 20010904//EN"
 "http://www.w3.org/TR/2001/REC-SVG-20010904/DTD/svg10.dtd">
<svg version="1.0" xmlns="http://www.w3.org/2000/svg"
 width="320.000000pt" height="320.000000pt" viewBox="0 0 320.000000 320.000000"
 preserveAspectRatio="xMidYMid meet">
<metadata>
Created by potrace 1.14, written by Peter Selinger 2001-2017
</metadata>
<g transform="translate(0.000000,320.000000) scale(0.100000,-0.100000)"
fill="#000000" stroke="none">
<path d="M2245 2776 c-11 -12 -49 -43 -83 -69 -35 -26 -57 -47 -47 -47 9 0 13
-5 10 -10 -3 -6 1 -13 9 -16 9 -3 16 -10 16 -15 0 -10 22 -38 58 -75 13 -13
20 -24 16 -24 -4 0 5 -9 20 -21 14 -11 26 -25 26 -30 0 -8 20 -35 48 -64 6 -8
12 -18 12 -24 0 -6 4 -11 8 -11 4 0 16 -13 25 -30 19 -32 44 -39 53 -15 4 8
10 13 14 10 5 -3 13 3 19 12 6 10 11 14 11 9 0 -5 9 1 20 14 11 13 20 20 20
16 0 -4 7 0 16 9 9 9 27 23 40 32 23 15 23 16 7 44 -10 16 -21 29 -25 29 -4 0
-8 5 -8 11 0 6 -6 16 -12 23 -30 31 -73 90 -71 98 2 4 -1 7 -6 6 -4 -2 -23 15
-42 37 -45 54 -95 102 -116 113 -13 7 -23 4 -38 -12z"/>
<path d="M1890 2683 c-8 -3 -34 -21 -57 -40 -24 -19 -43 -32 -43 -28 0 3 -11
-6 -25 -20 -14 -14 -30 -25 -34 -25 -5 0 -12 -7 -15 -16 -3 -8 -2 -12 4 -9 6
3 10 2 10 -3 0 -9 19 -32 79 -98 11 -12 17 -25 14 -28 -4 -3 -1 -6 5 -6 6 0
14 -9 17 -20 4 -11 11 -18 16 -15 5 4 9 0 9 -8 0 -8 9 -22 20 -32 11 -10 20
-22 20 -27 0 -5 5 -14 10 -21 6 -7 25 -34 42 -61 18 -27 34 -44 36 -38 2 7 8
10 12 7 5 -3 14 4 20 15 6 11 17 20 24 20 8 0 17 7 20 16 4 9 9 14 12 11 3 -3
15 2 26 11 11 9 31 26 44 38 l25 20 -26 38 c-14 20 -25 41 -25 46 0 5 -6 13
-13 17 -7 4 -26 26 -43 48 -16 22 -32 42 -36 43 -5 2 -8 8 -8 13 0 5 -12 23
-27 38 -44 46 -58 65 -55 74 1 5 -2 6 -6 3 -12 -7 -44 28 -35 37 7 8 4 8 -17
0z"/>
<path d="M381 2576 c-13 -15 -16 -1676 -3 -1676 4 0 8 -8 9 -17 3 -54 8 -80
17 -92 8 -11 8 -13 -2 -7 -11 7 -11 4 0 -15 7 -13 15 -26 18 -29 3 -3 7 -16 8
-30 2 -14 10 -29 18 -33 8 -5 12 -12 10 -16 -3 -4 4 -17 14 -29 11 -12 20 -26
20 -32 0 -6 4 -8 10 -5 6 3 10 1 10 -4 0 -6 9 -20 20 -31 11 -11 20 -17 20
-14 0 4 10 -4 23 -18 12 -13 37 -31 55 -39 18 -7 32 -18 32 -23 0 -4 7 -6 15
-2 8 3 15 1 15 -5 0 -6 4 -8 9 -4 5 3 17 -2 25 -11 12 -11 16 -12 16 -2 0 8 3
9 8 3 7 -9 14 -12 52 -20 8 -2 15 -4 15 -5 0 -1 14 -3 30 -5 17 -1 30 -3 30
-5 0 -1 23 -3 51 -4 28 -2 55 -6 61 -9 6 -4 14 -1 16 5 4 10 6 10 6 0 1 -10 6
-10 21 -2 11 6 20 7 20 3 0 -12 94 -10 102 2 5 6 8 6 8 -1 0 -6 7 -11 15 -11
8 0 15 4 15 9 0 5 8 4 18 -1 13 -7 23 -6 30 1 8 8 12 8 12 1 0 -13 42 -12 52
2 5 7 8 7 8 0 0 -11 61 -11 79 -1 5 4 13 2 16 -4 5 -8 11 -7 22 1 11 10 16 10
22 0 10 -16 22 -16 32 1 7 10 9 10 9 0 0 -10 5 -10 20 -2 11 6 20 7 20 3 0
-12 104 -10 112 2 5 7 8 6 8 0 0 -6 11 -11 25 -11 14 0 25 4 25 9 0 5 5 5 13
0 12 -10 44 -10 54 1 3 3 14 1 24 -5 11 -5 19 -6 19 -2 0 4 37 8 83 8 45 -1
94 2 108 6 16 4 32 2 38 -4 8 -8 11 -8 11 0 0 6 14 10 31 9 16 -1 32 0 34 3 2
3 28 6 59 6 39 0 56 3 56 12 0 7 5 13 10 13 6 0 5 8 -2 19 -9 15 -9 23 3 37 9
11 9 15 2 10 -8 -4 -13 -2 -13 8 0 8 5 18 10 21 7 4 8 11 2 18 -14 18 -20 87
-7 87 5 0 3 5 -5 10 -9 6 -10 10 -3 10 8 0 9 9 4 28 -4 15 -7 54 -6 88 l1 60
-30 -2 c-17 -1 -31 -3 -31 -4 0 -4 -44 -10 -86 -13 -26 -2 -54 -9 -63 -16 -14
-12 -16 -12 -10 2 6 16 -19 18 -33 2 -4 -4 -2 -5 6 0 9 5 12 4 8 -2 -7 -11
-36 -11 -55 1 -6 4 -12 3 -12 -1 0 -5 -22 -9 -50 -8 -28 1 -50 -3 -50 -8 0 -5
-8 -3 -17 4 -15 12 -16 12 -10 -4 5 -14 3 -16 -12 -8 -10 6 -21 7 -25 3 -4 -3
-11 0 -16 8 -8 12 -10 12 -10 -4 0 -16 -2 -17 -17 -5 -11 10 -14 10 -9 2 4 -7
2 -13 -3 -13 -6 0 -11 5 -11 11 0 6 -5 7 -12 2 -20 -12 -610 -11 -627 1 -11 8
-13 8 -7 -1 9 -16 -6 -17 -22 -1 -9 9 -12 9 -12 -1 0 -11 -3 -11 -16 -1 -8 8
-31 14 -51 16 -20 1 -38 6 -42 11 -3 4 -13 9 -21 11 -8 2 -16 8 -18 13 -2 5
-10 9 -18 9 -9 0 -12 5 -9 10 3 6 1 10 -5 10 -6 0 -8 5 -5 10 3 6 2 10 -3 10
-10 0 -22 30 -27 61 -1 9 -5 21 -9 28 -4 6 -2 11 4 11 7 0 8 6 2 18 -5 9 -7
23 -4 31 3 10 0 11 -9 5 -11 -6 -12 -5 -3 7 13 16 13 77 0 98 -6 10 -5 12 2 7
7 -4 12 -3 12 3 0 5 -6 12 -12 14 -7 3 -4 6 7 7 19 1 19 1 2 11 -14 8 -16 14
-6 25 6 8 8 14 4 14 -4 0 -2 6 4 14 8 9 8 16 2 20 -5 4 -8 18 -5 32 3 14 1 23
-4 20 -5 -3 -9 1 -9 9 0 8 4 12 8 10 3 -3 9 3 11 13 3 10 15 18 29 19 13 1 25
7 27 13 3 7 9 7 20 -2 9 -7 13 -8 9 -2 -7 11 -1 13 80 30 18 3 31 10 28 14 -3
5 6 7 19 6 14 -2 27 2 29 8 3 7 18 12 33 11 16 0 35 6 42 15 12 13 12 13 6 0
-7 -13 -5 -13 9 -1 9 7 24 11 32 7 9 -3 13 -2 10 4 -3 5 7 12 22 16 15 4 34
12 42 18 12 9 13 8 7 -3 -6 -8 0 -7 18 4 14 10 26 13 26 9 0 -5 4 -4 8 3 4 6
19 14 32 16 14 3 43 13 65 22 22 10 46 17 53 16 7 -1 15 5 19 14 5 13 7 14 14
3 7 -10 9 -11 9 0 0 7 5 10 10 7 6 -3 10 -2 10 2 0 5 12 10 27 11 15 1 30 8
35 15 4 6 8 8 8 3 0 -5 8 -2 18 6 9 9 25 14 35 13 9 -2 17 1 17 6 0 6 5 7 10
4 6 -3 10 -2 10 2 0 5 10 10 22 10 13 1 24 7 26 13 2 5 12 10 21 10 10 0 21 3
25 8 4 4 11 7 14 7 4 1 17 6 30 13 12 7 26 11 31 8 5 -3 14 1 21 9 7 8 21 15
31 15 11 0 19 5 19 12 0 6 3 9 6 5 3 -3 22 3 42 13 19 11 40 16 45 13 6 -4 8
0 5 8 -4 11 1 14 23 13 16 -1 29 2 29 7 0 5 5 9 11 9 5 0 7 -6 3 -12 -5 -8 0
-7 11 2 11 9 16 10 11 3 -9 -17 4 -16 27 1 18 14 23 36 8 36 -6 0 -20 18 -32
40 -13 22 -26 40 -31 40 -4 0 -8 5 -8 11 0 7 -9 20 -21 30 -11 9 -19 21 -18
24 1 4 -11 21 -27 38 -16 17 -23 28 -17 23 9 -5 11 -2 7 8 -3 9 -13 16 -21 16
-8 0 -12 4 -9 9 3 5 -1 12 -10 15 -8 3 -13 10 -10 14 3 5 -4 16 -15 25 -10 9
-19 23 -19 31 0 8 -7 16 -15 20 -8 3 -15 0 -15 -7 0 -9 -2 -9 -8 0 -5 8 -11 8
-24 -1 -10 -7 -15 -16 -11 -20 4 -4 0 -4 -10 0 -10 3 -17 1 -17 -6 0 -6 -5 -8
-10 -5 -5 3 -10 1 -10 -4 0 -6 -6 -11 -14 -11 -7 0 -26 -10 -42 -22 -15 -13
-25 -17 -20 -10 4 6 -10 2 -31 -10 -21 -12 -39 -26 -41 -30 -2 -4 -9 -5 -16
-2 -8 3 -20 -2 -29 -10 -9 -9 -22 -16 -31 -16 -8 0 -22 -7 -30 -16 -12 -12
-16 -12 -16 -2 0 8 -5 6 -11 -5 -6 -9 -14 -15 -20 -12 -5 4 -9 1 -9 -5 0 -6
-4 -9 -9 -5 -5 3 -12 1 -16 -5 -3 -5 -15 -10 -26 -10 -10 0 -19 -4 -19 -10 0
-5 -9 -10 -20 -10 -11 0 -20 -4 -20 -10 0 -5 -3 -9 -7 -8 -15 3 -93 -25 -93
-34 0 -4 -6 -8 -14 -8 -7 0 -31 -8 -52 -17 -22 -9 -48 -18 -59 -19 -10 -1 -21
-7 -23 -13 -2 -6 -12 -11 -22 -11 -10 0 -22 -4 -25 -10 -3 -5 -17 -10 -31 -10
-13 0 -24 -4 -24 -8 0 -4 -10 -8 -22 -9 -11 -1 -24 -7 -28 -13 -4 -7 -11 -11
-16 -10 -9 1 -52 -11 -69 -20 -3 -1 -9 -3 -14 -4 -5 0 -13 -4 -17 -8 -4 -5
-17 -8 -30 -8 -19 0 -22 4 -18 33 4 24 2 28 -5 17 -7 -9 -11 -10 -11 -3 0 6 5
15 10 18 6 4 8 10 5 15 -3 5 -1 12 5 15 7 4 8 11 2 18 -5 7 -8 24 -6 40 2 19
-1 25 -9 20 -7 -4 -6 0 2 10 7 9 10 17 6 17 -4 0 -2 6 4 14 8 9 8 16 2 20 -5
4 -8 20 -6 36 3 21 1 28 -7 24 -7 -5 -8 -2 -3 7 14 21 15 60 3 53 -7 -5 -8 -2
-2 7 12 20 14 80 1 72 -6 -4 -7 -1 -1 8 12 20 13 100 1 92 -6 -4 -7 -1 -1 8
13 21 13 120 0 112 -7 -5 -7 -2 0 8 6 8 11 26 10 42 -1 15 2 27 7 27 4 0 6 4
2 9 -3 6 3 8 14 6 29 -5 71 37 59 59 -8 13 -13 15 -24 5 -8 -6 -14 -7 -14 -2
0 5 -7 10 -15 10 -8 0 -15 -5 -15 -10 0 -5 -7 -4 -15 3 -12 10 -15 10 -15 -1
0 -11 -2 -11 -10 1 -5 8 -12 11 -16 7 -4 -4 -13 -2 -21 4 -9 8 -13 8 -13 1 0
-7 -7 -9 -17 -5 -12 5 -14 3 -8 -8 5 -8 -1 -5 -13 5 -17 14 -22 16 -22 5 0
-12 -2 -12 -9 0 -6 9 -11 10 -15 2 -4 -6 -12 -8 -18 -5 -5 4 -51 7 -102 8 -51
1 -97 5 -103 9 -6 4 -16 1 -22 -7z"/>
</g>
</svg>
