<?xml version="1.0" encoding="utf-8"?>
<!-- Generator: Adobe Illustrator 27.0.0, SVG Export Plug-In . SVG Version: 6.00 Build 0)  -->
<svg version="1.1" id="レイヤー_1" xmlns="http://www.w3.org/2000/svg" xmlns:xlink="http://www.w3.org/1999/xlink" x="0px"
	 y="0px" viewBox="0 0 500 140" style="enable-background:new 0 0 500 140;" xml:space="preserve">
<style type="text/css">
	.st0{fill:#E80019;}
	.st1{fill:#FFFFFF;}
	.st2{fill:#A095C1;}
	.st3{fill:#A98A75;}
	.st4{fill:#211715;}
	.st5{fill:#B3B3B3;}
	.st6{fill:#FEBE69;}
	.st7{fill:#85807F;}
	.st8{fill:#7ABEE6;}
</style>
<g>
	<path d="M13.1,49c3.1-0.9,5.8-2.2,8-4c-0.1-0.4-0.3-0.7-0.4-0.9c-1.6,1-3.5,1.9-5.7,2.7c-0.3,0.1-0.4,0.1-0.4,0.1
		c-0.1,0-0.2-0.1-0.3-0.4c-0.2-0.4-0.5-0.7-0.8-1c2.4-0.5,4.6-1.4,6.5-2.7c-0.2-0.3-0.4-0.6-0.5-0.8c-1.2,0.6-2.5,1.1-3.9,1.6
		c-0.2,0.1-0.3,0.1-0.4,0.1c-0.1,0-0.2-0.1-0.3-0.3c-0.2-0.4-0.5-0.8-0.8-1.1c2.2-0.5,4.1-1.1,5.6-1.9h-0.9l-2.4,0
		c-0.1,0-0.2,0-0.2,0c0,0,0-0.1,0-0.2v-1.1c0-0.1,0-0.2,0-0.2c0,0,0.1,0,0.2,0l2.4,0h5.1l2.4,0c0.1,0,0.2,0,0.2,0c0,0,0,0.1,0,0.2
		v1.1c0,0.1,0,0.2,0,0.2c0,0-0.1,0-0.2,0l-2.4,0c0.2,1,0.5,1.9,0.9,2.6c0.4-0.4,0.8-0.8,1.1-1.2c0.2-0.3,0.5-0.6,0.8-1.1
		c0.5,0.4,1,0.7,1.3,1c0.2,0.1,0.3,0.2,0.3,0.4c0,0.1-0.1,0.2-0.2,0.3c-0.1,0-0.3,0.3-0.8,0.7c-0.6,0.6-1.1,1.1-1.6,1.4
		c1,1.5,2.3,2.7,4.1,3.7c-0.4,0.4-0.8,0.9-1,1.2c-0.2,0.3-0.3,0.4-0.4,0.4c0,0-0.2-0.1-0.4-0.2c-1.6-1.1-2.8-2.6-3.8-4.3
		c-0.8-1.4-1.4-3.1-1.9-5.1h-0.1c-0.4,0.3-0.8,0.6-1.2,0.8c1.6,1.9,2.4,4.1,2.4,6.4c0,1.3-0.2,2.3-0.7,2.7c-0.4,0.4-1.1,0.6-2.1,0.6
		c-0.4,0-0.7,0-0.9,0c-0.3,0-0.4-0.1-0.4-0.1c0,0-0.1-0.2-0.1-0.4c-0.1-0.6-0.3-1-0.5-1.3c0.6,0.1,1.3,0.1,1.9,0.1
		c0.4,0,0.7-0.1,0.9-0.4c0.2-0.2,0.2-0.7,0.2-1.4c0-0.3,0-0.7-0.1-1c-2,1.5-4.2,2.7-6.7,3.7c-0.3,0.1-0.4,0.1-0.4,0.1
		c-0.1,0-0.2-0.1-0.4-0.4C13.7,49.6,13.4,49.3,13.1,49z M26.3,36.1l2.4,0c0.1,0,0.1,0,0.2,0s0,0.1,0,0.2l0,0.9v0.7l0,1.9
		c0,0.1,0,0.1,0,0.2s-0.1,0-0.2,0h-1.5c-0.1,0-0.2,0-0.2,0s0-0.1,0-0.2v-2.1H15.6v2.1c0,0.1,0,0.1,0,0.2s-0.1,0-0.2,0h-1.5
		c-0.1,0-0.1,0-0.2,0s0-0.1,0-0.2l0-1.9v-0.6l0-1c0-0.1,0-0.2,0-0.2s0.1,0,0.2,0l2.4,0h3.9v0c0-0.7,0-1.2-0.1-1.5
		c0.7,0,1.3,0.1,1.9,0.1c0.2,0,0.3,0.1,0.3,0.2c0,0.1,0,0.2-0.1,0.4c-0.1,0.2-0.1,0.5-0.1,0.9v0H26.3z"/>
	<path d="M35.8,38.9h-1.2c0,1.3-0.1,2-0.1,2h1.8l1.1,0c0.1,0,0.2,0.1,0.2,0.2c0,0.2,0,0.8-0.1,1.9c0,3.2-0.2,5.3-0.5,6.3
		c-0.3,0.9-0.9,1.4-1.9,1.4c-0.3,0-0.6,0-0.8,0c-0.2,0-0.2,0-0.3-0.1c0-0.1-0.1-0.2-0.1-0.4c-0.1-0.5-0.2-1-0.4-1.4
		c0.4,0.1,0.8,0.1,1.2,0.1c0.3,0,0.4-0.1,0.5-0.2c0.1-0.1,0.2-0.4,0.2-0.8c0.1-0.7,0.2-2.5,0.3-5.4h-1.4c-0.1,1.9-0.3,3.4-0.7,4.7
		c-0.3,1.2-0.8,2.3-1.3,3.3c-0.1,0.2-0.2,0.3-0.3,0.3s-0.2-0.1-0.3-0.3c-0.3-0.5-0.7-0.9-1-1.1c0.9-1.3,1.5-2.8,1.8-4.8
		c0.2-1.2,0.3-3.1,0.3-5.7c-0.4,0-0.8,0-1.1,0c-0.2,0-0.3,0-0.3,0c-0.1,0-0.2,0-0.2,0s0-0.1,0-0.2v-1.3c0-0.1,0-0.2,0-0.2
		c0,0,0.1,0,0.2,0l1.9,0h0.6v-0.9c0-0.8,0-1.4-0.1-1.7c0.8,0,1.4,0.1,1.9,0.1c0.2,0,0.3,0.1,0.3,0.2c0,0,0,0.2-0.1,0.4
		c-0.1,0.2-0.1,0.6-0.1,1.1v0.9l2,0c0.1,0,0.1,0,0.2,0c0,0,0,0.1,0,0.2v1.2c0.7-0.8,1.2-1.8,1.6-2.9c0.1-0.4,0.2-0.8,0.3-1.2
		c0.7,0.1,1.2,0.2,1.6,0.3c0.2,0.1,0.3,0.1,0.3,0.2c0,0.1,0,0.2-0.1,0.3c-0.1,0.1-0.2,0.3-0.3,0.6c-0.1,0.4-0.3,0.6-0.3,0.8h4.2
		l2.1,0c0.1,0,0.2,0,0.2,0c0,0,0,0.1,0,0.2v1.3c0,0.1,0,0.1,0,0.2c0,0-0.1,0-0.2,0l-2.1,0h-5.1c-0.5,0.7-0.9,1.4-1.4,1.9
		c-0.2,0.2-0.3,0.3-0.4,0.3c0,0-0.2-0.1-0.4-0.3c-0.3-0.3-0.6-0.5-1-0.7c0.3-0.2,0.5-0.5,0.7-0.7L35.8,38.9z M37.3,49.4
		c1.4-0.5,2.4-1.1,3-1.7c0.6-0.6,1-1.3,1.3-2.2h-0.9l-2.3,0c-0.1,0-0.2-0.1-0.2-0.2v-1.3c0-0.1,0-0.2,0-0.2s0.1,0,0.2,0l2.3,0h1.1
		c0.1-0.6,0.1-1.1,0.1-1.6c0-0.1,0-0.3,0-0.4h-1.1c-0.3,0.4-0.6,0.9-1,1.3c-0.2,0.2-0.3,0.3-0.4,0.3c-0.1,0-0.2-0.1-0.4-0.3
		c-0.2-0.2-0.5-0.4-0.9-0.6c0.8-0.8,1.5-1.7,2-2.7c0.2-0.4,0.3-0.8,0.4-1.1c0.6,0.1,1.1,0.2,1.5,0.4c0.2,0.1,0.2,0.1,0.2,0.2
		c0,0.1,0,0.2-0.1,0.3c-0.1,0.1-0.2,0.3-0.4,0.6l-0.1,0.2h2.4l2.5,0c0.1,0,0.2,0,0.2,0c0,0,0,0.1,0,0.2v1.3c0,0.1,0,0.1,0,0.1
		c0,0-0.1,0-0.2,0l-2.5,0h-0.4c0,0.7,0,1.3-0.1,2h1.2l2.3,0c0.1,0,0.2,0.1,0.2,0.2v1.3c0,0.1-0.1,0.2-0.2,0.2l-2.3,0h-1
		c0.4,0.9,1,1.6,1.7,2.3c0.7,0.6,1.4,1.1,2.3,1.4c-0.4,0.4-0.6,0.9-0.8,1.3c-0.1,0.3-0.3,0.5-0.4,0.5c-0.1,0-0.2-0.1-0.4-0.2
		c-1.4-0.9-2.6-2.2-3.4-3.7c-0.7,1.6-2.1,2.8-4.1,3.8c-0.2,0.1-0.3,0.1-0.4,0.1c-0.1,0-0.2-0.1-0.3-0.4C37.8,50,37.6,49.7,37.3,49.4
		z"/>
	<path d="M60.6,43c0.2-0.9,0.3-1.7,0.4-2.3c0-0.2,0-0.3,0-0.5c0-0.2,0-0.4,0-0.7c0.9,0.2,1.6,0.5,2.1,0.8c0.1,0.1,0.2,0.2,0.2,0.3
		c0,0.1,0,0.1-0.1,0.2c-0.2,0.4-0.3,0.6-0.3,0.7c-0.1,0.6-0.3,1.3-0.5,2.3c1.1,0.5,2,1.1,2.8,1.7c0.1,0.1,0.1,0.1,0.1,0.2
		c0,0,0,0.1,0,0.2c-0.2,0.6-0.5,1.1-0.8,1.5c-0.1,0.1-0.1,0.1-0.2,0.1s-0.1,0-0.2-0.1c-0.8-0.7-1.6-1.2-2.4-1.7
		c-0.5,1.1-1,2.1-1.6,2.8c-0.5,0.7-1.2,1.3-2,1.9c-0.2,0.1-0.3,0.2-0.4,0.2c-0.1,0-0.1,0-0.3-0.1c-0.4-0.3-0.9-0.6-1.6-0.7
		c1.2-0.8,2.1-1.6,2.7-2.5c0.5-0.7,1-1.5,1.3-2.4c-1-0.5-2.2-0.9-3.6-1.1c-0.9,1.8-1.6,3-2.2,3.6c-0.6,0.7-1.4,1-2.3,1
		c-0.6,0-1.1-0.2-1.5-0.7c-0.4-0.4-0.6-1-0.6-1.8c0-1.2,0.6-2.2,1.7-3c1-0.7,2.2-1,3.6-1c0.6-1.5,1.1-2.9,1.5-4.3
		c-0.8,0.1-1.6,0.2-2.5,0.3c-0.3,0-0.6,0.1-0.8,0.2c-0.1,0-0.2,0.1-0.3,0.1c-0.1,0-0.2-0.1-0.3-0.2c-0.2-0.3-0.3-1-0.5-2
		c0.4,0.1,0.8,0.1,1.2,0.1c0.1,0,0.2,0,0.3,0c0.8,0,1.7-0.1,2.8-0.2c0.3-0.1,0.6-0.2,0.9-0.3c0.1,0,0.1-0.1,0.2-0.1
		c0.1,0,0.2,0,0.2,0.1c0.4,0.3,0.9,0.6,1.2,1c0.1,0.1,0.2,0.2,0.2,0.3c0,0.1-0.1,0.2-0.2,0.3c-0.1,0.1-0.2,0.3-0.3,0.5l-0.2,0.5
		c-0.9,2.4-1.4,3.7-1.5,3.9C58.3,42.2,59.4,42.5,60.6,43z M54.5,43.6c-0.9,0-1.7,0.3-2.3,0.7c-0.5,0.4-0.7,0.8-0.7,1.3
		c0,0.6,0.2,0.8,0.6,0.8c0.3,0,0.7-0.2,1-0.7C53.6,45.3,54,44.6,54.5,43.6z"/>
	<path d="M73.5,35.3c0.9,0.4,1.6,0.7,2,1c0.2,0.1,0.3,0.2,0.3,0.4c0,0.1-0.1,0.2-0.2,0.4c-0.2,0.2-0.4,0.5-0.6,0.8
		c-1.5,2.8-2.5,4.7-3.1,5.7l0,0c0.7-0.6,1.5-0.9,2.2-0.9c0.9,0,1.6,0.4,2,1.2c0.3,0.5,0.5,1.2,0.6,2.2c0.1,0.7,0.2,1.2,0.4,1.5
		c0.2,0.3,0.4,0.4,0.7,0.4c0.6,0,1.2-0.3,1.7-0.9c0.8-0.8,1.4-1.8,1.8-2.9c0.2,0.5,0.6,1,1,1.5c0.1,0.1,0.2,0.2,0.2,0.4
		c0,0.1,0,0.2-0.1,0.3c-0.4,0.8-0.9,1.5-1.5,2.2c-0.9,1-2,1.5-3.3,1.5c-1,0-1.7-0.3-2.1-0.9c-0.4-0.5-0.6-1.4-0.7-2.6
		c-0.1-0.9-0.2-1.5-0.5-1.9c-0.2-0.3-0.4-0.4-0.7-0.4c-0.7,0-1.5,0.5-2.3,1.5c-0.6,0.8-1.3,2.2-2.1,4c-0.1,0.2-0.2,0.2-0.3,0.2
		c0,0-0.1,0-0.2,0c-0.6-0.2-1-0.5-1.4-0.8c-0.1-0.1-0.2-0.1-0.2-0.2c0-0.1,0-0.2,0.1-0.3c2.4-4.8,4.2-8.4,5.3-10.8
		C73.1,36.9,73.4,36,73.5,35.3z"/>
	<path d="M90.3,38.2c0.6-0.1,1.4-0.2,2.2-0.4c0.1,0,0.1,0,0.1,0c0.1,0,0.1,0.1,0.1,0.2c0.1,0.4,0.1,0.9,0.2,1.5
		c0,0.1-0.1,0.2-0.2,0.2c-0.6,0.1-1.6,0.3-3,0.5c-1.2,3.3-2.4,5.9-3.5,7.7C86.2,47.9,86.1,48,86,48c0,0-0.1,0-0.2-0.1
		c-0.5-0.3-0.9-0.6-1.2-0.9c-0.1-0.1-0.1-0.1-0.1-0.2c0-0.1,0-0.1,0.1-0.2c1.3-2.2,2.4-4.3,3.1-6.3c-0.5,0-1.1,0-1.8,0
		c-0.4,0-0.7,0-1,0c-0.1,0-0.2-0.1-0.3-0.3c-0.1-0.3-0.1-0.8-0.2-1.5c0.7,0,1.2,0.1,1.7,0.1c0.7,0,1.4,0,2.1-0.1
		c0.2-0.6,0.3-1.2,0.5-2c0.1-0.4,0.1-0.9,0.1-1.5c1,0.1,1.7,0.3,2.1,0.4c0.2,0,0.3,0.1,0.3,0.3c0,0.1-0.1,0.2-0.2,0.3
		c-0.1,0.1-0.2,0.4-0.3,0.7c0,0.1-0.1,0.4-0.2,0.8C90.4,37.7,90.3,38,90.3,38.2z M93.2,45.7c-0.1-0.9-0.1-1.9-0.2-3.1
		c0-0.5-0.1-0.9-0.1-1.3c0.8,0.1,1.5,0.2,2,0.3c0.2,0,0.3,0.1,0.3,0.3c0,0,0,0.2-0.1,0.4c-0.1,0.2-0.1,0.3-0.1,0.5c0,0,0,0.1,0,0.2
		c0,0.9,0.1,1.9,0.2,3.1c1.4,0.6,2.4,1.1,3.2,1.7c0.1,0.1,0.2,0.1,0.2,0.2c0,0,0,0.1-0.1,0.2c-0.3,0.6-0.5,1-0.8,1.5
		c-0.1,0.1-0.1,0.1-0.2,0.1c0,0-0.1,0-0.2-0.1c-0.5-0.5-1.3-1-2.2-1.5c0,0.9-0.3,1.6-1,2.1c-0.6,0.4-1.3,0.6-2.3,0.6
		c-1.1,0-1.9-0.3-2.5-0.8c-0.5-0.5-0.8-1-0.8-1.8c0-0.8,0.3-1.5,1-2c0.6-0.4,1.4-0.6,2.3-0.6C92.2,45.6,92.7,45.6,93.2,45.7z
		 M93.2,47.4c-0.5-0.2-1-0.3-1.5-0.3c-0.5,0-0.9,0.1-1.2,0.3c-0.3,0.2-0.4,0.4-0.4,0.7c0,0.6,0.5,0.9,1.5,0.9c0.5,0,0.9-0.1,1.2-0.4
		c0.2-0.2,0.4-0.5,0.4-0.9C93.2,47.6,93.2,47.5,93.2,47.4z M94.3,39.9c0.5-0.9,0.8-1.3,0.8-1.4c0.1-0.1,0.1-0.2,0.2-0.2
		c0,0,0.1,0,0.2,0c1.1,0.3,2.3,0.9,3.5,1.7c0.1,0.1,0.2,0.1,0.2,0.2c0,0.1,0,0.1-0.1,0.2c-0.2,0.4-0.4,0.9-0.8,1.3
		c-0.1,0.1-0.1,0.1-0.2,0.1c0,0-0.1,0-0.2-0.1C96.6,40.9,95.4,40.2,94.3,39.9z"/>
	<path d="M110.1,38.7c-0.5,3.3-1.2,5.9-2.2,7.8c-0.8,1.4-1.8,2.1-3.1,2.1c-0.9,0-1.7-0.5-2.3-1.4c-0.6-0.9-0.9-2-0.9-3.3
		c0-1.8,0.7-3.3,2-4.7c1.5-1.5,3.5-2.3,5.9-2.3c2.3,0,4,0.7,5.3,2c1.1,1.1,1.6,2.5,1.6,4.2c0,3.3-1.8,5.4-5.5,6.6
		c-0.1,0-0.2,0-0.3,0c-0.2,0-0.3-0.1-0.5-0.4c-0.3-0.4-0.7-0.8-1.3-1.1c1.9-0.4,3.2-1.1,4-1.9c0.9-0.9,1.4-2,1.4-3.5
		c0-1.2-0.4-2.2-1.3-3C112.2,39,111.2,38.7,110.1,38.7L110.1,38.7z M108,38.8c-1.3,0.3-2.3,0.8-3.1,1.6c-0.9,1.1-1.4,2.2-1.4,3.3
		c0,0.8,0.1,1.5,0.4,2c0.2,0.4,0.5,0.6,0.8,0.6c0.5,0,0.9-0.4,1.4-1.1c0.4-0.8,0.8-1.8,1.2-3.1C107.6,41,107.9,39.9,108,38.8z"/>
	<path d="M128.1,43.1c1.7,1.2,3.3,2.7,5,4.4c0.1,0.1,0.1,0.2,0.1,0.3s0,0.2-0.1,0.3c-0.4,0.5-0.8,0.9-1.2,1.2
		c-0.1,0.1-0.1,0.1-0.2,0.1s-0.2,0-0.3-0.1c-1.4-1.6-2.9-3.1-4.7-4.5c-1.9,2-3.9,3.5-6,4.8c-0.2,0.1-0.4,0.1-0.4,0.1
		c-0.1,0-0.2-0.1-0.3-0.2c-0.3-0.4-0.8-0.8-1.5-1.2c1.4-0.7,2.7-1.5,3.7-2.3c0.8-0.6,1.7-1.4,2.6-2.3c1.3-1.3,2.4-2.8,3.4-4.5
		l-4.6,0c-0.9,0-1.9,0-2.8,0.1c-0.1,0-0.2-0.1-0.2-0.3c-0.1-0.5-0.2-1.1-0.2-1.9c0.6,0,1.7,0.1,3,0.1h4.9c0.6,0,1-0.1,1.2-0.2
		c0.1,0,0.1-0.1,0.2-0.1c0.1,0,0.2,0,0.3,0.1c0.4,0.3,0.8,0.7,1.2,1.3c0.1,0.1,0.1,0.2,0.1,0.2c0,0.1-0.1,0.2-0.2,0.4
		c-0.2,0.2-0.5,0.5-0.7,0.8C129.7,40.9,128.9,42,128.1,43.1z"/>
	<path d="M144.6,45.9c0.5,0.5,1.1,1.1,1.6,1.8c0.1,0.1,0.1,0.2,0.1,0.3c0,0.1-0.1,0.2-0.2,0.3c-0.4,0.4-0.8,0.8-1.2,1.1
		c-0.1,0.1-0.2,0.1-0.2,0.1c-0.1,0-0.1-0.1-0.2-0.2c-1.7-2.2-3.6-4.1-5.8-5.6c0.6-0.6,1-1,1.3-1.2c0.1-0.1,0.1-0.1,0.2-0.1
		c0,0,0.1,0,0.3,0.1c1.2,0.9,2.1,1.5,2.5,2c1.3-1.1,2.7-2.6,4.2-4.2l-7.6,0c-1.3,0-2.4,0-3.3,0.1c-0.2,0-0.3-0.1-0.3-0.3
		c-0.1-0.6-0.2-1.3-0.2-1.9c0.8,0.1,2.1,0.1,3.9,0.1h7.4c0.8,0,1.3-0.1,1.5-0.2c0.1-0.1,0.2-0.1,0.3-0.1c0.1,0,0.2,0,0.3,0.1
		c0.5,0.4,0.9,0.9,1.3,1.4c0.1,0.2,0.1,0.3,0.1,0.4c0,0.2-0.1,0.3-0.2,0.4c-0.5,0.3-0.7,0.6-0.9,0.7
		C147.9,42.9,146.2,44.5,144.6,45.9z"/>
	<path d="M155.4,42.5c0.8,0.2,1.4,0.5,1.9,0.8c0.2,0.1,0.3,0.2,0.3,0.3c0,0.1-0.1,0.2-0.2,0.3c-0.2,0.1-0.3,0.3-0.4,0.6
		c-0.6,1.2-1.3,2.2-2,3c-0.1,0.1-0.2,0.2-0.4,0.2c-0.1,0-0.2,0-0.3-0.1c-0.6-0.4-1.1-0.7-1.5-0.8c0.9-1,1.7-2,2.2-3
		C155.2,43.6,155.3,43.1,155.4,42.5z M159.7,39.3v-0.8c0-1.2-0.1-2.1-0.2-2.8c1,0.1,1.8,0.2,2.2,0.3c0.2,0,0.3,0.1,0.3,0.3
		c0,0.1,0,0.2-0.1,0.3c-0.1,0.2-0.2,0.8-0.2,1.8v1h2.2c0.7,0,1.9,0,3.7-0.1c0,0,0,0,0,0c0.1,0,0.2,0.1,0.2,0.3c0,0.2,0,0.4,0,0.6
		c0,0.3,0,0.6,0,0.8c0,0.2-0.1,0.4-0.3,0.3c-1.9-0.1-3.1-0.1-3.7-0.1h-2.1l0,3.6l0,3.1c0,0.9-0.4,1.5-1.1,1.9
		c-0.7,0.4-1.4,0.6-2.3,0.6c-0.2,0-0.3-0.1-0.4-0.4c-0.3-0.6-0.7-1.2-1.2-1.6c1.2,0,2-0.1,2.5-0.2c0.3-0.1,0.4-0.4,0.4-0.8v-6.2
		h-2.8c-1.1,0-2.1,0-3.1,0.1c-0.2,0-0.2-0.1-0.2-0.4c0-0.9-0.1-1.4-0.1-1.7c1.1,0.1,2.2,0.1,3.4,0.1H159.7z M163.6,43.7
		c0.2-0.1,0.4-0.3,0.8-0.5c0.3-0.2,0.5-0.3,0.6-0.4c0.1-0.1,0.1-0.1,0.2-0.1c0.1,0,0.2,0.1,0.3,0.2c0.8,0.7,1.7,1.8,2.6,3.3
		c0.1,0.1,0.1,0.2,0.1,0.3c0,0.1-0.1,0.2-0.2,0.3c-0.3,0.2-0.7,0.5-1.2,0.9c-0.1,0.1-0.2,0.1-0.2,0.1c-0.1,0-0.1-0.1-0.2-0.2
		C165.5,46,164.6,44.7,163.6,43.7z"/>
	<path d="M175.1,39.6c0.2-0.7,0.4-1.4,0.5-2.3c0.1-0.7,0.2-1.4,0.2-2c0.9,0.2,1.6,0.4,2.2,0.6c0.2,0.1,0.3,0.2,0.3,0.4
		c0,0.1,0,0.2-0.1,0.3c-0.1,0.2-0.3,0.4-0.4,0.7c-0.1,0.3-0.2,0.7-0.3,1.1c-0.1,0.5-0.2,0.8-0.3,1c0.4-0.1,0.9-0.1,1.4-0.1
		c1.7,0,2.6,1.2,2.6,3.5c0,1.1-0.1,2.2-0.3,3.3c-0.2,1-0.4,1.8-0.7,2.4c-0.5,1.1-1.3,1.7-2.4,1.7c-0.8,0-1.5-0.1-1.9-0.3
		c-0.2-0.1-0.3-0.3-0.3-0.5c-0.1-0.7-0.2-1.3-0.3-1.7c0.7,0.3,1.4,0.5,2.1,0.5c0.3,0,0.6-0.1,0.7-0.2c0.1-0.1,0.3-0.4,0.4-0.7
		c0.5-1.2,0.7-2.7,0.7-4.5c0-0.7-0.1-1.1-0.2-1.3c-0.2-0.2-0.4-0.3-0.8-0.3c-0.4,0-0.9,0-1.5,0.1c-1.2,3.4-2.4,6.2-3.6,8.5
		c-0.1,0.1-0.2,0.2-0.3,0.2c-0.1,0-0.1,0-0.2-0.1c-0.6-0.3-1-0.5-1.2-0.8c-0.1-0.1-0.1-0.2-0.1-0.3c0-0.1,0-0.1,0.1-0.2
		c1.4-2.5,2.5-4.8,3.3-7.1c-0.4,0.1-1,0.2-1.8,0.3c-0.3,0.1-0.7,0.2-1,0.3c-0.1,0-0.2,0-0.2,0c-0.2,0-0.3-0.1-0.4-0.3
		c-0.2-0.4-0.4-1.1-0.6-1.9c0.7,0,1.5,0,2.4-0.1C173.6,39.8,174.3,39.7,175.1,39.6z M181.3,39.5c0.7-0.5,1.2-0.8,1.5-0.9
		c0,0,0.1,0,0.1,0c0.1,0,0.1,0,0.2,0.1c1.4,1.3,2.4,2.7,3,4.4c0,0.1,0,0.1,0,0.2c0,0.1,0,0.1-0.1,0.2c-0.3,0.3-0.8,0.6-1.4,0.9
		c-0.1,0-0.1,0.1-0.2,0.1c-0.1,0-0.2-0.1-0.2-0.2C183.5,42.2,182.5,40.6,181.3,39.5z M182.3,36.7l1-0.7c0,0,0.1,0,0.1,0
		c0,0,0.1,0,0.2,0.1c0.6,0.5,1.2,1.1,1.7,1.9c0,0,0.1,0.1,0.1,0.1c0,0.1,0,0.1-0.1,0.2l-0.8,0.6c-0.1,0-0.1,0.1-0.1,0.1
		c-0.1,0-0.1,0-0.2-0.1C183.5,37.9,182.9,37.3,182.3,36.7z M183.9,35.5l0.9-0.7c0,0,0.1,0,0.1,0c0,0,0.1,0,0.2,0.1
		c0.7,0.5,1.3,1.1,1.7,1.9c0,0.1,0.1,0.1,0.1,0.1c0,0.1,0,0.1-0.1,0.2l-0.7,0.6c-0.1,0-0.1,0.1-0.1,0.1c-0.1,0-0.1,0-0.2-0.1
		C185.2,36.8,184.6,36.1,183.9,35.5z"/>
	<path class="st0" d="M194.9,44.1v-4.4h12v4.4c-1.7,4.5-5,8.6-9.9,12.5l-3.3-4.2c3.9-2.8,6.5-5.5,8-8.2H194.9z M227.7,52.7l-3.6,4.2
		c-4-3.2-7.3-7.4-10.1-12.6v8.1c0,1.1,0,1.9-0.1,2.6c0,1.2-0.4,2.4-0.9,2.9c-0.3,0.3-0.6,0.4-1.1,0.6c-1,0.4-1.9,0.4-3.9,0.4
		c-0.6,0-2.5-0.1-5.5-0.2l-0.3-4.6c2.6,0.1,4.2,0.2,4.8,0.2c1.4,0,1.4,0,1.4-1.4v-15h-9.3v-4.6H214c0.6,2,1.4,4.1,2.5,6.1
		c2.3-2,4.5-4.4,6.6-7.3l4.1,3.2c-2.3,3.3-4.9,6.2-7.9,8.6C221.8,47.3,224.6,50.3,227.7,52.7z M202.7,26.1
		c5.1,0.5,10.3,1.4,15.7,2.8l-1.7,4.6c-4.6-1.2-9.8-2.2-15.4-2.8L202.7,26.1z"/>
	<path class="st0" d="M242.5,27.2c-0.2,0.5-0.4,1.4-0.8,2.4h19.8v4.6h-10.1v4.2h9v4.6h-9v5.1h11.6v4.7h-11.6V59h-5.7v-6.1h-15.5
		v-4.7h5.2v-5.3l-4.8-2.7c2.8-4.6,4.9-9.3,6.4-14.1L242.5,27.2z M245.8,38.5v-4.2H240c-0.4,0.9-1.1,2.4-2,4.2H245.8z M240.9,48.1
		h4.9v-5.1h-4.9V48.1z"/>
	<path class="st0" d="M284.6,41.7h-5.8v1h7.1v4h-19.7v-4h7.1v-1h-5.8v-3.3h5.8v-1H268v-1.9h-1.5v-7.1h6.9v-2.3h5.5v2.3h6.9v7.1h-1.5
		v1.9h-5.4v1h5.8V41.7z M279.2,58.8v-1.3H273v1.3h-5.3V47.8h16.7v11.1H279.2z M273.7,32.8h-2.5v1h2.5V32.8z M273,51.8v1.7h6.2v-1.7
		H273z M280.9,33.8v-1h-2.5v1H280.9z M291.5,28.6V51h-4.8V28.6H291.5z M293.3,27.2h4.9v25.3c0,1.1,0,1.9,0,2.6
		c0,1.2-0.4,2.4-0.8,2.8c-0.8,0.9-1.9,1-4.3,1c-1.1,0-2.7-0.1-4.7-0.2l-0.3-4.8c1.8,0.1,3.7,0.2,4,0.2c1.2,0,1.2,0,1.2-1.4V27.2z"/>
	<path class="st0" d="M306,58.6l-0.1-4.7c3.1,0.1,5.4,0.2,7.2,0.2c1.6-0.2,1.5,0,2.2-6.2h-6.7l-0.5,3.1l-5.3-0.3
		c0.8-5.5,1.4-10.5,1.8-15.2h10.8v-3.3h-11.8v-4.6h17.3V40h-11.2l-0.2,1.8l-0.2,1.8h11.9l-0.2,3.3c-0.3,4.5-0.7,7.1-1.3,8.9
		c-0.9,2.8-2.2,3.1-4.9,3.1C311.6,58.8,308.7,58.7,306,58.6z M332.7,27.1v31.5h-5.8V27.1H332.7z"/>
</g>
<g>
	<path d="M19.1,99.8v12.1h2.6v1.7h-7.4v-1.7H17v-9.8c-0.7,0.5-1.6,0.9-2.5,1.2l-0.4-1.9c1.1-0.3,2.2-0.9,3.2-1.6H19.1z"/>
	<path d="M41.1,112.9c-0.4,0.4-0.7,0.9-1,1.4c-0.1,0.3-0.2,0.4-0.3,0.4c-0.1,0-0.2-0.1-0.4-0.2c-3.3-2.2-5.5-5-6.4-8.6
		c-1,3.8-3.1,6.7-6.5,8.6c-0.2,0.1-0.4,0.2-0.4,0.2c-0.1,0-0.2-0.1-0.4-0.4c-0.3-0.4-0.6-0.8-1-1.2c2.5-1.1,4.3-2.9,5.5-5.2
		c1-1.9,1.5-4.1,1.5-6.5c0-1-0.1-1.8-0.1-2.3c0.7,0,1.4,0.1,2.2,0.2c0.2,0,0.3,0.1,0.3,0.3c0,0.1-0.1,0.3-0.2,0.4
		c-0.1,0.2-0.1,0.6-0.1,1.2c0,0.1,0,0.4,0,0.6c0.4,2.8,1.3,5.2,2.6,7C37.5,110.4,39.1,111.8,41.1,112.9z"/>
	<path d="M48.2,99c1,0.1,1.7,0.3,2.1,0.4c0.2,0.1,0.3,0.2,0.3,0.3c0,0.1,0,0.2-0.1,0.3c-0.1,0.1-0.2,0.4-0.3,0.7
		c0,0.1,0,0.3-0.1,0.5c0,0.2,0,0.3-0.1,0.4c1.6-0.2,3.1-0.4,4.7-0.8c0,0,0.1,0,0.1,0c0.1,0,0.2,0.1,0.2,0.2c0.1,0.5,0.2,0.9,0.2,1.2
		c0,0.2-0.1,0.3-0.4,0.4c-1.8,0.4-3.5,0.6-5.1,0.8c-0.1,0.7-0.1,1.3-0.1,1.8c0.7-0.2,1.6-0.4,2.8-0.4c0.2-0.5,0.3-0.9,0.3-1.3
		c0.8,0.2,1.3,0.5,1.6,0.7c0.2,0.1,0.3,0.3,0.3,0.4c0,0.1,0,0.1-0.1,0.2c-0.1,0-0.1,0.2-0.2,0.4c1.3,0.3,2.2,0.9,2.8,1.7
		c0.6,0.7,0.9,1.6,0.9,2.7c0,1.3-0.5,2.5-1.6,3.4c-0.9,0.7-2,1.3-3.4,1.7c-0.1,0-0.2,0.1-0.3,0.1c-0.2,0-0.4-0.1-0.5-0.4
		s-0.5-0.6-1.1-1.1c0.7-0.1,1.3-0.4,2-0.6c0.6-0.2,1-0.5,1.3-0.7c1-0.7,1.4-1.6,1.4-2.7c0-0.7-0.2-1.3-0.7-1.8
		c-0.4-0.4-0.9-0.6-1.5-0.8c-1,1.8-2.1,3.4-3.4,4.7c0,0.1,0.1,0.4,0.3,0.8c0,0.1,0.1,0.1,0.1,0.2c0,0.1-0.1,0.2-0.2,0.3
		c-0.4,0.3-0.7,0.5-1.1,0.6c-0.1,0-0.1,0.1-0.2,0.1c-0.1,0-0.1,0-0.2-0.1c-0.1-0.2-0.2-0.4-0.3-0.7c-1.3,0.9-2.3,1.3-3.1,1.3
		c-0.7,0-1.2-0.2-1.5-0.7c-0.3-0.4-0.5-0.9-0.5-1.6c0-1.2,0.5-2.3,1.4-3.4c0.8-0.9,1.7-1.6,2.8-2.2c0-0.6,0-1.4,0.1-2.2
		c-0.4,0-0.8,0-1.2,0l-0.6,0c-0.5,0-0.9,0-1,0c-0.2,0-0.3-0.2-0.3-0.4c0-0.2,0-0.4-0.1-0.7c0-0.4,0-0.6,0-0.7
		c0.6,0.1,1.2,0.1,1.9,0.1c0.1,0,0.6,0,1.6,0c0.1-0.9,0.1-1.5,0.1-2C48.3,99.5,48.3,99.2,48.2,99z M47.9,107.5
		c-0.8,0.5-1.3,1.1-1.8,1.8c-0.4,0.6-0.6,1.1-0.6,1.7c0,0.2,0.1,0.4,0.2,0.5c0.1,0.1,0.2,0.2,0.4,0.2c0.5,0,1.2-0.3,2.1-1
		C48,109.3,47.9,108.3,47.9,107.5z M49.9,109.4c0.8-0.9,1.5-2,2.1-3.1c-0.8,0-1.5,0.2-2.3,0.4C49.7,107.7,49.7,108.6,49.9,109.4z"/>
	<path d="M67.8,102.4c0.7-0.1,1.6-0.3,2.6-0.6c0,0,0.1,0,0.1,0c0.1,0,0.2,0.1,0.2,0.2c0.1,0.5,0.1,0.9,0.1,1.3c0,0,0,0.1,0,0.1
		c0,0.1-0.1,0.2-0.3,0.3c-1,0.3-2.1,0.5-3.1,0.7c-1.2,3.9-2.3,7.1-3.3,9.7c-0.1,0.1-0.1,0.2-0.2,0.2c0,0-0.1,0-0.2,0
		c-0.6-0.2-1.1-0.5-1.4-0.7c-0.1-0.1-0.2-0.1-0.2-0.3c0,0,0-0.1,0-0.1c1.3-2.9,2.3-5.7,3.1-8.5c-1.3,0.1-2.3,0.2-3.1,0.2
		c-0.2,0-0.3-0.1-0.4-0.3c-0.1-0.3-0.1-0.9-0.3-1.6c0.3,0,0.7,0.1,1.3,0.1c0.9,0,1.9-0.1,2.9-0.2c0.1-0.6,0.3-1.3,0.5-2.2
		c0.1-0.5,0.1-1.1,0.1-1.7c1.1,0.2,1.8,0.3,2.3,0.5c0.1,0,0.2,0.1,0.2,0.3c0,0.1,0,0.2-0.1,0.3c-0.2,0.4-0.4,0.6-0.4,0.7
		c-0.1,0.2-0.1,0.6-0.2,1C67.9,102,67.8,102.2,67.8,102.4z M68.1,110.6c0.7-0.2,1.2-0.3,1.5-0.3c0.2,0,0.3,0.1,0.3,0.3
		c0.1,0.7,0.4,1.1,0.9,1.4c0.4,0.2,1,0.3,1.9,0.3c0.7,0,1.7-0.1,3-0.3c0,0,0,0,0.1,0c0.1,0,0.1,0.1,0.2,0.2c0.1,0.6,0.1,1.2,0.1,1.6
		c0,0,0,0.1,0,0.1c0,0.1-0.1,0.2-0.3,0.2c-0.9,0.1-1.7,0.2-2.5,0.2c-1.3,0-2.2-0.1-2.9-0.3c-0.6-0.2-1.1-0.5-1.5-0.9
		C68.4,112.6,68.1,111.8,68.1,110.6z M69.5,107.2c-0.1-0.8-0.1-1.4-0.1-1.6c0-0.1,0-0.2,0.1-0.3c0,0,0.1-0.1,0.3-0.1
		c1.3-0.3,2.5-0.4,3.5-0.4c0.7,0,1.4,0.1,2.1,0.2c0.1,0,0.2,0,0.3,0.1c0,0,0.1,0.1,0.1,0.2c0,0.2,0,0.5,0,0.8c0,0.2,0,0.4,0,0.6
		c0,0.2-0.1,0.3-0.2,0.3c0,0-0.1,0-0.1,0c-0.7-0.1-1.5-0.2-2.2-0.2C72.1,106.8,70.9,106.9,69.5,107.2z"/>
	<path d="M82.8,99.2c0.9,0.2,1.5,0.4,2,0.6c0.2,0.1,0.3,0.2,0.3,0.4c0,0.1,0,0.2-0.1,0.3c-0.1,0.1-0.2,0.4-0.3,0.8
		c-0.2,0.8-0.3,1.9-0.5,3.4c0,0.8-0.1,1.3-0.1,1.5c0,0.2,0,0.3,0,0.5c0.4-0.8,0.9-1.5,1.3-2.3c0.1,0.4,0.3,0.8,0.6,1.2
		c0.1,0.1,0.1,0.2,0.1,0.3c0,0.1-0.1,0.3-0.2,0.4c-0.6,1.1-0.9,1.8-1.1,2.3c0,0.1-0.1,0.3-0.1,0.5c0,0.2-0.1,0.2-0.2,0.3
		c-0.2,0.1-0.7,0.1-1.4,0.2c-0.1,0-0.2-0.1-0.3-0.2c-0.4-1-0.5-2.2-0.5-3.6c0-0.8,0.1-2.3,0.4-4.5C82.8,100.4,82.8,99.7,82.8,99.2z
		 M88.6,99.2c1,0,1.7,0.1,2.1,0.2c0.2,0.1,0.4,0.2,0.4,0.3c0,0,0,0.1,0,0.2c0,0.2,0,0.4,0,0.8c0.2,2.3,0.3,3.8,0.3,4.6
		c0,2.8-0.5,4.8-1.4,6.2c-0.7,1.1-1.7,2.1-3,2.9c-0.1,0.1-0.2,0.1-0.4,0.1c-0.1,0-0.2-0.1-0.4-0.2c-0.5-0.4-1-0.7-1.5-0.8
		c1.4-0.8,2.4-1.6,3.1-2.4c0.6-0.8,1-1.6,1.2-2.5c0.2-0.8,0.3-1.9,0.3-3.2c0-1.5-0.1-3-0.2-4.3C88.9,100.5,88.8,99.8,88.6,99.2z"/>
	<path d="M96.6,112.5c0.6,0,1.2-0.1,1.7-0.1c0.1,0,0.2,0,0.3,0v-5.7c-0.5,0-1,0-1.4,0c-0.3,0-0.4,0-0.4,0c-0.1,0-0.1,0-0.2,0
		s0-0.1,0-0.2v-1.1c0-0.1,0-0.1,0-0.2s0.1,0,0.2,0l2.2,0h11.6l2.2,0c0.1,0,0.2,0.1,0.2,0.2v1.1c0,0.1-0.1,0.2-0.2,0.2l-2.2,0h-6.1v6
		l0,2.2c0,0.1,0,0.1,0,0.2s-0.1,0-0.2,0H103c-0.1,0-0.2,0-0.2,0c0,0,0-0.1,0-0.2c0,0,0-0.2,0-0.6c0-0.4,0-0.8,0-1.2
		c-1.6,0.3-3.1,0.6-4.7,0.8c-0.3,0-0.5,0.1-0.7,0.2c-0.1,0.1-0.2,0.1-0.3,0.1c-0.1,0-0.2-0.1-0.2-0.3
		C96.9,113.6,96.7,113.1,96.6,112.5z M108.1,99.2l2.5,0c0.1,0,0.2,0,0.2,0c0,0,0,0.1,0,0.2l0,1.5v1.9l0,1.5c0,0.1,0,0.2,0,0.2
		c0,0-0.1,0-0.2,0l-2.5,0h-6.6l-2.5,0c-0.1,0-0.2,0-0.2,0c0,0,0-0.1,0-0.2l0-1.5v-1.9l0-1.5c0-0.1,0-0.2,0-0.2c0,0,0.1,0,0.2,0
		l2.5,0H108.1z M100.3,107.6h2.5v-0.9h-2.5V107.6z M100.3,109.7h2.5v-0.9h-2.5V109.7z M102.8,111.7v-0.8h-2.5v1.2
		C101.6,111.9,102.4,111.8,102.8,111.7z M100.6,100.6v0.7h8.3v-0.7H100.6z M109,103.2v-0.8h-8.3v0.8H109z M104.5,113.4
		c1.1-0.3,2.1-0.8,2.9-1.3c-0.7-0.8-1.3-1.8-1.8-2.9c-0.2,0-0.3,0-0.5,0c-0.1,0-0.2,0-0.2,0c0,0,0-0.1,0-0.2v-1c0-0.1,0-0.2,0-0.2
		c0,0,0.1,0,0.2,0l2,0h3c0.1,0,0.2,0,0.3-0.1c0.1,0,0.2-0.1,0.3-0.1c0.1,0,0.3,0.1,0.6,0.4c0.3,0.3,0.5,0.5,0.5,0.7
		c0,0.1-0.1,0.2-0.2,0.3c-0.1,0.1-0.3,0.3-0.5,0.8c-0.4,0.9-0.9,1.6-1.5,2.2c0.9,0.5,1.9,0.9,3.2,1.2c-0.3,0.4-0.5,0.8-0.6,1.2
		c-0.1,0.3-0.2,0.4-0.3,0.4c-0.1,0-0.2,0-0.4-0.1c-1.2-0.4-2.2-0.9-3.1-1.5c-0.8,0.6-1.7,1.2-2.7,1.6c-0.2,0.1-0.3,0.1-0.4,0.1
		c-0.1,0-0.2-0.1-0.3-0.4C105,114,104.8,113.6,104.5,113.4z M108.6,111c0.5-0.5,0.9-1.2,1.2-1.9h-2.6
		C107.6,109.9,108.1,110.5,108.6,111z"/>
	<path d="M117.5,105.1l-2.3,0c-0.1,0-0.2,0-0.2,0c0,0,0-0.1,0-0.2v-1.5c0-0.1,0-0.1,0-0.2s0.1,0,0.2,0l2.3,0h4.1
		c0-0.5,0.1-1.3,0.1-2.4c0-0.1,0-0.3,0-0.4c0-0.6,0-1.2-0.1-1.7c0.9,0,1.6,0.1,2.1,0.1c0.2,0,0.3,0.1,0.3,0.3c0,0.1,0,0.2-0.1,0.4
		c-0.1,0.2-0.1,0.6-0.2,1.3c0,1.1-0.1,2-0.1,2.5h4.6l2.3,0c0.1,0,0.1,0,0.2,0s0,0.1,0,0.2v1.5c0,0.1,0,0.2,0,0.2c0,0-0.1,0-0.2,0
		l-2.3,0H124c0.6,1.9,1.6,3.6,2.9,5c1.2,1.3,2.6,2.2,4.3,2.9c-0.4,0.4-0.8,0.8-1,1.4c-0.2,0.3-0.3,0.4-0.4,0.4
		c-0.1,0-0.2-0.1-0.4-0.2c-3-1.6-5.2-4-6.4-7.3c-0.2,0.6-0.4,1.2-0.7,1.7c-1.2,2.4-3.1,4.3-5.8,5.6c-0.2,0.1-0.4,0.1-0.4,0.1
		c-0.1,0-0.2-0.1-0.4-0.4c-0.3-0.4-0.6-0.8-1-1.1c2.7-1.1,4.7-2.7,5.8-5c0.5-0.9,0.8-2,1-3.2H117.5z"/>
	<path class="st0" d="M140.5,105.2v-6.7l6.9-5h6.4v26.3h-6.4v-19.5h0L140.5,105.2z"/>
	<path class="st0" d="M167.3,123.7h-5l2.3-10.8h6.9L167.3,123.7z"/>
	<path class="st0" d="M177.1,105.2v-6.7l6.9-5h6.4v26.3h-6.4v-19.5h0L177.1,105.2z"/>
	<path class="st0" d="M208.8,93.1c3.5,0,6.2,1,7.8,3.2c1.7,2.1,2.6,5.5,2.6,10.3c0,4.8-0.9,8.2-2.6,10.3c-1.7,2.1-4.3,3.2-7.8,3.2
		c-3.5,0-6.2-1-7.9-3.2c-1.7-2.1-2.6-5.5-2.6-10.3c0-4.8,0.9-8.2,2.6-10.3C202.6,94.1,205.2,93.1,208.8,93.1z M208.8,115.4
		c1.4,0,2.5-0.6,3.2-2s1-3.6,1-6.9c0-3.3-0.4-5.5-1-6.9c-0.7-1.3-1.7-2-3.2-2c-1.4,0-2.5,0.6-3.2,2c-0.7,1.3-1,3.6-1,6.9
		c0,3.3,0.3,5.5,1,6.9C206.2,114.8,207.3,115.4,208.8,115.4z"/>
	<path class="st0" d="M232.1,93.1c3.5,0,6.2,1,7.8,3.2c1.7,2.1,2.6,5.5,2.6,10.3c0,4.8-0.9,8.2-2.6,10.3c-1.7,2.1-4.3,3.2-7.8,3.2
		c-3.5,0-6.2-1-7.9-3.2c-1.7-2.1-2.6-5.5-2.6-10.3c0-4.8,0.9-8.2,2.6-10.3C226,94.1,228.6,93.1,232.1,93.1z M232.1,115.4
		c1.4,0,2.5-0.6,3.2-2c0.7-1.3,1-3.6,1-6.9c0-3.3-0.4-5.5-1-6.9c-0.7-1.3-1.7-2-3.2-2c-1.4,0-2.5,0.6-3.2,2c-0.7,1.3-1,3.6-1,6.9
		c0,3.3,0.3,5.5,1,6.9C229.6,114.8,230.7,115.4,232.1,115.4z"/>
	<path class="st0" d="M261.6,122.1h-5.6V91.8h29.8v23.8c0,1.1-0.1,1.9-0.1,2.6c-0.1,1.2-0.4,2.4-0.9,2.9c-0.2,0.3-0.6,0.4-1.1,0.6
		c-1,0.3-2,0.3-4,0.3c-1.8,0-3.8,0-5.9-0.1l-0.3-4.8c3.1,0.1,4.8,0.2,5,0.2c0.8,0,1.2-0.1,1.4-0.2c0.1-0.1,0.2-0.5,0.2-1.2v-6.4
		h-18.6V122.1z M261.6,104.9h6.6v-8.4h-6.6V104.9z M280.1,104.9v-8.4h-6.6v8.4H280.1z"/>
	<path class="st0" d="M295.2,121.2l12.5-27.7h5.3l-12.5,27.7H295.2z"/>
	<path class="st0" d="M317.5,120c1.8-2,3.1-4.1,3.7-6.2c0.7-2.1,1-5.3,1-9.6V91.1h25.4v25.5c0,1.1,0,1.9-0.1,2.6
		c0,1.2-0.4,2.4-0.9,2.9c-0.2,0.2-0.6,0.4-1.1,0.6c-1,0.4-1.9,0.4-3.9,0.4c-0.9,0-3-0.1-6.2-0.2l-0.3-4.8l2.4,0.1
		c1.7,0.1,2.6,0.1,3,0.1c1.4,0,1.5-0.1,1.5-1.4v-4.4h-14.6c-0.8,4.2-2.6,7.8-5.5,10.7L317.5,120z M342.1,95.8h-14.2v3.8h14.2V95.8z
		 M342.1,108.1V104h-14.2v4.1H342.1z"/>
	<path class="st0" d="M390.3,105.7h-5.8v1h7.1v4h-19.7v-4h7.1v-1h-5.8v-3.3h5.8v-1h-5.4v-1.9h-1.5v-7.1h6.9v-2.3h5.5v2.3h6.9v7.1
		h-1.5v1.9h-5.4v1h5.8V105.7z M384.9,122.7v-1.3h-6.2v1.3h-5.3v-11.1h16.7v11.1H384.9z M379.4,96.7h-2.5v1h2.5V96.7z M378.7,115.7
		v1.7h6.2v-1.7H378.7z M386.6,97.7v-1h-2.5v1H386.6z M397.2,92.5v22.5h-4.8V92.5H397.2z M399,91.1h4.9v25.3c0,1.1,0,1.9,0,2.6
		c0,1.2-0.4,2.4-0.8,2.8c-0.8,0.9-1.9,1-4.3,1c-1.1,0-2.7-0.1-4.7-0.2l-0.3-4.8c1.8,0.1,3.7,0.2,4,0.2c1.2,0,1.2,0,1.2-1.4V91.1z"/>
	<path class="st0" d="M411.7,122.5l-0.1-4.7c3.1,0.1,5.4,0.2,7.2,0.2c1.6-0.2,1.5,0,2.2-6.2h-6.7l-0.5,3.1l-5.3-0.3
		c0.8-5.5,1.4-10.5,1.8-15.2H421v-3.3h-11.8v-4.6h17.3v12.4h-11.2l-0.2,1.8l-0.2,1.8h11.9l-0.2,3.3c-0.3,4.5-0.7,7.1-1.3,8.9
		c-0.9,2.8-2.2,3.1-4.9,3.1C417.3,122.8,414.3,122.6,411.7,122.5z M438.4,91v31.5h-5.8V91H438.4z"/>
</g>
<g>
</g>
<g>
	<path class="st1" d="M475.9,37.9c-0.1-0.1-0.1-0.3-0.1-0.4c0.1-0.3,0.3-0.7,0.4-1.1l0.1,0c0.3,0,0.5,0,0.8-0.1l0.5,0.2
		c0.4,0.2,0.6,0.6,0.5,1c-0.1,0.4-0.4,0.8-0.8,0.9C476.8,38.6,476.2,38.4,475.9,37.9z"/>
	<path class="st1" d="M457.3,36.5c0.1-0.1,0.1-0.1,0.2-0.1c0,0,0.1,0,0.3-0.1c0.3,0.3,0.8,0.3,1.2,0.3c0.1,0.5,0.3,0.9,0.5,1.4
		c-0.3,0.5-0.9,0.8-1.5,0.7c-0.5-0.1-0.8-0.5-1-0.9C456.9,37.2,457,36.7,457.3,36.5z"/>
	<path class="st1" d="M476.4,31.2c0.3-0.3,0.6-0.4,1-0.4c0.5,0,0.9,0.2,1.2,0.6c0.4,0.7,0.4,1.9,0.1,2.7c-0.2,0.8-0.6,1.5-1.2,2
		c-0.3,0.3-0.8,0.4-1.2,0.3l-0.1,0c-0.1,0.4-0.2,0.7-0.4,1.1c-0.3,0.8-1.8,3.4-3.7,4.6c0.1,0.6,0.3,1.1,0.5,1.6
		c0.4,0.7,1.6,1.3,2.8,1.8c0,0.3,0,0.7,0,0.7c0,0.2,0,0.5-0.1,0.8l-0.7,0.2l-1.6,0.5c-3.6,0.9-7.3,0.4-11-0.2l-0.9-0.1l-0.6-0.1
		c0-0.8,0-1.6,0.1-2.3c0.8-0.2,1.7-0.6,2.4-1c0.1-0.1,0.2-0.1,0.3-0.2c0-0.1,0.1-0.1,0.1-0.2c0.1-0.4,0.1-0.8,0.2-1.2
		c-1-0.5-1.8-1.2-2.5-2.1c-0.9-1.1-1.6-2.4-2-3.7c-0.4,0.1-0.9,0-1.3-0.3c-0.6-0.5-1-1.2-1.2-2c-0.3-0.8-0.3-2,0.1-2.7
		c0.2-0.4,0.7-0.7,1.1-0.6c0.4,0,0.7,0.1,1,0.4c0,0,0.1-7.7,9-7.7C476.6,23.5,476.4,31.2,476.4,31.2z"/>
	<path class="st1" d="M447.9,26.1c0.3-0.3,0.6-0.4,1-0.4c0.5,0,0.9,0.2,1.2,0.7c0.4,0.7,0.4,2,0.1,2.8c-0.2,0.8-0.7,1.5-1.3,2
		c-0.3,0.3-0.8,0.4-1.2,0.3l-0.1,0c-0.1,0.4-0.3,0.8-0.4,1.1c-0.3,0.7-1.6,3.1-3.4,4.4v0.7c-1.2,1.3-2.8,2.5-4.3,3.6l-0.7,0
		c-1.5-1-3-2.1-4.3-3.3v-0.5c-1-0.5-1.8-1.3-2.5-2.1c-0.9-1.1-1.6-2.5-2.1-3.9c-0.5,0.1-0.9,0-1.3-0.3c-0.6-0.5-1-1.3-1.3-2
		c-0.3-0.8-0.3-2.1,0.1-2.8c0.2-0.4,0.7-0.7,1.2-0.7c0.4,0,0.7,0.1,1,0.4c0,0-1.4-7.7,9-7.7C449.2,18.5,447.9,26.1,447.9,26.1z"/>
	<path class="st2" d="M460.4,49.5c0-0.8,0-1.5,0-2.2l1.5,0.2c4.4,0.7,9.1,1.5,13.3-0.6c-0.4,5.3-1.2,14.8-2.1,21.7c0,0,0,0.1,0,0.3
		c-1.8,0.2-3.8,0-5.2,0.9c-0.3,0.2-0.4,0.5-0.4,0.8c0.1,0.2,0.3,0.4,0.5,0.5l-0.6-0.3c-0.3-0.2-1.3-0.2-1.9-0.2
		c-1.7-0.1-4-0.1-5.4-1c0.2-0.1,0.4-0.3,0.6-0.4c-0.1,0-0.3-0.1-0.5-0.2l0-0.3C460.4,63.1,460.4,55.3,460.4,49.5z"/>
	<path class="st1" d="M467.6,70.7c-0.1-0.3,0.1-0.6,0.4-0.8c1.9-1.2,4.4-0.5,6.5-1.2c0.6-0.2,1.2-0.5,1.7-0.8
		c0.4,0.4,0.8,0.9,1.1,1.4c0.6,1.2,1,2.4,1.2,3.7c-1.7,1-2.1,1.3-3.3,2.7c-1,1.2-1.8,2.5-3.2,3.3c-0.4,0.2-0.9,0.4-1.3,0.5
		c-0.7,0.2-1.5,0.4-2.1-0.2c-0.9,0.4-2.3,0.1-2.6-0.6c-0.1,0-0.2,0.1-0.3,0.1c-0.4,0.2-0.9,0-1.1-0.5c0,0,0,0,0,0
		c-0.2-0.3-0.1-0.7,0.2-1c0.3-0.2,0.7-0.5,1-0.7c-0.8,0.4-1.3,0.4-1.6-0.3c0,0,0,0,0-0.1l-0.6-0.1c-0.2,0-0.6-0.1-0.8-0.2
		c-0.9-0.2-1.9-0.6-2.5-1.3c-0.1-0.2-0.3-0.3-0.5-0.3c-0.3,0-1.1-0.1-1.4-0.1l-0.2,0c0.3-1.3,0.8-2.5,1.4-3.7
		c0.2-0.3,0.4-0.6,0.7-0.8c1.4,0.9,3.7,1,5.4,1c0.6,0,1.6,0,1.9,0.2"/>
	<path class="st1" d="M439.6,44.8c-0.1,0-0.3,0-0.4,0c-0.9,0-1.8-0.3-2.6-0.7c0.8-1,1.6-2.1,2.5-3.1c1.2,0.8,2.3,1.8,3.2,2.9
		C441.5,44.4,440.6,44.7,439.6,44.8z"/>
	<path class="st3" d="M456.8,66.5l-0.1-19.8c-0.5-0.8-1.1-1.5-1.7-2.1c-0.7-0.8-1.6-1.5-2.6-2c-2.3-1.2-4.5-1.5-7.1-2.6
		c-0.8,1.4-1.6,2.9-2.7,4.2c-0.1-0.1-0.2-0.2-0.3-0.3c-0.9,0.5-2,0.8-3.1,0.9c-0.9,0-1.8-0.3-2.6-0.7c-0.2,0.2-0.3,0.4-0.5,0.6
		c-1.3-1.4-2.5-2.9-3.7-4.3c-3.1,1-4.7,1.7-7.5,3.1c-0.8,0.4-1.6,1-2.2,1.6c-0.8,0.9-1.5,2-1.9,3.2c-0.1,0.1-0.1,0.3-0.1,0.4
		c0,0.8,0,1.5,0,1.5v23.5h36.2L456.8,66.5z"/>
	<path class="st4" d="M445.6,40.8c2,0.7,4.1,1.2,6,2.1c1.9,1,3.5,2.4,4.6,4.2c0.4,0.6,1.4,0,1-0.6c-1.2-1.9-2.9-3.5-4.9-4.5
		c-2-1-4.3-1.5-6.4-2.3C445.2,39.4,444.9,40.5,445.6,40.8L445.6,40.8z"/>
	<path class="st1" d="M432.5,40.2l2-2.2c1.3,1.3,2.7,2.4,4.3,3.3c-0.9,1.1-1.8,2.2-2.7,3.4c-1.2-1.3-2.4-2.7-3.5-4.2"/>
	<path class="st1" d="M445.3,39.4c-0.4-0.6-0.9-1.2-1.5-1.7c-1.2,1.3-2.8,2.5-4.3,3.6c1.1,0.9,2.1,1.8,3.1,2.9c1.2-1.4,2-3,2.8-4.5"
		/>
	<path class="st4" d="M432.9,40.6l2-2.2h-0.8c1.3,1.3,2.8,2.4,4.4,3.4l-0.1-0.9c-0.9,1.1-1.9,2.3-2.8,3.5l0.9-0.1
		c-1.2-1.3-2.4-2.7-3.5-4.2c-0.2-0.2-0.6-0.2-0.8,0c-0.2,0.2-0.2,0.6,0,0.8c1.1,1.4,2.3,2.8,3.5,4.2c0.2,0.2,0.6,0.2,0.8,0
		c0,0,0.1-0.1,0.1-0.1c0.8-1.1,1.7-2.2,2.6-3.2c0.2-0.2,0.2-0.6,0-0.8c0,0-0.1-0.1-0.1-0.1c-1.5-0.9-2.9-2-4.1-3.2
		c-0.2-0.2-0.6-0.2-0.8,0l-2,2.2C431.6,40.4,432.4,41.2,432.9,40.6L432.9,40.6z"/>
	<path class="st4" d="M445.8,39.1c-0.5-0.6-1-1.2-1.6-1.8c-0.2-0.2-0.6-0.2-0.8,0c-1.2,1.4-2.7,2.4-4.2,3.5
		c-0.3,0.2-0.4,0.5-0.2,0.8c0,0.1,0.1,0.1,0.2,0.2c1.1,0.8,2,1.8,3,2.8c0.2,0.2,0.6,0.2,0.8,0c1.1-1.4,2-3,2.9-4.6
		c0.4-0.6-0.6-1.2-1-0.6c-0.8,1.5-1.7,3-2.7,4.4h0.8c-1-1.1-2-2.1-3.2-3v1c1.6-1.1,3.2-2.3,4.5-3.7h-0.8c0.5,0.5,1,1,1.4,1.5
		c0.2,0.3,0.5,0.4,0.8,0.2C445.9,39.8,446,39.4,445.8,39.1L445.8,39.1z"/>
	<path class="st4" d="M437.2,45c0.8,0.3,1.7,0.4,2.6,0.3c1-0.1,1.9-0.4,2.7-0.9c0.6-0.4,0.1-1.3-0.6-1c-0.7,0.4-1.5,0.6-2.2,0.7
		c-0.8,0.1-1.5,0-2.3-0.3c-0.3-0.1-0.6,0.1-0.7,0.4C436.7,44.6,436.9,44.9,437.2,45L437.2,45L437.2,45z"/>
	<path class="st5" d="M449.6,20c-0.2-1.1-0.6-2.1-1.1-3.1c-1.9-3.5-5.8-5.6-9.8-5.6c-2.6,0-4.8,0.7-6.6,2.1
		c-0.8,0.6-1.5,1.4-1.8,2.4c0,0-0.3,0-0.7,0.1c-1.3,1.4-2,3.9-2,6.4c0,1.2,0.1,2.4,0.4,3.6c0.2-0.1,0.4-0.1,0.5-0.1
		c0.4,0,0.9,0.2,1.1,0.5c0.2-1.4,0.2-3.1,1.9-5.1c0.3-0.4,1.3-0.8,2.2-1.1c0.9-0.3,3.6-0.3,4.6-0.3c2.3-0.3,5.2,0,6.9,1.3
		c0.5,0.4,0.9,0.8,1.3,1.3c0.8,1.1,0.9,2.2,1,3.9c0.3-0.3,0.7-0.5,1.1-0.5c0.2,0,0.3,0,0.5,0.1C450,24,450.1,22,449.6,20z"/>
	<path class="st4" d="M430.1,25.7c-0.6-0.6-1.5-0.7-2.3-0.3c-0.5,0.3-0.9,0.8-1.1,1.4c-0.3,1.4-0.1,2.9,0.7,4.1
		c0.5,0.8,1.3,1.5,2.3,1.3c0.3,0,0.6-0.3,0.6-0.6c0-0.3-0.3-0.6-0.6-0.6c-0.7,0.1-1.2-0.5-1.6-1.1c-0.3-0.5-0.5-1.1-0.5-1.6
		c0-0.6,0-1.2,0.3-1.7c-0.1,0.1,0.1-0.1,0.1-0.1c0.1-0.1,0.2-0.1,0.3-0.1c0.3-0.1,0.6,0,0.8,0.2C429.9,27,430.7,26.2,430.1,25.7
		L430.1,25.7z"/>
	<path class="st4" d="M448.3,26.6c0.2-0.2,0.5-0.3,0.8-0.2c0.1,0,0.3,0.1,0.4,0.2c0,0,0.2,0.2,0.1,0.1c0.3,0.5,0.3,1.1,0.3,1.7
		c-0.1,0.6-0.2,1.1-0.5,1.6c-0.3,0.6-0.8,1.2-1.6,1.1c-0.3,0-0.6,0.3-0.6,0.6c0,0.3,0.3,0.6,0.6,0.6c1.6,0.2,2.6-1.6,3-2.9
		c0.4-1.2,0.4-3-0.8-3.8c-0.8-0.5-1.8-0.4-2.5,0.2C447,26.2,447.8,27,448.3,26.6L448.3,26.6z"/>
	<path class="st4" d="M447.3,30.8c-0.1,0.5-0.2,0.9-0.4,1.4c-0.1,0.2-0.1,0.3-0.2,0.4c-0.1,0.1,0-0.1,0,0c0,0,0,0.1-0.1,0.1
		c-0.3,0.6-0.6,1.2-1,1.7c-0.9,1.3-2.1,2.6-3.7,3c-0.7,0.2-0.4,1.3,0.3,1.1c1.8-0.4,3.2-1.9,4.3-3.4c0.4-0.6,0.8-1.2,1.1-1.8
		c0.2-0.4,0.2-0.4,0.3-0.8c0.2-0.5,0.4-1,0.5-1.5C448.5,30.4,447.4,30.1,447.3,30.8L447.3,30.8z"/>
	<path class="st4" d="M429.2,31c0.8,3.4,3.3,7.2,7,7.7c0.3,0.1,0.6-0.1,0.7-0.4c0.1-0.3-0.1-0.6-0.4-0.7c-3.3-0.5-5.6-3.8-6.3-6.9
		C430.2,30,429.1,30.3,429.2,31L429.2,31z"/>
	<path class="st4" d="M429.5,15.2c-1.3,1.1-1.9,2.9-2.2,4.6c-0.3,2-0.2,4.1,0.3,6.1c0.2,0.7,1.3,0.4,1.1-0.3
		c-0.4-1.8-0.5-3.6-0.3-5.5c0.2-1.5,0.8-3,1.9-4.1C430.9,15.6,430,14.8,429.5,15.2L429.5,15.2z"/>
	<path class="st4" d="M433.8,19.5c-0.8,0.2-1.5,0.5-2.1,1c-0.6,0.5-1.1,1.1-1.4,1.9c-0.6,1.1-0.8,2.4-0.9,3.6c0,0.3,0.3,0.6,0.6,0.6
		c0.3,0,0.6-0.3,0.6-0.6c0.1-1,0.3-2,0.7-3c0.3-0.5,0.6-1.2,1.1-1.6c0.5-0.4,1.2-0.6,1.8-0.8C434.8,20.3,434.5,19.2,433.8,19.5
		L433.8,19.5z"/>
	<path class="st4" d="M445,21.4c0.7,0.6,1.4,1.2,1.7,2c0.3,0.8,0.5,1.7,0.5,2.6c0,0.3,0.3,0.6,0.6,0.6c0.3,0,0.6-0.3,0.6-0.6
		c0-1-0.2-2-0.5-2.9c-0.4-1-1.1-1.8-2-2.5c-0.2-0.2-0.6-0.2-0.8,0C444.8,20.9,444.8,21.2,445,21.4z"/>
	<path class="st4" d="M436.1,19.9c0-0.1,0-0.2,0.1-0.2c0-0.1,0,0.1,0,0c0,0,0-0.1,0.1-0.1c0.1-0.2,0.2-0.3,0.3-0.4c0,0,0,0,0-0.1
		c0,0.1,0,0.1,0,0c0,0,0.1-0.1,0.1-0.1s0.1-0.1,0.1-0.1c0.1-0.1,0.1-0.2,0.2-0.2c0.1-0.1,0.2-0.2,0.3-0.2c0,0,0.1-0.1,0,0
		c0,0,0.1,0,0.1-0.1c0.1,0,0.1-0.1,0.2-0.1c0.1-0.1,0.3-0.2,0.4-0.2c0,0,0.1,0,0.1-0.1l0.1,0c-0.1,0-0.1,0,0,0
		c0.1,0,0.2-0.1,0.3-0.1c0.3-0.1,0.5-0.4,0.4-0.7s-0.4-0.5-0.7-0.4l0,0c-0.7,0.2-1.3,0.6-1.8,1.1c-0.2,0.2-0.4,0.4-0.6,0.7
		c-0.3,0.3-0.5,0.7-0.6,1.1c-0.1,0.3,0.1,0.6,0.4,0.7C435.7,20.3,436,20.2,436.1,19.9L436.1,19.9L436.1,19.9z"/>
	<path class="st4" d="M438.1,20.3c0.3-0.2,0.5-0.4,0.8-0.5c-0.1,0,0,0,0,0s0.1,0,0.1,0c0.1,0,0.1,0,0.2-0.1c0.1,0,0.3-0.1,0.4-0.1
		c0.2-0.1,0.5-0.1,0.7-0.1c0.1,0,0.3-0.1,0.4-0.1l0.1,0c-0.1,0,0,0,0,0c0.1,0,0.2,0,0.3,0c0.3,0,0.6-0.3,0.6-0.6
		c0-0.3-0.3-0.6-0.6-0.6c-1.3,0.1-2.7,0.4-3.8,1.1c-0.3,0.2-0.4,0.5-0.2,0.8C437.5,20.3,437.8,20.4,438.1,20.3L438.1,20.3
		L438.1,20.3z"/>
	<path class="st4" d="M450,25.9c0.6-2.2,0.6-4.4,0-6.6c-0.5-2.1-1.6-3.9-3.1-5.4c-3.2-2.9-7.7-3.9-11.8-2.6
		c-2.2,0.7-4.4,2.1-5.3,4.2c-0.1,0.3-0.1,0.6,0.2,0.8c0.3,0.2,0.6,0.1,0.8-0.2c0.3-0.8,0.9-1.6,1.6-2.1c0.7-0.6,1.5-1,2.4-1.4
		c1.8-0.7,3.8-0.9,5.8-0.5c3.7,0.7,7,3.2,8.1,6.8c0.7,2.2,0.8,4.5,0.2,6.7C448.7,26.3,449.8,26.6,450,25.9L450,25.9z"/>
	<path class="st4" d="M437.1,33.9c0.6,0.3,1.2,0.4,1.8,0.4c0.7,0,1.3-0.2,1.9-0.6c0.2-0.2,0.2-0.6,0-0.8c-0.2-0.2-0.6-0.2-0.8,0
		c0.2-0.1,0,0-0.1,0c0,0-0.2,0.1,0,0c-0.1,0-0.1,0-0.2,0.1c-0.1,0-0.3,0.1-0.4,0.1c0.1,0,0,0,0,0c0,0-0.1,0-0.1,0
		c-0.1,0-0.2,0-0.3,0c-0.1,0-0.2,0-0.3,0c0,0-0.1,0-0.1,0c0,0-0.2,0,0,0c-0.1,0-0.3,0-0.4-0.1c-0.1,0-0.1,0-0.2-0.1
		c-0.1,0,0.1,0.1,0,0c-0.1,0-0.1-0.1-0.2-0.1c-0.3-0.2-0.6-0.1-0.8,0.2C436.7,33.4,436.8,33.8,437.1,33.9L437.1,33.9z"/>
	<path class="st4" d="M438.6,29.7c0.1,0.3,0.1,0.6,0.2,0.9l0-0.2c0,0,0,0.1,0,0.1l0-0.2c0,0,0,0,0,0.1l0.1-0.1c0,0,0,0,0,0l0.1-0.1
		c0,0,0,0,0,0l0.1-0.1c0,0,0,0-0.1,0l0.1-0.1c0,0-0.1,0-0.1,0l0.2,0c0,0-0.1,0-0.1,0l0.2,0c0,0-0.1,0-0.1,0c-0.1,0-0.2,0-0.2,0
		c-0.1,0-0.1,0-0.2,0.1c-0.3,0.2-0.4,0.5-0.2,0.8c0.1,0.1,0.2,0.2,0.3,0.3c0.1,0,0.2,0,0.3,0c0.2,0,0.3,0,0.5-0.1
		c0.2-0.1,0.3-0.3,0.4-0.5c0-0.2,0-0.3,0-0.5c0-0.3-0.1-0.6-0.2-0.9c-0.1-0.3-0.4-0.5-0.7-0.4C438.7,29,438.5,29.4,438.6,29.7
		L438.6,29.7z"/>
	<path class="st4" d="M433.9,27.1c-0.2,0.5-0.1,1.6,0.9,1.7c1.2,0,1.3-1.4,0.9-2C435.3,26.2,434.3,26,433.9,27.1z"/>
	<path class="st4" d="M443.7,27.1c0.2,0.5,0.1,1.6-0.9,1.7c-1.2,0-1.3-1.4-0.9-2C442.3,26.2,443.3,26,443.7,27.1z"/>
	<path class="st4" d="M442,32.7c0,0,0.1,0.1,0.1,0.2L442,32.7c0.1,0.2,0.2,0.3,0.3,0.5l-0.1-0.1c0,0.1,0,0.1,0.1,0.2
		c0,0.1,0.1,0.3,0.3,0.3c0.1,0,0.1,0.1,0.2,0.1c0.1,0,0.2,0,0.2,0c0.1,0,0.3-0.1,0.3-0.3c0.1-0.1,0.1-0.3,0.1-0.4
		c-0.1-0.4-0.3-0.7-0.6-1c-0.1-0.1-0.3-0.2-0.4-0.2c-0.1,0-0.3,0.1-0.4,0.2c-0.1,0.1-0.2,0.3-0.2,0.4
		C441.8,32.5,441.9,32.6,442,32.7L442,32.7z"/>
	<path class="st4" d="M471.5,42.3c0.1,0.7,0.3,1.3,0.7,1.9c0.3,0.4,0.7,0.8,1.2,1.1c1,0.6,2.2,1.1,3.3,1.5c0.3,0.1,0.6-0.1,0.7-0.4
		c0.1-0.3-0.1-0.6-0.4-0.7c-1-0.4-2-0.8-2.9-1.3c-0.1-0.1-0.2-0.1-0.3-0.2c0,0-0.1-0.1-0.1-0.1c0,0-0.1-0.1-0.1-0.1
		c-0.1-0.1-0.2-0.1-0.2-0.2c0,0-0.1-0.1-0.1-0.1c0,0-0.1-0.1,0,0c-0.3-0.5-0.5-1-0.6-1.6c-0.1-0.3-0.4-0.5-0.7-0.4
		C471.6,41.7,471.4,42,471.5,42.3L471.5,42.3z"/>
	<path class="st4" d="M460.2,45.7c0.9-0.3,1.7-0.6,2.6-1c0.3-0.2,0.8-0.4,1-0.7c0.1-0.2,0.2-0.5,0.2-0.8c0-0.3,0.1-0.5,0.1-0.8
		c0.1-0.3-0.1-0.6-0.4-0.7c-0.3-0.1-0.6,0.1-0.7,0.4c0,0.2-0.1,0.5-0.1,0.7c0,0.2-0.1,0.4-0.1,0.7c0,0,0-0.1,0.1-0.1
		c0,0-0.1,0-0.1,0.1c-0.1,0-0.1,0.1-0.2,0.1c-0.1,0.1-0.3,0.2-0.4,0.2c0,0-0.1,0-0.1,0.1c0,0-0.1,0.1-0.1,0c0.1,0-0.1,0-0.1,0
		c0,0-0.1,0-0.1,0.1c-0.2,0.1-0.4,0.1-0.5,0.2c-0.4,0.1-0.8,0.3-1.3,0.4c-0.3,0.1-0.5,0.4-0.4,0.7C459.6,45.6,459.9,45.8,460.2,45.7
		L460.2,45.7z"/>
	<path class="st5" d="M464.3,17.2c-3.6,1-6.5,4.1-7.2,7.6c-0.2,1.4-0.2,2.9,0,4.4c0.1,0.6,0.3,1.1,0.6,1.7c0,0,0.1,0,0.1,0
		c0.5,0,0.9,0.2,1.2,0.6c1.3-0.8,2.6-1.7,3.9-2.7l2,0.1c2.7-0.9,5.1-2.6,6.7-4.9c0.3,1.1,0.6,2.1,1.1,3.2c0.5,1,2.1,3.1,3.3,3.4
		l0.9,0.3c0.2-0.1,0.4-0.1,0.6-0.1c0.2,0,0.4,0,0.5,0.1c0.7-1.8,0.3-4.7,0-6.1c-0.2-0.7-0.4-1.5-0.7-2.1c-0.4-1-1.1-1.9-1.9-2.6
		l-1.6-1.4l-0.1-0.1c-0.6-0.4-1.3-0.7-1.9-1c-1.4-0.5-2.8-0.7-4.3-0.7C466.4,16.7,465.3,16.9,464.3,17.2z"/>
	<path class="st4" d="M476.8,31.6c0.2-0.2,0.5-0.2,0.8-0.2c0.1,0,0.2,0.1,0.3,0.1c-0.1,0,0.2,0.2,0.1,0.1c0.3,0.5,0.3,1.1,0.3,1.6
		c-0.1,0.5-0.2,1.1-0.5,1.6c-0.3,0.6-0.8,1.2-1.5,1.1c-0.3,0-0.6,0.3-0.6,0.6c0,0.3,0.3,0.6,0.6,0.6c1.6,0.2,2.6-1.5,3-2.8
		c0.4-1.1,0.3-2.9-0.8-3.7c-0.8-0.5-1.8-0.4-2.5,0.2C475.4,31.2,476.2,32,476.8,31.6z"/>
	<path class="st4" d="M475.8,35.6c-0.1,0.5-0.2,0.9-0.4,1.3c-0.1,0.1-0.1,0.3-0.2,0.4c-0.1,0.1,0-0.1,0,0c0,0,0,0.1-0.1,0.1
		c-0.3,0.6-0.6,1.1-1,1.6c-0.9,1.2-2,2.6-3.5,2.9c-0.7,0.2-0.4,1.3,0.3,1.1c1.8-0.4,3.1-1.9,4.1-3.3c0.4-0.6,0.8-1.1,1.1-1.7
		c0.1-0.2,0.2-0.5,0.3-0.8c0.2-0.5,0.3-1,0.4-1.5C477,35.2,475.9,34.9,475.8,35.6L475.8,35.6z"/>
	<path class="st4" d="M458.3,35.9c0.8,3.3,3.3,6.9,6.9,7.5c0.3,0.1,0.6-0.1,0.7-0.4c0.1-0.3-0.1-0.6-0.4-0.7
		c-3.2-0.5-5.4-3.7-6.1-6.7C459.2,34.9,458.1,35.2,458.3,35.9L458.3,35.9z"/>
	<path class="st4" d="M465.6,38.7c0.6,0.3,1.2,0.4,1.8,0.4c0.7,0,1.3-0.2,1.8-0.6c0.2-0.2,0.2-0.6,0-0.8c-0.2-0.2-0.6-0.2-0.8,0
		c0.2-0.2,0,0-0.1,0c0,0-0.2,0.1,0,0c0,0-0.1,0-0.1,0.1c-0.1,0-0.1,0-0.2,0.1c0,0-0.2,0.1-0.2,0c0,0,0.1,0,0,0c0,0-0.1,0-0.1,0
		c-0.1,0-0.2,0-0.3,0c-0.1,0-0.2,0-0.3,0c0,0-0.1,0-0.1,0c0,0-0.2,0,0,0c-0.1,0-0.3,0-0.4-0.1c-0.1,0-0.1,0-0.2-0.1c0,0,0,0-0.1,0
		c-0.1,0,0.1,0.1,0,0c-0.1,0-0.1-0.1-0.2-0.1c-0.3-0.2-0.6-0.1-0.8,0.2C465.2,38.2,465.3,38.6,465.6,38.7L465.6,38.7z"/>
	<path class="st4" d="M467,34.6c0.1,0.3,0.1,0.6,0.2,0.9l0-0.2c0,0,0,0.1,0,0.1l0-0.2c0,0,0,0,0,0.1l0.1-0.1c0,0,0,0,0,0l0.1-0.1
		c0,0,0,0,0,0l0.1-0.1c0,0,0,0-0.1,0l0.1-0.1c0,0-0.1,0-0.1,0l0.2,0c0,0-0.1,0-0.1,0l0.2,0c-0.1,0-0.2,0-0.3,0
		c-0.2,0-0.3,0.1-0.4,0.2c-0.2,0.2-0.2,0.6,0,0.8c0,0,0,0,0,0l0.1,0.1c0.1,0.1,0.2,0.1,0.3,0.1h0l-0.2,0c0.1,0,0.2,0,0.3,0
		c0.2,0,0.3,0,0.5-0.1c0.2-0.1,0.3-0.3,0.4-0.5c0-0.2,0-0.3,0-0.5c0-0.3-0.1-0.6-0.2-0.8c-0.1-0.3-0.4-0.5-0.7-0.4c0,0,0,0,0,0
		c-0.1,0-0.3,0.1-0.3,0.3C467,34.3,467,34.4,467,34.6L467,34.6z"/>
	<path class="st4" d="M462.5,32.1c-0.1,0.5,0,1.6,0.9,1.7c1.2,0,1.2-1.3,0.8-1.9C463.9,31.3,462.9,31.1,462.5,32.1z"/>
	<path class="st4" d="M472,32c0.1,0.5,0.1,1.6-0.8,1.7c-1.2,0-1.3-1.3-0.9-1.9C470.6,31.3,471.6,31,472,32z"/>
	<path class="st4" d="M473.9,18.1c-1.8-1.2-3.8-1.7-6-1.8c-1.8-0.1-3.6,0.2-5.2,0.9c-3.1,1.4-5.7,4.3-6.2,7.8
		c-0.3,1.9-0.3,4.1,0.6,5.9c0.2,0.3,0.5,0.4,0.8,0.2c0.3-0.2,0.4-0.5,0.2-0.8c-0.7-1.4-0.7-3.2-0.5-4.7c0.2-1.5,0.8-2.9,1.7-4.1
		c1.8-2.5,4.9-4.2,8.1-4.1c1,0,2.1,0.1,3.1,0.4c1.1,0.3,2.1,0.7,3,1.3C474,19.4,474.5,18.4,473.9,18.1L473.9,18.1z"/>
	<path class="st4" d="M470.4,37.2c0.1,0.2,0.2,0.4,0.3,0.5l-0.1-0.1c0.1,0.2,0.2,0.4,0.2,0.7c0,0.1,0.1,0.3,0.3,0.3
		c0.3,0.2,0.6,0.1,0.8-0.2l0.1-0.1c0-0.1,0-0.2,0-0.3l0-0.1c0-0.1-0.1-0.3-0.3-0.3c-0.1-0.1-0.3-0.1-0.4-0.1c-0.1,0-0.3,0.1-0.3,0.3
		l-0.1,0.1c0,0.1,0,0.2,0,0.3l0,0.1l1.1-0.3c-0.1-0.5-0.3-0.9-0.5-1.3c-0.2-0.3-0.5-0.4-0.8-0.2C470.3,36.6,470.2,37,470.4,37.2
		C470.4,37.2,470.4,37.2,470.4,37.2L470.4,37.2z"/>
	<path class="st4" d="M459.1,30.8c-0.6-0.5-1.5-0.7-2.2-0.3c-0.5,0.3-0.9,0.8-1,1.3c-0.3,1.4-0.1,2.8,0.7,4c0.5,0.8,1.3,1.4,2.3,1.3
		c0.3,0,0.6-0.3,0.6-0.6c0-0.3-0.3-0.6-0.6-0.6c-0.7,0.1-1.2-0.5-1.5-1.1c-0.3-0.5-0.4-1-0.5-1.6c0-0.5,0-1.2,0.3-1.6
		c-0.1,0.1,0,0,0,0c0,0,0.1-0.1,0.1-0.1c0.1-0.1,0.2-0.1,0.3-0.1c0.3-0.1,0.6,0,0.8,0.2C458.9,32.1,459.7,31.3,459.1,30.8
		L459.1,30.8z"/>
	<path class="st4" d="M477.4,37.1C477.4,37.1,477.4,37.1,477.4,37.1C477.4,37.1,477.3,37,477.4,37.1
		C477.4,37.1,477.5,37.1,477.4,37.1C477.3,37,477.4,37.1,477.4,37.1C477.4,37.1,477.5,37.1,477.4,37.1
		C477.5,37.2,477.4,37,477.4,37.1c0.1,0.1,0.1,0.1,0.1,0.1c0,0,0,0,0,0c0,0-0.1-0.1,0-0.1c0,0.1,0,0.1,0.1,0.2l0-0.2
		c0,0.1,0,0.2,0,0.3l0-0.2c0,0.1,0,0.1,0,0.2c0,0,0,0.1,0,0.1c0,0.1,0.1-0.1,0,0c0,0.1-0.1,0.1-0.1,0.2c-0.1,0.1,0.1-0.1,0,0
		c0,0,0,0-0.1,0.1c0,0,0,0-0.1,0.1c0,0-0.1,0.1,0,0c0,0-0.1,0.1-0.1,0.1c0,0-0.1,0-0.1,0c0.1-0.1,0.1,0,0,0c-0.1,0-0.1,0-0.2,0
		l0.2,0c-0.1,0-0.2,0-0.3,0l0.2,0c0,0-0.1,0-0.1,0c0,0-0.1,0-0.1,0c0,0-0.1,0,0,0s0,0,0,0c0,0,0,0-0.1,0c0,0,0,0-0.1,0
		c-0.1-0.1,0.1,0.1,0,0c-0.1-0.1-0.3-0.2-0.4-0.2c-0.3,0-0.6,0.3-0.6,0.6c0,0.2,0.1,0.3,0.2,0.4c0.3,0.3,0.7,0.4,1.1,0.4
		c0.4,0,0.7-0.1,1-0.3c0.3-0.2,0.6-0.5,0.7-0.9c0.1-0.3,0.1-0.7,0-1c-0.1-0.4-0.5-0.8-0.9-0.9c-0.3-0.1-0.6,0.1-0.7,0.4
		C476.9,36.7,477.1,37,477.4,37.1L477.4,37.1z"/>
	<path class="st4" d="M457.2,35.8c-0.7,0.3-1,1.3-0.7,2c0.3,0.8,1,1.3,1.9,1.3c0.5,0,1-0.2,1.3-0.6c0.2-0.2,0.2-0.6,0-0.8
		c-0.2-0.2-0.6-0.2-0.8,0c0,0-0.1,0.1-0.1,0.1c0,0,0,0,0,0c0,0,0,0-0.1,0c0,0-0.1,0-0.1,0.1l0,0c-0.1,0,0,0,0,0c0,0-0.1,0-0.1,0
		c0,0-0.1,0-0.1,0c-0.1,0,0.1,0,0,0c0,0-0.1,0-0.1,0c0,0,0,0-0.1,0c-0.1,0,0,0,0,0c0,0-0.1,0-0.1,0c0,0-0.1,0-0.1,0c0,0,0,0-0.1,0
		c0.1,0,0.1,0,0,0c0,0-0.1,0-0.1-0.1c0,0-0.1-0.1,0,0c0.1,0.1,0,0,0,0c0,0-0.1-0.1-0.1-0.1c0,0,0,0,0,0c0.1,0.1,0.1,0.1,0,0
		c0,0,0-0.1-0.1-0.1c0,0,0-0.1-0.1-0.1c0-0.1,0,0,0,0c0,0,0,0,0-0.1c0,0,0-0.1,0-0.1c0-0.1,0-0.1,0,0c0-0.1,0-0.2,0-0.2
		c0-0.1,0,0.1,0,0c0,0,0-0.1,0-0.1c0,0,0,0,0-0.1c0-0.1,0,0,0,0.1c0,0,0-0.1,0.1-0.1c0-0.1,0.1-0.1,0,0c0,0,0.1-0.1,0.1-0.1
		c0.1-0.1-0.1,0.1,0,0c0,0,0.1,0,0.1-0.1c0.1-0.1,0.2-0.2,0.3-0.3c0-0.1,0-0.3-0.1-0.4c-0.1-0.1-0.2-0.2-0.3-0.3
		C457.5,35.8,457.4,35.8,457.2,35.8L457.2,35.8z"/>
	<path class="st4" d="M471,24.3c0.4,1.4,0.8,2.9,1.7,4.1c0.8,1.1,1.8,2.4,3.1,2.8c0.7,0.2,1-0.9,0.3-1.1c-0.5-0.2-0.9-0.5-1.3-1
		c-0.4-0.5-0.8-1-1.2-1.5c-0.8-1.1-1.1-2.4-1.5-3.7C471.9,23.3,470.8,23.5,471,24.3z"/>
	<path class="st4" d="M465.1,25.9c-1.7,1.9-3.9,3.4-6,4.8c-0.6,0.4,0,1.4,0.6,1c2.2-1.4,4.5-3,6.3-5
		C466.4,26.1,465.6,25.3,465.1,25.9z"/>
	<path class="st4" d="M471.1,23.7c-1.6,2.2-3.8,3.8-6.4,4.6c-0.7,0.2-0.4,1.3,0.3,1.1c2.8-0.9,5.3-2.7,7.1-5.1
		c0.2-0.3,0.1-0.6-0.2-0.8C471.6,23.4,471.2,23.5,471.1,23.7L471.1,23.7z"/>
	<path class="st4" d="M478.4,31.1c0.7-1.8,0.5-3.9,0.2-5.7c-0.3-2.1-1.3-4.3-2.9-5.8c-0.5-0.5-1.3,0.3-0.8,0.8
		c1.5,1.4,2.3,3.3,2.6,5.3c0.3,1.6,0.5,3.6-0.2,5.1c-0.1,0.3,0.1,0.6,0.4,0.7C478,31.6,478.3,31.4,478.4,31.1L478.4,31.1z"/>
	<path class="st1" d="M478.3,77.4c0.6-2.7,0.2-5.6-1.1-8.1c-0.3-0.5-0.6-1-1.1-1.4c-0.5,0.3-1.1,0.6-1.7,0.8
		c-0.4,0.1-0.9,0.2-1.3,0.3l0-0.3c0.9-7.2,1.7-17.2,2.1-22.3l0.1-1.3v0c2.8,1.2,5.8,2.4,7.4,5.1c0.9,1.6,1.2,3.5,1.4,5.4l1.2,9.1
		c0.3,2.8,0.2,5.6-0.6,7.4L478.3,77.4z"/>
	<path class="st1" d="M457.4,77.3c0.5-2.7,1.3-5.4,2.1-6.9c0.2-0.4,0.4-0.7,0.8-1l0-0.6c0.1-7.4,0.1-18.6,0.3-24l-3.9,1.9
		c-0.9,0.4-1.8,0.9-2.5,1.5c-1.3,1.2-1.9,3-2.4,4.8c-1.2,4.2-2.1,8.4-2.8,12.7c-0.2,1-0.7,3.5-0.9,5.1c-0.1,0.8-0.2,1.8,0.1,2.6
		c0.3,1,0.9,1.6,2,2L457.4,77.3z"/>
	<path class="st4" d="M475.1,45.4c1.6,0.7,3.3,1.4,4.8,2.4c1.5,1,2.6,2.5,3.2,4.2c0.6,2,0.7,4.2,1,6.3l0.4,3.5
		c0.1,1.1,0.3,2.3,0.4,3.4c0.1,1.2,0.1,2.4,0,3.6c0,1-0.2,2-0.6,2.9c-0.1,0.3-0.1,0.6,0.2,0.8c0.3,0.2,0.6,0.1,0.8-0.2
		c0.8-1.9,0.9-4,0.8-6c-0.1-2.4-0.5-4.8-0.8-7.1l-0.5-3.6c-0.1-1.1-0.3-2.2-0.5-3.2c-0.4-1.9-1.5-3.7-3-4.9c-1.7-1.3-3.6-2.1-5.6-3
		c-0.3-0.1-0.6-0.1-0.8,0.2C474.7,44.9,474.8,45.3,475.1,45.4L475.1,45.4z"/>
	<path class="st4" d="M477.7,57.8c0.2,1.6,0.3,3.2-0.4,4.7c-0.2,0.5-0.5,1-0.7,1.5c-0.3,0.6-0.4,1.3-0.5,1.9c0,0.7,1.1,0.7,1.1,0
		c0.1-1.2,0.8-2.1,1.2-3.2c0.7-1.6,0.6-3.2,0.4-4.9c0-0.3-0.3-0.6-0.6-0.6C477.9,57.2,477.7,57.5,477.7,57.8L477.7,57.8z"/>
	<path class="st4" d="M456,55.4c-0.1,1.8-0.2,3.6-0.2,5.4c0,1.8,0.1,3.6,0.3,5.4c0.1,0.7,1.2,0.7,1.1,0c-0.1-1.8-0.2-3.6-0.3-5.4
		c0-1.8,0.1-3.6,0.2-5.4C457.2,54.7,456.1,54.7,456,55.4z"/>
	<path class="st4" d="M460.3,44.2c-1.3,0.6-2.6,1.3-3.9,1.9c-1.1,0.5-2.2,1.1-3.1,2.1c-1.6,1.9-2.1,4.5-2.8,6.8
		c-0.7,2.7-1.3,5.5-1.8,8.2c-0.2,1.1-0.4,2.2-0.6,3.3c-0.2,1-0.4,2.1-0.6,3.1c-0.2,1.2-0.5,2.5-0.1,3.7c0.3,1.1,1.2,2,2.3,2.5
		c0.3,0.1,0.6,0.1,0.8-0.2c0.2-0.3,0.1-0.6-0.2-0.8c-0.8-0.4-1.5-0.9-1.7-1.8c-0.3-1-0.1-2.1,0.1-3c0.3-2,0.8-4,1.1-6
		c0.5-2.6,1-5.3,1.7-7.9c0.3-1.2,0.6-2.5,1-3.7c0.3-1.1,0.7-2.1,1.3-3c0.7-1.1,1.8-1.7,3-2.3c1.4-0.7,2.8-1.3,4.1-2
		C461.5,44.9,460.9,43.9,460.3,44.2L460.3,44.2z"/>
	<path class="st4" d="M460.3,70.3c1.2,0.6,2.5,0.7,3.7,0.8c0.6,0,1.2,0.1,1.8,0.1c0.3,0,0.6,0,0.8,0c0.1,0,0.2,0,0.3,0
		c0.1,0,0.1,0,0.2,0c0,0,0.1,0.1,0.1,0c0.3,0.1,0.6,0.1,0.8-0.2c0.2-0.3,0.1-0.6-0.2-0.8c-0.5-0.2-1-0.3-1.5-0.3
		c-0.6,0-1.2,0-1.8-0.1c-1.2-0.1-2.5-0.1-3.6-0.7C460.2,69,459.6,70,460.3,70.3L460.3,70.3z"/>
	<path class="st4" d="M458.2,74.6c0.4,0.1,0.9,0.1,1.3,0.1c0,0,0.2,0,0.1,0c0,0,0.1,0.1,0.1,0.1c0.2,0.2,0.4,0.4,0.6,0.6
		c0.9,0.7,1.9,0.9,3,1.1c0.3,0.1,0.6-0.1,0.7-0.4c0.1-0.3-0.1-0.6-0.4-0.7c-1-0.2-2-0.4-2.8-1c-0.2-0.2-0.3-0.4-0.5-0.5
		c-0.2-0.2-0.5-0.2-0.7-0.3c-0.2,0-0.4,0-0.6-0.1c-0.1,0-0.2,0-0.3,0c-0.1,0-0.1,0-0.2,0c0,0-0.2,0-0.1,0c-0.3-0.1-0.6,0.1-0.7,0.4
		C457.7,74.2,457.9,74.6,458.2,74.6L458.2,74.6z"/>
	<path class="st4" d="M475.9,67.3c-0.9,0.6-1.9,0.9-2.9,1.1c-1.1,0.1-2.1,0.1-3.2,0.3c-0.9,0.1-2.2,0.5-2.6,1.4
		c-0.3,0.5-0.1,1.1,0.3,1.5c0.2,0.2,0.5,0.2,0.7,0.3c0.3,0,0.6,0,0.9,0l-0.3-0.9c-1.3,1.1-2.6,2.1-3.9,3.2c-0.6,0.5-1.4,0.9-1.4,1.7
		c-0.1,0.8,0.4,1.6,1.2,1.7c0.1,0,0.1,0,0.2,0c0.7,0,0.7-1.1,0-1.1c-0.2,0-0.3-0.2-0.3-0.4c0-0.2,0.2-0.3,0.3-0.4
		c0.5-0.4,1-0.8,1.5-1.2c1.1-0.9,2.2-1.7,3.2-2.6c0.2-0.2,0.2-0.6,0-0.8c-0.1-0.1-0.2-0.1-0.2-0.1c-0.2,0-0.5-0.1-0.7,0
		c-0.1,0-0.4,0.1-0.5-0.1c-0.1-0.2,0.5-0.4,0.6-0.5c0.8-0.4,1.7-0.4,2.5-0.5c0.9,0,1.8-0.1,2.7-0.3c0.9-0.2,1.7-0.6,2.5-1.1
		C477.1,67.9,476.5,67,475.9,67.3L475.9,67.3z"/>
	<path class="st4" d="M468.6,74.1c-0.9,0.6-1.7,1.1-2.6,1.7c-0.8,0.5-2.1,1-2.1,2.1c0,0.8,0.7,1.5,1.5,1.4c0.2,0,0.3,0,0.5-0.1
		c0.8-0.3,1.6-0.7,2.3-1.2c0.8-0.5,1.6-1,2.3-1.5c0.3-0.2,0.4-0.5,0.2-0.8c-0.2-0.3-0.5-0.4-0.8-0.2c-1.2,0.9-2.4,1.7-3.8,2.3
		c-0.1,0.1-0.2,0.1-0.4,0.2c-0.1,0-0.2,0.1-0.3,0.1c-0.2,0.1-0.3,0.1-0.4-0.2c-0.1-0.3,0.1-0.5,0.4-0.6c0.4-0.2,0.8-0.5,1.2-0.7
		c0.9-0.5,1.7-1.1,2.5-1.6C469.7,74.7,469.2,73.7,468.6,74.1L468.6,74.1z"/>
	<path class="st4" d="M466,79.5c0.6,0.3,1.2,0.5,1.8,0.4c0.5-0.1,1-0.2,1.5-0.5c0.9-0.4,1.7-1,2.4-1.5c0.2-0.2,0.2-0.6,0-0.8
		c-0.2-0.2-0.6-0.2-0.8,0c0.1-0.1-0.1,0-0.1,0.1c-0.1,0.1-0.2,0.1-0.2,0.2c-0.2,0.1-0.3,0.2-0.5,0.3c-0.4,0.3-0.8,0.5-1.2,0.7
		c-0.2,0.1-0.3,0.2-0.5,0.3c-0.1,0,0,0,0,0c0,0-0.1,0-0.1,0c-0.1,0-0.2,0.1-0.3,0.1c-0.5,0.1-1,0-1.4-0.3c-0.3-0.2-0.6-0.1-0.8,0.2
		C465.7,79,465.8,79.3,466,79.5z"/>
	<path class="st4" d="M468.6,80c1,0.6,2.4,0,3.4-0.4c1-0.5,1.8-1.3,2.5-2.1c0.6-0.8,1.3-1.6,2-2.3c0.6-0.6,1.3-1.1,2.1-1.5
		c0.6-0.4,0.1-1.4-0.6-1c-0.7,0.4-1.4,0.9-2.1,1.4c-0.7,0.6-1.3,1.3-1.8,2c-0.6,0.8-1.2,1.6-2,2.1c-0.4,0.3-0.9,0.5-1.4,0.6
		c-0.4,0.1-1,0.4-1.4,0.1C468.5,78.6,468,79.6,468.6,80L468.6,80z"/>
	<path class="st4" d="M475.8,68.2c1.1,1,1.7,2.7,2,4.2c0.3,1.6,0.3,3.2,0,4.8c-0.1,0.7,0.9,1,1.1,0.3c0.4-1.8,0.4-3.6,0-5.4
		c-0.4-1.6-1-3.5-2.3-4.7C476,66.9,475.2,67.7,475.8,68.2L475.8,68.2z"/>
	<path class="st4" d="M458,69c0.9,0.3,1.8,0.5,2.6,0.9v-1.1c-0.7,0.3-1.3,0.7-1.7,1.4c-0.3,0.6-0.6,1.3-0.8,1.9
		c-0.6,1.7-1,3.4-1.3,5.1c-0.1,0.7,1,1,1.1,0.3c0.3-1.6,0.7-3.1,1.2-4.6c0.2-0.6,0.4-1.2,0.7-1.8c0.3-0.5,0.6-1,1.2-1.2
		c0.3-0.1,0.5-0.4,0.4-0.7c-0.1-0.2-0.2-0.3-0.4-0.4c-0.9-0.3-1.8-0.6-2.6-0.9C457.6,67.6,457.3,68.7,458,69L458,69z"/>
	<path class="st4" d="M473.8,68.6c0.8-6.7,1.4-13.5,2-20.3c0.1-1.1,0.2-2.2,0.2-3.3c0-0.7-1.1-0.7-1.1,0c-0.4,5.9-0.9,11.9-1.5,17.8
		c-0.2,1.9-0.4,3.9-0.7,5.8c0,0.3,0.3,0.6,0.6,0.6C473.6,69.2,473.8,68.9,473.8,68.6L473.8,68.6z"/>
	<path class="st4" d="M460,44.9c-0.2,6.2-0.2,12.4-0.2,18.6c0,1.8,0,3.5-0.1,5.3c0,0.7,1.1,0.7,1.1,0c0.1-6.5,0.1-13,0.2-19.5
		c0-1.5,0-2.9,0.1-4.4C461.1,44.2,460,44.2,460,44.9z"/>
	<path class="st4" d="M474.5,46.7c-1.2,0.4-2.5,0.7-3.8,0.9c-2.4,0.2-4.8-0.1-7.2-0.4c-0.8-0.1-1.5-0.2-2.3-0.4
		c-0.3-0.1-0.6,0.1-0.7,0.4c-0.1,0.3,0.1,0.6,0.4,0.7c4,0.6,8.3,1.5,12.3,0.3c0.5-0.2,1-0.3,1.5-0.5
		C475.5,47.6,475.2,46.5,474.5,46.7L474.5,46.7z"/>
	<path class="st4" d="M421.1,49.4c0.6-1.7,1.5-3.4,2.9-4.6c0.7-0.5,1.5-1,2.4-1.4c0.8-0.4,1.7-0.8,2.5-1.2c1-0.4,2-0.8,3.1-1.1
		c0.7-0.2,0.4-1.3-0.3-1.1c-1.9,0.6-3.8,1.4-5.7,2.3c-0.9,0.4-1.7,0.9-2.5,1.4c-0.8,0.6-1.6,1.4-2.1,2.3c-0.6,0.9-1,1.9-1.4,3
		C419.7,49.8,420.8,50.1,421.1,49.4L421.1,49.4z"/>
	<path class="st1" d="M419.1,31.6c0.3-0.2,0.6-0.4,1-0.4c0.5,0,0.9,0.2,1.1,0.6c0.4,0.7,0.4,1.9,0.1,2.7c-0.2,0.8-0.6,1.5-1.2,2
		c-0.3,0.3-0.8,0.4-1.2,0.3l-0.1,0c-0.1,0.4-0.2,0.7-0.4,1.1c-0.3,0.8-1.8,3.4-3.8,4.6c0-0.1,0,0,0,0c0.1,0.7,0.3,1.4,0.6,2
		c0.6,1,2.7,1.8,4.2,2.4l-2,1c-1.3,0.7-2.6,1.3-6.4,1.4c-3.2,0.1-5.2-0.4-8.2-1.8l-1.9-1.1c1.9-0.7,3.7-1.1,4.6-1.7
		c0.1-0.1,0.2-0.1,0.3-0.2c0-0.1,0.1-0.1,0.1-0.2c0.1-0.5,0.2-1.1,0.3-1.6c-1.1-0.5-2-1.3-2.7-2.2c-0.9-1.1-1.6-2.4-2-3.8
		c-0.5,0.1-0.9,0-1.3-0.3c-0.6-0.5-1-1.2-1.2-2c-0.3-0.8-0.3-2,0.1-2.7c0.2-0.4,0.7-0.7,1.2-0.6c0.4,0,0.7,0.1,1,0.4
		c0,0-2.4-7.6,8.8-7.6S419.1,31.6,419.1,31.6z"/>
	<path class="st1" d="M386.9,26.6c0.3-0.3,0.7-0.4,1.1-0.4c0.5,0,1,0.3,1.2,0.7c0.4,0.7,0.3,2,0,2.9c-0.2,0.8-0.7,1.5-1.4,2.1
		c-0.4,0.3-0.8,0.4-1.2,0.3l-0.1,0c-0.1,0.4-0.3,0.8-0.5,1.1c-0.6,1.2-1.3,2.3-2.3,3.2c-1.9,1.2-2.7,3.6-2.7,5.8
		c0,0.4,0,0.7-0.1,1.1c-4,1.4-8.1,0.6-11.3-2.3c0.9-0.3,1.9-0.7,1.9-0.7c0.7-0.2,0.9-0.8,1-1.4c0.1-0.4,0.2-0.7,0.2-1.1
		c-1-0.6-1.8-1.4-2.5-2.3c-0.9-1.2-1.6-2.6-2-4c-0.5,0.1-1-0.1-1.3-0.4c-0.6-0.6-1-1.3-1.2-2.1c-0.3-0.8-0.2-2.1,0.2-2.8
		c0.3-0.4,0.7-0.7,1.2-0.6c0.4,0,0.8,0.1,1,0.4c0,0-3.3-8.7,9.5-8.7S386.9,26.6,386.9,26.6z"/>
	<path class="st4" d="M386.1,31.3c-0.1,0.5-0.3,1-0.5,1.4c0,0.1-0.1,0.1-0.1,0.2c0,0.1-0.1,0.1-0.1,0.2c0-0.1,0-0.1,0,0
		c0,0.1-0.1,0.2-0.1,0.3c-0.3,0.6-0.7,1.1-1.1,1.7c-1,1.3-2.2,2.6-3.9,2.9c-0.7,0.1-0.4,1.2,0.3,1.1c1.8-0.4,3.3-1.9,4.4-3.3
		c1-1.2,1.7-2.6,2.1-4.2C387.4,30.9,386.3,30.6,386.1,31.3L386.1,31.3z"/>
	<path class="st1" d="M382.7,37.4c-1.1,1.3-1.6,3.2-1.6,4.9c0,0.9-0.1,1.8-0.1,2.6c-0.1,1.3,0.1,2.6,1,3.5c0.9,1,1.9,1.6,3.2,1.1
		c0.8-0.5,2-0.8,3-0.9c1.4-0.2,2.9,0.1,4.1,0.9c1.2-0.7,2.2-1.8,2.8-3.1c0.6-1.5,0.8-3.1,0.7-4.6c-0.3-4.5-4.4-6.3-8.5-6.1
		c-1.2,0-2.4,0.3-3.4,0.9C383.4,36.7,383,37,382.7,37.4z"/>
	<path class="st1" d="M370.8,79.3c-3.6-0.3-7.3-1-10.8-2c-2.3-0.7-3.8-2.6-4.7-4.3c-1-1.9-0.8-5.7-0.5-7.6c0.7-4.4,1.2-6.7,2-11.1
		c0.3-1.8,1-5.5,2.6-7.6c1.2-1.6,3.1-2.8,5.3-3.7c1.6-0.7,3.3-1.3,5-1.9c3.3,3,7.4,3.7,11.4,2.3c0,0.5-0.1,1-0.1,1.5
		c-0.1,1.3,0.1,2.6,1,3.5c0.8,0.9,1.7,1.4,2.8,1.2l0.3-0.1c-1.5,0.8-2.8,1.8-3.7,3.4c-0.4-0.8-0.8-1.6-1.4-2.3
		c0.3-0.5,0.3-1.1,0.2-1.6c-0.1-0.4-0.4-0.9-0.8-0.9c-0.4,0-0.7,0.3-0.9,0.5c-0.7-0.8-1.7-1.6-2.8-1.4c-1.2,0.1-2,1.4-2,2.6
		c0,1.4,1,2.6,2.2,3.2c-0.2,1.7,0.9,6,1.4,7.5c0.3,0.9,0.7,1.9,1.5,2.4c0.5,0.3,1,0.4,1.5,0.5l-0.1,0.4c-2.1,0.2-3.6,2.7-2.8,4.7
		l0.3,0.8c0,0.8,0.1,1.6,0.1,1.6c0.1,2.4-0.3,6.8-0.5,8.8C374.8,79.7,372.7,79.5,370.8,79.3z"/>
	<path class="st1" d="M420,77.7c-3.5,0-10.1,0-16.4,0c-8.1,0-15.7,0-15.7,0c0.7-6.3,2.6-22.5,2.6-22.5l5.3-5.1c0.9-1,2-1.8,3.1-2.5
		c0.7-0.4,1.4-0.7,2.1-0.9l1.9,1.1c3,1.4,5,1.8,8.2,1.8c3.8-0.1,5.1-0.7,6.4-1.4l2-1c1.6,0.6,3.2,1.4,4.7,2.3
		c1.4,0.9,2.4,2.1,3.1,3.6c0.5,1.2,0.9,2.4,1.2,3.6c0.7,2.6,1.5,5.2,2,7.9c0.4,2.4,0.8,5.5-0.2,7.7c-0.7,1.4-1.9,2.6-3.1,3.6
		C427.1,75.7,423.1,76.6,420,77.7z"/>
	<path class="st1" d="M419.2,62.5c0.2-0.2,0.6-0.3,0.9-0.3c0.3,0,0.6,0.2,0.7,0.5c0.1,0.2,0.1,0.4,0.2,0.6c0.1,0.8-0.1,1.6-0.4,2.3
		c-0.2,0.4-0.4,0.7-0.7,0.9c-0.3,0.2-0.6,0.3-1,0.2c-0.1,0.2-0.1,0.5-0.2,0.7c-0.2,0.6-1.6,2.9-3.4,3.7c0,0.1,0,0.2,0,0.3
		c0.1,0.5,0.2,1.1,1,1.5c0,0,1,0.5,1.1,0.5l0.3,0.1l-0.1,0.1c-0.8,1-2.6,1.8-4.5,1.9c-1.1,0.1-2.3,0-3.4-0.2c-1.1-0.2-2.2-0.7-3-1.5
		l-0.2-0.2l0.4-0.2c0.1,0,1-0.5,1.1-0.5c0.7-0.4,0.9-1,1-1.5c0,0,0-0.1,0-0.1c-0.9-0.4-1.8-1-2.4-1.8c-0.7-0.8-1.3-1.7-1.6-2.8
		c-0.3,0.2-0.8,0.2-1.1-0.1c-0.3-0.3-0.5-0.6-0.7-0.9c-0.4-0.7-0.5-1.5-0.4-2.3c0-0.2,0.1-0.4,0.2-0.6c0.2-0.3,0.4-0.4,0.7-0.5
		c0.3,0,0.6,0,0.9,0.3c0,0-1.8-6.6,6.6-6.6C419.4,56,419.2,62.5,419.2,62.5z"/>
	<path class="st6" d="M401.1,77.3c-0.5,0.9-1,1.9-1.3,2.9h25c-0.6-1.5-1.5-2.9-2.6-4.1c-0.9-1.1-2.7-2-4.5-2.7
		c-0.7,1.1-2.6,2-4.6,2.1c-1.1,0.1-2.3,0-3.4-0.2c-1.2-0.2-2.4-0.8-3.1-1.7c-1.7,0.7-3.7,1.6-4.5,2.5
		C401.7,76.5,401.3,76.9,401.1,77.3z"/>
	<path class="st6" d="M417.9,20.2c-0.6-0.6-1.2-1.1-1.9-1.5c-0.5-0.3-1-0.6-1.5-0.8c-1.3-0.6-2.8-0.8-4.3-0.8
		c-4.9-0.3-9.5,3.4-10.5,8c-0.3,1.2-0.2,3.2,0,4.2c0.1,0.6,0.2,1.1,0.4,1.7l0.1,0.2c0,0,0.1,0,0.1,0c0.3,0,0.7,0.1,0.9,0.3
		c0.9-1,1.9-1.5,3.5-2.1c0.2-0.1,0.3-0.1,0.5-0.2h0.2c0,0.2,0,0.4,0.2,0.5c0.2,0.1,0.4,0.1,0.7,0.1c0.8,0,1.6-0.2,2.3-0.6h1.3
		c-0.1,0.2,0,0.4,0.3,0.4c0.9,0.1,1.8-0.1,2.5-0.6c0.6-0.4,1-1,1.4-1.6c0.4-0.7,0.6-1.4,0.8-2.1h0.8c0.2,1.2,0.7,2.4,1.2,3.6
		c0.3,0.7,0.7,1.4,1.4,1.7l0.6,1.1c0.3-0.2,0.6-0.4,1-0.4c0.2,0,0.4,0,0.5,0.1c0.7-1.8,0.3-4.7,0-6.1c-0.2-0.7-0.4-1.5-0.7-2.2
		C419.4,22,418.7,21,417.9,20.2z"/>
	<path class="st7" d="M415.2,53.6c0.2-1.3,1.2-1.8,2.4-2c1.2-0.2,2.1,0.1,3,1c0.4,0.3,0.6,0.7,0.8,1.1c0.3,0.6,0.4,1.3,0.6,1.9
		c0.2,0.9,0.4,1.4,1,2.1c-1.1,0.3-2,0.4-2.9,0"/>
	<path class="st7" d="M405,62.8c-0.1,0-0.1-0.1-0.1-0.2c0.2-0.8,0.6-1.6,1.1-2.3c0.7-0.9,1.8-1.5,2.9-1.7c0.4,0.6,1,1.1,1.7,1.5
		c0.1,0.1,0.3,0.1,0.4,0.2h5c0.2,0.1,0.4,0.1,0.6,0.2c1,0.5,1.6,1.3,1.8,2.4l0,0.2l0.7-0.6c0.2-0.2,0.5-0.3,0.8-0.3
		c0.1-0.8,0.2-1.6,0.2-2.3c0-1.4-0.4-2.7-1.2-3.9c-0.3-0.5-0.7-0.9-1.1-1.3c-0.2-0.2-0.4-0.4-0.6-0.5c-0.4-0.3-0.9-0.7-1.4-0.9
		c-0.4-0.2-0.8-0.4-1.2-0.5c-0.9-0.3-1.9-0.5-2.9-0.5c-1.7,0-3.5,0.5-4.9,1.5c-2,1.4-3.3,3.7-3.4,6.2c0,0.8,0.1,1.6,0.2,2.4
		c0.2,0,0.5,0.1,0.7,0.3"/>
	<path class="st4" d="M369.3,41.5c1.6,1.5,3.6,2.5,5.8,2.9c2.1,0.4,4.4,0.2,6.4-0.6c0.7-0.3,0.4-1.3-0.3-1.1
		c-1.8,0.7-3.8,0.9-5.8,0.6c-2-0.4-3.8-1.3-5.3-2.6C369.6,40.2,368.8,41,369.3,41.5L369.3,41.5z"/>
	<path class="st7" d="M367,19.2c0.8-2.4,2.3-4.4,4.4-5.8c2-1.4,4.3-2,6.7-1.9c2.2,0,4.4,0.7,6.2,2l1.4,1.2c1.8,1.7,3.3,4.3,3.3,8
		c0,1.2-0.2,2.5-0.6,3.7c-0.1,0-0.3-0.1-0.4-0.1c-0.4,0-0.8,0.1-1.1,0.4l-1.4-1.2c-0.4-1.2-1.5-2.6-2.6-3.6
		c-0.5-0.5-1.1-0.8-1.7-1.1l-1.8-0.3c-1.3,0.5-3.1,1.5-4.1,2.1c-0.2,0.1-0.4,0-0.4-0.2c0-0.1,0-0.1,0-0.2c0-0.2,0-0.4,0-0.7
		c-0.1-0.3-0.3-0.4-0.4-0.3c-1.4,0.7-3.4,2.5-4.6,3.7l-1.5,1.2c-0.3-0.3-0.7-0.4-1-0.4c-0.2,0-0.3,0-0.5,0.1
		c-0.3-1.2-0.4-2.5-0.3-3.7C366.5,21,366.7,20.1,367,19.2z"/>
	<path class="st4" d="M368.7,25.6c-0.6-0.6-1.5-0.7-2.3-0.4c-0.6,0.3-1,0.8-1.2,1.4c-0.4,1.4-0.1,2.9,0.6,4.2
		c0.5,0.8,1.3,1.5,2.4,1.4c0.3,0,0.6-0.3,0.6-0.6c0-0.3-0.3-0.6-0.6-0.6c-0.8,0.1-1.3-0.6-1.6-1.2c-0.3-0.5-0.4-1.1-0.5-1.7
		c0-0.3,0-0.7,0.1-1c0-0.1,0.1-0.3,0.1-0.4c0-0.1,0.1-0.1,0.1-0.2c0,0,0.1-0.1,0,0c0.1-0.2,0.3-0.3,0.5-0.3c0.3-0.1,0.6,0,0.9,0.2
		C368.4,26.9,369.2,26.1,368.7,25.6L368.7,25.6z"/>
	<path class="st4" d="M387.3,27c0.2-0.2,0.6-0.2,0.8-0.2c0.1,0,0.2,0.1,0.3,0.1c0,0,0.1,0.1,0.1,0.1c0,0,0,0,0.1,0.1c0,0,0,0,0,0
		c0.3,0.5,0.3,1.2,0.2,1.7c-0.1,0.6-0.3,1.1-0.6,1.6c-0.3,0.5-0.9,1.3-1.5,1.2c-0.3-0.1-0.6,0.1-0.7,0.4c-0.1,0.3,0.1,0.6,0.4,0.7
		c1.7,0.3,2.8-1.4,3.3-2.8c0.4-1.2,0.5-3.1-0.7-3.9c-0.8-0.5-1.9-0.5-2.6,0.2c-0.2,0.2-0.2,0.6,0,0.8
		C386.8,27.2,387.1,27.2,387.3,27L387.3,27z"/>
	<path class="st4" d="M367.7,31c0.7,3.5,3.2,7.4,7,8.1c0.7,0.1,1-1,0.3-1.1c-3.4-0.6-5.6-4.1-6.2-7.3C368.6,30,367.5,30.3,367.7,31z
		"/>
	<path class="st4" d="M384.5,13c-3.3-2.3-7.6-2.8-11.3-1.2c-3.1,1.3-5.4,3.8-6.6,6.9c-0.8,2.2-0.9,4.7-0.4,7
		c0.2,0.7,1.3,0.4,1.1-0.3c-0.8-3.4,0-7.1,2.4-9.7c0.9-1,2-1.9,3.3-2.5c3.6-1.7,7.7-1.3,11,0.9C384.5,14.4,385.1,13.4,384.5,13
		L384.5,13z"/>
	<path class="st4" d="M389,26.3c0.7-2.3,0.7-4.8,0-7.2c-0.5-1.8-1.5-3.5-2.9-4.8c-0.5-0.5-1.3,0.3-0.8,0.8c1.2,1.2,2.1,2.7,2.6,4.3
		c0.6,2.1,0.6,4.4,0,6.6C387.7,26.7,388.8,27,389,26.3z"/>
	<path class="st4" d="M375.9,34.2c0.6,0.3,1.2,0.5,1.8,0.5c0.6,0.1,1.3-0.1,1.8-0.4c0.3-0.2,0.4-0.5,0.2-0.8
		c-0.2-0.3-0.5-0.4-0.8-0.2c-0.1,0-0.1,0.1-0.2,0.1c0,0,0,0-0.1,0c-0.1,0,0.1-0.1,0,0c-0.1,0-0.1,0-0.2,0.1c-0.1,0-0.1,0-0.2,0
		c0,0-0.1,0-0.1,0c-0.1,0-0.1,0,0,0c-0.2,0-0.4,0-0.6,0c-0.1,0-0.2,0-0.3,0c0,0-0.2,0-0.1,0c0,0-0.1,0-0.1,0c-0.1,0-0.3-0.1-0.4-0.1
		c-0.1,0-0.1,0-0.2-0.1c-0.1,0,0.1,0.1,0,0c0,0,0,0-0.1,0c-0.1,0-0.1-0.1-0.2-0.1c-0.3-0.2-0.6-0.1-0.8,0.2S375.6,34,375.9,34.2
		C375.9,34.2,375.9,34.2,375.9,34.2L375.9,34.2z"/>
	<path class="st4" d="M377.5,29.9c0.1,0.3,0.1,0.6,0.2,0.8l0-0.2c0,0.1,0,0.1,0,0.2l0-0.2c0,0.1,0,0.1,0,0.2l0-0.2c0,0,0,0,0,0.1
		l0.1-0.1c0,0,0,0,0,0l0.1-0.1c0,0,0,0,0,0l0.1-0.1c0,0-0.1,0-0.1,0l0.1-0.1c0,0-0.1,0-0.1,0l0.2,0c0,0-0.1,0-0.1,0l0.2,0
		c0,0-0.1,0-0.1,0c-0.1,0-0.3,0-0.4,0.1c-0.3,0.2-0.4,0.5-0.2,0.8c0,0,0,0,0,0c0.1,0.1,0.2,0.2,0.3,0.3c0.1,0,0.2,0,0.3,0.1
		c0.2,0,0.4,0,0.5-0.1c0.2-0.1,0.3-0.3,0.4-0.5c0-0.2,0-0.3,0-0.5l0,0.2c0-0.3-0.1-0.7-0.2-1c-0.1-0.3-0.4-0.5-0.7-0.4
		C377.6,29.3,377.5,29.6,377.5,29.9L377.5,29.9L377.5,29.9z"/>
	<path class="st4" d="M372.8,27.1c-0.2,0.5-0.1,1.7,0.8,1.8c1.3,0,1.4-1.4,1-2C374.3,26.3,373.3,26,372.8,27.1z"/>
	<path class="st4" d="M382.9,27.4c0.1,0.5,0,1.7-1,1.7c-1.3,0-1.3-1.4-0.8-2.1C381.5,26.5,382.5,26.3,382.9,27.4z"/>
	<path class="st4" d="M381,21.2c0.9,0.4,1.7,1.1,2.3,1.8c0.7,0.7,1.3,1.6,1.6,2.5c0.1,0.3,0.4,0.5,0.7,0.4c0.3-0.1,0.5-0.4,0.4-0.7
		c-0.4-1.1-1.1-2.1-1.9-3c-0.7-0.9-1.6-1.6-2.6-2.1c-0.3-0.1-0.6-0.1-0.8,0.2C380.6,20.7,380.7,21,381,21.2L381,21.2z"/>
	<path class="st4" d="M370.2,25.2c0.7-0.8,1.5-1.5,2.4-2.2c0.4-0.3,0.8-0.6,1.2-0.9c0.2-0.1,0.4-0.3,0.6-0.4c0,0,0.1-0.1,0.1-0.1
		c-0.3-0.2-0.4-0.2-0.3-0.1c0,0.1,0,0.2,0,0.4c0,0.6,0.3,1.2,0.9,1.1c0.4,0,1-0.4,1.3-0.6c1-0.6,1.9-1,3-1.5
		c0.3-0.1,0.5-0.4,0.4-0.7c-0.1-0.3-0.4-0.5-0.7-0.4c-1.1,0.4-2.1,1-3.1,1.5c-0.2,0.1-0.5,0.3-0.7,0.4c0,0-0.3,0.1-0.3,0.2
		c0.1,0,0.3,0,0.3,0.1c0-0.1,0-0.1,0-0.2c0-0.6-0.2-1.3-0.8-1.4c-0.5-0.1-1,0.3-1.3,0.6c-0.5,0.3-0.9,0.7-1.4,1
		c-0.9,0.7-1.7,1.5-2.5,2.3C368.9,24.9,369.7,25.7,370.2,25.2L370.2,25.2z"/>
	<path class="st4" d="M369.9,41.6c0.5-0.2,0.9-0.4,1.4-0.5c0.3-0.1,0.6-0.2,0.9-0.4c1-0.5,1.2-1.8,1.3-2.8c0-0.3-0.3-0.6-0.6-0.6
		c-0.3,0-0.6,0.3-0.6,0.6c0,0.1,0,0.1,0,0c0,0,0,0.1,0,0.1c0,0.1,0,0.1,0,0.2c0,0.1-0.1,0.3-0.1,0.4c0,0.2-0.1,0.4-0.2,0.6
		c0,0,0,0.1,0,0.1c0-0.1,0-0.1,0,0c0,0,0,0.1-0.1,0.1c0,0,0,0.1-0.1,0.1c-0.1,0.1,0.1,0,0,0c0,0-0.1,0.1-0.1,0.1c0,0,0,0-0.1,0.1
		c0.1,0,0.1,0,0,0c0,0-0.1,0-0.1,0.1c0,0-0.2,0.1-0.1,0.1c0.1,0,0,0,0,0c0,0-0.1,0-0.1,0.1c-0.2,0.1-0.3,0.1-0.5,0.2
		c-0.4,0.2-0.9,0.3-1.3,0.5c-0.3,0.1-0.5,0.4-0.4,0.7C369.2,41.5,369.6,41.7,369.9,41.6L369.9,41.6z"/>
	<path class="st4" d="M369.4,40.5c-2.2,0.8-4.4,1.6-6.4,2.6c-1.8,1-3.5,2.2-4.6,4c-1,1.8-1.5,3.8-1.9,5.8c-0.4,2.1-0.8,4.2-1.2,6.2
		c-0.4,2.2-0.9,4.5-1.1,6.7c-0.3,1.9-0.2,3.9,0.2,5.9c0.5,1.9,1.6,3.7,3.2,4.9c1.3,1,2.8,1.4,4.4,1.8c4.2,1,8.4,1.6,12.7,1.8
		c0.7,0,1.4,0.1,2,0.1c0.7,0,0.7-1.1,0-1.1c-4.4-0.1-8.9-0.6-13.2-1.5c-1.3-0.2-2.5-0.6-3.7-1c-1.8-0.7-3.2-2.3-4-4.1
		c-0.3-0.8-0.5-1.7-0.5-2.6c-0.1-1-0.1-1.9,0-2.9c0.1-2,0.6-4.1,0.9-6.1c0.4-2.2,0.8-4.4,1.2-6.5c0.3-1.8,0.7-3.5,1.3-5.2
		c0.3-0.9,0.8-1.7,1.4-2.5c0.6-0.7,1.4-1.3,2.2-1.9c1.8-1.2,3.9-2,5.9-2.7c0.5-0.2,1-0.4,1.6-0.6C370.4,41.3,370.1,40.2,369.4,40.5
		L369.4,40.5z"/>
	<path class="st4" d="M365.5,56.7c-0.4,3.4-1,6.7-1.6,10.1c-0.1,0.3,0.1,0.6,0.4,0.7c0.3,0.1,0.6-0.1,0.7-0.4
		c0.6-3.5,1.2-6.9,1.6-10.4c0-0.3-0.3-0.6-0.6-0.6C365.7,56.1,365.5,56.4,365.5,56.7L365.5,56.7z"/>
	<path class="st4" d="M408.4,71.3c0,0,0-0.2,0-0.1C408.4,71.2,408.4,71.2,408.4,71.3C408.4,71.3,408.4,71.3,408.4,71.3
		c0,0.1,0,0.1,0,0.2c0,0.1-0.1,0.2-0.1,0.3c0,0-0.1,0.1,0,0c0-0.1,0,0,0,0c0,0.1-0.1,0.1-0.1,0.2c0,0,0,0.1-0.1,0.1
		c-0.1,0.1,0.1-0.1,0,0c0,0.1-0.1,0.1-0.1,0.2c0,0-0.1,0-0.1,0.1c0,0,0.1,0,0,0c0,0,0,0,0,0c0,0-0.1,0-0.1,0.1c-0.1,0.1,0.1,0,0.1,0
		c-0.1,0-0.2,0.1-0.3,0.1c-0.2,0.1-0.3,0.2-0.5,0.2c-0.1,0.1-0.3,0.1-0.4,0.2c-0.1,0.1-0.2,0.2-0.3,0.3c0,0.1,0,0.3,0.1,0.4
		c0.1,0.1,0.2,0.2,0.3,0.3c0.1,0,0.3,0,0.4-0.1c0.3-0.1,0.6-0.3,0.9-0.4c0,0,0.1,0,0.1,0c0.1,0-0.1,0.1-0.1,0c0.1,0,0.2-0.1,0.3-0.2
		c0.1-0.1,0.2-0.1,0.3-0.2c0.3-0.2,0.5-0.5,0.6-0.9c0.1-0.1,0.1-0.3,0.1-0.4c0.1-0.2,0.1-0.4,0.1-0.5c0-0.3-0.3-0.6-0.6-0.6
		C408.7,70.7,408.4,71,408.4,71.3L408.4,71.3z"/>
	<path class="st4" d="M414.7,71.1c0.1,0.7,0.2,1.3,0.7,1.8c0.1,0.1,0.3,0.3,0.4,0.4c0.1,0.1,0.2,0.1,0.3,0.1c0,0-0.2-0.1-0.1,0l0,0
		c0.2,0.1,0.3,0.2,0.5,0.2c0.2,0.1,0.3,0.1,0.5,0.2c0.1,0.1,0.3,0.1,0.4,0.1c0.3-0.1,0.5-0.4,0.4-0.7c0-0.1-0.1-0.3-0.3-0.3
		c-0.3-0.1-0.6-0.3-0.9-0.4c0,0-0.1,0-0.1-0.1c0,0-0.1,0-0.1-0.1c0,0,0.1,0.1,0.1,0c0,0,0,0,0,0c0,0-0.1,0-0.1-0.1
		c-0.1-0.1,0.1,0.1,0,0c-0.1,0-0.1-0.1-0.2-0.1c0,0,0,0-0.1-0.1c0,0,0.1,0.1,0,0.1c0,0,0,0,0,0c0-0.1-0.1-0.1-0.1-0.2
		c0,0,0-0.1,0-0.1c0-0.1,0,0.1,0,0c0-0.1-0.1-0.3-0.1-0.4c0-0.1,0-0.1,0-0.2c0,0,0-0.1,0-0.1c0,0,0-0.2,0,0c0-0.1-0.1-0.3-0.2-0.4
		c-0.2-0.2-0.6-0.2-0.8,0c0,0,0,0,0,0C414.7,70.8,414.7,71,414.7,71.1L414.7,71.1z"/>
	<path class="st4" d="M415.9,53.2c0.4-0.8,1.2-1.1,2-1.1c0.9,0,1.7,0.3,2.3,0.9c0.7,0.7,1,1.7,1.2,2.6c0.2,0.9,0.5,1.8,1.2,2.5
		l0.3-0.9c-0.9,0.3-1.7,0.4-2.6,0c-0.3-0.1-0.6,0.1-0.7,0.4c-0.1,0.3,0.1,0.6,0.4,0.7c1,0.4,2.1,0.3,3.2,0c0.3-0.1,0.5-0.4,0.4-0.7
		c0-0.1-0.1-0.2-0.1-0.2c-0.8-0.8-0.8-1.8-1.1-2.8c-0.1-0.6-0.4-1.1-0.7-1.6c-0.3-0.4-0.7-0.8-1.2-1.1c-0.9-0.6-1.9-0.9-3-0.7
		c-1,0.2-2,0.6-2.5,1.6C414.6,53.3,415.5,53.9,415.9,53.2L415.9,53.2z"/>
	<path class="st4" d="M419.6,62.9c0.1-0.1,0.3-0.1,0.4-0.1c0.1,0,0.3,0.1,0.3,0.2c0.1,0.2,0.1,0.4,0.1,0.6c0,0.2,0,0.5,0,0.7
		c-0.1,0.5-0.3,0.9-0.5,1.4c-0.1,0.2-0.2,0.3-0.4,0.5c0,0-0.1,0-0.1,0.1c-0.1,0.1,0,0-0.1,0c-0.1,0-0.1,0-0.2,0
		c-0.7-0.2-1,0.9-0.3,1.1c0.8,0.2,1.5-0.3,1.9-1c0.4-0.6,0.7-1.4,0.8-2.1c0.1-0.7,0.1-1.6-0.5-2.1c-0.6-0.6-1.6-0.6-2.2,0
		c-0.2,0.2-0.2,0.6,0,0.8C419,63.1,419.4,63.1,419.6,62.9L419.6,62.9z"/>
	<path class="st4" d="M404.9,62.2c-0.6-0.6-1.6-0.6-2.2,0c-0.6,0.5-0.6,1.4-0.5,2.1c0.1,0.8,0.3,1.5,0.8,2.1c0.5,0.6,1.1,1.2,1.9,1
		c0.7-0.2,0.4-1.3-0.3-1.1c-0.2,0.1,0,0-0.1,0c-0.1,0,0,0-0.1,0c-0.1,0,0,0-0.1,0c0,0-0.1-0.1-0.1-0.1c-0.2-0.1-0.3-0.3-0.4-0.5
		c-0.3-0.4-0.4-0.9-0.5-1.4c0-0.2-0.1-0.4-0.1-0.7c0-0.2,0-0.4,0.1-0.6c0.1-0.1,0.2-0.2,0.3-0.2c0.1,0,0.3,0,0.4,0.1
		c0.2,0.2,0.6,0.2,0.8,0C405.1,62.7,405.1,62.4,404.9,62.2L404.9,62.2z"/>
	<path class="st4" d="M418.4,66.2c0,0.2-0.1,0.4-0.1,0.7c-0.1,0.1-0.1,0.3-0.2,0.4c0,0.1,0.1-0.1,0,0c0,0,0,0.1-0.1,0.1
		c0,0.1-0.1,0.2-0.1,0.2c-0.2,0.4-0.5,0.8-0.8,1.2c-0.4,0.5-0.8,0.9-1.3,1.3c-0.4,0.4-0.9,0.6-1.5,0.7c-0.3,0.1-0.5,0.4-0.4,0.7
		c0.1,0.3,0.4,0.5,0.7,0.4l0,0c1.3-0.3,2.4-1.3,3.3-2.4c0.7-0.9,1.4-1.9,1.5-3.1c0.1-0.3-0.1-0.6-0.4-0.7
		C418.8,65.7,418.5,65.9,418.4,66.2L418.4,66.2z"/>
	<path class="st4" d="M404.2,66.3c0.4,1.4,1.1,2.7,2.1,3.7c1,1,2.3,1.9,3.7,2.1c0.3,0.1,0.6-0.1,0.7-0.4c0.1-0.3-0.1-0.6-0.4-0.7
		c-2.5-0.4-4.4-2.7-5-5C405.1,65.3,404.1,65.6,404.2,66.3L404.2,66.3z"/>
	<path class="st4" d="M420.6,62.4c0.4-2.3,0.1-4.7-1.1-6.6c-1.2-1.9-3.1-3.2-5.2-3.8c-3.9-1-8.2,0.6-10.2,4.1
		c-1.1,1.9-1.2,4.1-0.9,6.3c0.1,0.3,0.4,0.5,0.7,0.4c0.3-0.1,0.5-0.4,0.4-0.7c-0.3-1.6-0.2-3.3,0.5-4.8c0.6-1.3,1.6-2.4,2.8-3.2
		c3.3-2.2,8-1.4,10.5,1.6c1.5,1.8,1.8,4.2,1.4,6.4c-0.1,0.3,0.1,0.6,0.4,0.7C420.2,62.8,420.5,62.7,420.6,62.4L420.6,62.4z"/>
	<path class="st4" d="M425.2,79.8c-0.7-1.6-1.6-3-2.7-4.2c-1.1-1.2-2.8-2-4.3-2.6c-0.3-0.1-0.6,0.1-0.7,0.4
		c-0.1,0.3,0.1,0.6,0.4,0.7c1.4,0.5,2.8,1.2,3.8,2.3c1,1.2,1.9,2.5,2.5,3.9c0.2,0.3,0.5,0.4,0.8,0.2
		C425.3,80.4,425.4,80.1,425.2,79.8L425.2,79.8z"/>
	<path class="st4" d="M400.3,80.4c0.5-1.5,1.1-3.1,2.3-4.1c0.6-0.5,1.3-0.9,2-1.2c0.8-0.4,1.6-0.7,2.4-1c0.3-0.1,0.5-0.4,0.4-0.7
		c-0.1-0.3-0.4-0.5-0.7-0.4c-0.9,0.3-1.8,0.7-2.7,1.1c-0.8,0.4-1.6,0.8-2.2,1.4c-1.3,1.2-2.1,3-2.6,4.6
		C399,80.8,400.1,81.1,400.3,80.4L400.3,80.4z"/>
	<path class="st4" d="M410.5,68.4c0.9,0.7,2.2,0.7,3.1,0c0.2-0.2,0.2-0.6,0-0.8s-0.6-0.2-0.8,0c0,0-0.1,0.1,0,0s0,0,0,0
		c0,0-0.1,0-0.1,0.1c0,0-0.1,0-0.1,0c0,0,0.2-0.1,0.1,0c-0.1,0-0.2,0.1-0.3,0.1c0,0,0,0-0.1,0c0,0,0,0,0.1,0c0,0-0.1,0-0.1,0
		c-0.1,0-0.1,0-0.2,0c-0.1,0-0.1,0-0.2,0c0,0-0.1,0-0.1,0c0,0,0.1,0,0,0c-0.1,0-0.2,0-0.3-0.1c0,0-0.1-0.1,0,0c0,0,0,0-0.1,0
		c0,0-0.1,0-0.1-0.1c0,0,0,0-0.1,0c0.2,0.1,0.1,0.1,0,0c-0.2-0.2-0.6-0.2-0.8,0C410.3,67.8,410.3,68.1,410.5,68.4L410.5,68.4z"/>
	<path class="st4" d="M412,65.4C411.9,65.4,411.9,65.5,412,65.4L412,65.4C412,65.4,412,65.4,412,65.4l0.2,0c0,0,0,0-0.1,0l0.2,0
		c0,0,0,0,0,0C412.1,65.4,412,65.4,412,65.4c-0.3,0-0.5,0.2-0.5,0.5l0,0.2c0,0.1,0.1,0.2,0.1,0.3l0.1,0.1c0.1,0.1,0.2,0.1,0.3,0.1h0
		l-0.2,0c0,0,0,0,0.1,0c0.1,0,0.1,0,0.2,0c0,0,0,0,0,0c0,0,0,0,0,0c0.1,0,0.1,0,0.2,0h0c0,0,0,0,0,0c0,0,0,0,0,0
		c0.1,0,0.1,0,0.2-0.1c0.2-0.1,0.3-0.3,0.3-0.6c0-0.1,0-0.1-0.1-0.2l-0.1-0.1c-0.1-0.1-0.2-0.1-0.3-0.1l-0.2,0
		C412.1,65.4,412,65.4,412,65.4L412,65.4z"/>
	<path class="st4" d="M408.2,63.2c-0.1,0.4,0,1.3,0.7,1.3c1,0,1-1.1,0.7-1.6C409.3,62.6,408.5,62.4,408.2,63.2z"/>
	<path class="st4" d="M415.8,63.2c0.1,0.4,0,1.3-0.7,1.3c-1,0-1-1.1-0.7-1.6C414.7,62.6,415.5,62.4,415.8,63.2z"/>
	<path class="st4" d="M407.9,58.3c-1,0.4-1.9,1.1-2.6,2c-0.3,0.5-0.6,1-0.8,1.5c-0.1,0.2-0.2,0.5-0.2,0.7c-0.1,0.4,0.2,0.9,0.6,0.8
		c0.3,0,0.6-0.3,0.6-0.6c0-0.3-0.3-0.6-0.6-0.6l0,0l0.3,0.1l0,0l0.2,0.2c0,0.1,0,0.4,0.1,0.2c0-0.1,0-0.1,0-0.2
		c0-0.1,0.1-0.2,0.1-0.3c0.1-0.2,0.1-0.3,0.2-0.5c0.2-0.4,0.4-0.7,0.6-1c0.5-0.6,1.1-1.1,1.8-1.3c0.3-0.1,0.5-0.4,0.4-0.7
		C408.5,58.4,408.2,58.2,407.9,58.3L407.9,58.3z"/>
	<path class="st4" d="M407.8,57.3c0.1,0.8,0.5,1.6,1.1,2.2c0.3,0.3,0.6,0.6,0.9,0.8c0.4,0.3,0.8,0.5,1.3,0.6c0.3,0,0.6-0.3,0.6-0.6
		c0-0.3-0.3-0.6-0.6-0.6c0.1,0,0,0-0.1,0c0.1,0,0,0,0,0c-0.1,0-0.2-0.1-0.2-0.1c-0.1-0.1-0.3-0.2-0.4-0.3c-0.1,0,0.1,0.1,0,0
		c0,0-0.1-0.1-0.1-0.1c-0.1-0.1-0.1-0.1-0.2-0.2c-0.1-0.1-0.3-0.2-0.4-0.4c0,0-0.1-0.1-0.1-0.1c0,0-0.1-0.1,0,0
		c-0.1-0.1-0.1-0.1-0.2-0.2c-0.1-0.1-0.2-0.3-0.3-0.4c0,0,0-0.1-0.1-0.1c0-0.1,0,0,0,0c0-0.1-0.1-0.2-0.1-0.2
		c-0.1-0.2-0.1-0.3-0.1-0.5c-0.1-0.3-0.4-0.5-0.7-0.4C407.9,56.7,407.7,57,407.8,57.3L407.8,57.3z"/>
	<path class="st4" d="M411.7,57.5c0.4,0.8,0.9,1.5,1.4,2.1c0.6,0.5,1.3,0.9,2,1.1c0.7,0.2,1.4,0.3,1.9,0.8c0.5,0.4,0.8,1,0.9,1.6
		c0.1,0.7,1.2,0.4,1.1-0.3c-0.3-1.5-1.4-2.6-2.9-3c-0.7-0.2-1.5-0.3-2.1-0.8c-0.6-0.6-1.1-1.3-1.4-2
		C412.4,56.3,411.4,56.9,411.7,57.5L411.7,57.5z"/>
	<path class="st4" d="M406.3,74.2c1.5,1.6,3.9,2,6.1,2c1.9,0,4.3-0.6,5.6-2.1c0.5-0.6-0.3-1.4-0.8-0.8c-1.1,1.3-3.1,1.8-4.8,1.8
		c-1.8,0-3.9-0.2-5.2-1.6C406.6,72.9,405.8,73.7,406.3,74.2L406.3,74.2z"/>
	<path class="st4" d="M419.5,32c0.2-0.2,0.5-0.2,0.8-0.2c0.1,0,0.2,0.1,0.3,0.2c-0.1,0,0.2,0.2,0.1,0.1c0.3,0.5,0.3,1.1,0.3,1.6
		c-0.1,0.6-0.2,1.1-0.5,1.6c-0.3,0.6-0.8,1.2-1.5,1.1c-0.3,0-0.6,0.3-0.6,0.6c0,0.3,0.3,0.6,0.6,0.6c1.6,0.2,2.6-1.5,3-2.8
		c0.4-1.1,0.4-2.9-0.8-3.7c-0.8-0.5-1.8-0.4-2.5,0.2C418.1,31.7,418.9,32.5,419.5,32z"/>
	<path class="st4" d="M418.4,36.1c-0.1,0.5-0.2,0.9-0.4,1.3c-0.1,0.1-0.1,0.3-0.2,0.4c0,0.1,0.1-0.1,0,0c0,0,0,0.1-0.1,0.1
		c-0.3,0.6-0.6,1.1-1,1.6c-0.9,1.2-2.1,2.5-3.6,2.9c-0.7,0.2-0.4,1.3,0.3,1.1c1.8-0.4,3.1-1.9,4.2-3.3c0.9-1.2,1.5-2.5,1.9-4
		C419.7,35.7,418.6,35.4,418.4,36.1L418.4,36.1z"/>
	<path class="st4" d="M400.9,36.3c0.7,3.3,3.2,7,6.8,7.5c0.3,0.1,0.6-0.1,0.7-0.4c0.1-0.3-0.1-0.6-0.4-0.7c-3.2-0.5-5.4-3.8-6-6.7
		C401.8,35.3,400.7,35.6,400.9,36.3L400.9,36.3z"/>
	<path class="st4" d="M408.2,39.1c0.6,0.3,1.2,0.4,1.8,0.4c0.7,0,1.3-0.2,1.8-0.5c0.2-0.2,0.2-0.6,0-0.8c-0.2-0.2-0.6-0.2-0.8,0
		c0.2-0.1,0,0-0.1,0c-0.1,0-0.2,0.1,0,0c0,0-0.1,0-0.1,0.1c-0.1,0-0.1,0-0.2,0.1c0,0-0.2,0.1-0.2,0l0.1,0c0,0,0,0-0.1,0
		c0,0-0.1,0-0.1,0c-0.1,0-0.2,0-0.3,0c-0.1,0-0.2,0-0.3,0c0,0-0.1,0-0.1,0c-0.2,0,0.1,0,0,0c-0.1,0-0.3-0.1-0.4-0.1
		c-0.1,0-0.1,0-0.2-0.1c-0.1,0,0.1,0.1,0,0c-0.1,0-0.1-0.1-0.2-0.1c-0.3-0.2-0.6-0.1-0.8,0.2C407.8,38.6,407.9,38.9,408.2,39.1
		C408.1,39.1,408.2,39.1,408.2,39.1z"/>
	<path class="st4" d="M409.6,35c0.1,0.3,0.1,0.6,0.2,0.9l0-0.2c0,0,0,0.1,0,0.1l0-0.2c0,0,0,0,0,0.1l0.1-0.1c0,0,0,0,0,0l0.1-0.1
		c0,0,0,0,0,0l0.1-0.1c0,0,0,0-0.1,0l0.1-0.1c0,0-0.1,0-0.1,0l0.2,0c0,0-0.1,0-0.1,0l0.2,0c0,0-0.1,0-0.1,0c-0.1,0-0.3,0-0.4,0.1
		c-0.3,0.2-0.4,0.5-0.2,0.8c0,0,0,0,0,0c0.1,0.1,0.2,0.2,0.3,0.3c0.1,0,0.2,0,0.3,0c0.2,0,0.3,0,0.5-0.1c0.2-0.1,0.3-0.3,0.4-0.5
		c0-0.2,0-0.3,0-0.5c0-0.3-0.1-0.6-0.2-0.8c0-0.1-0.1-0.3-0.3-0.3c-0.3-0.2-0.6-0.1-0.8,0.2C409.6,34.7,409.6,34.8,409.6,35
		L409.6,35z"/>
	<path class="st4" d="M405.1,32.4c-0.1,0.5-0.1,1.6,0.8,1.7c1.2,0,1.3-1.3,0.9-1.9C406.5,31.6,405.5,31.4,405.1,32.4z"/>
	<path class="st4" d="M414.7,32.5c0.1,0.5,0,1.6-0.9,1.7c-1.2,0-1.2-1.3-0.8-2C413.3,31.7,414.3,31.5,414.7,32.5z"/>
	<path class="st4" d="M416.7,18.5c-1.8-1.3-4-1.9-6.2-1.9c-0.9,0-1.8,0-2.7,0.2c-0.9,0.2-1.7,0.4-2.5,0.8c-3.1,1.4-5.7,4.4-6.2,7.8
		c-0.1,1-0.2,2-0.1,3.1c0,1,0.2,2,0.6,2.9c0.2,0.3,0.5,0.4,0.8,0.2c0.3-0.2,0.4-0.5,0.2-0.8c-0.3-0.7-0.4-1.5-0.4-2.2
		c-0.1-0.8-0.1-1.7,0-2.5c0.2-1.5,0.8-3,1.7-4.2c1.8-2.5,4.9-4.1,7.9-4.1c1.1,0,2.1,0.1,3.2,0.3c1.1,0.3,2.2,0.8,3.1,1.5
		C416.7,19.9,417.3,18.9,416.7,18.5L416.7,18.5z"/>
	<path class="st4" d="M421.1,31.6c0.8-1.8,0.5-4.1,0.2-6c-0.4-2.3-1.5-4.4-3.2-5.9c-0.5-0.5-1.3,0.3-0.8,0.8
		c1.5,1.4,2.6,3.3,2.9,5.4c0.3,1.7,0.5,3.7-0.2,5.4c-0.1,0.3,0.1,0.6,0.4,0.7C420.7,32.1,421,31.9,421.1,31.6L421.1,31.6z"/>
	<path class="st4" d="M415.3,25.3c0.2,1.2,0.6,2.4,1.1,3.5c0.4,1,0.9,1.9,1.9,2.3c0.3,0.1,0.6-0.1,0.7-0.4c0.1-0.3-0.1-0.6-0.4-0.7
		c-0.3-0.2-0.5-0.4-0.7-0.7c-0.2-0.4-0.4-0.8-0.6-1.2c-0.4-0.9-0.8-1.9-0.9-2.8c0-0.3-0.3-0.6-0.6-0.6
		C415.5,24.7,415.3,25,415.3,25.3L415.3,25.3z"/>
	<path class="st4" d="M396.2,50.4c0.9-1,2-1.8,3.1-2.5c1.1-0.6,2.3-1,3.5-1.3c0.7-0.2,0.4-1.3-0.3-1.1c-1.3,0.4-2.6,0.8-3.8,1.4
		c-1.3,0.7-2.4,1.6-3.4,2.7C394.9,50.2,395.7,51,396.2,50.4z"/>
	<path class="st4" d="M401.8,31.1c-0.6-0.6-1.5-0.7-2.3-0.3c-0.5,0.3-0.9,0.8-1,1.3c-0.3,1.4-0.1,2.8,0.7,4c0.5,0.8,1.3,1.4,2.3,1.3
		c0.3,0,0.6-0.3,0.6-0.6c0-0.3-0.3-0.6-0.6-0.6c-0.7,0.1-1.2-0.5-1.5-1.1c-0.3-0.5-0.4-1-0.5-1.6c0-0.5,0-1.2,0.3-1.6
		c-0.1,0.1,0,0,0,0c0,0,0.1-0.1,0.1-0.1c0.1-0.1,0.2-0.1,0.3-0.1c0.3-0.1,0.6,0,0.8,0.2C401.5,32.4,402.3,31.6,401.8,31.1
		L401.8,31.1z"/>
	<path class="st4" d="M419.3,47.6c1.1,0.4,2.1,0.9,3.2,1.4c1,0.5,1.8,1,2.6,1.8c1.6,1.5,2.2,3.7,2.8,5.7c0.6,2.3,1.3,4.6,1.8,7
		c0.4,2,0.8,4.2,0.6,6.2c-0.1,1.1-0.4,2.2-1,3.1c-0.7,1-1.6,1.8-2.5,2.6c-0.6,0.5,0.2,1.3,0.8,0.8c1.7-1.4,3.3-3.1,3.7-5.3
		c0.4-2.2,0.1-4.4-0.3-6.5c-0.4-2.5-1.1-5-1.8-7.4c-0.6-2.3-1.2-4.6-2.8-6.4c-0.8-0.9-1.8-1.7-2.9-2.2c-1.2-0.7-2.5-1.2-3.8-1.7
		C418.9,46.3,418.6,47.3,419.3,47.6L419.3,47.6z"/>
	<path class="st4" d="M422.9,68.4c0.5-0.1,1.1-0.2,1.6-0.1c0.2,0,0.5,0.1,0.7,0.1c0.3,0.1,0.6,0.2,0.8,0.3c0.3,0.1,0.6-0.1,0.7-0.4
		c0.1-0.3-0.1-0.6-0.4-0.7c-1.2-0.5-2.5-0.6-3.8-0.3c-0.3,0.1-0.5,0.4-0.4,0.7C422.3,68.3,422.6,68.5,422.9,68.4L422.9,68.4z"/>
	<path class="st4" d="M414.1,42.7c0.1,0.7,0.3,1.4,0.6,2.1c0.3,0.5,0.7,0.9,1.2,1.2c1.1,0.7,2.3,1.1,3.4,1.6
		c0.3,0.1,0.6-0.1,0.7-0.4c0.1-0.3-0.1-0.6-0.4-0.7c-1.1-0.4-2.1-0.9-3.1-1.4c-0.2-0.1-0.4-0.2-0.5-0.4c-0.1-0.1-0.1-0.1-0.2-0.2
		c-0.1-0.1,0,0,0,0c0-0.1-0.1-0.1-0.1-0.2c-0.3-0.6-0.5-1.2-0.5-1.9c-0.1-0.3-0.4-0.5-0.7-0.4C414.2,42.1,414,42.4,414.1,42.7
		L414.1,42.7z"/>
	<path class="st4" d="M402.9,46.6c0.9-0.3,1.8-0.6,2.6-1c0.4-0.2,0.9-0.4,1-0.9c0.1-0.2,0.1-0.5,0.1-0.7l0.1-0.8
		c0.1-0.3-0.1-0.6-0.4-0.7c-0.3-0.1-0.6,0.1-0.7,0.4c-0.1,0.5-0.2,0.9-0.2,1.4c0,0,0,0.1,0,0.1c0,0,0.1-0.1,0.1-0.1
		c0,0-0.2,0.1-0.2,0.1c-0.1,0.1-0.3,0.2-0.4,0.2c-0.1,0-0.2,0.1-0.2,0.1c0,0-0.1,0,0,0c0,0-0.1,0-0.1,0.1c-0.2,0.1-0.4,0.1-0.6,0.2
		c-0.4,0.2-0.9,0.3-1.3,0.4c-0.3,0.1-0.5,0.4-0.4,0.7C402.3,46.5,402.6,46.7,402.9,46.6L402.9,46.6L402.9,46.6z"/>
	<path class="st4" d="M402.6,48.2c2.2,1,4.4,1.7,6.8,1.8c2.1,0.1,4.3,0,6.3-0.6c0.7-0.2,1.3-0.5,2-0.9c0.6-0.4,0.1-1.3-0.6-1
		c-1.1,0.6-2.3,1-3.6,1.2c-2.2,0.3-4.6,0.3-6.7-0.2c-1.2-0.3-2.4-0.8-3.6-1.3C402.5,46.9,402,47.9,402.6,48.2L402.6,48.2z"/>
	<path class="st4" d="M398.8,68.7c0.4,1.7,1,3.4,1.6,5.1c0.1,0.3,0.4,0.5,0.7,0.4c0.3-0.1,0.5-0.4,0.4-0.7c-0.6-1.7-1.1-3.4-1.6-5.1
		C399.7,67.7,398.6,68,398.8,68.7L398.8,68.7z"/>
	<path class="st4" d="M409.5,29c-0.1,0.4,0,0.8,0.4,1c0.3,0.1,0.6,0.2,0.9,0.2c0.8,0,1.6-0.3,2.3-0.7c1.1-0.7,1.9-2,2.3-3.2
		c0.2-0.8,0.4-1.6,0.4-2.4c0-0.7-1.1-0.7-1.1,0c-0.1,1.3-0.3,2.4-1,3.5c-0.4,0.6-0.9,1.1-1.6,1.4c-0.3,0.1-0.7,0.2-1,0.2
		c-0.1,0-0.3,0-0.4,0c0,0-0.1,0-0.1,0c0,0,0.2,0.2,0.2,0.3C410.8,28.6,409.7,28.3,409.5,29L409.5,29z"/>
	<path class="st4" d="M405,29.1c-0.1,1.2,1.4,1.2,2.2,1.1c1-0.1,2-0.5,2.7-1.2c0.7-0.7,1.3-1.5,1.6-2.4c0.3-0.9,0.5-1.8,0.6-2.7
		c0-0.3-0.3-0.6-0.6-0.6c-0.3,0-0.6,0.3-0.6,0.6c-0.1,0.7-0.2,1.4-0.4,2.1c-0.3,0.7-0.6,1.3-1.1,1.8c-0.5,0.6-1.1,1-1.9,1.2
		c-0.3,0.1-0.6,0.1-0.9,0.1c-0.2,0-0.3,0-0.5,0c-0.1,0-0.1,0-0.2,0c0.1-0.1,0.1,0.3,0.1,0c0-0.3-0.3-0.6-0.6-0.6
		C405.2,28.6,405,28.8,405,29.1z"/>
	<path class="st4" d="M402.7,31c1.1-0.8,2.5-1,3.6-1.9c1.1-0.9,1.7-2.1,2-3.5c0.2-0.7-0.9-1-1.1-0.3c-0.3,1.1-0.7,2.3-1.7,3
		c-0.5,0.3-1.1,0.6-1.7,0.8c-0.6,0.2-1.2,0.5-1.7,0.9c-0.3,0.2-0.4,0.5-0.2,0.8C402.1,31.1,402.4,31.2,402.7,31z"/>
	<path class="st1" d="M424,77.9l-0.4-0.4c-0.4,0.6-0.9,1.1-1.5,1.5c-0.2,0.1-0.4,0.2-0.6,0.2c-0.2,0-0.4-0.1-0.5-0.2
		c-0.3-0.3-0.4-0.6-0.4-1c-0.4,0.5-0.7,0.7-1.3,0.6c-0.2-0.1-0.4-0.2-0.5-0.3c-0.2-0.3-0.3-0.6-0.2-0.9c0,0,0.1-0.2,0.1-0.4
		c-0.3,0.2-0.8,0.1-1.1-0.1c-0.2-0.2-0.3-0.6-0.2-0.9c0.1-0.3,0.2-0.6,0.4-0.8l0.9-1.4l0.2-0.3l-0.7,0.4c-0.7,0.5-1.4-0.4-1.1-1.1
		c0.2-0.5,0.4-0.9,0.7-1.3c0.4-0.6,1.5-1.4,2.3-0.8l1.5-0.1c0.8-0.1,1.3,0.4,2,0.6c0.6,0.3,1.1,0.8,1.5,1.4c0.5,0.7,0.8,1.3,0.8,2
		C425.7,76,425.1,77.2,424,77.9"/>
	<path class="st4" d="M420.3,70.4c-1-0.6-2.2,0-2.8,0.8c-0.4,0.5-0.6,1-0.8,1.5c-0.2,0.5-0.2,1.1,0.1,1.5c0.4,0.6,1.2,0.8,1.8,0.4
		c0.3-0.2,0.4-0.5,0.2-0.8c-0.2-0.3-0.5-0.4-0.8-0.2l0,0c0,0-0.1,0-0.1,0c0.1,0,0.1,0,0,0c0,0-0.1,0-0.1,0c0.1,0,0.1,0,0,0
		c0,0-0.1,0-0.1,0c0.1,0,0.1,0,0,0c-0.1-0.1,0,0,0,0c0,0,0,0-0.1,0c0.1,0.1,0.1,0.1,0,0c0,0,0,0-0.1-0.1c0,0.1,0.1,0.1,0,0
		c0,0-0.1-0.1-0.1-0.1c0,0.1,0,0.1,0,0l0,0c0,0,0-0.1,0-0.1c0,0.1,0,0.1,0,0c0,0,0-0.1,0-0.1c0-0.1,0-0.1,0,0c0-0.1,0.1-0.3,0.1-0.3
		c0-0.1,0-0.1,0.1-0.2c0,0.1,0-0.1,0-0.1c0.1-0.1,0.1-0.2,0.2-0.4c0.1-0.1,0.1-0.2,0.2-0.3c0-0.1,0-0.1,0,0c0,0,0,0,0-0.1
		c0,0,0.1-0.1,0.1-0.1c0.1-0.1,0.2-0.2,0.3-0.2c0,0,0,0,0,0c0,0,0,0,0.1-0.1c0,0,0.1-0.1,0.1-0.1c0,0,0.1-0.1,0.1-0.1
		c0,0,0.2-0.1,0.1,0c0.1-0.1,0.2-0.1,0.3-0.1c-0.2,0,0,0,0.1,0c0,0,0.1,0,0.1,0c-0.1,0-0.1,0,0,0c0,0,0.2,0.1,0.1,0
		c0.1,0,0.1,0.1,0.2,0.1c0.3,0.2,0.6,0.1,0.8-0.2C420.7,70.9,420.6,70.5,420.3,70.4L420.3,70.4z"/>
	<path class="st4" d="M419,72.4l-1.3,2c-0.4,0.6-0.9,1.3-0.9,2.1c0,0.7,0.7,1.3,1.4,1.3c0,0,0,0,0.1,0c0.7-0.1,1.2-0.6,1.7-1.1
		c0.5-0.6,1-1.3,1.4-1.9c0.2-0.3,0.1-0.6-0.2-0.8c-0.3-0.2-0.6-0.1-0.8,0.2l0,0c-0.4,0.6-0.8,1.2-1.2,1.7c-0.2,0.2-0.4,0.5-0.7,0.6
		c0,0-0.2,0.1-0.1,0.1c0,0-0.1,0-0.1,0c-0.1,0-0.1,0,0,0c-0.1,0-0.1,0-0.2,0c-0.1,0-0.1,0-0.1-0.1c0-0.1,0-0.1,0,0c0,0,0-0.1,0-0.1
		c0,0,0,0,0,0c0,0,0-0.1,0-0.1c0.2-0.3,0.3-0.7,0.6-1L420,73c0.2-0.3,0.1-0.6-0.2-0.8C419.5,72.1,419.2,72.2,419,72.4L419,72.4z"/>
	<path class="st4" d="M418,77.4c-0.2,0.8,0.3,1.7,1.1,1.9c0.4,0.1,0.8,0.1,1.1-0.1c0.4-0.2,0.7-0.5,1-0.8c0.3-0.3,0.6-0.6,0.8-0.9
		c0.4-0.5,0.8-1,1.2-1.5c0.2-0.3,0.1-0.6-0.2-0.8c-0.3-0.2-0.6-0.1-0.8,0.2c-0.1,0.2-0.3,0.4-0.5,0.6c-0.2,0.2-0.4,0.4-0.6,0.7
		c-0.3,0.3-0.6,0.6-0.8,0.9c-0.1,0.2-0.3,0.3-0.4,0.4c0,0-0.1,0.1,0,0c-0.1,0-0.1,0.1-0.2,0.1c0.1-0.1,0,0,0,0c0,0-0.1,0-0.1,0
		c0.1,0,0.1,0,0,0c-0.1,0-0.1,0-0.2,0c0.1,0-0.1-0.1,0,0c-0.1,0-0.1-0.1-0.2-0.1c0,0,0,0,0,0c0,0,0,0,0,0l0,0c0,0.1,0,0.1,0,0
		c0-0.1,0-0.1-0.1-0.2c0,0,0,0,0,0c0,0,0-0.1,0-0.1c0,0,0-0.1,0-0.1c0,0.1,0,0.1,0,0c0.1-0.3-0.1-0.6-0.4-0.7
		C418.4,76.9,418.1,77.1,418,77.4L418,77.4z"/>
	<path class="st4" d="M420.2,78.8c0.2,0.5,0.6,1,1.1,1.1c0.6,0.1,1-0.1,1.4-0.5c0.8-0.6,1.5-1.4,1.9-2.3c0.2-0.3,0.1-0.6-0.2-0.8
		c-0.3-0.2-0.6-0.1-0.8,0.2c-0.2,0.3-0.4,0.7-0.6,1c-0.1,0.1,0,0,0,0c0,0-0.1,0.1-0.1,0.1c-0.1,0.1-0.1,0.2-0.2,0.2
		c-0.1,0.1-0.3,0.3-0.4,0.4c-0.1,0.1-0.1,0.1-0.2,0.2c0.1-0.1,0,0,0,0c0,0-0.1,0.1-0.1,0.1c-0.1,0-0.1,0.1-0.2,0.1c0,0-0.1,0,0,0
		c0,0-0.1,0-0.1,0c0,0,0,0,0,0h-0.1c-0.1,0,0.1,0,0,0c0,0-0.1,0-0.1,0c-0.1,0,0.1,0,0,0c0.1,0,0.1,0.1,0,0c0,0,0,0-0.1-0.1
		c0,0,0-0.1,0,0c0,0-0.1-0.1-0.1-0.1c-0.1-0.1,0,0.1,0,0c-0.1-0.3-0.4-0.5-0.7-0.4C420.3,78.2,420.1,78.5,420.2,78.8L420.2,78.8z"/>
	<path class="st4" d="M421.5,71.3c0.7-0.1,1.3,0.3,1.9,0.7c0.7,0.4,1.2,1.1,1.6,1.8c0.6,1.2-0.1,2.9-1.2,3.7
		c-0.3,0.2-0.4,0.5-0.2,0.8c0.2,0.3,0.5,0.4,0.8,0.2c1.5-1.1,2.5-3.2,1.7-5c-0.4-0.9-1.1-1.7-1.9-2.3c-0.4-0.2-0.8-0.4-1.2-0.6
		c-0.4-0.2-0.9-0.3-1.4-0.3c-0.3,0-0.6,0.3-0.6,0.6C420.9,71.1,421.2,71.3,421.5,71.3L421.5,71.3z"/>
	<path class="st1" d="M377.9,48.2c-0.7-0.6-1.5-1.1-2.4-1c-1.2,0.1-2,1.4-2,2.6c0,1.5,1.2,2.8,2.5,3.3c1.2-0.3,2.3-0.8,3.3-1.5
		l0.5-0.8c0.3-0.5,0.4-1.1,0.3-1.7c-0.1-0.4-0.4-0.9-0.8-0.9c-0.4,0-0.7,0.3-0.9,0.5C378.2,48.5,378.1,48.3,377.9,48.2z"/>
	<path class="st8" d="M396.1,55.6c-0.4-1.6-1.1-3.2-2.1-4.5c-1.4-1.8-3.5-2.9-5.8-2.6c-0.9,0.1-1.8,0.4-2.7,0.8
		c-1.7,0.9-3.1,1.8-4.2,3.7c-0.3-0.7-0.7-1.3-1.1-1.9c-1.3,1-2.8,1.7-4.4,2.1c-0.1,1.8,1,5.9,1.4,7.3c0.3,0.9,0.7,1.9,1.5,2.4
		c0.5,0.3,1,0.4,1.5,0.5l-0.1,0.4c-2.1,0.2-3.6,2.7-2.8,4.7l1.2,2.9l9.6,1.4c3.2-0.3,6.1-2.7,7.5-5.6c1.4-2.9,1.5-6.4,1-9.6
		C396.4,56.8,396.3,56.2,396.1,55.6z"/>
	<path class="st4" d="M384.1,61.5c-0.9,0.8-2,1.2-3.2,1.3c-0.6,0-1.2-0.1-1.8-0.4c-0.4-0.3-0.8-0.7-1-1.2c-0.3-0.8-0.6-1.6-0.7-2.4
		c-0.3-1-0.5-1.9-0.7-2.9c-0.2-0.9-0.3-1.9-0.3-2.9l-0.4,0.5c1.6-0.4,3.2-1.2,4.5-2.2l-0.8-0.2c0.6,0.9,1.1,1.8,1.5,2.8
		c0.2,0.7,1.3,0.4,1.1-0.3c-0.4-1.1-0.9-2.1-1.6-3.1c-0.2-0.3-0.5-0.4-0.8-0.2c-1.3,0.9-2.7,1.6-4.2,2c-0.2,0.1-0.4,0.3-0.4,0.5
		c0,1,0.1,2,0.3,2.9c0.2,1.1,0.5,2.1,0.7,3.2c0.3,1,0.5,2,1,2.8c0.7,1.3,2,1.8,3.4,1.9c1.6,0,3.1-0.5,4.3-1.6
		C385.4,61.9,384.6,61.1,384.1,61.5z"/>
	<path class="st4" d="M380,63.2c-1.2,0.2-2.3,0.9-3,1.9c-0.7,1-0.8,2.3-0.4,3.4c0.1,0.3,0.4,0.5,0.7,0.4c0.3-0.1,0.5-0.4,0.4-0.7
		c-0.2-0.4-0.2-0.8-0.2-1.3c0.1-0.4,0.2-0.9,0.4-1.2c0.2-0.4,0.5-0.7,0.8-0.9c0.1-0.1,0.2-0.1,0.3-0.2c0.1,0,0.1-0.1,0.2-0.1
		c0,0,0.2-0.1,0.1,0c0.1,0,0.2-0.1,0.4-0.1c0.1,0,0.1,0,0.2,0c0,0,0.2,0,0.1,0c0.3,0,0.6-0.3,0.6-0.6
		C380.6,63.4,380.4,63.2,380,63.2L380,63.2z"/>
	<path class="st4" d="M384.6,49c-1.1,0.2-2.3-0.9-2.7-1.9c-0.6-1.2-0.3-2.7-0.2-4c0.1-1.2,0.1-2.4,0.5-3.6c0.3-1.1,1.1-2,2-2.6
		c1.2-0.7,2.5-0.9,3.9-0.8c1,0,2.1,0.2,3.1,0.5c1.9,0.7,3.4,2,3.9,4c0.3,1.4,0.3,2.9-0.1,4.3c-0.3,1.5-1.1,2.8-2.3,3.7
		c-0.3,0.2-0.4,0.5-0.2,0.8c0.2,0.3,0.5,0.4,0.8,0.2c1.3-0.9,2.2-2.2,2.7-3.6c0.5-1.5,0.6-3.1,0.4-4.6c-0.3-2.4-1.9-4.5-4.1-5.4
		c-2.4-1-5.5-1.2-7.9-0.2c-1.3,0.6-2.3,1.6-2.9,2.9c-0.6,1.3-0.7,2.6-0.8,4c-0.1,1.8-0.5,3.6,0.4,5.3c0.4,0.7,1,1.3,1.6,1.8
		c0.7,0.5,1.5,0.7,2.3,0.5c0.3-0.1,0.5-0.4,0.4-0.7C385.2,49.1,384.9,48.9,384.6,49L384.6,49z"/>
	<path class="st4" d="M386.6,43.1c-0.2,0-0.4,0-0.5,0l0.2,0c-0.1,0-0.1,0-0.2,0c-0.1,0-0.2,0-0.2,0c-0.1,0-0.1,0-0.2,0.1
		c-0.1,0.1-0.2,0.2-0.3,0.3c0,0.1,0,0.3,0.1,0.4c0.1,0.1,0.2,0.2,0.3,0.3c0.3,0.1,0.6,0.1,0.9,0.1c0.1,0,0.3-0.1,0.4-0.2
		c0.1-0.1,0.2-0.3,0.2-0.4C387.2,43.4,386.9,43.1,386.6,43.1L386.6,43.1z"/>
	<path class="st4" d="M382.7,42.9c-0.2,0-0.4,0-0.6,0l0.2,0c0,0-0.1,0-0.1,0c-0.1,0-0.3,0-0.4,0.1c-0.1,0.1-0.2,0.2-0.3,0.3
		c-0.1,0.3,0.1,0.6,0.4,0.7c0,0,0,0,0,0c0.1,0,0.2,0,0.3,0c0.1,0,0.1,0,0.2,0c0.1,0,0.2,0,0.4,0c0.1,0,0.3-0.1,0.4-0.2
		c0.1-0.1,0.2-0.3,0.2-0.4c0-0.2-0.1-0.3-0.2-0.4L383,43C382.9,42.9,382.8,42.9,382.7,42.9L382.7,42.9z"/>
	<path class="st4" d="M383.9,46.5c-0.2,0-0.4-0.1-0.7-0.1c-0.3,0-0.6,0.3-0.6,0.6l0,0.2c0,0.1,0.1,0.2,0.1,0.3l0.1,0.1
		c0.1,0.1,0.2,0.1,0.3,0.1c0.1,0,0.2,0,0.4,0l-0.2,0c0,0,0.1,0,0.1,0c0.3,0.1,0.6-0.1,0.7-0.4l0-0.2c0-0.1,0-0.2-0.1-0.3l-0.1-0.1
		C384.1,46.6,384,46.6,383.9,46.5L383.9,46.5z"/>
	<path class="st4" d="M391.4,44.9C391.4,44.9,391.5,44.8,391.4,44.9c0.1,0,0.1-0.1,0.2-0.1c0.1,0,0,0,0,0c0,0,0.2,0,0.1,0
		c-0.1,0,0.1,0,0.1,0c0.1,0-0.1,0,0,0c0,0,0.1,0.1,0,0c0,0,0.1,0.1,0,0c0-0.1,0,0.1,0,0c0,0,0,0.2,0,0.1c0,0.1,0,0.2,0,0.3
		c0,0.1,0,0.2,0,0.3c0,0.1,0,0.1,0,0.2c0-0.1,0,0.1,0,0.1c0,0.1,0,0.2-0.1,0.3c0,0,0,0.1,0,0c0,0.1-0.1,0.1-0.1,0.2
		c0,0-0.1,0.1-0.1,0.1c0,0-0.1,0.1,0,0.1c0-0.1-0.1,0.1-0.1,0.1c0,0-0.1,0.1-0.1,0.1c0,0-0.1,0.1,0,0c0,0-0.1,0.1-0.1,0.1
		c0,0-0.1,0-0.1,0c0,0-0.1,0,0,0c-0.1,0-0.2,0.1-0.3,0.1c0,0-0.1,0-0.1,0c-0.1,0,0.1,0,0,0c-0.3,0-0.6,0.3-0.6,0.6s0.3,0.6,0.6,0.6
		c0.6,0,1.2-0.3,1.6-0.7c0.4-0.4,0.7-1,0.8-1.6c0.1-0.6,0.1-1.3-0.4-1.7c-0.5-0.5-1.3-0.5-1.9-0.2c-0.3,0.2-0.4,0.5-0.2,0.8
		C390.8,44.9,391.1,45,391.4,44.9L391.4,44.9z"/>
	<path class="st4" d="M380.3,51.1c0.5-0.8,0.6-2,0.1-2.8c-0.2-0.4-0.7-0.7-1.1-0.7c-0.5,0-1,0.3-1.3,0.7h0.8
		c-0.7-0.8-1.6-1.5-2.7-1.6c-1-0.1-2,0.4-2.5,1.3c-1.3,1.9-0.1,4.1,1.6,5.3c0.6,0.4,1.2-0.6,0.6-1c-1.2-0.8-2-2.3-1.2-3.6
		c0.3-0.5,0.9-0.9,1.5-0.8c0.8,0.1,1.5,0.7,2,1.3c0.2,0.2,0.6,0.2,0.8,0c0.1-0.1,0.3-0.4,0.5-0.3c0.1,0,0.2,0.2,0.2,0.3
		c0.2,0.5,0.1,1-0.2,1.5C379,51.2,380,51.7,380.3,51.1L380.3,51.1z"/>
	<path class="st4" d="M381.9,52.9c0.7-1,1.6-1.9,2.6-2.5c0.5-0.3,1-0.6,1.6-0.9c0.6-0.2,1.3-0.4,2-0.5c2.5-0.4,4.7,1.1,6,3.1
		c1.4,2.3,1.9,5.2,2,7.9c0.1,2.7-0.4,5.5-1.9,7.8c-1.4,2.2-3.7,3.9-6.3,4.2c-0.3,0-0.6,0.3-0.6,0.6c0,0.3,0.3,0.6,0.6,0.6
		c2.7-0.3,5-1.7,6.6-3.8c1.9-2.4,2.6-5.4,2.7-8.4c0-1.5-0.1-3.1-0.4-4.6c-0.3-1.5-0.7-2.9-1.4-4.2c-1.3-2.4-3.7-4.4-6.6-4.3
		c-3.2,0.1-6.2,1.8-7.9,4.5C380.6,53,381.6,53.5,381.9,52.9L381.9,52.9z"/>
	<path class="st4" d="M384.1,38.7c-0.1,0.2-0.3,0.4-0.5,0.5l0.1-0.1c-0.1,0.1-0.2,0.1-0.3,0.2c-0.2,0.1-0.3,0.3-0.3,0.6
		c0,0.1,0,0.1,0.1,0.2c0.1,0.1,0.2,0.2,0.3,0.3l0.2,0c0.1,0,0.2,0,0.3-0.1c0.2-0.1,0.4-0.2,0.6-0.4c0.1-0.1,0.3-0.3,0.4-0.4
		c0.1-0.1,0.2-0.3,0.2-0.4c0-0.2-0.1-0.3-0.2-0.4c-0.1-0.1-0.3-0.2-0.4-0.2l-0.2,0C384.3,38.6,384.2,38.7,384.1,38.7L384.1,38.7z"/>
	<path class="st4" d="M386.1,39.6c0,0.1-0.1,0.1-0.2,0.2l0.1-0.1c-0.2,0.3-0.4,0.5-0.7,0.7l0.1-0.1c0,0-0.1,0.1-0.1,0.1
		c-0.1,0.1-0.2,0.2-0.3,0.3c0,0.1,0,0.3,0.1,0.4c0.2,0.3,0.5,0.4,0.8,0.2c0,0,0,0,0,0c0.2-0.1,0.4-0.3,0.6-0.5
		c0.2-0.2,0.4-0.4,0.6-0.7c0.2-0.3,0.1-0.6-0.2-0.8c0,0,0,0,0,0c-0.1-0.1-0.3-0.1-0.4-0.1C386.3,39.4,386.1,39.5,386.1,39.6
		L386.1,39.6z"/>
	<path class="st1" d="M397.6,64.9c0.2-0.2,0.3-0.3,0.5-0.5c1.2-1.5,1.2-3.1,0.8-4.8c-0.3-0.9-1.3-2-1.9-2.1
		c-0.7-0.2-1.4-0.2-2.1,0.1c-1,0.3-2,0.4-3,0.3c-0.6,0-1.3,0-1.9,0.2c-0.7,0.1-0.9,0.5-0.9,1.1c0.1,0.7,0.9,1.2,1.7,1.3l1.2,0.1
		c-0.5,0.3-1,0.5-1.6,0.7c-0.7,0.2-1.5,0.4-2.2,0.8c-0.4,0.2-0.6,0.5-0.6,1c0,0.6,0.5,1.1,1.1,1.1c0.1,0,0.2,0,0.3,0l0.9-0.1
		l-0.1,0.6c-0.1,0.4,0,0.8,0.3,1.1c0.5,1.4,2.1,1.6,3.5,1.4C395.1,66.7,396.5,66,397.6,64.9z"/>
	<path class="st4" d="M390.8,59.9c-0.4,0-1.4-0.4-1.1-1.1c0.1-0.2,0.5-0.2,0.7-0.3c0.5-0.1,0.9-0.1,1.4-0.1c1,0.1,2.1,0,3.1-0.3
		c0.7-0.2,1.5-0.4,2.2,0c1.3,0.8,1.7,2.7,1.4,4.2c-0.3,1.6-1.8,2.9-3.2,3.5c-0.8,0.3-1.7,0.5-2.5,0.6c-0.7,0-1.6-0.1-2-0.8
		c-0.4-0.6-1.4,0-1,0.6c1.1,1.7,3.6,1.5,5.4,0.9c1.9-0.7,3.9-2.2,4.4-4.3c0.2-1.1,0.2-2.2-0.1-3.2c-0.2-0.9-1-1.9-1.8-2.4
		c-0.8-0.6-2-0.5-2.9-0.2c-0.6,0.2-1.2,0.3-1.9,0.3c-0.6,0-1.2-0.1-1.9,0c-1.1,0.1-2.5,0.3-2.5,1.6c0,1.3,1.2,1.9,2.3,2.1
		c0.3,0,0.6-0.3,0.6-0.6C391.4,60.1,391.2,59.9,390.8,59.9L390.8,59.9z"/>
	<path class="st4" d="M392.5,59.6c-0.7,0.4-1.5,0.8-2.3,1.1c-0.4,0.1-0.9,0.3-1.3,0.4c-0.4,0.1-0.8,0.3-1.2,0.5
		c-0.7,0.5-0.9,1.4-0.5,2.1c0.4,0.7,1.1,0.9,1.9,0.8c0.3-0.1,0.5-0.4,0.4-0.7c-0.1-0.3-0.4-0.5-0.7-0.4c-0.2,0-0.3,0-0.4-0.1
		c0.1,0.1-0.1-0.1-0.1-0.1c0,0.1,0-0.1,0-0.1c0-0.1-0.1-0.1-0.1-0.2c0,0.1,0-0.1,0-0.1s0-0.1,0-0.1c0-0.1,0.1-0.1,0.1-0.2
		c0.3-0.2,0.5-0.3,0.8-0.3c0.7-0.2,1.3-0.4,2-0.7c0.7-0.3,1.3-0.6,1.9-1C393.7,60.2,393.2,59.3,392.5,59.6L392.5,59.6z"/>
	<path class="st4" d="M389,64.6c0.8-0.1,1.5-0.2,2.3-0.5c0.7-0.2,1.4-0.5,2.1-0.8c0.3-0.2,0.4-0.5,0.2-0.8c-0.2-0.3-0.5-0.4-0.8-0.2
		c-0.1,0.1-0.3,0.1-0.4,0.2c0,0,0,0,0,0l-0.1,0c-0.1,0-0.2,0.1-0.2,0.1c-0.4,0.1-0.7,0.3-1.1,0.4c-0.4,0.1-0.7,0.2-1.1,0.3
		c-0.2,0-0.3,0.1-0.5,0.1c0,0-0.3,0-0.1,0c-0.1,0-0.2,0-0.2,0c-0.3,0-0.6,0.3-0.6,0.6C388.4,64.3,388.7,64.6,389,64.6L389,64.6z"/>
	<path class="st1" d="M380.7,69.7c0.4-0.3,0.8-0.4,1.3-0.5c1.1-0.3,2.1-0.6,3.2-1.1c0.5-0.2,1-0.6,1.5-0.8c0.6-0.1,1.2,0.1,1.5,0.6
		c0.1,0.3,0.1,0.7-0.1,1c-0.4,0.6-0.8,1.1-1.3,1.6l-0.1,0.1l0.2,0.2c0.5,0.6,1.4,0.9,2.2,1c0.7,0.1,1.4,0,2.1-0.3
		c0.5-0.2,1.1-0.3,1.5-0.2c0.4,0.1,0.7,0.4,0.8,0.8c-0.1,0.3-0.2,0.5-0.3,0.7c-0.2,0.4-0.9,0.8-1.8,1.1c-0.2,0.4-0.3,0.7-0.3,0.7
		c-0.6,1.7-2.3,2.9-4.3,3.3c-1.9,0.3-4.6,0.4-5.4,0.1c-0.2-0.1-0.8-0.3-1-0.4c-0.4-0.1-1.5-0.1-2.5-0.2l-0.5,0
		c0.2-2.3,0.4-5.3,0.3-7c0.2,0,0.6,0.1,0.6,0.1c0.5,0.1,1,0.1,1.5,0.2l0.2,0C380.1,70.3,380.4,70,380.7,69.7L380.7,69.7z"/>
	<path class="st4" d="M389.2,64.3c-0.1,0.7,0.1,1.5,0.7,1.8c0.5,0.3,1.2,0.3,1.7,0.1c0.9-0.3,1.9-0.7,2.7-1.1
		c0.3-0.2,0.4-0.5,0.2-0.8c-0.2-0.3-0.5-0.4-0.8-0.2c-0.7,0.4-1.4,0.7-2.2,0.9c-0.3,0.1-0.6,0.2-0.9,0.1c0,0-0.1,0-0.1,0
		c0,0-0.2-0.1-0.1,0c0,0-0.1-0.1-0.1,0l0,0c0,0,0,0,0,0c0-0.1-0.1-0.1-0.1-0.2c0,0.1,0-0.1,0-0.1c0-0.1,0,0,0-0.1
		c0.1-0.3-0.1-0.6-0.4-0.7C389.6,63.8,389.3,64,389.2,64.3L389.2,64.3z"/>
	<path class="st4" d="M377.8,78.1c0.6,0,1.3,0.1,1.9,0.1c0.4,0,0.8,0.2,1.1,0.3c0.7,0.3,1.5,0.3,2.3,0.3c2.1,0,4.4-0.1,6.2-1.3
		c1-0.6,1.8-1.6,2.2-2.7c0.1-0.3-0.1-0.6-0.4-0.7c-0.3-0.1-0.6,0.1-0.7,0.4c-0.7,1.8-2.6,2.7-4.4,2.9c-1,0.1-2,0.2-3,0.2
		c-0.4,0-0.8,0-1.2,0c-0.2,0-0.5-0.1-0.7-0.2c-0.4-0.2-0.9-0.3-1.3-0.4c-0.7-0.1-1.4-0.1-2.1-0.1C377.1,76.9,377.1,78.1,377.8,78.1
		L377.8,78.1z"/>
	<path class="st4" d="M386.5,71.3c0.7,0.8,1.7,1.1,2.7,1.1c0.5,0,0.9,0,1.4-0.1c0.5-0.1,0.9-0.3,1.4-0.4c0.2,0,0.3,0,0.5,0.1
		c0.1,0,0.2,0.1,0.2,0.2c0,0,0,0.1,0,0.1c0,0.1-0.2,0.3-0.2,0.4c0,0-0.1,0.1-0.1,0.1c0,0-0.1,0.1-0.1,0.1c-0.2,0.2-0.5,0.3-0.8,0.5
		c-0.4,0.2-0.7,0.3-1.1,0.4c-1,0.3-2.1,0.5-3.2,0.7c-0.3,0.1-0.5,0.4-0.4,0.7c0.1,0.3,0.4,0.5,0.7,0.4c1-0.1,2.1-0.3,3.1-0.6
		c0.8-0.2,1.8-0.5,2.4-1.1c0.3-0.2,0.5-0.5,0.6-0.9c0.3-0.5,0.2-1.1-0.2-1.5c-0.4-0.4-0.9-0.6-1.5-0.6c-0.6,0-1.1,0.3-1.7,0.4
		c-0.5,0.1-1.1,0.1-1.6,0c-0.6-0.1-1.1-0.3-1.5-0.8c-0.2-0.2-0.6-0.2-0.8,0C386.3,70.7,386.3,71,386.5,71.3L386.5,71.3z"/>
	<path class="st4" d="M380.3,71.2c0.3-0.4,0.5-0.9,0.9-1.1c0.5-0.2,0.9-0.4,1.4-0.5c1.1-0.3,2.4-0.6,3.4-1.3
		c0.4-0.2,0.8-0.5,1.2-0.4c0.3,0,0.5,0.2,0.5,0.5c0,0.1,0,0.2-0.1,0.2c-0.1,0.3-0.3,0.5-0.5,0.7c-0.2,0.3-0.4,0.5-0.7,0.8
		c-0.5,0.5,0.3,1.3,0.8,0.8c0.5-0.5,0.9-1,1.3-1.6c0.5-0.8,0.4-2-0.5-2.4c-0.4-0.2-0.9-0.3-1.4-0.2c-0.5,0.1-0.9,0.4-1.4,0.7
		c-1,0.6-2.2,0.8-3.2,1.1c-0.5,0.1-1,0.3-1.5,0.6c-0.5,0.4-0.9,0.9-1.2,1.4C378.9,71.2,379.9,71.8,380.3,71.2L380.3,71.2z"/>
	<path class="st4" d="M378.2,71.1c0,0,0.1,0,0.1,0L378.2,71.1c0.2,0,0.4,0.1,0.7,0.1c0.3,0,0.5,0.1,0.8,0.1c0.1,0,0.3-0.1,0.4-0.2
		c0.2-0.2,0.2-0.6,0-0.8c-0.1-0.1-0.3-0.2-0.4-0.2c-0.2,0-0.4,0-0.6,0l0.2,0c-0.3,0-0.7-0.1-1-0.1c-0.2,0-0.3,0.1-0.4,0.2
		c-0.2,0.2-0.2,0.6,0,0.8l0.1,0.1C378,71.1,378.1,71.1,378.2,71.1L378.2,71.1z"/>
	<path class="st4" d="M366,68.3c2,0.5,4,0.6,6,0.9c1.7,0.2,3.3,0.3,5,0.5c0.3,0,0.6-0.3,0.6-0.6c0-0.3-0.3-0.6-0.6-0.6
		c-1.6-0.2-3.2-0.2-4.8-0.5c-2-0.3-3.9-0.4-5.9-0.9C365.6,67,365.3,68.1,366,68.3z"/>
	<path class="st4" d="M377,69.7C376.9,69.6,376.8,69.5,377,69.7C376.9,69.7,376.9,69.6,377,69.7C376.9,69.7,376.9,69.7,377,69.7
		c0,0.2,0,0.3,0,0.4c0,0,0,0.2,0,0.1c0,0,0,0.1,0,0.1c0.1,0.6,0.1,1.2,0.1,1.9c0,1.6-0.1,3.2-0.3,4.7c-0.1,0.8-0.1,1.5-0.2,2.3
		c0,0.3,0.3,0.6,0.6,0.6c0.3,0,0.6-0.3,0.6-0.6c0.2-1.6,0.3-3.1,0.4-4.7c0.1-1.4,0.2-2.9,0-4.4c-0.1-0.5-0.1-1.1-0.6-1.4
		c-0.3-0.2-0.6-0.1-0.8,0.2C376.6,69.2,376.7,69.5,377,69.7L377,69.7z"/>
</g>
<g>
</g>
<g>
</g>
<g>
</g>
<g>
</g>
<g>
</g>
<g>
</g>
<g>
</g>
<g>
</g>
<g>
</g>
<g>
</g>
<g>
</g>
<g>
</g>
<g>
</g>
<g>
</g>
<g>
</g>
<g>
</g>
</svg>
