<?xml version="1.0" encoding="utf-8"?>
<!-- Generator: Adobe Illustrator 27.0.0, SVG Export Plug-In . SVG Version: 6.00 Build 0)  -->
<svg version="1.1" id="レイヤー_1" xmlns="http://www.w3.org/2000/svg" xmlns:xlink="http://www.w3.org/1999/xlink" x="0px"
	 y="0px" viewBox="0 0 500 140" style="enable-background:new 0 0 500 140;" xml:space="preserve">
<style type="text/css">
	.st0{fill:#FF0000;}
	.st1{fill:#FFFFFF;}
	.st2{fill:#957F6E;}
	.st3{fill:#211715;}
	.st4{fill:#F4B867;}
	.st5{fill:#B3B3B3;}
	.st6{fill:#7A7473;}
	.st7{fill:#66BD6F;}
	.st8{fill:#C6C6C6;}
</style>
<g>
</g>
<g>
</g>
<g>
</g>
<g>
</g>
<g>
	<path d="M21.5,28.6c1.7-0.6,3.1-1.1,4.4-1.7c0.9-0.4,1.5-0.9,1.9-1.3c0.5,0.4,1,0.9,1.5,1.6c0.1,0.1,0.1,0.2,0.1,0.3
		c0,0.2-0.1,0.3-0.3,0.3c-0.2,0.1-0.7,0.3-1.5,0.6c-1.7,0.8-3.8,1.5-6.2,2.2V33c0,0.5,0,0.8,0.1,0.9c0.1,0.2,0.2,0.3,0.5,0.3
		c0.5,0.1,1.2,0.2,2.3,0.2c1.6,0,3.3-0.1,5.1-0.4c0,0,0.1,0,0.1,0c0.1,0,0.2,0.1,0.2,0.3c0.1,0.7,0.1,1.2,0.1,1.6
		c0,0.2-0.1,0.3-0.4,0.3c-1.7,0.2-3.5,0.3-5.3,0.3c-1.5,0-2.7-0.2-3.4-0.5c-0.8-0.4-1.3-1.3-1.3-2.7v-6.6c0-1.4-0.1-2.5-0.2-3.3
		c1.1,0.1,1.8,0.2,2.3,0.4c0.2,0.1,0.3,0.1,0.3,0.3c0,0.1,0,0.2-0.1,0.4c-0.1,0.2-0.2,0.8-0.2,1.6V28.6z M28.1,24l0.9-0.7
		c0,0,0.1,0,0.1,0c0,0,0.1,0,0.2,0.1c0.6,0.5,1.2,1.1,1.7,1.9c0,0,0.1,0.1,0.1,0.1c0,0.1,0,0.1-0.1,0.2l-0.8,0.6
		c-0.1,0-0.1,0.1-0.1,0.1c-0.1,0-0.1,0-0.2-0.1C29.3,25.3,28.7,24.6,28.1,24z M29.7,22.9l0.9-0.7c0,0,0.1,0,0.1,0c0,0,0.1,0,0.2,0.1
		c0.7,0.5,1.3,1.1,1.7,1.9c0,0.1,0.1,0.1,0.1,0.1c0,0.1,0,0.1-0.1,0.2L31.8,25c-0.1,0-0.1,0.1-0.1,0.1c-0.1,0-0.1,0-0.2-0.1
		C31,24.1,30.4,23.4,29.7,22.9z"/>
	<path d="M36.7,28.3c0.4-0.2,0.8-0.4,1.4-0.7c0.1,0,0.1-0.1,0.2-0.1c0.1,0,0.2,0.1,0.3,0.2c0.7,0.9,1.2,1.8,1.5,2.7
		c0,0.2,0.1,0.3,0.1,0.3c0,0.1-0.1,0.2-0.2,0.3c-0.4,0.2-0.8,0.4-1.2,0.6c-0.1,0-0.1,0-0.2,0c-0.1,0-0.2-0.1-0.3-0.3
		C38,30.1,37.4,29.1,36.7,28.3z M46,26.9c0.9,0.3,1.6,0.6,2,0.9c0.2,0.1,0.2,0.2,0.2,0.3c0,0.1-0.1,0.2-0.2,0.3
		c-0.1,0.1-0.3,0.4-0.5,0.9c-0.8,1.8-1.7,3.4-2.7,4.8c-1.1,1.4-2.4,2.6-3.7,3.5c-0.2,0.1-0.3,0.2-0.4,0.2s-0.2,0-0.3-0.1
		c-0.4-0.3-0.9-0.6-1.5-0.8c1.2-0.8,2.1-1.4,2.7-2c0.6-0.5,1.1-1.1,1.6-1.7c1.1-1.4,1.9-2.8,2.4-4.3C45.8,28.2,46,27.6,46,26.9z
		 M40.4,27.4c0.8-0.4,1.2-0.6,1.4-0.7c0.1,0,0.1-0.1,0.2-0.1c0.1,0,0.2,0.1,0.3,0.2c0.6,0.8,1.1,1.7,1.4,2.6c0,0.1,0,0.2,0,0.2
		c0,0.1-0.1,0.2-0.2,0.3c-0.3,0.2-0.8,0.4-1.2,0.6c0,0-0.1,0-0.1,0c-0.1,0-0.2-0.1-0.2-0.3C41.4,29.1,40.9,28.2,40.4,27.4z"/>
	<path d="M60.5,25.3l3.2-0.1c0.4,0,0.7-0.1,0.9-0.2c0.1,0,0.1-0.1,0.2-0.1c0.1,0,0.2,0,0.3,0.1c0.4,0.3,0.8,0.6,1.2,1
		c0.2,0.1,0.2,0.3,0.2,0.4c0,0.1-0.1,0.3-0.2,0.4c-0.2,0.2-0.4,0.4-0.6,0.8c-1.1,2.3-2.3,4.2-3.6,5.6c-0.8,0.9-1.8,1.8-2.8,2.7
		c-0.9,0.7-1.8,1.3-2.6,1.8c-0.1,0.1-0.2,0.1-0.3,0.1c-0.1,0-0.3-0.1-0.4-0.2c-0.5-0.4-1-0.6-1.7-0.8c1.5-0.8,2.7-1.6,3.6-2.3
		c0.8-0.6,1.6-1.4,2.4-2.3c0.8-0.9,1.4-1.7,1.9-2.4c0.5-0.7,0.9-1.6,1.4-2.7l-4.4,0.1c-1.4,1.8-2.6,3-3.4,3.7
		c-0.1,0.1-0.3,0.2-0.4,0.2c-0.1,0-0.2,0-0.3-0.1c-0.5-0.4-1.1-0.7-1.7-0.8c2-1.6,3.6-3.4,4.8-5.3c0.6-0.9,0.9-1.7,1.1-2.4
		c1,0.4,1.7,0.7,2.1,1c0.1,0.1,0.2,0.2,0.2,0.3c0,0.1-0.1,0.2-0.2,0.3c-0.1,0-0.2,0.2-0.4,0.5C60.9,24.6,60.8,24.9,60.5,25.3z"/>
	<path d="M81.9,34.7h-7v1.1c0,0.2,0,0.2-0.1,0.3c0,0-0.1,0.1-0.3,0.1c-0.2,0-0.5,0-0.7,0s-0.5,0-0.7,0c-0.3,0-0.4-0.1-0.4-0.2
		c0,0,0,0,0,0c0-1.9,0.1-3.1,0.1-3.6v-4.4v-1.2c0-0.7,0-1.3,0-1.8c0-0.2,0.1-0.3,0.2-0.3c0.6,0,1.7,0.1,3.2,0.1h4.3
		c1.7,0,2.8,0,3.4,0c0.2,0,0.2,0.1,0.2,0.3c0,0,0,0,0,0.1l0,2.9v4.3c0,0.7,0,1.8,0.1,3.4c0,0.2-0.1,0.3-0.3,0.3c-0.3,0-0.6,0-0.8,0
		c-0.3,0-0.6,0-0.8,0c-0.1,0-0.2,0-0.2-0.1c0,0,0-0.1,0-0.2V34.7z M81.9,32.7v-6.2h-7v6.2H81.9z"/>
	<path d="M89.3,28.9c0.9,0.1,2.2,0.2,3.9,0.2H99c0.6,0,1.3,0,2.2,0c1.1,0,1.8,0,1.9,0c0,0,0.1,0,0.1,0c0.2,0,0.2,0.1,0.2,0.3
		c0,0.3,0,0.6,0,0.9c0,0.3,0,0.6,0,0.8c0,0.2-0.1,0.3-0.3,0.3h-0.1c-1.8,0-3.1,0-4,0h-6.5L90,31.4c-0.2,0-0.4-0.1-0.4-0.4
		C89.5,30.6,89.4,29.8,89.3,28.9z"/>
	<path d="M107.5,24.4c0.8,0.1,1.9,0.1,3.5,0.1h6.4c0.5,0,0.8-0.1,1-0.2c0.1,0,0.2-0.1,0.3-0.1c0.1,0,0.2,0,0.3,0.1
		c0.5,0.3,0.9,0.7,1.3,1.2c0.1,0.1,0.1,0.2,0.1,0.3c0,0.2-0.1,0.3-0.3,0.4c-0.1,0.1-0.3,0.4-0.4,0.7c-1,2.3-2.1,4.3-3.5,5.9
		c-1.6,1.8-3.3,3.3-5.1,4.3c-0.2,0.1-0.3,0.2-0.5,0.2s-0.3-0.1-0.4-0.2c-0.4-0.4-0.9-0.7-1.7-1c1.4-0.7,2.6-1.4,3.5-2.2
		c0.8-0.6,1.6-1.4,2.4-2.3c1.4-1.5,2.4-3.3,3-5.1h-6.5c-0.7,0-1.7,0-3,0.1c-0.2,0-0.3-0.1-0.3-0.4C107.6,26,107.5,25.3,107.5,24.4z
		 M118.9,22.9l0.9-0.6c0,0,0.1,0,0.1,0c0,0,0.1,0,0.2,0.1c0.6,0.5,1.2,1.1,1.7,1.9c0,0,0.1,0.1,0.1,0.1c0,0.1,0,0.1-0.1,0.2L121,25
		c-0.1,0-0.1,0.1-0.1,0.1c-0.1,0-0.1,0-0.2-0.1C120.1,24.1,119.5,23.4,118.9,22.9z M120.4,21.8l0.8-0.6c0,0,0.1,0,0.1,0
		c0,0,0.1,0,0.1,0.1c0.7,0.5,1.3,1.1,1.7,1.9c0,0.1,0.1,0.1,0.1,0.1c0,0.1,0,0.1-0.1,0.2l-0.6,0.5c0,0-0.1,0.1-0.1,0.1
		c-0.1,0-0.1,0-0.2-0.1C121.7,23,121.1,22.3,120.4,21.8z"/>
	<path d="M127.1,30.1l-2.3,0c-0.1,0-0.2,0-0.2,0c0,0,0-0.1,0-0.2v-1.4c0-0.1,0-0.2,0-0.2s0.1,0,0.2,0l2.3,0h4.2V24
		c0-0.9,0-1.6-0.1-2.2c0.8,0,1.5,0.1,2,0.1c0.2,0,0.3,0.1,0.3,0.2c0,0.1,0,0.2-0.1,0.4c-0.1,0.2-0.1,0.6-0.1,1.4v4.3h4.6l2.3,0
		c0.1,0,0.2,0.1,0.2,0.2v1.4c0,0.1,0,0.2,0,0.2s-0.1,0-0.1,0l-2.3,0H135v4.9c0,0.5,0.1,0.8,0.2,1c0.2,0.2,0.6,0.2,1.3,0.2
		c0.8,0,1.3-0.1,1.6-0.4c0.2-0.2,0.3-0.4,0.3-0.8c0-0.3,0.1-0.7,0.1-1.4c0.3,0.2,0.8,0.4,1.4,0.6c0.2,0,0.3,0.1,0.4,0.1
		c0.1,0,0.1,0.1,0.1,0.2c0,0.1,0,0.1,0,0.2c-0.1,1.2-0.4,2-0.8,2.4c-0.3,0.3-0.7,0.5-1.2,0.6c-0.5,0.1-1.1,0.2-2,0.2
		c-0.9,0-1.5,0-1.9-0.1c-0.4-0.1-0.7-0.2-0.8-0.4c-0.3-0.3-0.5-1-0.5-2v-5.2h-2c-0.1,2.2-0.5,3.9-1.4,5.2c-0.8,1.2-2.1,2.1-3.9,2.7
		c-0.2,0.1-0.3,0.1-0.4,0.1c-0.1,0-0.3-0.1-0.4-0.4c-0.2-0.4-0.5-0.8-0.9-1.2c1.9-0.5,3.3-1.3,4-2.4c0.7-0.9,1-2.3,1.1-4H127.1z
		 M127.8,23c0.8,1,1.5,2.2,2,3.5c0,0.1,0,0.1,0,0.1c0,0-0.1,0.1-0.2,0.2l-1.2,0.6c-0.1,0.1-0.2,0.1-0.2,0.1c-0.1,0-0.1-0.1-0.1-0.2
		c-0.5-1.2-1.1-2.4-1.9-3.5c0-0.1-0.1-0.1-0.1-0.1c0,0,0.1-0.1,0.2-0.2l1.2-0.6c0.1,0,0.2-0.1,0.2-0.1
		C127.7,22.9,127.7,22.9,127.8,23z M134.6,26.9c0.9-1.2,1.6-2.3,2.1-3.3c0.1-0.2,0.2-0.4,0.2-0.8c0.6,0.2,1.2,0.5,1.7,0.8
		c0.1,0.1,0.2,0.2,0.2,0.2c0,0.1-0.1,0.2-0.2,0.3c-0.1,0.1-0.2,0.2-0.3,0.5c-0.6,1.1-1.2,2-1.7,2.8c-0.2,0.2-0.3,0.4-0.4,0.4
		c-0.1,0-0.2-0.1-0.4-0.2C135.5,27.3,135.1,27.1,134.6,26.9z"/>
	<path d="M147,22.5c1,0,1.8,0.1,2.4,0.2c0.2,0.1,0.3,0.1,0.3,0.3l-0.1,0.8c0,0.1,0,0.5,0.1,1.2c0.1,1.1,0.3,2.1,0.6,3.1
		c0.4-0.2,0.8-0.4,1.3-0.7c0.6-0.3,1-0.5,1.2-0.7c0.6-0.3,1-0.7,1.2-1c0.6,0.6,1,1.1,1.3,1.7c0.1,0.1,0.1,0.3,0.1,0.4
		c0,0.2-0.1,0.3-0.4,0.4c-0.5,0.1-1,0.3-1.7,0.5c-1.8,0.7-3.2,1.4-4.2,2.1c-1.4,0.9-2.1,1.8-2.1,2.7c0,0.6,0.2,1,0.7,1.2
		c0.5,0.2,1.2,0.3,2.1,0.3c2.1,0,4-0.1,5.5-0.4c0,0,0.1,0,0.1,0c0.1,0,0.2,0.1,0.2,0.2c0.1,0.4,0.1,0.9,0.2,1.7
		c0,0.2-0.1,0.3-0.3,0.3c-1.4,0.2-3.2,0.3-5.4,0.3c-3.5,0-5.2-1.2-5.2-3.5c0-1,0.3-1.9,1-2.7c0.5-0.6,1.3-1.3,2.4-1.9
		c-0.4-1.3-0.7-2.8-0.9-4.4C147.3,23.6,147.2,22.9,147,22.5z"/>
	<path d="M176.2,22.8V32c0,1.8-0.5,3.1-1.6,4c-0.9,0.7-2.1,1.1-3.7,1.1c-1.8,0-3.1-0.5-4.1-1.4c-0.8-0.9-1.3-2.1-1.3-3.6v-9.1h2.4
		v9.1c0,2.2,1,3.3,3,3.3s3-1.1,3-3.3v-9.1H176.2z"/>
	<path d="M190.1,38.2l-0.2,1.8c-0.6,0.1-1.2,0.1-1.9,0.1c-1.1,0-1.9-0.2-2.4-0.5c-0.4-0.3-0.8-0.8-1.1-1.6l-0.4-1.1
		c-1.8-0.1-3.1-0.9-4.1-2.3c-0.9-1.3-1.3-2.9-1.3-4.9c0-2.4,0.6-4.3,1.9-5.6c1.1-1.1,2.4-1.7,4.1-1.7c2,0,3.5,0.7,4.5,2.1
		c1,1.3,1.4,3,1.4,5.1c0,2-0.4,3.7-1.3,4.9c-0.8,1.1-1.8,1.8-3,2.1l0.2,0.7c0.1,0.4,0.4,0.6,0.6,0.8c0.3,0.1,0.6,0.2,1.1,0.2
		C188.9,38.4,189.4,38.4,190.1,38.2z M184.7,24.5c-1.1,0-2,0.5-2.6,1.5c-0.6,0.9-0.8,2.2-0.8,3.8c0,1.9,0.4,3.2,1.1,4.2
		c0.6,0.8,1.4,1.2,2.4,1.2c1.1,0,2-0.5,2.6-1.5c0.5-0.9,0.8-2.2,0.8-3.8c0-1.9-0.4-3.3-1.1-4.2C186.5,24.9,185.7,24.5,184.7,24.5z"
		/>
	<path d="M195.2,26.9v1.7c0.8-1.3,1.9-2,3.1-2c0.7,0,1.3,0.2,1.7,0.6c0.4,0.3,0.6,0.8,0.7,1.3c0.8-1.3,1.9-1.9,3.1-1.9
		c0.9,0,1.6,0.3,2,0.9c0.4,0.5,0.7,1.2,0.7,2.1v7.1h-2.3v-6.5c0-1.1-0.5-1.7-1.4-1.7c-0.4,0-0.8,0.2-1.2,0.5
		c-0.3,0.3-0.6,0.7-0.8,1.2v6.5h-2.2v-6.5c0-1.1-0.4-1.7-1.2-1.7c-0.4,0-0.8,0.2-1.2,0.5c-0.4,0.3-0.7,0.7-0.9,1.2v6.5h-2.2v-9.9
		H195.2z"/>
	<path d="M213.3,26.7c1.4,0,2.6,0.5,3.4,1.6c0.7,0.9,1.1,2.1,1.1,3.6c0,1.7-0.5,3-1.4,4c-0.8,0.8-1.8,1.2-3.1,1.2
		c-1.5,0-2.6-0.5-3.4-1.6c-0.7-0.9-1.1-2.1-1.1-3.6c0-1.7,0.5-3,1.4-4C211.1,27.1,212.1,26.7,213.3,26.7z M213.3,28.3
		c-1.4,0-2.2,1.2-2.2,3.5c0,2.4,0.7,3.6,2.1,3.6c1.4,0,2.2-1.2,2.2-3.6C215.5,29.5,214.8,28.3,213.3,28.3z"/>
	<path d="M222.4,22.6v5.8c0.3-0.5,0.8-1,1.3-1.3c0.5-0.2,0.9-0.4,1.4-0.4c1.2,0,2.1,0.5,2.8,1.5c0.6,0.9,0.9,2.1,0.9,3.6
		c0,1.7-0.4,3.1-1.3,4.1c-0.7,0.8-1.6,1.2-2.6,1.2c-1.3,0-2.2-0.6-2.8-1.8l-0.5,1.5h-1.6V22.6H222.4z M222.4,30.2v3.5
		c0.5,1.1,1.1,1.7,2,1.7c0.7,0,1.2-0.3,1.6-0.9c0.4-0.6,0.6-1.4,0.6-2.5c0-1.2-0.2-2.1-0.7-2.7c-0.3-0.5-0.8-0.7-1.4-0.7
		C223.6,28.5,222.9,29,222.4,30.2z"/>
	<path d="M233.5,22.8v2.3H231v-2.3H233.5z M233.4,26.9v9.9h-2.3v-9.9H233.4z"/>
	<path d="M238.6,22.6v14.2h-2.3V22.6H238.6z"/>
	<path d="M249.8,32.4h-6.7c0,1,0.3,1.8,0.7,2.4c0.4,0.5,1,0.7,1.8,0.7c1.1,0,1.8-0.6,2.1-1.9l2.1,0.6c-0.6,1.9-2,2.9-4.2,2.9
		c-1.6,0-2.8-0.5-3.6-1.5c-0.7-0.9-1.1-2.1-1.1-3.6c0-1.7,0.5-3,1.4-4c0.8-0.8,1.8-1.2,3.1-1.2c1.4,0,2.5,0.5,3.3,1.5
		c0.7,0.9,1.1,2.1,1.1,3.7V32.4z M247.6,30.9c-0.1-1.7-0.8-2.6-2.2-2.6c-0.7,0-1.3,0.3-1.7,0.8c-0.3,0.5-0.5,1.1-0.6,1.8H247.6z"/>
	<path d="M265.3,25.7c-0.5,3.3-1.2,5.9-2.2,7.8c-0.8,1.4-1.8,2.1-3.1,2.1c-0.9,0-1.7-0.5-2.3-1.4c-0.6-0.9-0.9-2-0.9-3.3
		c0-1.8,0.7-3.3,2-4.7c1.5-1.5,3.5-2.3,5.9-2.3c2.3,0,4,0.7,5.3,2c1.1,1.1,1.6,2.5,1.6,4.2c0,3.3-1.8,5.4-5.5,6.6
		c-0.1,0-0.2,0-0.3,0c-0.2,0-0.3-0.1-0.5-0.4c-0.3-0.4-0.7-0.8-1.3-1.1c1.9-0.4,3.2-1.1,4-1.9c0.9-0.9,1.4-2,1.4-3.5
		c0-1.2-0.4-2.2-1.3-3C267.3,26.1,266.4,25.7,265.3,25.7L265.3,25.7z M263.2,25.8c-1.3,0.3-2.3,0.8-3.1,1.6
		c-0.9,1.1-1.4,2.2-1.4,3.3c0,0.8,0.1,1.5,0.4,2c0.2,0.4,0.5,0.6,0.8,0.6c0.5,0,0.9-0.4,1.4-1.1c0.4-0.8,0.8-1.8,1.2-3.1
		C262.8,28,263,26.9,263.2,25.8z"/>
	<path d="M285.2,36c0.6,0.1,1.3,0.1,1.8,0.1c0.5,0,0.7-0.2,0.7-0.6V24.2h-11.1v10.5l0,3.3c0,0.1,0,0.1,0,0.2c0,0-0.1,0-0.2,0h-1.6
		c-0.1,0-0.1,0-0.2,0c0,0,0-0.1,0-0.2l0-3.8v-7.7l0-3.8c0-0.1,0-0.2,0-0.2s0.1,0,0.2,0l2.4,0h9.8l2.4,0c0.1,0,0.2,0,0.2,0
		s0,0.1,0,0.2l0,3.8v6.4l0,3.1c0,0.7-0.2,1.1-0.6,1.5c-0.4,0.3-1.3,0.5-2.7,0.5c-0.3,0-0.5,0-0.5-0.1c0-0.1-0.1-0.2-0.2-0.5
		C285.5,36.8,285.4,36.4,285.2,36z M280.2,27.3l-2.2,0c-0.1,0-0.2,0-0.2,0c0,0,0-0.1,0-0.2v-1.3c0-0.1,0-0.1,0-0.2s0.1,0,0.2,0
		l2.2,0h3.8l2.2,0c0.1,0,0.1,0,0.2,0s0,0.1,0,0.2v1.3c0,0.1,0,0.2,0,0.2c0,0-0.1,0-0.2,0l-2.2,0H280.2z M280.2,35.7h-1.4
		c-0.1,0-0.2,0-0.2,0s0-0.1,0-0.2l0-3V31l0-2c0-0.1,0-0.1,0-0.2s0.1,0,0.2,0l2,0h2.6l2,0c0.1,0,0.1,0,0.2,0s0,0.1,0,0.2l0,1.7v1.5
		l0,2.9c0,0.1,0,0.2,0,0.2c0,0-0.1,0-0.2,0H284c-0.1,0-0.2,0-0.2,0c0,0,0-0.1,0-0.2v-0.6h-3.4v1c0,0.1,0,0.1,0,0.2
		C280.3,35.7,280.3,35.7,280.2,35.7z M280.4,30.4v2.6h3.4v-2.6H280.4z"/>
	<path d="M297.6,36c0,0.1,0,0.2,0,0.2c0,0-0.1,0-0.2,0h-1.3c-0.1,0-0.2-0.1-0.2-0.2v-0.8h-1.7v1.4c0,0.1-0.1,0.2-0.2,0.2h-1.3
		c-0.1,0-0.1,0-0.2,0s0-0.1,0-0.2l0-5.5v-3.9l0-4.3c0-0.1,0-0.1,0-0.2s0.1,0,0.2,0l1.5,0h1.6l1.5,0c0.1,0,0.1,0,0.2,0s0,0.1,0,0.2
		l0,3.6v4.1L297.6,36z M296,24.3h-1.7v3.7h1.7V24.3z M294.3,33.6h1.7v-3.9h-1.7V33.6z M300.8,28.8l-2.4,0c-0.1,0-0.2,0-0.2,0
		c0,0,0-0.1,0-0.2v-1.2c0-0.1,0-0.1,0-0.2s0.1,0,0.2,0l2.4,0h1.3v-1.9h-0.8l-2.3,0c-0.1,0-0.2,0-0.2,0c0,0,0-0.1,0-0.2v-1.3
		c0-0.1,0-0.2,0-0.2c0,0,0.1,0,0.2,0l2.3,0h0.8c0-0.9-0.1-1.6-0.1-2c0.6,0,1.2,0.1,1.9,0.1c0.2,0,0.3,0.1,0.3,0.2
		c0,0.1,0,0.2-0.1,0.4c-0.1,0.1-0.1,0.6-0.1,1.4h1.2l2.3,0c0.1,0,0.2,0,0.2,0s0,0.1,0,0.2v1.3c0,0.1,0,0.2,0,0.2s-0.1,0-0.2,0
		l-2.3,0h-1.2v1.9h1.9l2.4,0c0.1,0,0.2,0,0.2,0c0,0,0,0.1,0,0.2v1.2c0,0.1,0,0.2,0,0.2c0,0-0.1,0-0.2,0l-2.4,0H300.8z M300.8,32.2
		l-2.4,0c-0.1,0-0.2,0-0.2,0s0-0.1,0-0.2v-1.3c0-0.1,0-0.1,0-0.2s0.1,0,0.2,0l2.4,0h3.5c0-0.5-0.1-1-0.1-1.6c0.8,0,1.4,0.1,1.8,0.2
		c0.2,0,0.3,0.1,0.3,0.2c0,0.1,0,0.2-0.1,0.3c-0.1,0.1-0.1,0.4-0.1,0.9l1.8,0c0.1,0,0.2,0,0.2,0c0,0,0,0.1,0,0.2V32
		c0,0.1,0,0.1,0,0.2c0,0-0.1,0-0.2,0c0,0-0.1,0-0.2,0c-0.5,0-1,0-1.6,0V34l0,2.2c0,0.7-0.2,1.2-0.6,1.5c-0.4,0.3-1.2,0.4-2.3,0.4
		c-0.3,0-0.5,0-0.5-0.1c-0.1-0.1-0.1-0.2-0.2-0.5c-0.1-0.5-0.3-0.9-0.5-1.3c0.6,0,1.1,0.1,1.8,0.1c0.4,0,0.6-0.2,0.6-0.6v-3.6H300.8
		z M300.9,32.7c0.6,0.6,1.1,1.3,1.7,2.1c0,0.1,0.1,0.1,0.1,0.1c0,0.1-0.1,0.1-0.2,0.2l-1.1,0.8c-0.1,0.1-0.2,0.1-0.2,0.1
		c0,0-0.1,0-0.1-0.1c-0.5-0.8-1-1.5-1.6-2.2c-0.1-0.1-0.1-0.1-0.1-0.1c0,0,0.1-0.1,0.2-0.2l1-0.6c0.1-0.1,0.2-0.1,0.2-0.1
		S300.8,32.6,300.9,32.7z"/>
	<path d="M312.4,28.5l-2.2,0c-0.1,0-0.1,0-0.2,0s0-0.1,0-0.2v-1.3c0-0.1,0-0.1,0-0.2s0.1,0,0.2,0l2.2,0h1.2v-2.2
		c-0.9,0.2-1.6,0.4-2.1,0.4c-0.2,0-0.3,0-0.3,0c-0.1,0-0.2,0-0.2-0.1c0-0.1-0.1-0.2-0.2-0.4c-0.2-0.4-0.4-0.8-0.6-1
		c2.1-0.3,4-0.7,5.6-1.4c0.3-0.1,0.6-0.3,0.9-0.5c0.5,0.3,0.9,0.7,1.2,1.1c0.1,0.1,0.2,0.3,0.2,0.3c0,0.1-0.1,0.2-0.3,0.2
		c-0.1,0-0.4,0.1-0.8,0.2c-0.9,0.3-1.4,0.5-1.5,0.5v2.7h0.5l2.2,0c0.1,0,0.2,0,0.2,0c0,0,0,0.1,0,0.2v1.3c0,0.1,0,0.1,0,0.2
		c0,0-0.1,0-0.2,0l-2.2,0h-0.1c0.6,1.2,1.5,2.3,2.7,3.3c-0.3,0.3-0.5,0.7-0.7,1.2c-0.1,0.2-0.2,0.3-0.2,0.3s-0.2-0.1-0.3-0.3
		c-0.8-0.9-1.4-1.9-1.8-2.8l0.1,7.6c0,0.1,0,0.1,0,0.1c0,0-0.1,0-0.2,0h-1.5c-0.1,0-0.2-0.1-0.2-0.2c0,0,0-0.4,0-1.1
		c0-2.1,0.1-4.2,0.1-6.2c-0.6,1.6-1.5,3-2.7,4.5c-0.1,0.2-0.3,0.3-0.3,0.3c-0.1,0-0.2-0.1-0.2-0.3c-0.2-0.6-0.5-1.1-0.7-1.4
		c1.5-1.4,2.7-3.1,3.5-5.1H312.4z M319.1,23.3c0.7,0,1.3,0.1,1.9,0.1c0.2,0,0.3,0.1,0.3,0.2c0,0,0,0.1-0.1,0.4
		c0,0.2-0.1,0.8-0.1,1.9v5l0,2.4c0,0.1,0,0.1,0,0.2c0,0-0.1,0-0.2,0h-1.5c-0.1,0-0.1,0-0.2,0s0-0.1,0-0.2l0-2.4V26
		C319.2,24.8,319.2,24,319.1,23.3z M320.6,36c0.7,0.1,1.4,0.1,2.1,0.1c0.3,0,0.5-0.1,0.6-0.2c0.1-0.1,0.2-0.3,0.2-0.5V24.6
		c0-1.1,0-1.9-0.1-2.6c0.7,0,1.4,0.1,1.9,0.1c0.2,0,0.3,0.1,0.3,0.2c0,0.1,0,0.2-0.1,0.4c-0.1,0.1-0.1,0.8-0.1,1.8v7.6l0,3.6
		c0,0.5,0,0.9-0.1,1.1s-0.3,0.5-0.5,0.6c-0.3,0.2-0.6,0.3-1,0.4c-0.4,0.1-1,0.1-1.8,0.1c-0.3,0-0.5,0-0.5-0.1
		c-0.1-0.1-0.1-0.2-0.2-0.5C321.1,36.8,320.9,36.3,320.6,36z"/>
	<path d="M339.1,36.1c0.7,0,1.2,0.1,1.7,0.1c0.4,0,0.6-0.2,0.6-0.6v-3h-4.2v2.1l0,2.7c0,0.1,0,0.1,0,0.2s-0.1,0-0.2,0h-1.6
		c-0.1,0-0.1,0-0.2,0s0-0.1,0-0.2l0-2.7v-2.1h-4.1c-0.2,2-0.7,3.6-1.6,5c-0.1,0.2-0.2,0.4-0.3,0.4c-0.1,0-0.2-0.1-0.4-0.3
		c-0.4-0.4-0.8-0.7-1.3-0.9c0.7-0.9,1.2-2,1.5-3.4c0.3-1.2,0.4-2.8,0.4-4.8v-3l0-2.9c0-0.1,0-0.2,0-0.2c0,0,0.1,0,0.2,0l2.5,0h8.5
		l2.5,0c0.1,0,0.2,0,0.2,0c0,0,0,0.1,0,0.2l0,2.9v8l0,2.5c0,0.6-0.2,1.1-0.6,1.5c-0.3,0.3-1.1,0.5-2.4,0.5c-0.3,0-0.5,0-0.5-0.1
		c0,0-0.1-0.2-0.2-0.4C339.5,37,339.4,36.5,339.1,36.1z M331.3,30.9h4v-2.5h-3.9v0.2C331.4,29.5,331.3,30.2,331.3,30.9z M331.4,26.7
		h3.9v-2.5h-3.9V26.7z M341.4,24.2h-4.2v2.5h4.2V24.2z M337.1,30.9h4.2v-2.5h-4.2V30.9z"/>
	<path d="M346.6,25.3c0.6,0,1.6-0.1,2.9-0.3c4.8-0.7,8.4-1.2,10.8-1.5c0,0,0.1,0,0.1,0c0.2,0,0.3,0.1,0.3,0.2c0.1,0.5,0.2,1,0.2,1.6
		c0,0.2-0.1,0.3-0.3,0.3c-0.8,0.1-1.5,0.2-2.2,0.4c-1.6,0.5-2.8,1.3-3.6,2.4c-0.7,0.9-1,1.8-1,2.9c0,2.3,1.6,3.6,4.8,3.8
		c0.3,0,0.4,0.1,0.4,0.3c0,0.6-0.1,1.1-0.2,1.5c0,0.3-0.2,0.4-0.3,0.4c-1.9,0-3.5-0.5-4.8-1.6c-1.3-1-1.9-2.4-1.9-4
		c0-1.3,0.3-2.5,1-3.5c0.6-0.8,1.4-1.6,2.4-2.2v0c-2.2,0.4-4.2,0.8-6,1.2c-0.6,0.1-1,0.2-1.1,0.3c-0.2,0.1-0.4,0.1-0.4,0.1
		c-0.2,0-0.3-0.1-0.3-0.3C347.1,26.8,346.9,26.2,346.6,25.3z M357.8,28.5l0.9-0.7c0,0,0.1,0,0.1,0c0,0,0.1,0,0.2,0.1
		c0.6,0.5,1.2,1.1,1.7,1.9c0,0,0.1,0.1,0.1,0.1c0,0.1,0,0.1-0.1,0.2l-0.8,0.6c-0.1,0-0.1,0.1-0.1,0.1c-0.1,0-0.1,0-0.2-0.1
		C359.1,29.7,358.5,29,357.8,28.5z M359.5,27.3l0.9-0.6c0,0,0.1-0.1,0.1-0.1c0,0,0.1,0,0.1,0.1c0.7,0.5,1.3,1.1,1.7,1.9
		c0,0.1,0.1,0.1,0.1,0.2c0,0.1,0,0.1-0.1,0.2l-0.7,0.6c-0.1,0-0.1,0.1-0.1,0.1c-0.1,0-0.1,0-0.2-0.1
		C360.8,28.6,360.2,27.9,359.5,27.3z"/>
	<path d="M16.2,67.5c3.1-0.9,5.8-2.2,8-4c-0.1-0.4-0.3-0.7-0.4-0.9c-1.6,1-3.5,1.9-5.7,2.7c-0.3,0.1-0.4,0.1-0.4,0.1
		c-0.1,0-0.2-0.1-0.3-0.4c-0.2-0.4-0.5-0.7-0.8-1c2.4-0.5,4.6-1.4,6.5-2.7c-0.2-0.3-0.4-0.6-0.5-0.8c-1.2,0.6-2.5,1.1-3.9,1.6
		c-0.2,0.1-0.3,0.1-0.4,0.1c-0.1,0-0.2-0.1-0.3-0.3c-0.2-0.4-0.5-0.8-0.8-1.1c2.2-0.5,4.1-1.1,5.6-1.9h-0.9l-2.4,0
		c-0.1,0-0.2,0-0.2,0c0,0,0-0.1,0-0.2v-1.1c0-0.1,0-0.2,0-0.2c0,0,0.1,0,0.2,0l2.4,0H27l2.4,0c0.1,0,0.2,0,0.2,0c0,0,0,0.1,0,0.2
		v1.1c0,0.1,0,0.2,0,0.2c0,0-0.1,0-0.2,0L27,59c0.2,1,0.5,1.9,0.9,2.6c0.4-0.4,0.8-0.8,1.1-1.2c0.2-0.3,0.5-0.6,0.8-1.1
		c0.5,0.4,1,0.7,1.3,1c0.2,0.1,0.3,0.2,0.3,0.4c0,0.1-0.1,0.2-0.2,0.3c-0.1,0-0.3,0.3-0.8,0.7c-0.6,0.6-1.1,1.1-1.6,1.4
		c1,1.5,2.3,2.7,4.1,3.7c-0.4,0.4-0.8,0.9-1,1.2c-0.2,0.3-0.3,0.4-0.4,0.4c0,0-0.2-0.1-0.4-0.2c-1.6-1.1-2.8-2.6-3.8-4.3
		c-0.8-1.4-1.4-3.1-1.9-5.1h-0.1c-0.4,0.3-0.8,0.6-1.2,0.8c1.6,1.9,2.4,4.1,2.4,6.4c0,1.3-0.2,2.3-0.7,2.7c-0.4,0.4-1.1,0.6-2.1,0.6
		c-0.4,0-0.7,0-0.9,0c-0.3,0-0.4-0.1-0.4-0.1c0,0-0.1-0.2-0.1-0.4c-0.1-0.6-0.3-1-0.5-1.3c0.6,0.1,1.3,0.1,1.9,0.1
		c0.4,0,0.7-0.1,0.9-0.4c0.2-0.2,0.2-0.7,0.2-1.4c0-0.3,0-0.7-0.1-1c-2,1.5-4.2,2.7-6.7,3.7c-0.3,0.1-0.4,0.1-0.4,0.1
		c-0.1,0-0.2-0.1-0.4-0.4C16.8,68.2,16.5,67.8,16.2,67.5z M29.4,54.7l2.4,0c0.1,0,0.1,0,0.2,0s0,0.1,0,0.2l0,0.9v0.7l0,1.9
		c0,0.1,0,0.1,0,0.2s-0.1,0-0.2,0h-1.5c-0.1,0-0.2,0-0.2,0s0-0.1,0-0.2v-2.1H18.7v2.1c0,0.1,0,0.1,0,0.2s-0.1,0-0.2,0H17
		c-0.1,0-0.1,0-0.2,0s0-0.1,0-0.2l0-1.9v-0.6l0-1c0-0.1,0-0.2,0-0.2s0.1,0,0.2,0l2.4,0h3.9v0c0-0.7,0-1.2-0.1-1.5
		c0.7,0,1.3,0.1,1.9,0.1c0.2,0,0.3,0.1,0.3,0.2c0,0.1,0,0.2-0.1,0.4c-0.1,0.2-0.1,0.5-0.1,0.9v0H29.4z"/>
	<path d="M38.9,57.4h-1.2c0,1.3-0.1,2-0.1,2h1.8l1.1,0c0.1,0,0.2,0.1,0.2,0.2c0,0.2,0,0.8-0.1,1.9c0,3.2-0.2,5.3-0.5,6.3
		c-0.3,0.9-0.9,1.4-1.9,1.4c-0.3,0-0.6,0-0.8,0c-0.2,0-0.2,0-0.3-0.1c0-0.1-0.1-0.2-0.1-0.4c-0.1-0.5-0.2-1-0.4-1.4
		c0.4,0.1,0.8,0.1,1.2,0.1c0.3,0,0.4-0.1,0.5-0.2c0.1-0.1,0.2-0.4,0.2-0.8c0.1-0.7,0.2-2.5,0.3-5.4h-1.4c-0.1,1.9-0.3,3.4-0.7,4.7
		c-0.3,1.2-0.8,2.3-1.3,3.3c-0.1,0.2-0.2,0.3-0.3,0.3S35,69.2,34.9,69c-0.3-0.5-0.7-0.9-1-1.1c0.9-1.3,1.5-2.8,1.8-4.8
		c0.2-1.2,0.3-3.1,0.3-5.7c-0.4,0-0.8,0-1.1,0c-0.2,0-0.3,0-0.3,0c-0.1,0-0.2,0-0.2,0s0-0.1,0-0.2V56c0-0.1,0-0.2,0-0.2
		c0,0,0.1,0,0.2,0l1.9,0H37v-0.9c0-0.8,0-1.4-0.1-1.7c0.8,0,1.4,0.1,1.9,0.1c0.2,0,0.3,0.1,0.3,0.2c0,0,0,0.2-0.1,0.4
		c-0.1,0.2-0.1,0.6-0.1,1.1v0.9l2,0c0.1,0,0.1,0,0.2,0c0,0,0,0.1,0,0.2v1.2c0.7-0.8,1.2-1.8,1.6-2.9c0.1-0.4,0.2-0.8,0.3-1.2
		c0.7,0.1,1.2,0.2,1.6,0.3c0.2,0.1,0.3,0.1,0.3,0.2c0,0.1,0,0.2-0.1,0.3c-0.1,0.1-0.2,0.3-0.3,0.6c-0.1,0.4-0.3,0.6-0.3,0.8h4.2
		l2.1,0c0.1,0,0.2,0,0.2,0c0,0,0,0.1,0,0.2v1.3c0,0.1,0,0.1,0,0.2c0,0-0.1,0-0.2,0l-2.1,0h-5.1c-0.5,0.7-0.9,1.4-1.4,1.9
		c-0.2,0.2-0.3,0.3-0.4,0.3c0,0-0.2-0.1-0.4-0.3c-0.3-0.3-0.6-0.5-1-0.7c0.3-0.2,0.5-0.5,0.7-0.7L38.9,57.4z M40.4,68
		c1.4-0.5,2.4-1.1,3-1.7c0.6-0.6,1-1.3,1.3-2.2h-0.9l-2.3,0c-0.1,0-0.2-0.1-0.2-0.2v-1.3c0-0.1,0-0.2,0-0.2s0.1,0,0.2,0l2.3,0h1.1
		c0.1-0.6,0.1-1.1,0.1-1.6c0-0.1,0-0.3,0-0.4h-1.1c-0.3,0.4-0.6,0.9-1,1.3c-0.2,0.2-0.3,0.3-0.4,0.3c-0.1,0-0.2-0.1-0.4-0.3
		c-0.2-0.2-0.5-0.4-0.9-0.6c0.8-0.8,1.5-1.7,2-2.7c0.2-0.4,0.3-0.8,0.4-1.1c0.6,0.1,1.1,0.2,1.5,0.4c0.2,0.1,0.2,0.1,0.2,0.2
		c0,0.1,0,0.2-0.1,0.3c-0.1,0.1-0.2,0.3-0.4,0.6l-0.1,0.2h2.4l2.5,0c0.1,0,0.2,0,0.2,0c0,0,0,0.1,0,0.2v1.3c0,0.1,0,0.1,0,0.1
		c0,0-0.1,0-0.2,0l-2.5,0h-0.4c0,0.7,0,1.3-0.1,2h1.2l2.3,0c0.1,0,0.2,0.1,0.2,0.2v1.3c0,0.1-0.1,0.2-0.2,0.2l-2.3,0h-1
		c0.4,0.9,1,1.6,1.7,2.3c0.7,0.6,1.4,1.1,2.3,1.4c-0.4,0.4-0.6,0.9-0.8,1.3c-0.1,0.3-0.3,0.5-0.4,0.5c-0.1,0-0.2-0.1-0.4-0.2
		c-1.4-0.9-2.6-2.2-3.4-3.7c-0.7,1.6-2.1,2.8-4.1,3.8c-0.2,0.1-0.3,0.1-0.4,0.1c-0.1,0-0.2-0.1-0.3-0.4C40.9,68.6,40.7,68.2,40.4,68
		z"/>
	<path d="M63.7,61.5c0.2-0.9,0.3-1.7,0.4-2.3c0-0.2,0-0.3,0-0.5c0-0.2,0-0.4,0-0.7c0.9,0.2,1.6,0.5,2.1,0.8c0.1,0.1,0.2,0.2,0.2,0.3
		c0,0.1,0,0.1-0.1,0.2C66,59.6,66,59.9,65.9,60c-0.1,0.6-0.3,1.3-0.5,2.3c1.1,0.5,2,1.1,2.8,1.7c0.1,0.1,0.1,0.1,0.1,0.2
		c0,0,0,0.1,0,0.2c-0.2,0.6-0.5,1.1-0.8,1.5c-0.1,0.1-0.1,0.1-0.2,0.1s-0.1,0-0.2-0.1c-0.8-0.7-1.6-1.2-2.4-1.7
		c-0.5,1.1-1,2.1-1.6,2.8c-0.5,0.7-1.2,1.3-2,1.9c-0.2,0.1-0.3,0.2-0.4,0.2c-0.1,0-0.1,0-0.3-0.1c-0.4-0.3-0.9-0.6-1.6-0.7
		c1.2-0.8,2.1-1.6,2.7-2.5c0.5-0.7,1-1.5,1.3-2.4c-1-0.5-2.2-0.9-3.6-1.1c-0.9,1.8-1.6,3-2.2,3.6c-0.6,0.7-1.4,1-2.3,1
		c-0.6,0-1.1-0.2-1.5-0.7c-0.4-0.4-0.6-1-0.6-1.8c0-1.2,0.6-2.2,1.7-3c1-0.7,2.2-1,3.6-1c0.6-1.5,1.1-2.9,1.5-4.3
		c-0.8,0.1-1.6,0.2-2.5,0.3c-0.3,0-0.6,0.1-0.8,0.2c-0.1,0-0.2,0.1-0.3,0.1c-0.1,0-0.2-0.1-0.3-0.2c-0.2-0.3-0.3-1-0.5-2
		c0.4,0.1,0.8,0.1,1.2,0.1c0.1,0,0.2,0,0.3,0c0.8,0,1.7-0.1,2.8-0.2c0.3-0.1,0.6-0.2,0.9-0.3c0.1,0,0.1-0.1,0.2-0.1
		c0.1,0,0.2,0,0.2,0.1c0.4,0.3,0.9,0.6,1.2,1c0.1,0.1,0.2,0.2,0.2,0.3c0,0.1-0.1,0.2-0.2,0.3c-0.1,0.1-0.2,0.3-0.3,0.5l-0.2,0.5
		c-0.9,2.4-1.4,3.7-1.5,3.9C61.3,60.8,62.4,61.1,63.7,61.5z M57.5,62.2c-0.9,0-1.7,0.3-2.3,0.7c-0.5,0.4-0.7,0.8-0.7,1.3
		c0,0.6,0.2,0.8,0.6,0.8c0.3,0,0.7-0.2,1-0.7C56.6,63.9,57,63.1,57.5,62.2z"/>
	<path d="M77.2,53.9c0.9,0.4,1.6,0.7,2,1c0.2,0.1,0.3,0.2,0.3,0.4c0,0.1-0.1,0.2-0.2,0.4c-0.2,0.2-0.4,0.5-0.6,0.8
		c-1.5,2.8-2.5,4.7-3.1,5.7l0,0c0.7-0.6,1.5-0.9,2.2-0.9c0.9,0,1.6,0.4,2,1.2c0.3,0.5,0.5,1.2,0.6,2.2c0.1,0.7,0.2,1.2,0.4,1.5
		c0.2,0.3,0.4,0.4,0.7,0.4c0.6,0,1.2-0.3,1.7-0.9c0.8-0.8,1.4-1.8,1.8-2.9c0.2,0.5,0.6,1,1,1.5c0.1,0.1,0.2,0.2,0.2,0.4
		c0,0.1,0,0.2-0.1,0.3c-0.4,0.8-0.9,1.5-1.5,2.2c-0.9,1-2,1.5-3.3,1.5c-1,0-1.7-0.3-2.1-0.9c-0.4-0.5-0.6-1.4-0.7-2.6
		c-0.1-0.9-0.2-1.5-0.5-1.9c-0.2-0.3-0.4-0.4-0.7-0.4c-0.7,0-1.5,0.5-2.3,1.5c-0.6,0.8-1.3,2.2-2.1,4c-0.1,0.2-0.2,0.2-0.3,0.2
		c0,0-0.1,0-0.2,0c-0.6-0.2-1-0.5-1.4-0.8c-0.1-0.1-0.2-0.1-0.2-0.2c0-0.1,0-0.2,0.1-0.3c2.4-4.8,4.2-8.4,5.3-10.8
		C76.7,55.4,77,54.6,77.2,53.9z"/>
	<path d="M95.1,56.7c0.6-0.1,1.4-0.2,2.2-0.4c0.1,0,0.1,0,0.1,0c0.1,0,0.1,0.1,0.1,0.2c0.1,0.4,0.1,0.9,0.2,1.5
		c0,0.1-0.1,0.2-0.2,0.2c-0.6,0.1-1.6,0.3-3,0.5c-1.2,3.3-2.4,5.9-3.5,7.7c-0.1,0.1-0.1,0.2-0.2,0.2c0,0-0.1,0-0.2-0.1
		c-0.5-0.3-0.9-0.6-1.2-0.9c-0.1-0.1-0.1-0.1-0.1-0.2c0-0.1,0-0.1,0.1-0.2c1.3-2.2,2.4-4.3,3.1-6.3c-0.5,0-1.1,0-1.8,0
		c-0.4,0-0.7,0-1,0c-0.1,0-0.2-0.1-0.3-0.3c-0.1-0.3-0.1-0.8-0.2-1.5c0.7,0,1.2,0.1,1.7,0.1c0.7,0,1.4,0,2.1-0.1
		c0.2-0.6,0.3-1.2,0.5-2c0.1-0.4,0.1-0.9,0.1-1.5c1,0.1,1.7,0.3,2.1,0.4c0.2,0,0.3,0.1,0.3,0.3c0,0.1-0.1,0.2-0.2,0.3
		c-0.1,0.1-0.2,0.4-0.3,0.7c0,0.1-0.1,0.4-0.2,0.8C95.2,56.3,95.2,56.5,95.1,56.7z M98,64.2c-0.1-0.9-0.1-1.9-0.2-3.1
		c0-0.5-0.1-0.9-0.1-1.3c0.8,0.1,1.5,0.2,2,0.3c0.2,0,0.3,0.1,0.3,0.3c0,0,0,0.2-0.1,0.4c-0.1,0.2-0.1,0.3-0.1,0.5c0,0,0,0.1,0,0.2
		c0,0.9,0.1,1.9,0.2,3.1c1.4,0.6,2.4,1.1,3.2,1.7c0.1,0.1,0.2,0.1,0.2,0.2c0,0,0,0.1-0.1,0.2c-0.3,0.6-0.5,1-0.8,1.5
		c-0.1,0.1-0.1,0.1-0.2,0.1c0,0-0.1,0-0.2-0.1c-0.5-0.5-1.3-1-2.2-1.5c0,0.9-0.3,1.6-1,2.1c-0.6,0.4-1.3,0.6-2.3,0.6
		c-1.1,0-1.9-0.3-2.5-0.8c-0.5-0.5-0.8-1-0.8-1.8c0-0.8,0.3-1.5,1-2c0.6-0.4,1.4-0.6,2.3-0.6C97.1,64.1,97.5,64.2,98,64.2z M98,66
		c-0.5-0.2-1-0.3-1.5-0.3c-0.5,0-0.9,0.1-1.2,0.3c-0.3,0.2-0.4,0.4-0.4,0.7c0,0.6,0.5,0.9,1.5,0.9c0.5,0,0.9-0.1,1.2-0.4
		c0.2-0.2,0.4-0.5,0.4-0.9C98,66.2,98,66,98,66z M99.1,58.4c0.5-0.9,0.8-1.3,0.8-1.4c0.1-0.1,0.1-0.2,0.2-0.2c0,0,0.1,0,0.2,0
		c1.1,0.3,2.3,0.9,3.5,1.7c0.1,0.1,0.2,0.1,0.2,0.2c0,0.1,0,0.1-0.1,0.2c-0.2,0.4-0.4,0.9-0.8,1.3c-0.1,0.1-0.1,0.1-0.2,0.1
		c0,0-0.1,0-0.2-0.1C101.4,59.4,100.2,58.8,99.1,58.4z"/>
	<path d="M115.6,57.2c-0.5,3.3-1.2,5.9-2.2,7.8c-0.8,1.4-1.8,2.1-3.1,2.1c-0.9,0-1.7-0.5-2.3-1.4c-0.6-0.9-0.9-2-0.9-3.3
		c0-1.8,0.7-3.3,2-4.7c1.5-1.5,3.5-2.3,5.9-2.3c2.3,0,4,0.7,5.3,2c1.1,1.1,1.6,2.5,1.6,4.2c0,3.3-1.8,5.4-5.5,6.6
		c-0.1,0-0.2,0-0.3,0c-0.2,0-0.3-0.1-0.5-0.4c-0.3-0.4-0.7-0.8-1.3-1.1c1.9-0.4,3.2-1.1,4-1.9c0.9-0.9,1.4-2,1.4-3.5
		c0-1.2-0.4-2.2-1.3-3C117.7,57.6,116.7,57.2,115.6,57.2L115.6,57.2z M113.5,57.3c-1.3,0.3-2.3,0.8-3.1,1.6
		c-0.9,1.1-1.4,2.2-1.4,3.3c0,0.8,0.1,1.5,0.4,2c0.2,0.4,0.5,0.6,0.8,0.6c0.5,0,0.9-0.4,1.4-1.1c0.4-0.8,0.8-1.8,1.2-3.1
		C113.1,59.5,113.4,58.4,113.5,57.3z"/>
	<path d="M134.4,61.7c1.7,1.2,3.3,2.7,5,4.4c0.1,0.1,0.1,0.2,0.1,0.3s0,0.2-0.1,0.3c-0.4,0.5-0.8,0.9-1.2,1.2
		c-0.1,0.1-0.1,0.1-0.2,0.1s-0.2,0-0.3-0.1c-1.4-1.6-2.9-3.1-4.7-4.5c-1.9,2-3.9,3.5-6,4.8c-0.2,0.1-0.4,0.1-0.4,0.1
		c-0.1,0-0.2-0.1-0.3-0.2c-0.3-0.4-0.8-0.8-1.5-1.2c1.4-0.7,2.7-1.5,3.7-2.3c0.8-0.6,1.7-1.4,2.6-2.3c1.3-1.3,2.4-2.8,3.4-4.5
		l-4.6,0c-0.9,0-1.9,0-2.8,0.1c-0.1,0-0.2-0.1-0.2-0.3c-0.1-0.5-0.2-1.1-0.2-1.9c0.6,0,1.7,0.1,3,0.1h4.9c0.6,0,1-0.1,1.2-0.2
		c0.1,0,0.1-0.1,0.2-0.1c0.1,0,0.2,0,0.3,0.1c0.4,0.3,0.8,0.7,1.2,1.3c0.1,0.1,0.1,0.2,0.1,0.2c0,0.1-0.1,0.2-0.2,0.4
		c-0.2,0.2-0.5,0.5-0.7,0.8C136.1,59.5,135.3,60.6,134.4,61.7z"/>
	<path d="M152,64.5c0.5,0.5,1.1,1.1,1.6,1.8c0.1,0.1,0.1,0.2,0.1,0.3c0,0.1-0.1,0.2-0.2,0.3c-0.4,0.4-0.8,0.8-1.2,1.1
		c-0.1,0.1-0.2,0.1-0.2,0.1c-0.1,0-0.1-0.1-0.2-0.2c-1.7-2.2-3.6-4.1-5.8-5.6c0.6-0.6,1-1,1.3-1.2c0.1-0.1,0.1-0.1,0.2-0.1
		c0,0,0.1,0,0.3,0.1c1.2,0.9,2.1,1.5,2.5,2c1.3-1.1,2.7-2.6,4.2-4.2l-7.6,0c-1.3,0-2.4,0-3.3,0.1c-0.2,0-0.3-0.1-0.3-0.3
		c-0.1-0.6-0.2-1.3-0.2-1.9c0.8,0.1,2.1,0.1,3.9,0.1h7.4c0.8,0,1.3-0.1,1.5-0.2c0.1-0.1,0.2-0.1,0.3-0.1c0.1,0,0.2,0,0.3,0.1
		c0.5,0.4,0.9,0.9,1.3,1.4c0.1,0.2,0.1,0.3,0.1,0.4c0,0.2-0.1,0.3-0.2,0.4c-0.5,0.3-0.7,0.6-0.9,0.7C155.2,61.4,153.6,63,152,64.5z"
		/>
	<path d="M163.2,61.1c0.8,0.2,1.4,0.5,1.9,0.8c0.2,0.1,0.3,0.2,0.3,0.3c0,0.1-0.1,0.2-0.2,0.3c-0.2,0.1-0.3,0.3-0.4,0.6
		c-0.6,1.2-1.3,2.2-2,3c-0.1,0.1-0.2,0.2-0.4,0.2c-0.1,0-0.2,0-0.3-0.1c-0.6-0.4-1.1-0.7-1.5-0.8c0.9-1,1.7-2,2.2-3
		C163,62.1,163.1,61.7,163.2,61.1z M167.5,57.8V57c0-1.2-0.1-2.1-0.2-2.8c1,0.1,1.8,0.2,2.2,0.3c0.2,0,0.3,0.1,0.3,0.3
		c0,0.1,0,0.2-0.1,0.3c-0.1,0.2-0.2,0.8-0.2,1.8v1h2.2c0.7,0,1.9,0,3.7-0.1c0,0,0,0,0,0c0.1,0,0.2,0.1,0.2,0.3c0,0.2,0,0.4,0,0.6
		c0,0.3,0,0.6,0,0.8c0,0.2-0.1,0.4-0.3,0.3c-1.9-0.1-3.1-0.1-3.7-0.1h-2.1l0,3.6l0,3.1c0,0.9-0.4,1.5-1.1,1.9
		c-0.7,0.4-1.4,0.6-2.3,0.6c-0.2,0-0.3-0.1-0.4-0.4c-0.3-0.6-0.7-1.2-1.2-1.6c1.2,0,2-0.1,2.5-0.2c0.3-0.1,0.4-0.4,0.4-0.8v-6.2
		h-2.8c-1.1,0-2.1,0-3.1,0.1c-0.2,0-0.2-0.1-0.2-0.4c0-0.9-0.1-1.4-0.1-1.7c1.1,0.1,2.2,0.1,3.4,0.1H167.5z M171.4,62.3
		c0.2-0.1,0.4-0.3,0.8-0.5c0.3-0.2,0.5-0.3,0.6-0.4c0.1-0.1,0.1-0.1,0.2-0.1c0.1,0,0.2,0.1,0.3,0.2c0.8,0.7,1.7,1.8,2.6,3.3
		c0.1,0.1,0.1,0.2,0.1,0.3c0,0.1-0.1,0.2-0.2,0.3c-0.3,0.2-0.7,0.5-1.2,0.9c-0.1,0.1-0.2,0.1-0.2,0.1c-0.1,0-0.1-0.1-0.2-0.2
		C173.3,64.6,172.4,63.3,171.4,62.3z"/>
	<path d="M181.4,53.2c0.7,0,1.3,0.1,1.8,0.1c0.2,0,0.3,0.1,0.3,0.2c0,0.1,0,0.2-0.1,0.4c-0.1,0.2-0.1,0.8-0.1,1.8v3.4h0.1l1.9,0
		c0.1,0,0.2,0,0.2,0s0,0.1,0,0.2v1.3c0,0.1-0.1,0.2-0.2,0.2l-1.8,0c0.7,1.1,1.5,2.2,2.4,3.1c-0.3,0.3-0.5,0.7-0.7,1.2
		c-0.1,0.2-0.2,0.3-0.3,0.3s-0.2-0.1-0.3-0.3c-0.6-0.9-1.1-1.7-1.5-2.6l0.1,7.1c0,0.1,0,0.2,0,0.2c0,0-0.1,0-0.2,0h-1.5
		c-0.1,0-0.1,0-0.2,0s0-0.1,0-0.2c0,0,0-0.4,0-1.1c0-2.1,0.1-3.9,0.1-5.5c-0.6,1.5-1.3,2.9-2.2,4.1c-0.2,0.2-0.3,0.3-0.3,0.3
		c-0.1,0-0.1-0.1-0.2-0.3c-0.2-0.6-0.4-1-0.7-1.3c1.3-1.5,2.2-3.1,2.9-5h-0.3l-2,0c-0.1,0-0.2-0.1-0.2-0.2v-1.3c0-0.1,0-0.2,0-0.2
		s0.1,0,0.2,0l2,0h0.7v-3.3C181.5,54.7,181.5,53.9,181.4,53.2z M180.1,54.6c0.4,1,0.8,2,1,3c0,0,0,0.1,0,0.1c0,0.1-0.1,0.2-0.2,0.2
		l-0.8,0.3c-0.1,0-0.2,0.1-0.2,0.1c-0.1,0-0.1-0.1-0.1-0.2c-0.2-1-0.5-2-0.9-3c0-0.1,0-0.1,0-0.1c0-0.1,0.1-0.1,0.2-0.2l0.8-0.3
		c0.1,0,0.1-0.1,0.2-0.1C180,54.4,180.1,54.5,180.1,54.6z M183.6,57.8c0.4-0.9,0.6-1.8,0.8-2.7c0.1-0.3,0.1-0.5,0.1-0.8
		c0.7,0.2,1.2,0.4,1.4,0.5c0.1,0.1,0.2,0.1,0.2,0.2c0,0.1,0,0.1-0.1,0.2c-0.1,0.1-0.2,0.2-0.2,0.4c-0.2,0.6-0.5,1.4-0.8,2.3
		c-0.1,0.3-0.2,0.4-0.3,0.4c-0.1,0-0.2-0.1-0.4-0.2C184.1,58,183.8,57.9,183.6,57.8z M188.2,63.8l2.8-0.5V56c0-1.1,0-2-0.1-2.7
		c0.7,0,1.3,0.1,1.9,0.1c0.2,0,0.3,0.1,0.3,0.2c0,0,0,0.2-0.1,0.4c-0.1,0.2-0.1,0.8-0.1,2v6.9c0.4-0.1,0.8-0.2,1.2-0.3
		c0.1,0,0.2,0,0.3-0.1c0.1,0,0.1,0,0.1,0c0,0,0.1,0,0.1,0c0,0,0.1,0.1,0.1,0.2l0.2,1.4c0,0,0,0.1,0,0.1c0,0.1-0.1,0.1-0.2,0.1
		c0,0-0.2,0-0.6,0.1c-0.4,0.1-0.8,0.2-1.3,0.2v1.7l0,3.1c0,0.1,0,0.2,0,0.2c0,0-0.1,0-0.2,0h-1.5c-0.1,0-0.1,0-0.2,0
		c0,0,0-0.1,0-0.2l0-3.1V65l-2.5,0.5c-0.7,0.1-1.3,0.2-1.7,0.4c-0.1,0-0.2,0-0.4,0.1c-0.1,0-0.1,0-0.2,0c-0.1,0-0.1,0-0.1,0
		c-0.1,0-0.1-0.1-0.1-0.2l-0.2-1.4c0-0.1,0-0.1,0-0.1c0-0.1,0.1-0.1,0.2-0.1c0,0,0.1,0,0.3-0.1C186.8,64,187.4,63.9,188.2,63.8z
		 M187.3,58.6c0.9,0.6,1.8,1.4,2.5,2.3c0.1,0.1,0.1,0.1,0.1,0.2c0,0,0,0.1-0.1,0.2l-0.9,0.9c-0.1,0.1-0.2,0.1-0.2,0.1
		c0,0-0.1,0-0.1-0.1c-0.8-1-1.6-1.8-2.4-2.4c-0.1-0.1-0.1-0.1-0.1-0.1c0,0,0-0.1,0.1-0.2l0.8-0.8c0.1-0.1,0.1-0.1,0.2-0.1
		S187.2,58.6,187.3,58.6z M187.8,54.5c1,0.7,1.9,1.5,2.5,2.3c0.1,0.1,0.1,0.1,0.1,0.1s0,0.1-0.1,0.2l-0.9,0.8
		c-0.1,0.1-0.2,0.2-0.2,0.2s-0.1,0-0.1-0.1c-0.7-0.9-1.5-1.7-2.5-2.4c-0.1,0-0.1-0.1-0.1-0.1c0-0.1,0-0.1,0.1-0.2l0.8-0.8
		c0.1-0.1,0.2-0.1,0.2-0.1C187.7,54.4,187.7,54.4,187.8,54.5z"/>
	<path d="M199.2,69l-2.3,0c-0.1,0-0.2,0-0.2,0c0,0,0-0.1,0-0.1v-1.4c0-0.1,0-0.1,0-0.2c0,0,0.1,0,0.2,0l2.3,0h4.1v-3.9h-3.4l-2.4,0
		c-0.1,0-0.2,0-0.2,0c0,0,0-0.1,0-0.2v-1.4c0-0.1,0-0.1,0-0.2c0,0,0.1,0,0.2,0l2.4,0h3.4v-1.7h-0.7l-2.2,0c-0.1,0-0.2-0.1-0.2-0.2
		v-1.1c-0.7,0.5-1.7,0.9-2.8,1.4c-0.2,0.1-0.4,0.1-0.4,0.1c-0.1,0-0.2-0.1-0.4-0.4c-0.2-0.4-0.5-0.8-0.9-1.1c3.2-1.2,5.5-2.9,7-4.8
		c0.4-0.5,0.6-0.9,0.7-1.2c0.9,0.1,1.5,0.2,1.9,0.4c0.2,0.1,0.3,0.2,0.3,0.3c0,0.1-0.1,0.2-0.2,0.3c0,0-0.1,0-0.1,0.1
		c1.9,2.2,4.4,3.8,7.6,4.7c-0.3,0.3-0.6,0.8-0.8,1.3c-0.1,0.3-0.2,0.4-0.3,0.4c-0.1,0-0.2,0-0.4-0.1c-1-0.4-2-0.9-2.9-1.4v1.1
		c0,0.1-0.1,0.2-0.2,0.2l-2.2,0h-1v1.7h3.7l2.4,0c0.1,0,0.2,0,0.2,0s0,0.1,0,0.2v1.4c0,0.1,0,0.2-0.1,0.2l-0.1,0l-2.4,0h-3.7v3.9
		h4.4l2.3,0c0.1,0,0.1,0,0.2,0s0,0.1,0,0.2v1.4c0,0.1-0.1,0.2-0.2,0.2l-2.3,0H199.2z M200.7,63.9c0.5,0.7,0.9,1.5,1.3,2.4
		c0,0.1,0,0.1,0,0.1c0,0.1-0.1,0.1-0.2,0.2l-1.1,0.6c-0.1,0-0.2,0.1-0.2,0.1c0,0-0.1,0-0.1-0.1c-0.4-1-0.8-1.9-1.2-2.5
		c0-0.1-0.1-0.1-0.1-0.1c0,0,0.1-0.1,0.2-0.2l1-0.5c0.1,0,0.2-0.1,0.2-0.1C200.5,63.7,200.6,63.8,200.7,63.9z M200.9,58.4
		c0.2,0,0.8,0,1.7,0h3.6c0.9,0,1.5,0,1.7,0c-1.4-0.9-2.6-2-3.6-3.2C203.4,56.5,202.2,57.6,200.9,58.4z M206.5,66.6
		c0.4-0.6,0.8-1.2,1.2-2c0.2-0.4,0.3-0.7,0.3-0.9c0.5,0.1,1,0.3,1.5,0.6c0.2,0.1,0.3,0.2,0.3,0.3c0,0.1-0.1,0.2-0.2,0.3
		c-0.1,0.1-0.3,0.3-0.4,0.6c-0.3,0.6-0.6,1.2-0.9,1.6c-0.1,0.2-0.2,0.2-0.3,0.2c-0.1,0-0.2,0-0.4-0.1
		C207.1,66.8,206.7,66.7,206.5,66.6z"/>
	<path d="M219.2,58.2c0.2-0.7,0.4-1.4,0.5-2.3c0.1-0.7,0.2-1.4,0.2-2c0.9,0.2,1.6,0.4,2.2,0.6c0.2,0.1,0.3,0.2,0.3,0.4
		c0,0.1,0,0.2-0.1,0.3c-0.1,0.2-0.3,0.4-0.4,0.7c-0.1,0.3-0.2,0.7-0.3,1.1c-0.1,0.5-0.2,0.8-0.3,1c0.4-0.1,0.9-0.1,1.4-0.1
		c1.7,0,2.6,1.2,2.6,3.5c0,1.1-0.1,2.2-0.3,3.3c-0.2,1-0.4,1.8-0.7,2.4c-0.5,1.1-1.3,1.7-2.4,1.7c-0.8,0-1.5-0.1-1.9-0.3
		c-0.2-0.1-0.3-0.3-0.3-0.5c-0.1-0.7-0.2-1.3-0.3-1.7c0.7,0.3,1.4,0.5,2.1,0.5c0.3,0,0.6-0.1,0.7-0.2c0.1-0.1,0.3-0.4,0.4-0.7
		c0.5-1.2,0.7-2.7,0.7-4.5c0-0.7-0.1-1.1-0.2-1.3c-0.2-0.2-0.4-0.3-0.8-0.3c-0.4,0-0.9,0-1.5,0.1c-1.2,3.4-2.4,6.2-3.6,8.5
		c-0.1,0.1-0.2,0.2-0.3,0.2c-0.1,0-0.1,0-0.2-0.1c-0.6-0.3-1-0.5-1.2-0.8c-0.1-0.1-0.1-0.2-0.1-0.3c0-0.1,0-0.1,0.1-0.2
		c1.4-2.5,2.5-4.8,3.3-7.1c-0.4,0.1-1,0.2-1.8,0.3c-0.3,0.1-0.7,0.2-1,0.3c-0.1,0-0.2,0-0.2,0c-0.2,0-0.3-0.1-0.4-0.3
		c-0.2-0.4-0.4-1.1-0.6-1.9c0.7,0,1.5,0,2.4-0.1C217.7,58.4,218.4,58.3,219.2,58.2z M225.4,58.1c0.7-0.5,1.2-0.8,1.5-0.9
		c0,0,0.1,0,0.1,0c0.1,0,0.1,0,0.2,0.1c1.4,1.3,2.4,2.7,3,4.4c0,0.1,0,0.1,0,0.2c0,0.1,0,0.1-0.1,0.2c-0.3,0.3-0.8,0.6-1.4,0.9
		c-0.1,0-0.1,0.1-0.2,0.1c-0.1,0-0.2-0.1-0.2-0.2C227.6,60.8,226.7,59.2,225.4,58.1z M226.4,55.3l1-0.7c0,0,0.1,0,0.1,0
		c0,0,0.1,0,0.2,0.1c0.6,0.5,1.2,1.1,1.7,1.9c0,0,0.1,0.1,0.1,0.1c0,0.1,0,0.1-0.1,0.2l-0.8,0.6c-0.1,0-0.1,0.1-0.1,0.1
		c-0.1,0-0.1,0-0.2-0.1C227.7,56.5,227.1,55.8,226.4,55.3z M228.1,54.1l0.9-0.7c0,0,0.1,0,0.1,0c0,0,0.1,0,0.2,0.1
		c0.7,0.5,1.3,1.1,1.7,1.9c0,0.1,0.1,0.1,0.1,0.1c0,0.1,0,0.1-0.1,0.2l-0.7,0.6c-0.1,0-0.1,0.1-0.1,0.1c-0.1,0-0.1,0-0.2-0.1
		C229.4,55.4,228.8,54.7,228.1,54.1z"/>
	<path d="M21.9,95V107h2.6v1.7h-7.4V107h2.7v-9.8c-0.7,0.5-1.6,0.9-2.5,1.2l-0.4-1.9c1.1-0.3,2.2-0.9,3.2-1.6H21.9z"/>
	<path d="M44.6,108c-0.4,0.4-0.7,0.9-1,1.4c-0.1,0.3-0.2,0.4-0.3,0.4c-0.1,0-0.2-0.1-0.4-0.2c-3.3-2.2-5.5-5-6.4-8.6
		c-1,3.8-3.1,6.7-6.5,8.6c-0.2,0.1-0.4,0.2-0.4,0.2c-0.1,0-0.2-0.1-0.4-0.4c-0.3-0.4-0.6-0.8-1-1.2c2.5-1.1,4.3-2.9,5.5-5.2
		c1-1.9,1.5-4.1,1.5-6.5c0-1-0.1-1.8-0.1-2.3c0.7,0,1.4,0.1,2.2,0.2c0.2,0,0.3,0.1,0.3,0.3c0,0.1-0.1,0.3-0.2,0.4
		c-0.1,0.2-0.1,0.6-0.1,1.2c0,0.1,0,0.4,0,0.6c0.4,2.8,1.3,5.2,2.6,7C41,105.6,42.6,106.9,44.6,108z"/>
	<path d="M51.8,94.1c1,0.1,1.7,0.3,2.1,0.4c0.2,0.1,0.3,0.2,0.3,0.3c0,0.1,0,0.2-0.1,0.3c-0.1,0.1-0.2,0.4-0.3,0.7
		c0,0.1,0,0.3-0.1,0.5c0,0.2,0,0.3-0.1,0.4c1.6-0.2,3.1-0.4,4.7-0.8c0,0,0.1,0,0.1,0c0.1,0,0.2,0.1,0.2,0.2c0.1,0.5,0.2,0.9,0.2,1.2
		c0,0.2-0.1,0.3-0.4,0.4c-1.8,0.4-3.5,0.6-5.1,0.8c-0.1,0.7-0.1,1.3-0.1,1.8c0.7-0.2,1.6-0.4,2.8-0.4c0.2-0.5,0.3-0.9,0.3-1.3
		c0.8,0.2,1.3,0.5,1.6,0.7c0.2,0.1,0.3,0.3,0.3,0.4c0,0.1,0,0.1-0.1,0.2c-0.1,0-0.1,0.2-0.2,0.4c1.3,0.3,2.2,0.9,2.8,1.7
		c0.6,0.7,0.9,1.6,0.9,2.7c0,1.3-0.5,2.5-1.6,3.4c-0.9,0.7-2,1.3-3.4,1.7c-0.1,0-0.2,0.1-0.3,0.1c-0.2,0-0.4-0.1-0.5-0.4
		s-0.5-0.6-1.1-1.1c0.7-0.1,1.3-0.4,2-0.6c0.6-0.2,1-0.5,1.3-0.7c1-0.7,1.4-1.6,1.4-2.7c0-0.7-0.2-1.3-0.7-1.8
		c-0.4-0.4-0.9-0.6-1.5-0.8c-1,1.8-2.1,3.4-3.4,4.7c0,0.1,0.1,0.4,0.3,0.8c0,0.1,0.1,0.1,0.1,0.2c0,0.1-0.1,0.2-0.2,0.3
		c-0.4,0.3-0.7,0.5-1.1,0.6c-0.1,0-0.1,0.1-0.2,0.1c-0.1,0-0.1,0-0.2-0.1c-0.1-0.2-0.2-0.4-0.3-0.7c-1.3,0.9-2.3,1.3-3.1,1.3
		c-0.7,0-1.2-0.2-1.5-0.7c-0.3-0.4-0.5-0.9-0.5-1.6c0-1.2,0.5-2.3,1.4-3.4c0.8-0.9,1.7-1.6,2.8-2.2c0-0.6,0-1.4,0.1-2.2
		c-0.4,0-0.8,0-1.2,0l-0.6,0c-0.5,0-0.9,0-1,0c-0.2,0-0.3-0.2-0.3-0.4c0-0.2,0-0.4-0.1-0.7c0-0.4,0-0.6,0-0.7
		c0.6,0.1,1.2,0.1,1.9,0.1c0.1,0,0.6,0,1.6,0c0.1-0.9,0.1-1.5,0.1-2C51.8,94.7,51.8,94.4,51.8,94.1z M51.4,102.6
		c-0.8,0.5-1.3,1.1-1.8,1.8c-0.4,0.6-0.6,1.1-0.6,1.7c0,0.2,0.1,0.4,0.2,0.5c0.1,0.1,0.2,0.2,0.4,0.2c0.5,0,1.2-0.3,2.1-1
		C51.5,104.5,51.4,103.4,51.4,102.6z M53.4,104.5c0.8-0.9,1.5-2,2.1-3.1c-0.8,0-1.5,0.2-2.3,0.4C53.2,102.8,53.2,103.7,53.4,104.5z"
		/>
	<path d="M71.3,97.5c0.7-0.1,1.6-0.3,2.6-0.6c0,0,0.1,0,0.1,0c0.1,0,0.2,0.1,0.2,0.2c0.1,0.5,0.1,0.9,0.1,1.3c0,0,0,0.1,0,0.1
		c0,0.1-0.1,0.2-0.3,0.3c-1,0.3-2.1,0.5-3.1,0.7c-1.2,3.9-2.3,7.1-3.3,9.7c-0.1,0.1-0.1,0.2-0.2,0.2c0,0-0.1,0-0.2,0
		c-0.6-0.2-1.1-0.5-1.4-0.7c-0.1-0.1-0.2-0.1-0.2-0.3c0,0,0-0.1,0-0.1c1.3-2.9,2.3-5.7,3.1-8.5c-1.3,0.1-2.3,0.2-3.1,0.2
		c-0.2,0-0.3-0.1-0.4-0.3c-0.1-0.3-0.1-0.9-0.3-1.6c0.3,0,0.7,0.1,1.3,0.1c0.9,0,1.9-0.1,2.9-0.2c0.1-0.6,0.3-1.3,0.5-2.2
		c0.1-0.5,0.1-1.1,0.1-1.7c1.1,0.2,1.8,0.3,2.3,0.5c0.1,0,0.2,0.1,0.2,0.3c0,0.1,0,0.2-0.1,0.3c-0.2,0.4-0.4,0.6-0.4,0.7
		c-0.1,0.2-0.1,0.6-0.2,1C71.4,97.1,71.3,97.4,71.3,97.5z M71.6,105.8c0.7-0.2,1.2-0.3,1.5-0.3c0.2,0,0.3,0.1,0.3,0.3
		c0.1,0.7,0.4,1.1,0.9,1.4c0.4,0.2,1,0.3,1.9,0.3c0.7,0,1.7-0.1,3-0.3c0,0,0,0,0.1,0c0.1,0,0.1,0.1,0.2,0.2c0.1,0.6,0.1,1.2,0.1,1.6
		c0,0,0,0.1,0,0.1c0,0.1-0.1,0.2-0.3,0.2c-0.9,0.1-1.7,0.2-2.5,0.2c-1.3,0-2.2-0.1-2.9-0.3c-0.6-0.2-1.1-0.5-1.5-0.9
		C71.9,107.7,71.6,106.9,71.6,105.8z M73,102.4c-0.1-0.8-0.1-1.4-0.1-1.6c0-0.1,0-0.2,0.1-0.3c0,0,0.1-0.1,0.3-0.1
		c1.3-0.3,2.5-0.4,3.5-0.4c0.7,0,1.4,0.1,2.1,0.2c0.1,0,0.2,0,0.3,0.1c0,0,0.1,0.1,0.1,0.2c0,0.2,0,0.5,0,0.8c0,0.2,0,0.4,0,0.6
		c0,0.2-0.1,0.3-0.2,0.3c0,0-0.1,0-0.1,0c-0.7-0.1-1.5-0.2-2.2-0.2C75.6,102,74.4,102.1,73,102.4z"/>
	<path d="M86.4,94.4c0.9,0.2,1.5,0.4,2,0.6c0.2,0.1,0.3,0.2,0.3,0.4c0,0.1,0,0.2-0.1,0.3c-0.1,0.1-0.2,0.4-0.3,0.8
		c-0.2,0.8-0.3,1.9-0.5,3.4c0,0.8-0.1,1.3-0.1,1.5c0,0.2,0,0.3,0,0.5c0.4-0.8,0.9-1.5,1.3-2.3c0.1,0.4,0.3,0.8,0.6,1.2
		c0.1,0.1,0.1,0.2,0.1,0.3c0,0.1-0.1,0.3-0.2,0.4c-0.6,1.1-0.9,1.8-1.1,2.3c0,0.1-0.1,0.3-0.1,0.5c0,0.2-0.1,0.2-0.2,0.3
		c-0.2,0.1-0.7,0.1-1.4,0.2c-0.1,0-0.2-0.1-0.3-0.2c-0.4-1-0.5-2.2-0.5-3.6c0-0.8,0.1-2.3,0.4-4.5C86.3,95.6,86.4,94.9,86.4,94.4z
		 M92.1,94.4c1,0,1.7,0.1,2.1,0.2c0.2,0.1,0.4,0.2,0.4,0.3c0,0,0,0.1,0,0.2c0,0.2,0,0.4,0,0.8c0.2,2.3,0.3,3.8,0.3,4.6
		c0,2.8-0.5,4.8-1.4,6.2c-0.7,1.1-1.7,2.1-3,2.9c-0.1,0.1-0.2,0.1-0.4,0.1c-0.1,0-0.2-0.1-0.4-0.2c-0.5-0.4-1-0.7-1.5-0.8
		c1.4-0.8,2.4-1.6,3.1-2.4c0.6-0.8,1-1.6,1.2-2.5c0.2-0.8,0.3-1.9,0.3-3.2c0-1.5-0.1-3-0.2-4.3C92.4,95.6,92.3,95,92.1,94.4z"/>
	<path d="M100.1,107.6c0.6,0,1.2-0.1,1.7-0.1c0.1,0,0.2,0,0.3,0v-5.7c-0.5,0-1,0-1.4,0c-0.3,0-0.4,0-0.4,0c-0.1,0-0.1,0-0.2,0
		s0-0.1,0-0.2v-1.1c0-0.1,0-0.1,0-0.2s0.1,0,0.2,0l2.2,0h11.6l2.2,0c0.1,0,0.2,0.1,0.2,0.2v1.1c0,0.1-0.1,0.2-0.2,0.2l-2.2,0H108v6
		l0,2.2c0,0.1,0,0.1,0,0.2s-0.1,0-0.2,0h-1.3c-0.1,0-0.2,0-0.2,0c0,0,0-0.1,0-0.2c0,0,0-0.2,0-0.6c0-0.4,0-0.8,0-1.2
		c-1.6,0.3-3.1,0.6-4.7,0.8c-0.3,0-0.5,0.1-0.7,0.2c-0.1,0.1-0.2,0.1-0.3,0.1c-0.1,0-0.2-0.1-0.2-0.3
		C100.4,108.8,100.2,108.3,100.1,107.6z M111.6,94.4l2.5,0c0.1,0,0.2,0,0.2,0c0,0,0,0.1,0,0.2l0,1.5v1.9l0,1.5c0,0.1,0,0.2,0,0.2
		c0,0-0.1,0-0.2,0l-2.5,0H105l-2.5,0c-0.1,0-0.2,0-0.2,0c0,0,0-0.1,0-0.2l0-1.5V96l0-1.5c0-0.1,0-0.2,0-0.2c0,0,0.1,0,0.2,0l2.5,0
		H111.6z M103.8,102.8h2.5v-0.9h-2.5V102.8z M103.8,104.9h2.5v-0.9h-2.5V104.9z M106.3,106.9V106h-2.5v1.2
		C105.1,107.1,105.9,107,106.3,106.9z M104.1,95.7v0.7h8.3v-0.7H104.1z M112.5,98.3v-0.8h-8.3v0.8H112.5z M108,108.5
		c1.1-0.3,2.1-0.8,2.9-1.3c-0.7-0.8-1.3-1.8-1.8-2.9c-0.2,0-0.3,0-0.5,0c-0.1,0-0.2,0-0.2,0c0,0,0-0.1,0-0.2v-1c0-0.1,0-0.2,0-0.2
		c0,0,0.1,0,0.2,0l2,0h3c0.1,0,0.2,0,0.3-0.1c0.1,0,0.2-0.1,0.3-0.1c0.1,0,0.3,0.1,0.6,0.4c0.3,0.3,0.5,0.5,0.5,0.7
		c0,0.1-0.1,0.2-0.2,0.3c-0.1,0.1-0.3,0.3-0.5,0.8c-0.4,0.9-0.9,1.6-1.5,2.2c0.9,0.5,1.9,0.9,3.2,1.2c-0.3,0.4-0.5,0.8-0.6,1.2
		c-0.1,0.3-0.2,0.4-0.3,0.4c-0.1,0-0.2,0-0.4-0.1c-1.2-0.4-2.2-0.9-3.1-1.5c-0.8,0.6-1.7,1.2-2.7,1.6c-0.2,0.1-0.3,0.1-0.4,0.1
		c-0.1,0-0.2-0.1-0.3-0.4C108.5,109.1,108.3,108.8,108,108.5z M112.1,106.2c0.5-0.5,0.9-1.2,1.2-1.9h-2.6
		C111.1,105,111.6,105.6,112.1,106.2z"/>
	<path d="M121,100.3l-2.3,0c-0.1,0-0.2,0-0.2,0c0,0,0-0.1,0-0.2v-1.5c0-0.1,0-0.1,0-0.2s0.1,0,0.2,0l2.3,0h4.1
		c0-0.5,0.1-1.3,0.1-2.4c0-0.1,0-0.3,0-0.4c0-0.6,0-1.2-0.1-1.7c0.9,0,1.6,0.1,2.1,0.1c0.2,0,0.3,0.1,0.3,0.3c0,0.1,0,0.2-0.1,0.4
		c-0.1,0.2-0.1,0.6-0.2,1.3c0,1.1-0.1,2-0.1,2.5h4.6l2.3,0c0.1,0,0.1,0,0.2,0s0,0.1,0,0.2v1.5c0,0.1,0,0.2,0,0.2c0,0-0.1,0-0.2,0
		l-2.3,0h-4.3c0.6,1.9,1.6,3.6,2.9,5c1.2,1.3,2.6,2.2,4.3,2.9c-0.4,0.4-0.8,0.8-1,1.4c-0.2,0.3-0.3,0.4-0.4,0.4
		c-0.1,0-0.2-0.1-0.4-0.2c-3-1.6-5.2-4-6.4-7.3c-0.2,0.6-0.4,1.2-0.7,1.7c-1.2,2.4-3.1,4.3-5.8,5.6c-0.2,0.1-0.4,0.1-0.4,0.1
		c-0.1,0-0.2-0.1-0.4-0.4c-0.3-0.4-0.6-0.8-1-1.1c2.7-1.1,4.7-2.7,5.8-5c0.5-0.9,0.8-2,1-3.2H121z"/>
	<path class="st0" d="M156.4,100.7L156.4,100.7c3.5,1.5,5.3,3.8,5.3,7c0,4.6-3.9,7.6-10.4,7.6c-6.6,0-10.4-3-10.4-7.6
		c0-2.6,1.7-4.7,5-6.3v-0.1c-2.8-1.5-4.2-3.7-4.2-6.4c0-2,0.9-3.6,2.6-4.8s4.1-1.9,7.1-1.9c3,0,5.4,0.6,7.1,1.9s2.6,2.8,2.6,4.8
		C160.9,97.2,159.4,99.2,156.4,100.7z M146.7,107.4c0,2.1,1.9,3.6,4.5,3.6c2.6,0,4.5-1.5,4.5-3.6c0-1-0.3-1.7-1-2.3
		c-0.7-0.6-2-1.2-4.1-1.8C147.7,104.4,146.7,105.7,146.7,107.4z M155.1,95.6c0-1.8-1.5-3-3.9-3c-2.3,0-3.8,1.3-3.8,3
		c0,1.5,1.1,2.7,4.1,3.6C154.1,98.1,155.1,97,155.1,95.6z"/>
	<path class="st0" d="M183.9,106c0,6.2-3.7,9.3-11,9.3c-2.4,0-4.7-0.3-6.8-1v-5.2c2.5,0.9,4.7,1.3,6.6,1.3c3.5,0,5.3-1.5,5.3-4.4
		c0-2.4-1.2-3.6-3.6-3.6c-1,0-2.1,0.5-3.1,1.4H166l0.7-15.1h16v4.9h-10.5l-0.3,4.9h0.1c1.1-0.5,2.3-0.7,3.5-0.7
		C180.9,97.7,183.9,100.7,183.9,106z"/>
	<path class="st0" d="M203.2,100.7L203.2,100.7c3.5,1.5,5.3,3.8,5.3,7c0,4.6-3.9,7.6-10.4,7.6c-6.6,0-10.4-3-10.4-7.6
		c0-2.6,1.7-4.7,5-6.3v-0.1c-2.8-1.5-4.2-3.7-4.2-6.4c0-2,0.9-3.6,2.6-4.8s4.1-1.9,7.1-1.9c3,0,5.4,0.6,7.1,1.9s2.6,2.8,2.6,4.8
		C207.7,97.2,206.2,99.2,203.2,100.7z M193.5,107.4c0,2.1,1.9,3.6,4.5,3.6c2.6,0,4.5-1.5,4.5-3.6c0-1-0.3-1.7-1-2.3
		c-0.7-0.6-2-1.2-4.1-1.8C194.5,104.4,193.5,105.7,193.5,107.4z M201.9,95.6c0-1.8-1.5-3-3.9-3c-2.3,0-3.8,1.3-3.8,3
		c0,1.5,1.1,2.7,4.1,3.6C200.9,98.1,201.9,97,201.9,95.6z"/>
	<path class="st0" d="M221,117.2h-5.6V87h29.8v23.8c0,1.1-0.1,1.9-0.1,2.6c-0.1,1.2-0.4,2.4-0.9,2.9c-0.2,0.3-0.6,0.4-1.1,0.6
		c-1,0.3-2,0.3-4,0.3c-1.8,0-3.8,0-5.9-0.1l-0.3-4.8c3.1,0.1,4.8,0.2,5,0.2c0.8,0,1.2-0.1,1.4-0.2c0.1-0.1,0.2-0.5,0.2-1.2v-6.4H221
		V117.2z M221,100.1h6.6v-8.4H221V100.1z M239.5,100.1v-8.4H233v8.4H239.5z"/>
	<path class="st0" d="M268.2,100.8h-5.8v1h7.1v4h-19.7v-4h7.1v-1h-5.8v-3.3h5.8v-1h-5.4v-1.9H250v-7.1h6.9v-2.3h5.5v2.3h6.9v7.1
		h-1.5v1.9h-5.4v1h5.8V100.8z M262.8,117.9v-1.3h-6.2v1.3h-5.3v-11.1H268v11.1H262.8z M257.3,91.9h-2.5v1h2.5V91.9z M256.6,110.9
		v1.7h6.2v-1.7H256.6z M264.5,92.9v-1h-2.5v1H264.5z M275.1,87.6v22.5h-4.8V87.6H275.1z M276.9,86.2h4.9v25.3c0,1.1,0,1.9,0,2.6
		c0,1.2-0.4,2.4-0.8,2.8c-0.8,0.9-1.9,1-4.3,1c-1.1,0-2.7-0.1-4.7-0.2l-0.3-4.8c1.8,0.1,3.7,0.2,4,0.2c1.2,0,1.2,0,1.2-1.4V86.2z"/>
	<path class="st0" d="M289.6,117.7l-0.1-4.7c3.1,0.1,5.4,0.2,7.2,0.2c1.6-0.2,1.5,0,2.2-6.2h-6.7l-0.5,3.1l-5.3-0.3
		c0.8-5.5,1.4-10.5,1.8-15.2h10.8v-3.3h-11.8v-4.6h17.3V99h-11.2l-0.2,1.8l-0.2,1.8h11.9l-0.2,3.3c-0.3,4.5-0.7,7.1-1.3,8.9
		c-0.9,2.8-2.2,3.1-4.9,3.1C295.2,117.9,292.3,117.8,289.6,117.7z M316.3,86.2v31.5h-5.8V86.2H316.3z"/>
</g>
<g>
</g>
<g>
	<path class="st1" d="M375.2,74.2c0.5-0.4,1.1-0.6,1.7-0.5c0.6,0.1,1.1,0.4,1.5,1c0.2,0.4,0.3,0.8,0.3,1.2c0.1,1.6-0.2,3.1-0.9,4.6
		c-0.3,0.7-0.8,1.3-1.4,1.9c-0.5,0.4-1.1,0.7-1.7,0.8l-0.3,0c-0.1,0.5-0.3,1-0.4,1.2c-0.5,1.3-3.2,5.8-6.5,7.5c0,1,0.1,2,0.3,2.9
		c0.2,1.1,0.1,2,1.6,2.6c0.1,0,1.8,0.7,1.9,0.8c0,0-0.1,8.4-10.8,8.4s-9.4-8.8-9.4-8.8c0.3-0.1,1-0.3,1.1-0.4
		c1.5-0.5,1.4-1.5,1.6-2.6c0.2-1,0.3-1.9,0.3-2.9c-1.5-0.8-2.9-1.9-4-3.3c-1.3-1.6-2.2-3.4-2.8-5.4l-0.5-0.1
		c-0.6-0.1-1.2-0.4-1.7-0.8c-0.6-0.5-1.1-1.1-1.4-1.9c-0.7-1.4-1-3-0.9-4.6c0-0.4,0.1-0.8,0.3-1.2c0.3-0.5,0.9-0.9,1.5-1
		c0.6-0.1,1.2,0.1,1.7,0.5c0,0-2.7-12.9,14.6-12.9C378.2,61.3,375.2,74.2,375.2,74.2z"/>
	<path class="st2" d="M349,94.3c2-0.3,3.7-1.3,4.5-2.4l0.3-0.4c-1.3-0.8-2.5-1.8-3.5-3c-1.3-1.6-2.2-3.4-2.8-5.4l-0.5-0.1
		c-0.6-0.1-1.2-0.4-1.7-0.8c-0.2-0.2-0.4-0.4-0.6-0.6c-0.4,0.7-0.6,1.6-0.7,2.4c-0.1,0.5-0.1,1.1-0.1,1.6c0,0.1,0,0.2,0,0.3
		c0.1,1.2,0.3,2.3,0.4,3.5c0.1,1.3-0.3,2.5-1.5,2.9c0,0-0.1,0.2-0.1,0.2c0,0.1,0,0.2,0.1,0.3c0.2,0.2,0.4,0.4,0.6,0.5
		C344.8,94.2,346.8,94.7,349,94.3z"/>
	<path class="st2" d="M377.5,64.7c-0.1-0.3-0.1-0.6-0.2-0.9c-1.5-7.3-8.9-13.1-16.6-12.7c-7.7-0.4-15.1,5.4-16.6,12.7
		c-0.4,2-0.4,5.4,0,6.9l0.7,2.9c0.6,0,1.1,0.2,1.5,0.5c3.1-2.1,8.2-5.8,10.9-8.1c-0.2,1.4-1,3.7,0,3.5c4.1-1,8.1-2.9,10.5-5.9
		c0.5,1.8,1.3,4.2,1.9,5.2c0.9,1.5,3.4,4.8,5.5,5.3c0.5-0.4,1.1-0.6,1.7-0.5c0.1,0,0.2,0,0.3,0.1C378.3,71.2,377.9,67.2,377.5,64.7z
		"/>
	<path class="st3" d="M344.8,70.6c-0.2-0.8-0.3-1.7-0.3-2.6c0-1.1,0-2.1,0.1-3.1c0.2-1.9,0.9-3.7,1.9-5.3c2.1-3.4,5.3-6,9.1-7.2
		c0.9-0.3,1.9-0.5,2.9-0.6c1-0.1,2-0.1,3-0.1c2,0,4,0.4,5.8,1.2c3.7,1.6,6.7,4.4,8.4,8c0.7,1.6,1.2,3.4,1.3,5.2c0.2,2,0.4,4.1,0,6.1
		c-0.1,0.5-0.2,0.9-0.4,1.3c-0.1,0.3,0.1,0.7,0.4,0.8c0.3,0.1,0.7-0.1,0.8-0.4c0.8-2,0.8-4.2,0.6-6.3c-0.1-1.9-0.4-4-1.1-5.8
		c-1.4-4-4.5-7.4-8.2-9.3c-1.9-1-4-1.7-6.2-1.9c-1.1-0.1-2.1-0.1-3.2-0.1c-1.1,0-2.2,0.1-3.2,0.4c-4.2,0.9-8,3.4-10.5,6.9
		c-1.2,1.7-2.1,3.6-2.6,5.7c-0.4,2.1-0.5,4.2-0.3,6.3c0,0.4,0.1,0.9,0.2,1.3C343.7,71.8,344.9,71.4,344.8,70.6z"/>
	<path class="st3" d="M367.2,64c0.3,1,0.6,2,1,3c0.3,0.8,0.6,1.6,1.1,2.3c0.9,1.5,2,2.8,3.3,4c0.7,0.6,1.5,1.2,2.5,1.4
		c0.8,0.2,1.1-1,0.3-1.2c-1.4-0.4-2.7-1.8-3.6-2.9c-0.9-1.1-1.7-2.4-2.2-3.7c-0.4-1.1-0.8-2.2-1.1-3.3C368.3,62.9,367,63.2,367.2,64
		L367.2,64z"/>
	<path class="st3" d="M367.4,63.1c-1.4,1.7-3.1,3-5.1,4c-1,0.5-2.1,0.9-3.1,1.3c-0.6,0.2-1.1,0.3-1.7,0.5c-0.1,0-0.1,0-0.2,0.1
		c-0.1,0-0.1,0,0,0c0,0-0.1-0.1,0,0c0.1,0,0.1,0.1,0.2,0.1c0,0,0.1,0.1,0.1,0.1c0,0,0-0.1,0,0c0,0.1,0-0.1,0-0.1
		c0-0.9,0.3-1.8,0.5-2.7c0.1-0.3-0.1-0.7-0.5-0.8c-0.2-0.1-0.4,0-0.6,0.2c-2.7,2.3-5.6,4.4-8.5,6.4c-0.8,0.5-1.5,1.1-2.3,1.6
		c-0.3,0.2-0.4,0.6-0.2,0.9c0.2,0.3,0.6,0.4,0.9,0.2c3-2.1,6-4.2,8.9-6.5c0.7-0.6,1.4-1.1,2.1-1.7l-1.1-0.6c-0.2,1-0.5,2-0.5,3
		c0,0.4,0.1,0.8,0.4,1.1c0.5,0.4,1.1,0.1,1.6,0c2.5-0.6,4.9-1.7,7-3.1c1.2-0.8,2.2-1.7,3.1-2.8c0.2-0.3,0.2-0.7,0-0.9
		C368,62.9,367.6,62.9,367.4,63.1L367.4,63.1z"/>
	<path class="st3" d="M344.1,81.3c-0.8,1.6-1,3.5-0.8,5.3c0.1,1,0.3,1.9,0.3,2.9c0,0.6,0,1.3-0.4,1.8c-0.2,0.3-0.5,0.3-0.7,0.5
		c-0.4,0.3-0.4,0.9-0.2,1.3c0.4,0.7,1.3,1.1,2,1.4c1.7,0.6,3.5,0.8,5.2,0.5c1.8-0.3,3.6-1.2,4.6-2.7c0.5-0.7-0.6-1.3-1.1-0.6
		c-1,1.4-3,2.1-4.7,2.2c-1,0.1-2,0-3-0.3c-0.4-0.1-0.8-0.3-1.1-0.4c-0.2-0.1-0.4-0.2-0.6-0.3c-0.1,0-0.1-0.1-0.2-0.2
		c-0.1,0,0-0.1,0,0l-0.2,0.3l0,0l-0.3,0.2c2.1-0.7,2.1-3,1.8-4.8c-0.3-2.1-0.6-4.3,0.4-6.2C345.6,81.2,344.5,80.5,344.1,81.3
		L344.1,81.3z"/>
	<path class="st3" d="M375.7,74.6c0.6-0.5,1.6-0.4,2.1,0.2c0,0,0,0,0,0.1c0.2,0.4,0.3,0.8,0.3,1.3c0,0.5,0,1.1-0.1,1.6
		c-0.3,1.9-1.3,4.2-3.4,4.6c-0.3,0.1-0.5,0.4-0.4,0.8c0.1,0.3,0.4,0.5,0.8,0.4c2.2-0.4,3.5-2.4,4.1-4.4c0.3-1,0.4-2.1,0.4-3.2
		c-0.1-1.1-0.4-2.1-1.4-2.6c-1-0.6-2.3-0.4-3.2,0.4c-0.2,0.3-0.2,0.7,0,0.9C375,74.9,375.4,74.9,375.7,74.6L375.7,74.6z"/>
	<path class="st3" d="M374.1,81.3c0,0.6-0.1,1.2-0.3,1.8c-0.1,0.2-0.1,0.5-0.2,0.7c0,0.1,0,0.1-0.1,0.2c0,0-0.1,0.2,0,0
		c-0.3,0.6-0.6,1.2-1,1.8c-1,1.7-2.3,3.2-3.8,4.4c-0.8,0.7-1.8,1.2-2.8,1.4c-0.8,0.2-0.5,1.4,0.3,1.2c2.2-0.5,4-2,5.4-3.7
		c1.2-1.3,2.2-2.8,3-4.4c0.5-1.1,0.8-2.3,0.9-3.5C375.4,80.5,374.1,80.5,374.1,81.3z"/>
	<path class="st3" d="M346.9,73.7c-0.8-0.7-1.9-0.9-2.8-0.5c-1.1,0.4-1.6,1.3-1.7,2.4c-0.3,2.2,0.3,4.3,1.5,6.1
		c0.7,1,1.7,1.7,2.9,1.9c0.3,0.1,0.7-0.1,0.8-0.4c0.1-0.3-0.1-0.7-0.4-0.8c-2.1-0.4-3.1-2.7-3.4-4.6c-0.1-0.5-0.1-1-0.1-1.6
		c0-0.4,0-0.9,0.3-1.3c0.5-0.7,1.4-0.8,2.1-0.3c0,0,0,0,0.1,0c0.3,0.2,0.7,0.2,0.9,0C347.1,74.4,347.1,74,346.9,73.7L346.9,73.7z"/>
	<path class="st3" d="M346.4,81.1c0.8,4.5,3.2,8.9,7.4,11.1c1.1,0.6,2.4,1,3.6,1.1c0.4,0,0.6-0.3,0.6-0.6c0-0.4-0.3-0.6-0.6-0.6
		c-4.3-0.4-7.7-4.3-9-8.2c-0.3-1-0.6-2-0.8-3c-0.1-0.3-0.4-0.5-0.8-0.4C346.5,80.4,346.3,80.8,346.4,81.1z"/>
	<path class="st3" d="M351.4,98.2c0.5-0.2,1.1-0.4,1.6-0.6c0.6-0.3,1-0.8,1.3-1.4c0.2-0.5,0.3-1.1,0.3-1.6c0.2-0.9,0.3-1.9,0.3-2.8
		c0-0.8-1.2-0.8-1.3,0c0,0.8-0.1,1.6-0.2,2.4c-0.1,0.5-0.2,1-0.3,1.5c0,0,0,0.1,0,0.1c0,0.1,0-0.1,0,0c0,0.1-0.1,0.1-0.1,0.2
		c0,0-0.1,0.2,0,0.1c-0.1,0.2-0.3,0.3-0.6,0.4c-0.4,0.2-0.8,0.3-1.3,0.4c-0.3,0.1-0.5,0.4-0.4,0.8C350.7,98.1,351.1,98.3,351.4,98.2
		z"/>
	<path class="st3" d="M366.9,91.7c0.1,1.2,0.2,2.3,0.4,3.4c0.1,0.7,0.3,1.4,0.8,1.9c0.5,0.5,1.1,0.7,1.7,0.9c0.5,0.2,1,0.4,1.4,0.6
		c0.3,0.1,0.7-0.1,0.8-0.4c0.1-0.3-0.1-0.7-0.4-0.8c-0.4-0.2-0.9-0.3-1.3-0.5c-0.4-0.2-0.9-0.3-1.2-0.6c-0.2-0.1-0.3-0.3-0.3-0.6
		c-0.1-0.3-0.1-0.6-0.2-0.9c-0.2-1-0.3-2-0.3-3C368.2,90.9,366.9,90.9,366.9,91.7L366.9,91.7z"/>
	<path class="st1" d="M352,140.1c0.4-11.2-0.4-31-0.8-39.6c2.5,2.9,6.1,4.6,10,4.7c3.7,0,7.4-1.9,9.9-4.9
		c-0.4,8.5-1.2,28.6-0.8,39.9"/>
	<path class="st4" d="M352,140.1c0.4-13.1-0.7-38.1-1-43c-4,1.6-6.9,3.2-10.5,5.6c-1.9,1.3-3.8,2.7-5,4.6c-0.5,0.9-1,1.9-1.3,3
		c-2.9,7.9-4.1,20.8-5.5,29.5"/>
	<path class="st3" d="M340.2,118.1c0,1.6,0.2,3.3,0.5,4.9c0.1,0.8,0.3,1.6,0.4,2.4c0.1,0.7,0.2,1.5,0.3,2.2c0,2.4-0.1,4.8-0.2,7.2
		c-0.1,1.7-0.1,3.4-0.1,5.1c0,0.8,1.3,0.8,1.3,0c0-2.8,0.1-5.6,0.2-8.5c0-1.1,0.1-2.3,0.1-3.4c0-1.5-0.3-3-0.6-4.5
		c-0.3-1.8-0.5-3.5-0.6-5.3C341.5,117.3,340.2,117.3,340.2,118.1L340.2,118.1z"/>
	<path class="st3" d="M350.4,97.1c0.1,1.6,0.2,3.3,0.2,5c0.1,2.7,0.2,5.4,0.3,8.1c0.1,3.3,0.2,6.6,0.3,9.8c0.1,3.4,0.1,6.7,0.2,10.1
		c0,3,0,6-0.1,9c0,0.3,0,0.6,0,1c0,0.8,1.3,0.8,1.3,0c0.1-2.9,0.1-5.9,0.1-8.8c0-3.3-0.1-6.7-0.2-10c-0.1-3.3-0.2-6.6-0.3-9.9
		c-0.1-2.8-0.2-5.6-0.3-8.4c-0.1-1.8-0.2-3.6-0.3-5.4c0-0.1,0-0.3,0-0.4C351.6,96.3,350.3,96.3,350.4,97.1L350.4,97.1z"/>
	<path class="st3" d="M350.7,100.9c2,2.4,4.8,4,7.9,4.6c3,0.5,6.1,0,8.8-1.5c1.5-0.9,2.9-2,4-3.4c0.2-0.3,0.2-0.7,0-0.9
		c-0.3-0.2-0.7-0.2-0.9,0c-1.8,2.2-4.3,3.8-7.1,4.5c-2.7,0.6-5.6,0.2-8.1-1.2c-1.4-0.8-2.7-1.8-3.7-3c-0.3-0.2-0.7-0.2-0.9,0
		C350.5,100.3,350.5,100.7,350.7,100.9L350.7,100.9z"/>
	<path class="st3" d="M350.8,96.5c-3.4,1.4-6.7,3.1-9.7,5.1c-1.5,1-3.1,2-4.4,3.3c-0.6,0.6-1.2,1.3-1.7,2.1
		c-0.5,0.9-0.9,1.7-1.2,2.7c-1.1,2.9-1.9,5.9-2.5,9c-0.7,3.4-1.2,6.8-1.7,10.2c-0.5,3.6-1,7.2-1.5,10.8c-0.1,0.3,0.1,0.7,0.4,0.8
		c0.3,0.1,0.7-0.1,0.8-0.4c1-6.5,1.7-13,2.9-19.4c0.5-3.1,1.3-6.1,2.2-9c0.5-1.6,1.1-3.3,2.2-4.7c1-1.3,2.4-2.4,3.8-3.3
		c3.4-2.2,6.8-4.2,10.6-5.7c0.3-0.1,0.5-0.4,0.4-0.8C351.4,96.6,351.1,96.4,350.8,96.5L350.8,96.5z"/>
	<path class="st1" d="M399.3,113c0.1-0.4,0.8-2.5,1.3-3.6c0.2-0.3,0.4-0.5,0.8-0.6c1.6-0.6,4.5-2.9,6-5.1c0.3,0,0.5,0,0.8-0.2
		c0.5-0.3,1.1-0.7,1.6-1.1c0.3-0.2,0.4-0.5,0.5-0.8c0-0.3,0-0.5-0.1-0.8c-0.1-0.2-0.2-0.3-0.4-0.4l0,0c0.3-0.2,0.6-0.4,0.8-0.7
		l0.8-1c0.3-0.4,0.6-0.8,0.9-1.3c0.1-0.2,0.1-0.3,0.1-0.5c0.1-0.4,0-0.7-0.2-1c-0.2-0.4-0.7-0.6-1.1-0.5c0.3-0.3,0.7-0.7,1-1.1
		c0.3-0.3,0.5-0.6,0.6-1c0.2-0.7-0.3-1.4-1-1.6c-0.1,0-0.2,0-0.4,0c-0.7,0-1.3,0.6-1.7,1.2l-2.2,1.5l-8.5-1l-1.1-1.9
		c-0.3-0.3-0.7-0.7-1.2-0.7c-0.6,0-1,0.7-1.3,1.3c-0.7,1.6-1.3,2.6-1.8,4.5c-0.3,0.9-0.5,1.9-0.6,2.8c-0.2,1.5,0.5,3,0.6,4.5
		c0.1,1.2,0,2.4-0.2,3.6c-0.2,1.3-0.5,2.6-0.8,3.9"/>
	<path class="st3" d="M398,91c-0.6-0.6-1.3-1.1-2.1-0.8c-0.7,0.2-1.1,0.9-1.4,1.5c-0.6,1.4-1.4,2.8-1.8,4.3
		c-0.5,1.6-0.9,3.2-0.7,4.9c0.1,0.9,0.4,1.7,0.5,2.5c0.1,0.9,0.2,1.7,0,2.6c-0.2,1.7-0.5,3.4-1,5.1c-0.2,0.8,1,1.1,1.2,0.3
		c0.4-1.3,0.6-2.6,0.8-4c0.2-0.9,0.2-1.7,0.3-2.6c0-0.8-0.1-1.7-0.3-2.5c-0.2-0.8-0.3-1.5-0.4-2.3c0-0.7,0.1-1.5,0.3-2.1
		c0.3-1.4,0.8-2.8,1.4-4.1c0.3-0.7,0.6-1.4,0.9-2c0.1-0.2,0.3-0.4,0.5-0.5c0.3,0,0.6,0.3,0.7,0.5C397.7,92.5,398.6,91.6,398,91
		L398,91z"/>
	<path class="st3" d="M409.8,93.3c0.4-0.4,0.9-1.2,1.5-1c0.3,0.1,0.5,0.3,0.5,0.6c0,0.3-0.1,0.6-0.3,0.9c-1.1,1.3-2.3,2.5-3.8,3.3
		c-0.7,0.4-0.1,1.6,0.6,1.1c0.9-0.6,1.8-1.2,2.6-2c0.4-0.4,0.8-0.8,1.1-1.2c0.4-0.4,0.7-0.9,0.9-1.4c0.3-1.1-0.3-2.2-1.3-2.5
		c-0.1,0-0.1,0-0.2,0c-1.1-0.2-2,0.5-2.7,1.3c-0.2,0.3-0.2,0.7,0,0.9C409.1,93.5,409.5,93.5,409.8,93.3L409.8,93.3z"/>
	<path class="st3" d="M409.2,100.9c0.1,0,0.1,0.1,0.2,0.1c-0.1-0.1,0,0,0.1,0.1c0,0,0,0,0,0c0,0,0,0.1,0.1,0.1c-0.1-0.1,0,0,0,0.1
		c0,0,0,0.2,0,0.1c0,0.1,0,0.2,0,0.2c0-0.1,0,0,0,0c0,0,0,0.1,0,0.1c0-0.1,0-0.1,0,0c0,0-0.1,0.1-0.1,0.1c0.1-0.1-0.1,0.1-0.1,0.1
		c0,0-0.1,0.1-0.1,0.1c0.2-0.2,0.1-0.1,0,0c-0.1,0.1-0.3,0.2-0.4,0.3c-0.3,0.2-0.6,0.4-0.9,0.6c0,0-0.1,0-0.1,0.1c0,0-0.1,0,0,0
		c-0.1,0-0.2,0.1-0.2,0.1c-0.1,0,0.1,0-0.1,0c0,0-0.1,0-0.1,0c0.1,0,0.1,0,0,0c0,0-0.1,0-0.1,0l0.1,0c0,0-0.1,0-0.1,0
		c0.1,0.1,0.1,0.1,0,0c0,0-0.1-0.1-0.1-0.1c-0.3-0.2-0.7-0.2-0.9,0c-0.2,0.3-0.2,0.7,0,0.9c0.4,0.5,1.2,0.7,1.8,0.5
		c0.4-0.1,0.7-0.3,1.1-0.6c0.3-0.2,0.6-0.4,0.8-0.6c0.5-0.3,0.8-0.9,0.9-1.5c0.1-0.7-0.3-1.4-0.9-1.8c-0.3-0.2-0.7-0.1-0.9,0.2
		C408.8,100.4,408.9,100.8,409.2,100.9L409.2,100.9z"/>
	<path class="st3" d="M406.6,103.6c-1.1,1.5-2.5,2.8-4,3.9c-0.3,0.2-0.7,0.4-1,0.6c-0.3,0.1-0.6,0.3-0.9,0.4c-0.8,0.5-1,1.5-1.3,2.3
		c-0.3,0.7-0.5,1.4-0.7,2.1c-0.2,0.8,1,1.1,1.2,0.3c0.2-0.6,0.4-1.2,0.6-1.8c0.1-0.4,0.3-0.8,0.4-1.2c0.1-0.3,0.2-0.6,0.5-0.7
		c0,0,0.2-0.1,0.1,0c0.1,0,0.2-0.1,0.3-0.1c0.2-0.1,0.3-0.1,0.5-0.2c0.4-0.2,0.7-0.4,1-0.6c0.8-0.5,1.5-1.1,2.2-1.8
		c0.8-0.7,1.6-1.6,2.2-2.5c0.2-0.3,0.1-0.7-0.2-0.9C407.2,103.2,406.8,103.3,406.6,103.6L406.6,103.6z"/>
	<path class="st4" d="M380.2,139.8c0-5.5-0.4-9.2-0.3-12.7c0-0.1,0-0.2,0-0.3c0.1,0.2,0.1,0.3,0.1,0.3c0.3,0.6,3,4.6,4,5.7
		c1.6,1.6,4,3.1,6.2,3.1c1.9,0,3.1-0.7,4.2-2.2c1.1-1.5,1.9-3.4,2.7-5.1c1.9-4.4,3.3-12.8,4.1-16.5c-2.7-0.8-7.6-2.4-9.6-3
		c-0.7,1.9-1.3,4-2,6.4c-0.4-1.8-0.9-3.5-1.6-5.3c-0.3-1-0.8-2-1.3-3c-1.2-2-3.1-3.4-5-4.6c-3.6-2.4-6.5-4-10.6-5.6
		c-0.3,4.7-1.4,29.9-1,43"/>
	<path class="st3" d="M380.4,118.1c0,1.6-0.2,3.2-0.5,4.8c-0.1,0.8-0.3,1.6-0.4,2.4c-0.1,0.8-0.2,1.5-0.3,2.3c0,2.4,0.1,4.8,0.2,7.2
		c0.1,1.7,0.1,3.4,0.1,5.1c0,0.8,1.3,0.8,1.3,0c0-2.8-0.1-5.6-0.2-8.5c0-1.1-0.1-2.3-0.1-3.4c0-1.5,0.3-2.9,0.6-4.4
		c0.3-1.8,0.5-3.6,0.6-5.4C381.7,117.3,380.4,117.3,380.4,118.1L380.4,118.1z"/>
	<path class="st3" d="M371.2,97.8c3.1,1.3,6.2,2.9,9,4.7c1.4,0.9,2.9,1.8,4.1,2.9c1.2,1.1,2.2,2.6,2.8,4.1c0.7,1.9,1.4,3.9,1.8,5.9
		c0.2,0.8,1.4,0.5,1.2-0.3c-0.4-1.8-1-3.7-1.7-5.4c-0.3-0.9-0.7-1.8-1.2-2.6c-0.5-0.8-1-1.5-1.6-2.1c-1.2-1.3-2.7-2.2-4.2-3.2
		c-1.5-0.9-2.9-1.9-4.5-2.7c-1.8-1-3.6-1.8-5.5-2.6c-0.3-0.1-0.7,0.1-0.8,0.4C370.7,97.3,370.9,97.7,371.2,97.8L371.2,97.8z"/>
	<path class="st3" d="M388.3,123.1c0.9-3.8,2-7.6,3.2-11.3c0.3-0.8,0.6-1.7,0.8-2.5l-0.8,0.4c3.2,1,6.4,2.1,9.6,3l-0.4-0.8
		c-0.5,2.4-1,4.9-1.5,7.4c-0.6,2.7-1.2,5.5-2.2,8.1c-0.6,1.5-1.2,2.9-2,4.3c-0.7,1.2-1.6,2.6-2.9,3.2c-1.3,0.6-2.8,0.3-4.1-0.2
		c-1.4-0.6-2.6-1.4-3.6-2.5c-0.8-0.9-1.5-1.9-2.1-2.9c-0.3-0.5-0.7-1-1-1.5c-0.2-0.3-0.4-0.6-0.6-1c-0.2-0.3-0.6-0.4-0.9-0.2
		c-0.3,0.2-0.4,0.6-0.2,0.9c0.3,0.8,0.9,1.5,1.4,2.2c0.7,1,1.4,2,2.2,3c0.9,1.1,2,2,3.3,2.7c1.5,0.8,3.2,1.3,4.9,1
		c3.4-0.5,5-4.3,6.2-7.1c1.2-2.7,1.9-5.5,2.6-8.3c0.7-2.9,1.2-5.8,1.8-8.8c0.1-0.3-0.1-0.7-0.4-0.8c-3.2-0.9-6.4-2-9.6-3
		c-0.3-0.1-0.7,0.1-0.8,0.4c-1.2,3.3-2.2,6.7-3.1,10.1c-0.3,1.2-0.6,2.4-0.9,3.7C386.9,123.6,388.1,123.9,388.3,123.1L388.3,123.1z"
		/>
	<path class="st5" d="M395.3,99.1c1.3-4.7,3.7-13.2,5.1-17.9c0.2-0.8,1.1-1.3,1.9-1.1c0,0,0,0,0,0l8.6,2.5c0.8,0.2,1.3,1.1,1.1,1.9
		c-1.5,5.4-3.7,13.1-5.1,17.9c-0.2,0.8-1.1,1.3-1.9,1.1c-2.4-0.7-6.2-1.7-8.6-2.4C395.6,100.8,395.1,99.9,395.3,99.1
		C395.3,99.1,395.3,99.1,395.3,99.1z"/>
	<path class="st3" d="M395.9,99.2c1.1-3.8,2.2-7.6,3.2-11.5c0.5-1.9,1.1-3.7,1.6-5.6c0.2-0.6,0.3-1.6,1.2-1.5c0.2,0,0.5,0.1,0.7,0.2
		l0.8,0.2l1.6,0.5l3.3,0.9l1.5,0.4c0.4,0.1,0.8,0.2,1.1,0.4c0.3,0.2,0.4,0.6,0.3,0.9c-0.1,0.5-0.3,1-0.4,1.4l-0.9,3.1
		c-1.2,4.2-2.4,8.4-3.6,12.6c-0.1,0.4-0.2,0.8-0.4,1.1c-0.3,0.3-0.7,0.3-1,0.2c-1-0.3-2-0.6-3-0.8l-3.2-0.9l-1.5-0.4
		c-0.4-0.1-0.9-0.2-1.1-0.4C395.9,99.9,395.8,99.6,395.9,99.2c0.2-0.8-1-1.1-1.2-0.3c-0.3,1.2,0.3,2.4,1.5,2.7
		c1,0.3,2.1,0.6,3.2,0.9c1.2,0.3,2.3,0.7,3.5,1l1.5,0.4c0.6,0.2,1.1,0.3,1.7,0.1c0.6-0.2,1-0.6,1.3-1.1c0.2-0.5,0.4-1,0.5-1.5
		c0.3-1,0.6-2.1,0.9-3.1c0.7-2.3,1.3-4.7,2-7c0.6-2.2,1.3-4.4,1.9-6.7c0.3-1.1-0.3-2.3-1.4-2.7c-1.1-0.4-2.2-0.6-3.2-0.9l-3.5-1
		l-1.7-0.5c-0.5-0.2-1.1-0.2-1.6,0c-0.5,0.2-1,0.6-1.2,1.2c-0.2,0.4-0.3,0.9-0.4,1.3c-0.3,1-0.5,1.9-0.8,2.9
		c-1.2,4.2-2.4,8.5-3.6,12.7c-0.1,0.4-0.2,0.8-0.4,1.2C394.5,99.7,395.7,100,395.9,99.2z"/>
	<path class="st3" d="M403.5,80.4c2.1,0.6,4.4,1.3,6.3,1.8c0,0-0.2,0.6-0.3,1.2c-0.1,0.4-0.6,0.7-1,0.6c-1.2-0.3-3.5-1-4.8-1.3
		c-0.4-0.1-0.7-0.6-0.6-1c0,0,0,0,0,0C403.3,81.1,403.5,80.4,403.5,80.4z"/>
	<path class="st3" d="M370.5,97.1c-0.1,1.6-0.2,3.3-0.2,5c-0.1,2.7-0.2,5.4-0.3,8.1c-0.1,3.3-0.2,6.6-0.3,9.8
		c-0.1,3.4-0.1,6.7-0.2,10.1c0,3,0,6,0.1,9c0,0.3,0,0.6,0,1c0,0.8,1.3,0.8,1.3,0c-0.1-2.9-0.1-5.9-0.1-8.8c0-3.3,0.1-6.7,0.2-10
		c0.1-3.3,0.2-6.6,0.3-9.9c0.1-2.8,0.2-5.6,0.3-8.4c0.1-1.8,0.2-3.6,0.3-5.4c0-0.1,0-0.3,0-0.4C371.9,96.3,370.6,96.3,370.5,97.1
		L370.5,97.1z"/>
	<path class="st1" d="M412.2,96.9c0.1-0.4,0-0.7-0.2-1c-0.3-0.5-0.9-0.7-1.4-0.4c-0.2,0.1-0.4,0.3-0.6,0.5c-0.4,0.5-0.6,0.8-1.1,1.5
		c-0.4,0.5-0.7,1-1,1.6c-0.1,0.3,0,0.9,0.4,1.2c0.3,0.3,0.8,0.4,1.3,0.2c0.3-0.2,0.6-0.4,0.8-0.7l0.8-1c0.3-0.4,0.6-0.8,0.9-1.3
		C412.1,97.2,412.2,97.1,412.2,96.9z"/>
	<path class="st3" d="M412.9,96.9c0.1-0.6-0.1-1.3-0.6-1.7c-0.4-0.4-1-0.6-1.6-0.4c-0.6,0.2-1,0.6-1.4,1.1c-0.3,0.4-0.5,0.7-0.8,1.1
		c-0.3,0.4-0.7,0.9-0.9,1.4c-0.2,0.3-0.2,0.5-0.3,0.8c0,0.3,0.1,0.6,0.2,0.9c0.2,0.5,0.7,0.9,1.3,1.1c0.6,0.1,1.3-0.1,1.8-0.5
		c0.5-0.5,0.9-1,1.3-1.6c0.4-0.6,0.9-1.2,1-1.9c0.1-0.3-0.1-0.7-0.4-0.8c-0.3-0.1-0.7,0.1-0.8,0.4c-0.1,0.9-0.9,1.6-1.4,2.3
		c-0.1,0.2-0.3,0.4-0.4,0.5c-0.1,0.1-0.1,0.1-0.2,0.2c-0.1,0.1,0,0-0.1,0c0,0-0.1,0.1-0.1,0.1c0,0-0.1,0-0.1,0c0,0,0.1,0,0,0
		c0,0-0.1,0-0.1,0c0,0,0.1,0,0,0c-0.1,0-0.2-0.1-0.3-0.2c-0.1-0.1-0.2-0.2-0.2-0.4c0-0.1,0,0.1,0,0c0,0,0-0.1,0-0.1c0,0.1,0,0,0,0
		c0,0,0.1-0.1,0.1-0.1c0.2-0.4,0.4-0.7,0.7-1.1c0.2-0.3,0.5-0.7,0.7-1c0.1-0.1,0.2-0.2,0.3-0.4c0.1-0.1,0.2-0.2,0.3-0.4
		c0.1-0.1,0.1-0.1,0.2-0.1c0,0,0.1-0.1,0.1-0.1c0.1-0.1-0.1,0,0.1,0c0,0,0.1,0,0,0c-0.1,0,0.1,0,0.1,0c-0.1,0,0,0,0,0
		c0.2,0.1,0,0,0.1,0c0,0,0.1,0,0.1,0.1c0,0,0,0,0,0l0,0c0.1,0.1,0,0,0,0c0,0,0.1,0.1,0.1,0.1c0.1,0.2,0.1,0.4,0.1,0.6
		c0,0.4,0.3,0.6,0.6,0.6C412.6,97.6,412.8,97.3,412.9,96.9z"/>
	<path class="st3" d="M358.3,85.7c0.8,0.4,1.8,0.7,2.7,0.6c1,0,2-0.2,2.7-0.8c0.2-0.3,0.2-0.7,0-0.9c-0.3-0.2-0.7-0.2-0.9,0
		c0.2-0.1,0,0,0,0c-0.1,0-0.1,0.1-0.2,0.1c0,0-0.2,0.1-0.1,0c-0.1,0-0.2,0.1-0.2,0.1c-0.5,0.1-0.9,0.2-1.4,0.2c-0.5,0-0.9,0-1.3-0.2
		c-0.1,0-0.2-0.1-0.3-0.1c0,0-0.1,0-0.1,0c0.2,0,0,0,0,0c-0.1,0-0.2-0.1-0.3-0.2c-0.3-0.2-0.7-0.1-0.9,0.2
		C357.9,85.1,358,85.5,358.3,85.7L358.3,85.7z"/>
	<path class="st3" d="M360.8,79.2c0.1,0.5,0.2,0.9,0.3,1.4l0-0.2c0,0.1,0,0.1,0,0.2l0-0.2c0,0,0,0.1,0,0.1l0.1-0.2c0,0,0,0,0,0.1
		l0.1-0.1c0,0,0,0,0,0l0.1-0.1c0,0-0.1,0-0.1,0.1l0.2-0.1c-0.1,0-0.1,0-0.2,0.1l0.2,0c-0.1,0-0.1,0-0.2,0l0.2,0c-0.1,0-0.1,0-0.2,0
		c-0.2,0-0.3,0-0.5,0.1c-0.3,0.2-0.4,0.6-0.2,0.9c0,0,0,0,0,0c0.1,0.1,0.2,0.3,0.4,0.3c0.1,0,0.3,0.1,0.4,0.1c0.2,0,0.4,0,0.6-0.1
		c0.2-0.1,0.4-0.3,0.5-0.6c0-0.2,0-0.4,0-0.6c-0.1-0.5-0.2-0.9-0.3-1.3c-0.1-0.3-0.4-0.5-0.8-0.4C360.9,78.5,360.7,78.8,360.8,79.2
		L360.8,79.2z"/>
	<path class="st3" d="M353.3,75.2c-0.2,0.8-0.1,2.5,1.4,2.7c1.9,0,2-2.1,1.4-3.1C355.5,74,353.9,73.6,353.3,75.2z"/>
	<path class="st3" d="M368.5,75.2c0.2,0.8,0.1,2.5-1.4,2.7c-1.9,0-2-2.1-1.4-3.1C366.3,74,367.9,73.6,368.5,75.2z"/>
</g>
<g>
	<path class="st1" d="M450.8,98.1c-0.3-0.1-1-0.4-1-0.5c-1.4-0.5-1.3-1.4-1.5-2.4c-0.2-1.1-0.3-2.2-0.3-3.3c3.3-1.9,5.8-6.2,6.3-7.5
		c0.1-0.2,0.2-0.7,0.4-1.2l0.3,0c0.6-0.1,1.2-0.4,1.7-0.8c0.6-0.5,1.1-1.2,1.5-1.9c0.7-1.4,1-3.1,0.9-4.7c0-0.4-0.1-0.8-0.3-1.2
		c-0.3-0.5-0.9-0.9-1.5-1c-0.6-0.1-1.3,0.1-1.8,0.5c0,0,0.5-12.1-14.6-12.1c-12.6,0-14.9,8.4-15,11.2c0,0.3,0,0.6,0,0.9
		c-0.5-0.4-1.1-0.6-1.8-0.5c-0.6,0.1-1.2,0.5-1.5,1c-0.2,0.4-0.3,0.8-0.3,1.2c-0.1,1.6,0.2,3.2,0.9,4.7c0.3,0.7,0.8,1.4,1.5,1.9
		c0.5,0.4,1.1,0.7,1.7,0.8c0,0,0.2,0,0.6,0.1c0.5,2,1.5,3.9,2.9,5.6c1,1.3,2.3,2.3,3.7,3.2c0,1.1-0.1,2.2-0.3,3.2
		c-0.2,1-0.1,1.9-1.5,2.4c-0.1,0-0.8,0.3-1,0.5c0,0,0.5,5.4,9.5,5.4C449,103.5,450.8,98.1,450.8,98.1z"/>
	<path class="st6" d="M436.6,50.4c-3.3,0.4-6.7,1.6-9.4,4.3l1.3,1.1c-2.2,1.4-4,4.1-4.8,6.5c-1,2.8-1.2,6.8-0.1,11.5l0,0
		c0.2-0.1,0.3-0.1,0.5-0.1c0.6-0.1,1.3,0.1,1.8,0.5l1.9-1.1l0.2-0.1c4-3.7,6.2-5.3,9.8-8.1c0,0.2,0.8,2.2,1,2.3
		c0.2,0.1,2.5-1.3,4.4-2.5l3.2,0.4c1.5,0.3,2.8,1.1,4.1,2.2c2.2,1.9,3.9,4.6,5,7c0.5-0.5,1.2-0.7,1.8-0.6c0.1,0,0.3,0.1,0.4,0.1
		c1.1-2.8,1.3-6.9-0.1-10.8c-1-2.7-3.3-5.6-5.1-6.4l-2.2-1.5c-2.1-2.9-5.7-4.7-10.2-4.8C438.8,50.2,437.7,50.2,436.6,50.4z"/>
	<path class="st3" d="M455.8,74.6c0.7-0.6,1.7-0.5,2.2,0.2c0.3,0.4,0.3,0.9,0.3,1.4c0,0.6,0,1.1-0.1,1.7c-0.3,2-1.4,4.4-3.6,4.8
		c-0.3,0.1-0.5,0.4-0.4,0.7c0.1,0.3,0.4,0.5,0.7,0.4c2.2-0.4,3.5-2.5,4.1-4.5c0.3-1.1,0.5-2.2,0.4-3.3c-0.1-1.1-0.4-2.1-1.3-2.6
		c-1.1-0.6-2.4-0.5-3.3,0.3c-0.2,0.2-0.2,0.6,0,0.9C455.2,74.8,455.6,74.8,455.8,74.6L455.8,74.6z"/>
	<path class="st3" d="M454.3,81.5c0,0.7-0.2,1.3-0.4,1.9c-0.1,0.2-0.1,0.4-0.2,0.6c0,0.1,0,0.1-0.1,0.2c0,0,0,0,0,0.1
		c0,0.1,0.1-0.1,0,0c-0.3,0.6-0.6,1.2-1,1.8c-1,1.7-2.4,3.3-3.9,4.5c-0.9,0.7-1.8,1.2-2.9,1.5c-0.8,0.2-0.4,1.3,0.3,1.2
		c2.2-0.5,4-2.1,5.5-3.7c1.2-1.4,2.3-2.9,3.1-4.5c0.5-1.1,0.8-2.3,0.9-3.6C455.5,80.8,454.3,80.8,454.3,81.5L454.3,81.5z"/>
	<path class="st3" d="M426.2,73.7c-0.8-0.7-1.9-0.9-2.9-0.5c-1,0.4-1.5,1.3-1.7,2.4c-0.2,2.2,0.3,4.4,1.5,6.2c0.7,1,1.7,1.8,3,2
		c0.3,0.1,0.6-0.1,0.7-0.4c0.1-0.3-0.1-0.7-0.4-0.7c-2.2-0.4-3.2-2.8-3.6-4.8c-0.1-0.5-0.1-1.1-0.1-1.6c0-0.5,0-1,0.3-1.4
		c0.5-0.7,1.5-0.8,2.2-0.3c0,0,0,0,0,0c0.2,0.2,0.6,0.2,0.9,0C426.5,74.3,426.5,74,426.2,73.7L426.2,73.7z"/>
	<path class="st3" d="M425.8,81.3c0.4,2.2,1.1,4.3,2.3,6.3c1.3,2.1,3.1,4,5.3,5.1c1.2,0.6,2.4,1,3.7,1.1c0.3,0,0.6-0.3,0.6-0.6
		c0-0.3-0.3-0.6-0.6-0.6c-4.5-0.5-7.9-4.4-9.3-8.5c-0.3-1-0.6-2.1-0.8-3.1c-0.1-0.3-0.4-0.5-0.7-0.4C425.9,80.7,425.7,81,425.8,81.3
		L425.8,81.3z"/>
	<path class="st3" d="M452,57.1c0.9,0.4,1.6,1,2.2,1.8c0.8,0.9,1.5,1.9,2,2.9c1.2,2.2,1.6,4.9,1.6,7.4c0,1.3-0.2,2.6-0.6,3.8
		c-0.2,0.7,0.9,1.1,1.2,0.3c0.8-2.5,0.9-5.2,0.4-7.8c-0.5-2.6-1.6-5.1-3.3-7.1c-0.8-0.9-1.7-1.8-2.8-2.3c-0.3-0.2-0.7-0.1-0.8,0.2
		C451.6,56.6,451.7,56.9,452,57.1z"/>
	<path class="st3" d="M429.5,54.6c-2.6,1-4.6,3.4-5.8,5.8c-1.2,2.4-1.6,5.1-1.5,7.8c0,1.9,0.3,3.8,0.8,5.6c0.2,0.8,1.3,0.4,1.2-0.3
		c-1.2-5.1-1.1-11,2.4-15.3c0.9-1.1,2-2,3.3-2.5c0.3-0.1,0.5-0.4,0.4-0.7C430.2,54.7,429.8,54.5,429.5,54.6L429.5,54.6z"/>
	<path class="st3" d="M450.7,54.7c-2-2.7-5.1-4.4-8.4-4.9c-3.4-0.5-7.1-0.2-10.3,1c-2,0.8-3.8,1.9-5.3,3.4c-0.6,0.6,0.3,1.4,0.9,0.9
		c2.4-2.4,5.6-3.7,8.9-4.1c3.2-0.4,6.6-0.2,9.4,1.3c1.5,0.7,2.7,1.8,3.7,3.1c0.2,0.3,0.5,0.4,0.8,0.2
		C450.7,55.4,450.8,55,450.7,54.7L450.7,54.7z"/>
	<path class="st3" d="M443.7,63.5c-1.3,0.8-2.5,1.6-3.8,2.3c-0.3,0.1-0.5,0.3-0.8,0.4c-0.1,0.1-0.2,0.1-0.3,0.2c0,0-0.1,0-0.1,0.1
		c-0.1,0-0.1,0,0,0c0,0-0.1,0-0.1,0c0,0-0.1,0,0,0c0.1,0,0.3,0.1,0.4,0.1c0,0,0.1,0.1,0,0c-0.1-0.2-0.2-0.4-0.3-0.6
		c-0.1-0.2-0.2-0.5-0.3-0.8c0-0.1-0.1-0.2-0.1-0.4c0-0.1-0.1-0.4-0.1-0.1c0-0.3-0.3-0.6-0.6-0.6c-0.1,0-0.3,0.1-0.4,0.2
		c-2.5,2-5.1,3.9-7.5,6c-0.8,0.7-1.7,1.5-2.5,2.2c-0.6,0.5,0.3,1.4,0.9,0.9c2.5-2.3,5.1-4.5,7.7-6.5c0.7-0.6,1.5-1.2,2.2-1.7l-1-0.4
		c0.1,0.6,0.3,1.1,0.6,1.6c0.2,0.5,0.4,1.2,1,1.3c0.4,0.1,0.9-0.3,1.3-0.5c0.7-0.4,1.3-0.8,2-1.2c0.8-0.5,1.6-1,2.4-1.5
		C445,64.2,444.4,63.1,443.7,63.5L443.7,63.5z"/>
	<path class="st3" d="M446.1,65.6c2.1,0.5,3.8,1.9,5.2,3.4c1.4,1.6,2.5,3.3,3.4,5.2c0.2,0.3,0.5,0.4,0.8,0.2
		c0.3-0.2,0.4-0.5,0.2-0.8c-0.9-2-2.1-3.9-3.6-5.6c-1.5-1.7-3.4-3.2-5.7-3.7C445.7,64.3,445.4,65.4,446.1,65.6L446.1,65.6z"/>
	<path class="st3" d="M432.8,92.1c0,0.8-0.1,1.6-0.2,2.5c-0.1,0.5-0.2,1.1-0.3,1.6c0,0.2-0.1,0.3-0.2,0.4c-0.2,0.2-0.4,0.3-0.6,0.4
		c-0.4,0.2-0.9,0.4-1.3,0.6c-0.3,0.2-0.4,0.5-0.2,0.8c0.2,0.3,0.5,0.4,0.8,0.2c0.3-0.1,0.5-0.2,0.8-0.3c0.1,0,0.1,0,0.2-0.1
		c0,0-0.1,0,0,0c0.2-0.1,0.4-0.1,0.5-0.2c0.6-0.3,1-0.8,1.2-1.4c0.2-0.6,0.3-1.1,0.3-1.7c0.1-0.9,0.2-1.9,0.3-2.8
		C434,91.3,432.8,91.3,432.8,92.1L432.8,92.1z"/>
	<path class="st3" d="M447.4,92.1c0,0.9,0.1,1.9,0.3,2.8c0.1,0.6,0.2,1.2,0.3,1.7c0.2,0.6,0.7,1.1,1.3,1.4c0.1,0,0.2,0.1,0.3,0.1
		c0,0,0.2,0.1,0,0c0.1,0,0.2,0.1,0.3,0.1c0.3,0.1,0.5,0.2,0.8,0.4c0.3,0.1,0.7-0.1,0.7-0.4c0.1-0.3-0.1-0.6-0.4-0.7
		c-0.1-0.1,0.1,0.1-0.1,0c-0.1,0-0.1,0-0.2-0.1c-0.1-0.1-0.2-0.1-0.4-0.2c-0.2-0.1-0.4-0.2-0.6-0.2c-0.2-0.1-0.4-0.2-0.6-0.4
		c-0.1-0.1-0.2-0.3-0.2-0.4c-0.1-0.5-0.2-1-0.3-1.6c-0.1-0.8-0.2-1.7-0.2-2.5C448.6,91.3,447.3,91.3,447.4,92.1L447.4,92.1z"/>
	<path class="st1" d="M472.1,113.5c0.5-1.7,2.4-5.3,2.7-7c0.3-1.2,0.3-2.5,0.2-3.8c-0.2-1.6-0.8-3.2-0.7-4.8
		c0.1-0.9,0.5-1.8,0.8-2.7l2.2-5.1c0.3-0.6,0.7-1.4,1.4-1.4c0.5,0,0.9,0.4,1.3,0.7c0,0,11.3,1.5,11.6,1.5c0.8-0.1,1.1-1.2,1.8-1.3
		c0.8,0,1.5,0.6,1.5,1.3c0,0.1,0,0.3,0,0.4c-0.1,0.4-0.3,0.8-0.6,1.1c-0.3,0.4-0.7,0.8-1,1.1c0.4,0,0.9,0.2,1.1,0.6
		c0.2,0.3,0.3,0.7,0.2,1.1c0,0.2-0.1,0.3-0.1,0.5c-0.2,0.5-0.5,1-0.9,1.4l-0.9,1.1c-0.2,0.3-0.5,0.6-0.9,0.8
		c0.2,0.2,0.3,0.5,0.3,0.8c0,0.3-0.1,0.7-0.3,1c-0.4,0.5-0.8,1.1-1.3,1.5c-0.3,0.2-0.6,0.4-0.9,0.4c-1.6,2.4-4.4,4.6-6.1,5.2
		c-0.3,0.1-0.6,0.3-0.8,0.6c-0.6,1.1-1.2,7.9-1.3,8.3l-0.9,3.1c0,0-9.3-4-9.3-4.2C471.3,115.5,472.1,113.5,472.1,113.5z"/>
	<path class="st3" d="M480.4,89.1c-0.7-0.7-1.6-1.3-2.5-0.6c-0.8,0.6-1.1,1.6-1.5,2.5l-1.4,3.2c-0.4,1-1,2.1-1.2,3.2
		c-0.4,2.2,0.6,4.3,0.6,6.5c0,1-0.1,2-0.3,2.9c-0.2,0.7-0.4,1.4-0.7,2c-0.6,1.5-1.4,3-1.9,4.6c-0.2,0.8,1,1.1,1.2,0.3
		c0.4-1.3,1-2.5,1.5-3.7c0.3-0.7,0.6-1.4,0.9-2.1c0.2-0.7,0.4-1.4,0.5-2.1c0.2-1.1,0.2-2.2,0.1-3.3c-0.1-1-0.4-2-0.6-3
		c-0.1-1,0-2,0.4-3c0.4-1,0.8-2,1.2-2.9c0.5-1.1,0.9-2.2,1.4-3.3c0.1-0.3,0.3-0.8,0.7-0.9c0.4-0.1,0.7,0.3,0.9,0.5
		C480.1,90.5,481,89.6,480.4,89.1L480.4,89.1z"/>
	<path class="st3" d="M492.1,91.4c0.4-0.5,1-1.3,1.7-1.1c0.3,0.1,0.6,0.4,0.6,0.7c0,0.4-0.2,0.7-0.4,1c-1.1,1.4-2.5,2.6-4,3.6
		c-0.7,0.4-0.1,1.5,0.6,1c1-0.6,1.9-1.3,2.8-2.1c0.4-0.4,0.8-0.8,1.2-1.2c0.4-0.4,0.7-0.9,1-1.5c0.3-1.1-0.3-2.2-1.4-2.6
		c0,0-0.1,0-0.1,0c-1.2-0.3-2.1,0.6-2.8,1.4c-0.2,0.2-0.2,0.6,0,0.9C491.5,91.6,491.8,91.6,492.1,91.4L492.1,91.4z"/>
	<path class="st3" d="M491,99.3c0.1,0,0.1,0,0.2,0.1c0.1,0,0,0,0.1,0c0,0,0.1,0.1,0.1,0c0,0,0,0.1,0,0c0,0,0,0.1,0.1,0.1
		c0.1,0.1,0.1,0.2,0.1,0.3c0,0,0,0,0,0c0,0,0,0.1,0,0.1c0,0,0,0.2,0,0.1c0,0.2-0.1,0.4-0.3,0.5c0,0.1-0.1,0.1-0.1,0.2l0,0.1l0,0
		c0,0-0.1,0.1-0.1,0.1c-0.2,0.3-0.5,0.6-0.8,0.9c-0.1,0.2-0.3,0.3-0.5,0.3c0,0,0.1,0,0,0c0,0-0.2,0-0.1,0c0,0-0.2-0.1-0.1,0
		c-0.1,0-0.1-0.1-0.2-0.1c-0.3-0.2-0.7-0.1-0.8,0.2c-0.2,0.3-0.1,0.7,0.2,0.8c0.6,0.4,1.3,0.4,1.8,0c0.4-0.2,0.7-0.5,1-0.9
		c0.3-0.3,0.5-0.7,0.8-1c0.4-0.5,0.5-1.1,0.4-1.6c-0.1-0.7-0.7-1.3-1.4-1.5c-0.3-0.1-0.6,0.1-0.7,0.4
		C490.5,98.8,490.7,99.2,491,99.3L491,99.3z"/>
	<path class="st3" d="M488.9,102.7c-1,1.3-2.1,2.5-3.5,3.5c-0.6,0.4-1.1,0.8-1.8,1.1c-0.3,0.1-0.6,0.2-0.8,0.4
		c-0.3,0.2-0.6,0.5-0.7,0.8c-0.3,0.8-0.4,1.7-0.5,2.5c-0.2,1.2-0.3,2.4-0.5,3.5c-0.1,0.5-0.1,1-0.2,1.5c0,0.1,0,0.1,0,0.2
		c0,0,0,0.2,0,0.1c0-0.1,0,0.1,0,0.2c0,0.1,0,0.2,0,0.3c-0.2,0.7,0.9,1.1,1.2,0.3c0.1-0.2,0.1-0.5,0.1-0.7c0.1-0.4,0.1-0.8,0.2-1.2
		c0.1-1.1,0.3-2.2,0.4-3.3c0.1-0.9,0.3-1.9,0.5-2.8c0-0.1,0-0.1,0.1-0.2c0,0-0.1,0.1,0,0c0,0,0.1-0.1,0.1-0.2
		c0.2-0.2,0.5-0.3,0.7-0.4c0.6-0.3,1.2-0.6,1.7-1c1.6-1.1,3-2.5,4.1-4c0.2-0.3,0.1-0.7-0.2-0.8C489.5,102.3,489.1,102.4,488.9,102.7
		L488.9,102.7z"/>
	<path class="st1" d="M494.6,95.3c0.1-0.4,0-0.8-0.2-1.1c-0.3-0.5-1-0.7-1.4-0.5c-0.2,0.1-0.5,0.3-0.6,0.5c-0.4,0.5-0.6,0.8-1.2,1.6
		c-0.4,0.5-0.8,1.1-1,1.7c-0.1,0.3,0.1,0.9,0.4,1.3c0.4,0.4,0.9,0.5,1.4,0.3c0.3-0.2,0.6-0.4,0.8-0.8l0.9-1.1
		c0.4-0.4,0.7-0.9,0.9-1.4C494.6,95.6,494.6,95.5,494.6,95.3z"/>
	<path class="st3" d="M495.2,95.3c0.1-0.7-0.1-1.3-0.6-1.8c-0.4-0.4-1-0.6-1.6-0.4c-0.6,0.2-1,0.6-1.4,1.1c-0.3,0.4-0.6,0.8-0.8,1.2
		c-0.4,0.5-0.7,1-1,1.5c-0.2,0.3-0.3,0.5-0.3,0.9c0,0.3,0.1,0.6,0.2,0.9c0.2,0.6,0.7,1,1.3,1.1c0.7,0.1,1.3-0.1,1.8-0.6
		c0.5-0.5,1-1.1,1.4-1.7c0.5-0.6,0.9-1.2,1-2c0.1-0.3-0.1-0.6-0.4-0.7c-0.3-0.1-0.7,0.1-0.7,0.4c-0.2,1-0.9,1.7-1.5,2.5
		c-0.4,0.5-1,1.4-1.6,0.7c-0.1-0.1-0.2-0.3-0.2-0.4c0,0,0-0.1,0-0.1c0,0.1,0-0.1,0,0c0-0.1,0-0.1,0.1-0.2c0.2-0.4,0.4-0.8,0.7-1.2
		c0.3-0.4,0.5-0.7,0.8-1.1c0.2-0.3,0.4-0.5,0.6-0.8c0.1-0.1,0.3-0.2,0.4-0.3c0.1,0,0.2,0,0.3,0c0.1,0.1,0.3,0.2,0.3,0.3
		c0.1,0.2,0.1,0.5,0.1,0.7c0,0.3,0.3,0.6,0.6,0.6C495,95.9,495.2,95.6,495.2,95.3z"/>
	<path class="st7" d="M406.2,140.3c1.6-8.2,3.8-21.5,6.7-29.3c0.3-1,0.8-2,1.3-2.9c1.2-1.9,3-3.3,4.9-4.6c3.5-2.3,7.3-4.3,11.2-5.8
		c0.1-0.5,1.4-3,1.9-4.2c0-0.1,0.1-0.2,0.2-0.2c0.1,0,0.2,0,0.3,0.1c0.8,0.7,5.2,4.3,5.7,4.8c0.2,0.5,0.4,1.3,0.9,2.7
		c0.4,0.9,1.1,2.6,1.4,3.4c0.5-1.1,1.2-2.7,1.8-4c0.3-0.8,0.5-1.7,0.6-2.1c0.5-0.6,4.9-4.2,5.7-4.8c0.1-0.1,0.2-0.1,0.3-0.1
		c0.1,0,0.1,0.1,0.2,0.2c0.4,1.2,1.8,3.6,1.9,4.1c3.9,1.6,7.7,3.5,11.2,5.8c1.9,1.2,3.8,2.6,4.9,4.6c0.6,0.9,0.8,2.3,1.2,3.3
		c0.5,1.4,1.1,3.9,1.8,5.4l0.1-0.2c2.1,0.7,8.3,2.6,11.2,3.5c-0.9,3.9-0.5,4.3-2.6,8.9c-0.8,1.8-1.7,3.8-2.9,5.4s-2.5,2.2-4.5,2.2
		c-2.3,0-4.9-1.4-6.6-3.1c-1.1-1.1-4.1-5-4.4-5.7c-0.1,4.2,0,7.1,0,12.5"/>
	<path class="st3" d="M460.7,118.7c-0.5,3.2-0.8,6.5-0.8,9.7c0,2.3,0,4.7,0,7c0,1.6,0,3.3,0,4.9c0,0.8,1.2,0.8,1.2,0
		c0-2.6,0-5.3,0-7.9c0-2.7,0-5.3,0.2-8c0.1-1.8,0.3-3.6,0.6-5.4c0.1-0.3-0.1-0.6-0.4-0.7C461.1,118.2,460.8,118.3,460.7,118.7
		L460.7,118.7z"/>
	<path class="st3" d="M430.3,97.1c-3.7,1.5-7.3,3.3-10.7,5.5c-1.6,1-3.1,2-4.4,3.4c-0.6,0.7-1.2,1.4-1.6,2.3
		c-0.4,0.9-0.8,1.8-1.1,2.7c-1,2.9-1.9,5.8-2.6,8.8c-0.8,3.3-1.5,6.7-2.2,10.1c-0.6,3.1-1.2,6.2-1.8,9.3c-0.1,0.3-0.1,0.7-0.2,1
		c-0.1,0.3,0.1,0.6,0.4,0.7c0.3,0.1,0.7-0.1,0.7-0.4c0.6-3,1.1-5.9,1.7-8.9c0.6-3.3,1.3-6.6,2.1-9.9c0.7-3,1.5-6.1,2.5-9
		c0.5-1.6,1.1-3.3,2-4.6c1-1.4,2.4-2.5,3.8-3.5c3.3-2.2,6.7-4.1,10.3-5.6c0.5-0.2,0.9-0.4,1.4-0.6c0.3-0.1,0.5-0.4,0.4-0.7
		C430.9,97.3,430.6,97.1,430.3,97.1L430.3,97.1z"/>
	<path class="st3" d="M450.8,98.3c3.8,1.5,7.5,3.4,10.9,5.7c1.5,1,3.1,2.1,4.2,3.5c0.5,0.7,1,1.4,1.2,2.2c0.3,0.8,0.5,1.6,0.8,2.4
		c0.6,1.7,0.9,3.5,1.7,5.1c0.4,0.7,1.4,0.1,1-0.6c-0.7-1.4-1-3-1.5-4.5c-0.2-0.8-0.5-1.6-0.8-2.4c-0.3-0.9-0.7-1.7-1.2-2.5
		c-1.1-1.6-2.7-2.8-4.2-3.8c-1.7-1.2-3.5-2.2-5.4-3.2c-2.1-1.1-4.3-2.1-6.5-3c-0.3-0.1-0.7,0.1-0.7,0.4
		C450.3,97.9,450.5,98.2,450.8,98.3L450.8,98.3z"/>
	<path class="st3" d="M419.8,119c0.5,3.1,0.8,6.3,0.8,9.5c0,2.3,0,4.7,0,7c0,1.6,0,3.2,0,4.8c0,0.8,1.2,0.8,1.2,0c0-2.7,0-5.4,0-8
		c0-2.7,0-5.4-0.2-8.1c-0.1-1.9-0.4-3.7-0.7-5.6c-0.1-0.3-0.4-0.5-0.7-0.4C419.9,118.3,419.7,118.7,419.8,119L419.8,119z"/>
	<path class="st3" d="M441.2,104.2c-0.2-0.5-0.5-1.1-0.7-1.6c-0.2-0.6-0.5-1.2-0.7-1.8c-0.2-0.6-0.4-1.3-0.6-1.9
		c-0.1-0.4-0.2-0.8-0.5-1c-0.5-0.5-1.1-1-1.7-1.5c-0.8-0.7-1.6-1.3-2.4-2c-0.3-0.3-0.6-0.5-1-0.8c-0.3-0.2-0.6-0.6-0.9-0.7
		c-0.5-0.1-0.8,0.2-1,0.7c-0.1,0.1,0,0.1-0.1,0.2c-0.1,0.1-0.1,0.3-0.2,0.4c-0.2,0.5-0.5,1.1-0.8,1.6c-0.2,0.5-0.4,0.9-0.6,1.4
		c-0.1,0.3-0.3,0.6-0.2,1c0.1,0.3,0.3,0.6,0.4,0.9c0.3,0.5,0.5,0.9,0.8,1.4c0.7,1.2,1.5,2.4,2.4,3.5c0.3,0.3,0.8,0.4,1.1,0.3
		c0.4-0.2,0.6-0.8,0.8-1.1c0.4-0.8,0.8-1.6,1.2-2.4c0.4-0.7-0.7-1.3-1-0.6c-0.3,0.6-0.7,1.3-1,1.9c-0.1,0.3-0.3,0.6-0.4,0.8
		l-0.1,0.3c-0.1,0.3-0.1,0.1,0.3,0c0.1,0,0.1,0.1,0.1,0c0,0-0.1-0.1-0.1-0.1c-0.7-0.9-1.3-1.8-1.9-2.8c-0.4-0.7-0.9-1.4-1.3-2.2
		c0,0,0-0.1-0.1-0.1c0-0.1,0,0.2,0,0c0-0.1,0,0.2,0,0.1c0-0.1-0.1,0.1,0,0.1c0,0,0-0.1,0-0.2c0-0.1,0.1-0.1,0.1-0.2
		c-0.1,0.1,0-0.1,0.1-0.1c0.1-0.2,0.2-0.4,0.3-0.6c0.2-0.5,0.5-1,0.7-1.5c0.1-0.2,0.2-0.5,0.3-0.8c0.1-0.2,0.2-0.5,0.3-0.7l-0.2,0.2
		l0.1,0l-0.3,0.1h0.1l-0.3-0.1c0.1,0,0.1,0.1,0.2,0.1c0.1,0.1,0.1,0.1,0.2,0.1c0.2,0.1,0.3,0.3,0.5,0.4c0.4,0.4,0.9,0.7,1.3,1.1
		c0.9,0.8,1.9,1.5,2.8,2.3c0.3,0.2,0.6,0.5,0.8,0.8l-0.2-0.3c0.7,2.1,1.5,4.2,2.4,6.3c0.2,0.3,0.5,0.4,0.8,0.2
		C441.3,104.8,441.4,104.4,441.2,104.2L441.2,104.2z"/>
	<path class="st3" d="M441.2,104.8c0.5-1.1,1-2.1,1.4-3.2c0.2-0.5,0.4-1.1,0.6-1.6c0.1-0.5,0.3-1,0.4-1.4l-0.2,0.3
		c0.2-0.2,0.4-0.4,0.7-0.6c0.4-0.4,0.8-0.7,1.2-1.1c0.9-0.8,1.9-1.6,2.8-2.3c0.2-0.2,0.4-0.3,0.6-0.5c0.1-0.1,0.1-0.1,0.2-0.2
		c0.1-0.1,0.1-0.1,0.2-0.1l-0.3,0.1h0.1l-0.3-0.1l0.1,0l-0.2-0.2c0.2,0.4,0.4,0.8,0.6,1.3c0.2,0.5,0.4,0.9,0.7,1.4
		c0.1,0.2,0.2,0.4,0.3,0.7c0,0.1,0.1,0.2,0.1,0.3l0.1,0.1c0,0,0.1,0.2,0,0.1c0,0.1,0.1,0.2,0.1,0.3c0,0.1,0,0.1,0-0.1
		c0,0.1,0,0.1,0-0.1c0,0.1,0,0,0,0c-0.9,1.7-1.9,3.3-3,4.8c-0.1,0.1-0.2,0.2-0.2,0.3c0,0-0.1,0.1-0.1,0.1c0,0,0,0.1-0.1,0.1
		c0.1-0.1,0.3-0.1,0.4,0.1c0-0.1-0.2-0.4-0.3-0.5c-0.1-0.2-0.2-0.3-0.3-0.5c-0.4-0.7-0.7-1.4-1.1-2.2c-0.4-0.7-1.4-0.1-1,0.6
		c0.4,0.7,0.7,1.4,1.1,2.1c0.3,0.6,0.6,1.7,1.5,1.5c0.6-0.1,0.9-0.8,1.3-1.3c0.4-0.5,0.7-1,1.1-1.6c0.6-0.9,1.1-1.8,1.6-2.7
		c0.2-0.2,0.3-0.5,0.3-0.8c0-0.4-0.2-0.7-0.4-1c-0.4-1-0.9-1.9-1.4-2.9c0-0.1-0.1-0.3-0.1-0.3c0,0-0.1-0.2-0.1-0.3
		c-0.2-0.4-0.7-0.6-1.1-0.4c-0.1,0-0.1,0.1-0.2,0.1c-0.2,0.2-0.5,0.4-0.7,0.6c-1.4,1.2-2.9,2.4-4.3,3.6c-0.2,0.2-0.5,0.4-0.7,0.7
		c-0.2,0.2-0.3,0.4-0.3,0.6c-0.1,0.4-0.2,0.7-0.3,1.1c-0.3,0.8-0.6,1.6-0.9,2.4c-0.3,0.8-0.6,1.5-1,2.2c-0.2,0.3-0.1,0.7,0.2,0.8
		C440.7,105.1,441,105,441.2,104.8L441.2,104.8z"/>
	<path class="st3" d="M440.1,104.5c0,5.3,0,10.7,0.1,16c0,4.9,0.1,9.9,0.1,14.8c0,1.7,0,3.4,0,5c0,0.8,1.2,0.8,1.2,0
		c0-3.7,0-7.3-0.1-11c0-5.4-0.1-10.8-0.1-16.2c0-2.9,0-5.8,0-8.7C441.3,103.7,440.1,103.7,440.1,104.5L440.1,104.5z"/>
	<path class="st3" d="M469.3,123.1c0.3-1.3,0.6-2.5,0.9-3.8c0-0.1,0-0.3,0.1-0.4c0-0.1,0-0.3,0-0.1c0,0.1,0-0.1,0-0.1
		c0-0.1,0-0.2,0.1-0.3c0.1-0.5,0.3-1.1,0.5-1.6l-0.7,0.4c3,1,5.9,1.9,8.9,2.8c0.8,0.2,1.5,0.5,2.3,0.7l-0.4-0.7
		c-0.4,1.8-0.6,3.7-1.2,5.5c-0.4,1.2-0.9,2.4-1.4,3.6c-0.6,1.4-1.2,2.7-2,4c-0.6,1-1.4,2-2.5,2.6c-1,0.5-2.2,0.5-3.3,0.3
		c-2.4-0.5-4.4-2-5.9-3.8c-0.7-0.9-1.4-1.8-2.1-2.7c-0.3-0.4-0.6-0.8-0.9-1.2c-0.2-0.2-0.3-0.5-0.5-0.7c-0.2-0.3-0.5-0.4-0.8-0.2
		c-0.3,0.2-0.4,0.5-0.2,0.8c0.3,0.6,0.8,1.2,1.2,1.8c0.7,0.9,1.3,1.8,2,2.6c0.6,0.8,1.3,1.5,2,2.2c1.2,1,2.5,1.7,3.9,2.2
		c1.3,0.4,2.7,0.5,4,0.2c1.2-0.3,2.3-1.1,3-2.1c0.9-1.2,1.7-2.6,2.3-4c0.6-1.4,1.3-2.8,1.8-4.2c0.4-1,0.7-2,0.9-3.1
		c0.2-1.2,0.4-2.3,0.7-3.5c0.1-0.3-0.1-0.6-0.4-0.7c-3.1-0.9-6.2-1.9-9.3-2.9c-0.6-0.2-1.3-0.4-1.9-0.6c-0.3-0.1-0.7,0.1-0.7,0.4
		c-0.2,0.7-0.4,1.4-0.6,2c0,0.1,0,0.2,0,0.3c0,0,0,0.1,0,0.1c0,0.2,0-0.2,0,0c-0.1,0.3-0.1,0.7-0.2,1c-0.2,1-0.4,1.9-0.7,2.9
		C467.9,123.6,469.1,123.9,469.3,123.1L469.3,123.1z"/>
	<path class="st1" d="M471.9,113.3c0.5,0.8,1.1,1.6,1.8,2.2c2.1,1.7,5.6,2.3,6.8,2.1c1.2-0.3,1.4-0.7,1.7-1.8c1,0.7,1.9,2.1,1.7,3.3
		c-0.2,1.2-0.7,2.8-1.4,3.8c-0.3,0.5-0.7,0.9-1.2,1.2c-0.4,0.2-0.8,0.3-1.2,0.3c-3.9,0.4-7.7-0.8-10.7-3.2c-0.7-0.6-1.4-1.3-1.5-2.2
		c-0.1-0.9,0.4-2,1.3-2.1c0.2,0,0.5,0,0.7-0.2c0.2-0.2,0.1-0.5,0.1-0.7C469.9,114.5,470.5,113.2,471.9,113.3"/>
	<path class="st3" d="M471.4,113.6c0.6,1,1.4,1.9,2.3,2.6c0.8,0.6,1.8,1,2.7,1.4c0.9,0.3,1.8,0.5,2.8,0.6c0.7,0.1,1.4,0,2.1-0.2
		c0.4-0.1,0.8-0.4,1.1-0.8c0.2-0.4,0.4-0.8,0.5-1.3l-0.9,0.4c0.7,0.5,1.4,1.4,1.5,2.4c0,0.5-0.1,0.9-0.3,1.4c-0.1,0.5-0.3,1-0.5,1.5
		c-0.3,0.8-0.9,1.8-1.8,2.1c-1,0.3-2.1,0.2-3.2,0.1c-2.2-0.2-4.3-0.8-6.1-1.9c-0.9-0.5-1.8-1.1-2.5-1.9c-0.5-0.6-0.8-1.6-0.2-2.2
		c0.3-0.4,0.8-0.2,1.2-0.5c0.7-0.4,0.5-1.1,0.5-1.7c0-0.4,0.1-0.9,0.3-1.2c0.2-0.3,0.6-0.4,0.9-0.4c0.3,0,0.6-0.3,0.6-0.6
		c0-0.3-0.3-0.6-0.6-0.6c-1.1-0.1-2,0.7-2.3,1.7c-0.1,0.5-0.2,1.1-0.1,1.6c0,0.1,0,0.1,0,0.2c0,0,0.1-0.1,0.1-0.1c0,0-0.3,0-0.3,0
		c-0.3,0-0.6,0.1-0.8,0.3c-1,0.6-1.3,2-0.9,3.1c0.5,1.2,1.5,2,2.5,2.7c2.1,1.4,4.5,2.3,7,2.6c1.3,0.2,2.5,0.1,3.8-0.1
		c1.3-0.2,2.1-1.2,2.7-2.3c0.3-0.6,0.5-1.3,0.7-1.9c0.2-0.6,0.3-1.2,0.4-1.9c0-1.4-1-2.7-2.1-3.5c-0.3-0.2-0.8,0-0.9,0.4
		c-0.1,0.2-0.1,0.4-0.2,0.5c0,0.1-0.1,0.3-0.2,0.4c0,0,0,0,0,0.1c-0.1,0.1,0.1-0.1,0,0c0,0-0.1,0.1-0.1,0.1c0.1-0.1-0.1,0-0.1,0.1
		c0,0-0.2,0.1-0.2,0.1c-0.2,0.1-0.3,0.1-0.5,0.2c0,0-0.1,0-0.1,0c-0.1,0,0,0,0,0c0,0-0.1,0-0.1,0c-0.3,0-0.6,0-0.9,0
		c-1.7-0.2-3.2-0.7-4.7-1.6c-0.9-0.6-1.7-1.5-2.2-2.4C472,112.3,471,112.9,471.4,113.6L471.4,113.6z"/>
	<path class="st3" d="M475,119.8l-2.8-0.5c-0.3-0.1-0.6,0.1-0.7,0.4c-0.1,0.3,0.1,0.7,0.4,0.7l2.8,0.5c0.3,0.1,0.6-0.1,0.7-0.4
		C475.6,120.2,475.4,119.9,475,119.8z"/>
	<path class="st8" d="M477.9,98.3c1.3-4.4,3.7-12.4,5-16.8c0.2-0.8,1.1-1.2,1.8-1c0,0,0,0,0,0c2.5,0.8,5.9,1.8,8.1,2.4
		c0.8,0.2,1.2,1.1,1,1.8c-1.5,5-3.7,12.3-5,16.8c-0.2,0.8-1.1,1.2-1.8,1c-2.3-0.7-5.8-1.7-8.1-2.4C478.1,99.9,477.7,99,477.9,98.3
		C477.9,98.3,477.9,98.3,477.9,98.3z"/>
	<path class="st3" d="M478.5,98.4c1.1-3.6,2.2-7.2,3.2-10.8c0.5-1.7,1-3.5,1.6-5.2c0.2-0.6,0.4-1.5,1.2-1.4c0.5,0.1,1,0.3,1.4,0.4
		l1.5,0.5l3.1,0.9l1.4,0.4c0.4,0.1,0.8,0.2,1.1,0.5c0.2,0.2,0.3,0.6,0.2,0.9c-0.1,0.5-0.3,0.9-0.4,1.3c-0.3,1-0.6,1.9-0.9,2.9
		c-1.2,3.9-2.4,7.9-3.6,11.8c-0.1,0.3-0.2,0.8-0.4,1c-0.3,0.2-0.6,0.3-0.9,0.1c-0.9-0.3-1.8-0.5-2.8-0.8l-3.1-0.9l-1.4-0.4
		c-0.3-0.1-0.8-0.2-1.1-0.4C478.5,99.1,478.4,98.7,478.5,98.4c0.2-0.8-1-1.1-1.2-0.3c-0.3,1.1,0.3,2.3,1.4,2.6c1,0.3,2,0.6,2.9,0.9
		c1.1,0.3,2.2,0.7,3.3,1c0.5,0.1,1,0.3,1.4,0.4c0.5,0.2,1,0.2,1.5,0.1c0.5-0.1,1-0.5,1.2-1c0.2-0.4,0.4-0.9,0.5-1.4
		c0.3-1,0.6-1.9,0.9-2.9c0.7-2.2,1.3-4.4,2-6.6c0.6-2.1,1.3-4.2,1.9-6.3c0.3-1.1-0.2-2.3-1.3-2.6c-1-0.3-2-0.6-2.9-0.9l-3.4-1
		l-1.6-0.5c-0.5-0.2-1.1-0.2-1.6,0c-0.5,0.2-0.9,0.6-1.1,1c-0.2,0.4-0.3,0.9-0.4,1.3c-0.3,0.9-0.5,1.8-0.8,2.7
		c-1.2,4-2.4,8-3.5,11.9c-0.1,0.4-0.2,0.8-0.3,1.2C477.1,98.8,478.3,99.2,478.5,98.4z"/>
	<path class="st3" d="M485.9,80.8c2,0.6,4.2,1.3,6,1.8c0,0-0.2,0.6-0.4,1.2c-0.1,0.4-0.5,0.6-0.9,0.5c-1.2-0.3-3.4-1-4.6-1.3
		c-0.4-0.1-0.6-0.5-0.5-0.9c0,0,0,0,0,0C485.6,81.5,485.8,80.8,485.9,80.8z"/>
	<path class="st3" d="M438.1,85.9c0.9,0.4,1.8,0.7,2.8,0.6c1,0,2-0.2,2.8-0.8c0.2-0.2,0.2-0.6,0-0.9c-0.2-0.2-0.6-0.2-0.9,0
		c0.2-0.1,0,0,0,0c-0.1,0-0.1,0.1-0.2,0.1c0,0-0.2,0.1-0.1,0.1c-0.1,0-0.2,0.1-0.2,0.1c-0.5,0.1-1,0.2-1.5,0.2
		c-0.5,0-0.9-0.1-1.4-0.2c-0.1,0-0.2-0.1-0.3-0.1c0,0-0.1,0-0.1,0c0.1,0.1,0,0,0,0c-0.1-0.1-0.2-0.1-0.3-0.2
		c-0.3-0.2-0.7-0.1-0.8,0.2C437.7,85.4,437.8,85.8,438.1,85.9L438.1,85.9z"/>
	<path class="st3" d="M440.6,79.3c0.1,0.5,0.2,1,0.3,1.4l0-0.2c0,0.1,0,0.1,0,0.2l0-0.2c0,0,0,0.1,0,0.1l0.1-0.1c0,0,0,0,0,0.1
		l0.1-0.1c0,0,0,0,0,0l0.1-0.1c0,0-0.1,0-0.1,0.1l0.1-0.1c-0.1,0-0.1,0-0.2,0.1l0.2,0c-0.1,0-0.1,0-0.2,0l0.2,0c-0.1,0-0.1,0-0.2,0
		c-0.2,0-0.3,0-0.5,0.1c-0.3,0.2-0.4,0.5-0.2,0.8c0,0,0,0,0,0c0.1,0.1,0.2,0.2,0.4,0.3c0.1,0,0.3,0.1,0.4,0.1c0.2,0,0.4,0,0.6-0.1
		c0.2-0.1,0.4-0.3,0.5-0.6c0-0.2,0-0.4,0-0.6c-0.1-0.5-0.2-0.9-0.3-1.4c-0.1-0.3-0.4-0.5-0.7-0.4C440.7,78.7,440.5,79,440.6,79.3
		L440.6,79.3z"/>
	<path class="st3" d="M432.9,75.3c-0.2,0.8-0.1,2.6,1.4,2.7c2,0,2.1-2.2,1.4-3.2C435.1,74,433.5,73.6,432.9,75.3z"/>
	<path class="st3" d="M448.5,75.3c0.2,0.8,0.1,2.6-1.4,2.7c-2,0-2.1-2.2-1.4-3.2C446.3,74,447.9,73.6,448.5,75.3z"/>
</g>
<g>
</g>
<g>
</g>
<g>
</g>
<g>
</g>
<g>
</g>
<g>
</g>
<g>
</g>
<g>
</g>
<g>
</g>
<g>
</g>
<g>
</g>
<g>
</g>
<g>
</g>
<g>
</g>
<g>
</g>
</svg>
