<?xml version="1.0" encoding="utf-8"?>
<!-- Generator: Adobe Illustrator 27.0.0, SVG Export Plug-In . SVG Version: 6.00 Build 0)  -->
<svg version="1.1" id="レイヤー_1" xmlns="http://www.w3.org/2000/svg" xmlns:xlink="http://www.w3.org/1999/xlink" x="0px"
	 y="0px" viewBox="0 0 1550 620" style="enable-background:new 0 0 1550 620;" xml:space="preserve">
<style type="text/css">
	.st0{fill:#FBFFD1;}
	.st1{fill:#FBB03B;}
	.st2{fill:#FFFFFF;}
	.st3{fill:#211715;}
	.st4{fill:#FEBE69;}
	.st5{fill:#85807F;}
	.st6{fill:#7ABEE6;}
	.st7{fill:#A98A75;}
	.st8{fill:#A095C1;}
	.st9{fill:#B3B3B3;}
	.st10{fill:none;stroke:#F29859;stroke-width:6;stroke-linecap:round;stroke-linejoin:round;stroke-miterlimit:10;}
</style>
<g>
	<g>
		<polygon class="st0" points="675,224.4 355.3,24.4 35,224.3 105,224.3 105,594.4 605,594.4 605,224.4 		"/>
		<g>
			<path class="st1" d="M677.5,220.1c-10.6-6.6-21.2-13.3-31.8-19.9c-25.5-15.9-50.9-31.8-76.4-47.8c-30.8-19.3-61.6-38.5-92.4-57.8
				c-26.6-16.7-53.2-33.3-79.9-50c-8.7-5.5-17.5-10.9-26.2-16.4c-4.1-2.6-8.2-5.6-12.5-7.8c-0.2-0.1-0.4-0.2-0.6-0.4
				c-1.5-0.9-3.6-0.9-5,0c-10.6,6.6-21.2,13.2-31.8,19.8c-25.6,16-51.1,31.9-76.7,47.9c-30.8,19.2-61.6,38.4-92.4,57.7
				c-26.6,16.6-53.3,33.2-79.9,49.9c-12.9,8-26.6,15.4-39,24.3c-0.2,0.1-0.4,0.2-0.6,0.4c-4.1,2.6-2.5,9.3,2.5,9.3
				c23.3,0,46.7,0,70,0c-1.7-1.7-3.3-3.3-5-5c0,12.3,0,24.5,0,36.8c0,29.4,0,58.9,0,88.3c0,35.6,0,71.3,0,106.9
				c0,30.8,0,61.6,0,92.4c0,14.9-1.1,30.2,0,45c0,0.2,0,0.4,0,0.6c0,2.7,2.3,5,5,5c16.6,0,33.2,0,49.8,0c39.8,0,79.7,0,119.5,0
				c48,0,96,0,144.1,0c41.7,0,83.3,0,125,0c20.2,0,40.6,0.8,60.8,0c0.3,0,0.6,0,0.9,0c2.7,0,5-2.3,5-5c0-12.3,0-24.5,0-36.8
				c0-29.4,0-58.9,0-88.3c0-35.6,0-71.2,0-106.9c0-30.8,0-61.6,0-92.4c0-10.1,0-20.3,0-30.4c0-4.6,0.8-10.1,0-14.6
				c0-0.2,0-0.4,0-0.6c-1.7,1.7-3.3,3.3-5,5c23.3,0,46.7,0,70,0c6.4,0,6.4-10,0-10c-23.3,0-46.7,0-70,0c-2.7,0-5,2.3-5,5
				c0,12.3,0,24.5,0,36.8c0,29.4,0,58.9,0,88.3c0,35.6,0,71.2,0,106.9c0,30.8,0,61.6,0,92.4c0,10.1,0,20.3,0,30.4
				c0,4.6-0.8,10.1,0,14.6c0,0.2,0,0.4,0,0.6c1.7-1.7,3.3-3.3,5-5c-16.6,0-33.2,0-49.8,0c-39.8,0-79.7,0-119.5,0c-48,0-96,0-144.1,0
				c-41.7,0-83.3,0-125,0c-13.8,0-27.5,0-41.3,0c-6.2,0-13.3-0.9-19.4,0c-0.3,0-0.6,0-0.9,0c1.7,1.7,3.3,3.3,5,5
				c0-12.3,0-24.5,0-36.8c0-29.4,0-58.9,0-88.3c0-35.6,0-71.3,0-106.9c0-30.8,0-61.6,0-92.4c0-14.9,1.1-30.2,0-45c0-0.2,0-0.4,0-0.6
				c0-2.7-2.3-5-5-5c-23.3,0-46.7,0-70,0c0.8,3.1,1.7,6.2,2.5,9.3c10.6-6.6,21.2-13.2,31.8-19.8c25.6-16,51.1-31.9,76.7-47.9
				c30.8-19.2,61.6-38.4,92.4-57.7C265,86.7,291.6,70,318.3,53.4c8.8-5.5,17.6-11,26.5-16.5c3.9-2.4,9.1-4.7,12.5-7.8
				c0.2-0.1,0.4-0.2,0.6-0.4c-1.7,0-3.4,0-5,0c10.6,6.6,21.2,13.3,31.8,19.9c25.5,15.9,50.9,31.8,76.4,47.8
				c30.8,19.3,61.6,38.5,92.4,57.8c26.6,16.7,53.2,33.3,79.9,50c8.7,5.5,17.5,10.9,26.2,16.4c4.1,2.6,8.2,5.6,12.5,7.8
				c0.2,0.1,0.4,0.2,0.6,0.4C677.9,232.1,683,223.5,677.5,220.1z"/>
		</g>
	</g>
	<g>
		<path class="st2" d="M468.2,383.4c1.2-1.1,2.7-1.6,4.3-1.6c2-0.1,3.9,1,4.9,2.8c1.7,2.9,1.6,8.3,0.4,11.6c-0.8,2.4-2.1,6-5.3,8.5
			c-1.4,1.2-3.2,1.7-5.1,1.4l-0.5-0.1c-0.5,1.6-1.1,3.2-1.8,4.7c-1.2,3.3-7.8,14.6-16.2,19.7c0-0.5,0.1-0.1,0.1,0.2
			c0.5,3,1,6,2.6,8.6c2.6,4.3,11.5,7.6,18.2,10.4l-8.7,4.4c-5.6,3.1-11.1,5.7-27.4,6.1c-13.8,0.3-22.4-1.6-35.1-7.6l-8.1-4.8
			c8-2.9,16-4.9,19.8-7.5c0.5-0.2,0.9-0.5,1.2-0.9c0.2-0.3,0.3-0.6,0.3-1c0.4-2.3,0.8-4.6,1.2-7c-4.3-2-8.1-5.2-11.7-9.5
			c-3.9-4.8-6.8-10.3-8.5-16.2c-1.9,0.4-3.9-0.1-5.5-1.4c-3.1-2.6-4.4-6.2-5.2-8.6c-1.1-3.3-1.2-8.7,0.5-11.6c1-1.8,2.9-2.8,5-2.7
			c1.6-0.1,3.1,0.5,4.3,1.6c0,0-10.2-32.6,38-32.6S468.2,383.4,468.2,383.4z"/>
		<path class="st2" d="M330.2,361.8c1.3-1.1,2.9-1.6,4.6-1.5c2.1,0,4.1,1.2,5.1,3.1c1.7,3.1,1.4,8.8,0.1,12.3
			c-0.9,2.5-2.4,6.2-5.8,8.8c-1.5,1.2-3.5,1.7-5.4,1.4l-0.5-0.1c-0.6,1.7-1.2,3.3-2,4.9c-1,2.4-4.6,8.5-9.7,13.8
			c-8.2,5.1-11.4,15.5-11.4,24.7c0,1.6-0.1,3.1-0.2,4.7c-17.1,5.9-34.7,2.7-48.8-9.8c3.7-1.4,8.2-3.1,8.3-3.2
			c2.8-1.1,3.8-3.4,4.4-5.9c0.4-1.6,0.6-3.1,0.8-4.7c-4.2-2.5-7.9-5.8-10.8-9.8c-4-5.1-6.9-11-8.5-17.3c-2.1,0.4-4.2-0.2-5.7-1.6
			c-3.2-2.8-4.5-6.7-5.3-9.2c-1.1-3.5-1-9.2,0.9-12.2c1.1-1.8,3.2-2.9,5.3-2.7c1.7,0,3.3,0.6,4.5,1.8c0,0-14.1-37.5,40.6-37.5
			S330.2,361.8,330.2,361.8z"/>
		<path class="st3" d="M327,382.2c-0.4,1.7-0.9,3.3-1.6,4.9c-0.2,0.6-0.5,1.1-0.7,1.7c-0.1,0.2-0.2,0.5-0.3,0.7
			c-0.7,1.5,0.2-0.3-0.2,0.4c-0.8,1.7-1.7,3.3-2.8,4.9c-2.9,4.7-6.6,8.8-10.9,12.2c-2.4,1.9-5.2,3.3-8.3,4c-1.2,0.3-1.9,1.6-1.6,2.8
			c0.3,1.2,1.6,1.9,2.8,1.6c6.2-1.2,11.4-5.6,15.5-10.1c3.5-3.7,6.5-8,8.9-12.6c0.1-0.2,0.2-0.4,0.3-0.5c0.1-0.2,0.2-0.4,0.3-0.7
			c-0.2,0.3,0.1-0.1,0.1-0.2c0.1-0.2,0.2-0.4,0.3-0.6c0.2-0.4,0.4-0.9,0.6-1.4c0.8-1.9,1.5-3.9,2-6C332,380.6,327.6,379.3,327,382.2
			L327,382.2z"/>
		<path class="st2" d="M312.1,408.2c-4.9,5.6-6.9,13.6-6.9,20.9c-0.1,3.8-0.4,7.5-0.6,11c-0.4,5.7,0.6,11.1,4.4,15.1
			c4,4.2,8.1,6.9,13.8,4.7c3.4-2.2,8.6-3.3,12.9-4c6.2-0.9,12.4,0.6,17.6,4.1c6-3.6,10.1-8.4,12.1-13.4c2.4-6.4,3.3-13.2,2.8-20
			c-1.3-19.2-19-27.1-36.5-26.4c-5.1,0.1-10.1,1.5-14.6,3.9C315.1,405.3,313.5,406.6,312.1,408.2z"/>
		<path class="st2" d="M260.8,588.4c-22.1-2.2-39.2-6.5-46.3-8.7c-10-3.2-16.5-11-20.2-18.7c-4.1-8.3-3.5-24.7-2.2-32.5
			c3-19,5-28.9,8.6-47.6c1.5-7.6,4.3-23.6,11.2-32.8c5.1-6.8,13.4-11.8,22.7-16c6.9-3.1,14.3-5.7,21.4-8.3
			c14.1,12.8,31.9,16.1,49.1,10.1c-0.1,2.2-0.3,4.3-0.4,6.3c-0.4,5.7,0.6,11.1,4.4,15.1c3.5,3.7,7.1,6.2,11.8,5.3l1.2-0.2
			c-6.3,3.5-11.9,7.6-16.1,14.8c-1.6-3.4-3.6-6.7-5.9-9.7c1.1-2.2,1.5-4.7,1-7.1c-0.4-1.9-1.7-3.9-3.6-4c-1.6-0.1-2.9,1.1-4,2.2
			c-3.1-3.6-7.4-6.8-12.1-6.2c-5.1,0.6-8.8,5.9-8.6,11.1c0.2,5.8,4.5,11,9.6,13.6c-1.1,7.1,3.9,25.8,5.8,32.2
			c1.2,4,2.9,8.2,6.5,10.5c2,1.2,4.2,1.9,6.4,2l-0.5,1.7c-9,0.9-15.5,11.6-12.2,20l1.5,3.6c0.2,3.6,0.3,7,0.3,7
			c0.5,10.4-1.4,29.2-2.3,37.8C278.3,589.8,269.1,589.3,260.8,588.4z"/>
		<path class="st2" d="M472.3,581.6c-15,0-43.4-0.1-70.5-0.1c-34.7-0.1-67.3-0.2-67.3-0.2c2.9-27.1,11.1-96.8,11.1-96.8l22.8-22.1
			c3.8-4.3,8.5-7.6,13.3-10.7c2.8-1.6,5.8-2.9,8.9-3.9l8.2,4.8c12.7,6,21.3,7.9,35.1,7.6c16.3-0.4,21.8-3,27.4-6.1l8.7-4.4
			c7.1,2.6,13.9,5.8,20.3,9.7c5.8,3.7,10.4,9.1,13.2,15.5c2.2,5,3.9,10.2,5.2,15.5c3.1,11.3,6.5,22.5,8.4,34.1
			c1.7,10.3,3.6,23.4-1,33.2c-2.9,6.2-8.1,11-13.3,15.3C502.8,573,485.7,576.9,472.3,581.6z"/>
		<path class="st2" d="M469,516.2c1-0.9,2.4-1.3,3.7-1.1c1.3,0.2,2.5,1,3.2,2.1c0.4,0.8,0.6,1.6,0.7,2.5c0.3,3.4-0.4,6.9-1.9,9.9
			c-0.7,1.6-1.8,2.9-3.1,4c-1.1,1.1-2.8,1.3-4.1,0.6c-0.3,1-0.6,2-1,3c-1.1,2.7-7,12.3-14.5,15.8c0,0.3,0.1,0.7,0.2,1.2
			c0.4,2.3,1,4.9,4.1,6.6c0.2,0.1,4.2,2,4.5,2.1l1.2,0.5l-0.3,0.3c-3.4,4.2-11.3,7.8-19.3,8.3c-4.9,0.3-9.7,0-14.5-1
			c-4.7-1-9.4-3-12.7-6.6l-0.8-0.8l1.8-0.8c0.3-0.1,4.3-2,4.5-2.1c3.1-1.7,3.7-4.3,4.1-6.6c0-0.1,0.1-0.3,0.1-0.4
			c-4-1.8-7.6-4.5-10.5-7.8c-3.1-3.4-5.4-7.5-6.8-11.8c-2.1,1.1-3.4,0.6-4.7-0.4c-1.3-1.1-2.4-2.5-3.1-4c-1.5-3.1-2.2-6.5-1.9-9.9
			c0-0.9,0.3-1.7,0.7-2.5c0.7-1.1,1.9-1.9,3.2-2.1c1.3-0.2,2.7,0.2,3.7,1.1c0,0-7.8-28.2,28.2-28.2S469,516.2,469,516.2z"/>
		<path class="st4" d="M391,579.8c-2.3,3.7-3.8,7.3-5.5,12.4h107.4c-2.8-6.4-6.5-12.4-11-17.7c-3.9-4.6-11.5-8.7-19.5-11.6
			c-2.9,4.6-11.3,8.7-19.9,9.2c-4.9,0.3-9.7,0-14.5-1c-5.1-1.1-10.1-3.4-13.5-7.5c-7.2,2.8-16,6.9-19.4,10.8
			C393.5,576.2,392.2,578,391,579.8z"/>
		<path class="st4" d="M463.1,334.4c-2.6-2.4-5.3-4.6-8.2-6.5c-2-1.3-4.2-2.4-6.4-3.3c-5.8-2.5-12-3.6-18.3-3.3
			c-21-1.2-41,14.5-45.1,34.3c-1.1,5.4-0.7,13.6-0.1,18c0.3,2.4,0.9,4.8,1.9,7.1l0.4,0.9c0.2,0,0.4,0,0.6,0c1.5-0.1,2.9,0.4,4.1,1.4
			c3.7-4.4,8-6.3,15-9.2c0.7-0.3,1.4-0.6,2.1-0.9c0.6,0,1,0,1,0c-0.2,0.8,0.2,1.7,0.9,2.1c0.9,0.3,1.9,0.5,2.9,0.4
			c3.5,0.2,7-0.7,10.1-2.4h5.6c-0.2,0.8,0,1.7,1.4,1.9c3.8,0.4,7.6-0.6,10.8-2.8c2.4-1.9,4.4-4.2,5.9-6.8c1.6-2.8,2.7-5.9,3.3-9.1
			h3.5c0.7,5.4,2.8,10.4,5.1,15.3c1.4,2.9,3.1,6.1,6.1,7.3l2.5,4.7c1.2-1.1,2.7-1.6,4.3-1.6c0.8,0,1.6,0.2,2.3,0.5
			c3-7.6,1.5-20.1,0.2-26.4c-0.6-3.2-1.7-6.3-3.1-9.3C469.9,342,466.8,337.9,463.1,334.4z"/>
		<path class="st5" d="M451.7,477.7c0.8-5.5,5.3-7.8,10.2-8.5c5.2-0.7,8.8,0.6,13,4.3c1.5,1.4,2.7,3,3.5,4.9
			c1.1,2.7,1.9,5.4,2.5,8.3c0.8,3.8,1.7,6.2,4.3,8.8c-4.6,1.4-8.6,1.7-12.4,0.1"/>
		<path class="st5" d="M407.9,517.4c-0.3,0.1-0.4-0.4-0.3-0.7c0.9-3.6,2.5-7,4.7-9.9c3-4,7.5-6.7,12.5-7.3c1.9,2.7,4.4,4.9,7.3,6.5
			c0.6,0.4,1.2,0.6,1.9,0.7c0,0,12.3,0,21.4,0c0.9,0.3,1.8,0.6,2.7,1c4.1,2,7.1,5.8,7.9,10.2l0.1,0.7l2.8-2.5
			c0.9-0.8,2.2-1.2,3.4-1.1c0.6-3.3,0.8-6.7,0.6-10c-0.2-5.9-1.9-11.6-5-16.7c-1.3-2.1-2.8-4-4.6-5.8c-0.7-0.7-1.7-1.7-2.5-2.3
			c-1.9-1.5-3.9-2.8-6-4c-1.7-0.9-3.4-1.7-5.2-2.3c-4-1.4-8.2-2.1-12.4-2c-7.5-0.1-14.9,2.1-21,6.5c-8.8,6.1-14.2,16-14.6,26.7
			c-0.1,3.4,0.2,6.8,0.9,10.2c1,0.1,2,0.5,2.8,1.1"/>
		<path class="st3" d="M254.6,425.6c11,9.7,25.3,14.8,40,12.9c4.2-0.5,8.3-1.6,12.2-3c1.2-0.4,1.9-1.6,1.6-2.8
			c-0.3-1.2-1.6-1.9-2.8-1.6c-12.5,4.6-26.2,4.4-38.1-1.9c-3.5-1.9-6.8-4.2-9.7-6.8C255.6,420.5,252.4,423.7,254.6,425.6z"/>
		<path class="st5" d="M244.5,329.9c3.3-10.2,9.9-19,18.8-25c8.5-5.8,18.6-8.7,28.8-8.2c9.5,0.2,18.7,3.2,26.4,8.7l6.1,5
			c7.5,7.2,14.2,18.4,14.3,34.5c0,5.3-0.8,10.6-2.4,15.7c-0.6-0.2-1.2-0.3-1.8-0.3c-1.7-0.1-3.3,0.4-4.6,1.5l-6.2-5.2
			c-1.9-5.2-6.3-11.1-11-15.4c-2.1-2-4.5-3.6-7.2-4.8l-7.9-1.2c-5.4,2.1-13.1,6.6-17.5,8.8c-0.7,0.3-1.6,0-1.9-0.7
			c-0.1-0.3-0.2-0.6-0.1-0.9c0.1-0.9,0.1-1.9-0.1-2.8c-0.2-1.2-1.1-1.7-1.8-1.4c-6,2.9-14.8,10.7-19.7,15.9l-6.6,5.2
			c-1.2-1.2-2.8-1.8-4.5-1.8c-0.7,0-1.3,0.1-2,0.2c-1.3-5.2-1.8-10.5-1.5-15.9C242.6,337.8,243.3,333.8,244.5,329.9z"/>
		<path class="st3" d="M251.8,357.6c-2.7-2.5-6.7-3.2-10-1.6c-2.3,1.2-3.9,3.3-4.5,5.8c-1.7,5.7-0.4,12.4,2.7,17.5
			c2.1,3.5,5.7,6.6,10,6.2c1.2,0,2.2-1,2.2-2.2c0-1.2-1-2.2-2.2-2.2c-3.4,0.3-5.6-2.7-7-5.4c-1.1-2.3-1.8-4.7-2-7.3
			c-0.1-2.4,0-5.4,1.5-7.4c-0.3,0.4,0.2-0.2,0.3-0.3c0.3-0.3-0.1,0,0.3-0.2c0.5-0.3,1-0.5,1.6-0.6c1.4-0.3,2.7,0.1,3.8,1.1
			C250.7,362.8,253.8,359.6,251.8,357.6L251.8,357.6z"/>
		<path class="st3" d="M331.8,363.4c1.1-0.8,2.5-1.1,3.9-0.7c0.8,0.2,1.5,0.6,2,1.2c1.4,2.1,1.4,5.1,1.1,7.6c-0.4,2.5-1.2,5-2.5,7.2
			c-1.3,2.3-3.7,5.4-6.8,4.9c-1.2-0.3-2.4,0.4-2.8,1.6c-0.3,1.2,0.4,2.4,1.6,2.8c7.4,1.2,11.9-5.9,14-11.9c1.8-5,2.1-13-2.8-16.5
			c-3.4-2.3-7.8-2-10.9,0.6c-0.9,0.9-0.9,2.3,0,3.2C329.5,364.2,330.9,364.2,331.8,363.4L331.8,363.4z"/>
		<path class="st3" d="M247.6,380.7c1.2,6,3.4,11.8,6.7,17.1c3.5,5.5,8.1,10.7,13.7,14.1c2.9,1.7,6.1,2.9,9.4,3.5
			c1.2,0.3,2.4-0.4,2.8-1.6c0.3-1.2-0.4-2.4-1.6-2.8c-7.2-1.3-12.9-5.7-17.4-11.3c-4.7-5.9-7.9-12.8-9.2-20.2
			c-0.3-1.2-1.6-1.9-2.8-1.6C248,378.3,247.3,379.5,247.6,380.7z"/>
		<path class="st3" d="M319.7,303.5c-14.3-9.8-32.5-11.8-48.5-5.4c-13,5.4-23.2,16.1-28.1,29.3c-3.4,9.7-3.9,20.1-1.6,30.1
			c0.6,2.8,5,1.6,4.3-1.2c-3.3-14.8,0-30.7,10.3-42.1c15.8-17.4,42.1-20.4,61.4-6.9c1.1,0.6,2.4,0.3,3.1-0.8
			C321.1,305.5,320.7,304.1,319.7,303.5L319.7,303.5z"/>
		<path class="st3" d="M338.9,360.5c1.2-4,1.9-8.2,2.2-12.4c0.2-4.2,0-8.3-0.7-12.4c-1.1-6.7-3.6-13.2-7.4-18.9
			c-1.9-2.8-4-5.3-6.4-7.7c-2.1-2-5.3,1.2-3.2,3.2c4,3.9,7.2,8.5,9.5,13.6c2.7,6.4,4,13.4,3.8,20.4c-0.2,4.4-0.9,8.8-2.1,13
			C333.8,362.1,338.1,363.3,338.9,360.5L338.9,360.5z"/>
		<path class="st3" d="M282.8,394.3c2.4,1.3,5.1,2,7.8,2.1c2.6,0.1,5.6-0.3,7.8-1.8c1-0.6,1.4-2,0.8-3.1c-0.6-1.1-2-1.4-3.1-0.8
			c-0.3,0.2-0.5,0.4-0.8,0.5c-0.1,0-0.2,0.1-0.3,0.1c-0.2,0.1,0.5-0.2,0.1-0.1c-0.2,0.1-0.5,0.2-0.7,0.2c-0.3,0.1-0.6,0.2-0.9,0.2
			c-0.1,0-0.3,0.1-0.4,0.1c-0.2,0-0.4,0-0.1,0c-0.8,0.1-1.7,0.1-2.5,0.1c-0.4,0-0.8,0-1.2-0.1c0,0-0.7-0.1-0.3,0
			c-0.2,0-0.3-0.1-0.5-0.1c-0.6-0.1-1.2-0.3-1.8-0.4c-0.2-0.1-0.5-0.2-0.7-0.3c-0.3-0.1,0.5,0.2,0.1,0.1c-0.1-0.1-0.2-0.1-0.3-0.1
			c-0.3-0.1-0.6-0.3-0.9-0.5c-1.1-0.6-2.5-0.3-3.1,0.8C281.4,392.3,281.7,393.6,282.8,394.3L282.8,394.3L282.8,394.3z"/>
		<path class="st3" d="M290.1,375.9c0.3,1.2,0.5,2.4,0.7,3.6l-0.1-0.6c0,0.3,0.1,0.6,0.1,0.9l-0.1-0.6c0,0.2,0,0.5,0,0.7l0.1-0.6
			c0,0.1,0,0.2-0.1,0.2l0.2-0.5c0,0.1-0.1,0.1-0.1,0.2l0.4-0.5c0,0-0.1,0.1-0.1,0.1l0.5-0.4c-0.1,0.1-0.2,0.1-0.4,0.2l0.5-0.2
			c-0.2,0.1-0.3,0.1-0.5,0.1l0.6-0.1c-0.2,0-0.3,0-0.5,0l0.6,0.1c-0.2,0-0.4-0.1-0.6-0.1c-0.6-0.1-1.2-0.1-1.7,0.2
			c-1.1,0.6-1.4,2-0.8,3.1c0,0,0,0,0,0c0.3,0.5,0.8,0.9,1.3,1c0.4,0.1,0.9,0.2,1.3,0.2c0.7,0,1.4-0.1,2.1-0.5
			c0.8-0.4,1.3-1.1,1.5-1.9c0.1-0.7,0.1-1.4,0-2.1l0.1,0.6c-0.2-1.5-0.4-2.9-0.8-4.3c-0.3-1.2-1.6-1.9-2.8-1.6
			C290.4,373.5,289.8,374.7,290.1,375.9L290.1,375.9z"/>
		<path class="st3" d="M269.6,363.9c-0.7,2.1-0.5,7.1,3.6,7.7c5.4,0.1,5.9-5.8,4.1-8.7C276,360.5,271.6,359.4,269.6,363.9z"/>
		<path class="st3" d="M312.8,365.3c0.6,2.2,0,7.1-4.1,7.4c-5.4-0.2-5.5-6.2-3.6-9C306.7,361.4,311.1,360.6,312.8,365.3z"/>
		<path class="st3" d="M304.7,338.3c3.8,1.9,7.2,4.6,10,7.8c3,3.2,5.5,6.9,7.1,11c0.4,1.2,1.6,1.9,2.8,1.6c1.2-0.3,1.9-1.6,1.6-2.8
			c-1.9-4.7-4.6-9-8-12.7c-3.1-3.7-6.9-6.7-11.2-8.8c-1.1-0.6-2.4-0.2-3.1,0.8C303.3,336.3,303.6,337.7,304.7,338.3L304.7,338.3z"/>
		<path class="st3" d="M258.3,355.6c4.9-5.3,10.4-9.9,16.3-13.9c0.6-0.4,1.3-0.8,2-1.2c0.2-0.1,0.3-0.2,0.5-0.3c0.3-0.2,0.2,0,0-0.1
			c-0.1-0.1-1.5,0.5-1-0.2c-0.1,0.1,0,0.4,0.1,0.5c0.1,0.8-0.1,1.6,0,2.4c0.1,1.1,0.7,2.1,1.5,2.7c1.8,1.3,3.6,0.4,5.3-0.5
			c1.5-0.8,3-1.6,4.5-2.4c3.6-2,7.2-3.8,11-5.4c1.2-0.4,1.9-1.6,1.6-2.8c-0.3-1.2-1.6-1.9-2.8-1.6c-3.5,1.4-7,3.1-10.3,4.9
			c-1.6,0.9-3.3,1.8-4.9,2.6c-0.7,0.4-1.3,0.7-2,1.1c-0.5,0.3-0.8,0.2-0.1,0.4c0.7,0.2,0.7,0.6,0.7-0.3c0.1-2-0.3-4.4-2.2-5.5
			c-1.8-1-3.6,0.2-5.2,1.1c-3.2,2-6.3,4.2-9.1,6.7c-3.2,2.7-6.2,5.5-9,8.4C253.1,354.5,256.3,357.7,258.3,355.6L258.3,355.6z"/>
		<path class="st3" d="M256.8,426.2c2-0.8,4-1.5,6-2.3c1.3-0.4,2.5-0.9,3.7-1.5c4.2-2.3,4.9-7.7,5.4-12c0-1.2-1-2.2-2.2-2.2l0,0
			c-1.2,0-2.2,1-2.2,2.2c0,0.3,0,0.3,0,0.2c0,0.2,0,0.3-0.1,0.5c0,0.2-0.1,0.5-0.1,0.7c-0.1,0.6-0.2,1.2-0.3,1.8
			c-0.2,0.9-0.4,1.7-0.7,2.5c0,0.1-0.1,0.2-0.1,0.3c0.1-0.3,0.1-0.3,0-0.1c-0.1,0.2-0.2,0.3-0.2,0.5c-0.1,0.2-0.2,0.3-0.3,0.5
			c-0.3,0.5,0.2-0.1-0.1,0.2c-0.1,0.1-0.2,0.3-0.4,0.4c-0.1,0.1-0.2,0.2-0.3,0.2c0.2-0.2,0.2-0.2,0,0c-0.2,0.1-0.3,0.2-0.5,0.3
			c-0.2,0.1-0.3,0.1-0.5,0.2c0.2-0.1-0.1,0-0.1,0c-0.2,0.1-0.4,0.1-0.6,0.2c-0.7,0.2-1.3,0.5-2,0.7c-1.9,0.7-3.7,1.4-5.6,2.1
			c-1.2,0.4-1.9,1.6-1.6,2.8C254.4,425.8,255.6,426.5,256.8,426.2L256.8,426.2z"/>
		<path class="st3" d="M254.8,421.7c-9.3,3.4-18.7,6.7-27.5,11.3c-7.8,4.1-15.2,9.5-19.6,17.3c-4.2,7.5-6.4,16.2-8.1,24.6
			c-1.8,9-3.5,18-5.2,27c-1.8,9.5-3.7,19.1-4.8,28.7c-1,8.2-1.1,16.9,0.7,25c1.8,8.3,7.2,16,13.9,21.1c5.4,4.2,12,5.9,18.5,7.5
			c17.9,4.3,36.2,6.9,54.7,7.6c2.9,0.1,5.7,0.2,8.6,0.2c2.9,0,2.9-4.5,0-4.5c-19.1-0.2-38.2-2.4-56.8-6.5c-2.9-0.7-5.9-1.4-8.8-2.1
			c-2.5-0.6-4.9-1.4-7.3-2.3c-7.6-3.2-13.8-10.1-16.9-17.5c-1.3-3.5-2.1-7.3-2.3-11.1c-0.3-4.1-0.3-8.3-0.1-12.4
			c0.3-4,0.8-8,1.5-11.9c0.8-4.8,1.6-9.6,2.5-14.4c1.7-9.5,3.6-18.9,5.4-28.3c1.5-7.6,3-15.3,5.9-22.6c1.3-3.7,3.3-7.1,5.7-10.2
			c2.7-3.1,5.8-5.8,9.3-8c7.8-5.1,16.6-8.5,25.4-11.7c2.3-0.8,4.5-1.7,6.8-2.5c1.2-0.4,1.9-1.6,1.6-2.8
			C257.2,422.1,256,421.4,254.8,421.7L254.8,421.7z"/>
		<path class="st3" d="M238.2,491.1c-1.4,11.2-3.4,22.9-5.3,34.3c-0.5,3.1-1,6.1-1.5,9.2c-0.3,1.2,0.4,2.4,1.6,2.8
			c1.2,0.3,2.4-0.4,2.8-1.6c2-11.9,4-23.8,5.8-35.7c0.4-3,0.9-5.9,1.2-8.9c0-1.2-1-2.2-2.2-2.2C239.2,488.9,238.3,489.9,238.2,491.1
			z"/>
		<path class="st3" d="M422.7,553.9c0,0,0.1-0.7,0-0.4c0,0.1,0,0.2-0.1,0.3c0,0.1,0,0.2-0.1,0.3c0,0.2-0.1,0.5-0.2,0.7
			c-0.1,0.5-0.2,1-0.4,1.5c0,0.1-0.2,0.5-0.1,0.2c0.2-0.4,0,0-0.1,0.1c-0.1,0.2-0.3,0.5-0.4,0.7c-0.1,0.1-0.2,0.2-0.2,0.4
			c-0.2,0.3,0.3-0.4,0-0.1c-0.2,0.2-0.4,0.4-0.6,0.7c-0.1,0.1-0.2,0.2-0.4,0.3c-0.2,0.2,0.2-0.1,0.2-0.1c-0.1,0-0.1,0.1-0.2,0.1
			c-0.1,0.1-0.3,0.2-0.4,0.3c-0.3,0.2,0.2-0.1,0.2-0.1c-0.4,0.1-0.7,0.3-1.1,0.5c-0.7,0.3-1.4,0.7-2.2,1c-0.6,0.3-1.2,0.6-1.8,0.9
			c-0.5,0.3-0.9,0.8-1,1.3c-0.2,0.6-0.1,1.2,0.2,1.7c0.3,0.5,0.8,0.9,1.3,1c0.6,0.1,1.2,0,1.7-0.2c1.3-0.6,2.6-1.2,3.9-1.8l0.4-0.2
			c0.4-0.2-0.6,0.3-0.3,0.1c0.4-0.2,0.9-0.4,1.3-0.7c0.4-0.3,0.8-0.6,1.2-0.9c1.1-1,1.9-2.3,2.5-3.6c0.2-0.6,0.4-1.1,0.5-1.7
			c0.2-0.7,0.3-1.5,0.4-2.2c0-1.2-1-2.2-2.2-2.2C423.7,551.6,422.7,552.6,422.7,553.9L422.7,553.9z"/>
		<path class="st3" d="M449.7,553.1c0.4,2.8,1,5.6,2.9,7.8c0.6,0.6,1.2,1.1,1.8,1.5c0.4,0.3,0.8,0.5,1.2,0.6
			c0.2,0.1-0.7-0.3-0.4-0.2c0.1,0,0.1,0,0.2,0.1c0.7,0.3,1.5,0.7,2.2,1c0.7,0.3,1.3,0.6,2,0.9c1.1,0.6,2.4,0.2,3.1-0.8
			c0.6-1.1,0.3-2.4-0.8-3.1c-1.3-0.6-2.6-1.2-3.8-1.8c-0.2-0.1-0.4-0.2-0.6-0.3s-0.4-0.2-0.6-0.2c0,0,0.5,0.3,0.3,0.1
			c-0.1,0-0.1-0.1-0.2-0.1c-0.1-0.1-0.3-0.2-0.4-0.3c0,0-0.3-0.2,0,0c0.2,0.2,0,0-0.1-0.1c-0.2-0.2-0.5-0.4-0.7-0.6
			c-0.1-0.1-0.2-0.2-0.3-0.3c0,0,0.3,0.4,0.2,0.2c0-0.1-0.1-0.1-0.1-0.2c-0.2-0.2-0.3-0.5-0.4-0.7c-0.1-0.1-0.1-0.2-0.2-0.3
			c-0.2-0.3,0.2,0.5,0,0c-0.2-0.5-0.4-1.1-0.5-1.7c-0.1-0.3-0.1-0.5-0.2-0.8c0-0.2-0.1-0.4-0.1-0.6c0-0.2-0.1-0.9,0-0.2
			c0-0.6-0.3-1.2-0.7-1.6c-0.4-0.4-1-0.7-1.6-0.7C450.8,550.9,449.5,551.9,449.7,553.1L449.7,553.1z"/>
		<path class="st3" d="M454.4,476.1c2.4-4.8,9.8-6,14.4-4c2.9,1.2,5.3,3.3,6.9,6c1.7,2.9,2.3,6.5,3.1,9.7c0.7,3.5,2.3,6.7,4.7,9.3
			l1-3.8c-3.7,1.1-7.5,1.6-11.2,0.1c-1.2-0.3-2.4,0.4-2.8,1.6c-0.3,1.2,0.4,2.4,1.6,2.8c4.4,1.8,9.1,1.2,13.6-0.1
			c1.2-0.4,1.9-1.6,1.5-2.8c-0.1-0.3-0.3-0.7-0.5-0.9c-2.3-2.4-3.1-5.3-3.8-8.5c-0.8-3.7-1.9-7.8-4.1-11c-2.2-3-5.2-5.3-8.6-6.7
			c-3.3-1.2-6.9-1.4-10.4-0.5c-3.8,0.8-7.5,3-9.2,6.6c-0.6,1.1-0.2,2.4,0.8,3.1C452.4,477.5,453.8,477.2,454.4,476.1L454.4,476.1z"
			/>
		<path class="st3" d="M470.5,517.8c1-0.8,2.5-0.6,3.3,0.4c0,0,0.1,0.1,0.1,0.2c0.3,0.8,0.5,1.7,0.4,2.6c0,1,0,2.1-0.2,3.1
			c-0.4,2.1-1.1,4.1-2.2,5.9c-0.5,0.8-1,1.4-1.7,2c-0.4,0.5-1.1,0.6-1.6,0.4c-2.8-0.7-4,3.6-1.2,4.3c3.5,0.9,6.2-1.3,8.1-4
			c1.8-2.7,2.9-5.8,3.3-9.1c0.4-3,0.3-6.9-2.1-9.1c-2.7-2.3-6.6-2.3-9.2,0c-0.9,0.9-0.9,2.3,0,3.2
			C468.2,518.6,469.7,518.6,470.5,517.8L470.5,517.8z"/>
		<path class="st3" d="M407.1,514.8c-2.6-2.3-6.6-2.4-9.2,0c-2.4,2.2-2.5,6-2.1,9.1c0.3,3.2,1.5,6.4,3.3,9.1c1.9,2.7,4.6,4.9,8.1,4
			c2.8-0.7,1.6-5.1-1.2-4.3c-0.6,0.2-1.2,0-1.6-0.4c-0.7-0.6-1.3-1.3-1.7-2c-1.1-1.8-1.9-3.8-2.2-5.9c-0.2-1-0.2-2-0.2-3
			c-0.1-0.9,0.1-1.9,0.4-2.7c0.7-1.1,2.2-1.4,3.2-0.7c0.1,0,0.1,0.1,0.2,0.1c0.9,0.8,2.3,0.8,3.2,0C408,517.1,408,515.6,407.1,514.8
			L407.1,514.8z"/>
		<path class="st3" d="M465.6,532c-0.1,0.9-0.4,1.9-0.6,2.8c-0.3,0.6-0.5,1.3-0.7,1.9c0,0.3,0.3-0.5,0.1-0.1
			c-0.1,0.1-0.1,0.3-0.2,0.5c-0.2,0.3-0.3,0.6-0.5,1c-1,1.8-2.1,3.5-3.4,5c-3.1,3.9-7.1,7.9-12,8.9c-2.8,0.6-1.6,5,1.2,4.3
			c5.7-1.3,10.5-5.6,14-10.1c3.1-3.9,5.8-8.1,6.5-13c0.3-1.2-0.4-2.4-1.6-2.8C467.1,530.1,465.9,530.8,465.6,532L465.6,532z"/>
		<path class="st3" d="M404.8,532.5c1.6,6,4.6,11.5,8.9,16c4.2,4.4,9.7,8,15.9,8.9c1.2,0.3,2.4-0.4,2.8-1.6c0.3-1.2-0.4-2.4-1.6-2.8
			c-10.8-1.5-19-11.7-21.6-21.8C408.4,528.5,404,529.7,404.8,532.5L404.8,532.5z"/>
		<path class="st3" d="M474.6,515.4c1.6-9.7,0.6-20.1-4.8-28.5c-5.2-8.1-13.4-13.8-22.7-16.1c-9.3-2.3-19.2-1.2-27.8,3.2
			c-6.3,3.3-11.6,8.4-15.2,14.6c-2.3,4.2-3.8,8.9-4.3,13.7c-0.4,4.4-0.2,8.8,0.6,13.2c0.3,1.2,1.6,1.9,2.8,1.6
			c1.2-0.4,1.9-1.6,1.6-2.8c-0.6-3.3-0.8-6.7-0.6-10c0.2-3.8,1.1-7.5,2.7-10.9c2.6-5.6,6.7-10.4,11.9-13.8c7-4.4,15.3-6.2,23.5-5.1
			c8.5,1.1,16.3,5.4,21.8,12c6.3,7.7,7.8,18.1,6.3,27.7c-0.3,1.2,0.4,2.4,1.6,2.8C473,517.3,474.3,516.6,474.6,515.4L474.6,515.4z"
			/>
		<path class="st3" d="M494.5,590.6c-2.8-6.6-6.7-12.7-11.6-18.1c-4.8-5.3-11.9-8.5-18.4-11.1c-1.2-0.3-2.4,0.4-2.8,1.6
			c-0.3,1.2,0.4,2.4,1.6,2.8c5.9,2.3,12.4,5.3,16.6,10.1c4.4,5.1,8,10.8,10.6,16.9c0.6,1.1,2,1.4,3.1,0.8
			C494.7,593,495.1,591.6,494.5,590.6L494.5,590.6z"/>
		<path class="st3" d="M387.6,592.9c2.2-6.4,5-13.3,10.1-17.9c2.6-2.1,5.5-3.9,8.6-5.3c3.4-1.7,7-3.1,10.5-4.5
			c1.2-0.4,1.9-1.6,1.6-2.8c-0.3-1.2-1.6-1.9-2.8-1.6c-5.9,2.3-12,4.7-17.4,8.1c-4.7,3.2-8.5,7.6-11,12.8c-1.6,3.2-2.9,6.5-4,9.9
			C382.3,594.4,386.6,595.6,387.6,592.9L387.6,592.9z"/>
		<path class="st3" d="M431.6,541.1c1.7,1.6,4.3,2.2,6.5,2.2s4.9-0.5,6.5-2.2c0.9-0.9,0.9-2.3,0-3.2c-0.9-0.9-2.3-0.9-3.2,0
			c-0.1,0.1-0.4,0.3,0,0.1c0.4-0.3,0,0-0.1,0.1c-0.1,0.1-0.3,0.2-0.4,0.2c-0.1,0-0.2,0.1-0.3,0.1c0.1-0.1,0.5-0.2,0.2-0.1
			c-0.4,0.2-0.9,0.3-1.3,0.4c-0.1,0-0.1,0-0.2,0c-0.2,0-0.1,0,0.2,0c-0.1,0-0.3,0-0.4,0c-0.3,0-0.6,0-1,0c-0.3,0-0.6,0-0.9,0
			c-0.2,0-0.3,0-0.5,0c0.2,0,0.4,0.1,0.1,0c-0.5-0.1-0.9-0.2-1.3-0.4c-0.2-0.1-0.5-0.3,0.1,0.1c-0.1,0-0.2-0.1-0.2-0.1
			c-0.1-0.1-0.3-0.2-0.4-0.2c-0.1-0.1-0.2-0.1-0.3-0.2c0.7,0.4,0.3,0.3,0.1,0.1c-0.9-0.9-2.3-0.9-3.2,0
			C430.8,538.8,430.8,540.2,431.6,541.1L431.6,541.1z"/>
		<path class="st3" d="M437.8,528.9c-0.1,0-0.1,0.1-0.2,0.1l0.5-0.2C438.1,528.8,438,528.8,437.8,528.9l0.6-0.1c-0.1,0-0.2,0-0.3,0
			l0.6,0.1c-0.1,0-0.1,0-0.2,0c-0.2,0-0.5-0.1-0.7-0.1c-1.2,0-2.2,1-2.2,2.2l0.1,0.6c0.1,0.4,0.3,0.7,0.6,1l0.5,0.4
			c0.3,0.2,0.7,0.3,1.1,0.3h0l-0.6-0.1c0.1,0,0.1,0,0.2,0c0.2,0,0.5,0.1,0.7,0.1c0,0,0.1,0,0.1,0c0,0,0.1,0,0.1,0
			c0.2,0,0.4-0.1,0.6-0.1l0,0c0,0,0.1,0,0.1,0c0.1,0,0.1,0,0.2-0.1c0.2-0.1,0.5-0.2,0.7-0.3c0.8-0.4,1.2-1.3,1.1-2.2
			c0-0.3-0.1-0.6-0.3-0.8l-0.4-0.5c-0.3-0.3-0.6-0.5-1-0.6l-0.6-0.1C438.6,528.6,438.2,528.7,437.8,528.9L437.8,528.9z"/>
		<path class="st3" d="M421.6,519.2c-0.5,1.6-0.2,5.4,2.9,5.7c4.1,0,4.3-4.6,2.9-6.7C426.3,516.4,423,515.7,421.6,519.2z"/>
		<path class="st3" d="M454.2,519.2c0.5,1.6,0.2,5.4-2.9,5.7c-4.1,0-4.3-4.6-2.9-6.7C449.5,516.4,452.8,515.7,454.2,519.2z"/>
		<path class="st3" d="M420.5,498.3c-4.4,1.6-8.3,4.6-10.9,8.5c-1.3,2-2.4,4.1-3.2,6.3c-0.4,1-0.7,2.1-1,3.2
			c-0.3,1.6,0.7,3.5,2.5,3.4c1.2,0,2.2-1,2.2-2.2c0-1.2-1-2.2-2.2-2.2l-0.1,0l1.1,0.3l-0.1-0.1l0.8,0.8c0.2,0.3,0,1.7,0.2,0.7
			c0.1-0.2,0.1-0.5,0.2-0.7c0.1-0.4,0.3-0.8,0.4-1.2c0.2-0.7,0.5-1.5,0.9-2.2c0.7-1.6,1.6-3.1,2.7-4.5c2-2.6,4.6-4.6,7.7-5.8
			c1.2-0.4,1.9-1.6,1.6-2.8C422.9,498.6,421.7,497.9,420.5,498.3L420.5,498.3z"/>
		<path class="st3" d="M420,493.6c0.6,3.5,2.3,6.8,4.7,9.4c1.2,1.3,2.6,2.5,4,3.6c1.5,1.3,3.4,2.1,5.3,2.5c1.2,0,2.2-1,2.2-2.2
			c0-1.2-1-2.2-2.2-2.2c0.4,0.1-0.3-0.1-0.3-0.1c0.3,0.1-0.1-0.1-0.2-0.1c-0.3-0.2-0.7-0.4-1-0.6c-0.6-0.4-1.2-0.8-1.8-1.2
			c-0.2-0.1,0.2,0.2-0.1-0.1c-0.2-0.1-0.3-0.3-0.5-0.4c-0.3-0.2-0.5-0.5-0.8-0.7c-0.6-0.5-1.1-1.1-1.6-1.7c-0.1-0.1-0.2-0.3-0.3-0.4
			c-0.1-0.1-0.3-0.4-0.1-0.1c-0.2-0.3-0.5-0.6-0.7-0.9c-0.4-0.6-0.8-1.2-1.1-1.9c-0.1-0.2-0.2-0.4-0.3-0.6c-0.2-0.4,0,0.1-0.1-0.1
			c-0.1-0.4-0.3-0.7-0.4-1.1c-0.2-0.7-0.4-1.5-0.5-2.2c-0.3-1.2-1.6-1.9-2.8-1.6C420.4,491.2,419.7,492.4,420,493.6L420,493.6z"/>
		<path class="st3" d="M436.8,494.7c1.6,3.2,3.6,6.2,6.1,8.7c2.4,2.4,5.5,4,8.8,4.7c2.8,0.7,5.7,1.4,8,3.3c2.2,1.8,3.6,4.4,4.2,7.2
			c0.3,1.2,1.6,1.9,2.8,1.6c1.2-0.4,1.9-1.6,1.6-2.8c-0.6-3.1-2.1-6-4.3-8.2c-2.3-2.3-5.2-3.9-8.4-4.7c-3.1-0.9-6.3-1.4-8.7-3.6
			c-2.5-2.4-4.6-5.3-6.1-8.5c-0.6-1.1-2-1.4-3.1-0.8C436.5,492.2,436.2,493.6,436.8,494.7L436.8,494.7L436.8,494.7z"/>
		<path class="st3" d="M413.6,566.2c5.1,5.4,12.3,7.3,19.5,8c7.5,0.8,15.1,0.1,22-2.9c3.1-1.3,5.9-3.3,8.2-5.8
			c0.8-0.9,0.8-2.3,0-3.2c-0.9-0.9-2.3-0.9-3.2,0c-4.7,5.7-13.2,7.6-20.2,7.7c-8,0.1-17.3-0.9-23.1-7
			C414.8,560.9,411.6,564.1,413.6,566.2L413.6,566.2z"/>
		<path class="st3" d="M469.8,384.9c1-0.8,2.3-1.1,3.6-0.8c0.5,0.1,0.9,0.3,1.3,0.5c0,0,0.3,0.3,0.5,0.4c0.3,0.3-0.1-0.2,0.1,0.2
			c1.3,2,1.4,4.7,1.2,7c-0.3,2.4-1,4.7-2.1,6.8c-1.1,2.1-3.3,5.3-6.1,4.9c-1.2-0.3-2.4,0.4-2.8,1.6c-0.3,1.2,0.4,2.4,1.6,2.8
			c7.1,1,11.3-5.8,13.2-11.7c1.6-4.8,1.6-12.4-2.9-15.7c-3.3-2.2-7.6-1.9-10.5,0.8C464.5,383.7,467.7,386.9,469.8,384.9L469.8,384.9
			z"/>
		<path class="st3" d="M465.6,402.7c-0.6,2.7-1.5,5.3-2.6,7.8c0.3-0.7-0.1,0.2-0.2,0.4c-0.2,0.4-0.4,0.8-0.6,1.2
			c-0.5,0.9-0.9,1.7-1.5,2.5c-2.7,4.6-6.2,8.7-10.2,12.1c-2.2,1.8-4.7,3.2-7.5,3.9c-2.8,0.6-1.6,5,1.2,4.3c5.9-1.3,10.8-5.6,14.6-10
			c3.2-3.6,6-7.7,8.1-12.1c0.1-0.3,0.3-0.6,0.4-1c0.1-0.1,0.3-0.6,0-0.1c0.3-0.7,0.6-1.5,0.9-2.2c0.7-1.8,1.3-3.7,1.7-5.6
			C470.6,401.1,466.2,399.9,465.6,402.7L465.6,402.7z"/>
		<path class="st3" d="M390.2,403.5c1.7,7.7,5.3,14.8,10.4,20.7c4.9,5.8,11.3,10.3,18.9,11.5c1.2,0.3,2.4-0.4,2.8-1.6
			c0.3-1.2-0.4-2.4-1.6-2.8c-6.9-1.1-12.4-5.1-16.9-10.3c-4.5-5.4-7.7-11.8-9.2-18.7C394,399.4,389.6,400.6,390.2,403.5L390.2,403.5
			z"/>
		<path class="st3" d="M421.5,415.5c2.3,1.2,5,1.8,7.6,1.8c2.8,0.1,5.5-0.7,7.8-2.3c0.9-0.9,0.9-2.3,0-3.2c-0.9-0.8-2.3-0.8-3.2,0
			c0.7-0.5,0.2-0.2,0-0.1c-0.1,0.1-0.3,0.2-0.5,0.3c-0.2,0.1-0.7,0.2-0.1,0.1c-0.2,0-0.4,0.2-0.6,0.2c-0.6,0.2-1.2,0.3-1.8,0.4
			c0.3,0,0.1,0-0.1,0c-0.2,0-0.3,0-0.5,0c-0.4,0-0.8,0-1.3,0c-0.4,0-0.8,0-1.1,0c-0.2,0-0.3,0-0.5,0c-0.7-0.1,0.4,0.1-0.2,0
			c-0.6-0.1-1.1-0.2-1.7-0.4c-0.2-0.1-0.5-0.2-0.7-0.2c-0.5-0.2,0.4,0.2-0.1,0c-0.3-0.1-0.6-0.3-0.8-0.4c-1.1-0.6-2.5-0.3-3.1,0.8
			C420.1,413.4,420.5,414.8,421.5,415.5L421.5,415.5L421.5,415.5z"/>
		<path class="st3" d="M427.9,397.7c0.3,1.2,0.6,2.5,0.8,3.8l-0.1-0.6c0,0.2,0,0.3,0,0.5l0.1-0.6c0,0.1,0,0.2-0.1,0.2l0.2-0.5
			c0,0.1-0.1,0.1-0.1,0.2l0.4-0.5c0,0-0.1,0.1-0.1,0.1l0.5-0.4c-0.1,0.1-0.2,0.1-0.3,0.2l0.5-0.2c-0.2,0.1-0.3,0.1-0.5,0.1l0.6-0.1
			c-0.2,0-0.3,0-0.5,0l0.6,0.1c-0.2,0-0.4-0.1-0.5-0.1c-0.3-0.1-0.6-0.1-0.9,0c-0.3,0-0.6,0.1-0.8,0.3c-1.1,0.6-1.4,2-0.8,3.1
			c0,0,0,0,0,0c0.3,0.5,0.8,0.9,1.3,1c0.4,0.1,0.9,0.2,1.3,0.2c0.7,0,1.3-0.2,1.9-0.5c0.8-0.4,1.4-1.1,1.6-1.9c0.1-0.7,0.1-1.3,0-2
			c-0.2-1.2-0.5-2.4-0.8-3.6c-0.3-1.2-1.6-1.9-2.8-1.6C428.3,395.3,427.6,396.5,427.9,397.7L427.9,397.7z"/>
		<path class="st3" d="M408.4,386.9c-0.6,2-0.2,6.7,3.6,7.2c5.1,0,5.4-5.7,3.7-8.4C414.3,383.5,410.1,382.5,408.4,386.9z"/>
		<path class="st3" d="M449.4,387c0.6,2,0.2,6.7-3.7,7.1c-5.1-0.1-5.4-5.7-3.6-8.4C443.5,383.6,447.6,382.7,449.4,387z"/>
		<path class="st3" d="M458,327.2c-7.7-5.4-16.9-8.3-26.3-8.3c-3.9-0.1-7.8,0.1-11.7,0.7c-3.6,0.7-7.2,1.8-10.6,3.3
			c-13.1,5.9-24.3,18.4-26.7,32.9c-0.7,4.4-0.8,8.9-0.4,13.3c0.3,4.3,0.8,8.7,2.6,12.6c0.6,1.1,2,1.4,3.1,0.8c1-0.6,1.4-2,0.8-3.1
			c-1.4-3.1-1.7-6.4-2-9.7c-0.3-3.7-0.3-7.4,0-11c0.6-6.5,3.5-12.8,7.4-18c7.9-10.7,21.1-17.6,34.4-17.4c2.4,0,4.7,0,7.1,0.2
			c2.3,0.2,4.7,0.7,6.9,1.3c4.6,1.3,9,3.4,13,6.2C458.1,332.7,460.4,328.8,458,327.2z"/>
		<path class="st3" d="M476.9,383.3c2.6-6.2,2.3-13.7,1.6-20.2c-0.3-3.1-0.8-6.2-1.5-9.2c-1-4.1-2.6-8-4.8-11.7
			c-2.1-3.7-4.8-7-8-9.8c-2.1-2-5.3,1.2-3.2,3.2c5.3,4.9,9.2,11.1,11.2,18.1c1.6,6,2.3,12.2,2.1,18.4c0,3.5-0.6,6.9-1.8,10.1
			c-0.3,1.2,0.4,2.4,1.6,2.8C475.3,385.2,476.5,384.5,476.9,383.3L476.9,383.3z"/>
		<path class="st3" d="M452.2,356.1c0.8,5.2,2.4,10.2,4.7,14.9c1.9,4,3.9,8,8.2,9.8c1.2,0.3,2.4-0.4,2.8-1.6
			c0.3-1.2-0.4-2.4-1.6-2.8c-3-1.3-4.4-5.4-5.7-8.1c-1.9-3.9-3.2-8-4-12.3c0-1.2-1-2.2-2.2-2.2C453.2,353.9,452.2,354.9,452.2,356.1
			L452.2,356.1z"/>
		<path class="st3" d="M370,464c3.9-4.2,8.5-7.9,13.5-10.7c4.6-2.7,10.1-4.2,15.1-5.7c2.8-0.9,1.6-5.2-1.2-4.3
			c-5.4,1.7-11.2,3.3-16.2,6.2c-5.4,3-10.2,6.9-14.4,11.4C364.9,463,368.1,466.2,370,464L370,464z"/>
		<path class="st3" d="M393.8,381.5c-2.6-2.3-6.3-2.9-9.5-1.4c-2.2,1.1-3.8,3.2-4.3,5.6c-1.5,5.6-0.1,12.1,3,16.8
			c2.1,3.2,5.5,6.2,9.7,5.6c1.2,0,2.2-1,2.2-2.2c0-1.2-1-2.2-2.2-2.2c-3.1,0.4-5.2-2.1-6.5-4.6c-1.2-2.2-2-4.6-2.2-7.1
			c-0.1-1.4-0.1-2.8,0.2-4.1c0.1-0.7,0.3-1.3,0.5-1.9c0.1-0.1,0.2-0.3,0.3-0.5c0-0.1,0.4-0.6,0.2-0.3c-0.2,0.2,0.3-0.3,0.4-0.4
			s0.5-0.4,0.3-0.2c0.4-0.3,1-0.5,1.5-0.6c1.2-0.3,2.5,0.1,3.4,0.9C392.8,386.6,396,383.4,393.8,381.5L393.8,381.5z"/>
		<path class="st3" d="M469.4,451.9c4.7,1.7,9.3,3.8,13.7,6.1c4.1,2.1,8.1,4.4,11.3,7.6c6.7,6.7,9.4,15.9,11.9,24.8
			c2.8,10,5.8,20.1,7.8,30.3c1.7,8.7,3.2,17.7,2.4,26.6c-0.4,4.7-2,9.3-4.6,13.3c-2.9,4.2-6.8,7.7-10.7,10.9c-0.9,0.9-0.9,2.3,0,3.2
			c0.9,0.9,2.3,0.9,3.2,0c7.4-6.1,14.1-13.2,16-22.9c1.8-9.2,0.4-18.7-1.1-27.8c-1.8-10.7-4.8-21.1-7.7-31.5
			c-2.7-9.8-5.3-19.9-12-27.8c-3.5-4.2-7.9-7.1-12.7-9.7c-5.3-2.8-10.7-5.3-16.3-7.4c-1.2-0.3-2.4,0.4-2.8,1.6
			C467.5,450.3,468.2,451.5,469.4,451.9L469.4,451.9z"/>
		<path class="st3" d="M484.9,541.3c2.3-0.5,4.6-0.7,6.9-0.5c1.1,0.1,2.2,0.3,3.2,0.5c1.2,0.3,2.4,0.7,3.5,1.2
			c1.2,0.3,2.4-0.4,2.8-1.6c0.3-1.2-0.4-2.4-1.6-2.8c-5.1-2.1-10.7-2.5-16.1-1.2c-1.2,0.3-1.9,1.6-1.6,2.8S483.7,541.6,484.9,541.3
			L484.9,541.3L484.9,541.3z"/>
		<path class="st3" d="M447,431c0.3,3.1,1.2,6.1,2.6,8.9c1.2,2,3,3.7,5,5c4.5,3,9.8,4.9,14.8,6.9c1.2,0.3,2.4-0.4,2.8-1.6
			c0.3-1.2-0.4-2.4-1.6-2.8c-4.5-1.8-9.1-3.6-13.2-6.2c-0.8-0.5-1.6-1-2.2-1.7c-0.6-0.5-1.2-1.1-1.5-1.8c-1.4-2.4-1.8-5.3-2.2-8
			c-0.3-1.2-1.6-1.9-2.8-1.6C447.4,428.6,446.7,429.9,447,431L447,431z"/>
		<path class="st3" d="M398.6,447.6c3.9-1.1,7.7-2.5,11.3-4.2c1.7-0.8,3.6-1.8,4.2-3.8c0.2-1,0.4-2,0.6-3.1l0.6-3.4
			c0.3-1.2-0.4-2.4-1.6-2.8c-1.2-0.3-2.4,0.4-2.8,1.6c-0.4,2-0.7,4-1.1,6c0,0-0.1,0.5-0.1,0.5c0,0,0.2-0.3,0.2-0.3
			c0,0-0.8,0.5-0.9,0.5c-0.6,0.4-1.2,0.7-1.8,1c-0.7,0.4-1.2,0.5-1.7,0.8c-0.8,0.3-1.7,0.6-2.5,0.9c-1.9,0.7-3.8,1.3-5.7,1.9
			c-1.2,0.4-1.9,1.6-1.6,2.8C396.2,447.2,397.4,447.9,398.6,447.6L398.6,447.6z"/>
		<path class="st3" d="M397.7,454.6c4.8,2.3,9.7,4.2,14.8,5.7c4.7,1.2,9.4,1.9,14.2,2.1c5.4,0.3,10.9,0.1,16.3-0.5
			c3.7-0.3,7.4-1,11-2.1c2.9-1,5.7-2.2,8.3-3.7c2.5-1.4,0.3-5.3-2.3-3.9c-1.1,0.6-2.1,1.1-3.2,1.7c-0.5,0.2-1,0.5-1.5,0.7
			c0.4-0.2-0.4,0.2-0.6,0.2c-0.3,0.1-0.6,0.2-1,0.4c-3.1,1.1-6.3,1.8-9.5,2.1c-9.5,1.2-19.6,1.3-29-0.9c-5.3-1.4-10.5-3.3-15.4-5.7
			c-1.1-0.6-2.4-0.2-3.1,0.8C396.3,452.6,396.7,453.9,397.7,454.6L397.7,454.6z"/>
		<path class="st3" d="M381.2,542.7c1.9,7.4,4.2,14.7,6.8,21.9c0.4,1.2,1.6,1.9,2.8,1.6c1.2-0.3,1.9-1.6,1.6-2.8
			c-2.6-7.2-4.9-14.5-6.8-21.9C384.9,538.7,380.5,539.9,381.2,542.7L381.2,542.7z"/>
		<path class="st3" d="M427.4,372.3c-0.5,1.6,0.2,3.3,1.5,4.1c1.3,0.6,2.7,0.9,4.2,0.7c3.4-0.1,6.7-1.2,9.6-3
			c4.6-3,7.7-8.4,9.5-13.5c1-3.3,1.5-6.7,1.6-10.2c0.1-2.9-4.4-2.9-4.5,0c-0.2,5.4-1.3,10.5-4.3,15c-1.7,2.7-4.1,4.8-7,6.1
			c-1.4,0.6-2.9,0.9-4.4,1.1c-0.6,0.1-1.3,0.1-1.9,0c0,0-0.5,0-0.4-0.1c0.1-0.1,0.6,0.7,0.5,0.9
			C432.4,370.7,428.1,369.5,427.4,372.3L427.4,372.3z"/>
		<path class="st3" d="M407.9,372.8c-0.2,1.7,0.7,3.4,2.2,4.2c1.6,0.6,3.2,0.8,4.8,0.6c3.2-0.1,6.3-0.8,9.2-2.2
			c5.8-2.7,10-8.8,12.1-14.6c1.1-3.4,1.8-6.9,2.1-10.5c0-1.2-1-2.2-2.2-2.2c-1.2,0-2.2,1-2.2,2.2c-0.3,3.2-0.9,6.3-1.9,9.3
			c-1.1,2.9-2.8,5.7-4.9,8c-2.2,2.5-5,4.2-8.2,5c-1.3,0.3-2.7,0.5-4,0.5c-0.7,0-1.4,0-2.1,0c-0.2,0-0.4,0-0.6-0.1
			c0.3,0.1,0.2,0.4,0.3-0.2c0-1.2-1-2.2-2.2-2.2C408.9,370.5,407.9,371.5,407.9,372.8L407.9,372.8z"/>
		<path class="st3" d="M397.7,380.7c4.9-3.3,11-4.5,15.7-8.1c4.8-3.6,7.1-9.2,8.5-14.8c0.7-2.8-3.6-4-4.3-1.2
			c-1.2,4.9-3.1,9.8-7.4,12.8c-2.3,1.6-4.9,2.5-7.5,3.6c-2.5,1-5,2.3-7.3,3.8C393.1,378.4,395.3,382.3,397.7,380.7L397.7,380.7z"/>
		<path class="st2" d="M489.7,582.5l-1.5-1.5c-1.8,2.6-4,4.8-6.6,6.6c-0.7,0.6-1.6,0.9-2.5,0.9c-0.8,0-1.5-0.3-2.2-0.8
			c-1.1-1.1-1.8-2.6-1.8-4.1c-1.9,1.9-3,3-5.7,2.5c-0.9-0.2-1.7-0.8-2.3-1.5c-0.8-1.1-1.1-2.5-0.8-3.9c0,0,0.2-0.7,0.6-1.8
			c-1.5,0.8-3.3,0.6-4.6-0.4c-0.9-1-1.2-2.4-0.9-3.7c0.4-1.3,0.9-2.5,1.7-3.5l3.8-6l0.8-1.2l-2.9,1.9c-3.1,2-6.1-1.6-4.9-4.7
			c0.7-2,1.6-3.9,2.8-5.7c1.9-2.5,6.3-5.8,9.7-3.5l6.4-0.4c3.4-0.5,5.8,1.5,8.4,2.7c2.6,1.4,4.9,3.4,6.5,5.8
			c2.2,2.9,3.5,5.7,3.4,8.4C496.8,574,494.1,579.1,489.7,582.5"/>
		<path class="st3" d="M473.5,550c-4.1-2.7-9.2,0-12,3.3c-1.5,1.9-2.7,4.1-3.5,6.4c-0.9,2.1-0.8,4.5,0.5,6.4
			c1.6,2.5,4.9,3.2,7.5,1.6c1.1-0.6,1.4-2,0.8-3.1c-0.6-1.1-2-1.4-3.1-0.8l0,0c-0.1,0.1-0.2,0.1-0.4,0.2c0.2-0.1,0.2-0.1,0,0
			c-0.1,0-0.2,0.1-0.3,0.1c0.3,0,0.3,0,0.1,0c-0.1,0-0.2,0-0.3,0c0.3,0,0.4,0,0.1,0c-0.1,0-0.2-0.1-0.3-0.1c0.3,0.1,0.3,0.1,0.1,0
			c-0.1-0.1-0.2-0.1-0.3-0.2c0.2,0.2,0.3,0.2,0.1,0c-0.1-0.1-0.2-0.2-0.2-0.2c0.2,0.2,0.2,0.3,0,0.1c-0.1-0.2-0.2-0.4-0.3-0.6
			c0.2,0.5,0,0,0-0.1c0-0.1-0.1-0.2-0.1-0.3c0,0.3,0,0.3,0,0.1c0-0.1,0.1-0.9,0-0.3c0.1-0.5,0.3-1,0.5-1.5c0.1-0.3,0.2-0.5,0.3-0.8
			c-0.1,0.4,0.2-0.4,0.2-0.5c0.2-0.5,0.5-1,0.8-1.5c0.3-0.5,0.6-0.9,0.9-1.4c0.2-0.2,0.2-0.2,0,0c0.1-0.1,0.1-0.2,0.2-0.3
			c0.2-0.2,0.3-0.4,0.5-0.5c0.3-0.4,0.7-0.7,1.1-1c0.2-0.2,0.2-0.2,0,0c0.1-0.1,0.2-0.2,0.3-0.2c0.2-0.1,0.4-0.3,0.6-0.4
			s0.4-0.2,0.6-0.3c0.1,0,0.8-0.4,0.3-0.2c0.5-0.2,1-0.3,1.5-0.4c-0.6,0.1,0.2,0,0.3,0c0.1,0,0.2,0,0.4,0c-0.3,0-0.3,0-0.1,0
			c0.1,0,0.8,0.3,0.4,0.1c0.2,0.1,0.5,0.2,0.7,0.4c1.1,0.6,2.4,0.3,3.1-0.8C474.9,552,474.6,550.6,473.5,550L473.5,550z"/>
		<path class="st3" d="M468.2,558.9l-5.5,8.7c-1.6,2.6-4,5.5-3.7,8.8c0.2,3.1,2.9,5.5,6,5.3c0.1,0,0.2,0,0.3,0
			c3-0.3,5.3-2.5,7.2-4.6c2.2-2.6,4.2-5.4,6-8.3c0.6-1.1,0.3-2.4-0.8-3.1c-1.1-0.6-2.4-0.3-3.1,0.8c-1.6,2.6-3.4,5-5.3,7.4
			c-0.9,1.1-1.9,2-3,2.8c-0.4,0.3-0.8,0.5-1.3,0.5c-0.3,0.1-0.7,0-1-0.2c-0.3-0.2-0.3-0.3-0.4-0.7c-0.1-0.5,0-1.1,0.2-1.5
			c0.7-1.5,1.5-2.9,2.5-4.2l5.9-9.3C473.6,558.7,469.7,556.4,468.2,558.9L468.2,558.9z"/>
		<path class="st3" d="M464.1,580.1c-0.9,3.5,1.2,7.2,4.7,8.1c1.5,0.4,3.2,0.2,4.6-0.5c1.6-0.9,2.9-2.1,4.1-3.5
			c1.2-1.3,2.4-2.6,3.5-3.9c1.8-2,3.5-4.1,5.2-6.3c0.6-1.1,0.3-2.4-0.8-3.1c-1.1-0.6-2.4-0.2-3.1,0.8c-2.6,3.3-5.3,6.5-8.2,9.5
			c-0.6,0.7-1.2,1.3-1.9,1.9c0,0-0.6,0.4-0.2,0.2c-0.2,0.2-0.5,0.3-0.7,0.4c0.4-0.2-0.1,0-0.2,0.1c-0.1,0-0.3,0.1-0.4,0.1
			c0.2,0,0.2,0-0.1,0c-0.2,0-0.5,0-0.7,0c0.3,0-0.6-0.2-0.2-0.1c-0.2-0.1-0.5-0.3-0.7-0.4c-0.3-0.2,0,0-0.2-0.2
			c-0.2-0.3,0,0.1-0.1-0.3c-0.1-0.3-0.2-0.5-0.2-0.8c0-0.2,0-0.2,0,0c0-0.1,0-0.3,0-0.4c0-0.1,0-0.3,0-0.4c0,0.3,0,0.3,0,0.1
			C469.1,578.5,464.8,577.3,464.1,580.1L464.1,580.1z"/>
		<path class="st3" d="M473.3,586c0.6,2.3,2.5,4,4.7,4.5c2.4,0.4,4.2-0.6,6-2c3.4-2.7,6.2-6,8.2-9.9c0.6-1.1,0.3-2.4-0.8-3.1
			c-1.1-0.6-2.4-0.3-3.1,0.8l0,0c-1.5,2.9-3.5,5.5-5.9,7.7c-0.5,0.5-1,0.9-1.6,1.3c-0.3,0.2-0.6,0.4-0.9,0.6
			c-0.2,0.1-0.4,0.2-0.1,0.1c-0.2,0.1-0.3,0.1-0.5,0.1c-0.2,0-0.1,0,0,0h-0.2c-0.5-0.2,0.5,0.2-0.1,0c-0.2-0.1-0.3-0.1-0.5-0.2
			c-0.2-0.1,0.3,0-0.1-0.1c0.2,0.2,0.2,0.2,0.1,0.1c-0.1-0.1-0.2-0.2-0.2-0.3c-0.1-0.1-0.2-0.3-0.1-0.1c-0.1-0.2-0.2-0.4-0.3-0.5
			c-0.2-0.4,0.1,0.2-0.1-0.3c-0.4-1.2-1.6-1.9-2.8-1.6C473.7,583.5,473,584.8,473.3,586L473.3,586z"/>
		<path class="st3" d="M478.7,553.7c1.5-0.2,3,0.1,4.3,0.9c1.3,0.7,2.7,1.3,4,2.1c2.9,1.9,5.3,4.6,6.8,7.7
			c2.8,5.4-0.7,12.7-5.3,16.1c-1,0.7-1.4,2-0.8,3.1c0.6,1.1,2,1.4,3.1,0.8c6.3-4.7,10.7-13.9,7.2-21.5c-1.8-4-4.7-7.4-8.4-9.9
			c-1.6-1-3.3-1.8-5-2.6c-1.8-0.9-3.9-1.3-5.9-1.2c-1.2,0-2.2,1-2.2,2.2C476.5,552.7,477.5,553.7,478.7,553.7L478.7,553.7z"/>
		<path class="st2" d="M291.5,454.5c-2.8-2.7-6.4-4.6-10.1-4.1c-5.1,0.6-8.8,5.9-8.6,11.1c0.2,6.3,5.2,11.8,10.8,14.2
			c5-1.5,9.8-3.6,14.2-6.4l2-3.3c1.3-2.3,1.8-4.9,1.2-7.5c-0.4-1.9-1.7-3.9-3.6-4c-1.6-0.1-2.9,1.1-4,2.2
			C292.8,455.8,292.2,455.1,291.5,454.5z"/>
		<path class="st6" d="M369.7,486.5c-1.8-7.1-4.6-13.9-9.1-19.5c-6.2-7.8-15.2-12.4-25.1-11c-3.7,0.6-8.3,1.5-11.6,3.2
			c-7.1,3.7-13.5,7.9-18,15.9c-1.3-2.9-2.9-5.6-4.8-8.2c-5.7,4.1-12.1,7.2-18.8,9c-0.6,7.7,4.1,25.2,5.9,31.2
			c1.2,4,2.9,8.2,6.5,10.5c2,1.2,4.2,1.9,6.4,2l-0.5,1.7c-9,0.9-15.5,11.6-12.2,20l5.1,12.4l41.3,6c13.9-1.3,26-11.6,32-24.2
			c6-12.7,6.6-27.3,4.5-41.1C370.9,491.8,370.4,489.1,369.7,486.5z"/>
		<path class="st3" d="M318.1,512.1c-3.7,3.4-8.5,5.3-13.6,5.5c-2.6,0.2-5.2-0.2-7.6-1.3c-2.1-1.1-3.8-2.9-4.7-5
			c-1.6-3.2-2.4-6.9-3.3-10.3c-1.1-4.2-2.1-8.4-2.9-12.6c-0.8-4.1-1.6-8.3-1.3-12.5l-1.7,2.2c7-1.9,13.5-5,19.4-9.2l-3.1-0.8
			c2.7,3.7,4.8,7.7,6.4,12c0.4,1.2,1.6,1.9,2.8,1.6c1.2-0.3,1.9-1.6,1.6-2.8c-1.7-4.7-4-9.1-6.8-13.1c-0.6-0.9-2-1.6-3.1-0.8
			c-5.5,4-11.7,7-18.3,8.8c-1,0.3-1.6,1.2-1.7,2.2c-0.3,4.2,0.5,8.5,1.3,12.6c0.9,4.6,2,9.2,3.2,13.7c1.1,4,2.1,8.3,4.1,12
			c1.3,2.4,3.3,4.5,5.7,5.8c2.8,1.4,6,2.1,9.1,2.1c6.6,0.1,13-2.4,17.9-6.8C323.4,513.3,320.2,510.2,318.1,512.1L318.1,512.1z"/>
		<path class="st3" d="M300.6,519.2c-9.7,1.3-16.4,10.3-15,19.9c0.1,1,0.4,2,0.7,2.9c0.4,1.2,1.6,1.9,2.8,1.6
			c1.2-0.3,1.9-1.6,1.6-2.8c-1.3-3.6-0.9-7.7,1.2-11c0.9-1.6,2.2-3,3.6-4.1c1.5-1.1,3.3-1.9,5.2-2.1c1.2,0,2.2-1,2.2-2.2
			C302.8,520.2,301.8,519.2,300.6,519.2L300.6,519.2z"/>
		<path class="st3" d="M320.1,458.3c-2.3,0.3-4.7-0.4-6.5-1.9c-2.2-1.5-4-3.6-5.2-5.9c-2.6-5.2-1.5-11.4-1.1-16.9
			c0.2-2.9,0.1-5.9,0.4-8.8c0.3-2.5,0.8-4.9,1.6-7.2c1.5-4.5,4.3-8.7,8.3-11.2c5-3.1,11-4,16.7-3.9c4.6,0,9.1,0.8,13.5,2.2
			c8.2,2.7,15,8.7,17.2,17.2c1.6,6,1.1,12.8-0.3,18.7c-1.2,6.4-4.9,12-10.2,15.7c-1,0.7-1.4,2-0.8,3.1c0.6,1.1,2,1.4,3.1,0.8
			c5.4-3.8,9.4-9.3,11.5-15.6c2-6.4,2.6-13.1,1.8-19.7c-0.6-5.3-2.7-10.4-6-14.6c-3.1-3.8-7.1-6.8-11.6-8.7
			c-4.9-2.1-10-3.3-15.3-3.6c-6.4-0.4-13.1,0.3-19,2.9c-5.3,2.5-9.6,6.8-12,12.3c-2.5,5.4-3.1,11.1-3.3,17
			c-0.3,6.6-1.7,13.8,0.6,20.2c1.1,3,2.9,5.7,5.3,7.8c2.2,2,4.8,3.9,7.7,4.4c1.6,0.3,3.2,0.3,4.8,0c1.2-0.3,1.9-1.6,1.6-2.8
			C322.5,458.7,321.3,458,320.1,458.3L320.1,458.3z"/>
		<path class="st3" d="M328.9,433c-0.8,0-1.5,0-2.3-0.1l0.6,0.1c-0.3,0-0.6-0.1-0.9-0.2c-0.6-0.1-1.2-0.1-1.7,0.2
			c-1.1,0.6-1.4,2-0.8,3.1c0,0,0,0,0,0c0.3,0.5,0.8,0.9,1.3,1c1.3,0.3,2.5,0.4,3.8,0.3c0.6,0,1.2-0.2,1.6-0.7c0.4-0.4,0.6-1,0.7-1.6
			C331.2,434.1,330.2,433,328.9,433L328.9,433z"/>
		<path class="st3" d="M312,432.1c-0.8,0.1-1.6,0.1-2.4-0.1l0.6,0.1c-0.2,0-0.3,0-0.5-0.1c-0.6-0.1-1.2-0.1-1.7,0.2
			c-0.5,0.3-0.9,0.8-1,1.3c-0.3,1.2,0.4,2.4,1.6,2.8c0,0,0,0,0,0c0.4,0.1,0.8,0.1,1.1,0.2c0.2,0,0.5,0.1,0.7,0.1c0.5,0,1.1,0,1.6,0
			c0.3,0,0.6-0.1,0.9-0.2c0.8-0.4,1.4-1.2,1.4-2.1c0-0.6-0.2-1.2-0.7-1.6C313.1,432.3,312.6,432.1,312,432.1L312,432.1z"/>
		<path class="st3" d="M317.2,447.7c-0.9-0.2-1.8-0.3-2.7-0.3c-0.9,0-1.7,0.5-2.1,1.4c-0.1,0.3-0.2,0.6-0.2,0.9l0.1,0.6
			c0.1,0.4,0.3,0.7,0.6,1l0.5,0.4c0.3,0.2,0.7,0.3,1.1,0.3c0.5,0,1.1,0.1,1.6,0.1l-0.6-0.1c0.2,0,0.4,0.1,0.5,0.1
			c0.3,0.1,0.6,0.1,0.9,0c0.9-0.1,1.6-0.8,1.9-1.6l0.1-0.6c0-0.4-0.1-0.8-0.3-1.1l-0.4-0.5C317.9,448,317.6,447.8,317.2,447.7
			L317.2,447.7z"/>
		<path class="st3" d="M349.2,440.1c0,0,0.6-0.3,0.2-0.2c0.2-0.1,0.4-0.1,0.6-0.2c0.4-0.1-0.1,0,0.2,0c0.1,0,0.7,0,0.5,0
			c-0.3,0,0.3,0.1,0.3,0.1c0.5,0.1-0.2-0.2,0.3,0.1c0.1,0.1,0.5,0.4,0.2,0.1c0,0,0.4,0.4,0.2,0.2c-0.2-0.3,0.1,0.3,0,0
			c0,0,0.2,0.7,0.1,0.3c0.1,0.5,0.1,1,0,1.4c0,0.4,0,0.8,0,1.2c0,0.2,0,0.5-0.1,0.7c0.1-0.4-0.1,0.3-0.1,0.3
			c-0.1,0.4-0.2,0.8-0.3,1.3c-0.1,0.3-0.3,0.6-0.4,0.9c-0.1,0.2-0.3,0.4-0.4,0.6c0,0-0.4,0.5-0.2,0.3c0.1-0.2-0.2,0.3-0.3,0.3
			c-0.1,0.1-0.2,0.3-0.4,0.4c0,0-0.5,0.4-0.2,0.2c-0.2,0.1-0.4,0.3-0.6,0.4c-0.1,0.1-0.3,0.1-0.4,0.2s-0.4,0.2-0.1,0.1
			c-0.4,0.2-0.8,0.3-1.3,0.4c-0.2,0.1-0.4,0.1-0.6,0.1c-0.5,0.1,0.3,0-0.2,0c-1.2,0-2.2,1-2.2,2.2c0,1.2,1,2.2,2.2,2.2
			c2.5-0.1,4.9-1.2,6.7-2.9c1.8-1.9,3-4.3,3.2-6.9c0.3-2.5,0.4-5.5-1.6-7.3c-2.1-1.9-5.3-2.2-7.7-0.7c-1.1,0.6-1.4,2-0.8,3.1
			C346.8,440.4,348.1,440.8,349.2,440.1L349.2,440.1z"/>
		<path class="st3" d="M301.7,467c2-3.5,2.6-8.4,0.4-12c-1-1.7-2.7-2.8-4.7-3c-2.3,0-4,1.4-5.6,2.9h3.2c-4.4-5.1-11.9-9.4-18.4-5.2
			c-5.7,3.8-7.4,11.2-4.8,17.3c1.6,3.6,4.3,6.7,7.6,8.8c2.4,1.6,4.7-2.3,2.3-3.9c-5.1-3.4-8.8-10.1-5.2-15.9
			c1.4-2.5,4.2-3.9,7.1-3.5c3.4,0.5,6.1,3,8.3,5.5c0.9,0.9,2.3,0.9,3.2,0c0.5-0.5,1.5-1.7,2.4-1.5c0.5,0.1,1,1,1.2,1.5
			c0.7,2.2,0.5,4.7-0.8,6.7C296.4,467.2,300.3,469.5,301.7,467L301.7,467z"/>
		<path class="st3" d="M308.6,474.9c2.9-4.5,6.8-8.2,11.5-11c2.1-1.4,4.4-2.6,6.8-3.6c2.8-1,5.7-1.7,8.6-2.1
			c10.7-1.7,20.2,4.6,25.8,13.4c6.3,9.9,8.5,22.4,8.9,33.9c0.4,11.7-1.6,23.9-8,33.9c-6,9.4-16,17-27.3,18.1c-1.2,0-2.2,1-2.2,2.2
			c0,1.2,1,2.2,2.2,2.2c11.4-1.1,21.6-7.6,28.5-16.5c7.9-10.1,11.1-22.9,11.3-35.6c0.1-6.6-0.5-13.1-1.8-19.6
			c-1.1-6.4-3.2-12.5-6.2-18.2c-5.6-10.4-15.8-18.9-28.1-18.6c-6.8,0.2-13.4,2.2-19.3,5.7c-5.9,3.2-10.9,7.9-14.6,13.5
			C303.2,475.1,307.1,477.3,308.6,474.9L308.6,474.9z"/>
		<path class="st3" d="M318.4,414c-0.6,0.9-1.4,1.6-2.2,2.3l0.5-0.4c-0.4,0.3-0.9,0.6-1.3,0.8c-0.5,0.3-0.9,0.8-1,1.3
			c-0.3,1.2,0.4,2.4,1.6,2.8c0,0,0,0,0,0l0.6,0.1c0.4,0,0.8-0.1,1.1-0.3c0.9-0.4,1.7-1,2.4-1.6c0.6-0.6,1.1-1.2,1.6-1.8
			c0.4-0.4,0.6-1,0.7-1.6c0-0.6-0.2-1.2-0.7-1.6c-0.4-0.4-1-0.7-1.6-0.7l-0.6,0.1C319,413.5,318.6,413.7,318.4,414L318.4,414z"/>
		<path class="st3" d="M326.6,417.8c-0.2,0.3-0.4,0.6-0.7,0.9l0.4-0.5c-0.9,1.1-1.8,2.1-2.9,3l0.5-0.4c-0.2,0.1-0.3,0.3-0.5,0.4
			c-0.5,0.3-0.9,0.8-1,1.3c-0.2,0.6-0.1,1.2,0.2,1.7c0.6,1.1,2,1.4,3.1,0.8c0,0,0,0,0,0c0.9-0.6,1.8-1.3,2.5-2.1
			c0.9-0.9,1.7-1.9,2.4-2.9c0.6-1.1,0.3-2.4-0.8-3.1c-0.5-0.3-1.1-0.4-1.7-0.2C327.4,416.9,326.9,417.3,326.6,417.8L326.6,417.8z"/>
		<path class="st2" d="M376.3,526.4c0.7-0.7,1.3-1.4,2-2.2c5.3-6.4,5-13.4,3.3-20.4c-1.4-4-5.6-8.5-8.2-9.1
			c-3.6-0.9-5.5-0.6-8.9,0.3c-4.2,1.2-8.5,1.6-12.8,1.3c-2.8-0.2-5.5,0.1-8.2,0.7c-2.8,0.6-4,2.3-3.7,4.9c0.4,3,3.7,5.1,7.4,5.4
			l5.1,0.5c-2.2,1.1-4.4,2.1-6.7,2.8c-3.2,1-6.2,1.9-9.4,3.2c-1.7,0.7-2.7,2.3-2.7,4.1c0,2.6,2,4.7,4.6,4.7c0.4,0,0.8,0,1.1-0.1
			l3.7-0.6l-0.6,2.5c-0.5,1.7,0.1,3.4,1.4,4.6c2.2,6.1,9.1,6.9,14.9,6.1C365.2,534.3,371.5,531.2,376.3,526.4z"/>
		<path class="st3" d="M347,505.1c-2.4-0.3-5.8-1.9-5.1-4.6c0.1-0.2,0.2-0.5,0.4-0.7c0.6-0.4,1.3-0.7,2-0.7c2-0.4,3.9-0.6,5.9-0.6
			c2.2,0,4.3,0.2,6.4,0.1c2.4-0.2,4.7-0.6,7-1.1c1.8-0.5,3.6-0.9,5.4-1c1.5-0.1,3,0.2,4.4,0.8c6,3.5,7.8,11.7,6.5,18
			c-1.4,7.1-7.6,12.7-14,15.5c-3.4,1.5-7.1,2.3-10.9,2.4c-3.2,0.1-7-0.6-8.9-3.5c-1.6-2.4-5.5-0.2-3.9,2.3
			c4.8,7.4,15.5,6.4,22.8,3.9c8.3-2.8,16.5-9.4,18.8-18.1c1.2-4.5,0.8-9.1-0.2-13.6c-0.9-4.1-4.1-7.9-7.4-10.3
			c-3.7-2.6-8.6-2-12.7-1c-2.5,0.7-5.2,1.1-7.8,1.3c-2.5,0.1-5-0.2-7.5-0.1c-4.5,0.2-10.8,0.9-11.1,6.6c-0.3,5.4,5,8.4,9.7,8.9
			c1.2,0,2.2-1,2.2-2.2C349.3,506.1,348.3,505.1,347,505.1L347,505.1z"/>
		<path class="st3" d="M354.4,503.9c-3.2,1.9-6.5,3.5-10,4.7c-1.8,0.6-3.7,1.2-5.5,1.8c-1.8,0.5-3.4,1.2-5,2.1
			c-2.8,2-3.7,5.8-2.1,8.8c1.5,3,4.6,4,7.8,3.5c1.2-0.3,1.9-1.6,1.6-2.8c-0.4-1.2-1.6-1.9-2.8-1.6c-1.3,0.3-2.6-0.6-2.8-1.9
			c0-0.1,0-0.2,0-0.4c-0.4-2.2,2.6-2.9,4.4-3.5c2.8-1,5.7-1.8,8.5-2.9c2.9-1.1,5.6-2.5,8.3-4.1C359.2,506.3,356.9,502.4,354.4,503.9
			L354.4,503.9z"/>
		<path class="st3" d="M339,524.8c3.3-0.3,6.5-1,9.7-2.2c3.1-1,6.1-2.2,9-3.6c1.1-0.6,1.4-2,0.8-3.1c-0.6-1-2-1.4-3.1-0.8
			c-0.6,0.3-1.1,0.5-1.7,0.8c-0.3,0.1,0,0-0.2,0.1l-0.4,0.2c-0.3,0.1-0.7,0.3-1,0.4c-1.5,0.6-3,1.2-4.6,1.7c-1.5,0.5-3,1-4.6,1.3
			c-0.7,0.2-1.4,0.3-2.2,0.5c-0.2,0-0.3,0.1-0.5,0.1c-0.1,0-0.5,0.1-0.2,0c-0.4,0-0.7,0.1-1.1,0.1c-1.2,0-2.2,1-2.2,2.2
			C336.8,523.8,337.8,524.8,339,524.8L339,524.8z"/>
		<path class="st2" d="M303.4,547c1.2-1,2.9-1.6,5.5-2.3c4.7-1.2,9.2-2.7,13.7-4.5c2.3-1,4.2-2.8,6.6-3.3c2.4-0.5,5.3,0.2,6.4,2.5
			c0.6,1.5,0.4,3.1-0.4,4.5c-1.7,2.4-3.5,4.7-5.5,6.9l-0.3,0.3l0.8,1c2.1,2.8,5.8,4,9.3,4.1c3,0.3,6.1-0.1,8.9-1.1
			c2.1-0.7,4.7-1.2,6.3-0.7c1.6,0.5,3.2,2,3.2,3.6c0,0.9-1,2.5-1.4,3.2c-1,1.7-3.9,3.2-7.6,4.6c-0.7,1.9-1.2,3-1.2,3
			c-2.7,7.1-9.9,12.6-18.6,14c-8,1.3-19.8,1.5-23.2,0.5c-1-0.3-3.4-1.5-4.3-1.7c-1.9-0.4-6.3-0.5-10.7-0.8c0,0-0.8-0.1-2.1-0.1
			c0.9-10,1.9-22.9,1.3-30.2c0.9,0.1,2.5,0.3,2.5,0.3c2,0.2,4.8,0.8,6.4,0.7l1-0.1c0.9-1.5,2-3,3.3-4.2
			C303.3,547.1,303.4,547,303.4,547z"/>
		<path class="st3" d="M340,523.9c-0.6,2.8,0.2,6.1,3,7.5c2.3,1.1,4.9,1.2,7.3,0.5c4-1.3,8-2.9,11.7-4.8c1.1-0.6,1.4-2,0.8-3.1
			c-0.6-1.1-2-1.4-3.1-0.8c-3,1.5-6.2,2.9-9.4,4c-1.3,0.6-2.7,0.8-4.1,0.6c0,0-0.4-0.1-0.5-0.1c-0.1-0.1-0.3-0.1-0.5-0.1
			c-0.1,0-0.5-0.4-0.4-0.2c-0.2-0.2-0.1-0.1-0.2-0.2c-0.4-0.6-0.5-1.3-0.3-1.9c0.3-1.2-0.4-2.4-1.6-2.8
			C341.6,522,340.4,522.7,340,523.9L340,523.9z"/>
		<path class="st3" d="M290.9,583c2.8,0.2,5.5,0.3,8.3,0.5c1.5,0.1,2.9,0.5,4.3,1.2c3.2,1.4,6.6,1.5,10,1.5c4.6,0,9.2-0.3,13.7-0.8
			c4.7-0.5,9.2-2,13.2-4.5c4.3-2.7,7.6-6.7,9.5-11.4c0.3-1.2-0.4-2.4-1.6-2.8c-1.2-0.3-2.4,0.4-2.8,1.6c-3,7.6-11,11.7-18.7,12.7
			c-4.3,0.5-8.7,0.8-13,0.8c-1.8,0-3.5,0-5.3-0.2c-0.1,0-1-0.1-0.6-0.1c-0.3,0-0.5-0.1-0.8-0.1c-0.5-0.1-1.1-0.3-1.6-0.5
			c-1-0.5-2-0.9-3-1.2c-1-0.2-2-0.4-2.9-0.4c-2.9-0.3-5.7-0.3-8.6-0.5c-1.2,0-2.3,1-2.3,2.2S289.7,583,290.9,583
			C290.9,583,290.9,583,290.9,583L290.9,583z"/>
		<path class="st3" d="M328.5,553.6c2.7,3.4,7.2,4.6,11.4,4.8c2.2,0.1,4.3,0,6.4-0.4c2.1-0.4,4-1.4,6.1-1.6c0.7-0.1,1.5,0,2.2,0.4
			c0.3,0.2,0.6,0.4,0.8,0.7c0.1,0.1,0.3,0.7,0.3,0.3c0,0.6-0.7,1.4-1,1.9c-0.1,0.1-0.4,0.7-0.3,0.5c0.2-0.2-0.1,0.1-0.1,0.1
			c-0.1,0.1-0.2,0.2-0.3,0.3c0,0-0.5,0.4-0.2,0.2c0.2-0.2-0.2,0.1-0.2,0.2c-0.3,0.2-0.5,0.4-0.8,0.5c-0.7,0.4-1.4,0.8-2.1,1.1
			c-1.6,0.7-3.2,1.3-4.9,1.7c-4.3,1.3-8.7,2.2-13.2,2.8c-1.2,0-2.2,1-2.2,2.2c0,1.1,1,2.4,2.2,2.2c4.6-0.6,9.1-1.5,13.6-2.7
			c3.5-1,7.3-2.2,10.2-4.4c1.3-1,2.3-2.3,3-3.7c1.3-2.1,1-4.8-0.7-6.6c-1.7-1.8-4.1-2.6-6.5-2.3c-2.5,0.2-4.7,1.3-7.1,1.7
			c-2.4,0.4-4.8,0.5-7.2,0.1c-2.4-0.3-4.5-1.5-6.1-3.3c-0.9-0.9-2.3-0.9-3.2,0C327.7,551.3,327.7,552.8,328.5,553.6L328.5,553.6z"/>
		<path class="st3" d="M301.4,553.2c0.9-1.6,2-3.1,3.3-4.4c0.4-0.3,0.9-0.6,1.4-0.9c0.7-0.3,1.5-0.6,2.2-0.7
			c3.9-1.1,7.9-2.2,11.7-3.6c1.9-0.6,3.8-1.5,5.5-2.5c1.4-0.8,2.9-2,4.5-2.2c1.1-0.2,2.3,0.1,3.1,0.9c0.8,0.9,0.4,2.3-0.2,3.3
			c-1.4,2.2-3.1,4.2-5,6c-2,2.1,1.1,5.2,3.2,3.2c2.1-2.1,3.9-4.4,5.6-6.8c2.5-3.8,1.3-8.8-3-10.5c-1.9-0.7-4-0.7-5.9-0.1
			c-2.1,0.7-3.8,2-5.7,3c-4.2,2.1-9.1,3.3-13.6,4.6c-2.1,0.6-4.3,1.1-6.1,2.4c-2.1,1.6-3.5,3.8-4.9,6
			C296,553.4,299.9,555.7,301.4,553.2L301.4,553.2z"/>
		<path class="st3" d="M292.6,553c0.1,0,0.3,0,0.4,0.1l-0.6-0.1c1.1,0.1,2.1,0.3,3.2,0.5c1.1,0.2,2.2,0.3,3.3,0.2
			c0.6,0,1.2-0.2,1.6-0.7c0.9-0.9,0.9-2.3,0-3.2c0,0,0,0,0,0c-0.4-0.4-1-0.7-1.6-0.7c-0.9,0-1.8,0-2.7-0.2l0.6,0.1
			c-1.4-0.2-2.8-0.4-4.2-0.6c-0.6,0-1.2,0.2-1.6,0.7c-0.9,0.9-0.9,2.3,0,3.2l0.5,0.4C291.8,552.9,292.2,553,292.6,553L292.6,553z"/>
		<path class="st3" d="M240.2,540.8c8.5,1.9,17.1,2.6,25.7,3.9c7.1,1,14.3,1.4,21.4,2.1c1.2,0,2.2-1,2.2-2.2c0-1.2-1-2.2-2.2-2.2
			c-6.9-0.7-13.8-1-20.7-2c-8.4-1.2-17-1.9-25.3-3.8C238.6,535.9,237.4,540.2,240.2,540.8L240.2,540.8z"/>
		<path class="st3" d="M287.4,546.8c-0.6-0.4-0.4-0.3-0.2-0.1c-0.5-0.5-0.2-0.3-0.1,0c0.3,0.4,0,0,0-0.1c0,0.2,0.1,0.3,0.2,0.5
			c0.1,0.4,0.2,0.8,0.3,1.2c0,0.2,0.1,0.4,0.1,0.7c0,0.3,0-0.4,0-0.1c0,0.2,0,0.3,0.1,0.5c0.2,2.7,0.3,5.3,0.3,8
			c-0.1,6.8-0.6,13.7-1.2,20.5c-0.3,3.3-0.6,6.7-1,10c0,1.2,1,2.2,2.2,2.2c1.2,0,2.2-1,2.2-2.2c0.7-6.7,1.3-13.4,1.7-20.1
			c0.4-6.2,0.9-12.5,0.2-18.7c-0.3-2.2-0.6-4.8-2.5-6.2c-1.1-0.6-2.4-0.3-3.1,0.8C286,544.8,286.4,546.2,287.4,546.8L287.4,546.8z"
			/>
	</g>
	<g>
		<path d="M320.3,210.3c6.2-1.8,11.5-4.5,16-8c-0.3-0.8-0.5-1.3-0.7-1.7c-3.1,2.1-6.9,3.9-11.4,5.4c-0.5,0.2-0.8,0.2-0.9,0.2
			c-0.2,0-0.4-0.3-0.7-0.8c-0.4-0.8-0.9-1.4-1.6-2c4.7-1.1,9.1-2.9,13.1-5.4c-0.4-0.7-0.8-1.2-1-1.5c-2.3,1.2-4.9,2.2-7.7,3.1
			c-0.4,0.1-0.7,0.2-0.8,0.2c-0.2,0-0.4-0.2-0.7-0.6c-0.4-0.8-1-1.5-1.7-2.1c4.5-0.9,8.2-2.2,11.3-3.8h-1.9l-4.8,0.1
			c-0.2,0-0.3,0-0.4-0.1c0,0-0.1-0.2-0.1-0.3v-2.3c0-0.2,0-0.3,0.1-0.4c0,0,0.2-0.1,0.4-0.1l4.8,0.1h10.2l4.9-0.1
			c0.2,0,0.3,0,0.4,0.1c0,0.1,0.1,0.2,0.1,0.4v2.3c0,0.2,0,0.3-0.1,0.4c0,0-0.2,0.1-0.3,0.1l-4.7-0.1c0.5,2,1.1,3.8,1.8,5.3
			c0.8-0.8,1.6-1.5,2.2-2.3c0.5-0.5,1-1.2,1.5-2.2c1,0.7,1.9,1.4,2.6,2c0.4,0.3,0.5,0.5,0.5,0.7c0,0.3-0.2,0.4-0.5,0.5
			c-0.2,0.1-0.7,0.5-1.6,1.4c-1.2,1.2-2.3,2.1-3.3,2.9c1.9,2.9,4.6,5.4,8.1,7.5c-0.9,0.9-1.5,1.7-1.9,2.5c-0.3,0.6-0.6,0.8-0.7,0.8
			c-0.1,0-0.3-0.1-0.8-0.4c-3.1-2.3-5.7-5.2-7.6-8.6c-1.6-2.8-2.9-6.2-3.9-10.1h-0.2c-0.8,0.6-1.6,1.1-2.4,1.6
			c3.1,3.9,4.7,8.1,4.7,12.7c0,2.7-0.4,4.5-1.3,5.5c-0.8,0.8-2.2,1.3-4.1,1.3c-0.8,0-1.4,0-1.9-0.1c-0.5,0-0.8-0.1-0.9-0.2
			c-0.1-0.1-0.2-0.3-0.2-0.8c-0.3-1.1-0.6-2-1.1-2.6c1.3,0.1,2.5,0.2,3.7,0.2c0.9,0,1.4-0.2,1.7-0.7c0.3-0.5,0.5-1.4,0.5-2.8
			c0-0.7,0-1.3-0.1-1.9c-3.9,3-8.4,5.4-13.4,7.3c-0.5,0.2-0.8,0.2-0.9,0.2c-0.2,0-0.5-0.3-0.7-0.8
			C321.5,211.6,321,210.9,320.3,210.3z M346.8,184.6l4.8-0.1c0.2,0,0.3,0,0.3,0.1s0.1,0.2,0.1,0.3l-0.1,1.7v1.5l0.1,3.8
			c0,0.2,0,0.3-0.1,0.3s-0.2,0.1-0.3,0.1h-3c-0.2,0-0.3,0-0.4-0.1s-0.1-0.2-0.1-0.3v-4.3h-22.9v4.3c0,0.2,0,0.3-0.1,0.3
			s-0.2,0.1-0.3,0.1h-3c-0.2,0-0.3,0-0.3-0.1s-0.1-0.2-0.1-0.3l0.1-3.8v-1.2l-0.1-2c0-0.2,0-0.3,0.1-0.4s0.2-0.1,0.3-0.1l4.8,0.1
			h7.9v-0.1c0-1.3-0.1-2.4-0.2-3.1c1.3,0,2.6,0.1,3.9,0.2c0.4,0,0.5,0.1,0.5,0.3c0,0.1-0.1,0.3-0.2,0.7c-0.1,0.3-0.2,0.9-0.2,1.8
			v0.1H346.8z"/>
		<path d="M365.7,190.1h-2.5c-0.1,2.6-0.1,3.9-0.1,4h3.6l2.1-0.1c0.3,0,0.4,0.1,0.4,0.4c0,0.3-0.1,1.6-0.1,3.9
			c0,6.4-0.4,10.6-1,12.7c-0.6,1.9-1.8,2.8-3.7,2.8c-0.7,0-1.2,0-1.5,0c-0.3,0-0.5-0.1-0.6-0.2c-0.1-0.1-0.1-0.4-0.2-0.8
			c-0.2-1.1-0.4-2-0.8-2.7c0.9,0.2,1.7,0.2,2.4,0.2c0.5,0,0.9-0.2,1.1-0.5c0.2-0.2,0.3-0.8,0.5-1.6c0.3-1.5,0.5-5.1,0.5-10.9H363
			c-0.2,3.7-0.7,6.9-1.3,9.4c-0.6,2.4-1.5,4.6-2.7,6.5c-0.3,0.4-0.5,0.6-0.6,0.6s-0.4-0.2-0.7-0.6c-0.7-1-1.4-1.8-2-2.3
			c1.8-2.5,3-5.7,3.5-9.6c0.4-2.5,0.5-6.2,0.6-11.4c-0.8,0-1.6,0-2.2,0.1c-0.4,0-0.7,0-0.7,0c-0.2,0-0.3,0-0.4-0.1s-0.1-0.2-0.1-0.3
			v-2.6c0-0.2,0-0.3,0.1-0.4c0,0,0.2-0.1,0.3-0.1l3.9,0.1h1.2v-1.7c0-1.6-0.1-2.7-0.2-3.5c1.6,0,2.9,0.1,3.8,0.2
			c0.4,0,0.6,0.1,0.6,0.4c0,0.1-0.1,0.3-0.2,0.7c-0.2,0.4-0.2,1.1-0.2,2.2v1.7l3.9-0.1c0.2,0,0.3,0,0.3,0.1c0,0,0.1,0.2,0.1,0.4v2.3
			c1.4-1.6,2.4-3.6,3.2-5.8c0.3-0.9,0.5-1.6,0.5-2.3c1.3,0.2,2.4,0.4,3.2,0.7c0.4,0.1,0.6,0.3,0.6,0.5c0,0.2-0.1,0.3-0.3,0.5
			c-0.2,0.2-0.4,0.6-0.6,1.3c-0.3,0.7-0.5,1.3-0.7,1.6h8.5l4.3-0.1c0.2,0,0.3,0,0.4,0.1c0,0,0.1,0.2,0.1,0.3v2.6
			c0,0.2,0,0.3-0.1,0.3c0,0-0.1,0.1-0.3,0.1l-4.3-0.1h-10.2c-0.9,1.5-1.8,2.7-2.8,3.8c-0.4,0.4-0.6,0.6-0.7,0.6
			c-0.1,0-0.4-0.2-0.8-0.7c-0.5-0.5-1.2-1-2-1.3c0.5-0.5,1-1,1.5-1.5L365.7,190.1z M368.6,211.2c2.7-1,4.7-2.2,6.1-3.5
			c1.2-1.2,2-2.6,2.5-4.3h-1.7l-4.6,0.1c-0.3,0-0.4-0.1-0.4-0.4v-2.5c0-0.2,0-0.3,0.1-0.4s0.2-0.1,0.3-0.1l4.6,0.1h2.2
			c0.1-1.1,0.2-2.2,0.2-3.2c0-0.3,0-0.5,0-0.8h-2.2c-0.6,0.9-1.2,1.7-1.9,2.5c-0.4,0.4-0.7,0.7-0.8,0.7c-0.1,0-0.4-0.2-0.8-0.7
			c-0.5-0.5-1-0.9-1.8-1.3c1.7-1.5,3-3.4,4.1-5.5c0.4-0.9,0.6-1.6,0.8-2.2c1.2,0.2,2.2,0.5,3,0.8c0.3,0.1,0.5,0.3,0.5,0.5
			c0,0.1-0.1,0.3-0.3,0.5c-0.2,0.2-0.4,0.5-0.7,1.2l-0.2,0.4h4.8l5-0.1c0.2,0,0.3,0,0.4,0.1c0,0,0.1,0.2,0.1,0.3v2.5
			c0,0.2,0,0.3-0.1,0.3c0,0-0.2,0.1-0.4,0.1l-5-0.1h-0.7c0,1.3-0.1,2.6-0.2,4h2.5l4.7-0.1c0.2,0,0.4,0.1,0.4,0.4v2.5
			c0,0.2-0.1,0.4-0.4,0.4l-4.7-0.1h-2c0.8,1.7,2,3.2,3.4,4.5c1.4,1.2,2.9,2.1,4.5,2.7c-0.7,0.9-1.3,1.7-1.7,2.6
			c-0.3,0.6-0.5,0.9-0.7,0.9c-0.1,0-0.4-0.1-0.8-0.3c-2.9-1.9-5.1-4.3-6.8-7.5c-1.4,3.2-4.2,5.7-8.2,7.6c-0.4,0.2-0.7,0.3-0.8,0.3
			c-0.2,0-0.5-0.3-0.7-0.9C369.8,212.4,369.3,211.7,368.6,211.2z"/>
	</g>
</g>
<g>
	<g>
		<polygon class="st0" points="1515,224.4 1195.3,24.4 875,224.3 945,224.3 945,594.4 1445,594.4 1445,224.4 		"/>
		<g>
			<path class="st1" d="M1517.5,220.1c-10.6-6.6-21.2-13.3-31.8-19.9c-25.5-15.9-50.9-31.8-76.4-47.8
				c-30.8-19.3-61.6-38.5-92.4-57.8c-26.6-16.7-53.2-33.3-79.9-50c-8.7-5.5-17.5-10.9-26.2-16.4c-4.1-2.6-8.2-5.6-12.5-7.8
				c-0.2-0.1-0.4-0.2-0.6-0.4c-1.5-0.9-3.6-0.9-5,0c-10.6,6.6-21.2,13.2-31.8,19.8c-25.6,16-51.1,31.9-76.7,47.9
				c-30.8,19.2-61.6,38.4-92.4,57.7c-26.6,16.6-53.3,33.2-79.9,49.9c-12.9,8-26.6,15.4-39,24.3c-0.2,0.1-0.4,0.2-0.6,0.4
				c-4.1,2.6-2.5,9.3,2.5,9.3c23.3,0,46.7,0,70,0c-1.7-1.7-3.3-3.3-5-5c0,12.3,0,24.5,0,36.8c0,29.4,0,58.9,0,88.3
				c0,35.6,0,71.3,0,106.9c0,30.8,0,61.6,0,92.4c0,14.9-1.1,30.2,0,45c0,0.2,0,0.4,0,0.6c0,2.7,2.3,5,5,5c16.7,0,33.3,0,50,0
				c39.7,0,79.3,0,119,0c48.3,0,96.6,0,144.8,0c41.6,0,83.2,0,124.8,0c20.1,0,40.5,0.8,60.6,0c0.3,0,0.6,0,0.8,0c2.7,0,5-2.3,5-5
				c0-12.3,0-24.5,0-36.8c0-29.4,0-58.9,0-88.3c0-35.6,0-71.2,0-106.9c0-30.8,0-61.6,0-92.4c0-10.1,0-20.3,0-30.4
				c0-4.6,0.8-10.1,0-14.6c0-0.2,0-0.4,0-0.6c-1.7,1.7-3.3,3.3-5,5c23.3,0,46.7,0,70,0c6.4,0,6.4-10,0-10c-23.3,0-46.7,0-70,0
				c-2.7,0-5,2.3-5,5c0,12.3,0,24.5,0,36.8c0,29.4,0,58.9,0,88.3c0,35.6,0,71.2,0,106.9c0,30.8,0,61.6,0,92.4c0,10.1,0,20.3,0,30.4
				c0,4.6-0.8,10.1,0,14.6c0,0.2,0,0.4,0,0.6c1.7-1.7,3.3-3.3,5-5c-16.7,0-33.3,0-50,0c-39.7,0-79.3,0-119,0c-48.3,0-96.6,0-144.8,0
				c-41.6,0-83.2,0-124.8,0c-13.7,0-27.5,0-41.2,0c-6.2,0-13.2-0.9-19.4,0c-0.3,0-0.6,0-0.8,0c1.7,1.7,3.3,3.3,5,5
				c0-12.3,0-24.5,0-36.8c0-29.4,0-58.9,0-88.3c0-35.6,0-71.3,0-106.9c0-30.8,0-61.6,0-92.4c0-14.9,1.1-30.2,0-45c0-0.2,0-0.4,0-0.6
				c0-2.7-2.3-5-5-5c-23.3,0-46.7,0-70,0c0.8,3.1,1.7,6.2,2.5,9.3c10.6-6.6,21.2-13.2,31.8-19.8c25.6-16,51.1-31.9,76.7-47.9
				c30.8-19.2,61.6-38.4,92.4-57.7c26.6-16.6,53.3-33.2,79.9-49.9c8.8-5.5,17.6-11,26.5-16.5c3.9-2.4,9.1-4.7,12.5-7.8
				c0.2-0.1,0.4-0.2,0.6-0.4c-1.7,0-3.4,0-5,0c10.6,6.6,21.2,13.3,31.8,19.9c25.5,15.9,50.9,31.8,76.4,47.8
				c30.8,19.3,61.6,38.5,92.4,57.8c26.6,16.7,53.2,33.3,79.9,50c8.7,5.5,17.5,10.9,26.2,16.4c4.1,2.6,8.2,5.6,12.5,7.8
				c0.2,0.1,0.4,0.2,0.6,0.4C1517.9,232.1,1523,223.5,1517.5,220.1z"/>
		</g>
	</g>
	<g>
		<path class="st2" d="M1121.8,467.4c2-2.1,3.8-3.9,4.8-5h2.5c1.8,1.8,6,6.2,9.7,10.1l-0.5,0.3c-3.1,1.5-6.6,2.2-10,2.3
			c-3.9,0-7.7-0.9-11.1-2.6C1118.6,470.7,1120.2,469,1121.8,467.4z"/>
		<path class="st2" d="M1168.7,393.8c1.3-1.1,2.9-1.7,4.6-1.6c2.2,0,4.2,1.1,5.3,3c1.8,3.2,1.6,8.9,0.3,12.5
			c-0.9,2.5-2.4,6.4-5.8,9.1c-1.5,1.2-3.5,1.8-5.5,1.5l-0.5-0.1c-0.5,1.7-1.2,3.4-2,5c-1.3,3.4-8.2,14.8-16.9,20.4
			c0,1.6,0,2.9,0,2.9c-6.1,5.7-12.5,11-19.2,15.9h-2.5c-6.7-4.9-13.2-10.2-19.2-15.9c0,0,0-1.2,0-2.7c-4.1-2.5-7.8-5.7-10.7-9.5
			c-4.1-5.2-7.2-11.1-8.9-17.5c-2.1,0.4-4.2-0.2-5.8-1.6c-3.3-2.8-4.7-6.7-5.5-9.3c-1.2-3.6-1.1-9.4,0.7-12.5c1.1-1.9,3.2-3,5.4-2.9
			c1.7,0,3.4,0.6,4.6,1.8c0,0-9.7-33,40.7-33S1168.7,393.8,1168.7,393.8z"/>
		<path class="st2" d="M1317.9,416.5c1.2-1.1,2.9-1.8,4.6-1.7c2.2-0.1,4.2,1,5.3,2.9c1.8,3.1,1.7,8.8,0.5,12.3
			c-0.8,2.5-2.2,6.3-5.6,9.1c-1.5,1.2-3.4,1.8-5.4,1.6l-0.5-0.1c-0.5,1.7-1.1,3.4-1.8,5c-1.2,3.4-7.7,14.6-16.1,20.3
			c0.4,2.8,1.2,5.6,2.6,8.1c1.8,2.9,6.2,5.3,10.9,7.5l-0.4,4.1c-0.1,0.9-0.1,1.9-0.2,2.9c-13.8,3.5-21.1,4.6-32.5,4.6
			c-19,0-23.6-2.3-30.6-4.5c0-3.1,0-6,0-8.5c3.1-0.9,6-2.2,8.7-3.8c0.5-0.2,0.9-0.6,1.3-1c0.2-0.3,0.3-0.7,0.3-1.1
			c0.4-2,0.7-4.1,1.1-6.1c-4.7-2-8.9-5.5-12.8-10.2c-4.2-5-7.3-10.9-9.1-17.1c-2,0.4-4.2-0.1-5.8-1.4c-3.4-2.7-4.8-6.6-5.6-9.1
			c-1.2-3.5-1.3-9.2,0.5-12.3c1.1-1.9,3.1-3,5.2-2.9c1.7-0.1,3.3,0.5,4.6,1.7c0,0-7-39.2,41.6-39.2
			C1327.5,377.5,1317.9,416.5,1317.9,416.5z"/>
		<path class="st7" d="M1047.8,486.1c-0.8,1.3-1.4,2.6-2,3.9c-2.9,7.6-5.1,15.5-6.6,23.5c-3.3,20.5-6.5,48.1-9.6,77.1h185.9v-83.9
			l-8.8-18.2c-1.9-4.4-3.8-7.2-7.9-11.5c-3.3-3.6-7.1-6.7-11.4-9.1c-9.6-5.4-20.6-7.8-30.6-11.3l-18.8,16.1c-3.1,1.5-6.6,2.2-10,2.3
			c-3.9,0-7.7-0.9-11.1-2.6l-19.7-16.7c-10.7,3.6-21.1,8-31.2,12.9c-4.2,2.4-8.1,5.3-11.5,8.7C1052,480,1049.8,482.9,1047.8,486.1z"
			/>
		<path class="st2" d="M1192.8,592.1c0.9-7.9,1.3-13,2.5-20c2.4-15.6,4.5-35.1,9.3-55.5c1.9-7.9,4.9-16,10.9-21.5
			c3.3-3,7.4-5,11.4-6.9c5.9-2.8,15.2-6.3,21.9-9c0,22.2,0.3,76,0,112.9H1192.8z"/>
		<path class="st2" d="M1311.1,592.2c0-35.2-0.5-80.9,1-106.6l0.4-4.1l0-0.3c13,5.6,27.1,11.9,34.1,24.2c4.1,7.3,5.3,15.8,6.3,24.1
			c1.8,13.7,6.7,54.7,7.3,62.4L1311.1,592.2z"/>
		<path class="st8" d="M1311.1,592.2c0-33.9-0.4-77.6,0.8-103.7c-13.8,3.5-21.1,4.6-32.5,4.6c-19,0-23.6-2.3-30.6-4.5
			c0.1,25.6,0.2,71.1,0,103.6L1311.1,592.2z"/>
		<path class="st3" d="M1032,590.6c2.5-23.1,4.9-46.2,8.4-69.1c0.7-4.8,1.4-9.5,2.6-14.2c1.2-4.8,2.6-9.6,4.3-14.3
			c3.2-8.9,9.9-16.2,17.9-21.2c2.3-1.4,4.7-2.6,7.2-3.6c2.8-1.3,5.7-2.6,8.6-3.8c5.6-2.4,11.3-4.5,17-6.5c2.7-0.9,1.5-5.3-1.2-4.3
			c-10.9,3.7-21.5,8.1-31.7,13.2c-4,2.1-7.6,4.8-10.8,7.9c-3.9,3.7-7.1,8.1-9.5,12.9c-1.9,4.4-3.5,8.9-4.7,13.5
			c-1.4,4.9-2.5,9.9-3.2,14.9c-1.7,10.7-3.1,21.5-4.4,32.3c-1.7,14.1-3.3,28.2-4.8,42.3c0,1.2,1,2.2,2.2,2.2
			C1031,592.8,1031.9,591.8,1032,590.6z"/>
		<path class="st3" d="M1156.3,458.8c7.7,2.7,15.7,4.7,23.3,7.8c3.7,1.5,7.3,3.4,10.6,5.6c3.1,2.2,5.9,4.8,8.4,7.7
			c2.6,2.9,4.8,6.2,6.3,9.8c0.6,1.1,2,1.4,3.1,0.8c1-0.6,1.4-2,0.8-3.1c-3-7-8.5-13.1-14.5-17.7c-6.8-5.2-15-8.3-23-10.8
			c-4.6-1.5-9.2-2.8-13.7-4.3C1154.8,453.5,1153.6,457.9,1156.3,458.8L1156.3,458.8z"/>
		<path class="st2" d="M1126.5,462.4c-6.7-4.9-13.2-10.2-19.2-15.9c-3.1,2.7-6.1,5.6-8.8,8.7c4.4,6.7,9.2,14.3,14.6,21.2
			C1117,472.4,1124,464.9,1126.5,462.4z"/>
		<path class="st2" d="M1129,462.4c6.7-4.9,13.2-10.2,19.2-15.9c3.1,2.7,6.1,5.6,8.8,8.7c-4.4,6.7-9.2,14.3-14.6,21.2
			C1138.5,472.4,1131.6,464.9,1129,462.4z"/>
		<path class="st3" d="M1127.7,460.5c-6.6-4.8-12.8-10-18.8-15.5c-0.9-0.8-2.3-0.8-3.2,0c-3.1,2.7-6,5.6-8.8,8.7
			c-0.7,0.7-0.8,1.8-0.4,2.7c4.8,7.3,9.5,14.7,14.9,21.6c0.9,0.9,2.3,0.9,3.2,0c4.5-4.6,8.9-9.4,13.4-14c2-2.1-1.1-5.2-3.2-3.2
			c-4.5,4.6-8.9,9.3-13.4,14h3.2c-5.1-6.6-9.6-13.7-14.2-20.7l-0.4,2.7c2.7-3.1,5.7-6,8.8-8.7h-3.2c6.2,5.8,12.8,11.2,19.7,16.2
			c1.1,0.6,2.4,0.3,3.1-0.8C1129.1,462.5,1128.7,461.1,1127.7,460.5z"/>
		<path class="st3" d="M1130.2,464.3c6.9-5,13.4-10.4,19.7-16.2h-3.2c3.1,2.7,6,5.6,8.8,8.7l-0.4-2.7c-4.6,7-9.1,14.1-14.2,20.7h3.2
			c-4.5-4.6-8.9-9.4-13.4-14c-2-2.1-5.2,1.1-3.2,3.2c4.5,4.6,8.9,9.3,13.4,14c0.9,0.9,2.3,0.9,3.2,0c5.4-6.9,10.1-14.3,14.9-21.6
			c0.5-0.9,0.4-2-0.4-2.7c-2.7-3.1-5.7-6-8.8-8.7c-0.9-0.9-2.3-0.9-3.2,0c-5.9,5.5-12.2,10.7-18.8,15.5c-1,0.6-1.4,2-0.8,3.1
			C1127.7,464.6,1129.1,465,1130.2,464.3z"/>
		<path class="st3" d="M1115.9,474.3c7.3,3.7,16,3.8,23.4,0.4c1.1-0.6,1.4-2,0.8-3.1c-0.6-1-2-1.4-3.1-0.8c-6,2.7-13,2.6-18.9-0.4
			c-1.1-0.6-2.4-0.2-3.1,0.8C1114.4,472.3,1114.8,473.7,1115.9,474.3L1115.9,474.3z"/>
		<path class="st3" d="M1064.6,514.9c-0.2,19.6-1.3,39.1-2,58.7c-0.2,5.4-0.4,10.7-0.7,16.1c-0.2,2.9,4.3,2.9,4.5,0
			c0.6-9.7,0.7-19.4,1.2-29.1c0.5-10.1,0.9-20.2,1.2-30.2c0.2-5.1,0.3-10.2,0.3-15.4C1069.1,512,1064.6,512,1064.6,514.9
			L1064.6,514.9z"/>
		<path class="st9" d="M1176.8,366.5c-0.9-4.8-2.4-9.5-4.6-13.8c-8.1-16-25.8-25.7-43.4-26c-11.6-0.2-21.6,2.9-29.9,9
			c-3.7,2.6-6.7,6.2-8.4,10.4c0,0-1.3,0.1-2.9,0.2c-6,6-9.4,17.2-9.3,28.5c-0.1,5.4,0.4,10.9,1.7,16.2c0.8-0.3,1.6-0.4,2.4-0.4
			c2-0.1,3.9,0.8,5.1,2.3c1.1-6.1,1.1-14.1,8.7-22.8c1.6-1.8,6-3.4,10.1-4.9c3.9-1.5,16-1.3,20.9-1c10.2-1.4,23.4,0.2,30.7,6.4
			c2.2,1.8,4.2,3.8,5.9,6.1c3.4,5,4.1,10.1,4.3,17.6c1.3-1.5,3.2-2.3,5.2-2.2c0.8,0,1.5,0.2,2.2,0.4
			C1178.2,384.7,1178.5,375.3,1176.8,366.5z"/>
		<path class="st3" d="M1088.6,390.8c-2.7-2.5-6.6-3.1-9.9-1.6c-2.3,1.1-4,3.2-4.6,5.8c-1.8,6-0.3,13,3,18.2c2.2,3.4,5.8,6.5,10.2,6
			c1.2,0,2.2-1,2.2-2.2c0-1.2-1-2.2-2.2-2.2c-3.4,0.4-5.6-2.4-7.1-5.1c-1.3-2.4-2.1-5.1-2.3-7.9c-0.1-1.5,0-3.1,0.3-4.6
			c0.1-0.6,0.3-1.2,0.6-1.8c0.1-0.3,0.3-0.5,0.4-0.8c0.1-0.1,0.1-0.2,0.2-0.3c-0.2,0.2-0.2,0.2-0.1,0.1c1.6-1.8,4.4-1.9,6.2-0.3
			C1087.6,396,1090.8,392.8,1088.6,390.8L1088.6,390.8z"/>
		<path class="st3" d="M1170.3,395.4c1.1-0.9,2.5-1.2,3.9-0.8c0.6,0.1,1.1,0.4,1.6,0.7c-0.2-0.1,0.4,0.3,0.4,0.4
			c0.1,0.1,0.4,0.6,0.1,0.2c1.5,2.2,1.5,5.3,1.2,7.8c-0.3,2.6-1.2,5.2-2.5,7.4c-1.3,2.3-3.7,5.5-6.8,5.1c-1.2-0.3-2.4,0.4-2.8,1.6
			c-0.3,1.2,0.4,2.4,1.6,2.8c7.5,1.1,11.9-6,14-12.1c1-3.2,1.3-6.5,0.8-9.8c-0.4-2.7-1.4-5.3-3.7-7c-3.4-2.3-8-2-11.1,0.7
			C1164.9,394.1,1168.1,397.3,1170.3,395.4L1170.3,395.4z"/>
		<path class="st3" d="M1165.8,414.6c-0.4,1.7-0.9,3.4-1.5,5c-0.2,0.6-0.4,1.2-0.7,1.7c-0.1,0.3-0.2,0.5-0.4,0.8
			c-0.1,0.2-0.5,1.1-0.2,0.4c-0.8,1.7-1.7,3.4-2.7,4.9c-3,4.9-6.7,9.2-11.2,12.8c-2.4,2-5.2,3.4-8.2,4.1c-2.8,0.6-1.6,4.9,1.2,4.3
			c6.3-1.3,11.5-5.8,15.7-10.5c3.5-3.9,6.5-8.2,8.9-12.9c0.1-0.2,0.2-0.4,0.2-0.5c0-0.1,0.5-1.2,0.2-0.5c0.4-0.8,0.7-1.6,1.1-2.5
			c0.8-1.9,1.4-3.9,1.9-5.9C1170.7,413,1166.4,411.8,1165.8,414.6L1165.8,414.6z"/>
		<path class="st3" d="M1084.8,414.3c1.3,6.1,3.7,12,7,17.2c3.6,5.6,8.4,10.8,14.2,14.2c3,1.7,6.2,2.9,9.6,3.5
			c1.2,0.3,2.4-0.4,2.8-1.6c0.3-1.2-0.4-2.4-1.6-2.8c-7.4-1.2-13.3-5.6-18-11.3c-4.9-5.9-8.2-12.9-9.7-20.5
			C1088.5,410.2,1084.2,411.4,1084.8,414.3L1084.8,414.3z"/>
		<path class="st3" d="M1087.1,343.7c-4.4,3.8-7.1,9.3-8.8,14.8c-1.8,6.5-2.6,13.2-2.2,19.9c0.1,4.2,0.6,8.5,1.6,12.6
			c0.7,2.8,5,1.6,4.3-1.2c-1-4.3-1.5-8.6-1.5-13c-0.1-3.9,0.1-7.8,0.8-11.7c1.2-6.7,3.7-13.7,8.9-18.2
			C1092.5,345,1089.3,341.9,1087.1,343.7L1087.1,343.7z"/>
		<path class="st3" d="M1105.8,363.1c-3.3,0.9-6.5,2.2-9.4,4.1c-2.7,1.9-4.7,5.1-6.3,8c-2.7,4.9-3.6,10.2-4.4,15.6
			c-0.3,1.2,0.4,2.4,1.6,2.8c1.2,0.3,2.4-0.4,2.8-1.6c0.7-4.8,1.4-9.5,3.6-13.9c1.2-2.4,2.9-5.3,5-7c2.4-1.8,5.5-2.8,8.3-3.6
			C1109.7,366.6,1108.5,362.2,1105.8,363.1L1105.8,363.1z"/>
		<path class="st3" d="M1156.4,372.3c3.1,2.7,6,5.5,7.6,9.4c1.5,3.7,1.8,7.7,2,11.6c0.1,2.9,4.6,2.9,4.5,0c-0.2-4.4-0.6-9-2.2-13.1
			c-1.8-4.5-4.9-7.9-8.6-11c-0.9-0.8-2.3-0.8-3.2,0C1155.5,370,1155.5,371.4,1156.4,372.3L1156.4,372.3z"/>
		<path class="st3" d="M1116,364.6c0.1-0.4,0.2-0.7,0.3-1.1c-0.2,0.5,0-0.1,0.1-0.2c0.1-0.2,0.2-0.3,0.3-0.5c0.2-0.3,0.4-0.7,0.6-1
			c0.1-0.2,0.2-0.3,0.3-0.5c0.1-0.1,0.4-0.5,0.1-0.2c0.7-0.9,1.4-1.7,2.2-2.5c0.4-0.4,0.8-0.7,1.2-1c0.1-0.1-0.4,0.3,0,0
			c0.1-0.1,0.2-0.2,0.4-0.3c0.3-0.2,0.5-0.3,0.8-0.5c0.6-0.4,1.2-0.7,1.8-1c0.1,0,0.6-0.3,0.3-0.2c-0.2,0.1,0.3-0.1,0.4-0.1
			c0.4-0.2,0.9-0.3,1.3-0.5c1.2-0.3,1.9-1.6,1.6-2.8c-0.3-1.2-1.6-1.9-2.8-1.6c-3,0.9-5.8,2.5-8.1,4.7c-0.9,0.9-1.7,1.9-2.5,2.9
			c-1.2,1.5-2.1,3.2-2.6,5c-0.3,1.2,0.4,2.4,1.6,2.8C1114.4,366.5,1115.7,365.8,1116,364.6L1116,364.6L1116,364.6z"/>
		<path class="st3" d="M1124.9,366.4c2.3-1.6,4.8-2.6,7.5-3.1c1-0.2,2.1-0.4,3.1-0.6c0.3,0,0.6-0.1,0.9-0.1c0.2,0,0.4-0.1,0.6-0.1
			c-0.2,0,0.1,0,0.1,0c0.8-0.1,1.7-0.2,2.5-0.3c1.2,0,2.2-1,2.2-2.2c0-1.2-1-2.2-2.2-2.2c-5.9,0.5-12,1.5-17,4.8
			c-1,0.6-1.4,2-0.8,3.1C1122.5,366.7,1123.9,367,1124.9,366.4L1124.9,366.4z"/>
		<path class="st3" d="M1177.9,392.7c3-9.4,2.8-19.8,0.5-29.3c-2.1-9.2-6.7-17.6-13.4-24.2c-13.6-13.1-34.2-17.9-52.2-12.8
			c-9.9,2.8-19.8,8.8-24.2,18.6c-0.6,1.1-0.2,2.4,0.8,3.1c1.1,0.6,2.4,0.3,3.1-0.8c1.6-3.7,4.1-7,7.4-9.4c3.5-2.7,7.4-4.8,11.5-6.2
			c8.4-2.9,17.4-3.5,26.1-1.8c8.2,1.6,15.9,5.3,22.3,10.7c6.4,5.5,11.1,12.7,13.4,20.8c2.9,9.7,3.4,20.5,0.3,30.2
			C1172.7,394.2,1177,395.4,1177.9,392.7L1177.9,392.7z"/>
		<path class="st3" d="M1119.7,427.6c2.4,1.3,5.2,2,7.9,2c2.6,0,5.7-0.3,7.9-2c1-0.6,1.4-2,0.8-3.1c-0.6-1.1-2-1.4-3.1-0.8
			c-0.3,0.2-0.6,0.4-0.8,0.5c-0.1,0-0.2,0.1-0.3,0.1c-0.3,0.2,0,0,0.1,0c-0.3,0.1-0.5,0.2-0.7,0.3c-0.6,0.2-1.2,0.3-1.8,0.4
			c0.5-0.1-0.2,0-0.2,0c-0.2,0-0.4,0-0.6,0c-0.4,0-0.9,0-1.3,0c-0.4,0-0.8,0-1.2-0.1c-0.2,0-0.4,0-0.7-0.1c0.3,0,0,0-0.1,0
			c-0.6-0.1-1.2-0.2-1.8-0.4c-0.3-0.1-0.5-0.2-0.7-0.3c-0.4-0.2,0.1,0.1,0.1,0.1c-0.1,0-0.2-0.1-0.3-0.1c-0.3-0.1-0.6-0.3-0.9-0.5
			c-1.1-0.6-2.4-0.3-3.1,0.8C1118.2,425.6,1118.6,427,1119.7,427.6L1119.7,427.6L1119.7,427.6z"/>
		<path class="st3" d="M1126.8,408.8c0.3,1.3,0.6,2.7,0.8,4l-0.1-0.6c0,0.2,0,0.4,0,0.6l0.1-0.6c0,0.1,0,0.2-0.1,0.3l0.2-0.5
			c0,0.1-0.1,0.1-0.1,0.2l0.4-0.5c0,0-0.1,0.1-0.1,0.1l0.5-0.4c-0.1,0.1-0.2,0.1-0.3,0.2l0.5-0.2c-0.2,0.1-0.4,0.1-0.5,0.1l0.6-0.1
			c-0.2,0-0.3,0-0.5,0l0.6,0.1c-0.2,0-0.4-0.1-0.6-0.1c-0.6-0.1-1.2-0.1-1.7,0.2c-1.1,0.6-1.4,2-0.8,3.1c0.3,0.5,0.8,0.9,1.3,1
			c0.4,0.1,0.9,0.2,1.3,0.2c0.7,0,1.4-0.1,2-0.5c0.8-0.4,1.4-1.1,1.6-1.9c0.1-0.7,0.1-1.4,0-2.1c-0.2-1.3-0.5-2.6-0.8-3.9
			c-0.3-1.2-1.6-1.9-2.8-1.6C1127.2,406.3,1126.5,407.6,1126.8,408.8L1126.8,408.8z"/>
		<path class="st3" d="M1105.7,396.9c-0.7,2.2-0.4,7.2,3.8,7.7c5.5,0.1,5.9-6,4.1-8.9C1112.1,393.3,1107.7,392.2,1105.7,396.9z"/>
		<path class="st3" d="M1149.9,397.6c0.6,2.2,0.1,7.3-4.1,7.6c-5.5-0.1-5.7-6.2-3.8-9.1C1143.6,393.8,1148.1,392.9,1149.9,397.6z"/>
		<path class="st3" d="M1141.9,422.5c0.2,0.2,0.4,0.4,0.6,0.6l-0.4-0.5c0.4,0.5,0.7,1.1,1,1.8l-0.2-0.5c0.1,0.3,0.2,0.6,0.3,0.9
			c0.2,0.6,0.5,1,1,1.3c0.2,0.2,0.5,0.3,0.8,0.3c0.3,0.1,0.6,0.1,0.9,0c0.6-0.2,1-0.5,1.3-1c0.3-0.5,0.4-1.1,0.2-1.7
			c-0.5-1.6-1.3-3.1-2.5-4.3c-0.4-0.4-1-0.6-1.6-0.7c-0.6,0-1.2,0.2-1.6,0.7c-0.4,0.4-0.7,1-0.7,1.6
			C1141.2,421.6,1141.5,422.1,1141.9,422.5L1141.9,422.5z"/>
		<path class="st3" d="M1290.5,445c0.2,0.2,0.4,0.4,0.6,0.6l-0.4-0.5c0.4,0.5,0.7,1.1,1,1.8l-0.2-0.5c0.1,0.3,0.2,0.6,0.3,0.9
			c0.2,0.6,0.5,1,1,1.3c0.2,0.2,0.5,0.3,0.8,0.3c0.3,0.1,0.6,0.1,0.9,0c0.6-0.2,1-0.5,1.3-1c0.3-0.5,0.4-1.1,0.2-1.7
			c-0.5-1.6-1.3-3.1-2.5-4.3c-0.4-0.4-1-0.6-1.6-0.7c-0.6,0-1.2,0.2-1.6,0.7c-0.4,0.4-0.7,1-0.7,1.6
			C1289.9,444,1290.1,444.6,1290.5,445L1290.5,445z"/>
		<path class="st3" d="M1195.1,592.1c0.5-4.4,0.9-8.8,1.5-13.2c0.5-4,1.2-7.9,1.7-11.9c1.3-8.9,2.5-17.9,3.9-26.8
			c0.8-5,1.7-9.9,2.8-14.9c0.9-4.6,2-9.2,3.4-13.8c1.2-4,3-7.7,5.4-11.1c2.6-3.4,5.9-6.1,9.7-8c8.3-4.4,17.2-7.6,25.9-11
			c1.2-0.4,1.9-1.6,1.6-2.8c-0.3-1.2-1.6-1.9-2.8-1.6c-8,3.1-16.2,6.1-23.9,9.9c-4.2,2.1-8.4,4.4-11.7,7.9c-3,3.2-5.3,7-7,11.1
			c-1.7,4.3-3,8.7-4,13.3c-1.1,5-2.1,10-3,15.1c-1.7,9.4-3,18.8-4.3,28.2c-0.7,4.8-1.5,9.6-2.1,14.4c-0.7,5.1-1.2,10.2-1.8,15.3
			c0,1.2,1,2.2,2.2,2.2C1194,594.3,1195,593.3,1195.1,592.1L1195.1,592.1z"/>
		<path class="st3" d="M1311.9,483.5c9.3,4,18.9,8.2,26.4,15.2c3.8,3.5,6.7,7.9,8.6,12.7c2.1,5.5,3,11.3,3.7,17.1
			c1.9,14.9,3.7,29.9,5.4,44.9c0.7,6.3,1.5,12.5,2.1,18.8c0,1.2,1,2.2,2.2,2.2c1.2,0,2.2-1,2.2-2.2c-1.2-13.8-3-27.5-4.7-41.2
			c-0.8-6.9-1.7-13.8-2.6-20.7c-0.7-5.8-1.5-11.7-3.2-17.3c-1.6-5.4-4.4-10.5-8.1-14.7c-7.9-8.9-19.1-13.9-29.8-18.5
			c-1.1-0.6-2.4-0.2-3.1,0.8C1310.5,481.5,1310.9,482.8,1311.9,483.5L1311.9,483.5z"/>
		<path class="st3" d="M1222.6,531c-0.2,2.3-0.4,4.7-0.6,7c-0.2,4.2-0.1,8.3,0,12.5c0.2,8.8,0.4,17.5,0.7,26.3
			c0.1,4.3,0.3,8.6,0.5,12.9c0.1,2.9,4.6,2.9,4.5,0c-0.4-8.2-0.6-16.4-0.8-24.6c-0.2-8.6-0.8-17.2-0.4-25.8c0.1-2.8,0.4-5.5,0.6-8.3
			c0-1.2-1-2.2-2.2-2.2C1223.6,528.8,1222.6,529.8,1222.6,531L1222.6,531z"/>
		<path class="st3" d="M1326.5,529.1c0.8,15.8,1.1,31.7,0.9,47.5c-0.1,4.7-0.2,9.4-0.3,14c-0.1,2.9,4.4,2.9,4.5,0
			c0.6-16.1,0.6-32.1,0-48.2c-0.1-4.5-0.3-8.9-0.5-13.4C1330.8,526.2,1326.3,526.2,1326.5,529.1L1326.5,529.1z"/>
		<path class="st3" d="M1313.3,592.2c0-16.1-0.1-32.1-0.1-48.2c0-15.3,0.1-30.5,0.5-45.8c0.2-5.6,0.4-11.2,0.9-16.7
			c0-1.2-1-2.2-2.2-2.2c-1.2,0-2.2,1-2.2,2.2c-1.1,11.7-1.2,23.6-1.3,35.4c-0.2,16.2-0.2,32.4-0.1,48.7c0,8.9,0,17.8,0,26.7
			C1308.8,595.1,1313.3,595.1,1313.3,592.2L1313.3,592.2z"/>
		<path class="st3" d="M1296.7,466.5c0.5,3,1.2,6.3,3,8.9c1.4,1.9,3.2,3.6,5.3,4.8c4.7,3,10,4.9,15.2,7c1.2,0.3,2.4-0.4,2.8-1.6
			c0.3-1.2-0.4-2.4-1.6-2.8c-4.6-1.9-9.3-3.7-13.6-6.2c-0.9-0.5-1.7-1.1-2.4-1.7c-0.4-0.3-0.7-0.6-1.1-1c-0.2-0.2-0.5-0.5-0.7-0.7
			c-1.6-2.3-2.1-5.2-2.6-7.9c-0.3-1.2-1.6-1.9-2.8-1.6C1297.1,464.1,1296.4,465.3,1296.7,466.5L1296.7,466.5z"/>
		<path class="st3" d="M1244.9,483.8c4.1-1.2,8-2.7,11.9-4.4c1.7-0.8,3.8-1.9,4.5-3.7c0.3-1.1,0.5-2.2,0.6-3.3
			c0.2-1.2,0.4-2.5,0.7-3.7c0.3-1.2-0.4-2.4-1.6-2.8c-1.2-0.3-2.4,0.4-2.8,1.6c-0.2,1.1-0.4,2.1-0.6,3.2c-0.2,1.1-0.4,2.1-0.6,3.2
			c0,0.1-0.1,0.2,0,0.2c0.4-0.3,0.4-0.4,0.2-0.2c-0.1,0.1-0.2,0.1-0.3,0.2c-0.3,0.2-0.6,0.4-0.9,0.6c-0.6,0.4-1.3,0.7-1.9,1
			c-0.3,0.2-0.7,0.3-1,0.5c-0.2,0.1,0.1,0-0.2,0.1c-0.2,0.1-0.4,0.2-0.6,0.2c-0.9,0.3-1.7,0.7-2.6,1c-2,0.7-3.9,1.3-5.9,2
			c-1.2,0.4-1.9,1.6-1.6,2.8C1242.5,483.4,1243.7,484.1,1244.9,483.8L1244.9,483.8z"/>
		<path class="st9" d="M1232.6,378.3c5.9-12.4,16.9-21.8,30.1-25.7c4.7-1.4,9.6-2,14.6-1.7c7.3,0.2,13.7,1.2,19.4,3.4
			c3.1,1.2,6,2.8,8.8,4.6l0.4,0.2l7.3,6.4c3.6,3.4,6.5,7.5,8.6,12c1.5,3.1,2.7,6.4,3.4,9.8c1.4,6.7,3.1,19.9-0.1,28
			c-0.8-0.3-1.6-0.5-2.5-0.5c-1,0-2.1,0.2-3,0.6c-1.4-0.5-3.7-1.3-3.7-1.3c-5.6-1.7-12.7-11.3-15-15.7c-1.6-3.1-3.6-9.4-5-14.5
			c-7.6,10.5-18.4,18.3-30.8,22.2l-9-0.6c-5.7,4.4-11.6,8.5-17.8,12.3c-1.2-1.8-3.3-2.9-5.4-2.7c-0.1,0-0.3,0-0.4,0
			c-1.3-2.4-2.2-4.9-2.7-7.6c-1.1-4.5-1.2-14.2-0.1-19.9C1230.2,384.3,1231.2,381.2,1232.6,378.3z"/>
		<path class="st3" d="M1319.5,418.1c1.1-0.9,2.5-1.2,3.9-0.9c0.6,0.1,1.1,0.3,1.6,0.7c-0.2-0.1,0.3,0.3,0.3,0.3
			c0.1,0.1,0.2,0.2,0.3,0.3c-0.1-0.2-0.1-0.2,0,0c1.4,2.1,1.5,5.1,1.3,7.5c-0.3,2.5-1,5-2.2,7.2c-1.5,2.8-3.8,5.7-7.2,5.2
			c-1.2,0-2.2,1-2.2,2.2c0,1.2,1,2.2,2.2,2.2c7.1,0.9,11.5-6.9,13.2-12.7c1.5-5.1,1.5-12.9-3.3-16.2c-3.4-2.2-7.9-1.8-10.9,0.9
			C1314.1,416.8,1317.3,420,1319.5,418.1L1319.5,418.1z"/>
		<path class="st3" d="M1315.4,437c-0.7,2.9-1.6,5.6-2.7,8.3c0,0,0.2-0.4,0,0c-0.1,0.2-0.2,0.4-0.3,0.6c-0.2,0.4-0.4,0.8-0.6,1.2
			c-0.5,0.9-1,1.8-1.6,2.7c-2.8,4.9-6.5,9.2-10.8,12.9c-2.3,2-5,3.4-7.9,4.1c-2.8,0.7-1.6,5,1.2,4.3c6.2-1.4,11.3-6,15.3-10.6
			c3.4-3.9,6.3-8.2,8.5-12.9c0.1-0.3,0.3-0.7,0.4-1c0-0.1,0.3-0.6,0.1-0.3c-0.1,0.3,0,0,0-0.1c0.1-0.3,0.3-0.7,0.4-1
			c0.1-0.4,0.3-0.7,0.4-1.1c0.8-2,1.4-4,1.8-6.1c0.3-1.2-0.4-2.4-1.6-2.8C1317,435.1,1315.7,435.8,1315.4,437L1315.4,437z"/>
		<path class="st3" d="M1235.4,438.2c1.4,6,3.8,11.7,7.2,16.8c3.7,5.5,8.4,10.6,14.2,13.8c3,1.7,6.3,2.8,9.7,3.3
			c1.2,0.3,2.4-0.4,2.8-1.6c0.3-1.2-0.4-2.4-1.6-2.8c-7.4-1.1-13.3-5.4-18.1-10.9c-4.9-5.7-8.3-12.5-9.9-19.9
			C1239.1,434.2,1234.8,435.4,1235.4,438.2L1235.4,438.2z"/>
		<path class="st3" d="M1268.6,450.7c2.5,1.3,5.2,1.9,8,1.8c2.9,0.1,5.8-0.7,8.1-2.4c0.9-0.9,0.9-2.3,0-3.2c-0.9-0.8-2.3-0.8-3.2,0
			c0.7-0.5,0.2-0.2,0,0c-0.2,0.1-0.3,0.2-0.5,0.3c-0.1,0-0.2,0.1-0.3,0.1c-0.2,0.1-0.4,0.1,0.1,0c-0.2,0.1-0.5,0.2-0.7,0.2
			c-0.6,0.2-1.2,0.3-1.9,0.4c0.3-0.1,0.1,0-0.1,0c-0.2,0-0.4,0-0.6,0c-0.4,0-0.9,0-1.3,0c-0.4,0-0.8,0-1.2,0c-0.2,0-0.4,0-0.6,0
			c-0.1,0-0.7-0.1-0.2,0c-0.6-0.1-1.2-0.2-1.8-0.4c-0.2-0.1-0.5-0.2-0.7-0.2c-0.1,0-0.2-0.1-0.2-0.1c-0.4-0.2,0.5,0.2,0.1,0
			c-0.3-0.1-0.6-0.3-0.9-0.4c-1.1-0.6-2.4-0.3-3.1,0.8C1267.2,448.7,1267.5,450.1,1268.6,450.7L1268.6,450.7z"/>
		<path class="st3" d="M1275.4,431.9c0.4,1.3,0.7,2.6,0.9,4l-0.1-0.6c0,0.2,0,0.4,0,0.6l0.1-0.6c0,0.1,0,0.2-0.1,0.2l0.2-0.5
			c0,0.1-0.1,0.1-0.1,0.2l0.4-0.5c0,0-0.1,0.1-0.1,0.1l0.5-0.4c-0.1,0.1-0.2,0.1-0.3,0.2l0.5-0.2c-0.2,0.1-0.3,0.1-0.5,0.2l0.6-0.1
			c-0.2,0-0.3,0-0.5,0l0.6,0.1c-0.4-0.1-0.8-0.1-1.2-0.2c-0.6,0-1.2,0.2-1.6,0.7c-0.9,0.9-0.9,2.3,0,3.2c0,0,0,0,0,0l0.5,0.4
			c0.3,0.2,0.7,0.3,1.1,0.3l0,0l-0.6-0.1c0.4,0.1,0.9,0.2,1.4,0.2c0.7,0,1.4-0.2,2-0.5c0.8-0.4,1.3-1.1,1.5-1.9c0.1-0.7,0.1-1.4,0-2
			c-0.2-1.3-0.5-2.5-0.8-3.8c-0.2-0.6-0.5-1-1-1.3c-1.1-0.6-2.4-0.3-3.1,0.8C1275.3,430.7,1275.2,431.3,1275.4,431.9L1275.4,431.9z"
			/>
		<path class="st3" d="M1254.4,420.6c-0.7,2.2-0.2,7.2,3.9,7.6c5.4,0,5.7-6.1,3.9-8.9C1260.7,416.9,1256.2,416,1254.4,420.6z"/>
		<path class="st3" d="M1297.9,420.5c0.7,2.2,0.2,7.2-3.9,7.6c-5.4,0-5.7-6.1-3.9-8.9C1291.6,416.9,1296,415.9,1297.9,420.5z"/>
		<path class="st3" d="M1306.5,356.8c-4-2.6-8.3-4.6-12.8-6c-4.6-1.3-9.4-2-14.1-2.2c-4.2-0.3-8.4-0.1-12.5,0.6
			c-3.9,0.7-7.7,1.9-11.3,3.5c-14.1,6.2-25.9,19.6-28.5,35c-0.7,4.4-0.9,9-0.6,13.4c0.2,4.7,1.2,9.4,3.1,13.7c0.6,1.1,2,1.4,3.1,0.8
			c1-0.6,1.4-2,0.8-3.1c-1.4-3.3-2.3-6.9-2.5-10.5c-0.3-3.8-0.2-7.7,0.2-11.5c0.9-7,3.6-13.6,7.9-19.2c8.5-11.5,22.6-18.9,37-18.5
			c5,0.1,9.9,0.6,14.7,1.8c4.8,1.2,9.3,3.2,13.4,5.9C1306.7,362.3,1308.9,358.4,1306.5,356.8L1306.5,356.8z"/>
		<path class="st3" d="M1238.9,415.1c-2.8-2.5-6.8-3-10.1-1.4c-2.3,1.3-3.9,3.5-4.4,6.1c-1.3,6.1,0,12.5,3.5,17.6
			c2.5,3.6,6.1,6.2,10.6,5.6c1.2-0.3,1.9-1.6,1.6-2.8c-0.4-1.2-1.6-1.9-2.8-1.6c-3,0.4-5.4-3-6.6-5.3c-1.3-2.3-2-4.8-2.3-7.4
			c-0.2-2.4-0.2-5.4,1.3-7.4c0.1-0.1,0.1-0.1-0.1,0.1c0.1-0.1,0.2-0.2,0.3-0.3c0,0,0.5-0.4,0.3-0.3c0.5-0.4,1-0.6,1.6-0.7
			c1.4-0.3,2.8,0,3.9,0.9C1237.8,420.2,1241,417,1238.9,415.1L1238.9,415.1z"/>
		<path class="st3" d="M1293.7,384.8c1.8,6.5,3.7,13,7.5,18.6c1.9,2.8,4,5.3,6.3,7.7c2.2,2.2,4.7,4.2,7.6,5.2
			c2.8,0.9,3.9-3.5,1.2-4.3c-1.1-0.4-2.2-1-3.1-1.7c-1.1-0.8-2.1-1.7-3-2.7c-2-2.1-3.9-4.4-5.5-6.8c-3.5-5.1-5.1-11.1-6.7-17
			C1297.2,380.8,1292.9,382,1293.7,384.8L1293.7,384.8z"/>
		<path class="st3" d="M1266.6,392.6c-7.8,8.8-17.7,15.7-27.6,22c-2.4,1.5-0.2,5.4,2.3,3.9c5.2-3.3,10.3-6.8,15.1-10.5
			c4.8-3.6,9.3-7.7,13.4-12.1C1271.7,393.6,1268.5,390.4,1266.6,392.6L1266.6,392.6z"/>
		<path class="st3" d="M1293.9,382.6c-7.4,10-17.7,17.4-29.5,21.3c-2.7,0.9-1.6,5.2,1.2,4.3c12.9-4.2,24.2-12.4,32.2-23.3
			c0.6-1.1,0.3-2.4-0.8-3.1C1295.9,381.2,1294.5,381.6,1293.9,382.6L1293.9,382.6z"/>
		<path class="st3" d="M1311.4,367c5.6,5,9.4,12.5,11.1,19.7c1.4,5.8,2,11.8,1.9,17.8c0,3.4-0.6,6.8-1.7,10.1
			c-0.3,1.2,0.4,2.4,1.6,2.8c1.2,0.3,2.4-0.4,2.8-1.6c2.4-6.3,2.2-13.6,1.5-20.1c-0.8-7.3-2.3-14.3-5.7-20.8c-2-4.1-4.8-7.9-8.2-11
			C1312.5,362,1309.3,365.1,1311.4,367L1311.4,367z"/>
		<path class="st3" d="M1311.3,486.4c-5.2,1.3-10.5,2.5-15.8,3.4c-4.5,0.7-9,1-13.5,1.1c-8.4,0.1-16.8,0.1-24.7-2
			c-2.6-0.7-5.2-1.6-7.8-2.5c-2.7-0.9-3.9,3.4-1.2,4.3c2.4,0.8,4.7,1.6,7.1,2.3c3.2,0.8,6.4,1.4,9.6,1.7c9.9,1.1,19.9,1,29.7-0.3
			c6-0.9,11.9-2.1,17.8-3.7C1315.2,490,1314.1,485.7,1311.3,486.4L1311.3,486.4z"/>
		<path class="st3" d="M1251.1,592.1c0.1-16,0.1-32,0.1-48c0-15.4,0-30.8-0.1-46.2c0-6.2,0-12.5,0-18.7c0-2.9-4.5-2.9-4.5,0
			c0,12.5,0.1,25,0.1,37.5c0,16.4,0,32.7,0,49.1c0,8.7-0.1,17.5-0.1,26.2C1246.6,595,1251.1,595,1251.1,592.1L1251.1,592.1z"/>
		<path class="st2" d="M1322.1,438.7c-3.1-0.1-5.7,2.4-5.8,5.6c0,0.1,0,0.1,0,0.2c0,3.6,2.2,5.9,5.8,5.9c3.6,0,5.8-2.3,5.8-5.9
			c0-3.1-2.5-5.7-5.6-5.8C1322.2,438.7,1322.2,438.7,1322.1,438.7z"/>
		<path class="st2" d="M1233.5,438.7c-3.1-0.1-5.7,2.4-5.8,5.6c0,0.1,0,0.1,0,0.2c0,3.6,2.2,5.9,5.8,5.9c3.6,0,5.8-2.3,5.8-5.9
			c0-3.1-2.5-5.7-5.6-5.8C1233.6,438.7,1233.6,438.7,1233.5,438.7z"/>
		<path class="st3" d="M1322.1,436.4c-3.6,0-6.7,2.3-7.7,5.8c-0.9,3.2,0.1,6.6,2.6,8.7c2.7,1.9,6.3,2.2,9.3,0.6
			c3.9-2.5,5-7.6,2.5-11.5c-0.3-0.5-0.8-1-1.2-1.5C1326.1,437.2,1324.1,436.4,1322.1,436.4c-1.2,0-2.2,1-2.2,2.2s1,2.2,2.2,2.2
			c0.2,0,0.3,0,0.5,0c0.6,0-0.5-0.1,0.1,0c0.3,0.1,0.5,0.1,0.8,0.2l0.1,0.1c0.2,0.1,0.2,0.1-0.1-0.1c0.1,0,0.2,0.1,0.3,0.1
			c0.1,0.1,0.3,0.1,0.4,0.2c0.1,0.1,0.2,0.1,0.2,0.2c0.2,0.1,0.2,0.1-0.1-0.1c0.1,0,0.5,0.4,0.5,0.5l0.1,0.1c0.1,0.1,0.1,0.1,0,0
			l-0.1-0.1c0.1,0.1,0.1,0.2,0.2,0.2c0.1,0.2,0.2,0.5,0.4,0.7c0.2,0.2-0.2-0.5,0-0.1c0.1,0.2,0.1,0.4,0.2,0.6c0,0.1,0,0.2,0.1,0.3
			l0,0.1c0,0.2,0,0.2,0-0.1c0.1,0,0,0.7,0,0.8c0,0.2,0,0.3,0,0.5l0,0.2c0,0.3,0,0.2,0-0.1c0,0-0.2,0.8-0.2,0.9
			c0,0.1-0.1,0.3-0.1,0.4c-0.1,0.3-0.1,0,0.1-0.2c-0.1,0.1-0.3,0.5-0.4,0.7c-0.1,0.1-0.1,0.1-0.2,0.2c0.1-0.4,0.2-0.3,0-0.1
			c-0.1,0.1-0.1,0.2-0.2,0.2c0,0-0.1,0.1-0.1,0.1c-0.2,0.1-0.1,0.1,0.1-0.1c-0.2,0.1-0.4,0.2-0.6,0.4c-0.1,0-0.2,0.1-0.4,0.2
			l0.3-0.1c-0.1,0-0.2,0.1-0.3,0.1c-0.2,0.1-0.5,0.1-0.7,0.2c-0.2,0-0.6,0,0,0c-0.2,0-0.3,0-0.5,0c-0.3,0-0.6,0-1,0
			c-0.1,0-0.2,0-0.3,0c-0.5,0,0.5,0.1,0,0c-0.2-0.1-0.5-0.1-0.7-0.2c-0.1-0.1-0.3-0.1-0.4-0.1c0.3,0.1,0.4,0.2,0.2,0.1
			c-0.1,0-0.1-0.1-0.2-0.1c-0.2-0.1-0.4-0.3-0.6-0.4c0.3,0.1,0.3,0.3,0.1,0.1c-0.1-0.1-0.2-0.1-0.2-0.2c-0.1-0.1-0.2-0.2-0.3-0.3
			c-0.3-0.3,0.1,0.1,0.1,0.1c0-0.2-0.4-0.6-0.5-0.8c-0.1-0.3,0.1,0,0.1,0.2c0-0.1-0.1-0.3-0.1-0.4c-0.1-0.2-0.1-0.5-0.2-0.7
			c-0.1-0.5,0,0.5,0,0c0-0.2,0-0.3,0-0.5c0-0.3,0-0.6,0-0.9c0,0-0.1,0.5,0,0.1c0-0.2,0.1-0.3,0.1-0.5c0-0.1,0.1-0.3,0.1-0.4
			c0.2-0.5-0.2,0.4,0,0c0.2-0.3,0.3-0.5,0.5-0.8c0.2-0.3-0.4,0.4,0,0.1c0.1-0.1,0.3-0.3,0.4-0.4c0.1-0.1,0.1-0.1,0.2-0.2
			c-0.3,0.2-0.3,0.2-0.1,0.1c0.1-0.1,0.2-0.1,0.2-0.2c0.1-0.1,0.2-0.1,0.3-0.2c0.1,0,0.1-0.1,0.2-0.1c0.2-0.1,0.2-0.1-0.1,0
			c0.1-0.2,0.7-0.2,0.9-0.3l0.2,0c0.2,0,0.2,0-0.1,0c0.2-0.1,0.4-0.1,0.7,0c1.2,0,2.2-1,2.2-2.2S1323.4,436.4,1322.1,436.4
			L1322.1,436.4z"/>
		<path class="st3" d="M1233.5,436.4c-3.6,0-6.7,2.3-7.7,5.8c-0.9,3.2,0.1,6.6,2.6,8.7c2.7,1.9,6.3,2.2,9.3,0.6
			c3.9-2.5,5-7.6,2.5-11.5c-0.3-0.5-0.8-1-1.2-1.5C1237.5,437.2,1235.5,436.4,1233.5,436.4c-1.2,0-2.2,1-2.2,2.2s1,2.2,2.2,2.2l0,0
			c0.2,0,0.3,0,0.5,0c0.6,0-0.5-0.1,0.1,0c0.3,0.1,0.5,0.1,0.8,0.2l0.1,0.1c0.2,0.1,0.2,0.1-0.1-0.1c0.1,0,0.2,0.1,0.3,0.1
			c0.1,0.1,0.3,0.1,0.4,0.2c0.1,0.1,0.2,0.1,0.2,0.2c0.2,0.1,0.2,0.1-0.1-0.1c0.1,0,0.5,0.4,0.5,0.5l0.1,0.1c0.1,0.1,0.1,0.1,0,0
			l-0.1-0.1c0.1,0.1,0.1,0.2,0.2,0.2c0.1,0.2,0.2,0.5,0.4,0.7c0.2,0.2-0.2-0.5,0-0.1c0.1,0.2,0.1,0.4,0.2,0.6c0,0.1,0,0.2,0.1,0.3
			l0,0.1c0,0.2,0,0.2,0-0.1c0.1,0,0,0.7,0,0.8c0,0.2,0,0.3,0,0.5l0,0.2c0,0.3,0,0.2,0-0.1c0,0-0.2,0.8-0.2,0.9
			c0,0.1-0.1,0.3-0.1,0.4c-0.1,0.3-0.1,0,0.1-0.2c-0.1,0.1-0.3,0.5-0.4,0.7c-0.1,0.1-0.1,0.1-0.2,0.2c0.1-0.4,0.2-0.3,0-0.1
			c-0.1,0.1-0.1,0.2-0.2,0.2c0,0-0.1,0.1-0.1,0.1c-0.2,0.1-0.1,0.1,0.1-0.1c-0.2,0.1-0.4,0.2-0.6,0.4c-0.1,0-0.2,0.1-0.4,0.2
			l0.3-0.1c-0.1,0-0.2,0.1-0.3,0.1c-0.2,0.1-0.5,0.1-0.7,0.2c-0.2,0-0.6,0,0,0c-0.2,0-0.3,0-0.5,0c-0.3,0-0.6,0-1,0
			c-0.1,0-0.2,0-0.3,0c-0.5,0,0.5,0.1,0,0c-0.2-0.1-0.5-0.1-0.7-0.2c-0.1-0.1-0.3-0.1-0.4-0.1c0.3,0.1,0.4,0.2,0.2,0.1
			c-0.1,0-0.1-0.1-0.2-0.1c-0.2-0.1-0.4-0.3-0.6-0.4c0.3,0.1,0.3,0.3,0.1,0.1c-0.1-0.1-0.2-0.1-0.2-0.2c-0.1-0.1-0.2-0.2-0.3-0.3
			c-0.3-0.3,0.1,0.1,0.1,0.1c0-0.2-0.4-0.6-0.5-0.8c-0.1-0.3,0.1,0,0.1,0.2c0-0.1-0.1-0.3-0.1-0.4c-0.1-0.2-0.1-0.5-0.2-0.7
			c-0.1-0.5,0,0.5,0,0c0-0.2,0-0.3,0-0.5c0-0.3,0-0.6,0-0.9c0,0-0.1,0.5,0,0.1c0-0.2,0.1-0.3,0.1-0.5c0-0.1,0.1-0.3,0.1-0.4
			c0.2-0.5-0.2,0.4,0,0c0.2-0.3,0.3-0.5,0.5-0.8c0.2-0.3-0.4,0.4,0,0.1c0.1-0.1,0.3-0.3,0.4-0.4c0.1-0.1,0.1-0.1,0.2-0.2
			c-0.3,0.2-0.3,0.2-0.1,0.1c0.1-0.1,0.2-0.1,0.2-0.2c0.1-0.1,0.2-0.1,0.3-0.2c0.1,0,0.1-0.1,0.2-0.1c0.2-0.1,0.2-0.1-0.1,0
			c0.1-0.2,0.7-0.2,0.9-0.3l0.2,0c0.2,0,0.2,0-0.1,0c0.2-0.1,0.4-0.1,0.7,0c1.2,0,2.2-1,2.2-2.2S1234.8,436.4,1233.5,436.4
			L1233.5,436.4z"/>
	</g>
	<g>
		<path d="M1093,169.4l-4.4,0.1c-0.2,0-0.3,0-0.4-0.1s-0.1-0.2-0.1-0.3v-2.1c0-0.2,0-0.3,0.1-0.4c0,0,0.2-0.1,0.3-0.1l4.4,0.1h2.1
			v-0.5c0-0.9-0.1-1.7-0.2-2.5c1.6,0.1,2.8,0.1,3.6,0.2c0.3,0,0.5,0.1,0.5,0.3c0,0.1-0.1,0.3-0.2,0.6c-0.1,0.2-0.2,0.7-0.2,1.4v0.5
			h1.9l4.5-0.1c0.2,0,0.3,0,0.4,0.1c0,0,0.1,0.2,0.1,0.4v2.1c0,0.2,0,0.3-0.1,0.3c0,0-0.2,0.1-0.4,0.1l-4.5-0.1H1093z M1100.8,193.3
			c0.6,0,0.9-0.3,0.9-0.8v-7.8h-4.3c-0.3,1.3-0.6,2.7-0.9,4c0.9-0.2,1.5-0.3,1.8-0.4c-0.4-1-0.6-1.5-0.6-1.5
			c-0.1-0.1-0.1-0.2-0.1-0.3c0-0.1,0.1-0.2,0.3-0.3l1.2-0.5c0.2-0.1,0.3-0.1,0.3-0.1c0.1,0,0.1,0.1,0.2,0.3c0.8,1.6,1.4,3.1,1.9,4.6
			c0,0.1,0,0.2,0,0.2c0,0.1-0.1,0.3-0.4,0.4l-1.1,0.5c-0.2,0.1-0.3,0.1-0.4,0.1c-0.1,0-0.2-0.1-0.2-0.4l-0.3-1
			c-1.3,0.4-2.6,0.7-3.8,1c-0.6,0.1-1,0.3-1.2,0.4c-0.2,0.1-0.3,0.2-0.4,0.2s-0.2-0.2-0.4-0.5c-0.2-0.5-0.5-1.3-0.8-2.5
			c0.5,0,0.9,0,1.2,0c0.4-1.4,0.7-2.8,1-4.4h-2.4v7.8l0.1,3.5c0,0.2-0.1,0.4-0.4,0.4h-2.5c-0.3,0-0.4-0.1-0.4-0.4l0.1-3.5V186
			l-0.1-3.6c0-0.2,0-0.3,0.1-0.3s0.2-0.1,0.3-0.1l4.3,0.1h1.3c0.1-0.9,0.2-1.5,0.3-2h-1l-4,0.1c-0.2,0-0.3,0-0.3-0.1
			s-0.1-0.2-0.1-0.3l0.1-3.1v-3c0-1.3-0.1-2.3-0.2-3.2c0.9,0,1.9,0.1,3.1,0.2c0.3,0,0.4,0.2,0.4,0.3c0,0-0.1,0.2-0.2,0.5
			c-0.1,0.2-0.2,0.9-0.2,2.2v4.1h8.1v-4.2c0-1.4-0.1-2.4-0.2-3.1c1,0,2,0.1,2.9,0.2c0.3,0,0.4,0.2,0.4,0.3c0,0.1-0.1,0.3-0.2,0.5
			c-0.1,0.2-0.2,0.7-0.2,1.6v1.9c2-2.6,3.5-5.5,4.5-8.8c0.3-0.9,0.4-1.8,0.5-2.6c1.1,0.2,2.1,0.4,3.1,0.7c0.4,0.2,0.6,0.3,0.6,0.5
			c0,0.2-0.1,0.4-0.4,0.7c-0.1,0.1-0.3,0.6-0.7,1.5c-0.4,0.9-0.8,1.9-1.2,2.7h3.4c0.3-0.7,0.7-1.9,1.1-3.3c0.2-0.9,0.4-1.6,0.4-2.3
			c1.2,0.2,2.2,0.5,3,0.8c0.4,0.2,0.6,0.3,0.6,0.5c0,0.2-0.1,0.4-0.4,0.7c-0.2,0.2-0.4,0.7-0.6,1.4c-0.4,1.1-0.6,1.9-0.9,2.4h0.5
			l3.4-0.1c0.2,0,0.4,0.1,0.4,0.4v2.5c0,0.3-0.1,0.4-0.4,0.4l-3.4-0.1h-0.9v3.9l3.4-0.1c0.2,0,0.3,0,0.4,0.1c0,0,0.1,0.2,0.1,0.3
			v2.5c0,0.2,0,0.3-0.1,0.4c-0.1,0-0.2,0.1-0.4,0.1c0,0-0.4,0-1,0c-0.7,0-1.5,0-2.4-0.1v4l3.4-0.1c0.2,0,0.3,0,0.4,0.1
			c0,0,0.1,0.2,0.1,0.3v2.5c0,0.2,0,0.3-0.1,0.3s-0.2,0.1-0.4,0.1c0,0-0.4,0-1,0c-0.7,0-1.5,0-2.4-0.1v4.8h0.1l4.5-0.1
			c0.2,0,0.3,0,0.4,0.1c0,0,0.1,0.2,0.1,0.4v2.5c0,0.2,0,0.3-0.1,0.3s-0.2,0.1-0.3,0.1l-4.5-0.1h-6.4v1.4c0,0.2,0,0.3-0.1,0.3
			s-0.2,0.1-0.3,0.1h-2.6c-0.2,0-0.3,0-0.4-0.1c0,0-0.1-0.1-0.1-0.3l0.1-4.3v-11.4c0-0.8,0-2.4,0.1-4.6c-0.1,0.2-0.3,0.5-0.7,1.1
			c-0.3,0.5-0.6,0.8-0.8,0.8c-0.2,0-0.3-0.2-0.5-0.5c-0.4-0.6-0.7-1-1.1-1.4v0.5l0.1,3.1c0,0.2,0,0.3-0.1,0.4s-0.2,0.1-0.3,0.1
			l-3.9-0.1h-1.1c-0.1,0.5-0.2,1.2-0.3,2h1.9l4.3-0.1c0.2,0,0.3,0,0.4,0.1c0,0,0.1,0.2,0.1,0.3l-0.1,3.9v2.8l0.1,4.1
			c0,1.2-0.3,2-1,2.4c-0.7,0.4-1.8,0.5-3.4,0.5c-0.6,0-0.9,0-1-0.1c-0.1-0.1-0.2-0.3-0.2-0.7c-0.1-0.8-0.3-1.5-0.7-2.2
			C1099.1,193.2,1099.9,193.3,1100.8,193.3z M1095.2,170.8c0.3,0.2,0.9,0.6,1.8,1.3l0.5-0.6c0.5-0.6,0.8-1.1,1-1.6
			c0.4,0.2,1,0.6,1.8,1.2c0.2,0.1,0.3,0.3,0.3,0.4c0,0.2-0.1,0.3-0.2,0.3c-0.2,0.1-0.4,0.3-0.6,0.5c-0.1,0.1-0.3,0.3-0.5,0.6
			c-0.2,0.3-0.4,0.5-0.5,0.6c0.5,0.4,0.9,0.8,1.4,1.3c0.1,0.1,0.2,0.2,0.2,0.3c0,0-0.1,0.2-0.2,0.4l-0.8,1.1
			c-0.2,0.2-0.3,0.3-0.4,0.3c-0.1,0-0.2-0.1-0.3-0.2c-0.3-0.4-0.8-0.9-1.4-1.5c-0.6,0.6-1.2,1.1-1.8,1.6c-0.3,0.3-0.6,0.4-0.7,0.4
			c-0.2,0-0.3-0.1-0.5-0.4c-0.4-0.6-0.9-1-1.3-1.2c1-0.7,1.9-1.3,2.5-2c-0.3-0.2-0.9-0.7-1.8-1.3c-0.2-0.1-0.2-0.2-0.2-0.2
			s0.1-0.2,0.3-0.4l0.8-0.9c0.1-0.2,0.3-0.2,0.3-0.2C1094.9,170.7,1095,170.7,1095.2,170.8z M1110.1,176.7h3.1v-3.9h-3.1V176.7z
			 M1110.1,183.8h3.1v-4h-3.1V183.8z M1110.1,191.7h3.1v-4.8h-3.1V191.7z"/>
		<path d="M1132.3,164.6c1.9,0.2,3.3,0.4,4.1,0.7c0.5,0.1,0.8,0.4,0.8,0.7c0,0.2-0.1,0.4-0.2,0.7c-0.2,0.3-0.3,0.9-0.3,1.8
			c0,0.9-0.1,2.1-0.2,3.6c0.6,0.3,1,0.5,1.4,0.8c0.2,0.2,0.3,0.3,0.3,0.5c0,0.1-0.1,0.2-0.2,0.4c-0.7,1.1-1.3,2.3-1.9,3.4v0.2
			c1-1.1,2.1-2.3,3.3-3.5c2.5-2.4,4.6-3.5,6.5-3.5c1.4,0,2.5,0.5,3.3,1.4c0.7,0.8,1,2,1,3.4c0,1.8-0.1,4-0.3,6.5
			c0,0.9-0.1,2.3-0.2,4c-0.1,0.9-0.1,1.6-0.1,2c0,0.9,0.1,1.5,0.4,1.8c0.2,0.2,0.5,0.3,1,0.3c0.8,0,1.6-0.4,2.7-1.3
			c0.7-0.6,1.5-1.6,2.2-3c0.4,1.2,0.9,2.1,1.3,2.7c0.3,0.3,0.4,0.6,0.4,0.8c0,0.2-0.1,0.4-0.2,0.6c-2,2.8-4.3,4.1-6.9,4.1
			c-3.1,0-4.6-1.8-4.6-5.5c0-0.7,0.1-2.8,0.3-6c0.2-2.9,0.3-4.9,0.3-5.9c0-1.6-0.4-2.4-1.1-2.4c-0.9,0-2.3,0.8-4,2.3
			c-2,1.9-3.6,3.7-5,5.3c0,0.9,0,3.4,0.1,7.5c0,2.6,0.1,4.7,0.1,6.1c0,0.3-0.2,0.5-0.5,0.5c-0.6,0.1-1.6,0.1-2.8,0.1
			c-0.3,0-0.5-0.2-0.5-0.6c0-4.7,0-8.1,0.1-10.3c-1.2,1.8-2.6,4-4.2,6.5c-0.1,0.2-0.3,0.4-0.4,0.4c-0.1,0-0.2-0.1-0.4-0.2
			c-0.9-0.5-1.6-1.2-2.2-2c-0.1-0.1-0.2-0.3-0.2-0.4c0-0.2,0.1-0.4,0.3-0.6c2.4-3.1,4.8-6.2,7.1-9.5c0-1.1,0-1.9,0-2.4
			c-1.7,0.4-3.2,0.9-4.3,1.4c-0.1,0-0.2,0.1-0.3,0.2c-0.3,0.2-0.6,0.3-0.7,0.3c-0.3,0-0.5-0.2-0.7-0.6c-0.4-0.6-0.8-1.7-1.4-3.3
			c0.7,0,1.6-0.1,2.6-0.3c1.9-0.4,3.6-0.9,5.1-1.4v-4.9C1132.6,166.7,1132.5,165.5,1132.3,164.6z"/>
		<path d="M1162.1,170.7c1.3,0,3.2-0.2,5.7-0.6c9.7-1.4,16.9-2.4,21.6-3.1c0.1,0,0.2,0,0.2,0c0.3,0,0.5,0.1,0.5,0.4
			c0.2,1,0.4,2.1,0.4,3.2c0,0.4-0.2,0.5-0.7,0.5c-1.6,0.1-3.1,0.4-4.4,0.8c-3.2,1.1-5.5,2.7-7.2,4.9c-1.3,1.8-2,3.7-2,5.8
			c0,4.6,3.2,7.2,9.6,7.6c0.5,0,0.8,0.2,0.8,0.5c0,1.1-0.1,2.2-0.4,3.1c-0.1,0.5-0.3,0.8-0.7,0.8c-3.8,0-6.9-1-9.5-3.1
			c-2.5-2.1-3.8-4.7-3.8-8c0-2.6,0.7-4.9,2.1-6.9c1.1-1.6,2.7-3.1,4.9-4.5v-0.1c-4.2,0.8-8.3,1.6-12.1,2.4c-1.2,0.3-2,0.5-2.3,0.6
			c-0.4,0.2-0.7,0.3-0.8,0.3c-0.3,0-0.5-0.2-0.7-0.5C1163.1,173.8,1162.6,172.6,1162.1,170.7z"/>
		<path d="M1195.9,187.7c3.6-0.9,6.4-2.1,8.4-3.5h-2.7l-4.5,0.1c-0.2,0-0.4-0.1-0.4-0.4v-2.1c0-0.3,0.1-0.4,0.4-0.4l4.5,0.1h5.8
			c0.4-0.5,0.8-1,1.1-1.6h-2.1l-5,0.1c-0.2,0-0.3,0-0.3-0.1c0,0-0.1-0.2-0.1-0.4l0.1-2.7v-2.9l-0.1-2.7c0-0.2,0-0.3,0.1-0.4
			c0,0,0.2-0.1,0.3-0.1l5,0.1h12.6l4.9-0.1c0.2,0,0.3,0,0.4,0.1c0,0,0.1,0.2,0.1,0.4l-0.1,2.7v2.9l0.1,2.7c0,0.2,0,0.3-0.1,0.4
			c0,0-0.2,0.1-0.3,0.1l-4.9-0.1h-7.5l0.3,0.1c0.4,0.1,0.6,0.3,0.6,0.4c0,0.2-0.1,0.3-0.4,0.5c-0.2,0.1-0.5,0.3-0.7,0.7h12.5
			l4.5-0.1c0.2,0,0.3,0,0.4,0.1c0,0,0.1,0.2,0.1,0.3v2.1c0,0.2,0,0.3-0.1,0.3s-0.2,0.1-0.3,0.1l-4.5-0.1h-3c1.9,1.4,4.9,2.4,8.8,3.1
			c-0.5,0.6-0.9,1.3-1.3,2.2c-0.3,0.6-0.5,0.9-0.8,0.9c-0.1,0-0.3-0.1-0.8-0.2c-1.7-0.5-3.2-1.1-4.5-1.8v2.7l0.1,5
			c0,0.2,0,0.3-0.1,0.4c0,0-0.2,0.1-0.3,0.1h-2.7c-0.2,0-0.3,0-0.3-0.1c0,0-0.1-0.1-0.1-0.3v-0.8h-12.4v0.9c0,0.2,0,0.3-0.1,0.4
			c0,0-0.2,0.1-0.3,0.1h-2.7c-0.2,0-0.3,0-0.3-0.1s-0.1-0.2-0.1-0.3l0.1-5.1v-2.9c-1.5,0.8-2.8,1.4-4,1.9c-0.4,0.2-0.7,0.3-0.8,0.3
			c-0.2,0-0.5-0.3-0.8-0.9C1197,188.8,1196.4,188.2,1195.9,187.7z M1205.5,163.5c1.4,0,2.5,0.1,3.4,0.2c0.3,0,0.5,0.2,0.5,0.3
			c0,0.1-0.1,0.2-0.2,0.5c-0.1,0.2-0.2,0.6-0.2,1.1h7c0-1.1-0.1-1.8-0.2-2.2c1.4,0,2.5,0.1,3.4,0.2c0.3,0,0.5,0.2,0.5,0.3
			c0,0.1-0.1,0.2-0.2,0.5c-0.1,0.2-0.2,0.6-0.2,1.1h4.2l4.5-0.1c0.2,0,0.3,0,0.4,0.1c0,0,0.1,0.2,0.1,0.3v2.2c0,0.2,0,0.3-0.1,0.4
			c0,0-0.1,0.1-0.3,0.1l-4.5-0.1h-4.2c0,0.2,0,0.4,0.1,0.7c0,0.2,0,0.3,0,0.3c0,0.2,0,0.3-0.1,0.4c0,0-0.2,0.1-0.4,0.1h-2.7
			c-0.2,0-0.3,0-0.4-0.1c0,0-0.1-0.2-0.1-0.3l0-1h-7c0,0.2,0,0.4,0.1,0.7c0,0.2,0,0.3,0,0.3c0,0.2,0,0.3-0.1,0.4
			c0,0-0.2,0.1-0.4,0.1h-2.7c-0.2,0-0.3,0-0.4-0.1c0,0-0.1-0.2-0.1-0.3l0-1h-4l-4.5,0.1c-0.2,0-0.3,0-0.4-0.1c0-0.1-0.1-0.2-0.1-0.4
			v-2.2c0-0.2,0-0.3,0.1-0.3s0.2-0.1,0.3-0.1l4.5,0.1h4C1205.6,164.7,1205.6,164,1205.5,163.5z M1220.7,172.9h-15.9v1.4h15.9V172.9z
			 M1220.7,177.8v-1.5h-15.9v1.5H1220.7z M1218.9,187.9h-12.4v1.5h12.4V187.9z M1206.5,193.1h12.4v-1.5h-12.4V193.1z M1207.1,185.7
			h11.3c-0.6-0.5-1.1-1-1.6-1.5h-7.9C1208.2,184.8,1207.6,185.3,1207.1,185.7z"/>
		<path d="M1238.8,172.2c1.9,0.6,3.2,1,3.7,1.3c0.4,0.2,0.6,0.4,0.6,0.7c0,0.2-0.1,0.3-0.2,0.5c-0.3,0.6-0.6,1.2-0.7,1.9
			c-0.4,2.2-0.7,4.3-0.9,6.6c1.9-1.9,3.9-3.3,6-4.3c2-0.9,4-1.4,6-1.4c2.8,0,4.9,0.8,6.4,2.4c1.3,1.4,2,3.1,2,5.3
			c0,3.6-1.8,6.3-5.4,8.1c-2.3,1.2-5.4,2-9.2,2.5c-0.2,0-0.4,0.1-0.6,0.1c-0.4,0-0.7-0.2-0.9-0.5c-0.8-1.4-1.6-2.4-2.4-3.1
			c4.2-0.3,7.5-0.9,9.9-2c2.8-1.2,4.3-3,4.3-5.4c0-1.1-0.4-2.1-1.1-2.7c-0.8-0.7-1.8-1-3.2-1c-1.7,0-3.5,0.6-5.4,1.7
			c-1.7,0.9-3.3,2.2-4.9,3.8c-0.6,0.6-1.1,1.3-1.5,2c-0.1,0.2-0.3,0.3-0.4,0.3c-0.1,0-0.2,0-0.4-0.1c-1-0.3-1.8-0.7-2.4-1
			c-0.3-0.1-0.5-0.4-0.5-0.7c0.2-3.6,0.6-7.5,1.1-11.6C1238.7,173.8,1238.8,172.8,1238.8,172.2z M1241.4,167.2
			c0.9-1.4,1.6-2.3,2.1-2.8c0.2-0.2,0.3-0.2,0.5-0.2c0.1,0,0.1,0,0.2,0c2.6,1,4.9,2.4,7.1,4.3c0.2,0.1,0.2,0.3,0.2,0.4
			c0,0.1-0.1,0.2-0.2,0.4c-0.5,0.9-1.2,1.7-1.8,2.5c-0.2,0.2-0.3,0.3-0.4,0.3c-0.1,0-0.3-0.1-0.4-0.2
			C1246.4,169.9,1244,168.4,1241.4,167.2z"/>
		<path d="M1284.6,170.1c0-0.4,0-0.9,0-1.7c0-0.6,0-1,0-1.3c-0.1-0.9-0.2-1.8-0.4-2.6c1.8,0.1,3.2,0.3,4.2,0.5c0.7,0.1,1,0.3,1,0.7
			c0,0.2-0.1,0.5-0.3,0.8c-0.1,0.2-0.2,0.6-0.3,1c0,0.2,0,0.9-0.1,2.3c3.2-0.1,6.9-0.2,11.1-0.2c0.2,0,0.4,0,0.4,0.1
			s0.1,0.2,0.1,0.4c0,0.5,0,0.9,0,1.4s0,0.9,0,1.4c0,0.3-0.2,0.5-0.5,0.5c0,0-0.1,0-0.1,0c-2.2-0.1-4.5-0.1-6.9-0.1
			c-1.5,0-2.8,0-4,0c0,3,0,5.2,0,6.7c0.4,1,0.5,2.2,0.5,3.6c0,4.9-2.1,8.8-6.4,11.6c-0.7,0.5-1.2,0.7-1.4,0.7
			c-0.3,0-0.6-0.2-1.1-0.5c-0.8-0.6-1.7-1.1-2.7-1.4c2.2-1,3.9-2.2,5.3-3.8c1.1-1.3,1.8-2.7,2.1-4.1c-0.7,1-1.8,1.4-3.4,1.4
			c-1.6,0-2.8-0.6-3.7-1.7c-0.8-1-1.3-2.3-1.3-3.9c0-1.7,0.6-3.1,1.8-4.1c1-0.8,2.2-1.3,3.6-1.3c1.3,0,2.2,0.2,2.7,0.7l0-3.7
			c-5.2,0.3-9.4,0.7-12.5,1.1c-0.3,0-0.6,0.1-1.1,0.3c-0.3,0.1-0.5,0.2-0.6,0.2c-0.3,0-0.5-0.2-0.6-0.5c-0.2-0.6-0.5-1.8-0.9-3.6
			c0.4,0,0.7,0.1,1.1,0.1c0.4,0,1.4-0.1,3.3-0.2C1275.4,170.7,1279.1,170.5,1284.6,170.1z M1282.3,179.4c-0.7,0-1.2,0.2-1.7,0.7
			s-0.7,1-0.7,1.7c0,0.8,0.3,1.5,0.8,1.9c0.4,0.4,0.9,0.5,1.5,0.5c0.8,0,1.4-0.2,1.8-0.7c0.4-0.4,0.6-1,0.6-1.8
			c0-0.8-0.2-1.4-0.7-1.8C1283.5,179.6,1283,179.4,1282.3,179.4z"/>
		<path d="M1081.4,214.3v3.6h-10.9l-0.2,5.5c0,1-0.1,1.9-0.2,2.6c1.1-1.6,2.6-2.4,4.7-2.4c2.4,0,4.4,0.9,5.9,2.8
			c1.3,1.6,1.9,3.7,1.9,6.2c0,3.1-0.9,5.5-2.8,7.3c-1.6,1.5-3.6,2.3-6,2.3c-2.4,0-4.3-0.6-5.7-1.7c-1.3-1-2.2-2.4-2.6-4.3l4.4-1.3
			c0.5,2.5,1.8,3.8,3.9,3.8c1.4,0,2.5-0.6,3.2-1.8c0.7-1.1,1-2.5,1-4.2c0-1.9-0.4-3.3-1.2-4.3c-0.7-0.8-1.6-1.3-2.8-1.3
			c-2,0-3.3,1-3.9,3.1l-3.7-0.5l0.5-15.4H1081.4z"/>
		<path d="M1094.7,213.8c3,0,5.3,1.2,6.7,3.7c1.3,2.3,2,5.8,2,10.4c0,5.3-0.8,9.1-2.5,11.4c-1.4,1.9-3.5,2.9-6.2,2.9
			c-3.1,0-5.3-1.3-6.7-3.8c-1.3-2.3-1.9-5.8-1.9-10.5c0-5.3,0.9-9.1,2.6-11.4C1090,214.8,1092,213.8,1094.7,213.8z M1094.7,217.4
			c-1.5,0-2.6,0.9-3.2,2.6c-0.6,1.6-0.8,4.3-0.8,8c0,4.3,0.4,7.2,1.1,8.7c0.6,1.3,1.6,2,2.9,2c1.6,0,2.7-0.9,3.3-2.7
			c0.5-1.6,0.8-4.3,0.8-8.1c0-4.2-0.4-7.1-1.1-8.6C1097,218,1096.1,217.4,1094.7,217.4z"/>
		<path d="M1127.3,241.8c2.7-1.5,4.7-3.1,6.3-4.8c-0.2-0.5-0.4-0.9-0.5-1.3c-0.8-2.3-1.4-5.3-1.7-9h-14v2.4c0,3.2-0.2,5.9-0.6,7.8
			c-0.6,2.7-1.4,5-2.6,6.8c-0.3,0.4-0.5,0.7-0.6,0.7c-0.2,0-0.4-0.2-0.8-0.6c-0.7-0.9-1.5-1.5-2.2-2c1.2-1.5,2.1-3.4,2.7-5.7
			c0.4-2,0.7-4.5,0.7-7.5l-0.1-4.5c0-0.2,0-0.3,0.1-0.4s0.2-0.1,0.3-0.1l4.9,0.1h12.1l-0.2-2.2h-14l-4.6,0.1c-0.2,0-0.3,0-0.3-0.1
			s-0.1-0.2-0.1-0.3v-2.3c0-0.2,0-0.3,0.1-0.3c0,0,0.1-0.1,0.3-0.1l4.6,0.1h1.2v-2c0-1.5-0.1-2.6-0.2-3.4c1.2,0,2.5,0.1,3.7,0.2
			c0.3,0,0.5,0.1,0.5,0.3c0,0.1-0.1,0.3-0.2,0.6c-0.2,0.3-0.2,1-0.2,2.2v2h4.9v-3.7c0-1.5-0.1-2.7-0.2-3.4c1.4,0,2.6,0.1,3.8,0.2
			c0.3,0,0.5,0.1,0.5,0.3c0,0.2-0.1,0.4-0.2,0.6s-0.2,0.7-0.2,1.3h4.6l4.9-0.1c0.2,0,0.4,0.1,0.4,0.4v2.2c0,0.2,0,0.3-0.1,0.4
			c0,0-0.1,0.1-0.3,0.1l-4.9-0.1h-4.6v1.8h8.1l4.6-0.1c0.2,0,0.3,0,0.4,0.1s0.1,0.2,0.1,0.3v2.3c0,0.2,0,0.3-0.1,0.3
			s-0.2,0.1-0.4,0.1c0,0-0.2,0-0.5,0c-1,0-2,0-3.2-0.1c0.4,0.5,1,1.3,1.5,2.2c0.4,0,0.9,0,1.3-0.1c0.3,0,0.4,0,0.4,0
			c0.2,0,0.3,0,0.4,0.1c0,0,0.1,0.2,0.1,0.3v2.3c0,0.2,0,0.3-0.1,0.3s-0.2,0.1-0.3,0.1l-4.8-0.1h-3.1c0.2,2.7,0.6,5,1.3,7
			c0.6-1.1,1.1-2.3,1.6-3.6c0.4-1,0.6-1.8,0.8-2.5c0.7,0.3,1.6,0.7,2.7,1.2c0.5,0.2,0.7,0.4,0.7,0.7c0,0.2-0.1,0.3-0.3,0.5
			c-0.2,0.2-0.5,0.7-0.8,1.5c-1,2.4-2,4.4-3.1,6c1.1,2.1,2,3.1,2.7,3.1c0.6,0,1.1-1.2,1.4-3.7c0.2,0.3,0.8,0.8,1.8,1.4
			c0.6,0.4,0.9,0.7,0.9,0.9c0,0.1,0,0.4-0.1,0.8c-0.4,1.7-0.9,2.9-1.5,3.5c-0.6,0.6-1.5,0.9-2.6,0.9c-1.5,0-3.1-1.4-4.8-4.3
			c-1.4,1.4-2.8,2.6-4.4,3.7c-0.4,0.3-0.7,0.4-0.8,0.4c-0.2,0-0.4-0.2-0.8-0.7C1128.6,242.8,1128,242.3,1127.3,241.8z M1116.3,240.4
			c1.1-1.5,2-3.3,2.6-5.4c0.2-0.6,0.3-1.2,0.3-1.9c1.1,0.2,2,0.4,2.7,0.7c0.3,0.2,0.5,0.3,0.5,0.5c0,0.2-0.1,0.3-0.3,0.5
			c-0.1,0.2-0.2,0.6-0.4,1.1c-0.7,2.1-1.4,3.7-2.1,4.8c-0.3,0.5-0.6,0.8-0.8,0.8c-0.1,0-0.5-0.1-1-0.4
			C1117.5,240.8,1116.9,240.6,1116.3,240.4z M1126.6,231.5v3.5l0.1,5.4c0,1.5-0.3,2.4-1,3c-0.5,0.4-1.5,0.6-3,0.6
			c-0.2,0-0.3,0-0.4,0c-0.4,0-0.6-0.1-0.7-0.2c-0.1-0.1-0.2-0.3-0.2-0.6c-0.2-1.1-0.5-1.9-0.9-2.5c0.7,0.1,1.3,0.1,1.7,0.1
			c0.5,0,0.8-0.1,0.9-0.2c0.2-0.1,0.2-0.4,0.2-0.8v-8.3h-0.9l-3.5,0.1c-0.2,0-0.4-0.1-0.4-0.4v-2.1c0-0.3,0.1-0.4,0.4-0.4l3.5,0.1
			h4.2l3.5-0.1c0.2,0,0.3,0,0.4,0.1c0,0,0.1,0.2,0.1,0.3v2.1c0,0.2,0,0.3-0.1,0.4s-0.2,0.1-0.4,0.1L1126.6,231.5L1126.6,231.5z
			 M1130,233.5c0.5,0.9,1,2.1,1.6,3.7c0,0.1,0,0.2,0,0.2c0,0.2-0.2,0.3-0.5,0.4l-1.6,0.7c-0.2,0.1-0.3,0.1-0.4,0.1
			c-0.1,0-0.2-0.1-0.3-0.3c-0.4-1.4-0.9-2.7-1.5-3.9c-0.1-0.1-0.1-0.2-0.1-0.3c0-0.1,0.1-0.2,0.4-0.3l1.7-0.6c0.1,0,0.2-0.1,0.3-0.1
			C1129.7,233.1,1129.8,233.2,1130,233.5z M1136.8,222.5c-0.1-0.1-0.1-0.2-0.1-0.3c0-0.1,0.1-0.2,0.4-0.3l1-0.5h-3.4
			c0,0,0,0.2-0.1,0.4c-0.1,0.2-0.1,0.5-0.1,0.8c0,0.1,0,0.5,0.1,1.1h3.1L1136.8,222.5z"/>
		<path d="M1164.3,228.9c0,0.3-0.1,0.7-0.1,1.1c0,0.5,0,1.1,0.1,1.6c0.1,0.4,0.1,0.7,0.1,0.8c0,0.2,0,0.3-0.1,0.4s-0.4,0.3-0.8,0.5
			c-3.9,2.1-8.3,4-13.1,5.8c-0.5,0.2-0.9,0.4-1,0.6c-0.2,0.2-0.3,0.3-0.5,0.3c-0.2,0-0.4-0.2-0.5-0.5c-0.3-0.9-0.7-2.2-1.1-3.9
			c1.1-0.2,2.2-0.5,3.4-0.9l0.7-0.2l-0.2-15.5c0-2.7-0.1-4.5-0.3-5.5c1.6,0,2.9,0.1,4,0.2c0.4,0,0.6,0.2,0.6,0.4
			c0,0.1-0.1,0.4-0.2,0.8c-0.2,0.3-0.2,1.1-0.2,2.5c0,0.4,0,0.9,0,1.5l0.2,14.1C1158.3,231.9,1161.3,230.5,1164.3,228.9z
			 M1156.2,241.2c3.5-1.4,6.3-2.9,8.2-4.4c1.8-1.4,3.3-3.1,4.5-5.1c2-3.2,3.2-7.7,3.5-13.4c0.1-0.9,0.1-1.8,0.1-2.6
			c0-0.9-0.1-1.7-0.2-2.5c1.5,0.1,2.9,0.3,4.1,0.5c0.4,0.1,0.5,0.2,0.5,0.5c0,0.1-0.1,0.4-0.3,0.9c-0.1,0.3-0.3,1.4-0.4,3.3
			c-0.5,6-1.6,10.6-3.4,13.9c2,3,4.5,5.6,7.5,7.8c-0.8,0.9-1.4,1.9-2,3c-0.3,0.5-0.5,0.8-0.6,0.8c-0.1,0-0.4-0.2-0.8-0.5
			c-2.3-2.1-4.4-4.6-6.4-7.5c-1.3,1.8-2.9,3.3-4.7,4.7c-1.7,1.3-3.8,2.5-6.3,3.6c-0.5,0.2-0.8,0.3-0.9,0.3c-0.2,0-0.4-0.3-0.8-0.8
			C1157.6,242.7,1157,241.9,1156.2,241.2z M1162.3,216.3c2,1.9,3.8,4.1,5.4,6.6c0.1,0.1,0.1,0.2,0.1,0.3c0,0.1-0.1,0.2-0.3,0.4
			l-2.3,1.7c-0.2,0.1-0.3,0.2-0.4,0.2c-0.1,0-0.3-0.1-0.4-0.4c-1.6-2.6-3.3-4.8-5.1-6.7c-0.1-0.1-0.2-0.2-0.2-0.3
			c0-0.1,0.1-0.2,0.4-0.4l2.2-1.4c0.2-0.1,0.3-0.2,0.4-0.2S1162.2,216.2,1162.3,216.3z"/>
		<path d="M1189,242.5l-4.6,0.1c-0.2,0-0.3,0-0.4-0.1s-0.1-0.2-0.1-0.3v-3.3c0-0.2,0-0.3,0.1-0.3s0.2-0.1,0.3-0.1l4.6,0.1h7.6v-20.3
			c0-2.8-0.1-4.8-0.3-6c1.8,0,3.2,0.1,4.2,0.2c0.4,0,0.7,0.2,0.7,0.5c0,0.1-0.1,0.4-0.3,0.8c-0.2,0.5-0.2,1.6-0.2,3.4v5.7h7l4.4-0.1
			c0.2,0,0.3,0,0.4,0.1c0,0,0.1,0.2,0.1,0.3v3.3c0,0.2,0,0.3-0.1,0.3c0,0-0.1,0.1-0.3,0.1l-4.4-0.1h-7v11.7h9.8l4.6-0.1
			c0.2,0,0.3,0,0.3,0.1s0.1,0.2,0.1,0.3v3.3c0,0.2,0,0.3-0.1,0.3s-0.1,0.1-0.3,0.1l-4.6-0.1H1189z"/>
		<path d="M1238,219.6c-0.9,6.7-2.4,11.8-4.5,15.5c-1.6,2.8-3.6,4.1-6.1,4.1c-1.8,0-3.4-0.9-4.6-2.7c-1.2-1.7-1.8-3.9-1.8-6.5
			c0-3.5,1.4-6.7,4.1-9.4c3.1-3.1,7-4.6,11.7-4.6c4.5,0,8,1.3,10.5,4c2.1,2.2,3.2,5.1,3.2,8.5c0,6.5-3.7,10.9-11.1,13.1
			c-0.2,0.1-0.4,0.1-0.5,0.1c-0.4,0-0.7-0.2-1-0.7c-0.5-0.8-1.4-1.6-2.5-2.3c3.7-0.9,6.4-2.1,8.1-3.7c1.9-1.7,2.8-4.1,2.8-7
			c0-2.4-0.8-4.4-2.5-6.1c-1.5-1.5-3.4-2.3-5.5-2.3H1238z M1233.8,219.9c-2.6,0.5-4.6,1.6-6.2,3.3c-1.9,2.1-2.8,4.3-2.8,6.7
			c0,1.7,0.3,3,0.9,4c0.5,0.8,1,1.2,1.5,1.2c1,0,1.9-0.7,2.7-2.2c0.9-1.6,1.7-3.7,2.4-6.2C1233,224.3,1233.5,222,1233.8,219.9z"/>
		<path d="M1255.2,240.2c6.2-1.8,11.5-4.5,16-8c-0.3-0.8-0.5-1.3-0.7-1.7c-3.1,2.1-6.9,3.9-11.4,5.4c-0.5,0.2-0.8,0.2-0.9,0.2
			c-0.2,0-0.4-0.3-0.7-0.8c-0.4-0.8-0.9-1.4-1.6-2c4.7-1.1,9.1-2.9,13.1-5.4c-0.4-0.7-0.8-1.2-1-1.5c-2.3,1.2-4.9,2.2-7.7,3.1
			c-0.4,0.1-0.7,0.2-0.8,0.2c-0.2,0-0.4-0.2-0.7-0.6c-0.4-0.8-1-1.5-1.7-2.1c4.5-0.9,8.2-2.2,11.3-3.8h-1.9l-4.8,0.1
			c-0.2,0-0.3,0-0.4-0.1c0,0-0.1-0.2-0.1-0.3v-2.3c0-0.2,0-0.3,0.1-0.4c0,0,0.2-0.1,0.4-0.1l4.8,0.1h10.2l4.9-0.1
			c0.2,0,0.3,0,0.4,0.1c0,0.1,0.1,0.2,0.1,0.4v2.3c0,0.2,0,0.3-0.1,0.4c0,0-0.2,0.1-0.3,0.1l-4.7-0.1c0.5,2,1.1,3.8,1.8,5.3
			c0.8-0.8,1.6-1.5,2.2-2.3c0.5-0.5,1-1.2,1.5-2.2c1,0.7,1.9,1.4,2.6,2c0.4,0.3,0.5,0.5,0.5,0.7c0,0.3-0.2,0.4-0.5,0.5
			c-0.2,0.1-0.7,0.5-1.6,1.4c-1.2,1.2-2.3,2.1-3.3,2.9c1.9,2.9,4.6,5.4,8.1,7.5c-0.9,0.9-1.5,1.7-1.9,2.5c-0.3,0.6-0.6,0.8-0.7,0.8
			c-0.1,0-0.3-0.1-0.8-0.4c-3.1-2.3-5.7-5.2-7.6-8.6c-1.6-2.8-2.9-6.2-3.9-10.1h-0.2c-0.8,0.6-1.6,1.1-2.4,1.6
			c3.1,3.9,4.7,8.1,4.7,12.7c0,2.7-0.4,4.5-1.3,5.5c-0.8,0.8-2.2,1.3-4.1,1.3c-0.8,0-1.4,0-1.9-0.1c-0.5,0-0.8-0.1-0.9-0.2
			c-0.1-0.1-0.2-0.3-0.2-0.8c-0.3-1.1-0.6-2-1.1-2.6c1.3,0.1,2.5,0.2,3.7,0.2c0.9,0,1.4-0.2,1.7-0.7c0.3-0.5,0.5-1.4,0.5-2.8
			c0-0.7,0-1.3-0.1-1.9c-3.9,3-8.4,5.4-13.4,7.3c-0.5,0.2-0.8,0.2-0.9,0.2c-0.2,0-0.5-0.3-0.7-0.8
			C1256.4,241.5,1255.9,240.8,1255.2,240.2z M1281.6,214.6l4.8-0.1c0.2,0,0.3,0,0.3,0.1s0.1,0.2,0.1,0.3l-0.1,1.7v1.5l0.1,3.8
			c0,0.2,0,0.3-0.1,0.3s-0.2,0.1-0.3,0.1h-3c-0.2,0-0.3,0-0.4-0.1s-0.1-0.2-0.1-0.3v-4.3h-22.9v4.3c0,0.2,0,0.3-0.1,0.3
			s-0.2,0.1-0.3,0.1h-3c-0.2,0-0.3,0-0.3-0.1s-0.1-0.2-0.1-0.3l0.1-3.8v-1.2l-0.1-2c0-0.2,0-0.3,0.1-0.4s0.2-0.1,0.3-0.1l4.8,0.1
			h7.9v-0.1c0-1.3-0.1-2.4-0.2-3.1c1.3,0,2.6,0.1,3.9,0.2c0.4,0,0.5,0.1,0.5,0.3c0,0.1-0.1,0.3-0.2,0.7c-0.1,0.3-0.2,0.9-0.2,1.8
			v0.1H1281.6z"/>
		<path d="M1300.6,220.1h-2.5c-0.1,2.6-0.1,3.9-0.1,4h3.6l2.1-0.1c0.3,0,0.4,0.1,0.4,0.4c0,0.3-0.1,1.6-0.1,3.9
			c0,6.4-0.4,10.6-1,12.7c-0.6,1.9-1.8,2.8-3.7,2.8c-0.7,0-1.2,0-1.5,0c-0.3,0-0.5-0.1-0.6-0.2c-0.1-0.1-0.1-0.4-0.2-0.8
			c-0.2-1.1-0.4-2-0.8-2.7c0.9,0.2,1.7,0.2,2.4,0.2c0.5,0,0.9-0.2,1.1-0.5c0.2-0.2,0.3-0.8,0.5-1.6c0.3-1.5,0.5-5.1,0.5-10.9h-2.9
			c-0.2,3.7-0.7,6.9-1.3,9.4c-0.6,2.4-1.5,4.6-2.7,6.5c-0.3,0.4-0.5,0.6-0.6,0.6s-0.4-0.2-0.7-0.6c-0.7-1-1.4-1.8-2-2.3
			c1.8-2.5,3-5.7,3.5-9.6c0.4-2.5,0.5-6.2,0.6-11.4c-0.8,0-1.6,0-2.2,0.1c-0.4,0-0.7,0-0.7,0c-0.2,0-0.3,0-0.4-0.1s-0.1-0.2-0.1-0.3
			v-2.6c0-0.2,0-0.3,0.1-0.4c0,0,0.2-0.1,0.3-0.1l3.9,0.1h1.2v-1.7c0-1.6-0.1-2.7-0.2-3.5c1.6,0,2.9,0.1,3.8,0.2
			c0.4,0,0.6,0.1,0.6,0.4c0,0.1-0.1,0.3-0.2,0.7c-0.2,0.4-0.2,1.1-0.2,2.2v1.7l3.9-0.1c0.2,0,0.3,0,0.3,0.1c0,0,0.1,0.2,0.1,0.4v2.3
			c1.4-1.6,2.4-3.6,3.2-5.8c0.3-0.9,0.5-1.6,0.5-2.3c1.3,0.2,2.4,0.4,3.2,0.7c0.4,0.1,0.6,0.3,0.6,0.5c0,0.2-0.1,0.3-0.3,0.5
			c-0.2,0.2-0.4,0.6-0.6,1.3c-0.3,0.7-0.5,1.3-0.7,1.6h8.5l4.3-0.1c0.2,0,0.3,0,0.4,0.1c0,0,0.1,0.2,0.1,0.3v2.6
			c0,0.2,0,0.3-0.1,0.3c0,0-0.1,0.1-0.3,0.1l-4.3-0.1h-10.2c-0.9,1.5-1.8,2.7-2.8,3.8c-0.4,0.4-0.6,0.6-0.7,0.6
			c-0.1,0-0.4-0.2-0.8-0.7c-0.5-0.5-1.2-1-2-1.3c0.5-0.5,1-1,1.5-1.5L1300.6,220.1z M1303.5,241.1c2.7-1,4.7-2.2,6.1-3.5
			c1.2-1.2,2-2.6,2.5-4.3h-1.7l-4.6,0.1c-0.3,0-0.4-0.1-0.4-0.4v-2.5c0-0.2,0-0.3,0.1-0.4s0.2-0.1,0.3-0.1l4.6,0.1h2.2
			c0.1-1.1,0.2-2.2,0.2-3.2c0-0.3,0-0.5,0-0.8h-2.2c-0.6,0.9-1.2,1.7-1.9,2.5c-0.4,0.4-0.7,0.7-0.8,0.7c-0.1,0-0.4-0.2-0.8-0.7
			c-0.5-0.5-1-0.9-1.8-1.3c1.7-1.5,3-3.4,4.1-5.5c0.4-0.9,0.6-1.6,0.8-2.2c1.2,0.2,2.2,0.5,3,0.8c0.3,0.1,0.5,0.3,0.5,0.5
			c0,0.1-0.1,0.3-0.3,0.5c-0.2,0.2-0.4,0.5-0.7,1.2l-0.2,0.4h4.8l5-0.1c0.2,0,0.3,0,0.4,0.1c0,0,0.1,0.2,0.1,0.3v2.5
			c0,0.2,0,0.3-0.1,0.3c0,0-0.2,0.1-0.4,0.1l-5-0.1h-0.7c0,1.3-0.1,2.6-0.2,4h2.5l4.7-0.1c0.2,0,0.4,0.1,0.4,0.4v2.5
			c0,0.2-0.1,0.4-0.4,0.4l-4.7-0.1h-2c0.8,1.7,2,3.2,3.4,4.5c1.4,1.2,2.9,2.1,4.5,2.7c-0.7,0.9-1.3,1.7-1.7,2.6
			c-0.3,0.6-0.5,0.9-0.7,0.9c-0.1,0-0.4-0.1-0.8-0.3c-2.9-1.9-5.1-4.3-6.8-7.5c-1.4,3.2-4.2,5.7-8.2,7.6c-0.4,0.2-0.7,0.3-0.8,0.3
			c-0.2,0-0.5-0.3-0.7-0.9C1304.7,242.4,1304.2,241.7,1303.5,241.1z"/>
	</g>
</g>
<g>
	<path class="st10" d="M775,398.1c0.5-10,21.1-10.9,19.1,3.8c-1.7,11.9-18.1,17.4-19.1,18.5c-0.9-1.1-17.4-6.5-19.1-18.5
		C753.9,387.2,774.5,388.1,775,398.1z"/>
	<path class="st10" d="M675,429c-0.4,0.1,85.4,0.1,100-8.6"/>
	<path class="st10" d="M875,429c0.4,0.1-85.4,0.1-100-8.6"/>
</g>
<g>
</g>
<g>
</g>
<g>
</g>
<g>
</g>
<g>
</g>
<g>
</g>
<g>
</g>
<g>
</g>
<g>
</g>
<g>
</g>
<g>
</g>
<g>
</g>
<g>
</g>
<g>
</g>
<g>
</g>
</svg>
