<?xml version="1.0" standalone="no"?>
<!DOCTYPE svg PUBLIC "-//W3C//DTD SVG 20010904//EN"
 "http://www.w3.org/TR/2001/REC-SVG-20010904/DTD/svg10.dtd">
<svg version="1.0" xmlns="http://www.w3.org/2000/svg"
 width="1711.000000pt" height="373.000000pt" viewBox="0 0 1711.000000 373.000000"
 preserveAspectRatio="xMidYMid meet">

<g transform="translate(0.000000,373.000000) scale(0.100000,-0.100000)"
fill="#000000" stroke="none">
<path d="M4383 2656 c-148 -28 -269 -111 -323 -221 -21 -42 -25 -64 -25 -140
1 -150 50 -230 205 -334 48 -32 157 -93 241 -136 246 -125 327 -184 375 -276
25 -50 30 -165 10 -227 -56 -169 -275 -257 -511 -207 -131 28 -212 104 -263
248 l-27 79 -34 -6 c-18 -3 -36 -7 -38 -10 -4 -4 17 -105 65 -311 7 -29 12
-31 117 -59 140 -36 375 -47 492 -22 163 34 307 140 351 257 42 114 38 235
-12 344 -48 106 -128 171 -336 275 -322 160 -431 239 -463 334 -51 149 27 275
198 321 81 22 259 17 320 -9 81 -34 128 -104 155 -227 l13 -56 34 7 c19 5 37
11 40 13 9 9 -48 312 -60 319 -7 4 -52 17 -102 29 -115 27 -319 34 -422 15z"/>
<path d="M7740 2606 l0 -36 50 0 c69 0 117 -21 127 -57 10 -36 10 -1299 0
-1335 -10 -39 -43 -57 -115 -64 -60 -7 -62 -8 -62 -36 l0 -29 468 3 c416 4
473 6 522 22 143 47 228 117 283 234 30 63 32 74 32 177 0 100 -2 115 -27 160
-14 28 -48 71 -76 97 -82 77 -174 115 -347 143 l-40 7 71 18 c203 52 312 167
322 340 6 101 -14 163 -74 229 -57 63 -130 105 -230 133 -73 19 -109 21 -491
26 l-413 4 0 -36z m781 -70 c82 -18 158 -55 192 -95 14 -17 35 -57 47 -88 40
-106 9 -246 -71 -317 -91 -83 -188 -108 -424 -110 l-170 -1 -3 289 c-2 246 0
292 13 313 15 23 18 23 183 23 105 0 192 -6 233 -14z m-11 -706 c170 -22 279
-86 335 -195 26 -50 30 -69 29 -139 0 -45 -5 -100 -12 -123 -19 -62 -71 -134
-125 -170 -86 -57 -129 -65 -372 -70 -210 -5 -221 -4 -245 15 l-25 20 -3 336
-3 336 173 0 c95 0 207 -5 248 -10z"/>
<path d="M6700 2584 c-80 -28 -133 -75 -174 -154 -34 -64 -46 -135 -46 -260
l0 -110 -85 0 -85 0 0 -40 0 -40 85 0 85 0 0 -387 c0 -237 -4 -403 -10 -425
-13 -45 -30 -55 -104 -64 -50 -6 -56 -9 -56 -30 l0 -24 250 0 250 0 0 24 c0
21 -5 24 -60 29 -79 9 -97 19 -110 65 -6 22 -10 188 -10 425 l0 387 145 0 145
0 0 40 0 40 -146 0 -147 0 6 133 c9 196 45 290 123 323 76 32 133 7 178 -77
41 -77 64 -99 101 -99 95 0 81 131 -21 201 -26 17 -67 38 -92 45 -59 18 -166
17 -222 -2z"/>
<path d="M11530 2569 c-30 -16 -88 -36 -127 -45 -64 -14 -73 -19 -73 -38 0
-19 8 -24 52 -32 41 -7 55 -15 65 -34 10 -20 12 -163 10 -653 -2 -710 5 -649
-83 -663 -38 -5 -44 -10 -44 -30 l0 -24 205 0 205 0 0 24 c0 20 -6 25 -45 30
-71 11 -75 23 -75 216 l0 166 63 61 62 62 179 -280 180 -279 128 0 128 0 0 25
c0 19 -5 25 -22 25 -13 0 -42 9 -64 19 -37 17 -60 46 -217 284 -97 147 -181
275 -186 286 -10 17 3 33 105 133 128 125 180 164 230 174 29 5 34 10 34 35
l0 29 -165 0 -165 0 0 -30 c0 -25 4 -30 23 -30 28 0 65 -25 54 -37 -4 -4 -87
-88 -185 -185 l-177 -178 -5 497 c-4 433 -7 498 -20 499 -8 1 -40 -11 -70 -27z"/>
<path d="M7270 2283 c-17 -81 -56 -159 -94 -188 -37 -28 -107 -55 -142 -55
-20 0 -24 -5 -24 -30 l0 -30 85 0 84 0 3 -407 3 -408 25 -45 c17 -29 41 -53
70 -70 84 -47 266 -25 325 39 14 17 14 20 -3 41 l-18 22 -39 -23 c-26 -16 -55
-23 -91 -24 -45 0 -58 4 -81 28 l-28 27 -3 410 -3 410 116 0 115 0 0 40 0 40
-115 0 -115 0 0 140 0 140 -29 0 c-28 0 -30 -3 -41 -57z"/>
<path d="M5573 2070 c-116 -23 -221 -102 -277 -209 -47 -90 -66 -178 -66 -311
0 -195 47 -328 145 -419 162 -148 498 -146 664 4 113 102 166 343 126 569 -34
193 -157 327 -333 365 -60 12 -196 13 -259 1z m226 -76 c139 -41 211 -191 211
-439 0 -202 -51 -348 -143 -411 -79 -55 -194 -66 -283 -29 -51 21 -115 86
-139 140 -40 90 -50 153 -50 305 0 123 4 156 23 219 13 40 34 91 47 111 65
102 199 144 334 104z"/>
<path d="M9475 2066 c-78 -20 -119 -41 -165 -82 -48 -44 -70 -81 -70 -122 0
-47 19 -64 70 -60 44 3 46 5 77 63 55 104 118 145 223 145 54 0 125 -33 153
-71 25 -34 36 -90 37 -175 l0 -71 -147 -37 c-239 -59 -379 -140 -433 -250 -27
-56 -27 -174 -1 -231 24 -52 74 -99 136 -127 39 -17 69 -22 135 -23 112 0 179
18 255 70 l63 43 23 -36 c35 -55 81 -74 155 -68 82 7 112 21 106 51 -3 20 -9
23 -49 22 -39 -2 -48 2 -67 26 -20 28 -21 40 -26 395 l-5 367 -27 46 c-32 54
-74 93 -127 116 -49 21 -248 27 -316 9z m325 -646 l0 -199 -53 -40 c-65 -50
-123 -71 -191 -71 -119 1 -196 77 -196 194 1 119 99 203 330 282 52 18 98 33
103 33 4 1 7 -89 7 -199z"/>
<path d="M10380 2050 c-30 -16 -85 -36 -122 -46 -60 -14 -68 -19 -68 -40 0
-20 5 -24 29 -24 55 0 79 -16 91 -60 8 -28 10 -155 8 -385 -3 -389 -1 -378
-84 -391 -38 -5 -44 -10 -44 -30 l0 -24 195 0 195 0 0 24 c0 20 -6 24 -39 30
-67 10 -66 4 -69 362 l-3 323 53 62 c125 146 262 188 353 107 60 -52 65 -87
65 -462 0 -375 0 -376 -68 -390 -35 -7 -42 -13 -42 -32 l0 -24 190 0 190 0 0
24 c0 21 -6 25 -40 31 -69 12 -68 7 -72 405 -4 341 -5 357 -27 412 -43 111
-144 164 -290 156 -94 -5 -179 -47 -258 -125 l-52 -52 -5 52 c-3 29 -7 67 -9
86 -1 19 -6 36 -12 37 -5 2 -35 -10 -65 -26z"/>
</g>
</svg>
