<?xml version="1.0" encoding="utf-8"?>
<!-- Generator: Adobe Illustrator 27.0.0, SVG Export Plug-In . SVG Version: 6.00 Build 0)  -->
<svg version="1.1" id="レイヤー_1" xmlns="http://www.w3.org/2000/svg" xmlns:xlink="http://www.w3.org/1999/xlink" x="0px"
	 y="0px" viewBox="0 0 1600 500" style="enable-background:new 0 0 1600 500;" xml:space="preserve">
<style type="text/css">
	.st0{clip-path:url(#SVGID_00000023261447311736559100000003165240990156566664_);}
	.st1{fill:#957F6E;}
	.st2{fill:#FFFFFF;}
	.st3{fill:#BDBDBD;}
	.st4{fill:#211715;}
	.st5{fill:#CA281C;}
</style>
<g>
	<defs>
		<rect id="SVGID_1_" width="1599" height="500"/>
	</defs>
	<clipPath id="SVGID_00000111181363712036366410000009415723182689577878_">
		<use xlink:href="#SVGID_1_"  style="overflow:visible;"/>
	</clipPath>
	<g style="clip-path:url(#SVGID_00000111181363712036366410000009415723182689577878_);">
		<image style="overflow:visible;" width="6663" height="2084" xlink:href="6F6A42BE.jpg"  transform="matrix(0.24 0 0 0.24 0 0)">
		</image>
	</g>
	<g style="clip-path:url(#SVGID_00000111181363712036366410000009415723182689577878_);">
		<path class="st1" d="M1481.4,285.9c11.8-2.6,20.1-14.4,20-24.8c-0.1-8-1.4-16-4.1-23.6c-3.3-10.3-9.7-31.5-10.3-68.6
			c1-10.6,0-26.2-0.4-32.2c-1.5-20.4-10.6-43.1-23.7-55.8c-5.7-5.5-7.3-8-13.5-11.4l-14.8-7.2c-9.1-3.5-17.6-5.2-33.6-5.2
			c-26.2,0-49.6,13.5-59.9,23.4c-17.2,16.4-28.1,46.5-26.7,87.9c0,30.2-2.3,52-5.5,64.3c-0.5,1.8-0.9,3.7-1.3,5.9
			c-2.4,7.3-3.6,14.8-3.8,22.5c-0.1,6.5,1,13.9,6.2,17.8c3.7,3.2,10,7.1,16.8,6.9L1481.4,285.9z"/>
		<path class="st2" d="M1334.9,165.8c12.4-8.3,26.1-14.5,40.4-18.4c22.3-5.6,44.7-19.3,53.1-30.5c5.6,15.4,27.9,46.2,40.7,48.8
			c2.2-1.9,5.1-2.8,8-2.3c2.8,0.4,5.3,2.1,6.8,4.5c0.8,1.7,1.3,3.5,1.4,5.4c0.6,7.3-0.8,14.6-4.1,21.2c-1.5,3.3-3.8,6.3-6.6,8.6
			c-2.3,1.8-5,3.1-7.8,3.5l-1.3,0.2c-0.6,2.4-1.4,4.4-1.7,5.5c-2.3,6.4-15.8,28.9-32.6,36.1c0,4.5-0.1,9.7,1.5,13.6
			c1.2,3,6.8,7.4,12.7,11.4l13.6,9.2c-6.1,7.7-14.3,13.4-23.7,16.4c-10,4-24.5,5.6-34.7,5.5c-10.8-0.3-21.5-1.8-32-4.6
			c0,0-16.2-5.6-23.8-17.7l14.2-9.1c6.3-3.9,12.2-8.2,13.4-11.1c1.5-3.8,1.5-8.9,1.4-13.3c-8.2-3.8-15.4-9.4-21-16.4
			c-6.1-7.5-10.6-16.2-13-25.6c-3.8,0-7.4-1.3-10.3-3.7c-2.8-2.4-5-5.3-6.6-8.6c-3.3-6.6-4.7-13.9-4.1-21.2c0.1-1.9,0.6-3.7,1.4-5.4
			c1.5-2.5,4-4.1,6.8-4.5C1329.7,163.1,1332.7,163.9,1334.9,165.8"/>
		<path class="st2" d="M1222.9,278.7c-2.7-10.7-10.3-37.3-13.1-40.9c-2-2.6-4.4-4.5-8.8-2.6c-3.8,1.6-3.2,6-2.4,9.5
			c0.8,4,5.5,22.6,8.2,32.3c-2.1-2.4-5.5-3.2-8.5-1.9c-3,1.4-4.1,3.9-3.8,5.8c0,0,0.3,1.4,0.6,3.5c-2.2-1.2-4.8-1.2-7,0
			c-2.6,1.4-5.2,5.1-3.9,7.7l1.7,3.6l-0.5-0.4c-3.3-2.7-9-1-9.9,2.6c-0.7,2.8,0.5,6,2,8.5c0.2,0.3,0.4,0.6,0.6,1
			c0.2,0.6,0.3,0.9,0.3,0.9c2.1,6.4,6.1,16.3,12.2,23.3c2.8,3.3,6.1,6.5,8.6,10c2.6,3.5,3.2,7.4,4.4,11.5l0.6,1.8
			c6.6-2.4,25.2-9.4,35.1-14.1l-0.4-1c-1-4.5-2-10.3-1.4-14.1c1.1-4.3,2.6-8.5,4.3-12.6c1.4-3.3,2-6.9,1.8-10.5
			c-0.4-4.1-1.5-9.9-4.6-14.2c-0.6-0.8-1.4-1.5-2.2-2.1c-0.1-0.1-0.2-0.1-0.3-0.2c-3.6-2.2-8.4-2.2-12.5-2.1l-0.3-1.7
			C1223.7,281.7,1223.4,280.4,1222.9,278.7z"/>
		<path class="st2" d="M1202.6,355.7c4.5-1.7,28.8-10.6,38.8-15.7c1.1,2.3,3.5,7.9,5,10.9l0.6,1.3c-11.8,6-28,13.3-40,16.7
			c-0.3-0.8-0.6-1.5-0.6-1.5c-1.3-3.8-3.8-10.3-4.3-11.4L1202.6,355.7z"/>
		<path class="st3" d="M1539,500.5c-4.1-81.3-7.9-152-15.6-177.8c-2.2-7.4-5-14-8.7-16.9s-9.9-4.9-14.1-7
			c-15.7-7.6-37.5-17.3-46.1-24.3c-0.5-0.4-0.9-0.7-1.4-1.1c-0.7-0.6-5.3-3.6-6.2-4.2c-6.2,25.3-16.7,53.7-25.6,78.4
			c-6.7,18.7-11.7,32.1-18.5,51.1c-6.2-17.1-13.1-35.2-19.2-52.2c-8.8-24.6-18.3-52.7-26.5-77.1l-0.1,0.1l-6.3,4.3
			c-1.4,1.1-2.7,2.2-4,3.3c-13,7-29.3,11.5-42.7,17.9c-4.1,2-8.9,2.9-12,6.2c-3.2,3.4-5.6,7.4-7.2,11.8c-9.8,25.6-11,39.6-21.9,66.6
			c-4-9.7-7.8-19.1-12-29.4c-13.4,7-34.6,16.8-48,19.7c6.7,21.3,13.3,44.2,22.7,65.6c6.5,14.8,15.4,28.6,31.1,32.8
			c11.9,3.3,24.6,1,34.6-6.4c8.5-6.2,17.8-18.7,23.6-26.1l0.2-0.2c0.1,1.4,0.2,2.6,0.2,3.6c0,9.6-3.5,41.7-4.9,61.3L1539,500.5z"/>
		<path class="st4" d="M1311.1,168.5c0,17.7-0.5,35.8-3.3,53.1c-0.5,2.8-1,5.7-1.7,8.5c-0.4,1.9-0.9,3.7-1.3,5.6
			c-0.6,2.7-1.4,5.2-2,7.9c-1.3,5.4-2,10.9-2.2,16.4c-0.3,4.4,0.2,8.8,1.5,13c3.3,9.7,14.8,16.4,24.8,16.3c4.3-0.1,4.3-6.7,0-6.6
			c-4.4-0.1-8.6-1.5-12.1-4.1c-3-1.8-5.3-4.5-6.5-7.8c-1.1-3.9-1.4-8-1-12.1c0.3-5.1,1.1-10.3,2.4-15.2c1.9-6.7,3.4-13.4,4.6-20.2
			c1.2-7.3,1.9-14.7,2.4-22.1c0.8-10.8,1-21.7,1-32.6C1317.8,164.3,1311.1,164.3,1311.1,168.5L1311.1,168.5z"/>
		<path class="st4" d="M1483.8,168.5c0,18.2,2,36.3,5.9,54c1.1,4.9,2.5,9.8,4,14.6c1.4,4.2,2.5,8.4,3.4,12.8c1,4.6,1.3,9.4,0.8,14.1
			c-1.5,9.2-8.4,16.6-17.4,18.8c-4.2,1-2.4,7.3,1.8,6.4c9.2-2.3,16.7-8.9,20.3-17.7c3.9-9.3,2-20.5-0.6-30c-1.5-5.5-3.4-11-4.9-16.5
			c-1.8-7-3.2-14.1-4.2-21.3c-1.6-11.7-2.4-23.4-2.5-35.2C1490.3,164.3,1483.7,164.3,1483.8,168.5L1483.8,168.5z"/>
		<path class="st4" d="M1471.4,168.2c2.8-2.3,6.9-1.9,9.2,0.9c0,0.1,0.1,0.1,0.1,0.2c1,1.8,1.4,3.9,1.3,5.9c0.1,2.4,0,4.9-0.4,7.3
			c-1.5,8.8-6,19.4-15.8,21.1c-1.8,0.5-2.8,2.3-2.3,4.1c0.5,1.7,2.3,2.8,4.1,2.3c13.4-2.3,19.8-17.5,20.9-29.6
			c0.5-5.9,0.4-13.2-4.6-17.2c-5.1-4.1-12.4-3.9-17.3,0.4c-1.3,1.3-1.3,3.4,0,4.7C1468,169.4,1470.1,169.4,1471.4,168.2
			L1471.4,168.2z"/>
		<path class="st4" d="M1463.4,199.3c-0.2,2.8-0.7,5.6-1.6,8.3c-0.3,1.1-0.7,2.1-1,3.2c-0.1,0.3-0.2,0.6-0.3,1
			c-0.2,0.6-0.1,0.3,0,0.1c-1.3,2.8-2.8,5.5-4.5,8.2c-4.7,7.8-10.7,14.7-17.7,20.4c-3.8,3.1-8.3,5.4-13.1,6.6
			c-4.2,1-2.4,7.3,1.8,6.4c10.1-2.3,18.5-9.6,25.2-17.2c5.6-6.2,10.2-13.1,13.8-20.6c2.4-5.2,3.8-10.7,4.1-16.4
			C1470.1,195.1,1463.5,195.1,1463.4,199.3L1463.4,199.3z"/>
		<path class="st4" d="M1337.2,163.5c-4.9-4.3-12.2-4.5-17.3-0.4c-4.9,4-5.1,11.4-4.6,17.2c1.1,12.1,7.5,27.3,20.9,29.6
			c1.8,0.4,3.5-0.6,4.1-2.3c0.5-1.8-0.6-3.6-2.3-4.1c-9.7-1.7-14.3-12.4-15.8-21.1c-0.4-2.4-0.5-4.8-0.4-7.3
			c-0.1-2.1,0.3-4.1,1.3-5.9c2.2-2.9,6.3-3.4,9.2-1.2c0.1,0,0.1,0.1,0.2,0.1c1.3,1.2,3.4,1.2,4.7,0
			C1338.5,166.9,1338.5,164.8,1337.2,163.5L1337.2,163.5z"/>
		<path class="st4" d="M1335.1,202c4.2,20,16.1,39.5,34.9,48.8c5,2.5,10.5,4,16.1,4.6c1.8,0,3.3-1.5,3.3-3.3c0-1.8-1.5-3.3-3.3-3.3
			c-18.6-1.9-33.8-18-40.4-34.6c-1.8-4.5-3.2-9.2-4.2-14C1340.6,196.1,1334.2,197.8,1335.1,202z"/>
		<path class="st4" d="M1435.5,59.2c-12.1-4.6-25.3-5.8-38.1-5.2c-14.9,0.9-29.4,5.2-42.4,12.6c-9.5,5.2-17.8,12.4-24.3,21
			c-6.7,9.5-11.6,20.1-14.5,31.3c-4.4,16.1-5.7,33-5.1,49.6c0.1,4.2,6.8,4.3,6.6,0c-0.8-25.1,2.3-52.2,16.1-73.8
			c5.2-8.1,12.2-14.9,20.4-20c11.4-7.3,24.3-12,37.7-13.7c8.2-0.9,16.5-0.8,24.7,0.3c5.8,0.7,11.5,2.2,17,4.3
			c1.8,0.5,3.6-0.6,4.1-2.3C1438.3,61.5,1437.3,59.7,1435.5,59.2z"/>
		<path class="st4" d="M1490.4,168.5c0.5-7.6,0.5-15.1,0.1-22.7c-0.2-6.8-0.9-13.5-2-20.2c-2.9-15.3-9.1-30.7-19.2-42.7
			c-2.7-3.2-5.7-6-8.6-8.9c-2.8-2.9-6-5.3-9.5-7.3c-3.7-2.1-7.1,3.7-3.3,5.7c2.8,1.5,5.3,3.4,7.5,5.6c2.6,2.5,5.2,5,7.6,7.7
			c4.8,5.4,8.7,11.5,11.7,18.1c3.2,6.8,5.5,14,7,21.4c1.2,6.2,1.9,12.6,2.1,18.9c0.5,8.1,0.5,16.2,0,24.4c0,1.8,1.5,3.3,3.3,3.3
			C1488.9,171.8,1490.4,170.3,1490.4,168.5L1490.4,168.5z"/>
		<path class="st4" d="M1427.8,248.6c-0.1,2.9,0,5.8,0.3,8.7c0.1,2.8,0.9,5.4,2.3,7.8c3.3,4.7,8.6,8.1,13.2,11.3
			c1.6,0.9,3.6,0.4,4.5-1.2c0.9-1.6,0.4-3.6-1.2-4.5c-2.2-1.5-4.4-3.1-6.5-4.8c-0.9-0.7-1.8-1.5-2.7-2.3c-0.4-0.4-0.7-0.7-1.1-1.1
			c-0.2-0.2-0.3-0.4-0.5-0.6c-0.3-0.4,0.4,0.6-0.1-0.1c-0.2-0.3-0.4-0.6-0.6-1c-0.2-0.4,0.2,0.5,0-0.1c-0.1-0.3-0.2-0.6-0.3-0.9
			c-0.3-1-0.5-2.1-0.6-3.2c-0.2-2.7-0.3-5.4-0.2-8.1C1434.5,244.4,1427.8,244.3,1427.8,248.6L1427.8,248.6z"/>
		<path class="st4" d="M1370.4,248.9c0.1,2.6,0,5.3-0.2,7.9c-0.1,1.1-0.4,2.2-0.7,3.3c-0.1,0.3-0.2,0.6-0.3,0.9
			c0.1-0.2,0.2-0.3,0-0.1c-0.1,0.2-0.8,1.1-0.3,0.5c-3,3.8-7.6,6.4-11.7,9c-1.6,0.9-2.1,3-1.2,4.5c0.9,1.6,3,2.1,4.5,1.2
			c2.7-1.7,5.3-3.4,7.8-5.3c2.2-1.6,4.2-3.4,5.9-5.6c1.4-2.2,2.2-4.6,2.3-7.2c0.3-3.1,0.5-6.1,0.4-9.2
			C1377,244.6,1370.4,244.6,1370.4,248.9L1370.4,248.9z"/>
		<path class="st2" d="M1411.6,374.1c3.1-8.5,6.1-16.8,9.6-26.6c5.6-15.5,11.8-32.5,17.2-49.3c-1,0.4-2.1,0.7-3.2,1
			c-10,4-24.5,5.6-34.7,5.5c-10.8-0.3-21.5-1.8-32-4.6l-0.6-0.1c5.2,16.2,11.1,32.6,16.4,47.5c6.1,17,12.2,34,18.3,51.1
			C1406,389.6,1408.8,381.8,1411.6,374.1z"/>
		<path class="st4" d="M1209.7,366.4c-1.6-4-2.9-8.2-4.6-12.2l-2,4.9c5.7-2.1,11.4-4.3,17.1-6.5c7.7-3,15.5-6,22.9-9.8l-4.5-1.2
			c1.8,3.6,3.3,7.3,5,10.9c0.9,1.6,2.9,2.1,4.5,1.2c1.5-0.9,2.1-2.9,1.2-4.5c-1.7-3.6-3.2-7.3-5-10.9c-0.9-1.6-2.9-2.1-4.5-1.2
			c-7.1,3.4-14.3,6.5-21.7,9.2c-5.6,2.2-11.1,4.3-16.7,6.3c-1.8,0.5-2.8,2.4-2.2,4.2c0.1,0.2,0.2,0.4,0.3,0.6
			c-0.5-1.2-0.1-0.1,0,0.1c0.2,0.4,0.3,0.8,0.5,1.2c0.3,0.9,0.7,1.9,1,2.8c0.8,2.2,1.6,4.3,2.4,6.5c0.5,1.7,2.3,2.7,4.1,2.3
			C1209.2,369.9,1210.2,368.1,1209.7,366.4L1209.7,366.4z"/>
		<path class="st4" d="M1367.7,303.4c11.3,3.1,23,4.7,34.8,4.7c11.2-0.2,23.1-1.5,33.6-5.7c1.7-0.5,2.7-2.3,2.3-4.1
			c-0.5-1.8-2.3-2.8-4.1-2.3c-10,3.9-21.2,5.2-31.9,5.4c-11.1,0-22.2-1.5-33-4.5C1365.3,295.9,1363.6,302.3,1367.7,303.4
			L1367.7,303.4z"/>
		<path class="st4" d="M1386.7,413.6c0.4,0.3,0.7,0.7,1,1.1l-0.5-0.7c0.3,0.4,0.6,0.9,0.8,1.4l-0.3-0.8c0.2,0.5,0.4,1.1,0.5,1.7
			l-0.1-0.9c0.1,0.6,0.1,1.3,0,1.9l0.1-0.9c-0.1,0.7-0.3,1.3-0.5,2l0.3-0.8c-0.2,0.5-0.5,1-0.8,1.4l0.5-0.7c-0.3,0.4-0.7,0.7-1,1
			l0.7-0.5c-0.5,0.3-1,0.6-1.5,0.8l0.8-0.3c-0.6,0.2-1.3,0.4-1.9,0.5l0.9-0.1c-0.7,0.1-1.5,0.1-2.3,0l0.9,0.1
			c-0.6-0.1-1.3-0.3-1.8-0.5l0.8,0.3c-0.4-0.2-0.9-0.4-1.3-0.7l0.7,0.5c-0.5-0.4-0.9-0.8-1.2-1.2l0.5,0.7c-0.3-0.4-0.6-0.9-0.8-1.4
			l0.3,0.8c-0.2-0.4-0.3-0.9-0.4-1.3l0.1,0.9c-0.1-0.5-0.1-1.1,0-1.6l-0.1,0.9c0.1-0.7,0.3-1.3,0.6-2l-0.3,0.8
			c0.3-0.8,0.8-1.5,1.3-2.1l-0.5,0.7c0.3-0.4,0.6-0.7,1-1l-0.7,0.5c0.4-0.3,0.9-0.6,1.4-0.8l-0.8,0.3c0.6-0.3,1.3-0.4,2-0.5
			l-0.9,0.1c0.7-0.1,1.3-0.1,2,0l-0.9-0.1c0.6,0.1,1.1,0.2,1.6,0.4l-0.8-0.3c0.5,0.2,0.9,0.5,1.3,0.8l-0.7-0.5
			C1386.5,413.4,1386.6,413.5,1386.7,413.6c0.6,0.6,1.5,0.9,2.4,1c1.8,0,3.3-1.5,3.3-3.3c0-0.9-0.3-1.7-1-2.4
			c-1.8-1.5-4-2.4-6.3-2.4c-2,0-4,0.5-5.8,1.6c-3.6,2.5-5.4,6.8-4.6,11.1c0.6,2.3,2,4.3,3.9,5.6c5,3.2,11.6,1.7,14.8-3.3
			c0,0,0,0,0-0.1c0.9-1.8,1.4-3.8,1.2-5.7c-0.2-2.6-1.4-5-3.3-6.8c-1.3-1.3-3.4-1.3-4.7,0C1385.4,410.2,1385.4,412.2,1386.7,413.6
			L1386.7,413.6z"/>
		<path class="st4" d="M1403.9,500.5c2.8-25.3,5.8-50.6,7-76.1c0.2-3.9,0.1-7.7-0.4-11.5c-0.7-4.1-1.9-8.1-3.5-12
			c-0.5-1.7-2.3-2.7-4.1-2.3c-1.8,0.5-2.8,2.3-2.3,4.1c1.4,3.4,2.5,6.9,3.2,10.5c0.5,3.3,0.6,6.6,0.4,9.9
			c-0.3,6.9-0.7,13.7-1.2,20.5c-0.8,12.3-2.2,24.5-3.6,36.8c-0.7,6.7-1.5,13.4-2.2,20.1c0,1.8,1.5,3.3,3.3,3.3
			C1402.4,503.8,1403.9,502.3,1403.9,500.5L1403.9,500.5z"/>
		<path class="st4" d="M1344.8,274.2c-8.4,4.5-17.4,7.7-26.3,11.1c-4.6,1.7-9.1,3.5-13.5,5.6c-3.7,1.7-7.8,3-11.4,5
			c-8.4,4.7-11.8,15.2-14.7,23.6c-2.9,8.2-5.3,16.6-7.7,24.9c-2.9,10-6,20-9.7,29.7c-0.5,1.8,0.6,3.6,2.3,4.1
			c1.8,0.4,3.6-0.6,4.1-2.3c6.3-16.4,10.3-33.4,15.8-50c1.5-4.4,2.9-9,4.8-13.3c1.5-3.6,3.8-7.7,7-10.1c3.2-2.4,7.4-3.4,11-5
			c4.1-2,8.4-3.7,12.7-5.3c9.8-3.8,19.8-7.2,29.1-12.2C1351.9,277.9,1348.6,272.2,1344.8,274.2L1344.8,274.2z"/>
		<path class="st4" d="M1456.1,279.8c7.2,4.6,14.7,8.7,22.5,12.2c8.4,4.1,16.7,8.3,25.3,11.9c3.5,1.5,7.7,3,10.2,6
			c2.4,3.3,4.1,6.9,5.2,10.8c1.6,4.8,2.8,9.8,3.7,14.8c2.4,12.9,3.7,25.6,4.9,38.8c1.7,17.9,2.9,35.8,3.9,53.7
			c1.5,24.2,2.7,48.3,3.9,72.5c0.2,4.2,6.8,4.3,6.6,0c-1.1-22-2.2-43.9-3.5-65.9c-1.1-18.7-2.3-37.4-4-56c-1.2-14-2.6-28-5-41.9
			c-0.8-4.7-1.8-9.4-3-14c-2.3-8.2-5.4-17.2-13.2-21.6c-3.9-2.2-8.1-3.6-12.1-5.5c-4.2-2-8.5-4-12.8-6.1c-8.3-4-16.7-7.9-24.6-12.6
			c-1.6-0.9-3.1-1.9-4.6-2.9C1455.9,271.7,1452.5,277.5,1456.1,279.8L1456.1,279.8z"/>
		<path class="st4" d="M1443.5,268.8c-4.2,17.1-9.8,33.8-15.6,50.3c-5.8,16.5-11.8,32.9-17.8,49.4c-3.3,9.2-6.7,18.3-10,27.5
			c-0.5,1.8,0.6,3.6,2.3,4.1c1.8,0.4,3.6-0.6,4.1-2.3c11.9-33,24.6-65.8,35.3-99.3c3-9.2,5.7-18.5,8-27.9
			C1450.9,266.4,1444.5,264.7,1443.5,268.8L1443.5,268.8z"/>
		<path class="st4" d="M1427,391.1c8.3-11.9,16.4-24,24.1-36.3c3.9-6.2,7.8-12.5,11.5-18.8c3.7-6.2,7.5-12.3,10.8-18.7
			c1.1-1.8,1.2-4.1,0.3-6c-1.1-1.6-2.4-3.1-3.9-4.4c-2.9-2.9-6-5.7-9-8.4l-0.7,5.2c2.7-1.6,5.4-3.3,8.2-4.8c2.7-1.5,6.6-2.7,5.6-6.7
			c-0.9-2.5-2.2-4.8-3.9-6.9c-1.6-2.1-3.3-4.2-5.1-6.1c-5.1-4.9-10.6-9.4-16.6-13.2c-3.5-2.4-6.9,3.3-3.3,5.7l4,2.7
			c1.6,1.1,3.2,2.2,4.7,3.5c2.9,2.3,5.6,4.8,8.1,7.5c1.1,1.3,2.2,2.6,3.2,4c0.5,0.7,0.9,1.4,1.3,2c0.2,0.4,0.5,0.8,0.7,1.2
			c0.1,0.1,0.5,1.2,0.5,0.9l0.5-1.7l-0.2,0.4l1.2-1.2c-1.9,1.2-3.8,2.2-5.8,3.2c-2.1,1.2-4.2,2.5-6.3,3.7c-1.6,0.9-2.1,3-1.1,4.6
			c0.1,0.2,0.3,0.4,0.5,0.6c2.5,2.2,5,4.5,7.4,6.8c1.2,1.1,2.3,2.3,3.5,3.4c0.1,0.1,0.7,0.9,0.9,0.9c-0.1,0,0-0.7,0-0.7
			c-0.4,0.7-0.8,1.4-1.2,2.1c-3.4,6-6.9,12-10.4,17.9c-7,11.7-14.3,23.2-21.8,34.6c-4.3,6.5-8.7,13-13.2,19.4
			c-0.9,1.6-0.4,3.6,1.2,4.5C1424.1,393.2,1426.1,392.7,1427,391.1L1427,391.1z"/>
		<path class="st4" d="M1497.1,500.5c-1-14-2.5-27.9-3.7-41.9c-0.8-9.3-1.7-18.5-0.6-27.9c2.6-23.4,8-47,11.7-70.5
			c1.3-8.1,2.5-16.2,3.9-24.3c0.7-5.5,1.8-10.9,3.3-16.2c1.2-4.1-5.1-5.8-6.4-1.8c-1.3,4.6-2.2,9.3-2.9,14c-1.2,7-2.3,14.1-3.4,21.2
			c-2,12.5-4.3,25-6.5,37.5c-2.2,12-4.2,24-5.8,36.1c-0.7,4.2-1,8.5-1.1,12.8c0,4.8,0.5,9.6,0.9,14.4c1.3,15.5,2.9,31,4.1,46.6
			c0,1.8,1.5,3.3,3.3,3.3C1495.6,503.8,1497.1,502.3,1497.1,500.5L1497.1,500.5z"/>
		<path class="st4" d="M1294.1,318.9c-0.1-0.9,0.1,0.5,0.1,0.7l0.2,1.5c0.2,1.3,0.3,2.6,0.5,3.8c0.4,3,0.8,6,1.2,9
			c1,7.4,2,14.8,3,22.2c1.8,13,4,25.9,6.3,38.7c2,11.2,4.2,22.9,5.6,33.8c0.6,4,0.9,8,0.9,12.1c-0.1,4.9-0.6,9.8-1,14.6
			c-1.3,15-2.8,30-3.9,45.1c0,1.8,1.5,3.3,3.3,3.3c1.8,0,3.3-1.5,3.3-3.3c1-13.5,2.4-27,3.5-40.5c0.8-9.2,1.9-18.5,0.9-27.8
			c-2.6-24.1-8.2-47.8-11.7-71.7c-2.1-14.4-3.9-28.9-5.8-43.4c-0.5-1.8-2.3-2.8-4.1-2.3C1294.7,315.4,1293.7,317.2,1294.1,318.9
			L1294.1,318.9z"/>
		<path class="st4" d="M1354,270.5c11.6,34.4,23.2,68.7,35.8,102.7c3.6,9.8,7.3,19.7,10.9,29.6c0.5,1.7,2.3,2.7,4.1,2.3
			c1.8-0.5,2.8-2.3,2.3-4.1c-6.3-17.6-13-35.1-19.3-52.7c-6.1-17-12-34.1-17.8-51.2c-3.2-9.4-6.4-18.9-9.5-28.3
			C1359,264.7,1352.7,266.4,1354,270.5L1354,270.5z"/>
		<path class="st4" d="M1382.6,388.5c-15.7-22.4-30.3-45.5-43.9-69.2c-0.5-0.9-1-1.7-1.5-2.6c-0.2-0.4-0.4-0.8-0.6-1.1
			c-0.1-0.2-0.6-1.3-0.5-0.8c0,0.1,0.1,0.4,0,0.5c0.5-0.4,0.9-0.9,1.3-1.4c0.6-0.6,1.2-1.2,1.8-1.8c2.8-2.7,5.7-5.3,8.6-7.9
			c1.3-1.3,1.3-3.4-0.1-4.7c-0.2-0.2-0.4-0.3-0.6-0.5c-2.1-1.2-4.2-2.5-6.3-3.7c-2-0.9-3.9-2-5.8-3.2l1.2,1.2l-0.2-0.4l0.5,1.7
			c0,0.2,0.3-0.5,0.4-0.6c0.2-0.4,0.4-0.8,0.7-1.2c0.5-0.8,0.9-1.6,1.4-2.3c1-1.4,2-2.8,3.1-4.1c2.4-2.8,5.1-5.4,7.9-7.8
			c1.5-1.3,3.1-2.4,4.7-3.5l4-2.7c3.5-2.4,0.2-8.1-3.3-5.7c-6,3.8-11.5,8.3-16.5,13.4c-1.8,2-3.5,4-5,6.2c-1.7,2.1-3,4.4-3.9,7
			c-1,3.8,2.7,5.1,5.3,6.5c2.9,1.6,5.7,3.3,8.5,5l-0.7-5.2c-2.7,2.5-5.5,4.9-8.1,7.5c-2.4,2.3-5.7,4.8-5.5,8.5c0.3,1.7,1,3.3,2,4.7
			c1,1.7,2,3.4,2.9,5.1c1.8,3,3.5,6.1,5.3,9.1c7.4,12.6,15.2,24.9,23.2,37.1c4.5,6.9,9.2,13.7,13.9,20.5c1,1.5,2.9,2.1,4.5,1.2
			C1382.9,392.1,1383.5,390.1,1382.6,388.5L1382.6,388.5z"/>
		<path class="st4" d="M1277.2,404.4c-8.2-18.2-15.7-36.6-23.2-55.1c-0.5-1.8-2.4-2.8-4.2-2.3c-0.2,0.1-0.4,0.2-0.7,0.3
			c-7.8,4.1-15.7,7.8-23.7,11.3c-7.6,3.4-15.4,6.1-23.4,8.1c-1.8,0.5-2.8,2.3-2.3,4.1c4.3,13.6,8.3,27.3,13.1,40.8
			c2.4,7,5,13.9,7.9,20.6c2.3,5.6,4.9,11.1,7.9,16.4c5.8,9.9,14,18.5,25.1,22.2c12.2,4,25.6,2.5,36.5-4.2
			c11.2-6.9,19.1-18.4,27.1-28.5c1.2-1.3,1.2-3.4,0-4.7c-1.3-1.3-3.4-1.3-4.7,0c-6.8,8.6-13.5,18-22.1,25c-8.9,7-20.6,9.6-31.6,7
			c-10.3-2.4-18-9.6-23.5-18.4c-6.6-10.5-10.9-22.5-15.1-34.1c-5.2-14.5-9.6-29.2-14.1-43.8l-2.3,4.1c8.4-2.1,16.6-4.9,24.5-8.5
			c8.2-3.5,16.3-7.3,24.2-11.5l-4.9-2c7.7,19,15.5,38,23.9,56.7c0.9,1.6,2.9,2.1,4.5,1.2C1277.6,408,1278.1,406,1277.2,404.4
			L1277.2,404.4z"/>
		<path class="st4" d="M1227,281.6c-1-5-2.5-9.9-3.9-14.8c-2-7-4-14-6.3-20.8c-1.8-5.3-3.6-11.9-9.3-14.2c-4.7-1.9-11,0.7-12.3,5.8
			c-0.9,3.5,0.1,7.2,0.9,10.6c2.2,9.5,4.6,19,7.2,28.4c1.1,4.1,7.5,2.4,6.4-1.8c-2.2-8-4.2-16.1-6.2-24.1c-0.6-2.7-1.4-5.4-1.8-8.1
			c-0.2-1.3-0.4-3.1,0.2-3.9c1-0.8,2.3-1.1,3.5-0.7c0.6,0.3,1,0.7,1.4,1.2c0.2,0.2,0.8,1,0.3,0.4c0.1,0.1,0.2,0.3,0.3,0.4
			c0.4,0.7,0.7,1.3,1,2c0.2,0.5-0.3-0.6,0.1,0.1c0.1,0.2,0.2,0.5,0.3,0.7c0.2,0.6,0.5,1.2,0.7,1.8c0.5,1.3,0.9,2.5,1.3,3.8
			c2.1,6.4,4,12.9,5.9,19.3c1.4,5.1,3,10.3,4.1,15.5c0.5,1.8,2.3,2.8,4.1,2.3C1226.4,285.1,1227.5,283.3,1227,281.6L1227,281.6z"/>
		<path class="st4" d="M1175.3,309.2c2.4,7.9,6,15.3,10.8,22c2.9,3.8,6.3,7.1,9.3,10.8c2.9,3.6,3.8,7.7,5.1,12.1
			c1.2,4.1,7.6,2.3,6.4-1.8c-1.3-4.3-2.2-8.9-5-12.6c-2.9-4-6.5-7.4-9.7-11.2c-5-6.1-8.2-13.6-10.7-21
			C1180.4,303.4,1174,305.2,1175.3,309.2L1175.3,309.2z"/>
		<path class="st4" d="M1227.7,306.2c-0.4-2.2-0.9-4.5-1.6-6.6c-0.5-2-1.8-3.8-3.5-5c-1.9-1-4-1.6-6.1-1.7c-0.5-0.1-1.1-0.3-1.6-0.3
			c-0.5,0-0.3-0.1-0.1,0c0.6,0.4-0.4-0.6-0.5-0.9c-0.2-0.5-0.2-1.1-0.1-1.6c0-0.2,0.8-1.7,0.5-1.4c1-1,4-1,5.4-1.1
			c1.9-0.2,3.9-0.3,5.8-0.3c2-0.1,4,0.1,5.9,0.5c1.6,0.2,3.1,1,4.3,2.1c1.1,1.4,2,3,2.5,4.7c1.2,3.1,1.8,6.4,1.8,9.8
			c-0.1,5.5-2.8,10.1-4.5,15.3c-0.4,1.3-0.8,2.5-1.2,3.8c-0.1,0.4-0.2,0.7-0.3,1.1c-0.1,0.4-0.1,0.7-0.1,1.1c0.1-1-0.1,0.7-0.1,1
			c-0.4,4.7,0.7,9.5,1.6,14.1c0.9,4.2,7.3,2.4,6.4-1.8c-1-4.3-1.5-8.8-1.3-13.2c0,0.5-0.2,0.8,0,0.2c0.2-0.5,0.3-1,0.4-1.4
			c0.5-1.5,0.9-3,1.5-4.5c0.4-1.3,0.9-2.5,1.4-3.8c0.1-0.3,0.2-0.6,0.3-0.8c0.3-0.8-0.3,0.6,0-0.1c0.4-0.8,0.7-1.5,1-2.3
			c1.3-3.4,1.7-7.1,1.4-10.8c-0.4-4.4-1.5-8.6-3.3-12.6c-1.9-4.2-5.8-7.3-10.3-8.2c-4.5-0.8-9.2-0.9-13.8-0.3
			c-2.3,0.1-4.5,0.5-6.7,1.2c-2.2,0.9-3.9,2.7-4.6,5c-1.9,4.7,0.3,10.7,5.6,11.7c1.5,0.3,4.4,0.1,5.5,1.3c0.5,1,0.9,2.1,1,3.3
			c0.4,1.4,0.7,2.8,1,4.3c0.5,1.8,2.3,2.8,4.1,2.3C1227.1,309.8,1228.1,308,1227.7,306.2L1227.7,306.2z"/>
		<path class="st4" d="M1190.8,308.8C1190.9,309.3,1190.8,308,1190.8,308.8c0,0.8,0.2-0.4,0,0.2c-0.1,0.2-0.5,1.1-0.1,0.4
			c-0.2,0.3-0.3,0.6-0.5,0.9c-0.1,0.1-0.2,0.3-0.3,0.4c0,0,0.4-0.4,0.1-0.2c-0.2,0.2-0.4,0.4-0.6,0.6c0,0-0.3,0.3-0.4,0.3
			c0,0,0.7-0.4,0.1-0.1c-0.1,0.1-0.2,0.1-0.3,0.2c-0.6,0.4,0.1-0.1,0.2,0c0,0-1.1,0.3-0.6,0.2c0.5-0.1-0.1,0-0.2,0
			c-0.1,0-0.3,0-0.4,0c-0.2,0-1.3-0.1-0.5,0c-0.4-0.1-0.7-0.1-1.1-0.2c-0.2-0.1-0.4-0.1-0.5-0.2c0,0-0.5-0.2-0.1,0
			c0.3,0.1-0.5-0.2-0.6-0.3c-0.2-0.1-0.3-0.2-0.4-0.3c0.1,0.1,0.5,0.4,0.1,0c-0.3-0.2-0.5-0.5-0.8-0.8c-0.2-0.3-0.4-0.5-0.7-0.8
			c-0.3-0.4,0.3,0.4,0,0c-0.1-0.1-0.2-0.2-0.3-0.4c-0.5-0.7-0.9-1.3-1.3-2c-0.8-1.2-1.5-2.5-2.2-3.8c0-0.1-0.2-0.6,0-0.1
			c-0.1-0.2-0.1-0.3-0.2-0.4c-0.1-0.3-0.2-0.7-0.3-1.1c-0.1-0.2-0.1-0.4-0.1-0.6c0-0.1-0.1-0.6,0,0c0-0.4,0-0.8,0-1.2
			c0-0.1,0.1-0.7,0,0c0-0.1,0.1-0.3,0.1-0.4c0-0.1,0.1-0.3,0.1-0.4c0-0.3-0.1,0.3-0.1,0.3c0,0,0.2-0.3,0.2-0.4
			c0.2-0.4,0,0.3-0.2,0.2c0,0,0.6-0.6,0.6-0.6c0.4-0.4-0.1,0.2-0.2,0.1c0.1-0.1,0.2-0.2,0.4-0.2c0.1-0.1,0.3-0.1,0.4-0.2
			c0.5-0.3-0.4,0.1-0.1,0c0.3-0.1,0.6-0.2,0.9-0.3c0.1,0,0.3-0.1,0.4-0.1c0.4-0.1-0.8,0-0.1,0c0.3,0,0.6,0,0.9,0c0.5,0-0.2,0-0.2,0
			c0.2,0,0.3,0,0.5,0.1c0.1,0,0.3,0.1,0.4,0.1c0.6,0.1-0.3-0.2,0,0c0.2,0.1,1.1,0.7,0.4,0.2c1.3,1.2,3.4,1.2,4.7,0
			c1.1-1.2,1.5-3.5,0-4.7c-3.2-2.6-7.8-3-11.4-1c-4,2.2-5,6.7-3.9,11c0.6,2.1,1.5,4.1,2.7,5.9c1.1,1.8,2.3,3.5,3.6,5.2
			c2.8,3.3,7.3,4.8,11.5,3.8c4.4-1,8-6.6,6.8-10.9c-0.5-1.8-2.3-2.8-4.1-2.3C1191.3,305.2,1190.3,307,1190.8,308.8L1190.8,308.8z"/>
		<path class="st4" d="M1198.6,283c-3.8-4.1-10.5-3.2-14.3,0.3c-2.1,1.9-3.4,4.5-3.6,7.3c0,2.7,1.6,5.1,2.9,7.3
			c2.1,3.5,4.6,6.9,6.9,10.3c1,1.6,2.2,3,3.6,4.3c2.1,1.6,4.7,2.4,7.3,2.3c6.6-0.3,10.3-6.8,8.6-12.9c-1.1-4.1-7.5-2.4-6.4,1.8
			c0.1,0.3,0.2,0.7,0.2,1.1c0,0.2,0,0.4,0,0.6c0,0-0.1,0.6,0,0.2c-0.1,0.6-0.3,1.2-0.7,1.7c0.3-0.4-0.3,0.3-0.4,0.4
			c-0.2,0.3,0.1,0,0.1-0.1c-0.1,0.1-0.2,0.2-0.3,0.2c-0.4,0.3-1,0.4-1.5,0.3c-0.6,0-1.3-0.1-1.9-0.3c-0.2-0.1-0.4-0.2-0.6-0.3
			c0,0-0.4-0.3,0,0.1c0.5,0.3,0-0.1-0.1-0.1c-0.4-0.4-0.8-0.8-1.1-1.3c-0.2-0.3,0,0,0.1,0.1c-0.1-0.2-0.3-0.3-0.4-0.5
			c-0.2-0.3-0.4-0.6-0.7-0.9c-1.7-2.3-3.3-4.7-4.9-7.1c-1.2-1.7-2.2-3.5-3.2-5.3c-0.2-0.4-0.4-0.8-0.7-1.3c-0.2-0.4-0.1-0.1-0.2-0.5
			c0.1,0.4,0-0.1,0-0.1c0.1-0.3,0.2-0.6,0.3-0.9c0.4-0.7,0.9-1.4,1.5-1.9c0.5-0.4,1-0.7,1.6-0.8c0.6-0.2,1.2-0.2,1.8-0.1
			c-0.4-0.1,0.3,0.1,0.4,0.1c0.5,0.2-0.4-0.1,0.1,0c0.6,0.2,0.3,0.1,0.8,0.6c1.3,1.3,3.4,1.3,4.7,0
			C1199.8,286.4,1199.8,284.3,1198.6,283L1198.6,283z"/>
		<path class="st4" d="M1213.6,297c0.1,0.8,0,1.6-0.3,2.4c0.2-0.4-0.5,0.7-0.3,0.4c-0.2,0.2-0.4,0.4-0.6,0.6
			c-0.3,0.3-0.7,0.4-1.2,0.5c-0.6,0.2-0.2,0.1,0,0.1c-0.2,0-0.3,0-0.5,0c-0.2,0-0.3,0-0.5-0.1c-1.3-0.8-2.3-1.9-2.9-3.3
			c-1.3-2.1-2.6-4.2-4-6.3c-2.2-3.5-4.6-7-5.6-10.9c0-0.1-0.1-0.6,0-0.2c0.1,0.5,0.2-0.4,0,0c-0.2,0.5,0.3-0.9,0-0.3
			c0.2-0.5,0.6-1,1-1.3c1.2-0.9,2.8-1.1,4.1-0.4c1.5,1,2.8,2.3,3.7,3.8c1.2,1.6,2.4,3.3,3.5,5c2.3,3.6,8,0.3,5.7-3.3
			c-1.4-2.1-2.8-4.2-4.4-6.2c-1.4-2.2-3.3-3.9-5.6-5.2c-5.5-2.6-13-0.2-14.5,6.1c-0.7,2.6,0.4,5.3,1.4,7.7c1.2,2.6,2.7,5.1,4.3,7.6
			c1.6,2.6,3.2,5.1,4.8,7.7c1.4,2.5,3.6,4.5,6.3,5.7c3,0.9,6.2,0.2,8.6-1.8c2.4-2.1,3.7-5.2,3.4-8.3c0-1.8-1.5-3.3-3.3-3.3
			C1215.1,293.7,1213.6,295.2,1213.6,297L1213.6,297z"/>
		<path class="st4" d="M1425.2,117.9c3.3,8.3,7.7,16.2,13,23.3c5.5,7.9,11.7,15.7,19.3,21.8c3.1,2.5,6.7,5.1,10.7,6
			c4.2,0.9,5.9-5.5,1.8-6.4c-0.6-0.1-1.3-0.3-1.9-0.6c-0.5-0.2,0.4,0.2-0.3-0.1c-0.4-0.2-0.8-0.4-1.2-0.6c-1.4-0.8-2.7-1.7-4-2.7
			c-3.2-2.6-6.2-5.5-8.9-8.6c-6.2-7-11.7-14.5-16.4-22.6c-1.2-2.1-2.3-4.1-3.4-6.3c-0.4-0.9-0.9-1.8-1.3-2.7
			c-0.1-0.2-0.2-0.4-0.3-0.6c0-0.1-0.1-0.2-0.1-0.3c-0.2-0.5-0.4-1-0.6-1.4c-0.5-1.7-2.3-2.7-4.1-2.3
			C1425.8,114.3,1424.7,116.1,1425.2,117.9L1425.2,117.9z"/>
		<path class="st4" d="M1425.5,115.4c-1.5,1.9-3.2,3.7-5.1,5.3c-2.1,1.9-4.3,3.7-6.6,5.3c-5.7,4.1-11.8,7.6-18.1,10.6
			c-6.7,3.2-13.6,5.7-20.8,7.6c-6.7,1.8-13.3,4-19.6,6.8c-7.7,3.3-15.2,7.4-22.2,12c-3.5,2.3-0.2,8.1,3.3,5.7
			c12.1-8.2,25.5-14.3,39.7-18c14.4-3.7,28-9.9,40.2-18.3c5.6-3.7,10.6-8.3,14.9-13.6c0.9-1.6,0.4-3.6-1.2-4.5
			C1428.5,113.3,1426.5,113.8,1425.5,115.4L1425.5,115.4z"/>
		<path class="st4" d="M1473.1,203.9c0,10.2,1.1,21-1,31.1c-0.3,1.9-1,3.8-2,5.5c-1.1,1.6-2.5,3.1-4.1,4.3c-2.9,2.2-6.1,4-9.5,5.4
			c-1.6,0.9-2.1,2.9-1.2,4.5c1,1.5,2.9,2.1,4.5,1.2c8.1-3.6,16.2-8.9,18.5-18.1c2.7-11,1.5-22.7,1.5-33.9
			C1479.7,199.6,1473.1,199.6,1473.1,203.9L1473.1,203.9z"/>
		<path class="st4" d="M1449.8,246.8c-3.6,2.8-4.3,7.4-1.6,10.6c2.3,2.5,5.6,3.7,9,3.5c3.6-0.1,8.4-3.6,9-7.7
			c0.6-3.9-4.1-7.3-8.4-8.2C1455,244.5,1452.1,245.1,1449.8,246.8z"/>
		<path class="st2" d="M1477.4,160.5c8.5,1.5,12,13,11.3,22.7c-0.7,9.2-3.1,19.1-11.2,23.8c-3.2,1.4-8,2.2-10.8-0.9
			c-2.8-3-3.4-7.5-3.7-11.8c-0.4-7.4-0.1-14.9,0.9-22.2c0.6-4.1,1.4-7.2,4.5-9.8C1471.1,160.5,1474.3,159.8,1477.4,160.5z"/>
		<path class="st4" d="M1476.5,163.7c2.5,0.5,4.7,2.1,5.9,4.4c1.5,2.6,2.4,5.4,2.8,8.4c0.9,6.7,0,13.5-2.6,19.8
			c-1.2,3-3.2,5.5-5.8,7.4c-1.9,1.2-5.3,2.1-7.3,0.5c-2.6-2.1-2.8-6.5-3-9.5c-0.3-4.8-0.3-9.6,0.1-14.4c0.2-2.6,0.4-5.2,0.8-7.7
			c0.2-1.8,0.6-3.5,1.4-5.1C1470.2,164.5,1473.4,163.1,1476.5,163.7c1.8,0.4,3.5-0.6,4.1-2.3c0.5-1.8-0.6-3.6-2.3-4.1
			c-4.7-0.8-9.4,0-12.9,3.4c-3.5,3.4-4.3,8.1-4.9,12.7c-0.8,5.8-1,11.7-0.9,17.5c0.1,4.9,0.3,10.3,2.8,14.7
			c2.4,4.3,7.3,6.6,12.1,5.6c4.3-0.8,8.1-3.2,10.7-6.7c5.3-6.8,7.2-16.7,6.8-25.2c-0.4-8.7-4-20.1-13.8-22.1
			c-1.8-0.4-3.5,0.6-4.1,2.3C1473.8,161.4,1474.8,163.2,1476.5,163.7z"/>
		<path class="st4" d="M1391.1,219.8c4,2.1,8.4,3.1,12.9,3c4.6,0.2,9.2-1.1,13-3.8c1.3-1.3,1.3-3.4,0-4.7c-1.3-1.2-3.4-1.2-4.7,0
			c1-0.8,0.2-0.2,0,0c-0.3,0.2-0.5,0.3-0.8,0.5c-0.2,0.1-1.2,0.5-0.3,0.2c-0.4,0.1-0.7,0.3-1.1,0.4c-1,0.3-2,0.6-3.1,0.7
			c0.5-0.1-0.1,0-0.3,0c-0.3,0-0.6,0.1-0.9,0.1c-0.7,0-1.5,0.1-2.2,0.1c-0.7,0-1.3,0-2-0.1c-0.3,0-0.6,0-0.9-0.1c0,0-1.1-0.2-0.4,0
			c-1-0.1-1.9-0.4-2.9-0.6c-0.4-0.1-0.8-0.3-1.2-0.4c-0.8-0.3,0.5,0.2-0.3-0.1c-0.5-0.2-1-0.5-1.5-0.7c-1.6-0.9-3.6-0.4-4.5,1.2
			C1389,216.9,1389.6,218.9,1391.1,219.8L1391.1,219.8z"/>
		<path class="st4" d="M1402.4,189.4c0.6,2.1,1.1,4.3,1.4,6.5l-0.1-0.9c0,0.3,0.1,0.6,0,0.9l0.1-0.9c0,0.1-0.1,0.3-0.1,0.4l0.3-0.8
			c0,0.1-0.1,0.2-0.1,0.3l0.5-0.7c-0.1,0.1-0.1,0.1-0.2,0.2l0.7-0.5c-0.2,0.1-0.3,0.2-0.5,0.3l0.8-0.3c-0.3,0.1-0.6,0.2-0.9,0.3
			l0.9-0.1c-0.3,0-0.5,0-0.8,0l0.9,0.1c-0.3,0-0.6-0.1-0.9-0.2c-0.4-0.1-0.9-0.2-1.3-0.1c-0.4,0-0.9,0.2-1.2,0.4
			c-1.6,0.9-2.1,2.9-1.2,4.5c0.4,0.8,1.1,1.3,2,1.5c0.7,0.1,1.4,0.3,2.1,0.3c1.1,0,2.1-0.2,3.1-0.7c1.2-0.6,2.1-1.6,2.5-2.9
			c0.2-1,0.2-2.1,0-3.1c-0.4-2.1-0.8-4.2-1.4-6.2c-0.5-1.8-2.3-2.8-4.1-2.3C1402.9,185.8,1401.9,187.6,1402.4,189.4L1402.4,189.4z"
			/>
		<path class="st4" d="M1367.8,170.9c-1.1,3.5-0.4,11.7,6.3,12.4c8.9-0.1,9.3-9.9,6.4-14.5C1378.1,165,1370.9,163.4,1367.8,170.9z"
			/>
		<path class="st4" d="M1438.8,170.9c1.1,3.5,0.4,11.7-6.3,12.4c-8.9-0.1-9.3-9.9-6.4-14.5C1428.6,165,1435.8,163.4,1438.8,170.9z"
			/>
	</g>
	<g style="clip-path:url(#SVGID_00000111181363712036366410000009415723182689577878_);">
		<path d="M115.7,450C79.4,450,50,420.5,50,384.3V115.8C50,79.5,79.5,50,115.7,50H1004c36.3,0,65.7,29.5,65.7,65.7v66.7l60.6,48.9
			c5.9,4.7,9.3,11.6,9.3,18.8c0,7.2-3.4,14.1-9.3,18.8l-60.6,48.9v66.7c0,36.3-29.5,65.7-65.7,65.7H115.7L115.7,450z"/>
		<path class="st2" d="M1121.5,242.1l-65.9-53v-73.3c0-28.5-23.1-51.6-51.6-51.6H115.7c-28.5,0-51.6,23.1-51.6,51.6v268.5
			c0,28.5,23.1,51.6,51.6,51.6H1004c28.5,0,51.6-23.1,51.6-51.6v-73.3l65.9-53C1126.8,253.6,1126.8,246.4,1121.5,242.1z"/>
	</g>
	<g style="clip-path:url(#SVGID_00000111181363712036366410000009415723182689577878_);">
		<path d="M103.6,151.7l-6.1,0.1c-0.3,0-0.4,0-0.5-0.1c0-0.1-0.1-0.2-0.1-0.4v-3.9c0-0.3,0-0.5,0.1-0.5c0.1,0,0.2-0.1,0.4-0.1
			l6.1,0.1h28.9l6.1-0.1c0.3,0,0.4,0,0.5,0.1c0,0.1,0.1,0.2,0.1,0.5v3.9c0,0.3,0,0.4-0.1,0.5c-0.1,0-0.2,0.1-0.4,0.1l-6.1-0.1h-10
			c-0.8,1.5-1.5,2.9-2.3,4.1v24.1l0.1,6.9c0,0.2,0,0.4-0.1,0.5c-0.1,0-0.2,0.1-0.4,0.1h-4.4c-0.2,0-0.4,0-0.4-0.1
			c0,0-0.1-0.2-0.1-0.4l0.1-6.9v-16.9c-4.1,4.8-9,8.8-14.7,12.1c-0.6,0.3-0.9,0.5-1.1,0.5c-0.2,0-0.6-0.4-1-1.1
			c-0.7-1.2-1.6-2.2-2.6-2.9c4.9-2.5,9.3-5.5,13.1-9.2c3.4-3.2,6.1-6.8,8.1-10.6H103.6z M140.6,170.9c-0.8,0.9-1.6,2-2.4,3.3
			c-0.4,0.7-0.7,1.1-0.9,1.1c-0.1,0-0.4-0.2-1.1-0.6c-5.5-3.1-10.3-7.4-14.4-12.6c-0.1-0.2-0.2-0.3-0.2-0.4c0-0.1,0.1-0.3,0.4-0.6
			l2.3-2.2c0.2-0.2,0.3-0.3,0.5-0.3c0.1,0,0.2,0.1,0.4,0.3c2,2.6,4.6,5.1,7.7,7.4C135.5,168.2,138.1,169.7,140.6,170.9z"/>
		<path d="M145,182.5c8-0.7,14-2.3,18.3-4.9c-2.4-0.9-4.7-1.7-7.1-2.3l-1.2,1.6c-0.2,0.2-0.4,0.4-0.6,0.4c-0.2,0-0.4-0.1-0.6-0.2
			l-2.9-1.2c-0.4-0.2-0.7-0.4-0.7-0.5c0-0.1,0.1-0.2,0.2-0.4c0.8-0.8,1.5-1.8,2.3-3c1.2-1.9,2.4-3.8,3.4-5.8h-4.8l-6,0.1
			c-0.3,0-0.4,0-0.5-0.1s-0.1-0.2-0.1-0.4v-3.7c0-0.2,0-0.4,0.1-0.4s0.2-0.1,0.4-0.1l6,0.1h7.1c0.4-0.9,0.8-1.7,1.1-2.4
			c0.8-1.8,1.4-3.4,1.7-4.8c2,0.4,3.7,0.8,5.1,1.2c0.4,0.1,0.6,0.3,0.6,0.6c0,0.3-0.2,0.6-0.6,0.9c-0.4,0.2-0.8,0.8-1.3,1.8
			l-1.2,2.6h17l6-0.1c0.2,0,0.4,0,0.5,0.1c0,0.1,0.1,0.2,0.1,0.4v3.7c0,0.2,0,0.4-0.1,0.4s-0.2,0.1-0.5,0.1l-6-0.1h-3.1
			c-1.4,4-3.3,7.4-5.6,10.1c3.8,1.6,8,3.6,12.8,6.2c0.2,0.1,0.3,0.3,0.3,0.4s-0.1,0.4-0.3,0.7l-2.3,3.3c-0.2,0.3-0.4,0.4-0.6,0.4
			c-0.1,0-0.3-0.1-0.5-0.2c-4.9-3.1-9.2-5.5-13.1-7.3c-4.6,3.5-11.1,5.9-19.7,7.1c-0.4,0-0.7,0.1-0.9,0.1c-0.3,0-0.6-0.1-0.7-0.3
			c-0.1-0.1-0.3-0.5-0.5-1C146.3,184.4,145.7,183.3,145,182.5z M178.9,148.8l6.4-0.1c0.4,0,0.5,0.2,0.5,0.5l-0.1,2.5v1.9l0.1,5.2
			c0,0.2,0,0.4-0.1,0.4s-0.2,0.1-0.4,0.1h-4c-0.2,0-0.4,0-0.4-0.1s-0.1-0.2-0.1-0.4v-5.6h-29.6v5.6c0,0.2,0,0.4-0.1,0.4
			s-0.2,0.1-0.4,0.1h-4c-0.3,0-0.4,0-0.5-0.1s-0.1-0.2-0.1-0.4l0.1-5.2V152l-0.1-2.8c0-0.3,0.2-0.5,0.5-0.5l6.4,0.1h10v-0.6
			c0-2-0.1-3.5-0.4-4.5c1.8,0,3.6,0.1,5.2,0.3c0.5,0,0.8,0.2,0.8,0.4c0,0.1-0.1,0.4-0.3,1c-0.2,0.4-0.3,1.4-0.3,2.9v0.6H178.9z
			 M158.6,171.6c3.2,0.9,6.2,1.8,8.9,2.8c2.1-2.2,3.8-4.9,5-8.2h-10.8C160.9,167.8,159.9,169.5,158.6,171.6z"/>
		<path d="M209.9,144.2c2.2,0.4,4.1,0.8,5.5,1.4c0.4,0.1,0.6,0.4,0.6,0.8c0,0.3-0.1,0.5-0.3,0.7c-0.3,0.2-0.6,0.6-0.8,1.1
			c-0.1,0.2-0.2,0.4-0.3,0.7c-0.3,0.7-0.6,1.3-0.8,1.9c3.1-0.4,6-0.9,8.7-1.5c0.1,0,0.2,0,0.3,0c0.2,0,0.4,0.2,0.5,0.5
			c0.3,1.1,0.4,2.3,0.5,3.4c0,0.1,0,0.1,0,0.1c0,0.3-0.3,0.6-0.8,0.6c-3.7,0.5-7.5,1-11.2,1.5c-1.6,2.5-2.8,4.3-3.6,5.3l0,0.1
			c1.5-1,3.1-1.5,4.8-1.5c3.5,0,5.4,1.7,5.8,5.2c3.3-1.5,5.6-2.6,7.1-3.4c1.5-0.8,2.8-1.7,3.6-2.6c1.5,1.6,2.6,3,3.4,4.2
			c0.2,0.4,0.4,0.7,0.4,1.1c0,0.4-0.2,0.6-0.7,0.7c-1,0.1-1.9,0.4-2.9,0.7c-4.7,1.7-8.1,2.9-10.3,3.8v7.7c0,0.5-0.3,0.8-0.9,0.9
			c-1,0.2-2.2,0.2-3.4,0.2c-0.4,0-0.6-0.3-0.6-0.8c0-2.8,0-4.7,0-5.8c-2.2,1.1-3.8,2.3-4.7,3.4c-0.8,0.9-1.1,1.9-1.1,3
			c0,2.2,2.2,3.3,6.7,3.3c3.5,0,7.5-0.3,12-1c0,0,0.1,0,0.1,0c0.3,0,0.5,0.2,0.5,0.5c0.3,1.3,0.4,2.6,0.4,3.9c0,0.1,0,0.1,0,0.2
			c0,0.5-0.2,0.7-0.5,0.7c-3.2,0.4-7.2,0.6-11.9,0.6c-8,0-12-2.6-12-7.9c0-2.5,0.9-4.6,2.7-6.5c1.6-1.7,4.1-3.4,7.5-5.2
			c-0.1-1.3-0.3-2.2-0.7-2.6c-0.4-0.5-1-0.7-1.9-0.7c-0.1,0-0.2,0-0.3,0c-1.9,0.1-4.1,1.2-6.6,3.5c-1.5,1.5-3.1,3.2-4.8,5.2
			c-0.2,0.3-0.4,0.4-0.6,0.4c-0.1,0-0.3-0.1-0.5-0.3c-1.4-1.4-2.3-2.4-2.7-3.2c-0.1-0.2-0.2-0.3-0.2-0.4c0-0.2,0.1-0.3,0.3-0.5
			c4.4-3.9,7.7-7.9,10.1-11.9c-2.2,0.1-4.8,0.1-7.7,0.1c-0.4,0-0.6-0.3-0.7-0.8c-0.1-0.6-0.3-1.9-0.5-4c1.5,0.1,3.1,0.1,4.8,0.1
			c2,0,4.1-0.1,6.2-0.2c0.6-1.4,1.1-2.8,1.4-4.1C209.8,146.1,209.9,145.2,209.9,144.2z"/>
		<path d="M255.1,182.8c0.8,0,1.2-0.6,1.2-1.5v-6.7h-9.6c-0.4,4.7-1.3,8.6-2.8,11.6c-0.3,0.6-0.6,0.9-0.8,0.9
			c-0.1,0-0.4-0.2-0.7-0.5c-0.8-1-1.7-1.9-2.7-2.6c1.3-2.5,2.2-5.1,2.7-8c0.4-2.5,0.6-6,0.6-10.4v-6.5l-0.4,0.4
			c-0.4,0.5-0.7,0.7-0.8,0.7c-0.2,0-0.4-0.3-0.8-1c-0.6-1-1.2-1.8-1.9-2.5c2.9-3,5-6.3,6.5-10.1c0.5-1.1,0.8-2.2,0.9-3.3
			c1.7,0.3,3,0.6,4,1c0.5,0.1,0.8,0.4,0.8,0.7c0,0.3-0.1,0.5-0.4,0.8c-0.3,0.3-0.7,0.9-1,1.6h4.7c0.4,0,0.7,0,0.9-0.1
			c0.3-0.1,0.5-0.2,0.6-0.2c0.2,0,0.8,0.3,1.6,1c0.8,0.6,1.2,1.1,1.2,1.4c0,0.3-0.2,0.6-0.5,0.8c-0.3,0.3-0.6,0.7-1,1.4
			c-0.7,1.4-1.3,2.5-1.9,3.5l4.1-0.1c0.3,0,0.5,0,0.5,0.1c0,0.1,0.1,0.2,0.1,0.4l-0.1,5.6v14.3l0.1,6.4c0,1.9-0.4,3.2-1.2,4
			c-0.8,0.6-2.5,1-5.2,1c-0.8,0-1.3-0.1-1.4-0.2c-0.1-0.1-0.3-0.5-0.4-1.2c-0.3-1.3-0.7-2.3-1.2-3.1
			C252.5,182.7,253.9,182.8,255.1,182.8z M246,155.4h5.2c0.8-1.5,1.5-2.8,2-4.2h-4.8C247.7,152.6,246.9,153.9,246,155.4z M247,170.9
			h2.8v-4.2h-2.7C247.1,167.8,247.1,169.2,247,170.9z M247.1,163h2.7v-4h-2.7V163z M256.4,159h-2.7v4h2.7V159z M253.6,170.9h2.7
			v-4.2h-2.7V170.9z M270.6,160.9c1.8,0.1,3.3,0.2,4.6,0.3c0.4,0,0.6,0.2,0.6,0.5c0,0.1-0.1,0.4-0.3,0.8c-0.2,0.4-0.2,1.1-0.2,2.1
			v1.2l6.7-0.1c0.2,0,0.4,0,0.4,0.1s0.1,0.2,0.1,0.4v3.2c0,0.3,0,0.4-0.1,0.5s-0.2,0.1-0.4,0.1l-6.7-0.1v4.5h2.2l5.9-0.1
			c0.2,0,0.4,0,0.4,0.1s0.1,0.2,0.1,0.4v3.3c0,0.3,0,0.4-0.1,0.5s-0.2,0.1-0.4,0.1l-5.9-0.1h-2.2v1.9l0.1,6.2c0,0.2,0,0.4-0.1,0.5
			c-0.1,0-0.2,0.1-0.4,0.1h-3.5c-0.3,0-0.4,0-0.5-0.1c0,0-0.1-0.2-0.1-0.4l0.1-6.2v-1.9h-2.8l-5.9,0.1c-0.2,0-0.4,0-0.5-0.1
			c0-0.1-0.1-0.2-0.1-0.5v-3.3c0-0.2,0-0.4,0.1-0.4s0.2-0.1,0.5-0.1l5.9,0.1h2.8V170h-4.5c-0.1,0.4-0.3,0.8-0.6,1.3
			c-0.3,0.6-0.4,1-0.5,1.1c-0.4,0.7-0.7,1.1-0.9,1.1s-0.6-0.2-1.1-0.6c-0.8-0.5-1.7-0.8-2.7-1.1c1.3-2.2,2.4-4.5,3.2-7.1
			c0.3-1.1,0.4-1.9,0.5-2.6c1.2,0.3,2.4,0.6,3.6,1c0.5,0.2,0.8,0.4,0.8,0.6s0,0.4-0.1,0.5c-0.2,0.3-0.4,0.8-0.6,1.5l-0.1,0.2h3v-1.2
			C270.9,163.2,270.8,162,270.6,160.9z M262.6,145.9l5.6,0.1h8.1l5.6-0.1c0.4,0,0.6,0.1,0.6,0.4c0,0,0,0.1,0,0.1l-0.1,2.4
			c-0.2,4.4-0.6,7.4-1.2,8.8c-0.7,1.6-2.2,2.4-4.5,2.4c-1,0-1.8,0-2.5-0.1c-0.7-0.1-1.1-0.2-1.3-0.3c-0.1-0.1-0.2-0.4-0.3-0.9
			c-0.1-1.4-0.4-2.5-0.9-3.4c1.4,0.3,2.5,0.4,3.4,0.4c0.7,0,1.2-0.1,1.5-0.3c0.2-0.2,0.4-0.5,0.6-0.9c0.2-0.8,0.4-2.3,0.5-4.5h-5.3
			c-0.5,2.8-1.4,5-2.6,6.8c-1.1,1.5-2.6,2.9-4.5,4.1c-0.6,0.4-0.9,0.5-1.1,0.5c-0.2,0-0.5-0.3-0.9-1c-0.6-0.9-1.4-1.7-2.4-2.4
			c2.2-1.1,3.9-2.3,4.9-3.7c0.9-1.2,1.5-2.7,1.9-4.5l-5,0.1c-0.2,0-0.4,0-0.4-0.1s-0.1-0.2-0.1-0.4v-3.2c0-0.3,0-0.4,0.1-0.5
			S262.3,145.9,262.6,145.9z"/>
		<path d="M291.8,156.5c2.5,1.4,4.9,3.1,7.2,5.2c0.2,0.2,0.3,0.3,0.3,0.4c0,0.1-0.1,0.3-0.3,0.6l-2.2,3.1c-0.1,0.2-0.2,0.3-0.4,0.3
			c-0.1,0-0.2-0.1-0.4-0.3c-2.2-2.2-4.6-4-7.1-5.5c-0.2-0.2-0.4-0.3-0.4-0.4c0-0.1,0.1-0.3,0.3-0.6l2-2.6c0.2-0.3,0.4-0.4,0.5-0.4
			C291.4,156.4,291.6,156.4,291.8,156.5z M288.8,184c0.8-0.9,1.6-2.1,2.6-3.8c1.7-2.9,3.3-6.6,4.9-11c0.8,0.9,1.7,1.7,2.6,2.5
			c0.7,0.5,1.1,1,1.1,1.2c0,0.2-0.1,0.6-0.3,1.1c-1.9,4.7-3.5,8.2-4.7,10.6c-0.5,1-0.8,1.6-0.8,1.8c-0.1,0.4-0.3,0.6-0.6,0.6
			c-0.3,0-0.6-0.1-0.9-0.3C291.5,186,290.2,185.1,288.8,184z M294,144.4c1.9,1.1,4.1,2.9,6.8,5.3c0.2,0.1,0.3,0.3,0.3,0.4
			c0,0.1-0.1,0.3-0.3,0.6l-2.2,3c-0.2,0.3-0.3,0.4-0.5,0.4c-0.1,0-0.2-0.1-0.4-0.3c-2.3-2.3-4.6-4.2-6.8-5.7
			c-0.2-0.1-0.3-0.2-0.3-0.4c0-0.1,0.1-0.3,0.3-0.5l2.2-2.6c0.2-0.3,0.4-0.4,0.5-0.4C293.7,144.2,293.8,144.3,294,144.4z
			 M306.5,145.6c1.6,2.2,3,4.7,4.1,7.5c0.1,0.2,0.1,0.3,0.1,0.4c0,0.1-0.2,0.3-0.6,0.5l-3.2,1.5c-0.3,0.1-0.5,0.2-0.6,0.2
			c-0.1,0-0.2-0.1-0.3-0.4c-0.9-2.7-2.2-5.2-3.9-7.5c-0.1-0.2-0.2-0.3-0.2-0.4c0-0.1,0.2-0.3,0.6-0.5l3-1.4c0.3-0.1,0.5-0.2,0.6-0.2
			C306.2,145.3,306.3,145.4,306.5,145.6z M317.7,182.4c1.8,0.1,3.1,0.1,4,0.1c0.7,0,1.1-0.1,1.3-0.3c0.2-0.2,0.3-0.5,0.3-0.9v-4
			h-14.7v3.5l0.1,6.2c0,0.2,0,0.4-0.1,0.4s-0.2,0.1-0.4,0.1h-4c-0.2,0-0.4,0-0.4-0.1s-0.1-0.2-0.1-0.4l0.1-6.4v-16.4l-0.1-6.5
			c0-0.3,0-0.4,0.1-0.5s0.2-0.1,0.4-0.1l6.2,0.1h2.9v-7.1c0-3-0.1-5.2-0.3-6.7c2,0.1,3.8,0.2,5.2,0.3c0.5,0,0.7,0.2,0.7,0.5
			c0,0.3-0.1,0.6-0.3,1.1c-0.2,0.4-0.3,1.8-0.3,4.1v7.8h3.2l6.2-0.1c0.3,0,0.4,0,0.5,0.1s0.1,0.2,0.1,0.4l-0.1,6.9v11l0,6.5
			c0,1.1-0.1,1.9-0.2,2.4c-0.2,0.6-0.5,1.1-1,1.5c-0.9,0.7-3,1.1-6.3,1.1c-0.8,0-1.3-0.1-1.4-0.2s-0.3-0.5-0.4-1.2
			C318.7,184.5,318.2,183.3,317.7,182.4z M323.3,161.7h-14.7v3.8h14.7V161.7z M308.5,173.3h14.7v-3.9h-14.7V173.3z M320.8,154
			c1.5-2.2,2.8-4.5,3.8-7c0.3-0.8,0.5-1.5,0.6-2.1c1.6,0.6,3.1,1.3,4.4,2c0.4,0.2,0.6,0.5,0.6,0.7c0,0.2-0.1,0.4-0.4,0.6
			c-0.3,0.2-0.6,0.6-0.8,1c-1,1.9-2,3.8-3.2,5.7c-0.5,0.7-0.8,1-1,1c-0.2,0-0.6-0.2-1.2-0.5C322.9,154.9,321.9,154.4,320.8,154z"/>
		<path d="M112.9,239.1l-0.6-3.1c-0.5-2.3-1.1-4.3-1.9-6c1.9-0.1,3.4-0.2,4.4-0.2c0.7,0,1.3,0,1.8,0.1c0.6,0,1,0.3,1,0.7l-0.1,1.5
			c0,0.6,0.1,1.2,0.2,1.9l0.7,4l3.9-0.7c4.2-0.7,7-1.3,8.6-1.7c0.3,0,0.4,0.2,0.5,0.5c0.4,1.2,0.7,2.5,1,4.1c0,0.3-0.2,0.5-0.7,0.5
			c-0.5,0.1-2,0.3-4.2,0.7c-1.7,0.3-2.9,0.5-3.8,0.7l-4.2,0.8l1.2,6.2l7-1.2c3-0.5,5.5-1,7.5-1.6c0.1,0,0.3,0,0.4,0
			c0.3,0,0.4,0.2,0.5,0.6c0.4,1.4,0.7,2.6,0.8,3.8c0,0.5-0.2,0.8-0.7,0.8c-1.1,0.1-3.6,0.6-7.7,1.2l-6.6,1.1l1.1,5.3
			c0.4,2,1.1,4.8,2.1,8.7c0,0,0,0.1,0,0.1c0,0.2-0.2,0.3-0.6,0.5c-1.3,0.4-2.8,0.8-4.4,1c-0.1,0-0.1,0-0.2,0c-0.5,0-0.8-0.2-0.8-0.6
			c-0.1-0.3-0.2-1.1-0.4-2.2c-0.4-2.6-0.8-4.6-1.1-6l-1.2-5.7l-6.5,1.2c-3.2,0.6-5.8,1.1-7.8,1.6c-0.1,0-0.3,0.1-0.4,0.1
			c-0.3,0-0.6-0.2-0.7-0.6c-0.4-1.1-0.8-2.7-1.3-4.8c2.5-0.3,5.4-0.7,8.9-1.3l6.7-1.1l-1.2-6.2l-4.5,0.7c-2.9,0.5-5.2,1-7.1,1.5
			c-0.1,0-0.2,0-0.3,0c-0.2,0-0.4-0.2-0.6-0.5c-0.5-1.2-0.9-2.8-1.3-4.8c2.4-0.2,5.2-0.5,8.5-1.1L112.9,239.1z"/>
		<path d="M161,252.5l-2.8,0.7c-1.7,0.4-3.4,1-5.3,1.9c-0.4,0.2-0.7,0.2-0.9,0.2c-0.3,0-0.6-0.2-0.8-0.7c-0.5-0.8-1-2.2-1.7-4.2
			c1.5-0.2,3.9-0.7,7.3-1.6l2.9-0.8l-1.1-4c-0.5-1.9-1.2-3.5-2-4.9c2.9-0.3,4.8-0.5,5.6-0.5c0.7,0,1,0.2,1,0.8c0,0.1,0,0.1,0,0.2
			c0,0.3-0.1,0.6-0.1,0.9c0,0.7,0.1,1.5,0.4,2.5l0.9,3.6l10.4-2.6c1.1-0.3,1.9-0.6,2.4-1.1c0.2-0.2,0.4-0.3,0.6-0.3
			c0.2,0,0.5,0.1,0.8,0.4c1.3,1,2.3,1.8,2.8,2.4c0.2,0.2,0.4,0.5,0.4,0.7c0,0.3-0.2,0.6-0.5,1c-0.3,0.3-0.5,0.6-0.8,1
			c-2,3.9-3.8,6.9-5.4,9c-0.2,0.3-0.5,0.4-0.7,0.4c-0.2,0-0.4-0.1-0.7-0.2c-1-0.6-2.3-1.1-3.8-1.5c2.2-2.4,3.9-4.9,5.1-7.3l-9.3,2.4
			l2.2,8.7c0.3,1,0.7,2.4,1.2,4.4c0.4,1.5,0.8,2.7,1,3.6c0,0.2,0.1,0.3,0.1,0.4c0,0.4-0.2,0.7-0.7,0.8c-0.8,0.4-1.8,0.7-3.2,1
			c-0.2,0-0.3,0.1-0.5,0.1c-0.4,0-0.6-0.3-0.7-0.8c-0.4-1.6-1-4.3-1.9-8L161,252.5z"/>
		<path d="M196.4,237.9c0.8-1,1.9-2.2,3.4-3.8c0.2-0.2,0.4-0.4,0.7-0.4c0.1,0,0.4,0.1,0.6,0.2c3,1.6,6,3.9,9.2,6.8
			c0.3,0.3,0.4,0.5,0.4,0.7s-0.1,0.4-0.3,0.6c-1,1.4-2,2.6-3,3.6c-0.3,0.2-0.5,0.4-0.6,0.4c-0.2,0-0.4-0.1-0.6-0.4
			C203.3,242.7,200,240.1,196.4,237.9z M197.5,261.8c2.6-0.7,4.7-1.5,6.5-2.4c3.1-1.6,5.7-3.1,7.7-4.4c1.8-1.2,3.8-2.7,6.1-4.5
			c3.2-2.6,5.8-4.9,7.7-6.8c1.8-1.8,3.6-3.9,5.5-6.3c0.2,2.1,0.7,4,1.3,5.6c0.2,0.4,0.2,0.7,0.2,0.9c0,0.4-0.3,0.8-0.8,1.5
			c-2.8,3.3-6.5,6.7-11,10.2c-4,3.1-8.8,6.2-14.5,9.4c-1.7,1-2.8,1.8-3.2,2.2c-0.3,0.3-0.6,0.5-0.9,0.5s-0.5-0.2-0.8-0.5
			C199.8,265.5,198.5,263.7,197.5,261.8z"/>
		<path d="M253.8,244.2v-4.6c0-3.5-0.2-6.3-0.6-8.5c2.7,0.2,4.7,0.5,6.2,1c0.6,0.1,0.9,0.4,0.9,0.9c0,0.2-0.1,0.5-0.3,0.8
			c-0.4,0.8-0.6,2.2-0.6,4.3v4.9l12.5-2.9c1.5-0.3,2.7-0.8,3.4-1.4c0.2-0.2,0.5-0.3,0.7-0.3c0.2,0,0.4,0.1,0.7,0.3
			c1.2,0.8,2.4,1.8,3.6,3.1c0.3,0.3,0.4,0.6,0.4,0.9c0,0.3-0.2,0.6-0.6,1c-0.3,0.2-0.8,0.9-1.5,1.9c-2.7,4.6-5.3,8-7.6,10.4
			c-0.5,0.5-0.9,0.7-1.2,0.7c-0.3,0-0.6-0.1-0.9-0.3c-1.5-0.9-2.9-1.5-4-1.8c2.8-2.4,5.4-5.6,7.8-9.6l-13.2,3.4V259
			c0,1.4,0.4,2.3,1.3,2.7c0.8,0.4,2.4,0.6,4.8,0.6c3.8,0,7.6-0.4,11.6-1.1c0.1,0,0.1,0,0.2,0c0.3,0,0.5,0.3,0.6,1
			c0.3,1.5,0.4,2.9,0.4,4c0,0.4-0.3,0.7-1,0.7c-3.3,0.4-7.1,0.6-11.5,0.6c-4.9,0-8.1-0.7-9.8-2.1c-1.5-1.2-2.2-3.4-2.2-6.4v-9.7
			l-3.1,0.8c-3.4,0.9-5.7,1.6-6.8,2.1c-0.3,0.1-0.5,0.2-0.6,0.2c-0.3,0-0.5-0.3-0.8-0.8c-0.5-0.9-1.1-2.6-1.9-4.9
			c3.1-0.4,6.1-0.9,9-1.7L253.8,244.2z"/>
		<path d="M298.1,236.3c3.1,0.4,5.1,0.7,6.1,1.1c0.5,0.1,0.8,0.4,0.8,0.9c0,0.2,0,0.4-0.1,0.6c-0.4,0.8-0.6,1.9-0.6,3.3
			c-0.1,5.8-1,10.5-2.6,14.1c-1.4,3.3-3.7,6.3-6.8,9c-0.5,0.4-0.9,0.6-1.2,0.6c-0.2,0-0.6-0.1-0.9-0.4c-1.1-0.8-2.5-1.5-4.1-2
			c3.8-2.8,6.4-6,8-9.6c0.8-1.9,1.3-3.7,1.5-5.6c0.3-1.9,0.5-4.6,0.5-8C298.6,238.8,298.5,237.5,298.1,236.3z M314.9,257.6
			c2.1-1.1,4.4-2.6,6.8-4.5c3.3-2.5,6.1-5.2,8.4-8.2c0.2,1.7,0.7,3.3,1.5,4.9c0.2,0.5,0.3,0.7,0.3,0.8c0,0.3-0.2,0.7-0.7,1.2
			c-2.4,2.4-4.7,4.5-7.1,6.3c-2.8,2.1-5.6,4-8.5,5.8c-0.5,0.3-0.9,0.6-1.4,1c-0.3,0.2-0.6,0.4-1,0.4c-0.2,0-0.6-0.1-1-0.4
			c-0.9-0.6-1.9-1.6-2.9-2.9c-0.3-0.4-0.4-0.8-0.4-1s0.1-0.5,0.2-0.7c0.2-0.4,0.3-1.6,0.3-3.7v-15c0-4.1-0.2-6.9-0.5-8.4
			c3,0.4,5,0.7,6,1c0.6,0.1,0.9,0.4,0.9,0.8c0,0.3-0.1,0.7-0.4,1.2c-0.3,0.6-0.4,2.4-0.4,5.3V257.6z"/>
		<path d="M342.6,230.3c2.7,0.7,4.5,1.2,5.5,1.7c0.5,0.3,0.7,0.6,0.7,1c0,0.3-0.1,0.6-0.3,1.1c-0.3,0.5-0.6,1.3-0.9,2.6
			c-1.6,7.3-2.4,13.2-2.4,17.5c0,2.8,0,4.8,0.1,6.1c0.2-0.5,0.8-1.7,1.6-3.5c0.6-1.3,1-2.3,1.4-3.2c0.6,1.3,1.1,2.3,1.7,3
			c0.2,0.2,0.3,0.5,0.3,0.7s-0.1,0.5-0.3,0.8c-1.4,3.1-2.2,5.6-2.5,7.3c-0.1,0.5-0.1,1-0.1,1.5c0,0.3,0,0.6,0.1,1.1c0,0,0,0.1,0,0.1
			c0,0.2-0.2,0.4-0.6,0.5c-0.9,0.3-2.1,0.6-3.6,0.8c-0.2,0-0.3,0.1-0.4,0.1c-0.2,0-0.4-0.2-0.6-0.6c-1.4-3.5-2.1-8.4-2.1-14.6
			c0-4.1,0.7-10.1,2-18.2c0.3-1.9,0.4-3.3,0.4-4.3C342.7,231.1,342.6,230.7,342.6,230.3z M364.8,255.8c-0.1-2.6-0.1-6.3-0.2-11
			c-2.2,0.1-4,0.1-5.3,0.1c-1.7,0-3.3,0-4.6-0.1c-0.5,0-0.8-0.2-0.8-0.6c-0.2-1.3-0.4-2.8-0.4-4.4c2.1,0.2,4.3,0.3,6.4,0.3
			c1.5,0,3-0.1,4.5-0.2l0-5c0-1.7-0.3-3.2-0.6-4.7c2.6,0.2,4.5,0.5,5.8,0.9c0.6,0.2,0.9,0.4,0.9,0.8c0,0.1-0.1,0.4-0.3,0.8
			c-0.2,0.5-0.3,1-0.4,1.7c-0.1,1.1-0.1,2.8-0.1,5.1c2.1-0.2,4.4-0.5,6.8-0.9c0.1,0,0.2,0,0.3,0c0.2,0,0.4,0.2,0.5,0.6
			c0.2,0.9,0.3,2,0.3,3.4c0,0.4-0.2,0.7-0.5,0.7c-1.7,0.4-4.1,0.8-7.4,1c0,4.7,0.1,9,0.4,12.9c2.9,1.2,5.6,2.7,8,4.6
			c0.2,0.2,0.4,0.3,0.4,0.5c0,0.1,0,0.2-0.1,0.5c-0.7,1.5-1.5,2.7-2.2,3.7c-0.2,0.2-0.3,0.3-0.4,0.3c-0.1,0-0.3-0.1-0.4-0.2
			c-1.5-1.4-3.2-2.7-5.2-3.8c-0.4,4.2-3.3,6.2-8.8,6.2c-2.9,0-5.1-0.7-6.7-2c-1.3-1.2-1.9-2.7-1.9-4.7c0-2.1,0.9-3.8,2.7-5.1
			c1.5-1.1,3.5-1.7,5.7-1.7C362.3,255.4,363.5,255.6,364.8,255.8z M364.9,260.4c-1.3-0.4-2.7-0.6-4.2-0.6c-2.4,0-3.6,0.8-3.6,2.3
			c0,1.6,1.3,2.4,3.9,2.4c1.2,0,2.2-0.3,3-1c0.6-0.6,0.9-1.3,0.9-2.1C364.9,260.9,364.9,260.6,364.9,260.4z"/>
		<path class="st5" d="M391.4,267.1l-6,0.1c-0.2,0-0.4,0-0.4-0.1s-0.1-0.2-0.1-0.4v-4c0-0.3,0-0.4,0.1-0.5s0.2-0.1,0.4-0.1l6,0.1
			H403v-24.8h-8.4l-6.5,0.1c-0.2,0-0.4,0-0.4-0.1s-0.1-0.2-0.1-0.4v-4.1c0-0.2,0-0.4,0.1-0.4s0.2-0.1,0.4-0.1l6.5,0.1h23l6.4-0.1
			c0.2,0,0.4,0,0.4,0.1s0.1,0.2,0.1,0.4v4.1c0,0.2,0,0.4-0.1,0.4s-0.2,0.1-0.4,0.1l-6.4-0.1h-9.2v24.8h12.2l6-0.1
			c0.2,0,0.4,0,0.5,0.1c0,0.1,0.1,0.2,0.1,0.4v4c0,0.2,0,0.4-0.1,0.4s-0.2,0.1-0.5,0.1l-6-0.1H391.4z"/>
		<path class="st5" d="M438.7,257.9l-5.9,0.1c-0.3,0-0.5-0.2-0.5-0.5v-2.9c0-0.4,0.2-0.5,0.5-0.5l5.9,0.1h12.9v-2.2h-7.9l-6.5,0.1
			c-0.4,0-0.5-0.2-0.5-0.5v-2.6c0-0.2,0-0.4,0.1-0.4c0,0,0.2-0.1,0.4-0.1l6.5,0.1h7.9v-2.1h-6.2l-6.7,0.1c-0.3,0-0.5,0-0.5-0.1
			c0-0.1-0.1-0.2-0.1-0.5l0.1-2.5v-2.6l-0.1-2.5c0-0.3,0-0.4,0.1-0.5c0.1,0,0.2-0.1,0.5-0.1l6.7,0.1h6.2v-2.1h-12.1l-6.1,0.1
			c-0.2,0-0.4,0-0.4-0.1s-0.1-0.2-0.1-0.4v-3c0-0.2,0-0.4,0.1-0.4s0.2-0.1,0.4-0.1l6.1,0.1h12.1c0-1.7-0.1-3.2-0.3-4.4
			c2.2,0,3.8,0.1,5,0.3c0.5,0.1,0.8,0.2,0.8,0.5c0,0.2-0.1,0.5-0.3,0.9c-0.2,0.5-0.3,1.4-0.3,2.7h12.2l6.1-0.1c0.3,0,0.4,0,0.5,0.1
			s0.1,0.2,0.1,0.4v3c0,0.2,0,0.4-0.1,0.4s-0.2,0.1-0.4,0.1l-6.1-0.1h-12.2v2.1h6.4l6.7-0.1c0.3,0,0.4,0,0.5,0.1
			c0,0.1,0.1,0.2,0.1,0.4l-0.1,2.5v2.6l0.1,2.5c0,0.3,0,0.5-0.1,0.5c-0.1,0-0.2,0.1-0.4,0.1l-6.7-0.1h-6.4v2.1h7.8l6.6-0.1
			c0.3,0,0.4,0,0.5,0.1s0.1,0.2,0.1,0.4l-0.1,4.2v1.1l4.2-0.1c0.3,0,0.5,0.2,0.5,0.5v2.9c0,0.3-0.2,0.5-0.5,0.5l-1.2,0
			c-0.9,0-1.9-0.1-2.9-0.1v2.4l0.1,4.4c0,0.2,0,0.4-0.1,0.5s-0.2,0.1-0.5,0.1h-3.7c-0.2,0-0.4,0-0.5-0.1c0,0-0.1-0.2-0.1-0.4v-1.1
			h-10.1c0,0.6,0,1.4,0,2.4c0,2.2-0.6,3.6-1.7,4.3c-1.2,0.7-3.4,1-6.8,1.1c-0.8,0-1.2-0.1-1.4-0.2c-0.1-0.1-0.3-0.5-0.5-1.1
			c-0.5-1.4-1.1-2.6-1.9-3.7c1.3,0.1,2.5,0.2,3.7,0.2c0.3,0,0.7,0,1.2,0c1.1,0,1.8-0.2,2.1-0.4c0.3-0.2,0.4-0.7,0.4-1.3v-1.1h-7.9
			l-6.6,0.1c-0.2,0-0.4,0-0.5-0.1c0-0.1-0.1-0.2-0.1-0.5v-2.6c0-0.3,0-0.5,0.1-0.5c0,0,0.2-0.1,0.4-0.1l6.6,0.1h7.9v-2.2H438.7z
			 M442.9,243.2h8.7v-2.4h-8.7V243.2z M465.3,243.2v-2.4h-8.9v2.4H465.3z M466.6,251.9h-10.2v2.2h10.2V251.9z M456.4,260.1h10.2
			v-2.2h-10.2V260.1z"/>
		<path class="st5" d="M487.3,238.9l-6,0.1c-0.3,0-0.4,0-0.5-0.1c0-0.1-0.1-0.2-0.1-0.5v-3.7c0-0.2,0-0.4,0.1-0.4s0.2-0.1,0.4-0.1
			l6,0.1h5.6c-0.8-1.7-1.7-3.3-2.7-4.8c-0.1-0.2-0.2-0.3-0.2-0.4c0-0.1,0.2-0.3,0.5-0.4l3.3-1.2c0.3-0.1,0.5-0.2,0.6-0.2
			c0.1,0,0.3,0.1,0.4,0.4c1.2,1.6,2.1,3.1,2.8,4.6c0.1,0.2,0.1,0.3,0.1,0.3c0,0.1-0.2,0.3-0.7,0.4l-3,1.2h10.8
			c1.2-1.7,2.2-3.3,2.9-4.7c0.4-0.9,0.7-1.7,0.9-2.4c2.2,0.5,3.8,0.9,4.8,1.3c0.5,0.2,0.7,0.4,0.7,0.7c0,0.2-0.1,0.4-0.4,0.6
			c-0.3,0.2-0.7,0.8-1.3,1.7c-0.5,0.9-1.2,1.8-1.9,2.8h6.3l6-0.1c0.2,0,0.4,0,0.5,0.1c0,0.1,0.1,0.2,0.1,0.4v3.7
			c0,0.3,0,0.5-0.1,0.5c0,0-0.2,0.1-0.4,0.1l-6-0.1H487.3z M491.8,266.7c1.3,0.1,2.3,0.1,3.2,0.1c0.7,0,1.1-0.1,1.3-0.3
			c0.2-0.2,0.3-0.5,0.3-0.9v-4h-7.7v3.4l0.1,6.1c0,0.2,0,0.4-0.1,0.5c-0.1,0-0.2,0.1-0.4,0.1h-3.8c-0.2,0-0.4,0-0.4-0.1
			s-0.1-0.2-0.1-0.4l0.1-6.2V249l-0.1-6.4c0-0.3,0.2-0.5,0.5-0.5l5.1,0.1h6l5-0.1c0.4,0,0.5,0.2,0.5,0.5l-0.1,6.8v10.4l0.1,6.4
			c0,2-0.4,3.3-1.1,4c-0.7,0.6-2.5,1-5.4,1c-0.8,0-1.3-0.1-1.4-0.2c-0.1-0.1-0.2-0.5-0.4-1.2C492.6,268.5,492.2,267.4,491.8,266.7z
			 M496.5,246.5h-7.7v3.7h7.7V246.5z M488.9,257.8h7.7v-3.7h-7.7V257.8z M505.4,243.4c1.3,0,2.9,0.2,4.8,0.4c0.5,0,0.7,0.2,0.7,0.5
			c0,0.1-0.1,0.4-0.3,1.1c-0.1,0.4-0.2,2-0.2,4.7v5.7l0.1,5c0,0.2,0,0.4-0.1,0.4s-0.2,0.1-0.4,0.1h-3.8c-0.3,0-0.4,0-0.5-0.1
			c0,0-0.1-0.2-0.1-0.4l0.1-5v-5.6C505.7,247.4,505.6,245.1,505.4,243.4z M508.2,266.2c1.4,0.2,3,0.2,4.9,0.2c0.8,0,1.4-0.1,1.6-0.4
			c0.3-0.3,0.4-0.8,0.4-1.5V248c0-2.8-0.1-5-0.4-6.5c1.8,0,3.5,0.2,4.9,0.3c0.5,0.1,0.8,0.2,0.8,0.5c0,0.2-0.1,0.5-0.4,1
			c-0.2,0.5-0.3,2-0.3,4.6v9.3l0.1,8.3c0,2.2-0.6,3.6-1.7,4.4c-0.7,0.4-1.5,0.7-2.5,0.9c-0.9,0.1-2.4,0.2-4.4,0.2
			c-0.8,0-1.2-0.1-1.4-0.2c-0.1-0.1-0.3-0.6-0.4-1.3C509.2,268.2,508.8,267.1,508.2,266.2z"/>
		<path class="st5" d="M530,237.2c1.7-0.1,4.3-0.4,7.6-0.8c12.7-1.9,22.3-3.2,28.8-4.1c0.1,0,0.2,0,0.3,0c0.4,0,0.7,0.2,0.7,0.5
			c0.3,1.4,0.5,2.8,0.5,4.2c0,0.5-0.3,0.7-0.9,0.7c-2.2,0.1-4.1,0.5-5.9,1.1c-4.2,1.4-7.4,3.6-9.6,6.5c-1.8,2.3-2.7,4.9-2.7,7.7
			c0,6.2,4.3,9.5,12.8,10.1c0.7,0,1.1,0.2,1.1,0.7c0,1.5-0.2,2.9-0.5,4.1c-0.1,0.7-0.4,1-0.9,1c-5,0-9.3-1.4-12.7-4.2
			c-3.3-2.7-5-6.3-5-10.7c0-3.5,0.9-6.6,2.7-9.2c1.5-2.1,3.6-4.1,6.5-6v-0.1c-5.8,1.1-11.1,2.2-16.1,3.2c-1.7,0.4-2.7,0.6-3,0.8
			c-0.6,0.2-1,0.4-1.1,0.4c-0.4,0-0.7-0.2-0.9-0.7C531.3,241.3,530.7,239.6,530,237.2z M559.9,245.7l2.5-1.8
			c0.1-0.1,0.2-0.1,0.3-0.1c0.1,0,0.2,0.1,0.4,0.2c1.6,1.3,3.2,3,4.5,5.2c0.1,0.1,0.1,0.2,0.1,0.3c0,0.2-0.1,0.3-0.3,0.4l-2,1.5
			c-0.1,0.1-0.3,0.1-0.4,0.1c-0.1,0-0.3-0.1-0.4-0.3C563.2,249,561.6,247.1,559.9,245.7z M564.3,242.5l2.4-1.7
			c0.1-0.1,0.2-0.1,0.3-0.1c0.1,0,0.2,0.1,0.4,0.2c1.8,1.4,3.4,3,4.6,4.9c0.1,0.2,0.1,0.3,0.1,0.4c0,0.2-0.1,0.3-0.3,0.4l-1.9,1.5
			c-0.1,0.1-0.3,0.2-0.4,0.2c-0.2,0-0.3-0.1-0.4-0.3C567.7,245.9,566.1,244.1,564.3,242.5z"/>
		<path class="st5" d="M591,228.7c2.6,0.3,4.4,0.7,5.6,1.1c0.6,0.2,0.9,0.5,0.9,0.9c0,0.3-0.1,0.6-0.2,0.8c-0.3,0.4-0.5,1-0.7,1.7
			c0,0.2-0.1,0.7-0.2,1.3c-0.1,0.5-0.1,0.8-0.2,1.1c4.2-0.4,8.4-1.1,12.5-2c0.1,0,0.2,0,0.3,0c0.2,0,0.4,0.2,0.5,0.5
			c0.3,1.3,0.5,2.4,0.5,3.3c0,0.5-0.3,0.8-1,1c-4.7,1-9.2,1.6-13.6,2c-0.2,2-0.3,3.6-0.4,4.9c1.9-0.7,4.4-1,7.4-1.1
			c0.5-1.4,0.8-2.5,0.8-3.5c2.1,0.6,3.5,1.2,4.3,1.8c0.6,0.4,0.9,0.7,0.9,1.1c0,0.2-0.1,0.4-0.3,0.6c-0.1,0.1-0.3,0.4-0.6,0.9
			c3.3,0.9,5.9,2.4,7.5,4.6c1.5,2,2.3,4.3,2.3,7.1c0,3.5-1.4,6.6-4.3,9c-2.3,2-5.3,3.5-9,4.5c-0.3,0.1-0.6,0.1-0.8,0.1
			c-0.5,0-1-0.3-1.3-1s-1.3-1.7-2.8-3c1.8-0.4,3.6-0.9,5.4-1.7c1.5-0.6,2.7-1.2,3.5-1.8c2.6-1.9,3.8-4.3,3.8-7.2
			c0-1.9-0.7-3.6-2-4.9c-1-1-2.3-1.7-3.9-2.1c-2.5,4.8-5.6,9-9.1,12.6c0.1,0.3,0.4,1.1,0.8,2.2c0.1,0.2,0.1,0.4,0.1,0.5
			c0,0.2-0.2,0.5-0.5,0.7c-1,0.7-1.9,1.3-2.9,1.7c-0.2,0.1-0.4,0.2-0.5,0.2c-0.2,0-0.3-0.1-0.5-0.4c-0.3-0.5-0.6-1.1-0.8-1.9
			c-3.3,2.3-6.1,3.5-8.4,3.5c-1.8,0-3.1-0.6-4.1-1.8c-0.8-1-1.3-2.4-1.3-4.2c0-3.1,1.3-6.2,3.8-9.2c2-2.4,4.5-4.3,7.4-5.7
			c0-1.7,0.1-3.7,0.2-6c-1.2,0-2.2,0.1-3.2,0.1l-1.7,0c-1.5,0-2.4,0-2.7-0.1c-0.5,0-0.8-0.4-0.9-1.1c-0.1-0.4-0.1-1-0.1-1.8
			c0-0.9-0.1-1.5-0.1-1.8c1.5,0.2,3.2,0.3,5.1,0.3c0.3,0,1.7,0,4.2,0c0.3-2.3,0.4-4.1,0.4-5.2C591.2,230.2,591.1,229.4,591,228.7z
			 M590,251.4c-2,1.4-3.6,3-4.7,4.7c-1,1.6-1.5,3.1-1.5,4.5c0,0.6,0.2,1.1,0.5,1.4c0.3,0.3,0.6,0.4,1.1,0.4c1.3,0,3.2-0.9,5.6-2.8
			C590.4,256.3,590.1,253.5,590,251.4z M595.3,256.5c2.2-2.5,4.1-5.3,5.6-8.3c-2,0-4.1,0.4-6.1,1.1C594.8,252,595,254.4,595.3,256.5
			z"/>
		<path class="st5" d="M634.8,229c2.5,0.2,4.4,0.6,5.5,0.9c0.7,0.2,1,0.5,1,1c0,0.2-0.1,0.5-0.3,0.9c-0.2,0.4-0.4,1.2-0.4,2.4
			c-0.1,1.2-0.1,2.8-0.2,4.8c0.7,0.4,1.3,0.7,1.8,1.1c0.3,0.2,0.4,0.4,0.4,0.7c0,0.1-0.1,0.3-0.2,0.5c-0.9,1.5-1.8,3-2.5,4.5v0.2
			c1.3-1.5,2.8-3.1,4.5-4.6c3.3-3.1,6.2-4.7,8.7-4.7c1.9,0,3.4,0.6,4.4,1.9c0.9,1.1,1.3,2.6,1.3,4.5c0,2.5-0.1,5.4-0.4,8.7
			c-0.1,1.2-0.2,3-0.3,5.4c-0.1,1.3-0.1,2.2-0.1,2.7c0,1.2,0.2,2,0.5,2.3c0.2,0.3,0.7,0.4,1.3,0.4c1,0,2.2-0.6,3.6-1.7
			c1-0.8,1.9-2.2,2.9-4c0.6,1.6,1.2,2.8,1.8,3.6c0.3,0.4,0.5,0.8,0.5,1.1c0,0.2-0.1,0.5-0.3,0.8c-2.6,3.7-5.7,5.5-9.2,5.5
			c-4.1,0-6.1-2.4-6.1-7.3c0-1,0.1-3.7,0.4-8.1c0.2-3.9,0.4-6.5,0.4-7.9c0-2.1-0.5-3.2-1.5-3.2c-1.2,0-3,1-5.4,3.1
			c-2.6,2.5-4.8,4.9-6.7,7.1c0,1.1,0,4.5,0.1,10c0,3.5,0.1,6.2,0.1,8.2c0,0.5-0.2,0.7-0.7,0.7c-0.8,0.1-2.1,0.2-3.7,0.2
			c-0.5,0-0.7-0.3-0.7-0.8c0-6.3,0-10.8,0.1-13.7c-1.6,2.5-3.4,5.3-5.6,8.6c-0.2,0.3-0.3,0.5-0.5,0.5c-0.1,0-0.3-0.1-0.6-0.2
			c-1.1-0.7-2.1-1.6-3-2.7c-0.2-0.2-0.3-0.4-0.3-0.5c0-0.3,0.1-0.5,0.4-0.8c3.2-4.1,6.3-8.3,9.4-12.6c0-1.4,0-2.5,0-3.3
			c-2.3,0.6-4.2,1.2-5.8,1.9c-0.1,0-0.2,0.1-0.4,0.3c-0.4,0.3-0.7,0.4-0.9,0.4c-0.4,0-0.7-0.3-1-0.8c-0.5-0.8-1.1-2.2-1.9-4.4
			c0.9,0,2.1-0.2,3.5-0.4c2.5-0.6,4.8-1.2,6.8-1.8v-6.5C635.2,231.7,635.1,230.2,634.8,229z"/>
		<path class="st5" d="M677.7,230.3c2.7,0.7,4.5,1.2,5.5,1.7c0.5,0.3,0.7,0.6,0.7,1c0,0.3-0.1,0.6-0.3,1.1c-0.3,0.4-0.6,1.3-0.9,2.6
			c-1.6,7.3-2.4,13.1-2.4,17.5c0,2.8,0,4.8,0.1,6.1c0.2-0.5,0.8-1.7,1.6-3.5c0.6-1.3,1-2.3,1.4-3.2c0.6,1.3,1.1,2.3,1.7,3
			c0.2,0.2,0.3,0.5,0.3,0.7c0,0.2-0.1,0.5-0.3,0.8c-1.4,3.1-2.2,5.6-2.5,7.3c-0.1,0.5-0.1,1-0.1,1.5c0,0.3,0,0.6,0.1,1.1
			c0,0,0,0.1,0,0.1c0,0.2-0.2,0.4-0.6,0.5c-0.8,0.3-2,0.6-3.6,0.8c-0.2,0-0.3,0.1-0.4,0.1c-0.2,0-0.4-0.2-0.6-0.7
			c-1.4-3.5-2.1-8.3-2.1-14.6c0-4.1,0.7-10.2,2-18.2c0.3-1.9,0.4-3.3,0.4-4.3C677.8,231.1,677.8,230.7,677.7,230.3z M699.9,255.8
			c-0.1-2.6-0.1-6.3-0.2-11c-2.3,0.1-4.1,0.1-5.3,0.1c-1.7,0-3.3,0-4.6-0.1c-0.5,0-0.8-0.2-0.8-0.6c-0.2-1.3-0.4-2.8-0.4-4.4
			c2.1,0.2,4.2,0.3,6.4,0.3c1.5,0,3,0,4.5-0.1l0-5c0-1.7-0.3-3.2-0.6-4.7c2.6,0.2,4.5,0.5,5.8,0.9c0.6,0.2,0.9,0.4,0.9,0.8
			c0,0.1-0.1,0.4-0.3,0.8c-0.2,0.5-0.3,1-0.4,1.7c-0.1,1.1-0.1,2.8-0.1,5.1c2.1-0.2,4.4-0.5,6.8-0.9c0.1,0,0.2,0,0.3,0
			c0.2,0,0.4,0.2,0.5,0.6c0.2,0.9,0.3,2,0.3,3.4c0,0.4-0.2,0.7-0.5,0.7c-1.7,0.4-4.1,0.8-7.4,1c0,4.7,0.1,9,0.4,12.9
			c2.9,1.2,5.6,2.7,8,4.6c0.2,0.2,0.4,0.3,0.4,0.5c0,0.1,0,0.2-0.1,0.5c-0.7,1.5-1.5,2.7-2.2,3.7c-0.2,0.2-0.3,0.3-0.4,0.3
			c-0.1,0-0.3-0.1-0.4-0.2c-1.5-1.4-3.2-2.7-5.2-3.8c-0.4,4.2-3.3,6.2-8.8,6.2c-2.9,0-5.1-0.7-6.7-2.1c-1.3-1.2-1.9-2.7-1.9-4.7
			c0-2.1,0.9-3.8,2.7-5.1c1.5-1.1,3.5-1.7,5.7-1.7C697.4,255.4,698.7,255.5,699.9,255.8z M700,260.4c-1.3-0.4-2.8-0.6-4.4-0.6
			c-1.1,0-2,0.2-2.6,0.7c-0.5,0.4-0.8,1-0.8,1.6c0,1.6,1.3,2.4,3.9,2.4c1.2,0,2.2-0.3,3-1c0.6-0.6,0.9-1.3,0.9-2.1
			C700.1,260.9,700.1,260.6,700,260.4z M706,229.4l2.6-1.2c0.1,0,0.2,0,0.3,0c0.1,0,0.3,0.1,0.4,0.3c1.4,1.5,2.6,3.4,3.7,5.8
			c0,0.1,0.1,0.2,0.1,0.3c0,0.2-0.1,0.3-0.4,0.4l-2,1c-0.1,0.1-0.2,0.1-0.3,0.1c-0.2,0-0.4-0.1-0.5-0.4
			C708.8,233.2,707.5,231.1,706,229.4z M710.6,227.3l2.5-1.1c0.1,0,0.2-0.1,0.3-0.1c0.1,0,0.3,0.1,0.4,0.3c1.6,1.7,2.8,3.6,3.7,5.6
			c0.1,0.1,0.1,0.2,0.1,0.3c0,0.2-0.1,0.4-0.4,0.5l-1.9,1c-0.1,0-0.3,0.1-0.4,0.1c-0.2,0-0.3-0.1-0.4-0.3
			C713.5,231.2,712.2,229.1,710.6,227.3z"/>
		<path class="st5" d="M727.3,234.9l-6,0.1c-0.3,0-0.4,0-0.5-0.1s-0.1-0.2-0.1-0.4v-3.9c0-0.3,0-0.4,0.1-0.5s0.2-0.1,0.4-0.1l6,0.1
			h29.6l6-0.1c0.2,0,0.4,0,0.4,0.1s0.1,0.2,0.1,0.4v3.9c0,0.2,0,0.4-0.1,0.4s-0.2,0.1-0.4,0.1c0,0-0.5,0-1.5,0
			c-1.1,0-2.2-0.1-3.5-0.1v21l0.1,9.4c0,2.2-0.6,3.6-1.7,4.5c-1.1,0.8-4,1.2-8.6,1.2c-0.8,0-1.3-0.1-1.4-0.2
			c-0.1-0.1-0.3-0.6-0.4-1.3c-0.4-1.6-0.8-2.8-1.4-3.7c1.8,0.2,3.7,0.3,5.8,0.3c0.9,0,1.6-0.1,1.9-0.4s0.5-0.7,0.5-1.4v-29.4H727.3z
			 M730.7,262.1h-3.8c-0.2,0-0.4,0-0.4-0.1s-0.1-0.2-0.1-0.4l0.1-9v-5l-0.1-6.4c0-0.3,0-0.4,0.1-0.5s0.2-0.1,0.4-0.1l5.4,0.1h7.5
			l5.4-0.1c0.3,0,0.4,0,0.5,0.1s0.1,0.2,0.1,0.4l-0.1,5.3v5.4l0.1,8.6c0,0.2,0,0.4-0.1,0.5s-0.2,0.1-0.5,0.1h-3.8
			c-0.3,0-0.4,0-0.5-0.1c0,0-0.1-0.2-0.1-0.4v-2.1h-9.5v3.2c0,0.2,0,0.4-0.1,0.5C731,262.1,730.9,262.1,730.7,262.1z M731.2,245.1
			v8.8h9.5v-8.8H731.2z"/>
		<path class="st5" d="M785.9,231.5c1.5,2.1,3.2,5,5,8.6c0.1,0.2,0.1,0.3,0.1,0.4c0,0.2-0.2,0.4-0.5,0.5l-2.7,1.5
			c-0.2,0.1-0.4,0.2-0.5,0.2c-0.1,0-0.3-0.1-0.4-0.4l-0.9-2.1c-3.9,0.6-8.7,1.1-14.3,1.6c-0.9,0.1-1.5,0.2-1.9,0.4
			c-0.3,0.1-0.6,0.2-0.7,0.2c-0.3,0-0.5-0.3-0.6-0.8c-0.3-1.6-0.5-3-0.6-4.2c1.8,0,3.1,0,3.9,0c1-2,2-4.3,2.8-6.7
			c0.4-1.1,0.7-2.2,0.9-3.3c1.7,0.2,3.2,0.5,4.5,0.9c0.5,0.2,0.8,0.4,0.8,0.7c0,0.3-0.2,0.6-0.5,0.9c-0.2,0.2-0.5,0.7-0.8,1.4
			c-1.1,2.4-2,4.3-2.8,5.8c3.4-0.2,5.9-0.5,7.5-0.7c-0.7-1.1-1.3-2.1-1.9-3.1c-0.1-0.2-0.2-0.3-0.2-0.4c0-0.1,0.2-0.3,0.5-0.4
			l2.3-1.3c0.2-0.1,0.3-0.2,0.5-0.2C785.6,231.1,785.8,231.3,785.9,231.5z M779.2,266.6c1,0.1,1.9,0.2,2.9,0.2c1,0,1.6-0.5,1.6-1.4
			v-3.6h-7.9v3.1l0.1,5.9c0,0.3-0.2,0.5-0.5,0.5h-3.7c-0.3,0-0.5-0.2-0.5-0.5l0.1-5.9v-14.4l-0.1-6c0-0.3,0-0.4,0.1-0.5
			s0.2-0.1,0.4-0.1l5.1,0.1h6l5-0.1c0.3,0,0.4,0,0.5,0.1s0.1,0.2,0.1,0.4l-0.1,6.4v8.6l0.1,6.5c0,1.9-0.4,3.2-1.1,3.8
			c-0.4,0.4-1,0.7-1.7,0.8c-0.8,0.2-1.9,0.2-3.5,0.3c-0.8,0-1.2-0.1-1.4-0.2c-0.1-0.1-0.3-0.5-0.4-1.2
			C779.9,268.4,779.6,267.4,779.2,266.6z M783.6,247.9h-7.9v3.2h7.9V247.9z M775.7,258.1h7.9v-3.2h-7.9V258.1z M806.5,229.5
			c1,0.9,2,1.9,3,3.1c0.3,0.3,0.4,0.6,0.4,0.8s-0.2,0.5-0.7,0.6c-0.5,0.1-1.2,0.4-2.2,0.9c-2.6,1.3-6,2.7-10.2,4.1v2.8
			c0,0.8,0.3,1.2,0.8,1.5c0.6,0.2,1.8,0.3,3.6,0.3c2.7,0,4.3-0.3,4.8-0.9c0.3-0.3,0.5-0.8,0.5-1.5c0-0.3,0.1-1.2,0.1-2.7
			c0.9,0.5,2,1,3.4,1.4c0.5,0.2,0.9,0.3,1,0.4s0.2,0.3,0.2,0.7c0,0.1,0,0.3,0,0.6c-0.2,1.5-0.4,2.7-0.8,3.4
			c-0.3,0.7-0.8,1.3-1.4,1.7c-1.2,0.8-3.8,1.2-8,1.2c-3.7,0-6.2-0.3-7.3-0.8c-1.1-0.4-1.6-1.5-1.6-3.1v-11.4c0-2.1-0.1-3.6-0.3-4.7
			c1.8,0.1,3.4,0.2,4.8,0.3c0.5,0.1,0.8,0.2,0.8,0.5c0,0.2-0.1,0.4-0.3,0.8c-0.2,0.4-0.2,1.2-0.2,2.6v2.4c2.6-0.9,4.9-2,7.1-3.1
			C804.8,231,805.7,230.3,806.5,229.5z M807,260.9c1.1,0.6,2.3,1.1,3.4,1.4c0.5,0.1,0.8,0.2,0.9,0.3c0.1,0.1,0.2,0.3,0.2,0.5
			c0,0.1,0,0.4-0.1,0.8c-0.2,1.6-0.4,2.8-0.8,3.6c-0.3,0.7-0.8,1.3-1.4,1.7c-1.4,1-4.1,1.5-8,1.5c-3.9,0-6.4-0.3-7.6-0.9
			c-1.1-0.6-1.7-1.7-1.7-3.5v-12.1c0-2-0.1-3.6-0.3-4.6c1.8,0,3.4,0.2,4.8,0.3c0.5,0.1,0.8,0.3,0.8,0.6c0,0.2-0.1,0.5-0.3,0.9
			c-0.2,0.3-0.2,1.2-0.2,2.5v2.3c2.7-1,5.1-2.1,7.3-3.5c1.1-0.7,2-1.3,2.6-2c0.7,0.6,1.7,1.6,3,3.1c0.3,0.4,0.5,0.7,0.5,0.9
			c0,0.3-0.3,0.5-0.8,0.6c-0.3,0-1.1,0.3-2.2,0.8c-4.7,2.2-8.2,3.8-10.5,4.6v3.6c0,0.8,0.3,1.4,0.9,1.6c0.5,0.2,1.8,0.3,3.8,0.3
			c2.5,0,4.1-0.3,4.6-0.9c0.3-0.4,0.6-0.9,0.7-1.7C806.9,263.3,807,262.4,807,260.9z"/>
		<path d="M818,237.2c1.7-0.1,4.2-0.4,7.6-0.8c12.7-1.9,22.3-3.2,28.8-4.1c0.1,0,0.2,0,0.3,0c0.4,0,0.7,0.2,0.7,0.5
			c0.3,1.4,0.5,2.8,0.5,4.2c0,0.5-0.3,0.7-0.9,0.7c-2.2,0.1-4.1,0.5-5.9,1.1c-4.2,1.4-7.4,3.6-9.6,6.5c-1.8,2.3-2.7,4.9-2.7,7.7
			c0,6.2,4.3,9.5,12.8,10.1c0.7,0,1.1,0.2,1.1,0.7c0,1.5-0.2,2.9-0.5,4.1c-0.1,0.7-0.4,1-0.9,1c-5,0-9.3-1.4-12.7-4.2
			c-3.3-2.7-5-6.3-5-10.7c0-3.5,0.9-6.6,2.7-9.2c1.5-2.1,3.6-4.1,6.5-6v-0.1c-5.8,1.1-11.1,2.2-16.1,3.2c-1.7,0.4-2.7,0.6-3,0.8
			c-0.6,0.2-1,0.4-1.1,0.4c-0.4,0-0.7-0.2-0.9-0.7C819.3,241.3,818.7,239.6,818,237.2z M847.9,245.7l2.5-1.8
			c0.1-0.1,0.2-0.1,0.3-0.1c0.1,0,0.2,0.1,0.4,0.2c1.6,1.3,3.2,3,4.5,5.2c0.1,0.1,0.1,0.2,0.1,0.3c0,0.2-0.1,0.3-0.3,0.4l-2,1.5
			c-0.1,0.1-0.3,0.1-0.4,0.1c-0.1,0-0.3-0.1-0.4-0.3C851.2,249,849.6,247.1,847.9,245.7z M852.3,242.5l2.4-1.7
			c0.1-0.1,0.2-0.1,0.3-0.1c0.1,0,0.2,0.1,0.4,0.2c1.8,1.4,3.4,3,4.6,4.9c0.1,0.2,0.1,0.3,0.1,0.4c0,0.2-0.1,0.3-0.3,0.4l-1.9,1.5
			c-0.1,0.1-0.3,0.2-0.4,0.2c-0.2,0-0.3-0.1-0.4-0.3C855.7,245.9,854.1,244.1,852.3,242.5z"/>
		<path d="M885.8,236.3c0-0.5,0-1.2,0-2.2c0-0.8,0-1.3,0-1.8c-0.1-1.2-0.3-2.4-0.6-3.5c2.3,0.2,4.2,0.4,5.6,0.7
			c0.9,0.2,1.3,0.5,1.3,0.9c0,0.2-0.1,0.6-0.4,1.1c-0.2,0.3-0.3,0.8-0.4,1.4c0,0.2,0,1.2-0.1,3.1c4.3-0.2,9.2-0.2,14.7-0.2
			c0.3,0,0.5,0,0.6,0.1s0.1,0.3,0.1,0.6c0,0.6,0,1.2,0,1.8s0,1.2,0,1.8c0,0.4-0.2,0.6-0.6,0.6c-0.1,0-0.1,0-0.2,0
			c-2.9-0.1-6-0.1-9.3-0.1c-2,0-3.8,0-5.4,0c0,4,0,7,0,8.9c0.5,1.3,0.7,2.9,0.7,4.8c0,6.6-2.9,11.8-8.6,15.5
			c-0.9,0.6-1.6,0.9-1.9,0.9c-0.3,0-0.8-0.2-1.4-0.7c-1-0.8-2.2-1.5-3.7-1.9c2.9-1.3,5.3-3,7-5.1c1.5-1.7,2.4-3.5,2.8-5.5
			c-0.9,1.3-2.4,1.9-4.5,1.9c-2.1,0-3.8-0.7-5-2.2c-1.1-1.3-1.7-3-1.7-5.2c0-2.3,0.8-4.1,2.4-5.5c1.3-1.1,2.9-1.7,4.8-1.7
			c1.7,0,2.9,0.3,3.7,1l0-4.9c-6.9,0.4-12.5,0.9-16.6,1.5c-0.4,0-0.9,0.2-1.4,0.4c-0.4,0.1-0.7,0.2-0.8,0.2c-0.4,0-0.7-0.2-0.8-0.7
			c-0.3-0.8-0.7-2.4-1.2-4.8c0.5,0,1,0.1,1.5,0.1c0.5,0,1.9-0.1,4.3-0.3C873.5,237.1,878.5,236.8,885.8,236.3z M882.8,248.7
			c-0.9,0-1.7,0.3-2.3,0.9s-0.9,1.3-0.9,2.2c0,1.1,0.3,1.9,1,2.6c0.5,0.5,1.2,0.7,2.1,0.7c1,0,1.8-0.3,2.4-0.9
			c0.6-0.6,0.8-1.4,0.8-2.4c0-1-0.3-1.8-1-2.4C884.4,248.9,883.7,248.7,882.8,248.7z"/>
		<path d="M918.9,258.7c2.1,0,3.8,0.8,5.2,2.3c1.2,1.3,1.8,2.9,1.8,4.6c0,2.1-0.8,3.8-2.3,5.1c-1.3,1.2-2.9,1.8-4.7,1.8
			c-2.1,0-3.8-0.8-5.2-2.3c-1.2-1.3-1.8-2.9-1.8-4.6c0-2.1,0.8-3.8,2.3-5.1C915.5,259.3,917.1,258.7,918.9,258.7z M918.9,261.6
			c-1.2,0-2.2,0.4-3,1.3c-0.7,0.8-1,1.6-1,2.7c0,1.2,0.4,2.2,1.3,3c0.8,0.7,1.6,1,2.7,1c1.2,0,2.2-0.4,3-1.3c0.7-0.8,1-1.6,1-2.7
			c0-1.2-0.4-2.2-1.3-3C920.8,262,919.9,261.6,918.9,261.6z"/>
		<path d="M104,335.2c1.2,0.6,2.5,1.3,3.7,1.9c0.2,0.1,0.4,0.3,0.4,0.5c0,0.1,0,0.2-0.1,0.4c-0.8,1.3-1.3,2.5-1.3,3.7
			c0,1.6,1,2.8,3,3.5c1.8,0.7,4.6,1,8.4,1c4.4,0,8.8-0.5,13-1.4c0.2,0,0.3,0,0.4,0c0.3,0,0.5,0.2,0.6,0.5c0.4,1.4,0.6,3,0.8,4.7
			c0,0,0,0.1,0,0.1c0,0.3-0.3,0.5-0.8,0.6c-4.2,0.8-8.9,1.1-14.1,1.1c-11,0-16.5-3.2-16.5-9.7C101.5,340.1,102.3,337.8,104,335.2z
			 M105.1,317c3.5,0.8,8,1.2,13.5,1.2c3,0,6.3-0.1,10-0.4c0.1,0,0.1,0,0.1,0c0.3,0,0.5,0.2,0.6,0.5c0.2,1.4,0.4,2.8,0.4,4.1
			c0,0.6-0.3,1-0.8,1c-3.8,0.5-7.7,2.1-11.7,4.8c-0.4,0.3-0.8,0.4-1.2,0.4c-0.3,0-0.7-0.1-1-0.3c-1.1-0.7-2.2-1.2-3.4-1.5
			c2.6-1.7,4.7-3,6.3-4c-0.7,0.1-1.9,0.1-3.5,0.1c-3.1,0-6-0.3-8.8-0.8c-0.4-0.1-0.6-0.4-0.6-0.9C104.9,320.8,104.9,319.4,105.1,317
			z M129.1,314.8l2.5-1.8c0.1-0.1,0.2-0.1,0.3-0.1c0.1,0,0.3,0.1,0.4,0.2c1.6,1.3,3.1,3,4.5,5.2c0.1,0.1,0.1,0.2,0.1,0.4
			c0,0.1-0.1,0.3-0.3,0.4l-2,1.5c-0.1,0.1-0.3,0.1-0.4,0.1c-0.1,0-0.3-0.1-0.4-0.3C132.4,318,130.8,316.2,129.1,314.8z M133.5,311.6
			l2.4-1.7c0.1-0.1,0.2-0.1,0.3-0.1s0.2,0.1,0.4,0.2c1.8,1.4,3.4,3,4.6,4.9c0.1,0.2,0.1,0.3,0.1,0.4c0,0.2-0.1,0.3-0.3,0.5l-1.9,1.5
			c-0.1,0.1-0.3,0.1-0.4,0.1c-0.2,0-0.3-0.1-0.4-0.3C136.9,315,135.3,313.1,133.5,311.6z"/>
		<path d="M151.6,319.7l-6.1,0.1c-0.3,0-0.4,0-0.5-0.1c0-0.1-0.1-0.2-0.1-0.4v-3.9c0-0.3,0-0.5,0.1-0.5c0.1,0,0.2-0.1,0.4-0.1
			l6.1,0.1h28.9l6.1-0.1c0.3,0,0.4,0,0.5,0.1c0,0.1,0.1,0.2,0.1,0.5v3.9c0,0.3,0,0.4-0.1,0.5c-0.1,0-0.2,0.1-0.4,0.1l-6.1-0.1h-10
			c-0.8,1.5-1.5,2.9-2.3,4.1v24.1l0.1,6.9c0,0.2,0,0.4-0.1,0.5c-0.1,0-0.2,0.1-0.4,0.1h-4.4c-0.2,0-0.4,0-0.4-0.1
			c0,0-0.1-0.2-0.1-0.4l0.1-6.9v-16.9c-4.1,4.8-9,8.8-14.7,12.1c-0.6,0.3-0.9,0.5-1.1,0.5c-0.2,0-0.6-0.4-1-1.1
			c-0.7-1.2-1.6-2.2-2.6-2.9c4.9-2.5,9.3-5.5,13.1-9.2c3.4-3.2,6.1-6.8,8.1-10.6H151.6z M188.6,338.9c-0.8,0.9-1.6,2-2.4,3.3
			c-0.4,0.7-0.7,1.1-0.9,1.1c-0.1,0-0.4-0.2-1.1-0.6c-5.5-3.1-10.3-7.4-14.4-12.6c-0.1-0.2-0.2-0.3-0.2-0.4c0-0.1,0.1-0.3,0.4-0.6
			l2.3-2.2c0.2-0.2,0.3-0.3,0.5-0.3c0.1,0,0.2,0.1,0.4,0.3c2,2.6,4.6,5.1,7.7,7.4C183.5,336.2,186.1,337.7,188.6,338.9z"/>
		<path d="M198.5,346.3h-3.7c-0.2,0-0.4,0-0.4-0.1s-0.1-0.2-0.1-0.4l0.1-13v-7.6l-0.1-10c0-0.2,0-0.4,0.1-0.4s0.2-0.1,0.4-0.1
			l4.9,0.1h5.6l4.9-0.1c0.3,0,0.4,0,0.5,0.1s0.1,0.2,0.1,0.4l-0.1,8.6v8.2l0.1,12.4c0,0.3,0,0.4-0.1,0.5s-0.2,0.1-0.4,0.1h-3.6
			c-0.3,0-0.5,0-0.5-0.1c0-0.1-0.1-0.2-0.1-0.4v-2.3H199v3.8c0,0.2,0,0.4-0.1,0.4C198.9,346.3,198.7,346.3,198.5,346.3z
			 M205.9,319.1H199v7h6.8V319.1z M199,337.7h6.8v-7.3H199V337.7z M222.7,349.9c1.5,0.1,2.8,0.2,4.1,0.2c0.8,0,1.3-0.1,1.5-0.4
			c0.2-0.2,0.3-0.7,0.3-1.3v-9.2h-9.8c-0.6,3.9-1.7,7.1-3.3,9.6c-1.2,2-3,4-5.3,5.8c-0.6,0.5-1,0.7-1.2,0.7c-0.2,0-0.5-0.3-1.1-0.9
			c-1-1-1.9-1.8-2.9-2.4c2.6-1.9,4.5-3.7,5.7-5.4c1.4-2,2.4-4.5,3-7.6c0.6-3,0.8-7.2,0.8-12.7v-5.9l-0.1-6.7c0-0.3,0-0.4,0.1-0.5
			c0.1,0,0.2-0.1,0.5-0.1l5.4,0.1h7.1l5.4-0.1c0.3,0,0.5,0,0.5,0.1c0,0.1,0.1,0.2,0.1,0.4l-0.1,6.7v22.6l0.1,6.6
			c0,1.8-0.5,3.1-1.4,3.9c-1,0.8-3.1,1.2-6.4,1.2c-0.8,0-1.2-0.1-1.4-0.2c-0.1-0.1-0.3-0.5-0.4-1.3
			C223.8,352,223.3,350.8,222.7,349.9z M219.4,334.8h9.3v-6.3h-9C219.7,330.8,219.6,332.9,219.4,334.8z M228.7,317.9h-9v6.2h9V317.9
			z"/>
		<path d="M258.4,321c1.6-0.2,3.6-0.5,6-1c0.2-0.1,0.3-0.1,0.4-0.1c0.2,0,0.3,0.2,0.4,0.5c0.2,1.2,0.4,2.5,0.4,3.9
			c0,0.3-0.2,0.5-0.6,0.6c-1.7,0.3-4.3,0.8-7.9,1.3c-3.3,8.8-6.4,15.7-9.4,20.6c-0.2,0.3-0.4,0.5-0.5,0.5c-0.1,0-0.3-0.1-0.6-0.2
			c-1.3-0.8-2.5-1.6-3.3-2.5c-0.2-0.2-0.3-0.3-0.3-0.5c0-0.2,0.1-0.4,0.2-0.6c3.5-5.9,6.3-11.4,8.3-16.7c-1.2,0.1-2.8,0.1-4.8,0.1
			c-1,0-1.9,0-2.6,0c-0.4,0-0.6-0.3-0.7-0.8c-0.2-0.8-0.3-2.1-0.5-4.1c1.7,0.1,3.2,0.2,4.5,0.2c1.9,0,3.7-0.1,5.5-0.2
			c0.4-1.5,0.8-3.3,1.2-5.4c0.2-1.1,0.3-2.4,0.3-3.9c2.8,0.4,4.6,0.7,5.6,1c0.5,0.1,0.8,0.3,0.8,0.7c0,0.3-0.1,0.6-0.4,0.9
			c-0.3,0.4-0.5,1-0.8,1.8c-0.1,0.3-0.3,1-0.6,2.1C258.7,319.8,258.5,320.5,258.4,321z M266.1,341c-0.2-2.4-0.4-5.1-0.4-8.2
			c0-1.3-0.2-2.4-0.4-3.4c2.2,0.2,3.9,0.5,5.2,0.9c0.5,0.1,0.7,0.3,0.7,0.8c0,0.1-0.1,0.4-0.3,1c-0.1,0.4-0.2,0.9-0.2,1.4
			c0,0.1,0,0.3,0,0.5c0,2.5,0.2,5.2,0.5,8.2c3.6,1.5,6.5,3,8.6,4.5c0.3,0.2,0.4,0.4,0.4,0.6c0,0.1,0,0.3-0.1,0.4
			c-0.7,1.5-1.5,2.8-2.2,3.9c-0.1,0.2-0.3,0.3-0.4,0.3c-0.1,0-0.3-0.1-0.5-0.3c-1.4-1.2-3.4-2.6-5.9-4c0,2.5-0.9,4.3-2.7,5.5
			c-1.5,1-3.6,1.5-6.2,1.5c-2.8,0-5.1-0.7-6.7-2.1c-1.4-1.2-2.1-2.8-2.1-4.7c0-2.2,0.9-4,2.7-5.3c1.6-1.1,3.6-1.7,6.2-1.7
			C263.6,340.8,264.9,340.9,266.1,341z M266.2,345.6c-1.4-0.5-2.7-0.7-3.9-0.7c-1.3,0-2.4,0.3-3.2,0.8c-0.7,0.5-1.1,1.2-1.1,2
			c0,1.5,1.4,2.3,4.1,2.3c1.4,0,2.4-0.4,3.2-1.1c0.6-0.6,1-1.4,1-2.3C266.2,346.1,266.2,345.8,266.2,345.6z M269,325.6
			c1.3-2.3,2-3.6,2.2-3.8c0.2-0.3,0.4-0.4,0.6-0.4c0.1,0,0.2,0,0.4,0.1c2.9,0.8,6,2.3,9.4,4.5c0.3,0.2,0.4,0.4,0.4,0.5
			c0,0.2-0.1,0.4-0.2,0.6c-0.5,1.1-1.2,2.3-2,3.6c-0.1,0.2-0.3,0.3-0.4,0.3c-0.1,0-0.2-0.1-0.4-0.2
			C275.2,328.2,271.9,326.5,269,325.6z"/>
		<path d="M293.8,344.3c0.1-0.3,0.2-0.4,0.4-0.4c0.1,0,0.3,0.1,0.6,0.2l2.8,1.1c0.4,0.2,0.6,0.3,0.6,0.5c0,0.1,0,0.2-0.1,0.3
			c-1.2,3.3-2.9,6.4-5,9c-0.1,0.2-0.3,0.3-0.4,0.3c-0.2,0-0.4-0.1-0.6-0.2l-3-1.7c-0.4-0.2-0.6-0.4-0.6-0.5c0-0.1,0.1-0.2,0.2-0.4
			C290.9,349.9,292.6,347.2,293.8,344.3z M306.1,311.5c2.2,0.1,4,0.2,5.3,0.4c0.5,0,0.7,0.2,0.7,0.5c0,0.3-0.1,0.6-0.2,1
			c-0.2,0.5-0.4,1.6-0.4,3.4v0.4h10.9l6.3-0.1c0.2,0,0.4,0,0.4,0.1s0.1,0.2,0.1,0.4v3.8c0,0.3-0.2,0.5-0.5,0.5l-6.3-0.1h-10.9v4.3
			h6.4l6.7-0.1c0.4,0,0.5,0.2,0.5,0.5l-0.1,4.3v6.7l0.1,4.3c0,0.2,0,0.4-0.1,0.5s-0.2,0.1-0.5,0.1l-6.7-0.1h-15.9l-6.7,0.1
			c-0.3,0-0.4,0-0.5-0.1s-0.1-0.2-0.1-0.4l0.1-4.3v-6.7l-0.1-4.3c0-0.3,0.2-0.5,0.5-0.5l6.7,0.1h4.4v-8.3
			C306.5,315.5,306.3,313.5,306.1,311.5z M300,330.6v6.9h20v-6.9H300z M305.7,344.8c0.2,0,0.3,0,0.3,0c0.3,0,0.5,0.2,0.5,0.5
			c0.6,2.2,1,5.1,1.3,8.6c0,0.1,0,0.1,0,0.2c0,0.3-0.2,0.5-0.7,0.5l-3.6,0.2c-0.1,0-0.2,0-0.3,0c-0.3,0-0.5-0.2-0.5-0.5
			c0-2.9-0.3-5.8-0.9-8.7c0-0.1,0-0.2,0-0.2c0-0.2,0.2-0.4,0.7-0.4L305.7,344.8z M315.8,344.8c1.2,2.6,2.1,5.4,2.8,8.6
			c0,0.1,0,0.2,0,0.3c0,0.2-0.2,0.4-0.6,0.4l-3.4,0.7c-0.2,0-0.4,0-0.5,0c-0.2,0-0.4-0.1-0.4-0.4c-0.5-3-1.3-5.9-2.4-8.7
			c-0.1-0.1-0.1-0.2-0.1-0.3c0-0.2,0.2-0.3,0.7-0.4l3.1-0.7c0.2,0,0.3-0.1,0.4-0.1C315.5,344.3,315.6,344.5,315.8,344.8z
			 M325.6,343.8c1.8,2.4,3.5,5.3,5,8.7c0.1,0.2,0.1,0.3,0.1,0.4c0,0.2-0.2,0.3-0.5,0.5l-3.2,1.3c-0.3,0.1-0.5,0.1-0.6,0.1
			c-0.1,0-0.2-0.1-0.3-0.3c-1.1-3-2.7-6-4.7-9c-0.1-0.1-0.1-0.2-0.1-0.3c0-0.1,0.2-0.3,0.6-0.4l2.6-1.1c0.3-0.1,0.5-0.2,0.6-0.2
			C325.3,343.5,325.5,343.6,325.6,343.8z"/>
		<path d="M349.4,324.9c0.5-1.7,1-3.8,1.4-6c0.3-1.9,0.5-3.7,0.5-5.3c2.3,0.5,4.3,1,5.7,1.6c0.5,0.2,0.8,0.5,0.8,1
			c0,0.3-0.1,0.5-0.3,0.7c-0.4,0.5-0.7,1.1-1,1.8c-0.2,0.7-0.5,1.7-0.9,3c-0.4,1.2-0.6,2.1-0.8,2.7c1.2-0.1,2.5-0.2,3.8-0.2
			c4.6,0,6.9,3.1,6.9,9.3c0,2.9-0.3,5.8-0.8,8.7c-0.5,2.7-1.1,4.8-1.8,6.4c-1.4,3-3.5,4.5-6.5,4.5c-2.3,0-3.9-0.2-5-0.7
			c-0.6-0.2-0.9-0.7-0.9-1.3c-0.2-2-0.5-3.5-0.9-4.5c1.8,0.8,3.6,1.2,5.5,1.2c0.8,0,1.5-0.2,1.9-0.6c0.4-0.4,0.8-1,1.1-1.9
			c1.2-3.3,1.9-7.3,1.9-12c0-1.8-0.2-3-0.7-3.6c-0.4-0.5-1.1-0.8-2.1-0.8c-1.1,0-2.4,0.1-4,0.3c-3.1,9.1-6.4,16.7-9.7,22.6
			c-0.2,0.4-0.4,0.6-0.7,0.6c-0.2,0-0.3-0.1-0.5-0.2c-1.5-0.7-2.6-1.4-3.3-2.1c-0.2-0.2-0.4-0.5-0.4-0.7c0-0.2,0.1-0.4,0.2-0.5
			c3.8-6.6,6.7-12.9,8.8-18.8c-1.1,0.2-2.7,0.4-4.7,0.8c-0.9,0.2-1.7,0.4-2.6,0.8c-0.2,0.1-0.4,0.1-0.6,0.1c-0.5,0-0.8-0.2-1-0.8
			c-0.5-1.2-0.9-2.8-1.5-4.9c1.8,0,3.9-0.1,6.3-0.3C345.4,325.5,347.3,325.2,349.4,324.9z M365.9,324.5c1.8-1.2,3.1-2,3.9-2.5
			c0.1-0.1,0.2-0.1,0.3-0.1c0.2,0,0.4,0.1,0.6,0.3c3.6,3.4,6.3,7.3,8,11.7c0.1,0.2,0.1,0.3,0.1,0.4c0,0.2-0.1,0.4-0.3,0.5
			c-0.9,0.8-2.1,1.6-3.6,2.4c-0.2,0.1-0.3,0.1-0.5,0.1c-0.3,0-0.5-0.2-0.6-0.5C371.8,331.8,369.2,327.6,365.9,324.5z M368.6,317.2
			l2.6-1.8c0.1-0.1,0.2-0.1,0.3-0.1c0.1,0,0.3,0.1,0.4,0.2c1.6,1.3,3.2,3,4.6,5.1c0.1,0.1,0.1,0.2,0.1,0.4c0,0.1-0.1,0.3-0.3,0.4
			l-2,1.5c-0.1,0.1-0.3,0.2-0.4,0.2c-0.2,0-0.3-0.1-0.4-0.3C371.9,320.4,370.3,318.6,368.6,317.2z M373,314l2.4-1.7
			c0.1-0.1,0.2-0.1,0.3-0.1c0.1,0,0.2,0.1,0.4,0.2c1.8,1.4,3.3,3.1,4.5,5c0.1,0.1,0.1,0.3,0.1,0.4c0,0.2-0.1,0.3-0.3,0.5l-1.9,1.5
			c-0.1,0.1-0.3,0.2-0.4,0.2c-0.2,0-0.3-0.1-0.4-0.3C376.4,317.4,374.8,315.5,373,314z"/>
		<path d="M399,312.7c2.6,0.3,4.4,0.7,5.6,1.1c0.6,0.2,0.9,0.5,0.9,0.9c0,0.3-0.1,0.6-0.2,0.8c-0.3,0.4-0.5,1-0.7,1.7
			c0,0.2-0.1,0.7-0.2,1.3c-0.1,0.5-0.1,0.8-0.2,1.1c4.2-0.4,8.4-1.1,12.5-2c0.1,0,0.2,0,0.3,0c0.2,0,0.4,0.2,0.5,0.5
			c0.3,1.3,0.5,2.4,0.5,3.3c0,0.5-0.3,0.8-1,1c-4.7,1-9.2,1.6-13.6,2c-0.2,2-0.3,3.6-0.4,4.9c1.9-0.7,4.4-1,7.4-1.1
			c0.5-1.4,0.8-2.5,0.8-3.5c2.1,0.6,3.5,1.2,4.3,1.8c0.6,0.4,0.9,0.7,0.9,1.1c0,0.2-0.1,0.4-0.3,0.6c-0.1,0.1-0.3,0.4-0.6,0.9
			c3.3,0.9,5.9,2.4,7.5,4.6c1.5,2,2.3,4.3,2.3,7.1c0,3.5-1.4,6.6-4.3,9c-2.3,2-5.3,3.5-9,4.5c-0.3,0.1-0.6,0.1-0.8,0.1
			c-0.5,0-1-0.3-1.3-1s-1.3-1.7-2.8-3c1.8-0.4,3.6-0.9,5.4-1.7c1.5-0.6,2.7-1.2,3.5-1.8c2.6-1.9,3.8-4.3,3.8-7.2
			c0-1.9-0.7-3.6-2-4.9c-1-1-2.3-1.7-3.9-2.1c-2.5,4.8-5.6,9-9.1,12.6c0.1,0.3,0.4,1.1,0.8,2.2c0.1,0.2,0.1,0.4,0.1,0.5
			c0,0.2-0.2,0.5-0.5,0.7c-1,0.7-1.9,1.3-2.9,1.7c-0.2,0.1-0.4,0.2-0.5,0.2c-0.2,0-0.3-0.1-0.5-0.4c-0.3-0.5-0.6-1.1-0.8-1.9
			c-3.3,2.3-6.1,3.5-8.4,3.5c-1.8,0-3.1-0.6-4.1-1.8c-0.8-1-1.3-2.4-1.3-4.2c0-3.1,1.3-6.2,3.8-9.2c2-2.4,4.5-4.3,7.4-5.7
			c0-1.7,0.1-3.7,0.2-6c-1.2,0-2.2,0.1-3.2,0.1l-1.7,0c-1.5,0-2.4,0-2.7-0.1c-0.5,0-0.8-0.4-0.9-1.1c-0.1-0.4-0.1-1-0.1-1.8
			c0-0.9-0.1-1.5-0.1-1.8c1.5,0.2,3.2,0.3,5.1,0.3c0.3,0,1.7,0,4.2,0c0.3-2.3,0.4-4.1,0.4-5.2C399.2,314.2,399.1,313.4,399,312.7z
			 M398,335.4c-2,1.4-3.6,3-4.7,4.7c-1,1.6-1.5,3.1-1.5,4.5c0,0.6,0.2,1.1,0.5,1.4c0.3,0.3,0.6,0.4,1.1,0.4c1.3,0,3.2-0.9,5.6-2.8
			C398.4,340.3,398.1,337.5,398,335.4z M403.3,340.5c2.2-2.5,4.1-5.3,5.6-8.3c-2,0-4.1,0.4-6.1,1.1C402.8,336,403,338.4,403.3,340.5
			z"/>
		<path d="M442.7,313c2.5,0.2,4.4,0.6,5.5,0.9c0.7,0.2,1,0.5,1,1c0,0.2-0.1,0.5-0.3,0.9c-0.2,0.4-0.4,1.2-0.4,2.4
			c-0.1,1.2-0.1,2.8-0.2,4.8c0.7,0.4,1.3,0.7,1.8,1.1c0.3,0.2,0.4,0.4,0.4,0.7c0,0.1-0.1,0.3-0.2,0.5c-0.9,1.5-1.8,3-2.5,4.5v0.2
			c1.3-1.5,2.8-3.1,4.5-4.6c3.3-3.1,6.2-4.7,8.7-4.7c1.9,0,3.4,0.6,4.4,1.9c0.9,1.1,1.3,2.6,1.3,4.5c0,2.5-0.1,5.4-0.4,8.7
			c-0.1,1.2-0.2,3-0.3,5.4c-0.1,1.3-0.1,2.2-0.1,2.7c0,1.2,0.2,2,0.5,2.3c0.2,0.3,0.7,0.4,1.3,0.4c1,0,2.2-0.6,3.6-1.7
			c1-0.8,1.9-2.2,2.9-4c0.6,1.6,1.2,2.8,1.8,3.6c0.3,0.4,0.5,0.8,0.5,1.1c0,0.2-0.1,0.5-0.3,0.8c-2.6,3.7-5.7,5.5-9.2,5.5
			c-4.1,0-6.1-2.4-6.1-7.3c0-1,0.1-3.7,0.4-8.1c0.2-3.9,0.4-6.5,0.4-7.9c0-2.1-0.5-3.2-1.5-3.2c-1.2,0-3,1-5.4,3.1
			c-2.6,2.5-4.8,4.9-6.7,7.1c0,1.1,0,4.5,0.1,10c0,3.5,0.1,6.2,0.1,8.2c0,0.5-0.2,0.7-0.7,0.7c-0.8,0.1-2.1,0.2-3.7,0.2
			c-0.5,0-0.7-0.3-0.7-0.8c0-6.3,0-10.8,0.1-13.7c-1.6,2.5-3.4,5.3-5.6,8.6c-0.2,0.3-0.3,0.5-0.5,0.5c-0.1,0-0.3-0.1-0.6-0.2
			c-1.1-0.7-2.1-1.6-3-2.7c-0.2-0.2-0.3-0.4-0.3-0.5c0-0.3,0.1-0.5,0.4-0.8c3.2-4.1,6.3-8.3,9.4-12.6c0-1.4,0-2.5,0-3.3
			c-2.3,0.6-4.2,1.2-5.8,1.9c-0.1,0-0.2,0.1-0.4,0.3c-0.4,0.3-0.7,0.4-0.9,0.4c-0.4,0-0.7-0.3-1-0.8c-0.5-0.8-1.1-2.2-1.9-4.4
			c0.9,0,2.1-0.2,3.5-0.4c2.5-0.6,4.8-1.2,6.8-1.8v-6.5C443.2,315.7,443.1,314.2,442.7,313z"/>
		<path d="M485.7,314.3c2.7,0.7,4.5,1.2,5.5,1.7c0.5,0.3,0.7,0.6,0.7,1c0,0.3-0.1,0.6-0.3,1.1c-0.3,0.4-0.6,1.3-0.9,2.6
			c-1.6,7.3-2.4,13.1-2.4,17.5c0,2.8,0,4.8,0.1,6.1c0.2-0.5,0.8-1.7,1.6-3.5c0.6-1.3,1-2.3,1.4-3.2c0.6,1.3,1.1,2.3,1.7,3
			c0.2,0.2,0.3,0.5,0.3,0.7c0,0.2-0.1,0.5-0.3,0.8c-1.4,3.1-2.2,5.6-2.5,7.3c-0.1,0.5-0.1,1-0.1,1.5c0,0.3,0,0.6,0.1,1.1
			c0,0,0,0.1,0,0.1c0,0.2-0.2,0.4-0.6,0.5c-0.8,0.3-2,0.6-3.6,0.8c-0.2,0-0.3,0.1-0.4,0.1c-0.2,0-0.4-0.2-0.6-0.7
			c-1.4-3.5-2.1-8.3-2.1-14.6c0-4.1,0.7-10.2,2-18.2c0.3-1.9,0.4-3.3,0.4-4.3C485.8,315.1,485.8,314.7,485.7,314.3z M507.9,339.8
			c-0.1-2.6-0.1-6.3-0.2-11c-2.3,0.1-4.1,0.1-5.3,0.1c-1.7,0-3.3,0-4.6-0.1c-0.5,0-0.8-0.2-0.8-0.6c-0.2-1.3-0.4-2.8-0.4-4.4
			c2.1,0.2,4.2,0.3,6.4,0.3c1.5,0,3,0,4.5-0.1l0-5c0-1.7-0.3-3.2-0.6-4.7c2.6,0.2,4.5,0.5,5.8,0.9c0.6,0.2,0.9,0.4,0.9,0.8
			c0,0.1-0.1,0.4-0.3,0.8c-0.2,0.5-0.3,1-0.4,1.7c-0.1,1.1-0.1,2.8-0.1,5.1c2.1-0.2,4.4-0.5,6.8-0.9c0.1,0,0.2,0,0.3,0
			c0.2,0,0.4,0.2,0.5,0.6c0.2,0.9,0.3,2,0.3,3.4c0,0.4-0.2,0.7-0.5,0.7c-1.7,0.4-4.1,0.8-7.4,1c0,4.7,0.1,9,0.4,12.9
			c2.9,1.2,5.6,2.7,8,4.6c0.2,0.2,0.4,0.3,0.4,0.5c0,0.1,0,0.2-0.1,0.5c-0.7,1.5-1.5,2.7-2.2,3.7c-0.2,0.2-0.3,0.3-0.4,0.3
			c-0.1,0-0.3-0.1-0.4-0.2c-1.5-1.4-3.2-2.7-5.2-3.8c-0.4,4.2-3.3,6.2-8.8,6.2c-2.9,0-5.1-0.7-6.7-2.1c-1.3-1.2-1.9-2.7-1.9-4.7
			c0-2.1,0.9-3.8,2.7-5.1c1.5-1.1,3.5-1.7,5.7-1.7C505.4,339.4,506.7,339.5,507.9,339.8z M508,344.4c-1.3-0.4-2.8-0.6-4.4-0.6
			c-1.1,0-2,0.2-2.6,0.7c-0.5,0.4-0.8,1-0.8,1.6c0,1.6,1.3,2.4,3.9,2.4c1.2,0,2.2-0.3,3-1c0.6-0.6,0.9-1.3,0.9-2.1
			C508.1,344.9,508.1,344.6,508,344.4z M514,313.4l2.6-1.2c0.1,0,0.2,0,0.3,0c0.1,0,0.3,0.1,0.4,0.3c1.4,1.5,2.6,3.4,3.7,5.8
			c0,0.1,0.1,0.2,0.1,0.3c0,0.2-0.1,0.3-0.4,0.4l-2,1c-0.1,0.1-0.2,0.1-0.3,0.1c-0.2,0-0.4-0.1-0.5-0.4
			C516.7,317.2,515.5,315.1,514,313.4z M518.6,311.3l2.5-1.1c0.1,0,0.2-0.1,0.3-0.1c0.1,0,0.3,0.1,0.4,0.3c1.6,1.7,2.8,3.6,3.7,5.6
			c0.1,0.1,0.1,0.2,0.1,0.3c0,0.2-0.1,0.4-0.4,0.5l-1.9,1c-0.1,0-0.3,0.1-0.4,0.1c-0.2,0-0.3-0.1-0.4-0.3
			C521.5,315.2,520.2,313.1,518.6,311.3z"/>
		<path d="M548,341.2c-0.1-3-0.2-4.9-0.2-5.7c-1.3,0-2.6,0-3.6,0c-2.2,0-4.3-0.1-6.3-0.3c-0.5,0-0.7-0.3-0.8-0.8
			c-0.2-1.1-0.3-2.4-0.3-4.1c2.5,0.3,5,0.4,7.7,0.4c1,0,2,0,3.1-0.1l-0.1-5.5c-1.9,0.1-3.5,0.1-4.8,0.1c-2.5,0-4.7-0.1-6.7-0.3
			c-0.5,0-0.8-0.2-0.8-0.7c-0.1-1.2-0.2-2.6-0.3-4.3c2.8,0.3,7,0.5,12.6,0.5c0-0.9,0-2.5-0.1-4.7c-0.1-1.2-0.3-2.3-0.6-3.2
			c2.6,0.2,4.6,0.4,6,0.9c0.5,0.1,0.7,0.4,0.7,0.9c0,0.2,0,0.4-0.1,0.5c-0.5,0.9-0.7,1.7-0.7,2.3c0,0.4,0,0.8,0,1.5
			c0,0.7,0,1.2,0,1.6c3.6-0.3,7.1-0.8,10.5-1.5c0.1,0,0.3,0,0.4,0c0.3,0,0.4,0.2,0.5,0.6c0.2,1.1,0.2,2.3,0.2,3.5
			c0,0.5-0.2,0.7-0.5,0.8c-3.5,0.6-7.2,1-11.1,1.2l0,5.4c1.5-0.1,4.6-0.5,9.4-1.2c0.2,0,0.3-0.1,0.4-0.1c0.2,0,0.3,0.1,0.4,0.4
			c0.1,1.8,0.1,3.1,0.1,3.9c0,0.4-0.2,0.6-0.7,0.7c-3.4,0.5-6.5,0.9-9.4,1.1c0.1,3.2,0.2,5.5,0.3,6.8c4.6,1.3,8.9,3.2,12.7,5.8
			c0.3,0.2,0.4,0.5,0.4,0.7c0,0.1,0,0.2-0.1,0.5c-0.5,1.3-1.2,2.5-2.1,3.6c-0.2,0.2-0.4,0.4-0.6,0.4c-0.2,0-0.4-0.1-0.5-0.2
			c-2.8-2.2-5.9-4-9.5-5.5c0,2.7-1,4.7-2.8,5.8c-1.5,1-3.9,1.5-7,1.5c-3.3,0-5.8-0.7-7.6-2.1c-1.5-1.2-2.2-2.7-2.2-4.6
			c0-2.1,1-3.8,3-5.1c1.8-1.1,4-1.7,6.6-1.7C545,341,546.5,341.1,548,341.2z M548.1,345.8c-1.6-0.4-3.1-0.6-4.5-0.6
			c-3.5,0-5.2,0.8-5.2,2.5c0,1.4,1.6,2.2,4.8,2.2c2.2,0,3.6-0.5,4.4-1.4C547.9,348,548.1,347.1,548.1,345.8z"/>
		<path d="M597.6,320.3c0-0.5,0-1.2,0-2.2c0-0.8,0-1.3,0-1.8c-0.1-1.2-0.3-2.4-0.6-3.5c2.3,0.2,4.2,0.4,5.6,0.7
			c0.9,0.2,1.3,0.5,1.3,0.9c0,0.2-0.1,0.6-0.4,1.1c-0.2,0.3-0.3,0.8-0.4,1.4c0,0.2,0,1.2-0.1,3.1c4.3-0.2,9.2-0.2,14.7-0.2
			c0.3,0,0.5,0,0.6,0.1s0.1,0.3,0.1,0.6c0,0.6,0,1.2,0,1.8c0,0.6,0,1.2,0,1.8c0,0.4-0.2,0.6-0.6,0.6c-0.1,0-0.1,0-0.2,0
			c-3-0.1-6.1-0.1-9.3-0.1c-1.8,0-3.6,0-5.4,0c0,4,0,7,0,8.9c0.5,1.3,0.7,2.9,0.7,4.8c0,6.6-2.9,11.8-8.6,15.5
			c-0.9,0.6-1.6,0.9-1.9,0.9c-0.3,0-0.8-0.2-1.4-0.7c-1-0.8-2.2-1.5-3.7-1.9c2.9-1.3,5.3-3,7-5.1c1.5-1.7,2.4-3.5,2.8-5.5
			c-0.9,1.3-2.4,1.9-4.5,1.9c-2.1,0-3.8-0.7-5-2.2c-1.1-1.3-1.7-3-1.7-5.2c0-2.3,0.8-4.1,2.4-5.5c1.3-1.1,2.9-1.7,4.8-1.7
			c1.7,0,2.9,0.3,3.7,1l0-4.9c-7,0.4-12.5,0.9-16.6,1.4c-0.4,0.1-0.9,0.2-1.4,0.4c-0.4,0.1-0.7,0.2-0.8,0.2c-0.4,0-0.7-0.2-0.8-0.7
			c-0.3-0.8-0.7-2.4-1.2-4.8c0.5,0,1,0.1,1.5,0.1s2-0.1,4.3-0.3C585.3,321.1,590.3,320.8,597.6,320.3z M594.5,332.7
			c-0.9,0-1.7,0.3-2.3,0.9s-0.9,1.3-0.9,2.2c0,1.1,0.3,2,1,2.6c0.5,0.5,1.2,0.7,2.1,0.7c1,0,1.8-0.3,2.4-0.9
			c0.6-0.6,0.8-1.4,0.8-2.4c0-1-0.3-1.8-1-2.4C596.2,332.9,595.4,332.7,594.5,332.7z M607.7,312.9l2.5-1.8c0.1-0.1,0.2-0.1,0.3-0.1
			c0.1,0,0.2,0.1,0.4,0.2c1.6,1.3,3.1,3,4.5,5.1c0.1,0.1,0.1,0.3,0.1,0.4c0,0.2-0.1,0.3-0.3,0.4l-2,1.5c-0.2,0.1-0.3,0.1-0.4,0.1
			c-0.1,0-0.3-0.1-0.4-0.3C611.1,316.2,609.5,314.3,607.7,312.9z M613.2,311.1l2.4-1.7c0.1-0.1,0.2-0.1,0.3-0.1
			c0.1,0,0.2,0.1,0.4,0.2c1.8,1.4,3.4,3.1,4.5,4.9c0.1,0.2,0.1,0.3,0.1,0.4c0,0.2-0.1,0.3-0.3,0.5l-1.9,1.5
			c-0.1,0.1-0.3,0.1-0.4,0.1c-0.2,0-0.3-0.1-0.4-0.3C616.7,314.5,615.1,312.6,613.2,311.1z"/>
		<path d="M630.6,314.3c2.7,0.7,4.5,1.2,5.5,1.7c0.5,0.3,0.7,0.6,0.7,1c0,0.3-0.1,0.6-0.3,1.1c-0.3,0.5-0.6,1.3-0.9,2.6
			c-1.6,7.3-2.4,13.2-2.4,17.5c0,2.8,0,4.8,0.1,6.1c0.2-0.5,0.8-1.7,1.6-3.5c0.6-1.3,1-2.3,1.4-3.2c0.6,1.3,1.1,2.3,1.7,3
			c0.2,0.2,0.3,0.5,0.3,0.7s-0.1,0.5-0.3,0.8c-1.4,3.1-2.2,5.6-2.5,7.3c-0.1,0.5-0.1,1-0.1,1.5c0,0.3,0,0.6,0.1,1.1c0,0,0,0.1,0,0.1
			c0,0.2-0.2,0.4-0.6,0.5c-0.9,0.3-2.1,0.6-3.6,0.8c-0.2,0-0.3,0.1-0.4,0.1c-0.2,0-0.4-0.2-0.6-0.6c-1.4-3.5-2.1-8.4-2.1-14.6
			c0-4.1,0.7-10.1,2-18.2c0.3-1.9,0.4-3.3,0.4-4.3C630.7,315.1,630.6,314.7,630.6,314.3z M652.8,339.8c-0.1-2.6-0.1-6.3-0.2-11
			c-2.2,0.1-4,0.1-5.3,0.1c-1.7,0-3.3,0-4.6-0.1c-0.5,0-0.8-0.2-0.8-0.6c-0.2-1.3-0.4-2.8-0.4-4.4c2.1,0.2,4.3,0.3,6.4,0.3
			c1.5,0,3-0.1,4.5-0.2l0-5c0-1.7-0.3-3.2-0.6-4.7c2.6,0.2,4.5,0.5,5.8,0.9c0.6,0.2,0.9,0.4,0.9,0.8c0,0.1-0.1,0.4-0.3,0.8
			c-0.2,0.5-0.3,1-0.4,1.7c-0.1,1.1-0.1,2.8-0.1,5.1c2.1-0.2,4.4-0.5,6.8-0.9c0.1,0,0.2,0,0.3,0c0.2,0,0.4,0.2,0.5,0.6
			c0.2,0.9,0.3,2,0.3,3.4c0,0.4-0.2,0.7-0.5,0.7c-1.7,0.4-4.1,0.8-7.4,1c0,4.7,0.1,9,0.4,12.9c2.9,1.2,5.6,2.7,8,4.6
			c0.2,0.2,0.4,0.3,0.4,0.5c0,0.1,0,0.2-0.1,0.5c-0.7,1.5-1.5,2.7-2.2,3.7c-0.2,0.2-0.3,0.3-0.4,0.3c-0.1,0-0.3-0.1-0.4-0.2
			c-1.5-1.4-3.2-2.7-5.2-3.8c-0.4,4.2-3.3,6.2-8.8,6.2c-2.9,0-5.1-0.7-6.7-2c-1.3-1.2-1.9-2.7-1.9-4.7c0-2.1,0.9-3.8,2.7-5.1
			c1.5-1.1,3.5-1.7,5.7-1.7C650.3,339.4,651.5,339.6,652.8,339.8z M652.9,344.4c-1.3-0.4-2.7-0.6-4.2-0.6c-2.4,0-3.6,0.8-3.6,2.3
			c0,1.6,1.3,2.4,3.9,2.4c1.2,0,2.2-0.3,3-1c0.6-0.6,0.9-1.3,0.9-2.1C652.9,344.9,652.9,344.6,652.9,344.4z"/>
		<path d="M680,335.2c1.2,0.6,2.5,1.3,3.7,1.9c0.2,0.1,0.4,0.3,0.4,0.5c0,0.1,0,0.2-0.1,0.4c-0.8,1.3-1.3,2.5-1.3,3.7
			c0,1.6,1,2.8,3,3.5c1.8,0.7,4.6,1,8.4,1c4.4,0,8.8-0.5,13-1.4c0.2,0,0.3,0,0.4,0c0.3,0,0.5,0.2,0.6,0.5c0.4,1.4,0.6,3,0.8,4.7
			c0,0,0,0.1,0,0.1c0,0.3-0.3,0.5-0.8,0.6c-4.2,0.8-8.9,1.1-14.1,1.1c-11,0-16.5-3.2-16.5-9.7C677.5,340.1,678.3,337.8,680,335.2z
			 M681.1,317c3.5,0.8,8,1.2,13.5,1.2c3,0,6.3-0.1,10-0.4c0.1,0,0.1,0,0.1,0c0.3,0,0.5,0.2,0.6,0.5c0.2,1.4,0.4,2.8,0.4,4.1
			c0,0.6-0.3,1-0.8,1c-3.8,0.5-7.7,2.1-11.7,4.8c-0.4,0.3-0.8,0.4-1.2,0.4c-0.3,0-0.7-0.1-1-0.3c-1.1-0.7-2.2-1.2-3.4-1.5
			c2.6-1.7,4.7-3,6.3-4c-0.7,0.1-1.9,0.1-3.5,0.1c-3.1,0-6-0.3-8.8-0.8c-0.4-0.1-0.6-0.4-0.6-0.9C680.9,320.8,680.9,319.4,681.1,317
			z M705.1,314.8l2.5-1.8c0.1-0.1,0.2-0.1,0.3-0.1c0.1,0,0.3,0.1,0.4,0.2c1.6,1.3,3.1,3,4.5,5.2c0.1,0.1,0.1,0.2,0.1,0.4
			c0,0.1-0.1,0.3-0.3,0.4l-2,1.5c-0.1,0.1-0.3,0.1-0.4,0.1c-0.1,0-0.3-0.1-0.4-0.3C708.4,318,706.8,316.2,705.1,314.8z M709.5,311.6
			l2.4-1.7c0.1-0.1,0.2-0.1,0.3-0.1s0.2,0.1,0.4,0.2c1.8,1.4,3.4,3,4.6,4.9c0.1,0.2,0.1,0.3,0.1,0.4c0,0.2-0.1,0.3-0.3,0.5l-1.9,1.5
			c-0.1,0.1-0.3,0.1-0.4,0.1c-0.2,0-0.3-0.1-0.4-0.3C712.9,315,711.3,313.1,709.5,311.6z"/>
		<path d="M722.2,344.2c-0.3,0.5-0.6,0.7-0.8,0.7s-0.3-0.3-0.5-0.8c-0.5-1.6-1-3-1.7-4.1c3.4-4,6-8.9,7.8-14.6h-1.1l-4.9,0.1
			c-0.2,0-0.4,0-0.5-0.1c0-0.1-0.1-0.2-0.1-0.4v-3.5c0-0.2,0-0.4,0.1-0.4s0.2-0.1,0.4-0.1l4.9,0.1h1.5v-3c0-2.8-0.1-5-0.4-6.5
			c1.8,0,3.4,0.2,4.8,0.3c0.5,0.1,0.8,0.2,0.8,0.5c0,0.2-0.1,0.6-0.3,1c-0.2,0.5-0.3,2.1-0.3,4.7v3l5-0.1c0.2,0,0.4,0,0.4,0.1
			s0.1,0.2,0.1,0.4v3.5c0,0.2,0,0.4-0.1,0.4s-0.2,0.1-0.4,0.1l-4.7-0.1c1.2,2.8,3.3,5.8,6.3,9.2c-0.6,0.9-1.2,2.2-1.8,3.7
			c-0.2,0.5-0.4,0.8-0.5,0.8c-0.1,0-0.4-0.2-0.7-0.7c-1.7-2.4-2.9-4.8-3.7-7.1c0,5.5,0.1,11.2,0.2,17.1c0,1.3,0.1,2.9,0.1,5
			c0,0.9,0,1.5,0,1.6c0,0.2,0,0.4-0.1,0.4s-0.2,0.1-0.4,0.1h-3.9c-0.3,0-0.4,0-0.5-0.1s-0.1-0.2-0.1-0.4c0-0.1,0-1.3,0.1-3.5
			c0.1-6.7,0.2-12.8,0.3-18.3C726.4,337.1,724.6,340.8,722.2,344.2z M744.2,355.3h-3.9c-0.3,0-0.5-0.2-0.5-0.5l0.1-18.1v-9.5
			l-0.1-13c0-0.3,0-0.4,0.1-0.5s0.2-0.1,0.4-0.1l5.9,0.1h9.2l5.9-0.1c0.2,0,0.4,0,0.4,0.1s0.1,0.2,0.1,0.4l-0.1,11.4v11l0.1,18
			c0,0.3-0.2,0.5-0.5,0.5h-4c-0.3,0-0.5-0.2-0.5-0.5v-2.2h-12.1v2.3c0,0.2,0,0.4-0.1,0.4C744.6,355.3,744.4,355.3,744.2,355.3z
			 M744.8,318.4v6.8h12.1v-6.8H744.8z M744.8,336.4h12.1v-6.7h-12.1V336.4z M744.8,347.9h12.1v-6.9h-12.1V347.9z"/>
		<path d="M773.9,320h5.3l5.1-0.1c0.2,0,0.4,0,0.5,0.1c0,0.1,0.1,0.2,0.1,0.4v3.4c0,0.3,0,0.4-0.1,0.5c0,0-0.2,0.1-0.4,0.1l-5.1-0.1
			h-5.3l-5,0.1c-0.3,0-0.4,0-0.5-0.1c0-0.1-0.1-0.2-0.1-0.4v-3.4c0-0.2,0-0.4,0.1-0.4s0.2-0.1,0.4-0.1L773.9,320z M783.5,354.2
			c0,0.4-0.2,0.5-0.5,0.5h-3.5c-0.2,0-0.4,0-0.4-0.1s-0.1-0.2-0.1-0.4v-1.3h-4.5v2.2c0,0.3-0.2,0.5-0.5,0.5h-3.4
			c-0.4,0-0.5-0.2-0.5-0.5l0.1-7.2v-3.1l-0.1-4.5c0-0.3,0-0.4,0.1-0.5s0.2-0.1,0.4-0.1l4.4,0.1h3.7l4.4-0.1c0.3,0,0.5,0.2,0.5,0.5
			l-0.1,3.7v7.3c4.2-1.2,7.3-3.3,9.1-6.2c1.5-2.3,2.3-5.4,2.6-9.2c0.1-0.8,0.1-1.5,0.1-2.2c0-0.8,0-1.6-0.1-2.4
			c2.1,0.1,3.6,0.3,4.6,0.5c0.6,0.1,0.9,0.3,0.9,0.6c0,0.3-0.1,0.6-0.3,0.9c-0.2,0.3-0.4,1.2-0.5,2.9c0.7,4,2.4,7.3,5,10
			c2.1,2.1,4.6,3.6,7.6,4.7c-0.8,1-1.4,2.1-2,3.4c-0.4,0.8-0.7,1.2-0.9,1.2c-0.2,0-0.5-0.1-1.1-0.4c-4.9-2.6-8.3-6.3-10.2-11.2
			c-1.8,5.2-5.4,8.9-10.5,11.2c-0.6,0.2-1,0.3-1.1,0.3c-0.3,0-0.6-0.4-1-1.2c-0.8-1.4-1.5-2.3-2.2-2.9c0,0.8,0,1.6,0.1,2.2
			C783.5,354,783.5,354.2,783.5,354.2z M775,313.5h3.9l4.3-0.1c0.2,0,0.4,0,0.4,0.1s0.1,0.2,0.1,0.4v3.2c0,0.3-0.2,0.5-0.5,0.5
			l-4.3-0.1H775l-4.4,0.1c-0.3,0-0.5-0.2-0.5-0.5v-3.2c0-0.3,0.2-0.5,0.5-0.5L775,313.5z M775.3,326.8h3.1l4-0.1
			c0.3,0,0.4,0,0.5,0.1c0.1,0.1,0.1,0.2,0.1,0.4v3.1c0,0.2,0,0.4-0.1,0.4c-0.1,0-0.2,0.1-0.5,0.1l-4-0.1h-3.1l-4.1,0.1
			c-0.2,0-0.4,0-0.5-0.1c0-0.1-0.1-0.2-0.1-0.4v-3.1c0-0.3,0-0.4,0.1-0.5c0,0,0.2-0.1,0.4-0.1L775.3,326.8z M775.3,333.3h3.1l4-0.1
			c0.3,0,0.4,0,0.5,0.1c0.1,0.1,0.1,0.2,0.1,0.4v3.1c0,0.3,0,0.4-0.1,0.5c-0.1,0-0.2,0.1-0.5,0.1l-4-0.1h-3.1l-4.1,0.1
			c-0.2,0-0.4,0-0.5-0.1c0-0.1-0.1-0.2-0.1-0.4v-3.1c0-0.2,0-0.4,0.1-0.5c0,0,0.2-0.1,0.4-0.1L775.3,333.3z M779.1,343.8h-4.5v5.1
			h4.5V343.8z M812.2,329.4c-0.6,0.7-1.2,1.7-1.8,3c-0.4,0.8-0.7,1.2-1,1.2c-0.2,0-0.5-0.1-1.1-0.3c-4.9-1.9-8.3-5.2-10.2-9.8
			c-1.8,4.6-5.2,7.9-10.2,9.8c-0.6,0.2-1,0.3-1.1,0.3c-0.3,0-0.6-0.4-1.1-1.2c-0.7-1.2-1.3-2-2-2.6c4-1.2,6.9-3,8.7-5.6
			c1.5-2.1,2.4-4.8,2.6-8.1c0-0.8,0.1-1.5,0.1-2.1c0-0.8,0-1.6-0.1-2.3c1.3,0.1,2.8,0.2,4.5,0.5c0.6,0.1,1,0.3,1,0.6
			c0,0.3-0.1,0.6-0.3,0.9c-0.2,0.2-0.4,1.1-0.5,2.4c0.6,3.9,2.2,7,4.9,9.3C806.5,327.1,809.1,328.4,812.2,329.4z M788.4,335.9
			c0.1-0.3,0.3-0.4,0.4-0.4c0.1,0,0.3,0.1,0.6,0.2l2.4,1.2c0.4,0.2,0.6,0.4,0.6,0.5c0,0.1,0,0.2-0.1,0.4c-1,2.4-2.4,4.7-4.2,6.7
			c-0.2,0.2-0.4,0.3-0.5,0.3s-0.3-0.1-0.6-0.3l-2.4-1.8c-0.3-0.2-0.4-0.4-0.4-0.5c0-0.1,0.1-0.2,0.3-0.4
			C786.1,340.1,787.4,338.1,788.4,335.9z M788.9,316.1c0.1-0.3,0.2-0.4,0.3-0.4c0,0,0.2,0.1,0.6,0.2l2.5,1c0.4,0.2,0.5,0.3,0.5,0.5
			c0,0.1,0,0.2-0.1,0.3c-1,2.7-2.3,4.9-3.7,6.7c-0.2,0.2-0.3,0.3-0.4,0.3c-0.1,0-0.3-0.1-0.6-0.3l-2.4-1.6c-0.3-0.2-0.5-0.4-0.5-0.5
			c0-0.1,0.1-0.2,0.2-0.4C786.9,320.3,788,318.3,788.9,316.1z M801.8,341.4c1.5-1.3,2.8-2.8,3.9-4.3c0.4-0.5,0.7-1.1,0.9-1.8
			c1.5,0.4,2.7,0.9,3.7,1.4c0.6,0.3,0.9,0.6,0.9,0.8c0,0.3-0.2,0.5-0.5,0.7c-0.2,0.1-0.5,0.4-0.8,0.9c-1.2,1.7-2.3,3-3.2,3.9
			c-0.5,0.5-0.9,0.8-1.1,0.8c-0.2,0-0.6-0.3-1.2-0.8C803.5,342.4,802.7,341.9,801.8,341.4z M802,321.7c1.6-1.5,2.8-3,3.8-4.5
			c0.4-0.6,0.7-1.2,0.9-1.8c1.3,0.5,2.5,1,3.6,1.5c0.5,0.3,0.8,0.5,0.8,0.7s-0.2,0.4-0.5,0.7c-0.3,0.2-0.5,0.5-0.8,1
			c-1,1.5-2,2.7-3,3.8c-0.6,0.6-1,0.9-1.2,0.9c-0.2,0-0.6-0.2-1.1-0.7C803.6,322.5,802.8,322,802,321.7z"/>
		<path d="M841.8,312.8c2.2,1.3,4,2.5,5.3,3.7c0.2,0.2,0.4,0.5,0.4,0.8c0,0.4-0.2,0.7-0.7,0.9c-0.8,0.4-1.5,1-2.3,1.7
			c-5.3,4.7-9.6,8.9-13.1,12.5c-0.4,0.5-0.6,0.9-0.6,1.1c0,0.2,0.2,0.5,0.6,0.9c7.3,5.3,13.3,10.4,17.9,15.1
			c0.2,0.3,0.3,0.5,0.3,0.6c0,0.2-0.1,0.3-0.3,0.6c-1.3,1.4-2.4,2.5-3.3,3.3c-0.3,0.2-0.5,0.4-0.7,0.4s-0.3-0.1-0.6-0.4
			c-5.4-6-11.2-11.4-17.5-16.2c-1.7-1.3-2.6-2.6-2.6-4.1c0-0.8,0.2-1.5,0.7-2.2c0.3-0.5,0.8-1.1,1.6-2c1.2-1.3,3.4-3.6,6.5-6.8
			c2.4-2.5,4.3-4.5,5.7-6C840.4,315.1,841.2,313.9,841.8,312.8z"/>
		<path d="M882.9,321.8c2-0.4,4.3-0.9,6.8-1.6c0.1,0,0.2,0,0.3,0c0.3,0,0.5,0.2,0.5,0.5c0.2,1.3,0.3,2.4,0.4,3.4c0,0.1,0,0.1,0,0.2
			c0,0.4-0.2,0.6-0.7,0.7c-2.8,0.8-5.5,1.4-8.3,1.8c-3.2,10.3-6.1,19-8.8,26c-0.1,0.4-0.3,0.6-0.6,0.6c-0.1,0-0.2,0-0.5-0.1
			c-1.6-0.7-2.9-1.2-3.8-1.8c-0.3-0.2-0.4-0.4-0.4-0.7c0-0.1,0-0.2,0-0.3c3.4-7.7,6.1-15.3,8.3-22.7c-3.4,0.4-6.2,0.5-8.4,0.5
			c-0.6,0-0.9-0.3-1-0.8c-0.2-0.8-0.4-2.3-0.7-4.4c0.7,0.1,1.9,0.2,3.6,0.2c2.5,0,5.1-0.2,7.8-0.5c0.4-1.5,0.8-3.5,1.2-6
			c0.2-1.4,0.3-2.9,0.3-4.4c2.9,0.4,4.9,0.9,6,1.3c0.4,0.1,0.5,0.4,0.5,0.8c0,0.3-0.1,0.5-0.2,0.8c-0.6,1-0.9,1.7-1,1.9
			c-0.2,0.6-0.4,1.5-0.7,2.6C883.2,320.7,883,321.4,882.9,321.8z M883.8,343.8c1.9-0.5,3.2-0.7,4.1-0.7c0.4,0,0.7,0.2,0.7,0.7
			c0.2,1.8,1,3,2.3,3.7c1.1,0.5,2.8,0.8,5,0.8c1.8,0,4.5-0.2,8.1-0.7c0.1,0,0.1,0,0.2,0c0.2,0,0.4,0.1,0.4,0.4
			c0.2,1.7,0.4,3.1,0.4,4.2c0,0.1,0,0.2,0,0.2c0,0.3-0.3,0.5-0.8,0.5c-2.4,0.4-4.6,0.5-6.7,0.5c-3.3,0-5.8-0.3-7.6-0.8
			c-1.6-0.5-2.9-1.2-3.9-2.3C884.6,349,883.9,346.8,883.8,343.8z M887.5,334.7c-0.1-2.3-0.2-3.7-0.2-4.4c0-0.4,0.1-0.6,0.2-0.7
			c0.1-0.1,0.3-0.2,0.7-0.3c3.6-0.7,6.7-1.1,9.4-1.1c1.9,0,3.8,0.2,5.6,0.5c0.4,0.1,0.6,0.1,0.7,0.2c0.1,0.1,0.1,0.2,0.1,0.5
			c0,0.7,0.1,1.4,0.1,2.2c0,0.5,0,1,0,1.6c0,0.6-0.2,0.9-0.6,0.9c-0.1,0-0.2,0-0.4,0c-1.9-0.4-3.9-0.6-6-0.6
			C894.4,333.6,891.2,334,887.5,334.7z M895.9,318.5l2.5-1.8c0.1-0.1,0.2-0.1,0.3-0.1c0.1,0,0.2,0.1,0.4,0.2c1.6,1.3,3.2,3,4.5,5.1
			c0.1,0.1,0.1,0.3,0.1,0.4c0,0.2-0.1,0.3-0.3,0.4l-2,1.5c-0.1,0.1-0.3,0.2-0.4,0.2c-0.2,0-0.3-0.1-0.4-0.3
			C899.2,321.7,897.6,319.9,895.9,318.5z M900.3,315.3l2.4-1.7c0.1-0.1,0.2-0.1,0.3-0.1c0.1,0,0.2,0.1,0.4,0.2
			c1.8,1.4,3.4,3,4.6,4.9c0.1,0.1,0.1,0.3,0.1,0.4c0,0.2-0.1,0.3-0.3,0.5l-1.9,1.5c-0.1,0.1-0.3,0.2-0.4,0.2c-0.2,0-0.3-0.1-0.4-0.3
			C903.7,318.7,902.1,316.8,900.3,315.3z"/>
		<path d="M931.8,322.5c-1.1-2.3-1.8-3.9-2.3-4.9c-0.8-1.6-1.6-2.9-2.4-3.9c2.8-0.5,4.7-0.8,5.7-0.8c1.1,0,1.6,0.3,1.6,1v0.7
			c0,0.3,0,0.5,0.1,0.7c0.2,0.7,0.4,1.5,0.8,2.4c0.8,2,1.3,3.2,1.6,3.9c3.8-0.9,7.2-1.9,10-3c0.2-0.1,0.3-0.1,0.4-0.1
			c0.2,0,0.3,0.2,0.5,0.5c0.3,0.6,0.7,1.8,1.2,3.7c0,0.1,0,0.2,0,0.3c0,0.3-0.1,0.4-0.4,0.5c-2.5,0.9-5.7,1.9-9.6,2.8
			c1.9,3.4,4.3,6.8,7.3,10.1c0.3,0.2,0.7,0.6,1.3,1.1c0.3,0.3,0.5,0.5,0.5,0.6c0,0.2-0.1,0.5-0.3,0.8c-0.4,0.9-1,2-1.9,3.1
			c-0.4,0.5-0.7,0.7-1,0.7c-0.2,0-0.4-0.1-0.8-0.4c-0.8-0.6-1.5-1-2-1.3c-3.1-1.6-6.5-2.4-10.2-2.4c-5.3,0-8,1.5-8,4.5
			c0,3.4,4,5.1,11.9,5.1c2.5,0,5.1-0.2,7.7-0.7c-0.2,1.9-0.5,3.6-1,5.1c-0.1,0.4-0.4,0.6-0.9,0.7c-1.3,0.2-3.1,0.3-5.3,0.3
			c-6,0-10.5-1-13.5-2.9c-2.6-1.7-3.9-4-3.9-7s1.3-5.3,3.8-7c2.2-1.5,5.2-2.3,8.8-2.3c3.3,0,6.2,0.4,8.6,1.3c-2.3-2.1-4.3-5-6.2-8.5
			c-3.1,0.5-6.2,1-9.3,1.2c-2.2,0.2-3.7,0.2-4.7,0.2c-0.4,0-0.6-0.3-0.8-0.9c-0.4-1.2-0.7-2.6-1.1-4.3c1,0,1.8,0,2.6,0
			c1.1,0,2.3,0,3.4-0.1C926.2,323.4,928.7,323,931.8,322.5z"/>
		<path d="M963.6,318.4c2.6,0.3,4.6,0.8,6.1,1.6c0.5,0.2,0.8,0.5,0.8,0.9c0,0.3-0.1,0.7-0.4,1.3c-0.3,0.9-0.4,2.4-0.4,4.7
			c0,4,0.3,7.6,0.9,10.9c0.8,4.7,2.1,7.1,3.9,7.1c0.8,0,1.6-0.6,2.3-1.7c0.7-1,1.4-2.7,2.3-5c0.8,1.3,1.8,2.5,3.1,3.7
			c0.3,0.3,0.5,0.6,0.5,1c0,0.2,0,0.5-0.1,0.8c-1,2.6-2.2,4.5-3.8,5.8c-1.3,1.1-2.8,1.7-4.4,1.7c-2.1,0-4-1.2-5.7-3.7
			c-1.6-2.3-2.7-5.2-3.2-8.9c-0.8-4.6-1.1-9.2-1.1-14C964.2,322.3,964,320.2,963.6,318.4z M988.2,325.2c1.6-1,2.8-1.7,3.8-2.2
			c0.3-0.1,0.4-0.2,0.5-0.2c0.2,0,0.3,0.1,0.5,0.3c2.4,2,4.4,4.7,6.2,8c1.6,2.9,2.6,5.7,3.2,8.5c0,0.1,0,0.2,0,0.3
			c0,0.3-0.2,0.5-0.6,0.8c-1.4,0.9-2.7,1.5-3.8,1.9c-0.2,0-0.3,0.1-0.4,0.1c-0.3,0-0.5-0.2-0.6-0.6c-0.9-3.8-2.1-7-3.5-9.7
			C992.2,329.8,990.4,327.5,988.2,325.2z"/>
		<path d="M1014.9,342.7c2.1,0,3.8,0.8,5.2,2.3c1.2,1.3,1.8,2.9,1.8,4.6c0,2.1-0.8,3.8-2.3,5.1c-1.3,1.2-2.9,1.8-4.7,1.8
			c-2.1,0-3.8-0.8-5.2-2.3c-1.2-1.3-1.8-2.9-1.8-4.6c0-2.1,0.8-3.8,2.3-5.1C1011.5,343.3,1013.1,342.7,1014.9,342.7z M1014.9,345.6
			c-1.2,0-2.2,0.4-3,1.3c-0.7,0.8-1,1.6-1,2.7c0,1.2,0.4,2.2,1.3,3c0.8,0.7,1.6,1,2.7,1c1.2,0,2.2-0.4,3-1.3c0.7-0.8,1-1.6,1-2.7
			c0-1.2-0.4-2.2-1.3-3C1016.8,346,1015.9,345.6,1014.9,345.6z"/>
	</g>
</g>
<g>
</g>
<g>
</g>
<g>
</g>
<g>
</g>
<g>
</g>
<g>
</g>
<g>
</g>
<g>
</g>
<g>
</g>
<g>
</g>
<g>
</g>
<g>
</g>
<g>
</g>
<g>
</g>
<g>
</g>
</svg>
