<svg xmlns="http://www.w3.org/2000/svg" width="188.65" height="48.97" viewBox="0 0 188.65 48.97">
  <g>
    <path d="M36.08,19.52H38l1.11,6.13.62,3.78h.07c.25-1.27.52-2.53.8-3.78l1.52-6.13h1.63l1.54,6.13c.27,1.23.52,2.5.8,3.78h.08c.19-1.28.4-2.55.59-3.78l1.12-6.13h1.78L47.33,31.3H45.05l-1.59-6.55c-.21-.92-.38-1.8-.54-2.7h-.08c-.16.9-.36,1.78-.55,2.7L40.74,31.3H38.5Z" style="fill: #f7931e"/>
    <path d="M52.31,19.52h7v1.55H54.17v3.28h4.32v1.57H54.17v3.81h5.28V31.3H52.31Z" style="fill: #f7931e"/>
    <path d="M62.35,19.52H66c2.42,0,4.16.77,4.16,2.9A2.61,2.61,0,0,1,68.48,25h0a2.71,2.71,0,0,1,2.32,2.8c0,2.34-1.9,3.46-4.51,3.46H62.35Zm3.44,4.91c1.79,0,2.55-.67,2.55-1.77S67.5,21,65.84,21H64.21v3.47Zm.29,5.41c1.84,0,2.9-.65,2.9-2.09s-1-1.91-2.9-1.91H64.21v4Z" style="fill: #f7931e"/>
    <path d="M78.5,25a12.26,12.26,0,0,1,3.3-.49c2.35,0,4.13,1.26,4.13,3.3,0,1.88-1.09,3.2-3.43,3.76a10.38,10.38,0,0,1-2,.22l-.58-1.6a11.07,11.07,0,0,0,1.91-.11c1.33-.24,2.5-.95,2.5-2.29s-1.11-1.89-2.55-1.89a10.58,10.58,0,0,0-3.25.53c0,1.31.07,2.64.07,3.26,0,1.69-.63,2.17-1.56,2.17-1.37,0-3.49-1.25-3.49-2.79,0-1.34,1.62-2.74,3.49-3.55V22.78c-.39,0-.74,0-1,0A17.32,17.32,0,0,1,74,22.75V21.21a16.44,16.44,0,0,0,2.1.13h1.08V19.75A10.36,10.36,0,0,0,77,18.5h1.73c0,.31-.08.84-.09,1.22a13.77,13.77,0,0,1-.07,1.46,19.55,19.55,0,0,0,3.12-.61v1.57a31.2,31.2,0,0,1-3.19.53v1.82Zm-1.38,4.44c0-.5,0-1.41-.05-2.43-1.15.56-1.95,1.36-1.95,2s.93,1.16,1.47,1.16c.34,0,.53-.17.53-.74Zm6.37-9.22a29.22,29.22,0,0,1,3.75,2.27l-.79,1.28a22.9,22.9,0,0,0-3.66-2.33Z" style="fill: #f7931e"/>
    <path d="M102.75,20v9.14h-1.54v-.8H97.14v4.25H95.61V28.32h-4v.88H90.18V20h5.43V17.89h1.53V20Zm-11.1,1.43v2h4v-2Zm4,5.49V24.79h-4V26.9Zm1.53-5.49v2h4.07v-2Zm4.07,5.49V24.79H97.14V26.9Z" style="fill: #f7931e"/>
    <path d="M109.43,18.78c-.09.58-.14,1.25-.17,1.81-.07,1.76-.2,5.41-.2,7.62,0,1.67,1.06,2.24,2.42,2.24a6.45,6.45,0,0,0,5.57-3.26l1.14,1.39a8.1,8.1,0,0,1-6.74,3.55c-2.42,0-4-1-4-3.66,0-2.26.16-6.34.16-7.88a8.56,8.56,0,0,0-.16-1.82Z" style="fill: #f7931e"/>
    <path d="M123.85,29.14c.7,1.1,2,1.62,3.77,1.68s5.33,0,7.33-.11a7.49,7.49,0,0,0-.49,1.52c-1.81.08-5,.11-6.85,0a5.46,5.46,0,0,1-4.42-1.84c-.75.66-1.52,1.3-2.35,2l-.77-1.54a22.16,22.16,0,0,0,2.32-1.65V25.46h-2V24.08h3.51Zm-.74-7.47a11.67,11.67,0,0,0-2.67-2.53l1.1-.9a12.8,12.8,0,0,1,2.74,2.45Zm7-3.06c.32,4.72,1.45,8.51,4.68,10.16a6.32,6.32,0,0,0-1.17,1.14A9.35,9.35,0,0,1,129.54,24a10.91,10.91,0,0,1-4,5.91,9.52,9.52,0,0,0-1.17-1.12c2.28-1.41,3.57-3.84,4.17-7l.54.08c-.1-.6-.16-1.22-.22-1.84H126V18.61Z" style="fill: #f7931e"/>
    <path d="M150.75,28.92a15.93,15.93,0,0,0-1.52-1.19,7.7,7.7,0,0,1-4.1,4.53l-1.34-1.1a6.81,6.81,0,0,0,4.11-4.26,11.37,11.37,0,0,0-4.17-1.36,29.45,29.45,0,0,1-1.93,4,2.49,2.49,0,0,1-2.2,1.24,2.19,2.19,0,0,1-2.24-2.12,1.93,1.93,0,0,1,0-.24c0-2.38,2.19-4.22,5.33-4.33.51-1.16,1-2.39,1.47-3.25-.62,0-2.3.09-3,.14a11.43,11.43,0,0,0-1.23.11l-.07-1.63h1.25c.86,0,2.77-.08,3.47-.15a2.61,2.61,0,0,0,.92-.19l1,.8a3.29,3.29,0,0,0-.47.59c-.41.69-1,2.18-1.68,3.61a14.57,14.57,0,0,1,3.93,1.16c0-.3.08-.6.09-.89a13.71,13.71,0,0,0,0-1.57L150,23a18.85,18.85,0,0,1-.32,3c.72.4,1.33.82,1.83,1.16ZM142,25.52c-2,.24-3.2,1.46-3.2,2.66a.84.84,0,0,0,.75.91h0c.33,0,.57-.13.89-.54A20.43,20.43,0,0,0,142,25.52Z" style="fill: #f7931e"/>
  </g>
</svg>
