<svg xmlns="http://www.w3.org/2000/svg" width="560" height="103.18" viewBox="0 0 560 103.18">
  <g>
    <path d="M159.49,39.64h4l2.31,12.84,1.31,7.91h.14c.53-2.65,1.1-5.3,1.67-7.91l3.19-12.84h3.42l3.21,12.84c.57,2.58,1.11,5.23,1.68,7.91h.17c.4-2.68.84-5.33,1.24-7.91l2.35-12.84h3.72l-4.86,24.67h-4.8L174.94,50.6c-.43-1.94-.8-3.79-1.14-5.67h-.17c-.33,1.88-.73,3.73-1.13,5.67l-3.26,13.71h-4.69Z" style="fill: #fff"/>
    <path d="M193.39,39.64H208v3.25h-10.7v6.87h9.06v3.29h-9.06v8h11.07v3.28h-15Z" style="fill: #fff"/>
    <path d="M214.32,39.64H222c5.06,0,8.72,1.61,8.72,6.07A5.5,5.5,0,0,1,227.16,51v.16A5.68,5.68,0,0,1,232,57.07c0,4.9-4,7.24-9.46,7.24h-8.24Zm7.21,10.29c3.75,0,5.33-1.41,5.33-3.72,0-2.58-1.75-3.56-5.23-3.56h-3.42v7.28Zm.6,11.33c3.85,0,6.07-1.37,6.07-4.39,0-2.78-2.15-4-6.07-4h-3.92v8.38Z" style="fill: #fff"/>
    <path d="M248.05,51.1a25.77,25.77,0,0,1,6.91-1c4.93,0,8.65,2.65,8.65,6.91,0,4-2.28,6.71-7.18,7.88a21.55,21.55,0,0,1-4.19.47L251,62a21.67,21.67,0,0,0,4-.24c2.79-.5,5.23-2,5.23-4.79,0-2.55-2.31-4-5.33-4a22.06,22.06,0,0,0-6.8,1.11c0,2.75.13,5.53.13,6.84,0,3.52-1.31,4.52-3.25,4.52-2.88,0-7.31-2.61-7.31-5.83,0-2.82,3.39-5.73,7.31-7.44V50.1c0-1.18,0-2.42,0-3.66-.8.07-1.54.1-2.18.1-1.47,0-3,0-4.35-.16l-.11-3.22a33.93,33.93,0,0,0,4.4.27c.7,0,1.47,0,2.28-.07,0-1.51,0-2.72,0-3.32a21.61,21.61,0,0,0-.2-2.62h3.62c-.07.64-.17,1.75-.2,2.55s-.07,1.88-.14,3.05a39.12,39.12,0,0,0,6.54-1.27l.07,3.28a65.24,65.24,0,0,1-6.67,1.11c0,1.34-.07,2.65-.07,3.82Zm-2.88,9.29c0-1-.07-3-.1-5.1-2.42,1.18-4.09,2.85-4.09,4.2s1.94,2.44,3.08,2.44C244.76,61.93,245.17,61.5,245.17,60.39Zm13.34-19.31a61.12,61.12,0,0,1,7.85,4.76l-1.65,2.68A49.41,49.41,0,0,0,257,43.63Z" style="fill: #fff"/>
    <path d="M298.74,40.61V59.75h-3.22V58.08H287V67h-3.22V58.08h-8.28v1.84h-3.09V40.61h11.37V36.22H287v4.39Zm-23.23,3v4.19h8.28V43.59Zm8.28,11.5V50.67h-8.28v4.42ZM287,43.59v4.19h8.51V43.59Zm8.51,11.5V50.67H287v4.42Z" style="fill: #fff"/>
    <path d="M312.62,38.09c-.2,1.21-.3,2.62-.37,3.79-.13,3.69-.4,11.34-.4,16,0,3.49,2.21,4.7,5.06,4.7,5.84,0,9.29-3.29,11.67-6.84L331,58.61a16.88,16.88,0,0,1-14.12,7.45c-5.06,0-8.44-2.18-8.44-7.68,0-4.73.33-13.28.33-16.5a19.49,19.49,0,0,0-.33-3.82Z" style="fill: #fff"/>
    <path d="M342.7,59.79c1.47,2.31,4.22,3.38,7.91,3.52s11.17,0,15.36-.24a13.88,13.88,0,0,0-1,3.19c-3.79.17-10.53.23-14.35.06-4.26-.16-7.14-1.27-9.26-3.85-1.57,1.37-3.18,2.72-4.93,4.16l-1.61-3.22A51.88,51.88,0,0,0,339.65,60V52.08h-4.3V49.19h7.35Zm-1.54-15.66a25.42,25.42,0,0,0-5.6-5.3L337.87,37a26.74,26.74,0,0,1,5.73,5.13Zm14.65-6.4c.67,9.89,3,17.83,9.79,21.29a13.4,13.4,0,0,0-2.45,2.38c-4.43-2.62-7-6.94-8.52-12.38-1.71,5.44-4.42,9.56-8.38,12.38a19.72,19.72,0,0,0-2.45-2.35c4.77-2.95,7.48-8,8.72-14.69l1.14.17c-.2-1.24-.33-2.55-.47-3.85h-6v-3Z" style="fill: #fff"/>
    <path d="M399,59.32a31.34,31.34,0,0,0-3.18-2.48c-1.41,4-4,7.1-8.59,9.48L384.39,64c5.16-2.18,7.51-5.56,8.61-8.92a23.8,23.8,0,0,0-8.75-2.85,62.57,62.57,0,0,1-4,8.35,5.22,5.22,0,0,1-4.63,2.58,4.56,4.56,0,0,1-4.66-4.92c0-5,4.6-8.86,11.17-9.09,1.07-2.42,2.18-5,3.08-6.81-1.31,0-4.83.2-6.34.3-.7,0-1.74.14-2.58.24l-.13-3.42c.87.07,1.91.1,2.62.1,1.81,0,5.8-.17,7.27-.3a6.44,6.44,0,0,0,1.91-.4L390,40.54a6.8,6.8,0,0,0-1,1.24c-.87,1.44-2.21,4.56-3.52,7.55a29.88,29.88,0,0,1,8.21,2.44,17.76,17.76,0,0,0,.2-1.87,25.8,25.8,0,0,0,0-3.29l3.42.37a43,43,0,0,1-.67,6.3c1.51.84,2.79,1.71,3.82,2.42Zm-18.24-7.11c-4.29.5-6.7,3-6.7,5.57a1.74,1.74,0,0,0,1.64,1.91,2.23,2.23,0,0,0,1.88-1.14A44.7,44.7,0,0,0,380.73,52.21Z" style="fill: #fff"/>
  </g>
</svg>
