<svg xmlns="http://www.w3.org/2000/svg" width="386.92" height="48.97" viewBox="0 0 386.92 48.97">
  <g>
    <g>
      <path d="M33.09,25.51c0-.62,0-1.27.09-1.94a13.24,13.24,0,0,1,.35-2,10.54,10.54,0,0,1,.67-1.86,5.47,5.47,0,0,1,1.08-1.54,5.19,5.19,0,0,1,1.56-1.06,5.82,5.82,0,0,1,4.19,0,5.19,5.19,0,0,1,1.56,1.06,5.47,5.47,0,0,1,1.08,1.54,10.54,10.54,0,0,1,.67,1.86,13.24,13.24,0,0,1,.35,2c.06.67.09,1.32.09,1.94a20.1,20.1,0,0,1-.23,2.88,10,10,0,0,1-.89,2.85,6,6,0,0,1-1.79,2.18,4.76,4.76,0,0,1-2.93.86A4.77,4.77,0,0,1,36,33.42a6.14,6.14,0,0,1-1.79-2.18,10,10,0,0,1-.88-2.85A18.83,18.83,0,0,1,33.09,25.51Zm2.3,0a19.28,19.28,0,0,0,.11,2A9.62,9.62,0,0,0,36,29.72,4.89,4.89,0,0,0,37,31.53a2.82,2.82,0,0,0,3.81,0,4.89,4.89,0,0,0,1.07-1.81,10.19,10.19,0,0,0,.47-2.22c.07-.77.1-1.43.1-2,0-.38,0-.82,0-1.31a12.91,12.91,0,0,0-.17-1.48,10.2,10.2,0,0,0-.37-1.47A4.88,4.88,0,0,0,41.27,20a3,3,0,0,0-1-.89,2.91,2.91,0,0,0-2.73,0,3,3,0,0,0-1,.89A5.22,5.22,0,0,0,36,21.25a10.2,10.2,0,0,0-.37,1.47,12.91,12.91,0,0,0-.17,1.48C35.4,24.69,35.39,25.13,35.39,25.51Z" style="fill: #fff"/>
      <path d="M52.07,19.66,49,22.54l-1.35-1.61L52.34,17h2V34h-2.3Z" style="fill: #fff"/>
      <path d="M60,31.55l6.81-6.76a8,8,0,0,0,.69-.73,5.29,5.29,0,0,0,.6-.83,4,4,0,0,0,.42-.91,3.05,3.05,0,0,0,.16-1,2.7,2.7,0,0,0-.23-1.12,2.43,2.43,0,0,0-.62-.85,3,3,0,0,0-.94-.54,3.33,3.33,0,0,0-1.14-.19,3.09,3.09,0,0,0-2.06.69,3.17,3.17,0,0,0-1,1.92L60.2,21a5.23,5.23,0,0,1,.66-1.95,4.77,4.77,0,0,1,1.22-1.38,4.86,4.86,0,0,1,1.68-.81,7.42,7.42,0,0,1,2.05-.27,7,7,0,0,1,2.07.3,5,5,0,0,1,1.7.89,4.13,4.13,0,0,1,1.15,1.46,4.69,4.69,0,0,1,.42,2.05,4.74,4.74,0,0,1-.25,1.57,6.74,6.74,0,0,1-.66,1.38,8.37,8.37,0,0,1-.93,1.22c-.35.39-.72.76-1.11,1.13L62.62,32h8.53v2H60Z" style="fill: #fff"/>
      <path d="M73.07,25.51a18.69,18.69,0,0,1,.1-1.94,12.07,12.07,0,0,1,.35-2,9.8,9.8,0,0,1,.67-1.86,5.28,5.28,0,0,1,1.08-1.54,5,5,0,0,1,1.55-1.06,5.85,5.85,0,0,1,4.2,0,5.19,5.19,0,0,1,1.56,1.06,5.44,5.44,0,0,1,1.07,1.54,10.57,10.57,0,0,1,.68,1.86,13.22,13.22,0,0,1,.34,2,18,18,0,0,1-.14,4.82,10,10,0,0,1-.89,2.85,6,6,0,0,1-1.78,2.18,5.46,5.46,0,0,1-5.88,0,6,6,0,0,1-1.78-2.18,10,10,0,0,1-.89-2.85A18.83,18.83,0,0,1,73.07,25.51Zm2.3,0c0,.56,0,1.22.11,2A9.64,9.64,0,0,0,76,29.72,4.87,4.87,0,0,0,77,31.53a2.83,2.83,0,0,0,3.82,0,4.87,4.87,0,0,0,1.06-1.81,9.64,9.64,0,0,0,.47-2.22c.07-.77.11-1.43.11-2,0-.38,0-.82,0-1.31a11,11,0,0,0-.17-1.48,9,9,0,0,0-.37-1.47A5.19,5.19,0,0,0,81.26,20a3.16,3.16,0,0,0-1-.89,2.93,2.93,0,0,0-2.74,0,3.16,3.16,0,0,0-1,.89A5.19,5.19,0,0,0,76,21.25a9,9,0,0,0-.37,1.47,11,11,0,0,0-.17,1.48C75.38,24.69,75.37,25.13,75.37,25.51Z" style="fill: #fff"/>
      <path d="M92.32,29.2h-5.9v-2h5.9Z" style="fill: #fff"/>
      <path d="M102.39,19H94.17V17h10.66v2L98.07,34H95.48Z" style="fill: #fff"/>
      <path d="M114.54,30.26H107.3V27.91L114.06,17h2.78V28.24h2.4v2h-2.4V34h-2.3Zm0-10.5h-.05l-5.17,8.48h5.22Z" style="fill: #fff"/>
      <path d="M125.09,23.59h.09a4.33,4.33,0,0,1,1.87-.38,5.75,5.75,0,0,1,1.85.31,4.93,4.93,0,0,1,1.69,1,5.08,5.08,0,0,1,1.23,1.68,5.6,5.6,0,0,1,.48,2.41,6.17,6.17,0,0,1-.46,2.48,5,5,0,0,1-1.26,1.78,5.19,5.19,0,0,1-1.85,1.08,6.89,6.89,0,0,1-2.25.36,6.64,6.64,0,0,1-2.25-.38,5.55,5.55,0,0,1-1.85-1.1,5.28,5.28,0,0,1-1.73-4,7.9,7.9,0,0,1,.12-1.44,7.34,7.34,0,0,1,.35-1.24,9.2,9.2,0,0,1,.54-1.15c.21-.37.44-.77.7-1.18L126.65,17h2.71ZM123,28.75a3.8,3.8,0,0,0,.25,1.41,3,3,0,0,0,.72,1.11A3.27,3.27,0,0,0,125,32a4.12,4.12,0,0,0,2.88,0,3.27,3.27,0,0,0,1.11-.74,3.23,3.23,0,0,0,.72-1.11,4.13,4.13,0,0,0,0-2.83,3.23,3.23,0,0,0-.72-1.11,3.11,3.11,0,0,0-1.11-.73,4,4,0,0,0-2.88,0,3.11,3.11,0,0,0-1.11.73,3,3,0,0,0-.72,1.11A3.82,3.82,0,0,0,123,28.75Z" style="fill: #fff"/>
      <path d="M139.88,29.2H134v-2h5.9Z" style="fill: #fff"/>
      <path d="M141.82,31.55l6.81-6.76a8,8,0,0,0,.69-.73,5.29,5.29,0,0,0,.6-.83,4,4,0,0,0,.42-.91,3.34,3.34,0,0,0,.16-1,2.7,2.7,0,0,0-.23-1.12,2.43,2.43,0,0,0-.62-.85,3,3,0,0,0-.94-.54,3.33,3.33,0,0,0-1.14-.19,3.07,3.07,0,0,0-2.06.69,3.12,3.12,0,0,0-1,1.92L142,21a5.23,5.23,0,0,1,.66-1.95,4.63,4.63,0,0,1,1.22-1.38,4.86,4.86,0,0,1,1.68-.81,7.42,7.42,0,0,1,2-.27,7,7,0,0,1,2.07.3,5.1,5.1,0,0,1,1.7.89,4.13,4.13,0,0,1,1.15,1.46,4.69,4.69,0,0,1,.42,2.05,4.74,4.74,0,0,1-.25,1.57,6.74,6.74,0,0,1-.66,1.38,8.37,8.37,0,0,1-.93,1.22c-.36.39-.72.76-1.11,1.13L144.41,32h8.53v2H141.82Z" style="fill: #fff"/>
      <path d="M162.1,27.43H162a4.3,4.3,0,0,1-1.87.38,5.73,5.73,0,0,1-1.84-.31,4.84,4.84,0,0,1-1.69-1,5.11,5.11,0,0,1-1.24-1.68,5.6,5.6,0,0,1-.48-2.41,6.13,6.13,0,0,1,.47-2.46,5.13,5.13,0,0,1,1.26-1.78,5.36,5.36,0,0,1,1.85-1.09,6.64,6.64,0,0,1,2.25-.37,6.41,6.41,0,0,1,2.25.38,5.55,5.55,0,0,1,1.85,1.1,5.23,5.23,0,0,1,1.72,4,7.9,7.9,0,0,1-.12,1.44,7,7,0,0,1-.34,1.23c-.16.4-.34.78-.54,1.17s-.44.77-.7,1.17L160.54,34h-2.71Zm2.13-5.16a3.8,3.8,0,0,0-.25-1.41,3.37,3.37,0,0,0-.72-1.12,3.4,3.4,0,0,0-1.11-.73,4.12,4.12,0,0,0-2.88,0,3.4,3.4,0,0,0-1.11.73,3.37,3.37,0,0,0-.72,1.12,3.8,3.8,0,0,0-.25,1.41,3.85,3.85,0,0,0,.25,1.42,3.23,3.23,0,0,0,1.83,1.84,4,4,0,0,0,2.88,0A3.23,3.23,0,0,0,164,23.69,3.85,3.85,0,0,0,164.23,22.27Z" style="fill: #fff"/>
      <path d="M168.48,31.55l6.8-6.76a8.1,8.1,0,0,0,.7-.73,7,7,0,0,0,.6-.83,5,5,0,0,0,.42-.91,3.33,3.33,0,0,0,.15-1,2.7,2.7,0,0,0-.22-1.12,2.45,2.45,0,0,0-.63-.85,2.84,2.84,0,0,0-.93-.54,3.33,3.33,0,0,0-1.14-.19,3,3,0,0,0-3.09,2.61l-2.5-.22a5.61,5.61,0,0,1,.66-1.95,4.81,4.81,0,0,1,1.23-1.38,4.72,4.72,0,0,1,1.67-.81,7.47,7.47,0,0,1,2.05-.27,7,7,0,0,1,2.08.3,5.2,5.2,0,0,1,1.7.89,4.13,4.13,0,0,1,1.15,1.46,4.69,4.69,0,0,1,.42,2.05,4.74,4.74,0,0,1-.25,1.57,6.74,6.74,0,0,1-.66,1.38,8.44,8.44,0,0,1-.94,1.22c-.35.39-.72.76-1.1,1.13L171.07,32h8.53v2H168.48Z" style="fill: #fff"/>
    </g>
    <g>
      <path d="M201.53,16.66a8.66,8.66,0,0,1-3,3.41,18.78,18.78,0,0,0,4.93,1.16,5.39,5.39,0,0,0-.79,1.23,17.12,17.12,0,0,1-5.47-1.62,19.91,19.91,0,0,1-5.53,1.64,4.17,4.17,0,0,0-.76-1.18,19.51,19.51,0,0,0,5-1.23,9.48,9.48,0,0,1-2.55-2.58l.25-.11h-.6V16.17h7.36l.23,0Zm-9.08-.08h-1.22v-2.9h2.12a9.73,9.73,0,0,0-.8-1.67l1.13-.32a7.48,7.48,0,0,1,.9,1.75l-.76.24h3a8.17,8.17,0,0,0-.63-2l1.16-.25a7.86,7.86,0,0,1,.7,1.93l-1.18.3h2.79a14.38,14.38,0,0,0,1.12-2.26l1.36.37c-.36.63-.77,1.33-1.16,1.89h2.2v2.9h-1.28V14.83h-9.48Zm10.1-5.9a74.67,74.67,0,0,1-10.9,1.05,3.55,3.55,0,0,0-.28-1.11,73.44,73.44,0,0,0,10.27-1Zm-7.76,6.7a7.8,7.8,0,0,0,2.45,2.06,7.16,7.16,0,0,0,2.33-2.06Z" style="fill: #fff"/>
      <path d="M210.21,10.18a22.74,22.74,0,0,1-1.41,3v9.39h-1.32V15.16a12,12,0,0,1-1.23,1.45,8.14,8.14,0,0,0-.79-1.33,15.17,15.17,0,0,0,3.46-5.51Zm8.1,3.86h-1.67v6.84c0,.91-.24,1.27-.82,1.47a10.4,10.4,0,0,1-3.1.22,5.61,5.61,0,0,0-.5-1.3c1.13.06,2.29,0,2.63,0s.45-.11.45-.42V14h-5.48v-1.3h5.48V9.84h1.34v2.9h1.67Zm-5.8,5.24a35.26,35.26,0,0,0-1.92-3.43l1.14-.53c.67,1.05,1.58,2.46,2,3.3Z" style="fill: #fff"/>
      <path d="M224.76,19.83h-2.91V21h-1.21V10.57h4.12Zm-2.91-8.08v2.81h1.68V11.75Zm1.68,6.92v-3h-1.68v3Zm7.88-3.58v1.4h1.5v1.15h-1.5v3.45c0,.67-.15,1-.61,1.22a7.08,7.08,0,0,1-2.3.21,5.05,5.05,0,0,0-.42-1.22c.78,0,1.56,0,1.77,0s.29-.07.29-.27V17.64H225V16.49h5.1v-1.4H225V13.94h3.33V12.4h-2.8V11.27h2.8V9.67h1.31v1.6h2.88V12.4h-2.88v1.54H233v1.15ZM226.82,18a10.5,10.5,0,0,1,1.75,2.33l-1.11.67a10.16,10.16,0,0,0-1.69-2.39Z" style="fill: #fff"/>
      <path d="M236.81,15.12v7.43h-1.29V10.25h5.17v4.87Zm0-3.89v1h2.65v-1Zm2.65,2.92v-1h-2.65v1Zm7.63,6.77c0,.74-.15,1.16-.65,1.39a7.19,7.19,0,0,1-2.44.22,5.86,5.86,0,0,0-.41-1.27h-3.78V22h-1.19V16.09h5.25v5.12c.69,0,1.36,0,1.58,0s.33-.09.33-.32V15.15h-4v-4.9h5.29Zm-7.28-3.85v1.09h2.84V17.07Zm2.84,3.21V19.11h-2.84v1.17Zm.4-9v1h2.73v-1Zm2.73,2.95V13.12h-2.73v1.06Z" style="fill: #fff"/>
      <path d="M191.41,38.11h2.26V30.94h-1.85v-1a6.36,6.36,0,0,0,2.24-.78h1.22v9h2v1.33h-5.89Z" style="fill: #fff"/>
      <path d="M199.52,38.5c3-2.69,4.61-4.69,4.61-6.39a1.68,1.68,0,0,0-1.75-1.89,2.79,2.79,0,0,0-2,1.15l-.91-.9a4,4,0,0,1,3.13-1.54,2.92,2.92,0,0,1,3.11,3.1c0,2-1.58,4-3.76,6.13.53,0,1.17-.09,1.68-.09h2.57v1.37h-6.65Z" style="fill: #fff"/>
      <path d="M212.68,37.83h-2.91V39h-1.2V28.57h4.11Zm-2.91-8.08v2.81h1.68V29.75Zm1.68,6.92v-3h-1.68v3Zm7.89-3.58v1.4h1.5v1.15h-1.5v3.45c0,.67-.16,1-.62,1.22a7,7,0,0,1-2.3.21A4.32,4.32,0,0,0,216,39.3c.79,0,1.56,0,1.77,0s.29-.07.29-.27V35.64H213V34.49h5.1v-1.4h-5.14V31.94h3.34V30.4h-2.81V29.27h2.81v-1.6h1.3v1.6h2.88V30.4h-2.88v1.54H221v1.15Zm-4.6,2.9a9.92,9.92,0,0,1,1.75,2.33l-1.1.67a10.53,10.53,0,0,0-1.7-2.39Z" style="fill: #fff"/>
      <path d="M228.88,34.61a2.7,2.7,0,0,0-4.71.68l-1.23-.67a4.09,4.09,0,0,1,6.95-1,2.89,2.89,0,0,0,2.24,1.09,2.93,2.93,0,0,0,2.46-1.78l1.24.67a4.09,4.09,0,0,1-7,1Z" style="fill: #fff"/>
      <path d="M236.6,38.5c3-2.69,4.6-4.69,4.6-6.39a1.68,1.68,0,0,0-1.75-1.89,2.81,2.81,0,0,0-2,1.15l-.91-.9a4,4,0,0,1,3.14-1.54,2.92,2.92,0,0,1,3.11,3.1c0,2-1.58,4-3.77,6.13.53,0,1.18-.09,1.68-.09h2.58v1.37H236.6Z" style="fill: #fff"/>
      <path d="M245.68,38.11h2.25V30.94h-1.85v-1a6.36,6.36,0,0,0,2.24-.78h1.22v9h2v1.33h-5.88Z" style="fill: #fff"/>
      <path d="M258.12,37.83h-2.91V39H254V28.57h4.11Zm-2.91-8.08v2.81h1.68V29.75Zm1.68,6.92v-3h-1.68v3Zm7.89-3.58v1.4h1.5v1.15h-1.5v3.45c0,.67-.16,1-.62,1.22a7,7,0,0,1-2.3.21,4.32,4.32,0,0,0-.42-1.22c.79,0,1.56,0,1.77,0s.29-.07.29-.27V35.64h-5.1V34.49h5.1v-1.4h-5.14V31.94h3.34V30.4h-2.8V29.27h2.8v-1.6H263v1.6h2.89V30.4H263v1.54h3.4v1.15Zm-4.6,2.9a10.27,10.27,0,0,1,1.76,2.33l-1.11.67a10.22,10.22,0,0,0-1.7-2.39Z" style="fill: #fff"/>
      <path d="M270.18,34.12a9.36,9.36,0,0,1,2.77-6.7l1.07.5a8.73,8.73,0,0,0,0,12.39l-1.07.5A9.35,9.35,0,0,1,270.18,34.12Z" style="fill: #fff"/>
      <path d="M283,39a15.49,15.49,0,0,0,2,.12c.6,0,3,0,3.75,0a4,4,0,0,0-.49,1.31h-3.33c-2.75,0-4.76-.46-6-2.66a7.16,7.16,0,0,1-2,2.92,7.06,7.06,0,0,0-1.08-.9c1.54-1.15,2.25-3.11,2.55-5.56l1.34.12a16.32,16.32,0,0,1-.33,1.84,4,4,0,0,0,2.28,2.46V33.15h-3.24V31.9h7.89v1.25H283v2.06h4v1.22h-4Zm-5.22-6.53h-1.27V29.2h5.12V27.7H283v1.5h5.18v3.22h-1.33v-2h-9.09Z" style="fill: #fff"/>
      <path d="M295.1,28.18a21.14,21.14,0,0,1-1.49,3V40.5h-1.28V33a13,13,0,0,1-1.43,1.58,9.6,9.6,0,0,0-.77-1.34,14.74,14.74,0,0,0,3.68-5.48Zm4.83,4.24a14.26,14.26,0,0,0,3.57,5.35,5.16,5.16,0,0,0-1,1,15.89,15.89,0,0,1-3.26-5.11v6.84H298V34.06a15.19,15.19,0,0,1-3.35,4.85,5.93,5.93,0,0,0-1-1,13.48,13.48,0,0,0,3.72-5.45h-3.15V31.15H298V27.9h1.29v3.25h3.85v1.27Z" style="fill: #fff"/>
      <path d="M315.65,28.58V40.34h-1.38v-.86h-6.6v.91h-1.33V28.58Zm-8,1.32v3.42h6.6V29.9Zm6.6,8.26V34.61h-6.6v3.55Z" style="fill: #fff"/>
      <path d="M321,30.82A1.18,1.18,0,1,1,322.15,32,1.15,1.15,0,0,1,321,30.82Zm0,6.8a1.18,1.18,0,1,1,1.18,1.15A1.15,1.15,0,0,1,321,37.62Z" style="fill: #fff"/>
      <path d="M339.62,38.65v1.28h-12.5V38.65h5.51V33.36H328V32.08h4.62V27.71H334v4.37h4.69v1.28H334v5.29Z" style="fill: #fff"/>
      <path d="M352,28.58V40.34h-1.39v-.86H344v.91h-1.33V28.58Zm-8,1.32v3.42h6.6V29.9Zm6.6,8.26V34.61H344v3.55Z" style="fill: #fff"/>
      <path d="M359.44,34.12a9.32,9.32,0,0,1-2.78,6.69l-1.06-.5a8.73,8.73,0,0,0,0-12.39l1.06-.5A9.32,9.32,0,0,1,359.44,34.12Z" style="fill: #fff"/>
    </g>
  </g>
</svg>
