<svg xmlns="http://www.w3.org/2000/svg" width="362.03" height="93.97" viewBox="0 0 362.03 93.97">
  <g>
    <path d="M93.79,38.33h2.88l1.66,9.2.94,5.66h.09c.39-1.89.79-3.79,1.2-5.66l2.28-9.2h2.45l2.31,9.2c.4,1.85.79,3.74,1.2,5.66h.12c.28-1.92.6-3.81.88-5.66l1.68-9.2h2.67L110.67,56h-3.44l-2.37-9.82c-.31-1.39-.58-2.71-.82-4h-.12c-.24,1.34-.52,2.66-.81,4L100.78,56H97.42Z" style="fill: #fff"/>
    <path d="M118.07,38.33h10.44v2.33h-7.66v4.92h6.48v2.36h-6.48v5.71h7.92V56h-10.7Z" style="fill: #fff"/>
    <path d="M133.05,38.33h5.47c3.62,0,6.24,1.16,6.24,4.35a3.94,3.94,0,0,1-2.52,3.82v.12a4.05,4.05,0,0,1,3.48,4.2c0,3.5-2.86,5.18-6.77,5.18h-5.9Zm5.16,7.37c2.69,0,3.81-1,3.81-2.66,0-1.85-1.25-2.55-3.74-2.55h-2.45V45.7Zm.43,8.12c2.76,0,4.34-1,4.34-3.15,0-2-1.53-2.85-4.34-2.85h-2.81v6Z" style="fill: #fff"/>
    <path d="M157.2,46.54a18.39,18.39,0,0,1,4.94-.74c3.53,0,6.19,1.9,6.19,4.94,0,2.84-1.63,4.8-5.13,5.64a15.66,15.66,0,0,1-3,.34l-.87-2.4a15.77,15.77,0,0,0,2.86-.17c2-.36,3.74-1.41,3.74-3.43,0-1.82-1.65-2.83-3.81-2.83a16.13,16.13,0,0,0-4.88.79c0,2,.1,4,.1,4.9,0,2.52-.94,3.24-2.33,3.24-2.06,0-5.23-1.88-5.23-4.18,0-2,2.42-4.1,5.23-5.33V45.82c0-.84,0-1.72,0-2.61-.58,0-1.11.07-1.56.07a31,31,0,0,1-3.12-.12l-.08-2.31a23.55,23.55,0,0,0,3.15.2c.5,0,1,0,1.63,0,0-1.08,0-2,0-2.38a15.63,15.63,0,0,0-.14-1.87h2.59c-.05.46-.12,1.25-.14,1.82s0,1.35-.1,2.19a29,29,0,0,0,4.68-.91L162,42.2a47.17,47.17,0,0,1-4.78.79c0,1,0,1.9,0,2.74Zm-2.07,6.65c0-.74,0-2.11-.07-3.65-1.73.84-2.93,2-2.93,3s1.39,1.76,2.21,1.76C154.84,54.3,155.13,54,155.13,53.19Zm9.55-13.82a42.1,42.1,0,0,1,5.62,3.41l-1.18,1.92a34.54,34.54,0,0,0-5.49-3.51Z" style="fill: #fff"/>
    <path d="M193.48,39V52.74h-2.3v-1.2h-6.1V57.9h-2.3V51.54h-5.93v1.32h-2.21V39h8.14V35.89h2.3V39Zm-16.63,2.14v3h5.93v-3Zm5.93,8.23V46.23h-5.93V49.4Zm2.3-8.23v3h6.1v-3Zm6.1,8.23V46.23h-6.1V49.4Z" style="fill: #fff"/>
    <path d="M203.42,37.23a25.32,25.32,0,0,0-.26,2.71c-.1,2.64-.29,8.12-.29,11.43,0,2.49,1.58,3.36,3.62,3.36,4.18,0,6.65-2.35,8.35-4.9l1.71,2.09a12.11,12.11,0,0,1-10.11,5.33c-3.62,0-6-1.56-6-5.5,0-3.38.24-9.5.24-11.81a14.22,14.22,0,0,0-.24-2.73Z" style="fill: #fff"/>
    <path d="M225,52.76c1.06,1.66,3,2.42,5.67,2.52s8,0,11-.17a10.52,10.52,0,0,0-.75,2.28c-2.71.12-7.53.17-10.27,0-3.05-.12-5.11-.91-6.62-2.76-1.13,1-2.28,1.94-3.53,3l-1.15-2.31a36.39,36.39,0,0,0,3.48-2.47V47.24h-3.08V45.18H225Zm-1.1-11.21a18,18,0,0,0-4-3.79l1.66-1.35a19.12,19.12,0,0,1,4.1,3.68ZM234.34,37c.48,7.08,2.16,12.77,7,15.24a9.72,9.72,0,0,0-1.76,1.7c-3.17-1.87-5-5-6.09-8.85a16.47,16.47,0,0,1-6,8.85,15,15,0,0,0-1.76-1.68c3.41-2.11,5.36-5.76,6.24-10.51l.82.12c-.14-.89-.24-1.83-.34-2.76h-4.27V37Z" style="fill: #fff"/>
    <path d="M265.24,52.42A22.8,22.8,0,0,0,263,50.65a11.59,11.59,0,0,1-6.15,6.79l-2-1.66A10.19,10.19,0,0,0,261,49.4a17,17,0,0,0-6.26-2,45.54,45.54,0,0,1-2.88,6,3.74,3.74,0,0,1-3.31,1.84,3.26,3.26,0,0,1-3.34-3.52c0-3.58,3.29-6.34,8-6.51.77-1.73,1.56-3.58,2.21-4.87-.93,0-3.45.14-4.53.21-.51,0-1.25.1-1.85.17l-.1-2.45c.63,0,1.37.08,1.87.08,1.3,0,4.16-.12,5.21-.22a4.14,4.14,0,0,0,1.37-.29l1.49,1.2a4.57,4.57,0,0,0-.7.89c-.62,1-1.58,3.27-2.52,5.4A21.34,21.34,0,0,1,261.49,47c.07-.45.12-.91.15-1.34a18.43,18.43,0,0,0,0-2.35l2.45.26a32.51,32.51,0,0,1-.48,4.51c1.08.6,2,1.23,2.73,1.73Zm-13.06-5.08c-3.07.36-4.8,2.18-4.8,4a1.25,1.25,0,0,0,1.18,1.37c.5,0,.86-.19,1.34-.82A32,32,0,0,0,252.18,47.34Z" style="fill: #fff"/>
  </g>
</svg>
