<svg xmlns="http://www.w3.org/2000/svg" width="362.03" height="93.97" viewBox="0 0 362.03 93.97">
  <g>
    <path d="M93.79,38.33h2.88l1.66,9.2.94,5.66h.09c.39-1.89.79-3.79,1.2-5.66l2.28-9.2h2.45l2.31,9.2c.4,1.85.79,3.74,1.2,5.66h.12c.28-1.92.6-3.81.88-5.66l1.68-9.2h2.67L110.67,56h-3.44l-2.37-9.82c-.31-1.39-.58-2.71-.82-4h-.12c-.24,1.34-.52,2.66-.81,4L100.78,56H97.42Z" style="fill: #f7931e"/>
    <path d="M118.07,38.33h10.44v2.33h-7.66v4.92h6.48v2.36h-6.48v5.71h7.92V56h-10.7Z" style="fill: #f7931e"/>
    <path d="M133.05,38.33h5.47c3.62,0,6.24,1.16,6.24,4.35a4,4,0,0,1-2.52,3.82v.12a4,4,0,0,1,3.48,4.2c0,3.5-2.86,5.18-6.77,5.18h-5.9Zm5.16,7.37c2.69,0,3.81-1,3.81-2.66,0-1.85-1.25-2.55-3.74-2.55h-2.45V45.7Zm.43,8.12c2.76,0,4.34-1,4.34-3.15s-1.53-2.85-4.34-2.85h-2.81v6Z" style="fill: #f7931e"/>
    <path d="M157.2,46.54a18.41,18.41,0,0,1,4.94-.74c3.53,0,6.19,1.9,6.19,4.94,0,2.84-1.63,4.8-5.13,5.64a15.94,15.94,0,0,1-3,.34l-.87-2.4a16.1,16.1,0,0,0,2.86-.17c2-.36,3.74-1.41,3.74-3.43,0-1.82-1.65-2.83-3.81-2.83a16.18,16.18,0,0,0-4.88.79c0,2,.1,4,.1,4.9,0,2.52-.94,3.24-2.33,3.24-2.06,0-5.23-1.88-5.23-4.18,0-2,2.42-4.1,5.23-5.33v-4.1c-.58,0-1.11.07-1.56.07q-1.56,0-3.12-.12l-.08-2.31a23.69,23.69,0,0,0,3.15.2H155V38.67a16.63,16.63,0,0,0-.14-1.87h2.59c0,.46-.12,1.25-.14,1.82s0,1.35-.1,2.19a28.67,28.67,0,0,0,4.68-.91l.08,2.3a45.36,45.36,0,0,1-4.78.79v2.74Zm-2.07,6.65c0-.74,0-2.11-.07-3.65-1.73.84-2.93,2-2.93,3s1.39,1.76,2.21,1.76c.5,0,.79-.3.79-1.11Zm9.55-13.82a42.27,42.27,0,0,1,5.62,3.41l-1.18,1.92a34.32,34.32,0,0,0-5.49-3.51Z" style="fill: #f7931e"/>
    <path d="M193.48,39V52.74h-2.3v-1.2h-6.1V57.9h-2.3V51.54h-5.93v1.32h-2.21V39h8.14V35.89h2.3V39Zm-16.63,2.14v3h5.93v-3Zm5.93,8.23V46.23h-5.93V49.4Zm2.3-8.23v3h6.1v-3Zm6.1,8.23V46.23h-6.1V49.4Z" style="fill: #f7931e"/>
    <path d="M203.42,37.23a24.6,24.6,0,0,0-.26,2.71c-.1,2.64-.29,8.12-.29,11.43,0,2.49,1.58,3.36,3.62,3.36,4.18,0,6.65-2.35,8.35-4.9l1.71,2.09a12.09,12.09,0,0,1-10.11,5.33c-3.62,0-6-1.56-6-5.5,0-3.38.24-9.5.24-11.81a13.86,13.86,0,0,0-.24-2.73Z" style="fill: #f7931e"/>
    <path d="M225,52.76c1.06,1.66,3,2.42,5.67,2.52s8,0,11-.17a10.16,10.16,0,0,0-.75,2.28c-2.71.12-7.53.17-10.27,0-3.05-.12-5.11-.91-6.62-2.76-1.13,1-2.28,1.94-3.53,3l-1.15-2.31a35.32,35.32,0,0,0,3.48-2.47V47.24h-3.08V45.18H225Zm-1.1-11.21a18,18,0,0,0-4-3.79l1.66-1.35a18.9,18.9,0,0,1,4.1,3.68ZM234.34,37c.48,7.08,2.16,12.77,7,15.24a9.45,9.45,0,0,0-1.76,1.7c-3.17-1.87-5-5-6.09-8.85a16.44,16.44,0,0,1-6,8.85,14.7,14.7,0,0,0-1.76-1.68c3.41-2.11,5.36-5.76,6.24-10.51l.82.12c-.14-.89-.24-1.83-.34-2.76h-4.27V37Z" style="fill: #f7931e"/>
    <path d="M265.24,52.42A22.32,22.32,0,0,0,263,50.65a11.57,11.57,0,0,1-6.15,6.79l-2-1.66A10.2,10.2,0,0,0,261,49.4a16.9,16.9,0,0,0-6.26-2,44.66,44.66,0,0,1-2.88,6,3.74,3.74,0,0,1-3.31,1.84,3.26,3.26,0,0,1-3.35-3.17c0-.12,0-.23,0-.35,0-3.58,3.29-6.34,8-6.51.77-1.73,1.56-3.58,2.21-4.87-.93,0-3.45.14-4.53.21-.51,0-1.25.1-1.85.17l-.1-2.45c.63,0,1.37.08,1.87.08,1.3,0,4.16-.12,5.21-.22a4.3,4.3,0,0,0,1.37-.29l1.49,1.2a5,5,0,0,0-.7.89c-.62,1-1.58,3.27-2.52,5.4A21.51,21.51,0,0,1,261.49,47c.07-.45.12-.91.15-1.34a18.43,18.43,0,0,0,0-2.35l2.45.26a32.55,32.55,0,0,1-.48,4.51c1.08.6,2,1.23,2.73,1.73Zm-13.06-5.08c-3.07.36-4.8,2.18-4.8,4a1.26,1.26,0,0,0,1.12,1.37h.06c.5,0,.86-.19,1.34-.82A32.23,32.23,0,0,0,252.18,47.34Z" style="fill: #f7931e"/>
  </g>
</svg>
