<svg xmlns="http://www.w3.org/2000/svg" width="766.41" height="93.97" viewBox="0 0 766.41 93.97">
  <g>
    <path d="M227.3,48.56a35.65,35.65,0,0,1,.19-3.72,24.56,24.56,0,0,1,.66-3.8,20.46,20.46,0,0,1,1.29-3.56,10.51,10.51,0,0,1,2.07-3,9.61,9.61,0,0,1,3-2,11,11,0,0,1,8.05,0,9.61,9.61,0,0,1,3,2,10.51,10.51,0,0,1,2.07,3A20,20,0,0,1,248.9,41a25.84,25.84,0,0,1,.67,3.8c.12,1.28.18,2.53.18,3.72a35.24,35.24,0,0,1-.46,5.52,19.17,19.17,0,0,1-1.7,5.48,11.59,11.59,0,0,1-3.43,4.18,10.41,10.41,0,0,1-11.27,0,11.59,11.59,0,0,1-3.43-4.18,19.49,19.49,0,0,1-1.7-5.48A37.17,37.17,0,0,1,227.3,48.56Zm4.42,0c0,1.08.07,2.35.21,3.82a18.78,18.78,0,0,0,.89,4.26,9.26,9.26,0,0,0,2.05,3.47,5.4,5.4,0,0,0,7.31,0,9.22,9.22,0,0,0,2-3.47,19.35,19.35,0,0,0,.9-4.26c.14-1.47.2-2.74.2-3.82,0-.73,0-1.57-.06-2.51a22.6,22.6,0,0,0-.33-2.85,18,18,0,0,0-.71-2.8A9.4,9.4,0,0,0,243,38a5.91,5.91,0,0,0-1.86-1.73,5.72,5.72,0,0,0-5.25,0A5.9,5.9,0,0,0,234,38a9.61,9.61,0,0,0-1.22,2.44,20.5,20.5,0,0,0-.71,2.8,20.89,20.89,0,0,0-.32,2.85C231.74,47,231.72,47.83,231.72,48.56Z" style="fill: #0071bc"/>
    <path d="M263.73,37.34l-6,5.52-2.57-3.08,9.06-7.5h3.91V64.85h-4.42Z" style="fill: #0071bc"/>
    <path d="M279,60.15l13.06-13a17.6,17.6,0,0,0,1.33-1.4,11.9,11.9,0,0,0,1.15-1.59,8.17,8.17,0,0,0,.81-1.75,6.28,6.28,0,0,0,.3-1.93,5.19,5.19,0,0,0-.44-2.16,4.88,4.88,0,0,0-1.21-1.6,5.58,5.58,0,0,0-1.8-1,6.74,6.74,0,0,0-2.18-.37,5.88,5.88,0,0,0-4,1.34,6,6,0,0,0-2,3.68L279.24,40a10.22,10.22,0,0,1,1.26-3.75,9.12,9.12,0,0,1,2.35-2.64A9.42,9.42,0,0,1,286.16,32a14.47,14.47,0,0,1,3.93-.51,13.22,13.22,0,0,1,4,.58,9.64,9.64,0,0,1,3.27,1.7,8,8,0,0,1,2.21,2.8,9.06,9.06,0,0,1,.8,3.94,9.28,9.28,0,0,1-.48,3,12.84,12.84,0,0,1-1.27,2.64,17.77,17.77,0,0,1-1.79,2.35c-.68.74-1.38,1.46-2.12,2.16L284,61h16.38v3.87H279Z" style="fill: #0071bc"/>
    <path d="M304,48.56c0-1.19.06-2.44.18-3.72a25.84,25.84,0,0,1,.67-3.8,19.4,19.4,0,0,1,1.29-3.56,10.51,10.51,0,0,1,2.07-3,9.61,9.61,0,0,1,3-2,11,11,0,0,1,8,0,9.5,9.5,0,0,1,3,2,10.51,10.51,0,0,1,2.07,3A20.29,20.29,0,0,1,325.63,41a25.84,25.84,0,0,1,.67,3.8c.12,1.28.18,2.53.18,3.72A35.24,35.24,0,0,1,326,54a19.17,19.17,0,0,1-1.7,5.48,11.59,11.59,0,0,1-3.43,4.18,10.41,10.41,0,0,1-11.27,0,11.59,11.59,0,0,1-3.43-4.18,19.17,19.17,0,0,1-1.7-5.48A34.67,34.67,0,0,1,304,48.56Zm4.42,0c0,1.08.07,2.35.2,3.82a19.35,19.35,0,0,0,.9,4.26,9.26,9.26,0,0,0,2.05,3.47,5.4,5.4,0,0,0,7.31,0,9.22,9.22,0,0,0,2-3.47,19.35,19.35,0,0,0,.9-4.26c.13-1.47.2-2.74.2-3.82,0-.73,0-1.57-.07-2.51a20.89,20.89,0,0,0-.32-2.85,18,18,0,0,0-.71-2.8,9.62,9.62,0,0,0-1.14-2.4,6,6,0,0,0-1.86-1.73,5.72,5.72,0,0,0-5.25,0A6,6,0,0,0,310.77,38a9.61,9.61,0,0,0-1.22,2.44,18,18,0,0,0-.71,2.8,20.89,20.89,0,0,0-.32,2.85c0,.91-.07,1.74-.07,2.47Z" style="fill: #0071bc"/>
    <path d="M341,55.65H329.65V51.78H341Z" style="fill: #0071bc"/>
    <path d="M360.29,36.14H344.51V32.28H365v3.77l-13,28.8h-5Z" style="fill: #0071bc"/>
    <path d="M383.61,57.67H369.72V53.16l13-20.88H388V53.81h4.6v3.86H388v7.18h-4.42Zm0-20.15h-.09l-9.94,16.29h10Z" style="fill: #0071bc"/>
    <path d="M403.85,44.88H404a8.18,8.18,0,0,1,3.58-.73,11.54,11.54,0,0,1,3.55.59,9.47,9.47,0,0,1,3.24,1.87,9.79,9.79,0,0,1,2.37,3.22,10.78,10.78,0,0,1,.92,4.62,11.79,11.79,0,0,1-.9,4.76,9.79,9.79,0,0,1-6,5.5,13.2,13.2,0,0,1-4.32.69,12.52,12.52,0,0,1-4.33-.74,10.61,10.61,0,0,1-3.54-2.11,10.15,10.15,0,0,1-3.31-7.64,15,15,0,0,1,.23-2.76,13.05,13.05,0,0,1,.67-2.37,17.58,17.58,0,0,1,1-2.21c.4-.72.85-1.48,1.34-2.27l8.23-13H412Zm-4.09,9.89a7.43,7.43,0,0,0,.48,2.72,5.89,5.89,0,0,0,1.38,2.13A6.3,6.3,0,0,0,403.76,61a7.83,7.83,0,0,0,5.52,0,6.38,6.38,0,0,0,2.14-1.41,5.89,5.89,0,0,0,1.38-2.13,7.92,7.92,0,0,0,0-5.43,6,6,0,0,0-1.38-2.14,6.21,6.21,0,0,0-2.14-1.4,7.72,7.72,0,0,0-5.52,0,6.21,6.21,0,0,0-2.14,1.4A6,6,0,0,0,400.24,52,7.54,7.54,0,0,0,399.76,54.77Z" style="fill: #0071bc"/>
    <path d="M432.23,55.65H420.92V51.78h11.31Z" style="fill: #0071bc"/>
    <path d="M436,60.15l13.06-13a17.72,17.72,0,0,0,1.34-1.4,12.86,12.86,0,0,0,1.15-1.59,8.65,8.65,0,0,0,.8-1.75,6.28,6.28,0,0,0,.3-1.93,5.19,5.19,0,0,0-.44-2.16,4.88,4.88,0,0,0-1.21-1.6,5.58,5.58,0,0,0-1.8-1,6.48,6.48,0,0,0-2.18-.37,5.74,5.74,0,0,0-6,5L436.23,40a10.42,10.42,0,0,1,1.27-3.75,9,9,0,0,1,5.61-4.2,14.54,14.54,0,0,1,3.94-.51,13.22,13.22,0,0,1,4,.58,9.64,9.64,0,0,1,3.27,1.7,7.84,7.84,0,0,1,2.21,2.8,9.06,9.06,0,0,1,.8,3.94,9.28,9.28,0,0,1-.48,3,12.34,12.34,0,0,1-1.27,2.64,15.68,15.68,0,0,1-1.79,2.35c-.67.74-1.38,1.46-2.12,2.16L440.93,61H457.3v3.87H436Z" style="fill: #0071bc"/>
    <path d="M474.88,52.24h-.19a8.09,8.09,0,0,1-3.59.74,11.24,11.24,0,0,1-3.54-.6,9.45,9.45,0,0,1-3.24-1.86A9.61,9.61,0,0,1,462,47.3a10.86,10.86,0,0,1-.92-4.63A11.69,11.69,0,0,1,462,38a9.93,9.93,0,0,1,2.41-3.43,10.24,10.24,0,0,1,3.54-2.09,13,13,0,0,1,4.33-.71,12.73,12.73,0,0,1,4.32.73,10.64,10.64,0,0,1,3.54,2.12,10,10,0,0,1,3.31,7.63A15,15,0,0,1,483.2,45a13,13,0,0,1-.66,2.37,17.84,17.84,0,0,1-1,2.23c-.4.74-.84,1.49-1.33,2.26l-8.24,13h-5.19ZM479,42.35a7.38,7.38,0,0,0-.48-2.71,6.3,6.3,0,0,0-1.38-2.14A6.21,6.21,0,0,0,475,36.1a7.72,7.72,0,0,0-5.52,0,6.21,6.21,0,0,0-2.14,1.4A6,6,0,0,0,466,39.64a7.8,7.8,0,0,0,0,5.43,5.89,5.89,0,0,0,1.38,2.13,6.38,6.38,0,0,0,2.14,1.41,7.83,7.83,0,0,0,5.52,0,6.38,6.38,0,0,0,2.14-1.41,6.26,6.26,0,0,0,1.38-2.13A7.43,7.43,0,0,0,479,42.35Z" style="fill: #0071bc"/>
    <path d="M487.11,60.15l13.07-13a17.6,17.6,0,0,0,1.33-1.4,12.86,12.86,0,0,0,1.15-1.59,7.68,7.68,0,0,0,.8-1.75,6.28,6.28,0,0,0,.3-1.93,5.18,5.18,0,0,0-.43-2.16,4.83,4.83,0,0,0-1.2-1.63,5.64,5.64,0,0,0-1.79-1,6.5,6.5,0,0,0-2.19-.37,5.85,5.85,0,0,0-3.95,1.34,6,6,0,0,0-2,3.68l-4.79-.42a10.42,10.42,0,0,1,1.27-3.75,9.07,9.07,0,0,1,5.56-4.2,14.54,14.54,0,0,1,3.94-.51,13.22,13.22,0,0,1,4,.58,9.59,9.59,0,0,1,3.26,1.7,7.84,7.84,0,0,1,2.21,2.8,9.07,9.07,0,0,1,.81,3.94,9.29,9.29,0,0,1-.49,3,12.8,12.8,0,0,1-1.26,2.64,16.44,16.44,0,0,1-1.8,2.35c-.67.74-1.38,1.46-2.11,2.16L492.08,61h16.38v3.87H487.11Z" style="fill: #0071bc"/>
  </g>
  <g>
    <path d="M548.14,38.38a8.49,8.49,0,0,1-3,3.4,17.8,17.8,0,0,0,4.93,1.16,5.59,5.59,0,0,0-.8,1.24,17.45,17.45,0,0,1-5.47-1.63,19.47,19.47,0,0,1-5.53,1.64,4.08,4.08,0,0,0-.75-1.18,18.68,18.68,0,0,0,5-1.23A9.67,9.67,0,0,1,540,39.2l.26-.11h-.61v-1.2h7.59Zm-9.08-.09h-1.22v-2.9H540a9.39,9.39,0,0,0-.8-1.66l1.13-.33a7.32,7.32,0,0,1,.9,1.76l-.76.23h3a8.31,8.31,0,0,0-.63-2l1.16-.25a7.44,7.44,0,0,1,.7,1.93l-1.17.29h2.78a14.74,14.74,0,0,0,1.12-2.25l1.36.36c-.36.63-.77,1.33-1.16,1.89h2.2v2.9h-1.27V36.54h-9.49Zm10.1-5.89a76.61,76.61,0,0,1-10.9,1.05,3.55,3.55,0,0,0-.28-1.11,72.29,72.29,0,0,0,10.27-1Zm-7.76,6.69a7.84,7.84,0,0,0,2.45,2.06,7,7,0,0,0,2.33-2.06Z" style="fill: #0071bc"/>
    <path d="M556.83,31.89a22.22,22.22,0,0,1-1.42,3v9.38h-1.32V36.88a12,12,0,0,1-1.23,1.44,8.42,8.42,0,0,0-.78-1.33,15.36,15.36,0,0,0,3.46-5.5Zm8.09,3.87h-1.66v6.83c0,.91-.24,1.28-.83,1.47a10.43,10.43,0,0,1-3.1.23,5.55,5.55,0,0,0-.5-1.3h2.63c.33,0,.45-.11.45-.42V35.76h-5.48v-1.3h5.48v-2.9h1.35v2.9h1.66ZM559.12,41a32,32,0,0,0-1.92-3.43l1.14-.54a37.91,37.91,0,0,1,2,3.31Z" style="fill: #0071bc"/>
    <path d="M571.37,41.54h-2.91v1.18h-1.21V32.28h4.12Zm-2.91-8.08v2.82h1.68V33.46Zm1.68,6.92v-3h-1.68v3ZM578,36.81v1.4h1.5v1.15H578V42.8c0,.68-.16,1-.62,1.22a6.87,6.87,0,0,1-2.3.21,4.9,4.9,0,0,0-.42-1.22h1.77c.21,0,.29-.07.29-.26V39.36h-5.1V38.21h5.1v-1.4h-5.14V35.66h3.33V34.12h-2.8V33h2.8V31.39h1.31V33h2.88v1.14h-2.88v1.54h3.4v1.15Zm-4.6,2.9A10.36,10.36,0,0,1,575.18,42l-1.1.68a10.34,10.34,0,0,0-1.7-2.4Z" style="fill: #0071bc"/>
    <path d="M583.42,36.84v7.42h-1.28V32h5.16v4.88Zm0-3.9v1h2.65v-1Zm2.65,2.93v-1h-2.65v1Zm7.64,6.77c0,.74-.16,1.16-.66,1.38a6.92,6.92,0,0,1-2.44.23A6.1,6.1,0,0,0,590.2,43h-3.78v.7h-1.19V37.8h5.25v5.13h1.59c.23,0,.32-.08.32-.32V36.86h-4V32h5.3Zm-7.29-3.86v1.1h2.85v-1.1ZM589.27,42V40.83h-2.85V42Zm.39-9v1h2.73V33Zm2.73,3V34.83h-2.73V35.9Z" style="fill: #0071bc"/>
    <path d="M538,61.82h2.25V54.65H538.4v-1a6.19,6.19,0,0,0,2.24-.79h1.22v9h2v1.33H538Z" style="fill: #0071bc"/>
    <path d="M546.13,62.22c3-2.69,4.61-4.7,4.61-6.39A1.68,1.68,0,0,0,549.28,54H549a2.82,2.82,0,0,0-2,1.15l-.91-.9a4,4,0,0,1,3.14-1.54,2.92,2.92,0,0,1,3.11,2.7,2.54,2.54,0,0,1,0,.39c0,2-1.59,4-3.77,6.14a15.77,15.77,0,0,1,1.68-.1h2.58v1.37h-6.66Z" style="fill: #0071bc"/>
    <path d="M559.3,61.54h-2.92v1.18h-1.2V52.28h4.12Zm-2.92-8.08v2.82h1.69V53.46Zm1.69,6.92v-3h-1.69v3ZM566,56.81v1.4h1.5v1.15H566V62.8c0,.68-.15,1-.61,1.22a6.87,6.87,0,0,1-2.3.21,5.34,5.34,0,0,0-.42-1.22h1.76c.21,0,.3-.07.3-.26V59.36h-5.1V58.21h5.1v-1.4h-5.14V55.66h3.33V54.12h-2.8V53h2.8V51.39h1.3V53h2.89v1.14h-2.89v1.54h3.41v1.15Zm-4.59,2.9a10.32,10.32,0,0,1,1.7,2.29l-1.11.68a9.82,9.82,0,0,0-1.69-2.4Z" style="fill: #0071bc"/>
    <path d="M575.49,58.32a2.69,2.69,0,0,0-3.76-.57,2.73,2.73,0,0,0-.94,1.26l-1.24-.67a4.24,4.24,0,0,1,3.72-2.51,4.29,4.29,0,0,1,3.23,1.51,2.7,2.7,0,0,0,4.71-.69l1.23.68a4.1,4.1,0,0,1-7,1Z" style="fill: #0071bc"/>
    <path d="M583.21,62.22c3-2.69,4.61-4.7,4.61-6.39A1.68,1.68,0,0,0,586.37,54h-.3a2.75,2.75,0,0,0-2,1.15l-.92-.9a4.09,4.09,0,0,1,3.14-1.54,2.92,2.92,0,0,1,3.11,2.7,2.54,2.54,0,0,1,0,.39c0,2-1.58,4-3.77,6.14a15.77,15.77,0,0,1,1.68-.1h2.58v1.37h-6.65Z" style="fill: #0071bc"/>
    <path d="M592.29,61.82h2.26V54.65H592.7v-1a6.38,6.38,0,0,0,2.24-.79h1.22v9h2v1.33h-5.88Z" style="fill: #0071bc"/>
    <path d="M604.74,61.54h-2.91v1.18h-1.21V52.28h4.12Zm-2.91-8.08v2.82h1.68V53.46Zm1.68,6.92v-3h-1.68v3Zm7.88-3.57v1.4h1.5v1.15h-1.5V62.8c0,.68-.15,1-.61,1.22a6.87,6.87,0,0,1-2.3.21,5.34,5.34,0,0,0-.42-1.22h1.76c.21,0,.3-.07.3-.26V59.36H605V58.21h5.1v-1.4H605V55.66h3.33V54.12h-2.8V53h2.8V51.39h1.3V53h2.89v1.14h-2.89v1.54H613v1.15Zm-4.59,2.9A10.23,10.23,0,0,1,608.55,62l-1.11.68a9.82,9.82,0,0,0-1.69-2.4Z" style="fill: #0071bc"/>
    <path d="M616.8,57.83a9.29,9.29,0,0,1,2.77-6.69l1.06.5a8.74,8.74,0,0,0,0,12.36l0,0-1.06.51A9.31,9.31,0,0,1,616.8,57.83Z" style="fill: #0071bc"/>
    <path d="M629.62,62.66a13.35,13.35,0,0,0,2,.13h3.76a3.9,3.9,0,0,0-.49,1.32h-3.34c-2.74,0-4.76-.46-6-2.66a7.15,7.15,0,0,1-2,2.91,6.62,6.62,0,0,0-1.08-.9c1.54-1.14,2.26-3.11,2.55-5.56l1.35.13c-.09.64-.2,1.26-.34,1.83a4,4,0,0,0,2.28,2.47V56.86H625V55.62h7.88v1.24h-3.3v2.06h4v1.22h-4Zm-5.23-6.52h-1.27V52.91h5.13V51.42h1.38v1.49h5.19v3.23h-1.34v-2h-9.09Z" style="fill: #0071bc"/>
    <path d="M641.71,51.89a20.89,20.89,0,0,1-1.48,3v9.36h-1.29v-7.5a12.68,12.68,0,0,1-1.43,1.59,9,9,0,0,0-.77-1.35,14.56,14.56,0,0,0,3.69-5.47Zm4.84,4.25a14.11,14.11,0,0,0,3.57,5.35,4.74,4.74,0,0,0-1,1,15.83,15.83,0,0,1-3.27-5.11v6.83h-1.28V57.78a15.45,15.45,0,0,1-3.35,4.84,5.91,5.91,0,0,0-1-1A13.56,13.56,0,0,0,644,56.14h-3.15V54.86h3.74V51.61h1.28v3.25h3.86v1.28Z" style="fill: #0071bc"/>
    <path d="M662.27,52.3V64.05h-1.39V63.2h-6.59v.91H653V52.3Zm-8,1.32V57h6.59V53.62Zm6.59,8.26V58.32h-6.59v3.56Z" style="fill: #0071bc"/>
    <path d="M667.59,54.54a1.18,1.18,0,0,1,2.35-.22.81.81,0,0,1,0,.22,1.18,1.18,0,0,1-2.35,0Zm0,6.79a1.18,1.18,0,1,1,1.21,1.15h0a1.14,1.14,0,0,1-1.17-1.11Z" style="fill: #0071bc"/>
    <path d="M686.24,62.37v1.27H673.73V62.37h5.52v-5.3h-4.62V55.8h4.62V51.43h1.39V55.8h4.69v1.27h-4.69v5.3Z" style="fill: #0071bc"/>
    <path d="M698.59,52.3V64.05H697.2V63.2h-6.59v.91h-1.33V52.3Zm-8,1.32V57h6.59V53.62Zm6.59,8.26V58.32h-6.59v3.56Z" style="fill: #0071bc"/>
    <path d="M706.05,57.83a9.41,9.41,0,0,1-2.77,6.7L702.21,64a8.72,8.72,0,0,0,0-12.33l0-.05,1.07-.5A9.33,9.33,0,0,1,706.05,57.83Z" style="fill: #0071bc"/>
  </g>
  <g>
    <path d="M80.69,44H73.61v3.17h-2v-4.7h9.08V41.26H73.08v-1.7H90.55v1.7h-7.7v1.23h9.24v4.7H90V44H82.85v5.26H80.69Zm8.78,14.74c1.2,0,1.44-.41,1.58-2.64a4.63,4.63,0,0,0,1.9.72c-.29,2.9-.94,3.65-3.36,3.65H84.33c-3,0-3.76-.55-3.76-2.71V57.3H75.86v1.15H73.72V50H90v7.32H82.7v.46c0,.84.29,1,1.78,1ZM74.25,47.5h5.38v1.3H74.25Zm5.36-2.4v1.3H74.73V45.1Zm-3.75,6.46V53h4.71V51.56Zm4.71,4.18V54.37H75.86v1.37Zm7.24-4.18H82.7V53h5.11Zm0,4.18V54.37H82.7v1.37ZM88.87,45.1v1.3H84V45.1ZM84,47.5h5.52v1.3H84Z" style="fill: #0071bc"/>
    <path d="M95.91,42.65h9v1.78h-9Zm8.26,17H98.91v1H97V52.57h7.18Zm-.1-11.88H97V46h7Zm-7,1.53h7V51H97Zm7-8.08H97.18V39.41h6.87Zm-5.14,13.2v3.45h3.34v-3.5Zm13.78-6.75v3.65H117v9.27h-2.2V59.48h-6.31v1.18h-2.14V51.27h4.06V47.62H105V45.51h5.38V42.13c-1.44.16-2.88.33-4.25.43a6.79,6.79,0,0,0-.65-1.9A55.71,55.71,0,0,0,115.74,39l1.56,1.82a43,43,0,0,1-4.61,1v3.72h5.4v2.11Zm2.11,5.67h-6.31v4.17h6.31Z" style="fill: #0071bc"/>
    <path d="M124,42.58c1.73-.17,6-.57,10.35-.93,2.52-.22,4.92-.36,6.53-.41v2.42a23.19,23.19,0,0,0-4.63.34A7.85,7.85,0,0,0,131,51.13c0,4.34,4,5.76,8,5.95l-.87,2.54c-4.65-.24-9.52-2.73-9.52-8a9.39,9.39,0,0,1,4-7.71c-2.06.22-7.89.79-10.56,1.37l-.24-2.62A18.38,18.38,0,0,0,124,42.58Zm15.51,7-1.49.67a23.71,23.71,0,0,0-1.92-3.36l1.44-.62a36,36,0,0,1,2,3.32Zm2.73-1.1-1.46.72a22.85,22.85,0,0,0-2-3.32l1.44-.64a35.37,35.37,0,0,1,2,3.25Z" style="fill: #0071bc"/>
    <path d="M151.33,47.57c.84.87,3,3.39,3.46,4l-1.35,1.8a31.84,31.84,0,0,0-2.11-3.26V60.63h-2.14V50.05a23.51,23.51,0,0,1-3.12,6.31,13.37,13.37,0,0,0-1.1-2,24.23,24.23,0,0,0,3.93-8.57h-3.38V43.64h3.67v-5h2.14v5h3.22v2.11h-3.22Zm15.1-7.6V60.34h-2.24V59.05h-6.52v1.41h-2.14V40Zm-8.76,2.11v3.53h6.52V42.08Zm0,9.21h6.52V47.65h-6.52ZM164.19,57V53.34h-6.52V57Z" style="fill: #0071bc"/>
    <path d="M179.49,44.36h-9V42.58h9Zm-.79,15h-5.16v1h-1.92V52.28h7.08Zm0-11.77h-7V45.85h7Zm-7,1.47h7v1.75h-7Zm7-7.87h-6.89V39.41h6.89ZM173.61,54.1v3.46h3.24V54.08Zm13.66-2c0,1.41.88,4.92,5.56,6.69a18.67,18.67,0,0,0-1.29,1.9,9.13,9.13,0,0,1-5.4-5.66,9.67,9.67,0,0,1-6,5.66,9.43,9.43,0,0,0-1.27-1.8C184,57.07,185,53.54,185,52.1V48.58h2.28Zm-8,2.47a7.31,7.31,0,0,0,2.16-4.18l2,.41A8.56,8.56,0,0,1,181,55.57Zm11.88-5.14A41.28,41.28,0,0,0,186,45.69c-.94,1.75-2.5,3-5.19,3.93a7.17,7.17,0,0,0-1.27-1.77c4.92-1.51,5.47-4.3,5.69-9.22h2.18a23.89,23.89,0,0,1-.67,5.19,49.42,49.42,0,0,1,5.9,3.91Zm-7.63-8.93a7.64,7.64,0,0,1-2,4.37l-1.7-.81a7.16,7.16,0,0,0,1.82-3.92Zm4.7,13.9a23.4,23.4,0,0,0,2.11-4.18l2.19.72c-.84,1.44-1.8,3.08-2.57,4.11Zm4-13.68a40.33,40.33,0,0,1-2.35,3.82l-1.65-.65A22.39,22.39,0,0,0,190,40Z" style="fill: #0071bc"/>
  </g>
</svg>
