<svg xmlns="http://www.w3.org/2000/svg" width="188.65" height="48.97" viewBox="0 0 188.65 48.97">
  <g>
    <path d="M36.08,19.52H38l1.11,6.13.62,3.78h.07c.25-1.27.52-2.53.8-3.78l1.52-6.13h1.63l1.54,6.13c.27,1.23.52,2.5.8,3.78h.08c.19-1.28.4-2.55.59-3.78l1.12-6.13h1.78L47.33,31.3H45.05l-1.59-6.55c-.21-.92-.38-1.8-.54-2.7h-.08c-.16.9-.36,1.78-.55,2.7L40.74,31.3H38.5Z" style="fill: #fff"/>
    <path d="M52.31,19.52h7v1.55H54.17v3.28h4.32v1.57H54.17v3.81h5.28V31.3H52.31Z" style="fill: #fff"/>
    <path d="M62.35,19.52H66c2.42,0,4.16.77,4.16,2.9A2.61,2.61,0,0,1,68.48,25V25a2.71,2.71,0,0,1,2.32,2.8c0,2.34-1.9,3.46-4.51,3.46H62.35Zm3.44,4.91c1.79,0,2.55-.67,2.55-1.77S67.5,21,65.84,21H64.21v3.47Zm.29,5.41c1.84,0,2.9-.65,2.9-2.09s-1-1.91-2.9-1.91H64.21v4Z" style="fill: #fff"/>
    <path d="M78.5,25a12.45,12.45,0,0,1,3.3-.49c2.35,0,4.13,1.26,4.13,3.3,0,1.88-1.09,3.2-3.43,3.76a10.08,10.08,0,0,1-2,.22l-.58-1.6a10.84,10.84,0,0,0,1.91-.11c1.33-.24,2.5-.95,2.5-2.29s-1.11-1.89-2.55-1.89a10.53,10.53,0,0,0-3.25.53c0,1.31.07,2.64.07,3.26,0,1.69-.63,2.17-1.56,2.17-1.37,0-3.49-1.25-3.49-2.79,0-1.34,1.62-2.74,3.49-3.55v-1c0-.56,0-1.15,0-1.74-.39,0-.74.05-1,.05-.71,0-1.46,0-2.08-.08l0-1.54a16.19,16.19,0,0,0,2.1.13l1.08,0c0-.72,0-1.3,0-1.59a9.89,9.89,0,0,0-.1-1.25h1.73c0,.31-.08.84-.09,1.22s0,.9-.07,1.46a20.06,20.06,0,0,0,3.12-.61l0,1.57a31.64,31.64,0,0,1-3.19.53c0,.64,0,1.26,0,1.82Zm-1.38,4.44c0-.5,0-1.41-.05-2.43-1.15.56-1.95,1.36-1.95,2s.93,1.16,1.47,1.16C76.93,30.16,77.12,30,77.12,29.43Zm6.37-9.22a29.44,29.44,0,0,1,3.75,2.27l-.79,1.28a22.83,22.83,0,0,0-3.66-2.33Z" style="fill: #fff"/>
    <path d="M102.75,20v9.14h-1.54v-.8H97.14v4.25H95.61V28.32h-4v.88H90.18V20h5.43V17.89h1.53V20Zm-11.1,1.43v2h4v-2Zm4,5.49V24.79h-4V26.9Zm1.53-5.49v2h4.07v-2Zm4.07,5.49V24.79H97.14V26.9Z" style="fill: #fff"/>
    <path d="M109.43,18.78c-.09.58-.14,1.25-.17,1.81-.07,1.76-.2,5.41-.2,7.62,0,1.67,1.06,2.24,2.42,2.24a6.46,6.46,0,0,0,5.57-3.26l1.14,1.39a8.09,8.09,0,0,1-6.74,3.55c-2.42,0-4-1-4-3.66,0-2.26.16-6.34.16-7.88a8.56,8.56,0,0,0-.16-1.82Z" style="fill: #fff"/>
    <path d="M123.85,29.14c.7,1.1,2,1.62,3.77,1.68s5.33,0,7.33-.11a7.13,7.13,0,0,0-.49,1.52c-1.81.08-5,.11-6.85,0a5.49,5.49,0,0,1-4.42-1.84c-.75.66-1.52,1.3-2.35,2l-.77-1.54a23.91,23.91,0,0,0,2.32-1.65V25.46h-2V24.08h3.51Zm-.74-7.47a11.87,11.87,0,0,0-2.67-2.53l1.1-.9a12.79,12.79,0,0,1,2.74,2.45Zm7-3.06c.32,4.72,1.45,8.51,4.68,10.16a6.61,6.61,0,0,0-1.17,1.14A9.33,9.33,0,0,1,129.54,24a10.92,10.92,0,0,1-4,5.91,9,9,0,0,0-1.17-1.12c2.28-1.41,3.57-3.84,4.17-7l.54.08c-.1-.6-.16-1.22-.22-1.84H126V18.61Z" style="fill: #fff"/>
    <path d="M150.75,28.92a16.41,16.41,0,0,0-1.52-1.19,7.71,7.71,0,0,1-4.1,4.53l-1.34-1.1a6.82,6.82,0,0,0,4.11-4.26,11.38,11.38,0,0,0-4.17-1.36,29.76,29.76,0,0,1-1.93,4,2.48,2.48,0,0,1-2.2,1.24,2.18,2.18,0,0,1-2.23-2.36c0-2.38,2.19-4.22,5.33-4.33.51-1.16,1-2.39,1.47-3.25-.62,0-2.3.09-3,.14-.34,0-.83.06-1.23.11l-.07-1.63c.42,0,.91,0,1.25,0,.86,0,2.77-.08,3.47-.15a2.72,2.72,0,0,0,.92-.19l1,.8a3.29,3.29,0,0,0-.47.59c-.41.69-1,2.18-1.68,3.61a14.41,14.41,0,0,1,3.93,1.16c0-.3.08-.6.09-.89a13.7,13.7,0,0,0,0-1.57L150,23a19,19,0,0,1-.32,3c.72.4,1.33.82,1.83,1.16ZM142,25.52c-2,.24-3.2,1.46-3.2,2.66a.83.83,0,0,0,.79.91c.33,0,.57-.13.89-.54A20.67,20.67,0,0,0,142,25.52Z" style="fill: #fff"/>
  </g>
</svg>
