<svg xmlns="http://www.w3.org/2000/svg" width="386.92" height="48.97" viewBox="0 0 386.92 48.97">
  <g>
    <g>
      <path d="M33.09,25.51a14.36,14.36,0,0,1,.09-1.94,13.73,13.73,0,0,1,.35-2,10.33,10.33,0,0,1,.67-1.86,5.49,5.49,0,0,1,1.08-1.54,5.19,5.19,0,0,1,1.56-1.06,5.82,5.82,0,0,1,4.19,0,5.19,5.19,0,0,1,1.56,1.06,5.49,5.49,0,0,1,1.08,1.54,10.33,10.33,0,0,1,.67,1.86,13.73,13.73,0,0,1,.35,2c.06.67.09,1.32.09,1.94a19.85,19.85,0,0,1-.23,2.88,9.84,9.84,0,0,1-.89,2.85,5.92,5.92,0,0,1-1.79,2.18,5.44,5.44,0,0,1-5.87,0,6.1,6.1,0,0,1-1.79-2.18,10.14,10.14,0,0,1-.88-2.85A19.86,19.86,0,0,1,33.09,25.51Zm2.3,0a19,19,0,0,0,.11,2,9.83,9.83,0,0,0,.5,2.21,4.88,4.88,0,0,0,1,1.81,2.82,2.82,0,0,0,3.81,0,5,5,0,0,0,1.07-1.81,9.86,9.86,0,0,0,.47-2.22c.07-.77.1-1.43.1-2V24.19a12.19,12.19,0,0,0-.17-1.48,10.54,10.54,0,0,0-.37-1.47A4.86,4.86,0,0,0,41.27,20a2.88,2.88,0,0,0-4.73,0A5.14,5.14,0,0,0,36,21.25a10.54,10.54,0,0,0-.37,1.47,12.19,12.19,0,0,0-.17,1.48A10.58,10.58,0,0,0,35.39,25.51Z" style="fill: #0071bc"/>
      <path d="M52.07,19.66,49,22.54l-1.35-1.61L52.34,17h2V34H52Z" style="fill: #0071bc"/>
      <path d="M60,31.55l6.81-6.76a6.78,6.78,0,0,0,.69-.73,4.87,4.87,0,0,0,.6-.83,3.76,3.76,0,0,0,.42-.91,3.08,3.08,0,0,0,.16-1,2.68,2.68,0,0,0-.23-1.12,2.28,2.28,0,0,0-.62-.85,3,3,0,0,0-.94-.54,3.41,3.41,0,0,0-1.14-.19,3.08,3.08,0,0,0-2.06.69,3.16,3.16,0,0,0-1,1.92L60.2,21a5.19,5.19,0,0,1,.66-1.95,4.87,4.87,0,0,1,1.22-1.38,4.76,4.76,0,0,1,1.68-.81,7.13,7.13,0,0,1,2.05-.27,7.25,7.25,0,0,1,2.07.3,5,5,0,0,1,1.7.89,4.1,4.1,0,0,1,1.15,1.46,5.14,5.14,0,0,1,.17,3.62,7,7,0,0,1-.66,1.38,8.37,8.37,0,0,1-.93,1.22c-.35.39-.72.76-1.11,1.13L62.62,32h8.53v2H60Z" style="fill: #0071bc"/>
      <path d="M73.07,25.51a17.87,17.87,0,0,1,.1-1.94,12.31,12.31,0,0,1,.35-2,9.61,9.61,0,0,1,.67-1.86,5.17,5.17,0,0,1,1.08-1.54,5,5,0,0,1,1.55-1.06,5.85,5.85,0,0,1,4.2,0,5.19,5.19,0,0,1,1.56,1.06,5.46,5.46,0,0,1,1.07,1.54,11.19,11.19,0,0,1,.68,1.86,13.7,13.7,0,0,1,.34,2,18.09,18.09,0,0,1-.14,4.82,9.84,9.84,0,0,1-.89,2.85,6,6,0,0,1-1.78,2.18,5.44,5.44,0,0,1-5.88,0,6,6,0,0,1-1.78-2.18,9.84,9.84,0,0,1-.89-2.85A19.86,19.86,0,0,1,73.07,25.51Zm2.3,0a13.6,13.6,0,0,0,.11,2A9.87,9.87,0,0,0,76,29.72a4.81,4.81,0,0,0,1,1.81,2.83,2.83,0,0,0,3.82,0,4.94,4.94,0,0,0,1.06-1.81,9.86,9.86,0,0,0,.47-2.22c.07-.77.11-1.43.11-2V24.19a10.48,10.48,0,0,0-.17-1.48,9.3,9.3,0,0,0-.37-1.47A4.93,4.93,0,0,0,81.26,20a3.27,3.27,0,0,0-1-.89,3,3,0,0,0-2.74,0,3.27,3.27,0,0,0-1,.89A5.08,5.08,0,0,0,76,21.25a9.3,9.3,0,0,0-.37,1.47,10.48,10.48,0,0,0-.17,1.48A7.93,7.93,0,0,0,75.37,25.51Z" style="fill: #0071bc"/>
      <path d="M92.32,29.2h-5.9v-2h5.9Z" style="fill: #0071bc"/>
      <path d="M102.39,19H94.17V17h10.66v2L98.07,34H95.48Z" style="fill: #0071bc"/>
      <path d="M114.54,30.26H107.3V27.91L114.06,17h2.78V28.24h2.4v2h-2.4V34h-2.3Zm0-10.5h-.05l-5.17,8.48h5.22Z" style="fill: #0071bc"/>
      <path d="M125.09,23.59h.09a4.47,4.47,0,0,1,1.87-.38,5.84,5.84,0,0,1,1.85.31,5,5,0,0,1,2.92,2.68,5.56,5.56,0,0,1,.48,2.41,6.21,6.21,0,0,1-.46,2.48,4.86,4.86,0,0,1-1.26,1.78A5.21,5.21,0,0,1,128.73,34a6.88,6.88,0,0,1-2.25.36,6.61,6.61,0,0,1-2.25-.38,5.61,5.61,0,0,1-1.85-1.1,5.25,5.25,0,0,1-1.73-4,8.75,8.75,0,0,1,.12-1.44,7.61,7.61,0,0,1,.35-1.24,8,8,0,0,1,.54-1.15c.21-.37.44-.77.7-1.18L126.65,17h2.71ZM123,28.75a3.78,3.78,0,0,0,.25,1.41,2.92,2.92,0,0,0,.72,1.11,3.12,3.12,0,0,0,1,.73,4.08,4.08,0,0,0,2.88,0,3.32,3.32,0,0,0,1.11-.74,3.27,3.27,0,0,0,.72-1.11,4.17,4.17,0,0,0,0-2.83,3.27,3.27,0,0,0-.72-1.11,3.07,3.07,0,0,0-1.11-.73,4,4,0,0,0-2.88,0,3.07,3.07,0,0,0-1.11.73,2.92,2.92,0,0,0-.72,1.11A3.85,3.85,0,0,0,123,28.75Z" style="fill: #0071bc"/>
      <path d="M139.88,29.2H134v-2h5.9Z" style="fill: #0071bc"/>
      <path d="M141.82,31.55l6.81-6.76a6.78,6.78,0,0,0,.69-.73,4.87,4.87,0,0,0,.6-.83,3.76,3.76,0,0,0,.42-.91,3.37,3.37,0,0,0,.16-1,2.68,2.68,0,0,0-.23-1.12,2.28,2.28,0,0,0-.62-.85,3,3,0,0,0-.94-.54,3.41,3.41,0,0,0-1.14-.19,2.9,2.9,0,0,0-3.06,2.61L142,21a5.19,5.19,0,0,1,.66-1.95,4.62,4.62,0,0,1,1.22-1.38,4.76,4.76,0,0,1,1.68-.81,7.48,7.48,0,0,1,2-.27,7.25,7.25,0,0,1,2.07.3,5.22,5.22,0,0,1,1.7.89,4.1,4.1,0,0,1,1.15,1.46,5.14,5.14,0,0,1,.17,3.62,7,7,0,0,1-.66,1.38,8.37,8.37,0,0,1-.93,1.22c-.36.39-.72.76-1.11,1.13L144.41,32h8.53v2H141.82Z" style="fill: #0071bc"/>
      <path d="M162.1,27.43H162a4.32,4.32,0,0,1-1.87.38,5.73,5.73,0,0,1-1.84-.31,4.68,4.68,0,0,1-1.69-1,5.14,5.14,0,0,1-1.24-1.68,5.56,5.56,0,0,1-.48-2.41,6.3,6.3,0,0,1,.47-2.46,5.2,5.2,0,0,1,1.26-1.78,5.42,5.42,0,0,1,1.85-1.09,6.6,6.6,0,0,1,2.25-.37,6.37,6.37,0,0,1,2.25.38,5.61,5.61,0,0,1,1.85,1.1,5.21,5.21,0,0,1,1.72,4,8.75,8.75,0,0,1-.12,1.44,7.47,7.47,0,0,1-.34,1.23c-.16.4-.34.78-.54,1.17a13.37,13.37,0,0,1-.7,1.17L160.54,34h-2.71Zm2.13-5.16a3.78,3.78,0,0,0-.25-1.41,3.31,3.31,0,0,0-.72-1.12,3.57,3.57,0,0,0-1.11-.73,4.08,4.08,0,0,0-2.88,0,3.57,3.57,0,0,0-1.11.73,3.31,3.31,0,0,0-.72,1.12,3.78,3.78,0,0,0-.25,1.41,3.83,3.83,0,0,0,.25,1.42,3.25,3.25,0,0,0,1.83,1.84,4,4,0,0,0,2.88,0A3.22,3.22,0,0,0,164,23.69a3.81,3.81,0,0,0,.23-1.42Z" style="fill: #0071bc"/>
      <path d="M168.48,31.55l6.8-6.76a8,8,0,0,0,.7-.73,7,7,0,0,0,.6-.83,5,5,0,0,0,.42-.91,3.37,3.37,0,0,0,.15-1,2.7,2.7,0,0,0-.22-1.12,2.42,2.42,0,0,0-.63-.85,2.8,2.8,0,0,0-.93-.54,3.41,3.41,0,0,0-1.14-.19,3,3,0,0,0-3.09,2.61l-2.5-.22a5.56,5.56,0,0,1,.66-2,4.77,4.77,0,0,1,2.9-2.19,7.5,7.5,0,0,1,2.05-.27,7,7,0,0,1,2.08.3,5.22,5.22,0,0,1,1.7.89,4.1,4.1,0,0,1,1.15,1.46,5.14,5.14,0,0,1,.17,3.62,7,7,0,0,1-.66,1.38,9.21,9.21,0,0,1-.94,1.22c-.35.39-.72.76-1.1,1.13L171.07,32h8.53v2H168.48Z" style="fill: #0071bc"/>
    </g>
    <g>
      <path d="M201.53,16.66a8.66,8.66,0,0,1-3,3.41,18.54,18.54,0,0,0,4.93,1.16,5.49,5.49,0,0,0-.79,1.23,17.18,17.18,0,0,1-5.47-1.62,20.14,20.14,0,0,1-5.53,1.64,4.11,4.11,0,0,0-.76-1.18,19.67,19.67,0,0,0,5-1.23,9.49,9.49,0,0,1-2.55-2.58l.25-.11H193V16.17h7.59Zm-9.08-.08h-1.22v-2.9h2.12a9.48,9.48,0,0,0-.8-1.67l1.13-.32a7.25,7.25,0,0,1,.9,1.75l-.76.24h3a7.88,7.88,0,0,0-.63-2l1.16-.25a7.83,7.83,0,0,1,.7,1.93l-1.18.3h2.79a14.84,14.84,0,0,0,1.12-2.26l1.36.37c-.36.63-.77,1.33-1.16,1.89h2.2v2.9H201.9V14.83h-9.48Zm10.1-5.9a73.81,73.81,0,0,1-10.9,1.05,3.55,3.55,0,0,0-.28-1.11,73.78,73.78,0,0,0,10.27-1Zm-7.76,6.7a7.84,7.84,0,0,0,2.45,2.06,7.2,7.2,0,0,0,2.33-2.06Z" style="fill: #0071bc"/>
      <path d="M210.21,10.18a23.44,23.44,0,0,1-1.41,3v9.39h-1.32V15.16a11.36,11.36,0,0,1-1.23,1.45,8.48,8.48,0,0,0-.79-1.33,15.05,15.05,0,0,0,3.46-5.51Zm8.1,3.86h-1.67v6.84c0,.91-.24,1.27-.82,1.47a10.42,10.42,0,0,1-3.1.22,5.55,5.55,0,0,0-.5-1.3c1.13.06,2.29,0,2.63,0s.45-.11.45-.42V14h-5.48V12.7h5.48V9.84h1.34v2.9h1.67Zm-5.8,5.24a37.11,37.11,0,0,0-1.92-3.43l1.14-.53c.67,1.05,1.58,2.46,2,3.3Z" style="fill: #0071bc"/>
      <path d="M224.76,19.83h-2.91V21h-1.21V10.57h4.12Zm-2.91-8.08v2.81h1.68V11.75Zm1.68,6.92v-3h-1.68v3Zm7.88-3.58v1.4h1.5v1.15h-1.5v3.45c0,.67-.15,1-.61,1.22a6.87,6.87,0,0,1-2.3.21,5.34,5.34,0,0,0-.42-1.22h1.77c.21,0,.29-.07.29-.27V17.64H225V16.49h5.1v-1.4H225V13.94h3.33V12.4h-2.8V11.27h2.8V9.67h1.31v1.6h2.88V12.4h-2.88v1.54H233v1.15ZM226.82,18a10.46,10.46,0,0,1,1.75,2.33l-1.11.67a10.25,10.25,0,0,0-1.69-2.39Z" style="fill: #0071bc"/>
      <path d="M236.81,15.12v7.43h-1.29V10.25h5.17v4.87Zm0-3.89v1h2.65v-1Zm2.65,2.92v-1h-2.65v1Zm7.63,6.77c0,.74-.15,1.16-.65,1.39a7.16,7.16,0,0,1-2.44.22,6.28,6.28,0,0,0-.41-1.27h-3.78V22h-1.19V16.09h5.25v5.12h1.58c.22,0,.33-.09.33-.32V15.15h-4v-4.9h5.29Zm-7.28-3.85v1.09h2.84V17.07Zm2.84,3.21V19.11h-2.84v1.17Zm.4-9v1h2.73v-1Zm2.73,3V13.12h-2.73v1.06Z" style="fill: #0071bc"/>
      <path d="M191.41,38.11h2.26V30.94h-1.85v-1a6.36,6.36,0,0,0,2.24-.78h1.22v9h2v1.33h-5.89Z" style="fill: #0071bc"/>
      <path d="M199.52,38.5c3-2.69,4.61-4.69,4.61-6.39a1.68,1.68,0,0,0-1.45-1.88h-.3a2.82,2.82,0,0,0-2,1.15l-.91-.9a4,4,0,0,1,3.13-1.54,2.92,2.92,0,0,1,3.11,2.72,2.41,2.41,0,0,1,0,.38c0,2-1.58,4-3.76,6.13.53,0,1.17-.09,1.68-.09h2.57v1.37h-6.65Z" style="fill: #0071bc"/>
      <path d="M212.68,37.83h-2.91V39h-1.2V28.57h4.11Zm-2.91-8.08v2.81h1.68V29.75Zm1.68,6.92v-3h-1.68v3Zm7.89-3.58v1.4h1.5v1.15h-1.5v3.45c0,.67-.16,1-.62,1.22a6.87,6.87,0,0,1-2.3.21A4.3,4.3,0,0,0,216,39.3h1.77c.21,0,.29-.07.29-.27V35.64H213V34.49h5.1v-1.4H213V31.94h3.34V30.4h-2.81V29.27h2.81v-1.6h1.3v1.6h2.88V30.4H217.6v1.54H221v1.15Zm-4.6,2.9a10.23,10.23,0,0,1,1.75,2.33l-1.1.67a10.29,10.29,0,0,0-1.7-2.39Z" style="fill: #0071bc"/>
      <path d="M228.88,34.61A2.71,2.71,0,0,0,225.1,34a2.75,2.75,0,0,0-.93,1.25l-1.23-.67a4.09,4.09,0,0,1,6.95-1,2.69,2.69,0,0,0,4.7-.69l1.24.67a4.08,4.08,0,0,1-7,1Z" style="fill: #0071bc"/>
      <path d="M236.6,38.5c3-2.69,4.6-4.69,4.6-6.39a1.68,1.68,0,0,0-1.45-1.88h-.3a2.82,2.82,0,0,0-2,1.15l-.91-.9a4,4,0,0,1,3.14-1.54,2.92,2.92,0,0,1,3.11,2.72,2.41,2.41,0,0,1,0,.38c0,2-1.58,4-3.77,6.13.53,0,1.18-.09,1.68-.09h2.58v1.37H236.6Z" style="fill: #0071bc"/>
      <path d="M245.68,38.11h2.25V30.94h-1.85v-1a6.36,6.36,0,0,0,2.24-.78h1.22v9h2v1.33h-5.88Z" style="fill: #0071bc"/>
      <path d="M258.12,37.83h-2.91V39H254V28.57h4.11Zm-2.91-8.08v2.81h1.68V29.75Zm1.68,6.92v-3h-1.68v3Zm7.89-3.58v1.4h1.5v1.15h-1.5v3.45c0,.67-.16,1-.62,1.22a6.87,6.87,0,0,1-2.3.21,4.3,4.3,0,0,0-.42-1.22h1.77c.21,0,.29-.07.29-.27V35.64h-5.1V34.49h5.1v-1.4h-5.14V31.94h3.34V30.4h-2.8V29.27h2.8v-1.6H263v1.6h2.89V30.4H263v1.54h3.4v1.15Zm-4.6,2.9a10.28,10.28,0,0,1,1.76,2.33l-1.11.67a10.29,10.29,0,0,0-1.7-2.39Z" style="fill: #0071bc"/>
      <path d="M270.18,34.12a9.37,9.37,0,0,1,2.77-6.7l1.07.5a8.73,8.73,0,0,0,0,12.35l0,0-1.07.5A9.39,9.39,0,0,1,270.18,34.12Z" style="fill: #0071bc"/>
      <path d="M283,39a16.65,16.65,0,0,0,2,.12h3.75a4.07,4.07,0,0,0-.49,1.31h-3.33c-2.75,0-4.76-.46-6-2.66a7.11,7.11,0,0,1-2,2.92,6.62,6.62,0,0,0-1.08-.9c1.54-1.15,2.25-3.11,2.55-5.56l1.34.12a14.48,14.48,0,0,1-.33,1.84,4,4,0,0,0,2.28,2.46v-5.5h-3.24V31.9h7.89v1.25H283v2.06h4v1.22h-4Zm-5.22-6.53h-1.27V29.2h5.12V27.7H283v1.5h5.18v3.22h-1.33v-2h-9.09Z" style="fill: #0071bc"/>
      <path d="M295.1,28.18a20.94,20.94,0,0,1-1.49,3V40.5h-1.28V33a13.33,13.33,0,0,1-1.43,1.58,9.89,9.89,0,0,0-.77-1.34,14.69,14.69,0,0,0,3.68-5.48Zm4.83,4.24a14.35,14.35,0,0,0,3.57,5.35,5.26,5.26,0,0,0-1,1,16,16,0,0,1-3.26-5.11V40.5H298V34.06a15.22,15.22,0,0,1-3.35,4.85,5.91,5.91,0,0,0-1-1,13.49,13.49,0,0,0,3.72-5.45h-3.15V31.15H298V27.9h1.29v3.25h3.85v1.27Z" style="fill: #0071bc"/>
      <path d="M315.65,28.58V40.34h-1.38v-.86h-6.6v.91h-1.33V28.58Zm-8,1.32v3.42h6.6V29.9Zm6.6,8.26V34.61h-6.6v3.55Z" style="fill: #0071bc"/>
      <path d="M321,30.82A1.18,1.18,0,1,1,322.18,32h0A1.14,1.14,0,0,1,321,30.85Zm0,6.8a1.18,1.18,0,1,1,1.21,1.15h0A1.15,1.15,0,0,1,321,37.65Z" style="fill: #0071bc"/>
      <path d="M339.62,38.65v1.28h-12.5V38.65h5.51V33.36H328V32.08h4.62V27.71H334v4.37h4.69v1.28H334v5.29Z" style="fill: #0071bc"/>
      <path d="M352,28.58V40.34h-1.39v-.86H344v.91h-1.33V28.58Zm-8,1.32v3.42h6.6V29.9Zm6.6,8.26V34.61H344v3.55Z" style="fill: #0071bc"/>
      <path d="M359.44,34.12a9.34,9.34,0,0,1-2.78,6.69l-1.06-.5a8.73,8.73,0,0,0,0-12.35l0,0,1.06-.5A9.32,9.32,0,0,1,359.44,34.12Z" style="fill: #0071bc"/>
    </g>
  </g>
</svg>
