<svg xmlns="http://www.w3.org/2000/svg" width="560" height="103.18" viewBox="0 0 560 103.18">
  <g>
    <path d="M212.05,35c0-1.2.06-2.44.18-3.73a23,23,0,0,1,.67-3.79,20.76,20.76,0,0,1,1.28-3.57,10.63,10.63,0,0,1,2.07-3,9.76,9.76,0,0,1,3-2,11,11,0,0,1,8,0,9.64,9.64,0,0,1,3,2,10.23,10.23,0,0,1,2.07,3,20,20,0,0,1,1.29,3.57,24,24,0,0,1,.67,3.79c.12,1.29.18,2.53.18,3.73a35.4,35.4,0,0,1-.46,5.52,18.67,18.67,0,0,1-1.7,5.47,11.59,11.59,0,0,1-3.43,4.19,10.45,10.45,0,0,1-11.27,0A11.67,11.67,0,0,1,214.21,46a18.67,18.67,0,0,1-1.7-5.47A35.4,35.4,0,0,1,212.05,35Zm4.41,0c0,1.07.07,2.34.21,3.82a18.79,18.79,0,0,0,.9,4.25,9.23,9.23,0,0,0,2,3.47,5.4,5.4,0,0,0,7.32,0,9.23,9.23,0,0,0,2-3.47,18.79,18.79,0,0,0,.9-4.25c.14-1.48.21-2.75.21-3.82,0-.74,0-1.57-.07-2.51a26.16,26.16,0,0,0-.32-2.85,18.66,18.66,0,0,0-.72-2.81,9.45,9.45,0,0,0-1.22-2.44,5.76,5.76,0,0,0-1.86-1.72,5.68,5.68,0,0,0-5.24,0,5.9,5.9,0,0,0-1.87,1.72,9.75,9.75,0,0,0-1.21,2.44,18.66,18.66,0,0,0-.72,2.81,23.9,23.9,0,0,0-.32,2.85C216.48,33.44,216.46,34.27,216.46,35Z" style="fill: #fff"/>
    <path d="M248.48,23.78l-6,5.52-2.58-3.08,9.06-7.5h3.91V51.29h-4.41Z" style="fill: #fff"/>
    <path d="M263.75,46.6l13.06-13a17.88,17.88,0,0,0,1.34-1.4,13.34,13.34,0,0,0,1.15-1.59,8.65,8.65,0,0,0,.8-1.75,6.19,6.19,0,0,0,.3-1.93A5,5,0,0,0,280,24.8a4.81,4.81,0,0,0-1.19-1.64,5.5,5.5,0,0,0-1.8-1,6.32,6.32,0,0,0-2.18-.37,5.94,5.94,0,0,0-4,1.33,6,6,0,0,0-2,3.68l-4.79-.41a10.32,10.32,0,0,1,1.27-3.75A8.9,8.9,0,0,1,267.68,20a9.57,9.57,0,0,1,3.22-1.57,14.91,14.91,0,0,1,3.94-.5,13.46,13.46,0,0,1,4,.57,9.87,9.87,0,0,1,3.27,1.7A7.94,7.94,0,0,1,284.29,23a9,9,0,0,1,.8,3.93,9.18,9.18,0,0,1-.48,3,12.64,12.64,0,0,1-1.26,2.65,16.84,16.84,0,0,1-1.8,2.35c-.67.73-1.38,1.45-2.11,2.16L268.72,47.43h16.37v3.86H263.75Z" style="fill: #fff"/>
    <path d="M288.77,35a37.13,37.13,0,0,1,.19-3.73,24,24,0,0,1,.66-3.79,21.67,21.67,0,0,1,1.29-3.57A10.63,10.63,0,0,1,293,21a10.48,10.48,0,0,1,11-2,9.64,9.64,0,0,1,3,2,10.23,10.23,0,0,1,2.07,3,20,20,0,0,1,1.29,3.57,25.25,25.25,0,0,1,.67,3.79c.12,1.29.18,2.53.18,3.73a35.4,35.4,0,0,1-.46,5.52,18.67,18.67,0,0,1-1.7,5.47,11.59,11.59,0,0,1-3.43,4.19,10.45,10.45,0,0,1-11.27,0A11.57,11.57,0,0,1,290.94,46a19,19,0,0,1-1.71-5.47A36.66,36.66,0,0,1,288.77,35Zm4.42,0c0,1.07.07,2.34.21,3.82a18.78,18.78,0,0,0,.89,4.25,9.24,9.24,0,0,0,2,3.47,5.39,5.39,0,0,0,7.31,0,9.12,9.12,0,0,0,2.05-3.47,18.79,18.79,0,0,0,.9-4.25c.14-1.48.21-2.75.21-3.82,0-.74,0-1.57-.07-2.51a24,24,0,0,0-.33-2.85,17.52,17.52,0,0,0-.71-2.81,9.78,9.78,0,0,0-1.22-2.44,5.76,5.76,0,0,0-1.86-1.72,5.68,5.68,0,0,0-5.24,0,5.9,5.9,0,0,0-1.87,1.72,10.13,10.13,0,0,0-1.22,2.44,19.92,19.92,0,0,0-.71,2.81,23.9,23.9,0,0,0-.32,2.85C293.21,33.44,293.19,34.27,293.19,35Z" style="fill: #fff"/>
    <path d="M325.71,42.09H314.4V38.23h11.31Z" style="fill: #fff"/>
    <path d="M345,22.59H329.25V18.72h20.47V22.5l-13,28.79h-5Z" style="fill: #fff"/>
    <path d="M368.35,44.12H354.46V39.61l13-20.89h5.34V40.25h4.6v3.87h-4.6v7.17h-4.42Zm0-20.15h-.09l-9.93,16.28h10Z" style="fill: #fff"/>
    <path d="M388.59,31.33h.19a8.16,8.16,0,0,1,3.59-.74,11.15,11.15,0,0,1,3.54.6,9.56,9.56,0,0,1,3.24,1.86,9.67,9.67,0,0,1,2.37,3.22,10.86,10.86,0,0,1,.92,4.63,11.75,11.75,0,0,1-.9,4.76,9.88,9.88,0,0,1-2.41,3.42,10,10,0,0,1-3.54,2.07,13.32,13.32,0,0,1-4.33.69,12.56,12.56,0,0,1-4.32-.73A10.54,10.54,0,0,1,383.4,49a10.07,10.07,0,0,1-3.32-7.63,15.39,15.39,0,0,1,.23-2.76,13.79,13.79,0,0,1,.67-2.37A17.73,17.73,0,0,1,382,34c.39-.72.84-1.48,1.33-2.28l8.23-13h5.2Zm-4.09,9.89a7.46,7.46,0,0,0,.48,2.71,6.36,6.36,0,0,0,1.38,2.14,6.26,6.26,0,0,0,2.14,1.4,7.72,7.72,0,0,0,5.52,0,6.26,6.26,0,0,0,2.14-1.4,6.07,6.07,0,0,0,1.38-2.14,7.92,7.92,0,0,0,0-5.43,6,6,0,0,0-1.38-2.13A6.43,6.43,0,0,0,394,35a7.87,7.87,0,0,0-5.52,0,6.43,6.43,0,0,0-2.14,1.41A6.32,6.32,0,0,0,385,38.5,7.51,7.51,0,0,0,384.5,41.22Z" style="fill: #fff"/>
    <path d="M417,42.09H405.66V38.23H417Z" style="fill: #fff"/>
    <path d="M420.7,46.6l13.07-13a17.78,17.78,0,0,0,1.33-1.4,13.34,13.34,0,0,0,1.15-1.59,8.68,8.68,0,0,0,.81-1.75,6.49,6.49,0,0,0,.29-1.93,5.18,5.18,0,0,0-.43-2.16,4.84,4.84,0,0,0-1.2-1.64,5.45,5.45,0,0,0-1.79-1,6.38,6.38,0,0,0-2.19-.37,5.92,5.92,0,0,0-3.95,1.33,6,6,0,0,0-2,3.68L421,26.36a10.32,10.32,0,0,1,1.27-3.75A9,9,0,0,1,424.63,20a9.57,9.57,0,0,1,3.22-1.57,15,15,0,0,1,3.94-.5,13.58,13.58,0,0,1,4,.57,9.82,9.82,0,0,1,3.26,1.7A7.94,7.94,0,0,1,441.24,23a9,9,0,0,1,.81,3.93,9.18,9.18,0,0,1-.49,3,12.64,12.64,0,0,1-1.26,2.65,16.1,16.1,0,0,1-1.8,2.35c-.67.73-1.38,1.45-2.11,2.16L425.67,47.43h16.38v3.86H420.7Z" style="fill: #fff"/>
    <path d="M459.62,38.69h-.19a8.11,8.11,0,0,1-3.58.73,11.15,11.15,0,0,1-3.55-.59A9.43,9.43,0,0,1,449.06,37a9.74,9.74,0,0,1-2.37-3.22,10.79,10.79,0,0,1-.92-4.62,11.65,11.65,0,0,1,.9-4.72A10,10,0,0,1,449.08,21a10.47,10.47,0,0,1,3.55-2.1,13,13,0,0,1,4.32-.71,12.57,12.57,0,0,1,4.32.74A10.66,10.66,0,0,1,464.82,21a10.32,10.32,0,0,1,2.41,3.32,10.09,10.09,0,0,1,.9,4.32,15.55,15.55,0,0,1-.23,2.76,13.79,13.79,0,0,1-.67,2.37,21.19,21.19,0,0,1-1,2.23c-.4.74-.85,1.49-1.34,2.25l-8.23,13h-5.2Zm4.09-9.89a7.51,7.51,0,0,0-.48-2.72,6.16,6.16,0,0,0-1.38-2.14,6.57,6.57,0,0,0-2.14-1.4,7.87,7.87,0,0,0-5.52,0,6.57,6.57,0,0,0-2.14,1.4,6.16,6.16,0,0,0-1.38,2.14,7.92,7.92,0,0,0,0,5.43,6.07,6.07,0,0,0,1.38,2.14,6.26,6.26,0,0,0,2.14,1.4,7.72,7.72,0,0,0,5.52,0,6.26,6.26,0,0,0,2.14-1.4,6.07,6.07,0,0,0,1.38-2.14A7.46,7.46,0,0,0,463.71,28.8Z" style="fill: #fff"/>
    <path d="M471.85,46.6l13.07-13a17.78,17.78,0,0,0,1.33-1.4,13.34,13.34,0,0,0,1.15-1.59,8.17,8.17,0,0,0,.81-1.75,6.19,6.19,0,0,0,.3-1.93,5.18,5.18,0,0,0-.44-2.16,4.71,4.71,0,0,0-1.2-1.64,5.35,5.35,0,0,0-1.79-1,6.38,6.38,0,0,0-2.19-.37,5.92,5.92,0,0,0-3.95,1.33,6.07,6.07,0,0,0-2,3.68l-4.78-.41a10.13,10.13,0,0,1,1.26-3.75A8.93,8.93,0,0,1,475.79,20,9.48,9.48,0,0,1,479,18.4a14.89,14.89,0,0,1,3.93-.5,13.53,13.53,0,0,1,4,.57,9.82,9.82,0,0,1,3.26,1.7A7.83,7.83,0,0,1,492.39,23a9,9,0,0,1,.81,3.93,9.18,9.18,0,0,1-.48,3,13.19,13.19,0,0,1-1.27,2.65,16.76,16.76,0,0,1-1.79,2.35c-.68.73-1.38,1.45-2.12,2.16L476.82,47.43H493.2v3.86H471.85Z" style="fill: #fff"/>
  </g>
  <path d="M127.18,77A12.21,12.21,0,0,1,123,81.81a26.44,26.44,0,0,0,7,1.65,7.92,7.92,0,0,0-1.14,1.74,24.38,24.38,0,0,1-7.75-2.3,27.61,27.61,0,0,1-7.85,2.32,5.74,5.74,0,0,0-1.07-1.66,27.19,27.19,0,0,0,7.13-1.75,13.51,13.51,0,0,1-3.61-3.66L116,78h-.85V76.28h10.43l.34-.06Zm-12.87-.12h-1.73V72.74h3a13.38,13.38,0,0,0-1.14-2.36l1.61-.46a10.55,10.55,0,0,1,1.28,2.49l-1.08.33h4.3a11.41,11.41,0,0,0-.9-2.8l1.65-.36a11.29,11.29,0,0,1,1,2.75l-1.67.41h4a21.17,21.17,0,0,0,1.59-3.2l1.93.52c-.52.89-1.09,1.89-1.65,2.68h3.12v4.12h-1.81V74.37H114.31Zm14.33-8.37A107,107,0,0,1,113.17,70a5.48,5.48,0,0,0-.39-1.57A101.57,101.57,0,0,0,127.34,67Zm-11,9.5a11,11,0,0,0,3.48,2.92A9.94,9.94,0,0,0,124.4,78Z" style="fill: #fff"/>
  <path d="M139.51,67.77a30.5,30.5,0,0,1-2,4.2V85.28h-1.87V74.85a17.08,17.08,0,0,1-1.75,2.05A11.75,11.75,0,0,0,132.77,75a21.46,21.46,0,0,0,4.91-7.81ZM151,73.26h-2.37V83c0,1.29-.34,1.81-1.17,2.09a15.35,15.35,0,0,1-4.39.31,7.47,7.47,0,0,0-.72-1.84c1.61.08,3.26.06,3.74,0s.63-.16.63-.6v-9.7H139V71.41h7.77V67.3h1.91v4.11H151Zm-8.23,7.43a51.19,51.19,0,0,0-2.72-4.87l1.61-.75c1,1.49,2.24,3.5,2.84,4.69Z" style="fill: #fff"/>
  <path d="M160.15,81.47H156v1.67h-1.71V68.33h5.84ZM156,70v4h2.38V70Zm2.38,9.82V75.63H156v4.19Zm11.19-5.07v2h2.13v1.63h-2.13v4.89c0,.95-.22,1.45-.87,1.73a10.07,10.07,0,0,1-3.26.29,6.79,6.79,0,0,0-.6-1.72c1.11,0,2.21,0,2.5,0s.42-.1.42-.38V78.37h-7.23V76.74h7.23v-2h-7.29V73.12h4.73V70.94h-4V69.33h4V67.06h1.85v2.27h4.09v1.61h-4.09v2.18h4.83v1.63Zm-6.52,4.11a14.81,14.81,0,0,1,2.49,3.3l-1.57,1a14.78,14.78,0,0,0-2.41-3.4Z" style="fill: #fff"/>
  <path d="M177.25,74.79V85.32h-1.83V67.87h7.33v6.92Zm0-5.52v1.37H181V69.27ZM181,73.42V72h-3.76v1.47ZM191.84,83c0,1-.22,1.65-.94,2a10.32,10.32,0,0,1-3.46.31,7.64,7.64,0,0,0-.57-1.8H181.5v1h-1.69V76.16h7.46v7.28c1,0,1.92,0,2.24,0s.46-.12.46-.46V74.83h-5.65v-7h7.52ZM181.5,77.55V79.1h4V77.55Zm4,4.55V80.45h-4V82.1Zm.55-12.83v1.37H190V69.27ZM190,73.46V72h-3.88v1.51Z" style="fill: #fff"/>
  <path d="M198,81.87h3.2V71.69h-2.63V70.24a9.13,9.13,0,0,0,3.18-1.11h1.73V81.87h2.86v1.88H198Z" style="fill: #fff"/>
  <path d="M209.47,82.42c4.31-3.81,6.54-6.66,6.54-9.06a2.38,2.38,0,0,0-2.48-2.68,4,4,0,0,0-2.89,1.63L209.35,71a5.74,5.74,0,0,1,4.45-2.18,4.14,4.14,0,0,1,4.42,4.39c0,2.82-2.25,5.74-5.35,8.71.75-.08,1.67-.14,2.38-.14h3.66v1.94h-9.44Z" style="fill: #fff"/>
  <path d="M228.15,81.47H224v1.67H222.3V68.33h5.85ZM224,70v4h2.39V70Zm2.39,9.82V75.63H224v4.19Zm11.19-5.07v2h2.12v1.63h-2.12v4.89c0,.95-.22,1.45-.88,1.73a10,10,0,0,1-3.26.29,6.75,6.75,0,0,0-.59-1.72c1.11,0,2.2,0,2.5,0s.42-.1.42-.38V78.37h-7.23V76.74h7.23v-2h-7.29V73.12h4.73V70.94h-4V69.33h4V67.06h1.84v2.27h4.1v1.61h-4.1v2.18h4.83v1.63Zm-6.52,4.11a14.74,14.74,0,0,1,2.48,3.3l-1.57,1a14.42,14.42,0,0,0-2.4-3.4Z" style="fill: #fff"/>
  <path d="M251.13,77.76a3.83,3.83,0,0,0-6.68,1l-1.75-1c1.29-2.34,3.16-3.56,5.27-3.56a6.11,6.11,0,0,1,4.59,2.15,3.83,3.83,0,0,0,6.68-1l1.74.95c-1.29,2.34-3.16,3.56-5.26,3.56A6.09,6.09,0,0,1,251.13,77.76Z" style="fill: #fff"/>
  <path d="M262.07,82.42c4.32-3.81,6.54-6.66,6.54-9.06a2.38,2.38,0,0,0-2.48-2.68,3.94,3.94,0,0,0-2.88,1.63L262,71a5.76,5.76,0,0,1,4.46-2.18,4.14,4.14,0,0,1,4.41,4.39c0,2.82-2.25,5.74-5.35,8.71.76-.08,1.67-.14,2.39-.14h3.66v1.94h-9.45Z" style="fill: #fff"/>
  <path d="M275,81.87h3.2V71.69h-2.62V70.24a9.21,9.21,0,0,0,3.18-1.11h1.72V81.87h2.87v1.88H275Z" style="fill: #fff"/>
  <path d="M292.62,81.47h-4.13v1.67h-1.71V68.33h5.84ZM288.49,70v4h2.38V70Zm2.38,9.82V75.63h-2.38v4.19Zm11.19-5.07v2h2.13v1.63h-2.13v4.89c0,.95-.22,1.45-.87,1.73a10.07,10.07,0,0,1-3.26.29,6.79,6.79,0,0,0-.6-1.72c1.12,0,2.21,0,2.51,0s.41-.1.41-.38V78.37H293V76.74h7.23v-2H293V73.12h4.73V70.94h-4V69.33h4V67.06h1.85v2.27h4.09v1.61h-4.09v2.18h4.83v1.63Zm-6.52,4.11a14.81,14.81,0,0,1,2.49,3.3l-1.57,1a14.48,14.48,0,0,0-2.41-3.4Z" style="fill: #fff"/>
  <path d="M309.73,76.2a13.28,13.28,0,0,1,3.93-9.5l1.52.72a12.37,12.37,0,0,0,0,17.57l-1.52.71A13.24,13.24,0,0,1,309.73,76.2Z" style="fill: #fff"/>
  <path d="M327.92,83.06a20.7,20.7,0,0,0,2.8.18c.86,0,4.2,0,5.33,0a5.46,5.46,0,0,0-.69,1.87h-4.73c-3.9,0-6.76-.66-8.57-3.78a10.13,10.13,0,0,1-2.8,4.13,11.09,11.09,0,0,0-1.53-1.27c2.18-1.63,3.2-4.41,3.61-7.89l1.91.18c-.12.91-.28,1.79-.47,2.6a5.63,5.63,0,0,0,3.24,3.5V74.83h-4.6V73.06h11.19v1.77h-4.69v2.92h5.69v1.73h-5.69Zm-7.41-9.26H318.7V69.23H326V67.1h2v2.13h7.36V73.8h-1.89V71h-12.9Z" style="fill: #fff"/>
  <path d="M345.09,67.77A30.21,30.21,0,0,1,343,72V85.26h-1.83V74.63a18.56,18.56,0,0,1-2,2.25A12.28,12.28,0,0,0,338,75a20.76,20.76,0,0,0,5.23-7.77Zm6.85,6A20.17,20.17,0,0,0,357,81.39a7,7,0,0,0-1.39,1.49A22.41,22.41,0,0,1,351,75.63v9.69h-1.83v-9.2A21.47,21.47,0,0,1,344.41,83,8.66,8.66,0,0,0,343,81.53a19.18,19.18,0,0,0,5.28-7.73h-4.47V72h5.31V67.38H351V72h5.46V73.8Z" style="fill: #fff"/>
  <path d="M374.25,68.35V85h-2V83.81h-9.36v1.3H361V68.35Zm-11.33,1.87v4.85h9.36V70.22ZM372.28,82v-5h-9.36v5Z" style="fill: #fff"/>
  <path d="M381.79,71.53a1.67,1.67,0,0,1,3.34,0,1.67,1.67,0,0,1-3.34,0Zm0,9.64a1.67,1.67,0,1,1,1.67,1.63A1.64,1.64,0,0,1,381.79,81.17Z" style="fill: #fff"/>
  <path d="M408.26,82.64v1.81H390.51V82.64h7.83V75.13h-6.56V73.32h6.56v-6.2h2v6.2H407v1.81h-6.66v7.51Z" style="fill: #fff"/>
  <path d="M425.79,68.35V85h-2V83.81h-9.36v1.3h-1.89V68.35Zm-11.33,1.87v4.85h9.36V70.22ZM423.82,82v-5h-9.36v5Z" style="fill: #fff"/>
  <path d="M436.37,76.2a13.21,13.21,0,0,1-3.94,9.5L430.92,85a12.37,12.37,0,0,0,0-17.57l1.51-.72A13.24,13.24,0,0,1,436.37,76.2Z" style="fill: #fff"/>
  <g>
    <path d="M75.43,30.47H68.35v3.17h-2V28.93h9.07V27.71H67.82V26H85.29v1.71h-7.7v1.22h9.24v4.71H84.77V30.47H77.59v5.25H75.43Zm8.78,14.74c1.2,0,1.44-.41,1.59-2.64a4.8,4.8,0,0,0,1.89.72c-.28,2.9-.93,3.64-3.36,3.64H79.08c-3,0-3.77-.55-3.77-2.71v-.45H70.6v1.15H68.47V36.44H84.74v7.33h-7.3v.45c0,.84.29,1,1.78,1ZM69,34h5.37v1.29H69Zm5.35-2.4v1.29H69.48V31.55ZM70.6,38v1.42h4.71V38Zm4.71,4.18V40.81H70.6v1.37ZM82.56,38H77.44v1.42h5.12Zm0,4.18V40.81H77.44v1.37Zm1-10.63v1.29H78.69V31.55ZM78.69,34h5.52v1.29H78.69Z" style="fill: #fff"/>
    <path d="M90.65,29.1h9v1.78h-9Zm8.26,16.95H93.65v1H91.73V39h7.18Zm-.1-11.89h-7V32.44h7Zm-7,1.54h7v1.73h-7Zm7-8.09H91.93V25.86h6.86Zm-5.14,13.2v3.46H97V40.81Zm13.78-6.74v3.65h4.32V47h-2.21v-1h-6.31V47.1h-2.14V37.72h4.06V34.07H99.77V32h5.38V28.57c-1.44.17-2.88.34-4.25.43a6.52,6.52,0,0,0-.65-1.89,55.54,55.54,0,0,0,10.23-1.71L112,27.23a44.91,44.91,0,0,1-4.61,1V32h5.4v2.11Zm2.11,5.66h-6.31v4.18h6.31Z" style="fill: #fff"/>
    <path d="M118.76,29c1.73-.17,6-.58,10.35-.94,2.52-.21,4.92-.36,6.53-.41l0,2.43a22.92,22.92,0,0,0-4.63.33,7.86,7.86,0,0,0-5.23,7.13c0,4.35,4,5.76,7.94,6l-.86,2.55c-4.66-.24-9.53-2.74-9.53-8a9.4,9.4,0,0,1,4-7.7c-2.07.21-7.9.79-10.56,1.36l-.24-2.61C117.47,29.12,118.28,29.08,118.76,29Zm15.51,7-1.49.67a21.79,21.79,0,0,0-1.92-3.36l1.44-.63A32,32,0,0,1,134.27,36ZM137,34.93l-1.47.72a22.93,22.93,0,0,0-2-3.31l1.44-.65C135.54,32.51,136.48,34,137,34.93Z" style="fill: #fff"/>
    <path d="M146.07,34c.84.86,3,3.38,3.46,4l-1.35,1.8a31.71,31.71,0,0,0-2.11-3.26V47.08h-2.13V36.49a24.15,24.15,0,0,1-3.12,6.32,12,12,0,0,0-1.11-2,24.42,24.42,0,0,0,3.94-8.57h-3.39V30.08h3.68v-5h2.13v5h3.22V32.2h-3.22Zm15.1-7.61V46.79h-2.23v-1.3h-6.53v1.42h-2.14V26.41Zm-8.76,2.11v3.53h6.53V28.52Zm0,9.22h6.53V34.09h-6.53Zm6.53,5.71V39.78h-6.53v3.67Z" style="fill: #fff"/>
    <path d="M174.23,30.8h-8.95V29h8.95Zm-.79,15h-5.16v1h-1.92V38.73h7.08Zm0-11.76h-7V32.29h7Zm-7,1.46h7v1.76h-7Zm7-7.87h-6.89V25.86h6.89Zm-5.09,12.91V44h3.24V40.52Zm13.66-2c0,1.42.89,4.92,5.57,6.7a17.78,17.78,0,0,0-1.3,1.9,9.19,9.19,0,0,1-5.4-5.67,9.65,9.65,0,0,1-6,5.67,8.78,8.78,0,0,0-1.27-1.8c5.13-1.83,6.12-5.36,6.12-6.8V35h2.28Zm-8,2.48a7.2,7.2,0,0,0,2.16-4.18l2,.41A8.49,8.49,0,0,1,175.72,42Zm11.88-5.14a42.45,42.45,0,0,0-5.18-3.75c-.94,1.76-2.5,3-5.19,3.94a6.93,6.93,0,0,0-1.27-1.78c4.92-1.51,5.47-4.29,5.69-9.21H182a23.56,23.56,0,0,1-.67,5.18,50.46,50.46,0,0,1,5.91,3.91Zm-7.63-8.93a7.59,7.59,0,0,1-1.94,4.37l-1.71-.82a7.19,7.19,0,0,0,1.83-3.91Zm4.7,13.9A24.13,24.13,0,0,0,185,36.66l2.18.72c-.84,1.44-1.8,3.07-2.57,4.1Zm4-13.68c-.77,1.36-1.66,2.85-2.35,3.81l-1.66-.65a22.14,22.14,0,0,0,1.87-3.86Z" style="fill: #fff"/>
  </g>
</svg>
