<svg xmlns="http://www.w3.org/2000/svg" width="41.36" height="33.6" viewBox="0 0 41.36 33.6">
  <path d="M41.29,4,41.34,4A17.09,17.09,0,0,1,37.5,5.15c-.32,0-.64.09-1,.11a8.45,8.45,0,0,0,3.17-3.5,9.12,9.12,0,0,0,.51-1.1l0,0,0-.06a17.08,17.08,0,0,1-5.39,2.06,8.48,8.48,0,0,0-14.67,5.8,8.74,8.74,0,0,0,.19,1.78c0,.05,0,.1,0,.15A24,24,0,0,1,4.48,3.32,21.64,21.64,0,0,1,2.92,1.57v0l0,0A8.45,8.45,0,0,0,4.4,12a8.2,8.2,0,0,0,1,.9,8.48,8.48,0,0,1-3.78-1v.1a8.46,8.46,0,0,0,5,7.68,7.73,7.73,0,0,0,1.78.65,8.53,8.53,0,0,1-2.16.29,8.22,8.22,0,0,1-1.41-.14.58.58,0,0,1-.14,0v0h0a8.52,8.52,0,0,0,6.57,5.76,8.21,8.21,0,0,0,1.32.16A17,17,0,0,1,2,29.9c-.55,0-1.09,0-1.62-.09-.13,0-.26,0-.38-.06l.07,0H0A24,24,0,0,0,13,33.6a23.23,23.23,0,0,0,19.13-9.38l0,0c.39-.52.74-1.06,1.09-1.6.07-.12.14-.22.21-.33.32-.53.6-1.06.88-1.6.07-.13.15-.26.21-.4a20.91,20.91,0,0,0,.88-2v0a24.44,24.44,0,0,0,1.68-8.76c0-.36,0-.73,0-1.09A17.2,17.2,0,0,0,40.6,5c.26-.32.52-.64.76-1Z" style="fill: #0071bc"/>
</svg>
