<svg xmlns="http://www.w3.org/2000/svg" width="43.54" height="43.54" viewBox="0 0 43.54 43.54">
  <g>
    <path d="M10.64,21.74a11.13,11.13,0,0,0,22.26,0c-.61-14.79-21.65-14.8-22.26,0Zm3.43,0a7.7,7.7,0,1,1,15.4,0c-.42,10.24-15,10.25-15.4,0Z" style="fill: #0071bc"/>
    <path d="M33.34,0H10.2A10.21,10.21,0,0,0,0,10.2V33.34a10.21,10.21,0,0,0,10.2,10.2H33.34a10.21,10.21,0,0,0,10.2-10.2V10.2A10.21,10.21,0,0,0,33.34,0Zm6.81,33.33a6.79,6.79,0,0,1-6.81,6.82H10.2a6.79,6.79,0,0,1-6.81-6.82V10.2A6.79,6.79,0,0,1,10.2,3.39H33.34a6.79,6.79,0,0,1,6.81,6.81Z" style="fill: #0071bc"/>
    <path d="M33.86,7.74a1.94,1.94,0,0,0,0,3.87A1.9,1.9,0,0,0,35.23,11a1.92,1.92,0,0,0,0-2.73,1.9,1.9,0,0,0-1.37-.57Z" style="fill: #0071bc"/>
  </g>
</svg>
