<?xml version="1.0" encoding="UTF-8"?><svg id="_イヤー_2" xmlns="http://www.w3.org/2000/svg" viewBox="0 0 682.42 160.46"><defs><style>.cls-1{fill:#5bb7ff;stroke:#12517c;stroke-miterlimit:10;stroke-width:2px;}</style></defs><g id="_イヤー_1-2"><g><g><path class="cls-1" d="M325.11,127.28l2.89-14.69h16.17l2.89,14.69,3.2-20.55,20.7-.31-8.44,52.73h-23.83l-2.66-15.23-2.58,15.23h-23.83l-8.44-52.73,21.8,.31,2.11,20.55Z"/><path class="cls-1" d="M378.96,104.7v-18.36h21.95v18.36h-21.95Zm0,54.77l.08-50.94h21.95l-.08,50.94h-21.95Z"/><path class="cls-1" d="M455.01,85.71l-.08,20.62-14.06-.31v4.53l17.27-.31-.08,18.98-17.5-.7,.08,30.7h-21.95v-30.7l-9.69,.23v-18.75l9.45,.55-.08-24.3,36.64-.55Z"/><path class="cls-1" d="M466.14,104.7v-18.36h21.95v18.36h-21.95Zm0,54.77l.08-50.94h21.95l-.08,50.94h-21.95Z"/></g><g><path class="cls-1" d="M430.81,27.56l5.79-11.58c-13.64-9.44-30.17-14.98-48.01-14.98s-33.78,5.33-47.27,14.45l5.64,11.27c12.19-6.82,26.24-10.72,41.2-10.72s30.13,4.22,42.65,11.56Z"/><path class="cls-1" d="M352.93,38.69l6.22,12.44c9.05-3.31,18.81-5.12,29.01-5.12,10.79,0,21.09,2.04,30.57,5.73l6.16-12.32c-11.11-5.38-23.56-8.4-36.73-8.4s-24.5,2.76-35.22,7.69Z"/><path class="cls-1" d="M388.16,76c6.01,0,11.86,.64,17.51,1.84l6.65-13.31c-7.66-2.29-15.77-3.53-24.17-3.53-7.81,0-15.37,1.07-22.54,3.05l6.72,13.44c5.13-.97,10.42-1.48,15.83-1.48Z"/></g></g><g><path d="M53.98,158.62L0,115.4l22.27-22.82,13.59,11.31,11.27-13.48-35.8-14.03,6.92-32.03,86.63,34.03-40.78,47.64,11.83,9.29-21.95,23.31Z"/><path d="M104.63,158.15l-5.74-20.21,43.77-16,7.21,14.12-45.23,22.09Zm-3.28-35.04l-.41-18.46,23.2,1.52,.18,14.71-22.97,2.23Z"/><path d="M169.84,132.31l-17.52-6.86,6.39-14.53,18.98,11.43-3.93,8.03-3.93,1.93Zm-4.63,26.31l-11.02-15.59,43.89-24.32,7.85,13.83-40.72,26.07Zm17.11-37.32l-19.16-8.32,6.09-13.24,19.04,9.79-5.98,11.78Z"/><path d="M208.22,157.16l.06-13.18,17.05,.06-.06-1.05-11.25,.23v-9.84l11.02,.35-.06-1.29-16.23,.06-.35-12.95,32.05,.23,.47,36.86-32.7,.53Z"/><path d="M248.77,158.15l-5.74-20.21,43.77-16,7.21,14.12-45.23,22.09Zm-3.28-35.04l-.41-18.46,23.2,1.52,.18,14.71-22.97,2.23Z"/></g><g><path d="M515.22,156.1l.29-9.73-9.67,9.14-7.03-15.7,22.09-15.53h-20.51l-.76-14.53,15.82,.06-.23-6.39,16.41,.41-.35,6.09,15.53-.06-1.11,13.12-8.67,7.44,12.19,9.14-9.38,15.94-8.67-10.9,.18,11.48h-16.11Z"/><path d="M558.82,139.99l-6.8-18.52,11.13-1.52,5.62,16.17-9.96,3.87Zm7.38,11.37l8.85-17.75-5.39,1.99-6.15-18.4,12.36-1.76,2.29,11.89,5.62-11.37,12.54,5.21-14.06,37.44-16.05-7.27Z"/><path d="M657.1,146.61l-31.77,12.01-35.02-88.49,30.71-11.85,11.08,28.29,37.67-15.84,12.64,30.42-36.81,15.42,11.5,30.05Z"/></g></g></svg>