<svg xmlns="http://www.w3.org/2000/svg" width="717.43" height="49.57" viewBox="0 0 717.43 49.57">
  <path d="M117.83,19.61c-.37,0-.4-.3-.4-1.76,0-.3,0-.57,0-.77a.22.22,0,0,1,.24-.25h.08c2.66.25,5.31.25,8,.25,2,0,6.83,0,7.43-.4a.74.74,0,0,1,.37-.17c.3,0,2.11,1.49,2.11,1.91s-.59.45-1,.94a64.91,64.91,0,0,1-6.08,6.26A10.21,10.21,0,0,1,130.64,28a5.76,5.76,0,0,1-2.06,1.76.18.18,0,0,1-.17-.1A30.11,30.11,0,0,0,122,23.29a.25.25,0,0,1-.1-.18,4.34,4.34,0,0,1,1.63-1.31A18.7,18.7,0,0,1,126.77,24c1.64-1.39,4.67-4.42,4.67-4.82,0-.07-.05-.12-.2-.12-.37,0-10.31.2-13.34.52Z" style="fill: #4e4d4d"/>
  <path d="M145.86,30.64c-.8.37-1,.72-1.32.72-.62,0-2.48-2.09-2.48-2.46,0-.1.1-.17.3-.2a14.88,14.88,0,0,0,2.9-.79,38.86,38.86,0,0,0,13-8.57c.1-.1.18-.15.23-.15s.07.1.1.3a6.88,6.88,0,0,0,.67,2.16.38.38,0,0,1,.07.22.45.45,0,0,1-.2.37A53.24,53.24,0,0,1,145.86,30.64Zm1.64-9.49a26.93,26.93,0,0,0-5-3.25c-.09,0-.17-.1-.17-.18a4.91,4.91,0,0,1,1.39-1.86c.5,0,5.42,2.58,5.42,3.06a6.37,6.37,0,0,1-1.49,2.31A.22.22,0,0,1,147.5,21.15Z" style="fill: #4e4d4d"/>
  <path d="M170,24.21a22.86,22.86,0,0,0-4.12-2.74c-.1,0-.15-.1-.15-.17a4.83,4.83,0,0,1,1.32-1.64c.49,0,4.49,2.14,4.49,2.56a5.88,5.88,0,0,1-1.42,2.06S170.09,24.25,170,24.21Zm.6,7c-.82.4-1.07.75-1.37.75-.55,0-2.36-1.91-2.36-2.31,0-.1.1-.17.3-.22,5.41-1.1,12.61-6.46,16-10.11.1-.1.15-.15.2-.15s.09.1.12.3a5.86,5.86,0,0,0,.69,2,.46.46,0,0,1,.08.25.53.53,0,0,1-.2.37A52.51,52.51,0,0,1,170.64,31.18Zm2.75-11.42a22.75,22.75,0,0,0-4-2.93c-.1,0-.15-.1-.15-.17a4,4,0,0,1,1.37-1.59c.44,0,4.34,2.38,4.34,2.73a5.65,5.65,0,0,1-1.46,2C173.47,19.83,173.44,19.81,173.39,19.76Z" style="fill: #4e4d4d"/>
  <path d="M200.16,30.49c-.65,0-1.29,0-2,0-1.89,0-4,.15-6,.27h-.1c-.23,0-.28-.1-.28-1,0-1.19,0-1.29.3-1.29h.1a49.3,49.3,0,0,0,6,.27c.67,0,1.32,0,2-.05,0-.82,0-1.71,0-2.38H198.1c-1.74,0-3.75.07-5.57.2h-.05c-.22,0-.27-.13-.27-.75,0-1.37,0-1.51.27-1.51h.1c1.82.17,3.78.27,5.47.27.72,0,1.44,0,2.21-.05,0-.7,0-1.47,0-1.91,0-.13,0-.15-.13-.15-.67,0-2.53,0-3.27,0-1.92,0-2.91,0-4.5.15h-.07c-.18,0-.3-.07-.3-.27,0-1.69,0-1.86.27-1.86h.1c2.38.17,3.38.17,4.5.17s3.15,0,5.21-.1c.15,0,.4.05.4.32,0,.95-.1,3.65-.1,4.72,0,1.37.1,4.62.17,5.37,0,.07,0,.12,0,.19,0,.25-.13.33-1.2.33s-1.16-.05-1.16-.38Z" style="fill: #4e4d4d"/>
  <path d="M214.87,30.64c-.8.37-1,.72-1.32.72-.62,0-2.48-2.09-2.48-2.46,0-.1.1-.17.3-.2a14.88,14.88,0,0,0,2.9-.79,38.9,38.9,0,0,0,13-8.57c.1-.1.17-.15.22-.15s.07.1.1.3a6.88,6.88,0,0,0,.67,2.16.38.38,0,0,1,.07.22.45.45,0,0,1-.2.37A53.24,53.24,0,0,1,214.87,30.64Zm1.64-9.49a26.94,26.94,0,0,0-5-3.25c-.1,0-.18-.1-.18-.18a4.91,4.91,0,0,1,1.39-1.86c.5,0,5.42,2.58,5.42,3.06a6.37,6.37,0,0,1-1.49,2.31A.22.22,0,0,1,216.51,21.15Z" style="fill: #4e4d4d"/>
  <path d="M239.77,25a2.83,2.83,0,1,1,2.83-2.83A2.85,2.85,0,0,1,239.77,25Z" style="fill: #4e4d4d"/>
  <path d="M258.39,18.69c0-.2,0-.25.22-.25a19.62,19.62,0,0,1,3.08.55c.3.1.45.25.45.42s-.17.42-.52.7a1.44,1.44,0,0,0-.67,1c-1.24,6.78-6.31,11-6.88,11a.57.57,0,0,1-.37-.15,9.37,9.37,0,0,0-2.39-1.07c-.12-.05-.2-.12-.2-.2s.08-.12.2-.2a13.15,13.15,0,0,0,7.08-11.32Zm-5.74-1.36c-.37,0-.42-.4-.42-2,0-.55,0-.82.3-.82h.07c2.26.22,4.52.25,6.78.25,5.79,0,7.75-.2,8.12-.42a.93.93,0,0,1,.35-.15c.22,0,2.09,1.41,2.09,1.86s-.62.45-1,1a23.87,23.87,0,0,1-5.37,5.86c-.12.1-.19.17-.29.17s-.18-.07-.3-.22a5,5,0,0,0-1.42-.87c-.07,0-.12-.1-.12-.17a.27.27,0,0,1,.12-.18,17.26,17.26,0,0,0,4.4-4.67c0-.07-.1-.12-.25-.12-.52,0-9.46.12-13,.5Z" style="fill: #4e4d4d"/>
  <path d="M273.75,29a.78.78,0,0,1-.24-.05,13.17,13.17,0,0,0-2.14-.67.24.24,0,0,1-.17-.2.15.15,0,0,1,.07-.13c3.35-2.3,6.26-7.2,6.51-9.9,0-.18.07-.23.2-.23s3.15.8,3.15,1.27-.8.74-1.12,1.34c-1.44,2.71-3,6.16-5.83,8.42A.7.7,0,0,1,273.75,29Zm9.54-10.11a.44.44,0,0,1-.05-.15c0-.4,2.11-.87,2.16-.87.62,0,6.18,8.45,6.18,9.27,0,.47-2.53,1.24-2.55,1.24s-.15,0-.18-.15C287.54,24.75,284,19.79,283.29,18.89Zm6.18.13a2.72,2.72,0,1,1,2.71-2.71A2.72,2.72,0,0,1,289.47,19Zm0-4a1.26,1.26,0,1,0,1.25,1.27A1.24,1.24,0,0,0,289.47,15Z" style="fill: #4e4d4d"/>
  <path d="M314.12,21.15c.15,0,.17.1.17.25,0,.32,0,.89,0,1.44a8.48,8.48,0,0,1,0,1c0,.12-.07.2-.22.2-3.6-.28-6.06-.3-7.5-.3-5.09,0-7.15.12-9.26.3h-.05c-.15,0-.22-.08-.22-.25,0-.32,0-.8,0-1.24,0-1.25.05-1.37.17-1.37h.13c3.45.27,5.69.3,7.05.3a96.52,96.52,0,0,0,9.71-.3Z" style="fill: #4e4d4d"/>
  <path d="M326.75,32c0,.28-.15.33-1.47.33-.47,0-.94,0-1.19,0a.26.26,0,0,1-.22-.3c.25-4.25.27-9.34.27-9.34s0-5.79-.35-8.84v-.1c0-.15,0-.22.23-.22h.05c3.08.35,3.33.42,3.33.64s-.7.87-.75,1.52c-.17,1.86-.17,4.57-.17,6a8.36,8.36,0,0,1,.62-1.42.37.37,0,0,1,.27-.17,33.11,33.11,0,0,1,6.43,2.21.18.18,0,0,1,.1.17c0,.1-.67,2.34-1,2.34,0,0-.08,0-.1,0a30,30,0,0,0-6.23-2.66l-.1,0c0,.35,0,.57,0,.57s0,4.94.25,9.29Z" style="fill: #4e4d4d"/>
  <path d="M341.53,32.7a.25.25,0,0,1-.18-.05,5.82,5.82,0,0,0-2.13-.87c-.23-.05-.32-.1-.32-.12s.09-.13.22-.2A15.94,15.94,0,0,0,344.38,25c-1.51-1.27-2.9-2.21-3.18-2.41-.09-.07-.14-.12-.14-.17S342.22,21,342.5,21a27.3,27.3,0,0,1,2.83,1.89,14.08,14.08,0,0,0,1-3.95c0-.15,0-.25.12-.25s2.83.77,2.83,1.17c0,.17-.2.32-.37.45a3.42,3.42,0,0,0-.87,1.54,22.91,22.91,0,0,1-.89,2.4,8.89,8.89,0,0,1,2.43,2.46,5.33,5.33,0,0,1-1.62,1.72c-.09,0-.17-.08-.27-.2a17.24,17.24,0,0,0-1.59-1.74C344.51,29.49,342.12,32.7,341.53,32.7Zm16.86-2.09c0,1.24-1.12,2.56-3.8,2.56-.15,0-.3-.1-.37-.35a8.5,8.5,0,0,0-1.47-2.06.78.78,0,0,1-.05-.12c0-.05.05-.1.15-.1l.15,0a10.66,10.66,0,0,0,1.56.18c.87,0,1.32-.28,1.35-1,0-1.56,0-3.37,0-5,0-2.21,0-4.22,0-5.09v-.17c-1.94,0-2.88,0-5.61.22-.27,0-.27-.25-.27-1.27-1.47-.14-3.48-.19-4.7-.19s-3,.1-4.67.24c-.3,0-.32-.27-.32-1.39,0-.89.05-.92.3-.92,1.31.1,2.53.18,3.57.23V14.67a14.76,14.76,0,0,0-.29-2.76v-.05c0-.12.05-.17.17-.17s3.1.17,3.1.72a2.09,2.09,0,0,1-.39.82,2.49,2.49,0,0,0-.35,1.51c0,.08,0,.92,0,1.59,1.27,0,2.74-.12,4-.25.2,0,.25,0,.25,1.3,2.41.17,3.38.2,5.24.2a42,42,0,0,0-.35-5.64s0-.08,0-.13.07-.15.17-.15h0a17.76,17.76,0,0,1,2.83.55c.23.08.3.18.3.32a1.83,1.83,0,0,1-.35.72c-.3.53-.34,1.27-.34,4.3.72,0,1.61-.07,3.22-.2.2,0,.3,0,.3,1.12s-.07,1.14-.3,1.14c-1.56-.12-2.48-.17-3.22-.2v.15c0,1.84,0,8.39.17,11Zm-5.19-4.47a19.52,19.52,0,0,0-3.33-2.88c-.1-.07-.17-.1-.17-.2a5.89,5.89,0,0,1,1.19-1.36.22.22,0,0,1,.2-.1c.37,0,3.75,2.48,3.75,2.88a5,5,0,0,1-1.44,1.84S353.3,26.27,353.2,26.14Z" style="fill: #4e4d4d"/>
  <path d="M385.3,14.94c0,.5,0,1.1,0,1.44,0,.18-.13.25-.28.25-3.8-.2-7-.22-8.39-.22l-7.1,0c0,.82.05,1.67.05,2.54,0,4.76-.62,9.88-3,13.43-.08.12-.15.17-.25.17a.73.73,0,0,1-.28-.1,9.05,9.05,0,0,0-2.11-.54c-.12,0-.19-.05-.19-.13a.58.58,0,0,1,.12-.17c2.63-2.83,3.35-7.95,3.35-12a27.86,27.86,0,0,0-.42-5.09.65.65,0,0,1,0-.18c0-.12.07-.15.19-.15h.13c1.56.15,5.21.23,7.72.25a14.8,14.8,0,0,0-.27-2.8s0-.08,0-.13.05-.07.13-.07a17.74,17.74,0,0,1,2.93.47c.22.07.32.17.32.3s-.4.69-.52,1.09a5.57,5.57,0,0,0-.15,1.14c1.47,0,4.17,0,7.77-.22h.05c.18,0,.25.1.25.2ZM370.8,30.31a.34.34,0,0,1-.13,0,6,6,0,0,0-2-.3c-.12,0-.2,0-.2-.07a.24.24,0,0,1,.08-.13,8.8,8.8,0,0,0,2.18-5.36c0-.13,0-.25,0-.35s.1-.15.2-.15,2.36.3,2.36.65c0,.12-.15.27-.3.49a2.19,2.19,0,0,0-.3.82,11.27,11.27,0,0,1-1.66,4.32A.28.28,0,0,1,370.8,30.31ZM374,30c.08-1.59.15-4.37.15-6.11v-.72a13.44,13.44,0,0,0-.27-2.61.35.35,0,0,1,0-.15c0-.05,0-.07.18-.07.47,0,3.15.54,3.15,1,0,.2-.25.42-.5.72a3.13,3.13,0,0,0-.32,1.56c-.05,1.64-.12,3.48-.12,5,0,.35,0,.7,0,1,0,.72,1,.95,2.11.95,2.66,0,2.71-.75,2.71-2.09,0-.27,0-.59,0-.94,0-.08,0-.2.08-.2a.22.22,0,0,1,.12.07,7.22,7.22,0,0,0,2,1.57.31.31,0,0,1,.17.3c-.32,3.15-2.08,3.37-5.34,3.37-1.66,0-4.12,0-4.12-2.43Zm5.61-8.72A20.18,20.18,0,0,0,374.82,19a.13.13,0,0,1-.12-.15.39.39,0,0,1,0-.15c.13-.3.72-1.39.87-1.39.4,0,5.24,1.69,5.24,2.19a4.75,4.75,0,0,1-1.07,1.86A.52.52,0,0,1,379.56,21.25Zm5.27,7.7c-.08,0-.1,0-.15-.1a21,21,0,0,0-3.82-4.74.22.22,0,0,1-.08-.15c0-.25,1.44-1.07,1.54-1.07.37,0,4.37,4,4.37,4.64A4.68,4.68,0,0,1,384.83,29Z" style="fill: #4e4d4d"/>
  <path d="M401.27,31.38a.9.9,0,0,1-.84-.42,5.85,5.85,0,0,0-1.19-1.27c-.13-.12-.18-.2-.18-.24s.13-.13.28-.13c5.71-.12,8.39-3,8.39-5.91,0-2.28-1.69-4.57-4.77-5.24h-.07c-.23,0-.28.1-.4.32A75.6,75.6,0,0,1,397,29.27a1.71,1.71,0,0,1-1.44.87c-1.24,0-3.82-1.74-3.82-5.41,0-4.8,4.22-8.65,9.71-8.65,4.84,0,8.86,2.91,8.86,7.48,0,3.5-2.53,7.18-8.81,7.82ZM394,24.6c0,1.15.62,2.59,1.24,2.59a.44.44,0,0,0,.33-.2,48.2,48.2,0,0,0,4.37-8.84C396.53,18.77,394,21.75,394,24.6Z" style="fill: #4e4d4d"/>
  <path d="M425.64,32.05c.32-3.57.29-6.93.32-10.45C422.31,25.25,419.35,27,419,27a.37.37,0,0,1-.28-.1,8.86,8.86,0,0,0-2.41-1.19c-.22-.07-.29-.12-.29-.17s.1-.1.22-.15c6.08-2.56,10-7.48,11.79-9.81a8.13,8.13,0,0,0,1.12-2c0-.13.1-.2.18-.2s2.78,1.44,2.78,1.93c0,.33-.62.45-.8.58a4.7,4.7,0,0,0-1.21,1.14c-.48.54-1.07,1.24-1.77,2,.05,4.17,0,8.91.3,13,0,.12-.07.25-1.36.25s-1.64-.05-1.64-.28Z" style="fill: #4e4d4d"/>
  <path d="M443.07,30.64c-.79.37-1,.72-1.31.72-.62,0-2.48-2.09-2.48-2.46,0-.1.09-.17.29-.2a14.79,14.79,0,0,0,2.91-.79,38.86,38.86,0,0,0,13-8.57c.1-.1.18-.15.23-.15s.07.1.09.3a7.45,7.45,0,0,0,.67,2.16.4.4,0,0,1,.08.22.48.48,0,0,1-.2.37A53.15,53.15,0,0,1,443.07,30.64Zm1.64-9.49a26.61,26.61,0,0,0-5-3.25c-.1,0-.17-.1-.17-.18a4.91,4.91,0,0,1,1.39-1.86c.5,0,5.41,2.58,5.41,3.06a6.24,6.24,0,0,1-1.49,2.31A.22.22,0,0,1,444.71,21.15Z" style="fill: #4e4d4d"/>
  <path d="M472.66,16.11a19.08,19.08,0,0,0,4.49-.3,1.2,1.2,0,0,1,.32-.12c.15,0,2,.94,2,1.41,0,.3-.67.5-1,1.15a36.48,36.48,0,0,1-3.5,5.43c.89.67,2.63,2,2.63,2.39S476,28,475.74,28a.21.21,0,0,1-.15-.07,17.68,17.68,0,0,0-2.26-2.23c-4.77,5.14-9.19,6.18-9.24,6.18a.26.26,0,0,1-.22-.12c-.5-.68-1.52-1-1.89-1.27-.13-.1-.18-.18-.18-.23s.1-.14.3-.19a20.31,20.31,0,0,0,9.39-5.81c-1.14-.82-2.19-1.49-2.76-1.82a.22.22,0,0,1-.1-.2c0-.2,1.12-1.39,1.47-1.39a18.73,18.73,0,0,1,2.95,1.59,23.12,23.12,0,0,0,2.71-4.27c0-.1-.07-.12-.2-.12-.77,0-3,.07-4.54.1-3.38,4.09-5.74,5.91-6.31,5.91a.44.44,0,0,1-.25-.08,8.83,8.83,0,0,0-1.66-.77.18.18,0,0,1-.15-.17.17.17,0,0,1,.1-.15c3.82-2.33,7.65-7,8.66-9.78,0-.18.13-.23.23-.23s2.8,1.09,2.8,1.64c0,.22-.29.4-.67.57a3,3,0,0,0-.84.72Z" style="fill: #4e4d4d"/>
  <path d="M502.36,21.15c.15,0,.18.1.18.25,0,.32,0,.89,0,1.44,0,.4,0,.77,0,1s-.08.2-.23.2c-3.6-.28-6.06-.3-7.5-.3-5.09,0-7.15.12-9.26.3h-.05c-.15,0-.22-.08-.22-.25,0-.32,0-.8,0-1.24,0-1.25.05-1.37.18-1.37h.12c3.45.27,5.69.3,7.05.3a96.52,96.52,0,0,0,9.71-.3Z" style="fill: #4e4d4d"/>
  <path d="M516.15,32.33c.15-1.3.2-3.78.2-5.52,0-.59,0-1.21,0-1.86a23,23,0,0,1-6.48,3.38c-.1,0-.2,0-.35-.2A10.73,10.73,0,0,0,507.7,27c-.1-.05-.15-.1-.15-.17s.05-.13.15-.15a24.68,24.68,0,0,0,11.2-6.9c.05,0,.08-.08.08-.1s-.1-.08-.23-.08c-3.1,0-6.33.23-7.59.37h-.05c-.3,0-.38-.37-.38-1.91,0-.59.08-.62.33-.62,1.93.18,3.87.22,5.83.22a13,13,0,0,0,4-.34.57.57,0,0,1,.3-.13c.28,0,1.84,1.37,1.84,1.74s-.5.37-.89.8A53.64,53.64,0,0,1,518,23.61c.25.05,1.22.2,1.22.5s-.4.62-.5.94a12.15,12.15,0,0,0-.12,1.76c0,1.79.1,4.27.22,5.57a.2.2,0,0,1-.22.17c-.27,0-.7.05-1.12.05s-.84,0-1.14-.05-.22-.08-.22-.17Zm3.15-15.55a19,19,0,0,0-4.89-2.13c-.13,0-.18-.05-.18-.13,0-.32.87-1.64,1.15-1.64s5.19,1.22,5.19,1.91c0,.15-.87,2-1.17,2A.19.19,0,0,1,519.3,16.78ZM525.43,28A21.54,21.54,0,0,0,520.05,25c-.1-.05-.18-.07-.18-.15a4.23,4.23,0,0,1,1.39-1.54c.35,0,5.79,2.11,5.79,2.73a7.11,7.11,0,0,1-1.52,2A.13.13,0,0,1,525.43,28Z" style="fill: #4e4d4d"/>
  <path d="M535.34,25.17c-.1,0-.2-.05-.22-.22a14.72,14.72,0,0,0-1.34-3.4.29.29,0,0,1,0-.18c0-.39,1.49-.72,1.61-.72.47,0,1.86,3.28,1.86,3.53S535.69,25.17,535.34,25.17Zm1.62,7a5.76,5.76,0,0,0-1.57-.89c-.27-.1-.4-.18-.4-.25s.13-.17.38-.27a14.15,14.15,0,0,0,7.84-8.57,15.31,15.31,0,0,0,.55-2c0-.23.12-.3.22-.3.3,0,2.66.89,2.66,1.41,0,.15-.17.28-.37.45s-.6.45-.72.77c-3.38,7.85-8.17,9.81-8.25,9.81A.42.42,0,0,1,537,32.2Zm.64-11.57a.33.33,0,0,1-.05-.2c0-.35,1.37-.62,1.62-.62a.28.28,0,0,1,.29.2,14.82,14.82,0,0,1,1.47,3.55c0,.45-1.91.87-2,.87s-.2-.08-.25-.25A17.54,17.54,0,0,0,537.6,20.63Z" style="fill: #4e4d4d"/>
  <path d="M559.55,32c0,.28-.15.33-1.47.33-.47,0-.94,0-1.19,0a.26.26,0,0,1-.22-.3c.24-4.25.27-9.34.27-9.34s0-5.79-.35-8.84v-.1c0-.15,0-.22.23-.22h0c3.08.35,3.33.42,3.33.64s-.69.87-.74,1.52c-.18,1.86-.18,4.57-.18,6a10.33,10.33,0,0,1,.62-1.42.37.37,0,0,1,.28-.17,33.11,33.11,0,0,1,6.43,2.21.2.2,0,0,1,.1.17c0,.1-.67,2.34-1,2.34,0,0-.08,0-.1,0a30,30,0,0,0-6.24-2.66l-.1,0a4.66,4.66,0,0,0,0,.57s0,4.94.25,9.29Z" style="fill: #4e4d4d"/>
  <path d="M580.42,25a2.83,2.83,0,1,1,2.84-2.83A2.85,2.85,0,0,1,580.42,25Z" style="fill: #4e4d4d"/>
  <path d="M606.32,32.05c-.17,0-.3,0-.4,0s-.12,0-.17,0a1,1,0,0,1-.23,0c-.12,0-.22-.08-.29-.28-.28-.84-.82-2.26-1.57-4.34s-1.81-5.22-2.38-7.38c-.08-.22-.1-.34-.13-.34s-.07.09-.14.34c-.65,2.31-1.72,5.37-2.46,7.43s-1.3,3.38-1.52,4.22a.36.36,0,0,1-.37.3h0a2.34,2.34,0,0,0-.47-.05.75.75,0,0,0-.2,0,.51.51,0,0,1-.2,0c-.17,0-.25-.08-.3-.25C594.7,29.12,590.1,17,589,14.45a1,1,0,0,1-.1-.38c0-.1.07-.15.17-.15s.12,0,.2,0a7.19,7.19,0,0,0,1,.07c.47,0,.94,0,1.39,0s.54,0,.62.3c.4,1.69,3.77,12.37,3.9,12.37s3.62-10.31,4.07-12.52c.05-.29.12-.39.32-.39l.25,0c.08,0,.13,0,.2,0a1.27,1.27,0,0,0,.45-.1h.07c.13,0,.27.1.32.34.35,1.74,3.78,12,4,12.72,0,.1.05.15.08.15s3.47-9.51,4.37-12.59c.07-.2.12-.38.39-.38l.15,0a7.29,7.29,0,0,0,1.17.1,10.87,10.87,0,0,0,1.29-.1.54.54,0,0,1,.2,0c.1,0,.15,0,.15.13a1.35,1.35,0,0,1-.12.37c-2.79,6.43-6.56,16.44-6.83,17.33a.35.35,0,0,1-.35.3Z" style="fill: #4e4d4d"/>
  <path d="M616.92,16.58a1.75,1.75,0,0,1,1.74-1.74,1.7,1.7,0,0,1,1.71,1.74,1.73,1.73,0,0,1-1.71,1.76A1.76,1.76,0,0,1,616.92,16.58Zm2.86,15.15c-.2,0-.7-.05-1.22-.05-.32,0-.67,0-1,0h-.1c-.22,0-.3-.08-.3-.28v-.15a34.24,34.24,0,0,0,.3-4.94,16.6,16.6,0,0,0-.37-4.35.47.47,0,0,1,0-.19c0-.15.08-.23.28-.25a12.8,12.8,0,0,0,2.33-.42.54.54,0,0,1,.2,0c.15,0,.22.1.22.25v.07c0,.62-.27,4-.27,5.24,0,.2,0,2.61.22,4.65v.07c0,.23-.07.35-.24.35Z" style="fill: #4e4d4d"/>
  <path d="M633.51,23.78a11.42,11.42,0,0,0-2.71-.27l-2.23,0h-.42c-.23,0-.3.07-.3.32v.89a59.82,59.82,0,0,0,.32,6.51c0,.07,0,.15,0,.2s-.08.34-.33.34a.56.56,0,0,1-.17,0,7.38,7.38,0,0,0-1.32-.1,6.12,6.12,0,0,0-1.14.1h-.07c-.15,0-.25-.07-.25-.22v-.05a61.22,61.22,0,0,0,.42-8.84,55.45,55.45,0,0,0-.32-8.2V14.3c0-.15,0-.3.27-.3h.08a33.59,33.59,0,0,0,3.52.12c2.58,0,5.47-.1,5.86-.12.1,0,.2,0,.3,0s.35,0,.35.33v.1a3,3,0,0,0,0,.52,11.74,11.74,0,0,0,.1,1.29v.12c0,.18-.05.23-.22.23h-.1c-2.14-.23-4.84-.25-5.51-.25a10.06,10.06,0,0,0-1.29.05c-.33,0-.5.07-.5,4.67,0,.24,0,.32,1.46.32a19.78,19.78,0,0,0,4.18-.32l.15,0c.19,0,.22.13.22.3v.2a8.33,8.33,0,0,0-.05.94,5.66,5.66,0,0,0,.07,1v.1a.25.25,0,0,1-.27.27Z" style="fill: #4e4d4d"/>
  <path d="M639,16.58a1.74,1.74,0,0,1,1.74-1.74,1.71,1.71,0,0,1,1.71,1.74,1.74,1.74,0,0,1-1.71,1.76A1.76,1.76,0,0,1,639,16.58Zm2.85,15.15c-.2,0-.69-.05-1.21-.05-.33,0-.67,0-1,0h-.1c-.23,0-.3-.08-.3-.28v-.15a36.06,36.06,0,0,0,.3-4.94,16.6,16.6,0,0,0-.37-4.35.47.47,0,0,1,0-.19c0-.15.08-.23.27-.25a13,13,0,0,0,2.34-.42.51.51,0,0,1,.2,0c.15,0,.22.1.22.25v.07c-.05.62-.27,4-.27,5.24,0,.2,0,2.61.22,4.65v.07c0,.23-.07.35-.25.35Z" style="fill: #4e4d4d"/>
  <path d="M661.8,31.56c0,.67-2.36,1.09-4.3,1.09-3.87,0-6.11-2-6.11-4.27,0-1.84,1.49-3.95,5.17-5.64v-.12c-.15-1.05-.72-1.64-1.57-1.64s-1.91.59-3.08,2a23.11,23.11,0,0,0-1.76,2.63.55.55,0,0,1-.47.25,10.27,10.27,0,0,1-2-.5c-.17-.05-.25-.15-.25-.25a.3.3,0,0,1,.1-.19,44.93,44.93,0,0,0,5.22-7.13c-.5,0-1,.05-1.49.05a12.24,12.24,0,0,1-1.94-.13c-.4-.07-.47-1.16-.47-2.26,0-.12,0-.17.1-.17a1.88,1.88,0,0,1,.2.05,11.65,11.65,0,0,0,2.9.32c.52,0,1,0,1.59-.07a23,23,0,0,0,.8-2.34c.07-.29.05-.32.29-.32.4,0,2.69.13,2.69.62,0,.28-.62.65-.87,1.12l-.3.6a30.55,30.55,0,0,0,3.23-.75l.12,0a.26.26,0,0,1,.25.19c.07.23.15,1.3.22,1.82,0,.3-.17.34-.2.34-1.41.25-3.05.53-4.66.73a19,19,0,0,1-1.27,1.93c-.07.1-.12.15-.12.18h0s.1-.05.2-.08a5.2,5.2,0,0,1,1.79-.37c1.54,0,2.46,1,2.85,2.66a39,39,0,0,0,5.22-2.19.44.44,0,0,1,.15-.05c.32,0,1.49,1.91,1.49,2.24s-.57.29-1.3.49c-1.78.55-3.62,1.12-5.41,1.77a36.12,36.12,0,0,1-.25,3.62c0,.47-.12.57-2,.57-.28,0-.38-.07-.38-.2s0-.1,0-.15a23.75,23.75,0,0,0,.37-2.85c-2,1.07-2.78,2.18-2.78,3.1,0,1.27,1.47,2.06,3.35,2.06a11,11,0,0,0,4.47-1,.43.43,0,0,1,.2-.08c.1,0,.15.08.15.3,0,.42-.12,1.29-.12,1.76Z" style="fill: #4e4d4d"/>
  <path d="M690.11,26.61c0,.2-.07.3-1.07.3s-1.09-.07-1.09-.25v-.42c-.45,0-1.27,0-2,0a10.6,10.6,0,0,0,6.76,5.09c.17,0,.27.1.27.15s-.12.15-.27.25a7.77,7.77,0,0,0-2,1.29.26.26,0,0,1-.22.13c-.13,0-3.45-1-5.71-5.22a9.27,9.27,0,0,1-5.57,5.39.35.35,0,0,1-.29-.17,6.89,6.89,0,0,0-1.92-1.27c-.09,0-.14-.08-.14-.12s.07-.1.22-.15c3.23-.8,5.34-2.64,6.11-5.37-.72,0-1.52,0-1.94,0,0,.17,0,.39,0,.59,0,.35-.05.38-1,.38-1.14,0-1.24-.08-1.24-.33v-.07c.17-1.59.22-2.63.22-3.21a23.87,23.87,0,0,0-.12-2.43c0-.07,0-.12,0-.17s.05-.13.22-.13h.15c.82,0,2.68.08,4.07.1a11.24,11.24,0,0,0-.1-1.41c-.55,0-1.14.07-1.79.15-.07,0-.22,0-.22-.18a8.09,8.09,0,0,1,0-.94c-1.63,1.71-2,1.86-2.11,1.86a.13.13,0,0,1-.12-.05,6.55,6.55,0,0,0-1.89-.89c-.17,0-.25-.1-.25-.15s.08-.13.2-.18a5.78,5.78,0,0,0,.8-.47c-.82-.1-1.59-.12-2.24-.15v1a13.68,13.68,0,0,0,3,2.46c.15.07.23.15.23.22a.22.22,0,0,1-.08.15,9.39,9.39,0,0,0-1.17,1.1c0,.1-.12.17-.19.17a8.62,8.62,0,0,1-1.82-1.94c0,2.56.15,8.45.35,11.15,0,.23-.25.23-1.27.23-1.39,0-1.46,0-1.46-.28.3-3.35.35-7.87.37-10.45-1,2.23-2.11,3.43-2.43,3.43a.28.28,0,0,1-.2-.08,5.82,5.82,0,0,0-1.79-.87c-.1,0-.2-.07-.2-.12s0-.08.1-.13a14.47,14.47,0,0,0,4.55-5.78v-.23c-.8,0-1.77.08-2.76.18-.2,0-.27,0-.27-1.14s0-1.15.27-1.15c1,.1,1.94.15,2.73.18a37,37,0,0,0-.27-5,.68.68,0,0,0,0-.12c0-.08,0-.08.1-.08s2.86.2,2.86.7c0,.22-.23.59-.37,1.16a18.9,18.9,0,0,0-.25,3.36c.72,0,1.49-.08,2.43-.18.08,0,.25,0,.25.18a7.69,7.69,0,0,1,0,.79c0,.32,0,.7,0,.94,2-1.53,4.74-5.26,5-6.87,0-.1.07-.25.24-.25.33,0,2.44.64,2.44,1,0,.15-.25.29-.5.42a15.73,15.73,0,0,0,7.23,5.66c.1,0,.12.07.12.12s-.15.18-.25.2a7.7,7.7,0,0,0-2,1.24.37.37,0,0,1-.28.1,8.58,8.58,0,0,1-2.31-1.59c0,.43,0,.92,0,1.15s-.12.15-.17.15a16.69,16.69,0,0,0-1.87-.15.65.65,0,0,1-.15.1c-.19.1-.22.27-.24.67,0,.12,0,.34,0,.64,1.32,0,3-.05,4.2-.1h.1c.17,0,.22,0,.22.2v.08c-.1,1.41-.1,1.93-.1,2.53s0,1.69.1,2.81Zm-8.94-4s0,.34,0,1v1l2.23,0c0-.07,0-.12,0-.2,0-.24.05-.94.07-1.78Zm.92-4.85a15.44,15.44,0,0,0,2,.1c.27,0,2.21,0,3.2-.1a20.69,20.69,0,0,1-2.91-3.37A24.58,24.58,0,0,1,682.09,17.72ZM688,23.49c0-.5,0-.92,0-.92s-1.35,0-2.44,0c0,.87,0,1.74-.07,2v0l2.53,0Z" style="fill: #4e4d4d"/>
  <path d="M703.33,28c.1-.12.1-.17.12-.17s1.91,1.29,1.91,1.67c0,.14-.22.17-.52.24a1.12,1.12,0,0,0-.59.28,13.38,13.38,0,0,1-4.92,2.63.92.92,0,0,1-.25,0,.24.24,0,0,1-.22-.13A7.3,7.3,0,0,0,697.34,31a.19.19,0,0,1-.05-.12.09.09,0,0,1,.1-.1C700.87,30,702.63,28.82,703.33,28Zm14-6.2c0,.17-.3.22-1.59.22s-1.17-.15-1.17-.22V21.7a15.87,15.87,0,0,0,.1-2.31c-2.18-.08-4.69-.08-7.1-.08h-.17c.35.18.74.5.74.67s-.32.28-.67.45A1.59,1.59,0,0,0,707,21c-.35.45-.9,1-1.42,1.62.5.27.94.52,1.27.74A16.73,16.73,0,0,0,710,20.13c0-.1.08-.17.15-.17a5.51,5.51,0,0,1,2.24,1.66c0,.2-.3.25-.65.33a1.7,1.7,0,0,0-.7.34c-.67.57-2.45,1.94-3.89,3,2-.13,3.94-.28,5.33-.4-.64-.47-1.14-.77-1.31-.89s-.1-.1-.1-.15a3.46,3.46,0,0,1,1.29-1.19c.27,0,5.09,3.1,5.09,3.6,0,.15-1.27,1.44-1.64,1.44a.4.4,0,0,1-.25-.15c-.42-.45-.84-.87-1.29-1.27a.54.54,0,0,1-.3.1c-.12,0-2.26.22-4.79.47,0,.05-.1.1-.17.15s-.18.22-.18.4c0,.37,0,.77,0,1.22,0,1.39.07,3.05.2,4.42,0,.12,0,.17-.15.19-.3,0-.85,0-1.34,0-1,0-1.12,0-1.12-.29.1-1.17.17-2.88.17-4.4,0-.52,0-1,0-1.46-3,.29-5.79.54-6.21.59s-.59.25-.79.25c-.45,0-1.49-2.16-1.49-2.36s.05-.1.15-.1.1,0,.17,0c.45,0,1,.05,1.64.05,1.14,0,2.53-.05,4-.13.35-.22.77-.52,1.22-.87a38.48,38.48,0,0,0-3.75-2c-.1-.05-.18-.07-.18-.15s.85-1.36,1.05-1.36a13,13,0,0,1,1.54.64,13,13,0,0,0,1.59-2.41c-1.64,0-3.06,0-4.9.08,0,1.19,0,1.76.1,2.43,0,.15-.05.25-1.66.25-1.17,0-1.19-.1-1.19-.2v-.05a19.35,19.35,0,0,0,.27-2.68c0-.52-.05-1-.1-1.61v-.08c0-.12,0-.15.18-.15h.12c4.3.2,6.13.2,8.19.2V15.74c-1.91,0-4.34,0-7,.22-.4,0-.4-.15-.4-1.17s.07-1.21.3-1.21h.1c2.56.2,5,.25,7,.25a14,14,0,0,0-.34-2.36,1.3,1.3,0,0,0,0-.13c0-.1.08-.1.23-.1.64,0,3.2.2,3.2.7,0,.2-.25.45-.42.77a2.35,2.35,0,0,0-.33,1.12c2,0,4.9-.1,7.21-.25h0a.23.23,0,0,1,.24.25c0,.22,0,.69,0,1.14a6.3,6.3,0,0,1,0,.82c0,.12-.17.17-.29.17-2.21-.15-5.14-.2-7.26-.22V17.5c2.36,0,4,0,8.37-.2.18,0,.23,0,.23.13v.07c0,.8-.1,1.37-.1,1.74,0,.72.15,2.28.17,2.48ZM715.1,32.18c-.67,0-5.12-3-5.12-3.6a11.16,11.16,0,0,1,1.57-.87c.07,0,.09,0,.14,0s.08,0,.18.13a14,14,0,0,0,5.39,2.6c.1,0,.17.08.17.13s0,.07-.17.15a10.93,10.93,0,0,0-2,1.39A.22.22,0,0,1,715.1,32.18Z" style="fill: #4e4d4d"/>
  <rect width="106.07" height="41.6" rx="20.8" style="fill: #f1df44"/>
  <g>
    <path d="M32.08,25.79A16.19,16.19,0,0,0,38.21,28a12.68,12.68,0,0,0-1.79,2.16A15.45,15.45,0,0,1,30,26.75l-.31,3.59H27.38l.3-3.47a21,21,0,0,1-7,3.23,9.72,9.72,0,0,0-1.34-2,22.67,22.67,0,0,0,6.5-2.33H20.16l.17-1.95H28L28,23H22.28l.15-1.71h5.74l.08-.9H21.52l.16-1.85h3.78a7.78,7.78,0,0,0-.54-1.56l.25,0H21L21.17,15h2.67a16.12,16.12,0,0,0-1-2.47l2.09-.7a13.2,13.2,0,0,1,1.27,2.81l-1,.36H27l.28-3.25h2.21L29.2,15h1.48L31,11.72h2.23L32.91,15h1.77l-.7-.22a17.32,17.32,0,0,0,1.51-2.89l2.44.6c-.64.92-1.26,1.81-1.77,2.51h2.59l-.17,1.93H34.83c-.37.58-.73,1.12-1.08,1.6h3.91l-.16,1.85H30.58l-.08.9h6L36.33,23h-6l-.07.88H38l-.17,1.95ZM27.44,16.9A9.22,9.22,0,0,1,28,18.44l-.34.06h3.72c.28-.48.57-1.06.84-1.6Z" style="fill: #040000"/>
    <path d="M53.37,20.87a12.75,12.75,0,0,0,5.23,2.69,11.84,11.84,0,0,0-1.75,2A13,13,0,0,1,53.62,24l-.55,6.3H50.6l.61-7h1.5a10.45,10.45,0,0,1-2.13-2.39h-2a15.15,15.15,0,0,1-2.6,2.37h1.7l-.12,1.38c-.17,1.89-1,4.4-5.06,5.85A7.93,7.93,0,0,0,41,28.56c3.43-1.09,4-2.77,4.08-4l.07-.72a18,18,0,0,1-3.79,1.85A9.54,9.54,0,0,0,40,23.7a16.49,16.49,0,0,0,5.63-2.83H42.41l.74-8.47H57.36l-.74,8.47ZM45,19h3.49l.12-1.44H45.08Zm.28-3.21h3.49l.13-1.44H45.36Zm9.21,1.77H51L50.83,19h3.49Zm.28-3.21H51.24l-.13,1.44H54.6Z" style="fill: #040000"/>
    <path d="M67.12,25.35a21.77,21.77,0,0,0-1.5-2.17L65,30.34H62.66l.57-6.5a18.7,18.7,0,0,1-2.07,1.75,8.53,8.53,0,0,0-1-2.15,19.69,19.69,0,0,0,5.63-6.06H61.22l.19-2.13H64l.31-3.51h2.33l-.31,3.51h.86l.39-.1,1.26.88A24.51,24.51,0,0,1,66,20.75l.5.48A24.3,24.3,0,0,0,68.08,19l1.4,1.25c-.76.68-1.44,1.4-2,1.95.55.56,1,1.1,1.24,1.32ZM79.5,13.26s-.08.87-.12,1.19C78.32,24.42,77.84,27.88,77,29a2.72,2.72,0,0,1-1.9,1.2,16.22,16.22,0,0,1-2.9.1,5.59,5.59,0,0,0-.52-2.46c1,.08,2,.08,2.45.08a.9.9,0,0,0,.77-.37c.61-.66,1.11-3.87,2-12H74c-.66,5.76-1.7,11.5-6.44,14.87a6.8,6.8,0,0,0-1.59-1.88c4.34-2.87,5.08-7.91,5.62-13H68.68l.2-2.23Z" style="fill: #040000"/>
    <path d="M84,26.83a2.19,2.19,0,0,1,2.25-2,1.78,1.78,0,0,1,1.9,2,2.17,2.17,0,0,1-2.25,2A1.76,1.76,0,0,1,84,26.83ZM85.2,16.66l.18-3H89l-.36,3-1.3,6.82H85.32Z" style="fill: #040000"/>
  </g>
  <path d="M47.62,37H63S60,41.88,65,49.57C65,49.57,56.94,46.33,47.62,37Z" style="fill: #f1df44"/>
</svg>
