<svg xmlns="http://www.w3.org/2000/svg" width="333.561" height="314.467" viewBox="0 0 333.561 314.467"><defs><style>.a{fill:#b5886a;}.b{fill:#fff;}.c{fill:#211715;}.d{fill:#f4b3b3;}.e{fill:#a0a0a0;}.f{fill:#ffda71;}</style></defs><path class="a" d="M293.53,49.674a64.668,64.668,0,0,0-6.464-5.032c-.152-.112-.3-.215-.466-.322a46.52,46.52,0,0,0-10.046-5.081,60.832,60.832,0,0,0-22.811-4.176,53.676,53.676,0,0,0-35.311,12.669c-13.04,11.506-20.863,27.516-18.853,53.663,2.811,19.631-3.458,40.8-1.992,56.982.426,4.856,2.846,10.7,9.569,15.317,0,0,21.768,7.671,46.361,7.671s49.687-9.092,49.687-9.092c10.482-3.887,10.655-10.483,10.738-14.321a40.48,40.48,0,0,0-2.064-13.911c-1.856-6.152-5.258-18.642-4.824-40.728h0c.788-6.374.494-15.634.35-19.194-.5-12.34-5.716-26.284-13.627-34.211-.075-.074-.162-.154-.251-.233"/><path class="b" d="M223.406,87.479c2.864-2.573,5.693-5.181,8.426-7.733-.212,3.112-.544,6.106-1.05,9.23a1.063,1.063,0,0,0,1.378,1.19c11.671-3.971,22.413-10.787,29.388-19.4a129.792,129.792,0,0,0,5.926,13.794c2.8,5.519,9.85,15.068,16.042,16.708,1.622.611,3.735,1.215,5.357,1.827,2.728-2.666,7.419-2.672,10.53-.467a11.747,11.747,0,0,1,4.518,10,19.394,19.394,0,0,1-4.063,10.514,27.976,27.976,0,0,1-11.742,8.995,54.35,54.35,0,0,1-10.777,13.492A43.879,43.879,0,0,1,260.372,155.9a40.519,40.519,0,0,1-22.535.45,39.956,39.956,0,0,1-11.272-4.891,38.679,38.679,0,0,1-10.242-10.046,52.472,52.472,0,0,1-7.835-15.532,72.7,72.7,0,0,1-3.236-15.561c-.347-3.005-.487-5.541-.543-7.376,1.088-.8,2.472-1.9,3.718-2.777C213.31,96.354,218.411,91.968,223.406,87.479Z"/><path class="b" d="M225.677,166.408c.453-.459.859-.944,1.307-1.464a24.815,24.815,0,0,0,4.931-9.044,25.95,25.95,0,0,0,3.765,1.143,56.381,56.381,0,0,0,9.042,1.2,50.1,50.1,0,0,0,9.855-.839c1.86-.385,3.657-.819,5.4-1.358a31.89,31.89,0,0,0,14.464-8.946,42.4,42.4,0,0,0,4.066,13.118c1.971,4.006,10.539,8.9,15.271,11.494-16.84,7.367-34.533,12.35-54.853,10.321-7.049-.7-16.967-4.451-21.812-10.869,2.244-1.082,4.381-1.677,7.1-3.531A9.652,9.652,0,0,0,225.677,166.408Z"/><path class="c" d="M272.427,149.552a45.977,45.977,0,0,0,3.338,10.459,16.152,16.152,0,0,0,4.591,5.891,81.774,81.774,0,0,0,13.434,8.551c2.714,1.478,5.139-2.665,2.423-4.145a78.2,78.2,0,0,1-12.234-7.612,20.726,20.726,0,0,1-2.5-2.349s-.479-.595-.224-.254c-.132-.176-.257-.359-.373-.546a16.161,16.161,0,0,1-.89-1.781,41.082,41.082,0,0,1-2.937-9.49A2.423,2.423,0,0,0,274.1,146.6a2.451,2.451,0,0,0-1.676,2.953Z"/><path class="c" d="M219.593,172.665c3.26-1.4,6.349-2.847,8.714-5.589a28.817,28.817,0,0,0,5.734-9.893,2.42,2.42,0,0,0-1.677-2.952,2.454,2.454,0,0,0-2.952,1.676c-.124.381-.255.759-.4,1.133,0,0-.282.7-.123.323-.08.186-.164.37-.249.554a24.827,24.827,0,0,1-1.2,2.263q-.624,1.047-1.343,2.034c-.031.043-.381.513-.248.339s-.227.284-.26.325c-.268.33-.546.652-.825.973a13.1,13.1,0,0,1-1.567,1.576l.011-.009-.206.145c-.225.145-.445.3-.672.441q-.528.332-1.073.633a44.729,44.729,0,0,1-4.09,1.884,2.406,2.406,0,0,0-.861,3.283,2.476,2.476,0,0,0,3.284.861Z"/><path class="c" d="M290.571,104.787c2.087-1.937,5.547-1.713,7.718-.018,2.6,2.032,3.542,5.637,3.166,8.8-.925,7.772-7.764,13.533-14.5,16.473a2.415,2.415,0,0,0-.861,3.283,2.459,2.459,0,0,0,3.283.861c7.083-3.09,13.156-8.615,15.848-15.982,2.542-6.955.471-16.03-7.014-18.877a10.74,10.74,0,0,0-11.033,2.064c-2.269,2.106,1.131,5.494,3.4,3.4Z"/><path class="c" d="M202.312,103.114a83.641,83.641,0,0,0,4.905,26.372c3.117,8.314,8.219,16.447,15.279,21.978,13.866,10.865,34.228,11.4,48.921,1.88a58.862,58.862,0,0,0,18.792-20.032c1.537-2.686-2.609-5.107-4.144-2.423a54.939,54.939,0,0,1-14.708,16.663,38.223,38.223,0,0,1-43.513,1.878c-6.9-4.461-12.048-11.761-15.219-19.246a76.374,76.374,0,0,1-5.513-27.07c-.112-3.08-4.913-3.095-4.8,0Z"/><path class="c" d="M288.277,42.569c-5.851-4.175-13.071-6.841-20.059-8.38a65.572,65.572,0,0,0-23.847-.8A55.11,55.11,0,0,0,212,50.681c-8.257,9.055-12.918,20.283-14.487,32.371a81.637,81.637,0,0,0-.645,10.839c.017,4.1.511,8.1.816,12.179.621,8.3-.1,16.632-.972,24.888-.808,7.672-1.857,15.382-1.741,23.113a30.609,30.609,0,0,0,1.218,9.317,23.158,23.158,0,0,0,5.131,8.485,29.4,29.4,0,0,0,4.626,3.894,2.422,2.422,0,0,0,3.283-.861,2.449,2.449,0,0,0-.861-3.284,20.7,20.7,0,0,1-6.526-7.15,17.891,17.891,0,0,1-1.954-7.383c-.468-7.182.363-14.4,1.13-21.536a206.134,206.134,0,0,0,1.693-23.87c-.036-3.98-.59-7.877-.839-11.836a94.862,94.862,0,0,1-.086-10.967c.6-11.378,3.944-22.641,10.945-31.661a50.271,50.271,0,0,1,26.954-17.956,58.381,58.381,0,0,1,41.257,4.507,43.393,43.393,0,0,1,4.913,2.944,2.42,2.42,0,0,0,3.284-.861,2.453,2.453,0,0,0-.861-3.284Z"/><path class="c" d="M303.842,174.587c5.083-1.927,9.686-5,11.58-10.314,1.53-4.285,1.093-9.6.418-13.96-.655-4.224-2.143-8.254-3.157-12.4a104.618,104.618,0,0,1-2.253-12.5,161.935,161.935,0,0,1-.976-22.106l-1.762,2.314h0a2.533,2.533,0,0,0,1.762-2.314,108.561,108.561,0,0,0,.236-21.114,61.42,61.42,0,0,0-6.781-23.623,39.554,39.554,0,0,0-7.686-10.6c-2.26-2.1-5.662,1.285-3.394,3.394,5.308,4.938,8.658,12.16,10.744,18.987,2.031,6.652,2.53,13.346,2.6,20.255a98.969,98.969,0,0,1-.516,12.7L306.42,101l0,0a2.482,2.482,0,0,0-1.761,2.314,144.537,144.537,0,0,0,2.839,33.453c.685,3.136,1.6,6.192,2.473,9.276a38.745,38.745,0,0,1,1.578,9.616c.029,1.087.014,2.178-.029,3.265-.012.293-.026.586-.048.879-.013.184-.032.368-.047.552-.059.691.035-.1-.039.319a9.594,9.594,0,0,1-1.913,4.7,15.779,15.779,0,0,1-6.9,4.585,2.466,2.466,0,0,0-1.676,2.952,2.418,2.418,0,0,0,2.952,1.676Z"/><path class="c" d="M259.33,71.675c2.217,6.141,4.731,12.545,8.4,17.986,3.414,5.063,7.874,10.621,13.537,13.258a2.47,2.47,0,0,0,3.284-.861,2.421,2.421,0,0,0-.861-3.284c-5.042-2.347-8.992-7.281-12-11.816C268.341,81.917,266,76.065,263.959,70.4a2.464,2.464,0,0,0-2.953-1.677,2.422,2.422,0,0,0-1.676,2.953Z"/><path class="c" d="M259.838,69.08a54.569,54.569,0,0,1-12.616,11.173,70.585,70.585,0,0,1-7.649,4.3c-1.337.648-2.692,1.261-4.07,1.817a22.627,22.627,0,0,1-4.3,1.537h1.276q.654,2.013.737.968c.025-.163.05-.326.074-.49q.09-.608.174-1.217c.117-.856.23-1.714.329-2.572.186-1.614.328-3.232.442-4.852.154-2.179-2.673-3.025-4.1-1.7a326.232,326.232,0,0,1-25.108,21.677,2.478,2.478,0,0,0-.861,3.283,2.415,2.415,0,0,0,3.284.861,337.936,337.936,0,0,0,26.079-22.427l-4.1-1.7c-.179,2.546-.427,5.086-.81,7.61a5.173,5.173,0,0,0,.173,3.458,3.526,3.526,0,0,0,3.043,1.809,9.134,9.134,0,0,0,2.961-.855c1.061-.394,2.112-.815,3.156-1.253,2.01-.844,3.989-1.754,5.923-2.761a61.612,61.612,0,0,0,19.354-15.28,2.469,2.469,0,0,0,0-3.394,2.418,2.418,0,0,0-3.394,0Z"/><path class="d" d="M162.751,247.115a13.1,13.1,0,0,0-5.408,6.371c.368,5.833,7.986,24.806,10.389,30.64a47.689,47.689,0,0,0,6.767,11.331c2.566,3.037,6.375,5.375,10.473,5.311,5.94-.093,14.072-7,15.8-12.4l.787-2.451c-.621,8.416-1.958,19.24-3.143,26.161H305.29l6.19-1.1c7.971-1.417,14.023-11.906,14.791-14.659,4.814-17.239,5.026-32.436,4.774-51.25-.149-4.492-.326-8.981-.5-13.462-.471-11.867-1.4-26.195-7.057-36.637-5.266-9.72-19.988-19.54-28.512-23.783-17.2,7.656-35.244,12.926-56.044,10.849-7.343-.733-17.8-4.768-22.389-11.681-6.716,3.144-17.594,7.718-23.648,14.61Z"/><path class="c" d="M161.54,245.042a16.281,16.281,0,0,0-4.216,3.747c-1.051,1.342-2.422,3.222-2.358,4.992a27.149,27.149,0,0,0,1.407,6.445c1.639,5.567,3.7,11.015,5.8,16.422,2,5.146,3.916,10.387,6.794,15.12a27.719,27.719,0,0,0,7.479,8.654,14.234,14.234,0,0,0,10.714,2.494c3.61-.687,6.933-2.863,9.67-5.229a20.592,20.592,0,0,0,6.261-8.681c.99-2.933-3.645-4.192-4.629-1.276a15.954,15.954,0,0,1-4.238,5.854,18.9,18.9,0,0,1-6.876,4.325c-6.139,1.98-10.987-3.318-14.016-8.2a79.266,79.266,0,0,1-6.053-13.109c-1.914-4.885-3.771-9.8-5.391-14.792a63.5,63.5,0,0,1-1.928-6.9c-.051-.253-.1-.507-.143-.76-.016-.089-.027-.178-.042-.266-.058-.331.12.43.017.136-.151-.428.151-.352-.078-.021.247-.356.4-.806.628-1.182a10.979,10.979,0,0,1,3.62-3.626c2.61-1.639.2-5.793-2.422-4.145Z"/><path class="c" d="M287.214,235.52c-.144,6.031-.122,12.065-.266,18.1a2.4,2.4,0,1,0,4.8,0c.144-6.031.122-12.065.266-18.1a2.4,2.4,0,0,0-4.8,0Z"/><path class="c" d="M194.124,232.067a32.6,32.6,0,0,0-2.333,9.87,30.165,30.165,0,0,0,1.626,10.081,188.547,188.547,0,0,1,5.052,18.252q.459,2.289.852,4.591c.221,1.288.035-.3.1.672.023.342.05.683.065,1.025.072,1.718.013,3.442-.067,5.158-.218,4.729-.671,9.449-1.19,14.154-.575,5.206-1.245,10.4-2.124,15.57a2.472,2.472,0,0,0,1.676,2.952,2.421,2.421,0,0,0,2.953-1.676,272.615,272.615,0,0,0,3.376-28.985,45.127,45.127,0,0,0-.244-10.621,128.2,128.2,0,0,0-4.466-18.226c-1.145-3.46-2.5-7-2.771-10.664-.282-3.8.812-7.352,2.123-10.877a2.423,2.423,0,0,0-1.677-2.953,2.452,2.452,0,0,0-2.952,1.677Z"/><path class="c" d="M328.141,231.606c.621,15.659,1.253,31.481-.723,47.075-.463,3.654-1.116,7.288-1.922,10.881q-.615,2.744-1.356,5.456c-.117.429-.247.845-.388,1.265-.135.4.193-.4-.008.023-.094.2-.183.4-.28.594-2.023,4.13-5.143,8.218-9.2,10.517-2.414,1.367-5.318,1.641-8.074,1.765a28.426,28.426,0,0,1-8.846-.924c-5.946-1.632-10.986-5.3-15.43-9.46a297.961,297.961,0,0,1-20.99-22.41c-3.267-3.764-6.49-7.57-9.59-11.474q-.483-.609-.963-1.223c-.07-.09-.412-.531-.18-.231q-.232-.3-.463-.6c-.511-.672-1.016-1.348-1.508-2.034-.392-.547-.778-1.1-1.142-1.665-.093-.144-.345-.572-.329-.523a3.991,3.991,0,0,1,.185-1.55,14.215,14.215,0,0,1,2.17-3.672,2.419,2.419,0,0,0-.861-3.284,2.452,2.452,0,0,0-3.283.861c-1.948,2.722-4.2,6.527-2.448,9.913a27.037,27.037,0,0,0,2.451,3.554c2.859,3.831,5.911,7.519,9,11.166,7.175,8.473,14.58,16.831,22.512,24.606,4.355,4.269,9.066,8.337,14.678,10.852a35.025,35.025,0,0,0,20.391,2.31c5.98-.985,10.584-5.58,13.89-10.386a24.924,24.924,0,0,0,3-5.579,69.165,69.165,0,0,0,2.494-10.454c3.037-16,2.895-32.468,2.278-48.675q-.127-3.345-.262-6.69c-.122-3.078-4.923-3.094-4.8,0Z"/><path class="c" d="M194.588,186.661c6.1-6.841,15.039-10.439,23.162-14.235l-3.284-.861C220.192,180,231.031,183.827,240.8,184.6a99.968,99.968,0,0,0,36.585-4.22,159.728,159.728,0,0,0,18.8-7.124h-2.422A83.805,83.805,0,0,1,315.6,188.723a33.182,33.182,0,0,1,7.383,10.742A62.686,62.686,0,0,1,326.8,214.42a165.18,165.18,0,0,1,1.342,17.186c.123,3.079,4.924,3.094,4.8,0-.436-10.878-1.035-22.229-4.965-32.5a37.862,37.862,0,0,0-7.712-12.457,75.781,75.781,0,0,0-11.663-9.975,94.832,94.832,0,0,0-11.562-7.125,5.6,5.6,0,0,0-1.748-.719,4.236,4.236,0,0,0-2.307.629q-2.045.9-4.111,1.746c-2.614,1.067-5.255,2.07-7.926,2.989a100.9,100.9,0,0,1-33.72,5.894c-5.759-.051-11.165-.494-16.595-2.5-4.538-1.676-9.249-4.361-12.021-8.445a2.481,2.481,0,0,0-3.284-.861c-8.5,3.975-17.751,7.823-24.133,14.986-2.049,2.3,1.334,5.706,3.394,3.394Z"/><path class="b" d="M248.631,211.786q-1.623-2.7-3.393-5.314a21.272,21.272,0,0,0-3.982-4.732,27.808,27.808,0,0,0-4.96-2.811c-7.377-3.762-15.574-7.508-22.429-10.264-3.356-1.349-6.039-2.469-8.71-1.871a3.943,3.943,0,0,0-2.938,3.167,3.99,3.99,0,0,0,1.691,3.435,17.936,17.936,0,0,0,3.511,2.277c4.693,2.535,11.716,6.228,16.31,9.139q-4.563,3.382-8.8,7.179c-1.432,1.283-2.8,2.647-2.977,4.561-.23,2.472.853,4.284,3.6,5.912l1.832,1.084a3.992,3.992,0,0,0,.309,3.528c.987,1.634,2.63,2.665,5.814,2.894a7.316,7.316,0,0,0,1.271,4.514c2.822,4.389,6.283,7.2,11.465,7.232a3.373,3.373,0,0,0,1.748-.393c.345.189.538.3.538.3,1.445.805,2.941,1.647,3.829,2.071a7.751,7.751,0,0,1,2.04,1.236,8.57,8.57,0,0,1,1.357,1.94c1.777,2.985,3.533,4.561,5.9,7.094l.506.428c.6-.5,1.042-.954,1.4-1.277a71.13,71.13,0,0,0,8.29-9.031,52.5,52.5,0,0,0,4.262-6.26l-.6-.254c-2.888-1.412-4.22-2.958-6.077-5.6-2.34-3.333-3.943-7.123-5.724-10.8Q251.381,216.364,248.631,211.786Z"/><path class="c" d="M237.322,243.692c1.33.742,2.652,1.5,4.025,2.164a11.66,11.66,0,0,1,1.061.56c.145.089.391.284.134.064a4.949,4.949,0,0,1,.458.458c-.225-.25-.025-.027.073.122s.194.3.287.46c.21.351.412.706.63,1.053a47.8,47.8,0,0,0,5.972,7.085,2.42,2.42,0,0,0,3.394,0,2.45,2.45,0,0,0,0-3.394c-1.055-1.127-2.149-2.22-3.171-3.377-.218-.247-.433-.5-.642-.751q-.191-.232-.377-.468c.212.268.064.081-.057-.084a23.722,23.722,0,0,1-1.332-2.021,11.66,11.66,0,0,0-1.526-2.18,7.945,7.945,0,0,0-2.284-1.577c-1.436-.7-2.827-1.48-4.222-2.258a2.4,2.4,0,1,0-2.423,4.144Z"/><path class="c" d="M224.138,202.237c-2.913-1.788-5.906-3.446-8.908-5.08-2.854-1.553-5.867-2.948-8.6-4.708-.757-.488-2.454-1.481-1.9-2.562.494-.958,1.817-.937,2.738-.821a21.282,21.282,0,0,1,5.084,1.642q2.492,1,4.96,2.051,5.22,2.241,10.351,4.688c3.464,1.648,7.02,3.256,10.358,5.152,3.119,1.772,4.961,5.018,6.833,7.965q3.074,4.839,5.666,9.962c3.458,6.831,6.27,15.443,13.578,19.113,2.753,1.383,5.186-2.757,2.422-4.145-3.071-1.542-4.964-4.108-6.676-7.026-2.112-3.595-3.687-7.479-5.6-11.181a118.186,118.186,0,0,0-6.371-10.88,40.15,40.15,0,0,0-3.636-4.937,16.869,16.869,0,0,0-4.961-3.634c-7.441-3.774-14.98-7.345-22.686-10.549-3.605-1.5-7.53-3.52-11.546-2.929s-6.757,4.952-4.715,8.7c1.051,1.926,3.074,3.249,4.938,4.288,1.711.954,3.451,1.859,5.175,2.789,3.729,2.01,7.458,4.033,11.07,6.25,2.639,1.62,5.053-2.53,2.422-4.145Z"/><path class="c" d="M222.837,202.5q-3.351,2.484-6.555,5.158a30.223,30.223,0,0,0-5.38,5.17,7.613,7.613,0,0,0-1.062,6.568,9.545,9.545,0,0,0,4.5,5.144c2.648,1.6,5.063-2.544,2.422-4.145a7.209,7.209,0,0,1-1.826-1.448c-.283-.3.008.051-.111-.144-.094-.156-.185-.313-.279-.469-.11-.183-.092-.238-.015-.012-.07-.205-.117-.407-.176-.614s-.031-.245-.012,0c-.015-.188-.023-.374-.022-.562a3.81,3.81,0,0,1,.029-.585c-.049.292.075-.189.1-.275.057-.195-.059.039.107-.262.1-.19.214-.375.336-.555a8.485,8.485,0,0,1,.641-.738,78.871,78.871,0,0,1,9.722-8.081,2.476,2.476,0,0,0,.861-3.284,2.418,2.418,0,0,0-3.284-.861Z"/><path class="c" d="M227.529,210.506a39.409,39.409,0,0,0-6.653,4.818,35.781,35.781,0,0,0-2.793,2.8,15.083,15.083,0,0,0-2.461,3.3,8.813,8.813,0,0,0-.888,4,6.687,6.687,0,0,0,1.7,3.982c1.635,1.968,4.095,2.635,6.531,2.923a2.414,2.414,0,0,0,2.4-2.4,2.457,2.457,0,0,0-2.4-2.4c-.147-.018-.812-.151-1.128-.238-.233-.064-.461-.137-.687-.222-.253-.094.226.151-.137-.072-.175-.107-.357-.211-.534-.316-.379-.225.124.135-.059-.047-.113-.113-.234-.217-.343-.334-.087-.094-.381-.552-.1-.107a2.75,2.75,0,0,1-.44-.839c-.079-.267,0,.292-.01-.157-.02-.619-.111.336.025-.326a4.835,4.835,0,0,1,.891-2.138,32,32,0,0,1,9.508-8.076,2.4,2.4,0,1,0-2.423-4.144Z"/><path class="c" d="M232.656,217.02l-5.059,4.412a43.388,43.388,0,0,0-4.546,4.1c-2.9,3.372-2.16,7.595.232,11.019a17.563,17.563,0,0,0,7.1,6.324c3.123,1.368,7.9,2.286,10.31-.8a5.769,5.769,0,0,0,.415-6.05,8.661,8.661,0,0,0-1.851-2.382c-.391-.383-.8-.746-1.193-1.13-.132-.129-.264-.259-.39-.393s-.263-.284-.386-.434q-.272-.363,0,.142l-.328,1.211a5.384,5.384,0,0,1,1.04-.921l1.295-1.134a2.4,2.4,0,1,0-3.395-3.394c-1.426,1.25-3.484,2.485-3.435,4.612.044,1.9,1.868,3.374,3.133,4.578.553.526,1.923,1.792,1.313,2.442-.231.246-1.772.064-2.323-.033a10.335,10.335,0,0,1-6.015-3.6c-1.423-1.605-3.78-4.524-2.128-6.659a32.615,32.615,0,0,1,4.546-4.1l5.059-4.412a2.4,2.4,0,1,0-3.394-3.394Z"/><path class="c" d="M303.134,265.235c-8.07-7.77-15.5-16.153-23.34-24.151-1.622-1.656-3.264-3.292-4.957-4.874q-1.134-1.062-2.305-2.084a7.96,7.96,0,0,0-2.987-2.049,3.52,3.52,0,0,0-3.774,1.37c-.8,1.2-1.331,2.612-2.088,3.852a58.246,58.246,0,0,1-5.019,6.9,77.227,77.227,0,0,1-6.683,7.01,16.221,16.221,0,0,1-6.77,4c-2.97.831-1.708,5.464,1.276,4.629,5.42-1.516,9.422-5.432,13.138-9.464a82.408,82.408,0,0,0,5.638-6.87c.905-1.224,1.772-2.477,2.565-3.776.756-1.237,1.287-2.657,2.088-3.852l-.861.861c-.46.352-1.6-.634-.619.189q.353.3.7.6.853.742,1.686,1.51c1.214,1.115,2.4,2.261,3.567,3.423,2.657,2.64,5.237,5.357,7.808,8.081,5.767,6.11,11.487,12.266,17.541,18.1,2.226,2.143,5.625-1.246,3.394-3.394Z"/><path class="e" d="M183.011,224.174c2.64-.872,12.285-4.087,18.317-6.2a5.292,5.292,0,0,0,3.295-6.628c-3.878-11.983-12.411-38.7-16.143-50.536a5.287,5.287,0,0,0-6.443-3.512c-7.551,2.063-18.911,5.193-26.754,7.429a5.292,5.292,0,0,0-3.624,6.6c1.424,4.781,3.117,10.24,4.857,15.378l13.445,41.1Z"/><path class="c" d="M158.83,186.072q-1.428-4.229-2.756-8.491-.65-2.077-1.281-4.159a13.343,13.343,0,0,1-.954-3.617c0-1.984,1.63-2.633,3.267-3.1q3.645-1.035,7.3-2.051,7.434-2.073,14.877-4.111c1.656-.454,3.812-1.542,5.478-.715,1.441.715,1.679,2.478,2.12,3.873q7.431,23.5,15,46.953c.525,1.627,1.107,3.391-.523,4.626a10.236,10.236,0,0,1-2.869,1.145q-1.9.657-3.808,1.3-6.144,2.091-12.306,4.13c-2.92.964-1.669,5.6,1.276,4.628q5.983-1.976,11.95-4.008a76.26,76.26,0,0,0,7.261-2.555,7.716,7.716,0,0,0,4.38-6.276c.206-2.059-.656-4.03-1.276-5.952q-.9-2.808-1.808-5.618-2.157-6.719-4.306-13.438-4.188-13.1-8.345-26.214c-.657-2.078-1.2-4.191-2.894-5.7a7.949,7.949,0,0,0-7.533-1.648c-5.335,1.41-10.646,2.92-15.962,4.4q-4.472,1.243-8.939,2.507c-3.052.865-5.64,2.205-6.738,5.4-1.066,3.1.412,6.311,1.321,9.267q1.651,5.372,3.442,10.7c.983,2.912,5.621,1.663,4.628-1.276Z"/><path class="c" d="M161.81,174.377q2.564-.755,5.132-1.49a2.492,2.492,0,0,0,1.435-1.1,2.448,2.448,0,0,0,.241-1.849,2.421,2.421,0,0,0-1.1-1.434,2.478,2.478,0,0,0-1.85-.242q-2.566.74-5.132,1.49a2.494,2.494,0,0,0-1.434,1.1,2.448,2.448,0,0,0-.242,1.849,2.422,2.422,0,0,0,1.1,1.434,2.466,2.466,0,0,0,1.849.242Z"/><path class="b" d="M173.372,251.166a14.276,14.276,0,0,1-6.346.611,4.8,4.8,0,0,1-2.7-1.12c-1.162-1.149-1.092-3-1.153-4.633-.311-8.277-5.431-12.937-9.931-19.9-.9-1.765-4.393-5.634-5.208-9.757a52.552,52.552,0,0,1,.229-9.172,19.607,19.607,0,0,1,.754-4.9,22.173,22.173,0,0,1,1.607-2.976,112.072,112.072,0,0,1,12.715-15.963,6.165,6.165,0,0,1,4.24-1.837,3.409,3.409,0,0,1,3.2,3.321,7.627,7.627,0,0,1-1.255,3.689c-3.878,5.737-7.9,11.809-11.5,16.905,6.614-4.143,15.279-9.243,22.335-13.423,2.257-1.337,4.14-2.454,6.729-2.028a3.985,3.985,0,0,1,3.041,2.581c1.2,4.15-2.812,4.879-3.076,5.687,3.623-.957,5.644-.057,6.394,2.516a4.7,4.7,0,0,1-1.567,4.793l-5.455,4.307,1.259-.265c1.86-.391,3.059-.184,3.964,1.517a4.341,4.341,0,0,1-.587,4.649c-2.243,3.042-5.76,6.18-9.051,9.1,2.75,7.284,2.919,11.395,1.649,18.189a5.052,5.052,0,0,1-.85,2.27A22.51,22.51,0,0,1,173.372,251.166Z"/><path class="c" d="M160.654,206.619c7.268-4.492,14.583-8.98,22.025-13.179,1.218-.687,2.92-1.6,4.339-.986a1.463,1.463,0,0,1,.918,1.2c.022.149-.014.676-.008.651-.047.19-.208.4-.122.3-.074.085-.69.629-.394.4-.17.129-.354.241-.533.356-1,.648-2.018,1.274-3.017,1.926-1.929,1.261-3.835,2.558-5.733,3.866-4.388,3.023-8.744,6.093-13.262,8.922-2.612,1.636-.2,5.791,2.423,4.145,4.584-2.872,9-5.991,13.457-9.057,2.23-1.535,4.472-3.055,6.751-4.516,1.569-1.007,3.352-1.905,4.38-3.532a6.423,6.423,0,0,0,.067-6.387,6.777,6.777,0,0,0-6.092-3.238c-2.547.056-4.742,1.287-6.876,2.55l-6.294,3.727c-4.837,2.869-9.668,5.747-14.452,8.7-2.623,1.621-.215,5.775,2.423,4.144Z"/><path class="c" d="M188.891,200.311a3.153,3.153,0,0,1,1.593.111c-.458-.171.559.422.152.094.329.265-.023-.148.223.252a2.325,2.325,0,0,1-.261,2.747c.211-.254-.21.179-.259.223-.274.248-.58.465-.871.691-.516.4-1.036.792-1.557,1.184q-1.836,1.381-3.7,2.727c-4.372,3.169-8.865,6.179-13.19,9.412a2.475,2.475,0,0,0-.861,3.284,2.416,2.416,0,0,0,3.283.861c3.909-2.922,7.963-5.651,11.925-8.5,2.361-1.7,4.705-3.419,7.005-5.2a9.532,9.532,0,0,0,2.674-2.728,7.042,7.042,0,0,0,.811-4.978,6.331,6.331,0,0,0-6.966-4.985,2.459,2.459,0,0,0-2.4,2.4,2.42,2.42,0,0,0,2.4,2.4Z"/><path class="c" d="M188.328,211.917c.042-.008.8-.1.313-.063.215-.014.421-.012.635-.014-.307,0-.249-.073.026.025q.255.079-.143-.071c.189.12.214.127.073.02-.124-.257.136.143.2.218-.286-.337.129.255.15.3a2.584,2.584,0,0,1,.158.569c-.026-.313-.053.374-.016.1.031-.229-.075.342-.091.4-.045.156-.274.618-.074.239a7.508,7.508,0,0,1-.5.835,23.493,23.493,0,0,1-1.655,1.973c-3.1,3.4-6.689,6.311-10.081,9.405a2.4,2.4,0,0,0,3.394,3.394c4.161-3.8,8.663-7.33,12.1-11.833a6.84,6.84,0,0,0,1.052-7.21,5.447,5.447,0,0,0-3.026-2.872,7,7,0,0,0-3.789-.039,2.423,2.423,0,0,0-1.676,2.952,2.448,2.448,0,0,0,2.952,1.676Z"/><path class="c" d="M160.823,205.62q5.425-7.764,10.646-15.683c1.5-2.272,2.413-5.4.945-7.908a5.959,5.959,0,0,0-7.274-2.5c-2.808.911-4.6,3.265-6.488,5.4q-2.751,3.1-5.265,6.4c-1.687,2.2-3.326,4.459-4.833,6.787a15.112,15.112,0,0,0-2.485,6.764c-.229,2-.386,4.037-.489,6.05-.138,2.7-.247,5.566.749,8.115a33.131,33.131,0,0,0,3.806,6.671c1.288,1.871,2.482,3.795,3.814,5.64,2.846,3.945,5.924,7.951,6.674,12.895.376,2.482-.136,5.19,1.4,7.369,1.64,2.323,4.814,2.825,7.476,2.678a21.57,21.57,0,0,0,8.844-2.623,25.369,25.369,0,0,0,3.738-2.458,11.307,11.307,0,0,0,3.126-3.188,14.689,14.689,0,0,0,1.211-5,36.109,36.109,0,0,0,.406-4.666,30.733,30.733,0,0,0-1.577-9.514c-.927-2.935-5.563-1.681-4.628,1.276a27.856,27.856,0,0,1,.815,13.839,3.8,3.8,0,0,1-1.195,2.552,18.289,18.289,0,0,1-2.634,2.036,19.628,19.628,0,0,1-5.808,2.575,12.328,12.328,0,0,1-2.839.394c-.786.011-2.192.051-2.84-.476a2.159,2.159,0,0,1-.493-1.576c-.082-1.158-.083-2.308-.231-3.462-.585-4.559-2.679-8.534-5.284-12.254-2.341-3.344-4.673-6.674-6.938-10.068-1.121-1.679-2.456-3.631-2.756-5.676a30.134,30.134,0,0,1,.055-6.508c.123-1.594.2-3.217.42-4.8.278-1.967,1.4-3.568,2.549-5.26a109.01,109.01,0,0,1,8.6-11.108c.975-1.1,1.935-2.246,2.992-3.265a3.459,3.459,0,0,1,2.543-1.135c1.785.31.183,2.927-.39,3.791q-5.172,7.8-10.512,15.487a2.42,2.42,0,0,0,.861,3.283,2.448,2.448,0,0,0,3.283-.861Z"/><path class="b" d="M50.547,6.646C21.164,16.88,2.364,44.508,2.364,75.719c0,45.75,28.525,74.666,73.745,74.666,14.447,0,27.051-2.819,37.566-8.077,7.484,3.064,13.133,5.237,22.822,8.766-2.438-9.211-3.615-13.9-5.745-21.306,12.391-12.932,19.1-31.429,19.1-54.049,0-39.782-30.306-73.288-73.755-73.288A77.408,77.408,0,0,0,50.547,6.646Z"/><path class="c" d="M49.909,4.332A74.263,74.263,0,0,0,10.682,36.278C1.735,51.306-1.275,68.8.476,86.075c1.531,15.111,6.6,29.8,16.316,41.623,9.231,11.238,22.232,18.776,36.248,22.337a94.858,94.858,0,0,0,24.923,2.735,88.6,88.6,0,0,0,30.376-5.511q3.336-1.288,6.547-2.878l-1.849.241c7.545,3.087,15.163,5.975,22.822,8.767,1.775.647,3.389-1.3,2.952-2.953-1.881-7.111-3.715-14.235-5.745-21.306l-.617,2.335c9.611-10.088,15.534-23.057,18.083-36.679,2.538-13.559,2.486-27.829-1.414-41.125a75.114,75.114,0,0,0-18.152-31.2A74.026,74.026,0,0,0,99.717,3.483,81.862,81.862,0,0,0,55.7,2.578c-1.954.506-3.883,1.1-5.791,1.754-2.9,1-1.655,5.639,1.276,4.628a76.977,76.977,0,0,1,46.773-1,69.185,69.185,0,0,1,31.871,20.316A70.84,70.84,0,0,1,146.2,62.027a82.915,82.915,0,0,1,.986,21.4,84.25,84.25,0,0,1-4.737,22.833,62.837,62.837,0,0,1-10.284,18.3q-.825,1.008-1.694,1.979c-.68.76-1.755,1.581-2.031,2.585s.257,2.167.532,3.137q.394,1.4.782,2.793c.948,3.421,1.852,6.855,2.755,10.288q.837,3.183,1.677,6.364l2.952-2.952c-5-1.823-9.994-3.67-14.951-5.61q-3.231-1.265-6.444-2.574a5.807,5.807,0,0,0-2.065-.668,4.442,4.442,0,0,0-1.893.664c-1.078.524-2.169,1.024-3.276,1.483a83.937,83.937,0,0,1-31.468,5.926c-15.932.135-31.992-3.46-45.118-12.709-12.009-8.462-20.2-21.33-24.1-35.519-4.591-16.72-4.286-35.124,2.16-51.306A69.45,69.45,0,0,1,45.12,11.405c1.98-.918,4.006-1.722,6.065-2.445a2.459,2.459,0,0,0,1.676-2.952A2.42,2.42,0,0,0,49.909,4.332Z"/><path class="f" d="M100.036,56.182c-16.06,0-43.544.053-55.817.039,2.584,9.113,6.556,23.177,9.46,33.3,12.318-.034,42.762-.119,49.78-.136a2.235,2.235,0,0,0,2.176-1.733c1.3-5.581,5.03-21.813,6.591-28.72a2.24,2.24,0,0,0-2.178-2.735C107.9,56.186,104.39,56.182,100.036,56.182Z"/><path class="c" d="M52.91,58.6c6.77.1,13.547.023,20.317.013q14.713-.021,29.427-.032,2.656,0,5.313.007a7.034,7.034,0,0,0,2.078.012c-.285.129.05-.432-.157-.2-.225.249-.258,1.141-.334,1.475q-1.812,7.98-3.652,15.951-.879,3.823-1.762,7.646-.325,1.412-.653,2.823a3.478,3.478,0,0,1-.211.8c.132-.248.355-.021-.047-.109a2.848,2.848,0,0,0-.569,0q-6.148.017-12.3.042-13.03.049-26.061.095l-1.164,0c-3.089,0-3.094,4.8,0,4.8,8.28,0,16.561-.057,24.841-.088q6.846-.025,13.692-.048a10.97,10.97,0,0,0,3.095-.193,4.847,4.847,0,0,0,3.264-3.654c.536-2.178,1.012-4.373,1.516-6.558q1.992-8.646,3.968-17.3c.56-2.453,1.9-5.667.52-8.01-1.44-2.445-4.082-2.286-6.532-2.292-9.64-.024-19.28,0-28.92.018-8.186.013-16.373.06-24.558.006-.371,0-.742,0-1.113-.011-3.09-.046-3.091,4.754,0,4.8Z"/><path class="c" d="M60.731,74.582c10.982,0,21.965-.056,32.947-.086q2.55-.007,5.1-.013c3.089,0,3.094-4.8,0-4.8-10.565,0-21.131.061-31.7.087q-3.176.008-6.35.012c-3.089,0-3.094,4.8,0,4.8Z"/><path class="c" d="M67.568,64.683C68.163,70.058,68.6,75.457,69.3,80.82a2.478,2.478,0,0,0,2.4,2.4,2.413,2.413,0,0,0,2.4-2.4c-.7-5.363-1.136-10.762-1.731-16.137a2.471,2.471,0,0,0-2.4-2.4,2.416,2.416,0,0,0-2.4,2.4Z"/><path class="c" d="M87.419,64.683c-.444,5.539-.91,11.079-1.282,16.624a2.4,2.4,0,1,0,4.8,0c.372-5.545.838-11.085,1.282-16.624a2.419,2.419,0,0,0-2.4-2.4,2.448,2.448,0,0,0-2.4,2.4Z"/><path class="c" d="M34.242,49.883q1.926,0,3.851.009a13.246,13.246,0,0,1,1.952,0c-.382-.06-.106-.266-.095.095a7.412,7.412,0,0,0,.442,1.548l.564,1.978q1.441,5.072,2.875,10.145,3.529,12.457,7.078,24.908,1.365,4.767,2.752,9.525c.445,1.515.756,3.268,1.908,4.418,1.442,1.439,3.292,1.352,5.154,1.355l21.739.038q9.9.018,19.8.031c3.089,0,3.094-4.8,0-4.8q-19.849,0-39.7-.066l-1.844,0a6.818,6.818,0,0,0-1.64,0c-.336.1-.281-.212-.046.179a2.488,2.488,0,0,1-.188-.536q-.256-.856-.508-1.715-1.423-4.842-2.8-9.7Q52,74.917,48.5,62.524,46.911,56.911,45.316,51.3c-.473-1.663-.777-3.71-2.093-4.932s-2.87-1.269-4.559-1.273c-1.474,0-2.948-.009-4.422-.01-3.088,0-3.093,4.8,0,4.8Z"/><path class="c" d="M64.475,108a5.463,5.463,0,0,1,5.571,5.537c0,3.456-2.155,5.641-5.571,5.641-3.5,0-5.572-2.185-5.572-5.641A5.458,5.458,0,0,1,64.475,108Z"/><path class="c" d="M96.292,108a5.463,5.463,0,0,1,5.571,5.537c0,3.456-2.155,5.641-5.571,5.641-3.5,0-5.572-2.185-5.572-5.641A5.458,5.458,0,0,1,96.292,108Z"/><path class="c" d="M238.646,119.682a23.918,23.918,0,0,0-.86,2.517c-.42,1.424-.924,3.214.269,4.419a3.95,3.95,0,0,0,.879.637,4.23,4.23,0,0,0,1.036.4,7.256,7.256,0,0,0,1.479.1,2.466,2.466,0,0,0,1.7-.7,2.4,2.4,0,0,0,0-3.394,2.517,2.517,0,0,0-1.7-.7,6.151,6.151,0,0,1-.78,0l.638.086a1.975,1.975,0,0,1-.384-.108l.573.242a2.61,2.61,0,0,1-.515-.308l.486.375a.077.077,0,0,1-.018-.018l.375.486a.359.359,0,0,1-.021-.038l.242.573a.465.465,0,0,1-.022-.091l.086.638a1.643,1.643,0,0,1,.015-.377l-.086.638a13.491,13.491,0,0,1,.584-2.251c.2-.619.4-1.244.652-1.844a2.4,2.4,0,0,0-.242-1.849,2.4,2.4,0,0,0-3.283-.861l-.486.375a2.387,2.387,0,0,0-.617,1.059Z"/><path class="c" d="M220.679,109.146c-.68,2.131-.376,7.068,3.507,7.563,5.145.068,5.55-5.887,3.88-8.723C226.7,105.664,222.55,104.629,220.679,109.146Z"/><path class="c" d="M264.835,109.326c.643,2.253.087,7.393-4.163,7.743-5.6-.149-5.774-6.381-3.826-9.269C258.44,105.435,263,104.533,264.835,109.326Z"/><path class="c" d="M236.458,140.939a17.792,17.792,0,0,0,7.348.672,20.728,20.728,0,0,0,7.884-2.246,2.421,2.421,0,0,0,.861-3.283,2.451,2.451,0,0,0-3.284-.861c-.219.118-.441.233-.666.34-.006,0-.551.25-.238.113.28-.122-.112.042-.163.062a16.773,16.773,0,0,1-1.607.529c-.558.155-1.124.283-1.693.387-.135.025-.27.048-.406.071-.052.008-.491.078-.19.033s-.138.016-.191.022c-.17.019-.341.037-.511.052a19.728,19.728,0,0,1-3.288.026c-.159-.013-.316-.03-.474-.044-.418-.04.08.025.083.015a5.029,5.029,0,0,1-.713-.122,11.551,11.551,0,0,1-1.476-.4,2.418,2.418,0,0,0-2.952,1.677,2.457,2.457,0,0,0,1.676,2.952Z"/></svg>